<svg xmlns="http://www.w3.org/2000/svg" width="56" height="66" viewBox="0 0 56 66" fill="none"><g clip-path="url(#clip0_1806_555)"><path d="M35.5609 29.5309C35.5609 29.8761 35.3503 30.2651 35.023 30.5936C32.109 33.5217 29.1989 36.4524 26.2733 39.3689C25.4171 40.2217 24.6867 40.214 23.8227 39.3702C22.7817 38.3538 21.756 37.3206 20.7406 36.2785C20.0346 35.5545 19.9909 34.645 20.6007 34.046C21.1578 33.4985 22.0333 33.5475 22.7329 34.2071C23.3863 34.8241 24.0281 35.4553 24.6353 36.1175C24.9845 36.4962 25.2091 36.4691 25.5622 36.1123C28.0269 33.6132 30.5121 31.136 32.9858 28.6446C33.3311 28.2968 33.6931 28.043 34.213 28.0584C34.9896 28.0816 35.5468 28.6201 35.5634 29.5321L35.5609 29.5309Z" fill="#64C397"></path><path d="M26.9705 66C24.3248 65.0158 21.7189 63.9543 19.2285 62.6056C9.98718 57.6022 4.1502 49.9786 1.67652 39.7515C0.874209 36.4344 0.433901 33.0657 0.231076 29.6584C0.0590609 26.7883 -0.0628903 23.9169 0.0346707 21.0467C0.10399 18.9908 -0.0153935 16.9258 0.240062 14.8814C0.652129 11.5861 3.32479 9.22615 6.65085 9.05868C13.7625 8.70056 20.0116 6.2491 25.19 1.2457C26.9037 -0.410931 29.0693 -0.416084 30.7959 1.2354C34.5327 4.81017 38.8883 7.22556 43.9461 8.32955C45.6791 8.70829 47.4301 8.99169 49.2028 9.05353C52.9307 9.18363 55.7715 11.9494 55.846 15.6968C55.9076 18.8053 56.0616 21.9124 55.9743 25.0234C55.8165 30.6671 55.3903 36.2721 53.7779 41.725C51.1618 50.5711 45.8691 57.2904 37.9384 61.9409C35.1053 63.6027 32.104 64.887 29.0244 66.0013H26.9718L26.9705 66ZM3.03082 22.3568C2.98717 25.084 3.07832 27.5651 3.2529 30.0487C3.46086 33.0245 3.85752 35.9693 4.56355 38.8678C5.91657 44.4264 8.34276 49.4246 12.2978 53.6075C16.5019 58.0531 21.6855 60.9103 27.3723 62.9495C27.8421 63.1183 28.285 63.0745 28.7446 62.9083C31.3659 61.9641 33.8973 60.8253 36.303 59.416C43.0231 55.4779 47.7625 49.8897 50.3492 42.4889C52.2093 37.1661 52.7895 31.6409 52.9538 26.0566C53.0565 22.5423 52.9833 19.023 52.8447 15.5074C52.7754 13.7374 51.2824 12.2251 49.5225 12.0911C48.3107 11.9984 47.0989 11.8837 45.896 11.715C39.3723 10.8003 33.6868 8.11829 28.9063 3.54515C28.1489 2.82118 27.855 2.82376 27.0835 3.55932C25.009 5.53414 22.7176 7.20624 20.1823 8.53824C15.9243 10.7759 11.3492 11.7948 6.58923 12.0911C4.71888 12.2083 3.18871 13.6833 3.15919 15.5229C3.12196 17.8816 2.93069 20.2364 3.0321 22.3581L3.03082 22.3568Z" fill="#333333"></path><circle cx="28" cy="34" r="15" stroke="#333333" stroke-width="2"></circle></g><defs><clipPath id="clip0_1806_555"><rect width="56" height="66" fill="white"></rect></clipPath></defs></svg>