<svg xmlns="http://www.w3.org/2000/svg" width="196" height="52" viewBox="0 0 196 52" fill="none"><rect x="0.5" y="0.5" width="195" height="51" rx="9.5" stroke="#D1D2D3"></rect><path d="M163 38.5C169.904 38.5 175.5 32.9036 175.5 26C175.5 19.0964 169.904 13.5 163 13.5C156.096 13.5 150.5 19.0964 150.5 26C150.5 32.9036 156.096 38.5 163 38.5Z" stroke="#00AAE1" stroke-width="2" stroke-linecap="round" stroke-linejoin="round"></path><path d="M160.5 21L168 26L160.5 31V21Z" stroke="#00AAE1" stroke-width="2" stroke-linecap="round" stroke-linejoin="round"></path><path d="M19.8051 33V17.6H25.8111C27.1605 17.6 28.3118 17.8127 29.2651 18.238C30.2185 18.6633 30.9518 19.2793 31.4651 20.086C31.9785 20.8927 32.2351 21.8533 32.2351 22.968C32.2351 24.0827 31.9785 25.0433 31.4651 25.85C30.9518 26.642 30.2185 27.258 29.2651 27.698C28.3118 28.1233 27.1605 28.336 25.8111 28.336H21.0151L22.0051 27.302V33H19.8051ZM22.0051 27.522L21.0151 26.422H25.7451C27.1531 26.422 28.2165 26.1213 28.9351 25.52C29.6685 24.9187 30.0351 24.068 30.0351 22.968C30.0351 21.868 29.6685 21.0173 28.9351 20.416C28.2165 19.8147 27.1531 19.514 25.7451 19.514H21.0151L22.0051 18.414V27.522ZM35.3741 33V16.676H37.4861V33H35.3741ZM48.7566 33V30.536L48.6466 30.074V25.872C48.6466 24.9773 48.3826 24.288 47.8546 23.804C47.3413 23.3053 46.5639 23.056 45.5226 23.056C44.8333 23.056 44.1586 23.1733 43.4986 23.408C42.8386 23.628 42.2813 23.9287 41.8266 24.31L40.9466 22.726C41.5479 22.242 42.2666 21.8753 43.1026 21.626C43.9533 21.362 44.8406 21.23 45.7646 21.23C47.3633 21.23 48.5953 21.6187 49.4606 22.396C50.3259 23.1733 50.7586 24.3613 50.7586 25.96V33H48.7566ZM44.9286 33.132C44.0633 33.132 43.3006 32.9853 42.6406 32.692C41.9953 32.3987 41.4966 31.9953 41.1446 31.482C40.7926 30.954 40.6166 30.36 40.6166 29.7C40.6166 29.0693 40.7633 28.4973 41.0566 27.984C41.3646 27.4707 41.8559 27.06 42.5306 26.752C43.2199 26.444 44.1439 26.29 45.3026 26.29H48.9986V27.808H45.3906C44.3346 27.808 43.6233 27.984 43.2566 28.336C42.8899 28.688 42.7066 29.1133 42.7066 29.612C42.7066 30.184 42.9339 30.646 43.3886 30.998C43.8433 31.3353 44.4739 31.504 45.2806 31.504C46.0726 31.504 46.7619 31.328 47.3486 30.976C47.9499 30.624 48.3826 30.1107 48.6466 29.436L49.0646 30.888C48.7859 31.5773 48.2946 32.1273 47.5906 32.538C46.8866 32.934 45.9993 33.132 44.9286 33.132ZM54.9582 37.4C54.4009 37.4 53.8582 37.3047 53.3302 37.114C52.8022 36.938 52.3475 36.674 51.9662 36.322L52.8682 34.738C53.1615 35.0167 53.4842 35.2293 53.8362 35.376C54.1882 35.5227 54.5622 35.596 54.9582 35.596C55.4715 35.596 55.8969 35.464 56.2342 35.2C56.5715 34.936 56.8869 34.4667 57.1802 33.792L57.9062 32.186L58.1262 31.922L62.7022 21.34H64.7702L59.1162 34.166C58.7789 34.9873 58.3975 35.6327 57.9722 36.102C57.5615 36.5713 57.1069 36.9013 56.6082 37.092C56.1095 37.2973 55.5595 37.4 54.9582 37.4ZM57.7302 33.374L52.4062 21.34H54.6062L59.1382 31.724L57.7302 33.374ZM72.9575 33V17.6H79.4475C81.0901 17.6 82.5348 17.9227 83.7815 18.568C85.0428 19.2133 86.0181 20.1153 86.7075 21.274C87.4115 22.4327 87.7635 23.7747 87.7635 25.3C87.7635 26.8253 87.4115 28.1673 86.7075 29.326C86.0181 30.4847 85.0428 31.3867 83.7815 32.032C82.5348 32.6773 81.0901 33 79.4475 33H72.9575ZM75.1575 31.086H79.3155C80.5915 31.086 81.6915 30.844 82.6155 30.36C83.5541 29.876 84.2801 29.2013 84.7935 28.336C85.3068 27.456 85.5635 26.444 85.5635 25.3C85.5635 24.1413 85.3068 23.1293 84.7935 22.264C84.2801 21.3987 83.5541 20.724 82.6155 20.24C81.6915 19.756 80.5915 19.514 79.3155 19.514H75.1575V31.086ZM96.0172 33.132C94.7706 33.132 93.6706 32.8753 92.7172 32.362C91.7786 31.8487 91.0452 31.1447 90.5172 30.25C90.0039 29.3553 89.7472 28.3287 89.7472 27.17C89.7472 26.0113 89.9966 24.9847 90.4952 24.09C91.0086 23.1953 91.7052 22.4987 92.5852 22C93.4799 21.4867 94.4846 21.23 95.5992 21.23C96.7286 21.23 97.7259 21.4793 98.5912 21.978C99.4566 22.4767 100.131 23.1807 100.615 24.09C101.114 24.9847 101.363 26.0333 101.363 27.236C101.363 27.324 101.356 27.4267 101.341 27.544C101.341 27.6613 101.334 27.7713 101.319 27.874H91.3972V26.356H100.219L99.3612 26.884C99.3759 26.136 99.2219 25.4687 98.8992 24.882C98.5766 24.2953 98.1292 23.8407 97.5572 23.518C96.9999 23.1807 96.3472 23.012 95.5992 23.012C94.8659 23.012 94.2132 23.1807 93.6412 23.518C93.0692 23.8407 92.6219 24.3027 92.2992 24.904C91.9766 25.4907 91.8152 26.1653 91.8152 26.928V27.28C91.8152 28.0573 91.9912 28.754 92.3432 29.37C92.7099 29.9713 93.2159 30.4407 93.8612 30.778C94.5066 31.1153 95.2472 31.284 96.0832 31.284C96.7726 31.284 97.3959 31.1667 97.9532 30.932C98.5252 30.6973 99.0239 30.3453 99.4492 29.876L100.615 31.24C100.087 31.856 99.4272 32.3253 98.6352 32.648C97.8579 32.9707 96.9852 33.132 96.0172 33.132ZM118.882 21.23C119.821 21.23 120.649 21.4133 121.368 21.78C122.087 22.1467 122.644 22.704 123.04 23.452C123.451 24.2 123.656 25.146 123.656 26.29V33H121.544V26.532C121.544 25.4027 121.28 24.552 120.752 23.98C120.224 23.408 119.483 23.122 118.53 23.122C117.826 23.122 117.21 23.2687 116.682 23.562C116.154 23.8553 115.743 24.288 115.45 24.86C115.171 25.432 115.032 26.1433 115.032 26.994V33H112.92V26.532C112.92 25.4027 112.656 24.552 112.128 23.98C111.615 23.408 110.874 23.122 109.906 23.122C109.217 23.122 108.608 23.2687 108.08 23.562C107.552 23.8553 107.141 24.288 106.848 24.86C106.555 25.432 106.408 26.1433 106.408 26.994V33H104.296V21.34H106.32V24.442L105.99 23.65C106.357 22.8873 106.921 22.2933 107.684 21.868C108.447 21.4427 109.334 21.23 110.346 21.23C111.461 21.23 112.421 21.5087 113.228 22.066C114.035 22.6087 114.563 23.4373 114.812 24.552L113.954 24.2C114.306 23.3053 114.922 22.5867 115.802 22.044C116.682 21.5013 117.709 21.23 118.882 21.23ZM132.536 33.132C131.363 33.132 130.321 32.8753 129.412 32.362C128.503 31.8487 127.784 31.1447 127.256 30.25C126.728 29.3407 126.464 28.314 126.464 27.17C126.464 26.0113 126.728 24.9847 127.256 24.09C127.784 23.1953 128.503 22.4987 129.412 22C130.321 21.4867 131.363 21.23 132.536 21.23C133.695 21.23 134.729 21.4867 135.638 22C136.562 22.4987 137.281 23.1953 137.794 24.09C138.322 24.97 138.586 25.9967 138.586 27.17C138.586 28.3287 138.322 29.3553 137.794 30.25C137.281 31.1447 136.562 31.8487 135.638 32.362C134.729 32.8753 133.695 33.132 132.536 33.132ZM132.536 31.284C133.284 31.284 133.951 31.1153 134.538 30.778C135.139 30.4407 135.609 29.964 135.946 29.348C136.283 28.7173 136.452 27.9913 136.452 27.17C136.452 26.334 136.283 25.6153 135.946 25.014C135.609 24.398 135.139 23.9213 134.538 23.584C133.951 23.2467 133.284 23.078 132.536 23.078C131.788 23.078 131.121 23.2467 130.534 23.584C129.947 23.9213 129.478 24.398 129.126 25.014C128.774 25.6153 128.598 26.334 128.598 27.17C128.598 27.9913 128.774 28.7173 129.126 29.348C129.478 29.964 129.947 30.4407 130.534 30.778C131.121 31.1153 131.788 31.284 132.536 31.284Z" fill="#00AAE1"></path></svg>