<svg xmlns="http://www.w3.org/2000/svg" width="1441" height="521" viewBox="0 0 1441 521" fill="none"><rect x="-21.2158" y="1.08521" width="130.966" height="85.0284" rx="9.5" stroke="#706E66"></rect><rect x="1443.94" y="465.642" width="89.875" height="37.2557" rx="9" transform="rotate(180 1443.94 465.642)" stroke="#DFFC7C" stroke-width="2"></rect><rect x="82.8545" y="111.837" width="5.88" height="5.88" rx="1" fill="#DFFC7C"></rect><rect x="82.8545" y="83.1725" width="5.88" height="5.88" rx="1" fill="#DFFC7C"></rect><rect x="54.1899" y="111.837" width="5.88" height="5.88" rx="1" fill="#DFFC7C"></rect><rect x="54.1899" y="83.1725" width="5.88" height="5.88" rx="1" fill="#DFFC7C"></rect><rect x="82.8545" y="102.282" width="5.88" height="5.88" rx="1" fill="#DFFC7C"></rect><rect x="82.8545" y="73.6175" width="5.88" height="5.88" rx="1" fill="#DFFC7C"></rect><rect x="54.1899" y="102.282" width="5.88" height="5.88" rx="1" fill="#DFFC7C"></rect><rect x="54.1899" y="73.6175" width="5.88" height="5.88" rx="1" fill="#DFFC7C"></rect><rect x="82.8545" y="92.7275" width="5.88" height="5.88" rx="1" fill="#DFFC7C"></rect><rect x="82.8545" y="64.0625" width="5.88" height="5.88" rx="1" fill="#DFFC7C"></rect><rect x="54.1899" y="92.7275" width="5.88" height="5.88" rx="1" fill="#DFFC7C"></rect><rect x="54.1899" y="64.0625" width="5.88" height="5.88" rx="1" fill="#DFFC7C"></rect><rect x="73.2998" y="111.837" width="5.88" height="5.88" rx="1" fill="#DFFC7C"></rect><rect x="73.2998" y="83.1725" width="5.88" height="5.88" rx="1" fill="#DFFC7C"></rect><rect x="44.6353" y="111.837" width="5.88" height="5.88" rx="1" fill="#DFFC7C"></rect><rect x="44.6353" y="83.1725" width="5.88" height="5.88" rx="1" fill="#DFFC7C"></rect><rect x="73.2998" y="102.282" width="5.88" height="5.88" rx="1" fill="#DFFC7C"></rect><rect x="73.2998" y="73.6175" width="5.88" height="5.88" rx="1" fill="#DFFC7C"></rect><rect x="44.6353" y="102.282" width="5.88" height="5.88" rx="1" fill="#DFFC7C"></rect><rect x="44.6353" y="73.6175" width="5.88" height="5.88" rx="1" fill="#DFFC7C"></rect><rect x="73.2998" y="92.7275" width="5.88" height="5.88" rx="1" fill="#DFFC7C"></rect><rect x="73.2998" y="64.0625" width="5.88" height="5.88" rx="1" fill="#DFFC7C"></rect><rect x="44.6353" y="92.7275" width="5.88" height="5.88" rx="1" fill="#DFFC7C"></rect><rect x="44.6353" y="64.0625" width="5.88" height="5.88" rx="1" fill="#DFFC7C"></rect><rect x="63.7451" y="111.837" width="5.88" height="5.88" rx="1" fill="#DFFC7C"></rect><rect x="63.7451" y="83.1725" width="5.88" height="5.88" rx="1" fill="#DFFC7C"></rect><rect x="35.0796" y="111.837" width="5.88" height="5.88" rx="1" fill="#DFFC7C"></rect><rect x="35.0796" y="83.1725" width="5.88" height="5.88" rx="1" fill="#DFFC7C"></rect><rect x="63.7451" y="102.282" width="5.88" height="5.88" rx="1" fill="#DFFC7C"></rect><rect x="63.7451" y="73.6175" width="5.88" height="5.88" rx="1" fill="#DFFC7C"></rect><rect x="35.0796" y="102.282" width="5.88" height="5.88" rx="1" fill="#DFFC7C"></rect><rect x="35.0796" y="73.6175" width="5.88" height="5.88" rx="1" fill="#DFFC7C"></rect><rect x="63.7451" y="92.7275" width="5.88" height="5.88" rx="1" fill="#DFFC7C"></rect><rect x="63.7451" y="64.0625" width="5.88" height="5.88" rx="1" fill="#DFFC7C"></rect><rect x="35.0796" y="92.7275" width="5.88" height="5.88" rx="1" fill="#DFFC7C"></rect><rect x="35.0796" y="64.0625" width="5.88" height="5.88" rx="1" fill="#DFFC7C"></rect><rect x="1429.69" y="62.2662" width="4.30199" height="4.30199" rx="1" fill="#EF8E41"></rect><rect x="1429.69" y="41.294" width="4.30199" height="4.30199" rx="1" fill="#EF8E41"></rect><rect x="1429.69" y="55.2755" width="4.30199" height="4.30199" rx="1" fill="#EF8E41"></rect><rect x="1429.69" y="34.3033" width="4.30199" height="4.30199" rx="1" fill="#EF8E41"></rect><rect x="1429.69" y="48.2847" width="4.30199" height="4.30199" rx="1" fill="#EF8E41"></rect><rect x="1429.69" y="27.3125" width="4.30199" height="4.30199" rx="1" fill="#EF8E41"></rect><rect x="1422.7" y="62.2662" width="4.30199" height="4.30199" rx="1" fill="#EF8E41"></rect><rect x="1422.7" y="41.294" width="4.30199" height="4.30199" rx="1" fill="#EF8E41"></rect><rect x="1422.7" y="55.2755" width="4.30199" height="4.30199" rx="1" fill="#EF8E41"></rect><rect x="1422.7" y="34.3033" width="4.30199" height="4.30199" rx="1" fill="#EF8E41"></rect><rect x="1422.7" y="48.2847" width="4.30199" height="4.30199" rx="1" fill="#EF8E41"></rect><rect x="1422.7" y="27.3125" width="4.30199" height="4.30199" rx="1" fill="#EF8E41"></rect><rect x="1436.68" y="62.2662" width="4.30199" height="4.30199" rx="1" fill="#EF8E41"></rect><rect x="1436.68" y="41.294" width="4.30199" height="4.30199" rx="1" fill="#EF8E41"></rect><rect x="1415.71" y="62.2662" width="4.30199" height="4.30199" rx="1" fill="#EF8E41"></rect><rect x="1415.71" y="41.294" width="4.30199" height="4.30199" rx="1" fill="#EF8E41"></rect><rect x="1436.68" y="55.2755" width="4.30199" height="4.30199" rx="1" fill="#EF8E41"></rect><rect x="1436.68" y="34.3033" width="4.30199" height="4.30199" rx="1" fill="#EF8E41"></rect><rect x="1415.71" y="55.2755" width="4.30199" height="4.30199" rx="1" fill="#EF8E41"></rect><rect x="1415.71" y="34.3033" width="4.30199" height="4.30199" rx="1" fill="#EF8E41"></rect><rect x="1436.68" y="48.2847" width="4.30199" height="4.30199" rx="1" fill="#EF8E41"></rect><rect x="1436.68" y="27.3125" width="4.30199" height="4.30199" rx="1" fill="#EF8E41"></rect><rect x="1415.71" y="48.2847" width="4.30199" height="4.30199" rx="1" fill="#EF8E41"></rect><rect x="1415.71" y="27.3125" width="4.30199" height="4.30199" rx="1" fill="#EF8E41"></rect><rect x="16.5781" y="515.795" width="4.30199" height="4.30199" rx="1" fill="#E7E7E7"></rect><rect x="16.5781" y="494.822" width="4.30199" height="4.30199" rx="1" fill="#E7E7E7"></rect><rect x="16.5781" y="508.804" width="4.30199" height="4.30199" rx="1" fill="#E7E7E7"></rect><rect x="16.5781" y="487.832" width="4.30199" height="4.30199" rx="1" fill="#E7E7E7"></rect><rect x="16.5781" y="501.813" width="4.30199" height="4.30199" rx="1" fill="#E7E7E7"></rect><rect x="16.5781" y="480.841" width="4.30199" height="4.30199" rx="1" fill="#E7E7E7"></rect><rect x="9.58789" y="515.795" width="4.30199" height="4.30199" rx="1" fill="#E7E7E7"></rect><rect x="9.58789" y="494.822" width="4.30199" height="4.30199" rx="1" fill="#E7E7E7"></rect><rect x="9.58789" y="508.804" width="4.30199" height="4.30199" rx="1" fill="#E7E7E7"></rect><rect x="9.58789" y="487.832" width="4.30199" height="4.30199" rx="1" fill="#E7E7E7"></rect><rect x="9.58789" y="501.813" width="4.30199" height="4.30199" rx="1" fill="#E7E7E7"></rect><rect x="9.58789" y="480.841" width="4.30199" height="4.30199" rx="1" fill="#E7E7E7"></rect><rect x="2.59717" y="515.795" width="4.30199" height="4.30199" rx="1" fill="#E7E7E7"></rect><rect x="2.59717" y="494.822" width="4.30199" height="4.30199" rx="1" fill="#E7E7E7"></rect><rect x="2.59717" y="508.804" width="4.30199" height="4.30199" rx="1" fill="#E7E7E7"></rect><rect x="2.59717" y="487.832" width="4.30199" height="4.30199" rx="1" fill="#E7E7E7"></rect><rect x="2.59717" y="501.813" width="4.30199" height="4.30199" rx="1" fill="#E7E7E7"></rect><rect x="2.59717" y="480.841" width="4.30199" height="4.30199" rx="1" fill="#E7E7E7"></rect><rect x="280.972" y="373.432" width="22.3864" height="22.3864" rx="4.5" transform="rotate(180 280.972 373.432)" stroke="#706E66"></rect><rect x="271.784" y="365.915" width="22.3864" height="21.5511" rx="4.5" transform="rotate(180 271.784 365.915)" stroke="#706E66"></rect></svg>