<svg xmlns="http://www.w3.org/2000/svg" xmlns:xlink="http://www.w3.org/1999/xlink" width="60px" height="60px" style="shape-rendering:geometricPrecision; text-rendering:geometricPrecision; image-rendering:optimizeQuality; fill-rule:evenodd; clip-rule:evenodd"><g><path style="opacity:0.348" fill="#145086" d="M 0.5,0.5 C 1.83333,0.5 3.16667,0.5 4.5,0.5C 4.5,1.83333 4.5,3.16667 4.5,4.5C 3.16667,4.5 1.83333,4.5 0.5,4.5C 0.5,3.16667 0.5,1.83333 0.5,0.5 Z"></path></g><g><path style="opacity:0.705" fill="#0e4f7f" d="M 10.5,-0.5 C 11.5,-0.5 12.5,-0.5 13.5,-0.5C 14.8333,1.16667 14.8333,2.83333 13.5,4.5C 9.71615,4.47473 8.71615,2.80806 10.5,-0.5 Z"></path></g><g><path style="opacity:0.337" fill="#0f5085" d="M 54.5,0.5 C 55.8333,0.5 57.1667,0.5 58.5,0.5C 58.8333,3.5 57.5,4.83333 54.5,4.5C 54.5,3.16667 54.5,1.83333 54.5,0.5 Z"></path></g><g><path style="opacity:0.569" fill="#104d81" d="M 3.5,7.5 C 5.25169,7.41755 6.25169,8.25089 6.5,10C 5.12548,13.0691 3.45881,13.2358 1.5,10.5C 2.19251,9.48224 2.85917,8.48224 3.5,7.5 Z"></path></g><g><path style="opacity:0.591" fill="#14588b" d="M 52.5,11.5 C 54.6648,11.1159 56.3315,11.7826 57.5,13.5C 56.3315,15.2174 54.6648,15.8841 52.5,15.5C 52.5,14.1667 52.5,12.8333 52.5,11.5 Z"></path></g><g><path style="opacity:1" fill="#fc5a6d" d="M 43.5,16.5 C 41.4131,17.5846 40.0798,19.2512 39.5,21.5C 37.264,20.6109 35.264,19.2776 33.5,17.5C 32.1667,18.5 30.8333,19.5 29.5,20.5C 25.8648,17.8233 22.8648,18.49 20.5,22.5C 18.9519,22.1788 18.2852,21.1788 18.5,19.5C 18.8039,18.8501 19.1373,18.1835 19.5,17.5C 18.3864,16.2241 17.3864,16.2241 16.5,17.5C 15.8333,17.1667 15.1667,16.8333 14.5,16.5C 18.951,15.1729 23.7843,14.5063 29,14.5C 34.2157,14.5063 39.049,15.1729 43.5,16.5 Z"></path></g><g><path style="opacity:1" fill="#83939e" d="M 15.5,26.5 C 14.8658,27.9468 13.6991,28.6134 12,28.5C 10.6244,28.3158 9.79106,27.6491 9.5,26.5C 9.77206,24.6862 9.93873,22.6862 10,20.5C 11.6667,19.1667 13.3333,19.1667 15,20.5C 15.0613,22.6862 15.2279,24.6862 15.5,26.5 Z"></path></g><g><path style="opacity:1" fill="#e3e6ed" d="M 18.5,19.5 C 17.5318,21.6074 17.1984,23.9407 17.5,26.5C 16.8333,26.5 16.1667,26.5 15.5,26.5C 15.2279,24.6862 15.0613,22.6862 15,20.5C 13.3333,19.1667 11.6667,19.1667 10,20.5C 9.93873,22.6862 9.77206,24.6862 9.5,26.5C 5.67074,23.981 5.67074,21.1476 9.5,18C 12.063,17.874 14.3964,17.7073 16.5,17.5C 17.3864,16.2241 18.3864,16.2241 19.5,17.5C 19.1373,18.1835 18.8039,18.8501 18.5,19.5 Z"></path></g><g><path style="opacity:1" fill="#fba7b2" d="M 39.5,21.5 C 38.0813,22.4511 36.4147,22.7845 34.5,22.5C 34.5,23.8333 34.5,25.1667 34.5,26.5C 31.4442,25.4116 28.4442,25.4116 25.5,26.5C 24.8333,26.5 24.1667,26.5 23.5,26.5C 23.5,25.1667 23.5,23.8333 23.5,22.5C 22.5,22.5 21.5,22.5 20.5,22.5C 22.8648,18.49 25.8648,17.8233 29.5,20.5C 30.8333,19.5 32.1667,18.5 33.5,17.5C 35.264,19.2776 37.264,20.6109 39.5,21.5 Z"></path></g><g><path style="opacity:1" fill="#d6e1ea" d="M 47.5,17.5 C 51.5593,19.6376 52.3927,22.6376 50,26.5C 49.0053,25.9341 48.172,25.2674 47.5,24.5C 47.5,23.1667 47.5,21.8333 47.5,20.5C 46.4324,19.5655 45.099,19.2322 43.5,19.5C 43.5,21.5 43.5,23.5 43.5,25.5C 42.5,25.5 41.5,25.5 40.5,25.5C 40.0178,20.3178 42.3511,17.6511 47.5,17.5 Z"></path></g><g><path style="opacity:1" fill="#e9ae64" d="M 47.5,20.5 C 47.5,21.8333 47.5,23.1667 47.5,24.5C 46.6618,24.8417 46.3284,25.5084 46.5,26.5C 45.8333,26.5 45.1667,26.5 44.5,26.5C 44.5,24.5 44.5,22.5 44.5,20.5C 45.5,20.5 46.5,20.5 47.5,20.5 Z"></path></g><g><path style="opacity:0.447" fill="#0f5085" d="M 0.5,20.5 C 1.83333,20.5 3.16667,20.5 4.5,20.5C 4.5,21.8333 4.5,23.1667 4.5,24.5C 3.16667,24.5 1.83333,24.5 0.5,24.5C 0.5,23.1667 0.5,21.8333 0.5,20.5 Z"></path></g><g><path style="opacity:1" fill="#f7b666" d="M 11.5,20.5 C 12.7251,21.1522 13.3917,22.3189 13.5,24C 13.1667,25.1667 12.8333,26.3333 12.5,27.5C 11.5258,25.2573 11.1924,22.924 11.5,20.5 Z"></path></g><g><path style="opacity:0.321" fill="#154d87" d="M 54.5,22.5 C 55.8333,22.5 57.1667,22.5 58.5,22.5C 58.8333,25.5 57.5,26.8333 54.5,26.5C 54.5,25.1667 54.5,23.8333 54.5,22.5 Z"></path></g><g><path style="opacity:1" fill="#7f7a9b" d="M 18.5,19.5 C 18.2852,21.1788 18.9519,22.1788 20.5,22.5C 21.5,22.5 22.5,22.5 23.5,22.5C 23.5,23.8333 23.5,25.1667 23.5,26.5C 21.9519,26.1788 21.2852,25.1788 21.5,23.5C 20.5,23.5 19.5,23.5 18.5,23.5C 18.7373,24.791 18.404,25.791 17.5,26.5C 17.1984,23.9407 17.5318,21.6074 18.5,19.5 Z"></path></g><g><path style="opacity:1" fill="#7190ae" d="M 44.5,12.5 C 45.0221,14.2191 46.0221,15.5525 47.5,16.5C 47.5,16.8333 47.5,17.1667 47.5,17.5C 42.3511,17.6511 40.0178,20.3178 40.5,25.5C 41.5,25.5 42.5,25.5 43.5,25.5C 43.5,23.5 43.5,21.5 43.5,19.5C 45.099,19.2322 46.4324,19.5655 47.5,20.5C 46.5,20.5 45.5,20.5 44.5,20.5C 44.5,22.5 44.5,24.5 44.5,26.5C 42.3023,26.4088 41.9689,27.0755 43.5,28.5C 43.5,28.8333 43.5,29.1667 43.5,29.5C 40.9558,28.2921 39.6225,26.2921 39.5,23.5C 38.5,23.5 37.5,23.5 36.5,23.5C 36.5,25.8333 36.5,28.1667 36.5,30.5C 35.5,30.5 34.5,30.5 33.5,30.5C 33.8333,33.5 32.5,34.8333 29.5,34.5C 29.238,35.9778 29.5713,37.3112 30.5,38.5C 31.7387,38.9424 32.7387,39.6091 33.5,40.5C 32.7611,40.369 32.0944,40.5357 31.5,41C 32.8112,43.2735 32.8112,45.4402 31.5,47.5C 32.585,42.58 30.9183,40.9134 26.5,42.5C 26.631,41.7611 26.4643,41.0944 26,40.5C 25.3292,41.2524 24.4959,41.5858 23.5,41.5C 25.3699,40.0594 27.0366,38.3927 28.5,36.5C 28.2528,35.2867 27.5862,34.62 26.5,34.5C 25.5168,32.7088 24.1835,31.2088 22.5,30C 24.0557,29.2798 25.0557,28.1132 25.5,26.5C 28.4442,25.4116 31.4442,25.4116 34.5,26.5C 34.5,25.1667 34.5,23.8333 34.5,22.5C 36.4147,22.7845 38.0813,22.4511 39.5,21.5C 40.0798,19.2512 41.4131,17.5846 43.5,16.5C 44.4345,15.4324 44.7678,14.099 44.5,12.5 Z"></path></g><g><path style="opacity:1" fill="#e2e5ec" d="M 43.5,29.5 C 43.8333,29.5 44.1667,29.5 44.5,29.5C 44.5,35.1667 44.5,40.8333 44.5,46.5C 42.1667,46.5 39.8333,46.5 37.5,46.5C 37.6254,43.3918 36.2921,41.3918 33.5,40.5C 32.7387,39.6091 31.7387,38.9424 30.5,38.5C 29.5713,37.3112 29.238,35.9778 29.5,34.5C 32.5,34.8333 33.8333,33.5 33.5,30.5C 34.5,30.5 35.5,30.5 36.5,30.5C 36.5,28.1667 36.5,25.8333 36.5,23.5C 37.5,23.5 38.5,23.5 39.5,23.5C 39.6225,26.2921 40.9558,28.2921 43.5,29.5 Z"></path></g><g><path style="opacity:1" fill="#ff7e8b" d="M 27.5,26.5 C 32.4928,26.997 33.4928,29.1637 30.5,33C 25.3823,32.8242 24.3823,30.6576 27.5,26.5 Z"></path></g><g><path style="opacity:1" fill="#29d0a4" d="M 44.5,26.5 C 45.1667,26.5 45.8333,26.5 46.5,26.5C 47.3764,26.3691 48.0431,26.7025 48.5,27.5C 46.9547,28.4519 45.288,28.7852 43.5,28.5C 41.9689,27.0755 42.3023,26.4088 44.5,26.5 Z"></path></g><g><path style="opacity:0.549" fill="#386996" d="M 42.5,-0.5 C 43.5,-0.5 44.5,-0.5 45.5,-0.5C 46.9681,1.61093 46.6348,3.44426 44.5,5C 46.1858,8.5792 47.1858,12.4125 47.5,16.5C 46.0221,15.5525 45.0221,14.2191 44.5,12.5C 34.1667,12.5 23.8333,12.5 13.5,12.5C 13.2322,14.099 13.5655,15.4324 14.5,16.5C 15.1667,16.8333 15.8333,17.1667 16.5,17.5C 14.3964,17.7073 12.063,17.874 9.5,18C 5.67074,21.1476 5.67074,23.981 9.5,26.5C 9.79106,27.6491 10.6244,28.3158 12,28.5C 13.6991,28.6134 14.8658,27.9468 15.5,26.5C 16.1667,26.5 16.8333,26.5 17.5,26.5C 16.8549,27.8118 15.8549,28.8118 14.5,29.5C 13.5041,35.4632 13.1707,41.4632 13.5,47.5C 15.1992,47.3398 16.8659,47.5065 18.5,48C 16.1902,48.4966 13.8568,48.6633 11.5,48.5C 11.5,46.8333 11.5,45.1667 11.5,43.5C 11.5,42.1667 11.5,40.8333 11.5,39.5C 11.5,37.1667 11.5,34.8333 11.5,32.5C 11.5,31.5 11.5,30.5 11.5,29.5C 5.90469,28.4399 4.07136,25.1065 6,19.5C 10.258,15.396 12.758,10.396 13.5,4.5C 18.5111,4.66593 23.5111,4.49926 28.5,4C 27.6634,2.98873 27.33,1.82207 27.5,0.5C 28.8333,0.5 30.1667,0.5 31.5,0.5C 31.5,1.83333 31.5,3.16667 31.5,4.5C 35.1817,4.6653 38.8484,4.49863 42.5,4C 41.5868,2.58609 41.5868,1.08609 42.5,-0.5 Z"></path></g><g><path style="opacity:1" fill="#f7dbe0" d="M 44.5,12.5 C 44.7678,14.099 44.4345,15.4324 43.5,16.5C 39.049,15.1729 34.2157,14.5063 29,14.5C 23.7843,14.5063 18.951,15.1729 14.5,16.5C 13.5655,15.4324 13.2322,14.099 13.5,12.5C 23.8333,12.5 34.1667,12.5 44.5,12.5 Z"></path></g><g><path style="opacity:1" fill="#65b9ec" d="M 13.5,7.5 C 23.4678,8.55772 33.4678,9.39106 43.5,10C 33.3249,10.1698 23.3249,10.6698 13.5,11.5C 12.1667,10.1667 12.1667,8.83333 13.5,7.5 Z"></path></g><g><path style="opacity:1" fill="#add7f4" d="M 13.5,7.5 C 23.6584,6.34147 33.9917,6.1748 44.5,7C 45.3802,8.35613 45.7135,9.85613 45.5,11.5C 34.8333,11.5 24.1667,11.5 13.5,11.5C 23.3249,10.6698 33.3249,10.1698 43.5,10C 33.4678,9.39106 23.4678,8.55772 13.5,7.5 Z"></path></g><g><path style="opacity:0.468" fill="#1a5b86" d="M 10.5,32.5 C 8.97237,33.3092 7.3057,33.9759 5.5,34.5C 3.74395,33.4479 3.07729,31.7812 3.5,29.5C 4.87344,29.3433 6.20677,29.51 7.5,30C 8.07794,31.417 9.07794,32.2504 10.5,32.5 Z"></path></g><g><path style="opacity:0.489" fill="#1b5889" d="M 47.5,17.5 C 47.5,17.1667 47.5,16.8333 47.5,16.5C 49.9115,16.1367 51.4115,17.1367 52,19.5C 52.6667,21.8333 52.6667,24.1667 52,26.5C 51.5,27.6667 50.6667,28.5 49.5,29C 50.7932,29.49 52.1266,29.6567 53.5,29.5C 53.4802,31.143 54.1468,32.4763 55.5,33.5C 55.0431,34.2975 54.3764,34.6309 53.5,34.5C 51.6943,33.9759 50.0276,33.3092 48.5,32.5C 47.8333,28.5 47.1667,28.5 46.5,32.5C 45.6679,32.246 45.0013,31.246 44.5,29.5C 44.1667,29.5 43.8333,29.5 43.5,29.5C 43.5,29.1667 43.5,28.8333 43.5,28.5C 45.288,28.7852 46.9547,28.4519 48.5,27.5C 48.0431,26.7025 47.3764,26.3691 46.5,26.5C 46.3284,25.5084 46.6618,24.8417 47.5,24.5C 48.172,25.2674 49.0053,25.9341 50,26.5C 52.3927,22.6376 51.5593,19.6376 47.5,17.5 Z M 48.5,32.5 C 47.8333,32.5 47.1667,32.5 46.5,32.5C 47.1667,28.5 47.8333,28.5 48.5,32.5 Z"></path></g><g><path style="opacity:0.834" fill="#e0e3e6" d="M 10.5,32.5 C 10.8333,32.5 11.1667,32.5 11.5,32.5C 11.5,34.8333 11.5,37.1667 11.5,39.5C 10.1667,39.5 8.83333,39.5 7.5,39.5C 7.57298,37.9731 6.90632,36.9731 5.5,36.5C 5.5,35.8333 5.5,35.1667 5.5,34.5C 7.3057,33.9759 8.97237,33.3092 10.5,32.5 Z"></path></g><g><path style="opacity:1" fill="#2cdcb0" d="M 26.5,34.5 C 27.5862,34.62 28.2528,35.2867 28.5,36.5C 27.0366,38.3927 25.3699,40.0594 23.5,41.5C 22.5,42.1667 21.5,42.8333 20.5,43.5C 18.5,43.5 16.5,43.5 14.5,43.5C 14.5,40.5 14.5,37.5 14.5,34.5C 18.5,34.5 22.5,34.5 26.5,34.5 Z"></path></g><g><path style="opacity:0.71" fill="#185588" d="M 5.5,36.5 C 6.90632,36.9731 7.57298,37.9731 7.5,39.5C 6.43236,40.4345 5.09903,40.7678 3.5,40.5C 3.15684,38.5168 3.82351,37.1834 5.5,36.5 Z"></path></g><g><path style="opacity:0.447" fill="#306a96" d="M 53.5,36.5 C 54.2341,37.7079 54.5674,39.0413 54.5,40.5C 52.901,40.7678 51.5676,40.4345 50.5,39.5C 50.5,37.5 51.5,36.5 53.5,36.5 Z"></path></g><g><path style="opacity:1" fill="#e2e9f0" d="M 26.5,42.5 C 26.5,44.1667 26.5,45.8333 26.5,47.5C 24.8564,48.3164 23.6897,49.6498 23,51.5C 21.0011,48.0187 21.1678,44.6854 23.5,41.5C 24.4959,41.5858 25.3292,41.2524 26,40.5C 26.4643,41.0944 26.631,41.7611 26.5,42.5 Z"></path></g><g><path style="opacity:0.397" fill="#0b4c85" d="M 4.5,43.5 C 3.04125,43.4326 1.70792,43.7659 0.5,44.5C 0.5,43.5 0.5,42.5 0.5,41.5C 2.48324,41.1568 3.81658,41.8235 4.5,43.5 Z"></path></g><g><path style="opacity:1" fill="#eaaf64" d="M 31.5,47.5 C 30.596,48.209 30.2627,49.209 30.5,50.5C 29.5,50.5 28.5,50.5 27.5,50.5C 27.7373,49.209 27.404,48.209 26.5,47.5C 26.5,45.8333 26.5,44.1667 26.5,42.5C 30.9183,40.9134 32.585,42.58 31.5,47.5 Z"></path></g><g><path style="opacity:0.878" fill="#bbc3cb" d="M 44.5,29.5 C 45.0013,31.246 45.6679,32.246 46.5,32.5C 47.1667,32.5 47.8333,32.5 48.5,32.5C 50.0276,33.3092 51.6943,33.9759 53.5,34.5C 53.5,35.1667 53.5,35.8333 53.5,36.5C 51.5,36.5 50.5,37.5 50.5,39.5C 49.1667,39.5 47.8333,39.5 46.5,39.5C 46.33,40.8221 46.6634,41.9887 47.5,43C 51.1516,43.4986 54.8183,43.6653 58.5,43.5C 58.5,45.5 58.5,47.5 58.5,49.5C 56.5,49.5 54.5,49.5 52.5,49.5C 51.1667,48.1667 49.8333,48.1667 48.5,49.5C 47.1667,49.5 45.8333,49.5 44.5,49.5C 42.712,49.7852 41.0453,49.4519 39.5,48.5C 41.2914,47.8302 42.9581,47.1635 44.5,46.5C 44.5,40.8333 44.5,35.1667 44.5,29.5 Z"></path></g><g><path style="opacity:0.977" fill="#ced2d6" d="M 33.5,40.5 C 36.2921,41.3918 37.6254,43.3918 37.5,46.5C 39.8333,46.5 42.1667,46.5 44.5,46.5C 42.9581,47.1635 41.2914,47.8302 39.5,48.5C 41.0453,49.4519 42.712,49.7852 44.5,49.5C 44.5,49.8333 44.5,50.1667 44.5,50.5C 40.2382,51.1929 39.9048,52.0263 43.5,53C 42.5,53.3333 41.5,53.6667 40.5,54C 42.7116,54.7891 44.7116,54.6225 46.5,53.5C 48.3904,53.2965 49.8904,53.9632 51,55.5C 52.5557,53.3652 54.3891,53.0319 56.5,54.5C 56.5,55.8333 56.5,57.1667 56.5,58.5C 56.5,58.8333 56.5,59.1667 56.5,59.5C 54.8333,59.5 53.1667,59.5 51.5,59.5C 51.1667,58.1667 50.8333,58.1667 50.5,59.5C 40.5,59.5 30.5,59.5 20.5,59.5C 18.9696,56.7579 19.6362,54.7579 22.5,53.5C 27.7865,56.6497 32.4532,55.983 36.5,51.5C 34.8048,50.8755 33.1381,49.5422 31.5,47.5C 32.8112,45.4402 32.8112,43.2735 31.5,41C 32.0944,40.5357 32.7611,40.369 33.5,40.5 Z"></path></g><g><path style="opacity:0.921" fill="#e8e8ea" d="M 23.5,26.5 C 24.1667,26.5 24.8333,26.5 25.5,26.5C 25.0557,28.1132 24.0557,29.2798 22.5,30C 24.1835,31.2088 25.5168,32.7088 26.5,34.5C 22.5,34.5 18.5,34.5 14.5,34.5C 14.5,37.5 14.5,40.5 14.5,43.5C 16.5,43.5 18.5,43.5 20.5,43.5C 20.1524,47.0847 20.819,50.418 22.5,53.5C 19.6362,54.7579 18.9696,56.7579 20.5,59.5C 15.5,59.5 10.5,59.5 5.5,59.5C 5.32526,57.3792 5.65859,55.3792 6.5,53.5C 7.5,53.5 8.5,53.5 9.5,53.5C 14.6224,52.5726 14.6224,51.2393 9.5,49.5C 8.16667,49.5 6.83333,49.5 5.5,49.5C 3.3792,49.6747 1.3792,49.3414 -0.5,48.5C -0.5,47.1667 -0.5,45.8333 -0.5,44.5C -0.166667,44.5 0.166667,44.5 0.5,44.5C 1.70792,43.7659 3.04125,43.4326 4.5,43.5C 6.83333,43.5 9.16667,43.5 11.5,43.5C 11.5,45.1667 11.5,46.8333 11.5,48.5C 13.8568,48.6633 16.1902,48.4966 18.5,48C 16.8659,47.5065 15.1992,47.3398 13.5,47.5C 13.1707,41.4632 13.5041,35.4632 14.5,29.5C 15.8549,28.8118 16.8549,27.8118 17.5,26.5C 18.404,25.791 18.7373,24.791 18.5,23.5C 19.5,23.5 20.5,23.5 21.5,23.5C 21.2852,25.1788 21.9519,26.1788 23.5,26.5 Z"></path></g><g><path style="opacity:0.525" fill="#215889" d="M 52.5,49.5 C 52.38,50.5862 51.7133,51.2528 50.5,51.5C 49.2867,51.2528 48.62,50.5862 48.5,49.5C 49.8333,48.1667 51.1667,48.1667 52.5,49.5 Z"></path></g><g><path style="opacity:0.466" fill="#0f5083" d="M 5.5,49.5 C 6.83333,49.5 8.16667,49.5 9.5,49.5C 9.5,50.8333 9.5,52.1667 9.5,53.5C 8.5,53.5 7.5,53.5 6.5,53.5C 5.56552,52.4324 5.23219,51.099 5.5,49.5 Z"></path></g><g><path style="opacity:1" fill="#4f97c8" d="M 23.5,41.5 C 21.1678,44.6854 21.0011,48.0187 23,51.5C 23.6897,49.6498 24.8564,48.3164 26.5,47.5C 27.404,48.209 27.7373,49.209 27.5,50.5C 28.5,50.5 29.5,50.5 30.5,50.5C 30.2627,49.209 30.596,48.209 31.5,47.5C 33.1381,49.5422 34.8048,50.8755 36.5,51.5C 32.4532,55.983 27.7865,56.6497 22.5,53.5C 20.819,50.418 20.1524,47.0847 20.5,43.5C 21.5,42.8333 22.5,42.1667 23.5,41.5 Z"></path></g><g><path style="opacity:0.106" fill="#1f5a8a" d="M 44.5,50.5 C 44.7822,51.7777 45.4489,52.7777 46.5,53.5C 44.7116,54.6225 42.7116,54.7891 40.5,54C 41.5,53.6667 42.5,53.3333 43.5,53C 39.9048,52.0263 40.2382,51.1929 44.5,50.5 Z"></path></g><g><path style="opacity:0.451" fill="#115185" d="M 0.5,54.5 C 1.83333,54.5 3.16667,54.5 4.5,54.5C 4.5,55.8333 4.5,57.1667 4.5,58.5C 3.16667,58.5 1.83333,58.5 0.5,58.5C 0.5,57.1667 0.5,55.8333 0.5,54.5 Z"></path></g><g><path style="opacity:0.635" fill="#1e5e8c" d="M 56.5,54.5 C 57.5862,54.62 58.2528,55.2867 58.5,56.5C 58.2528,57.7133 57.5862,58.38 56.5,58.5C 56.5,57.1667 56.5,55.8333 56.5,54.5 Z"></path></g></svg>