<svg xmlns="http://www.w3.org/2000/svg" xmlns:xlink="http://www.w3.org/1999/xlink" width="60px" height="60px" style="shape-rendering:geometricPrecision; text-rendering:geometricPrecision; image-rendering:optimizeQuality; fill-rule:evenodd; clip-rule:evenodd"><g><path style="opacity:1" fill="#df6e85" d="M 47.5,25.5 C 46.6909,27.2922 46.1909,29.2922 46,31.5C 44.8873,32.305 43.7206,32.9717 42.5,33.5C 42.1667,32.8333 41.8333,32.1667 41.5,31.5C 46.2859,23.3359 45.2859,16.0025 38.5,9.5C 36.677,8.25279 34.677,7.58613 32.5,7.5C 28.8225,6.20893 25.1559,6.54227 21.5,8.5C 20.6457,7.36837 20.6457,6.03503 21.5,4.5C 24.3113,4.42865 26.978,3.76199 29.5,2.5C 32.6866,3.8655 36.0199,4.69883 39.5,5C 41,7.83333 43.1667,10 46,11.5C 46.3012,14.9801 47.1345,18.3134 48.5,21.5C 48.1543,22.8492 47.821,24.1825 47.5,25.5 Z"></path></g><g><path style="opacity:1" fill="#5f80d9" d="M 32.5,7.5 C 34.677,7.58613 36.677,8.25279 38.5,9.5C 45.2859,16.0025 46.2859,23.3359 41.5,31.5C 40.609,32.1098 39.609,32.4431 38.5,32.5C 31.3643,35.6532 24.6977,34.9866 18.5,30.5C 13.4801,21.7645 15.1468,14.5978 23.5,9C 26.3926,7.85123 29.3926,7.35123 32.5,7.5 Z"></path></g><g><path style="opacity:0.976" fill="#354268" d="M 28.5,-0.5 C 29.1667,-0.5 29.8333,-0.5 30.5,-0.5C 33.3211,1.8204 36.6544,2.98707 40.5,3C 42.3333,6.16667 44.8333,8.66667 48,10.5C 48.4073,14.2842 49.2406,17.9509 50.5,21.5C 49.3862,25.251 48.3862,28.9177 47.5,32.5C 47.5,30.1667 47.5,27.8333 47.5,25.5C 47.821,24.1825 48.1543,22.8492 48.5,21.5C 47.1345,18.3134 46.3012,14.9801 46,11.5C 43.1667,10 41,7.83333 39.5,5C 36.0199,4.69883 32.6866,3.8655 29.5,2.5C 26.978,3.76199 24.3113,4.42865 21.5,4.5C 18.9001,6.91596 16.0668,9.24929 13,11.5C 12.6988,14.9801 11.8655,18.3134 10.5,21.5C 11.8655,24.6866 12.6988,28.0199 13,31.5C 16.0513,33.0499 18.218,35.3832 19.5,38.5C 18.8333,38.5 18.5,38.8333 18.5,39.5C 16.525,36.6945 14.025,34.3612 11,32.5C 9.67328,27.8798 9.00662,23.2131 9,18.5C 10.092,15.9556 10.7586,13.2889 11,10.5C 14.1667,8.66667 16.6667,6.16667 18.5,3C 22.3456,2.98707 25.6789,1.8204 28.5,-0.5 Z"></path></g><g><path style="opacity:1" fill="#3e5c91" d="M 36.5,29.5 C 36.0962,28.2436 35.4295,27.0769 34.5,26C 37.6943,19.0716 35.361,15.0716 27.5,14C 35.6313,13.4648 38.6313,17.1315 36.5,25C 37,25.5 37.5,26 38,26.5C 40.9667,20.2258 39.4667,15.3924 33.5,12C 29.5674,11.1156 25.9007,11.6156 22.5,13.5C 28.0553,8.28354 33.5553,8.61688 39,14.5C 40.5039,18.0387 40.8372,21.7054 40,25.5C 39.34,27.3237 38.1733,28.657 36.5,29.5 Z"></path></g><g><path style="opacity:1" fill="#405f94" d="M 22.5,13.5 C 23.209,14.404 24.209,14.7373 25.5,14.5C 25.6567,15.8734 25.49,17.2068 25,18.5C 23.984,17.3659 23.3173,17.6992 23,19.5C 22.5623,25.4037 25.3956,28.5704 31.5,29C 28.15,29.9299 25.3167,29.0965 23,26.5C 21.5564,23.1351 21.0564,19.8018 21.5,16.5C 20.914,16.7093 20.414,17.0426 20,17.5C 18.4945,25.1708 21.4945,29.8375 29,31.5C 31.6353,31.2612 34.1353,30.5945 36.5,29.5C 34.9444,31.9882 32.6111,32.9882 29.5,32.5C 22.1667,32.5 18.5,28.8333 18.5,21.5C 17.7793,17.648 19.1126,14.9813 22.5,13.5 Z"></path></g><g><path style="opacity:1" fill="#77a0f0" d="M 36.5,29.5 C 34.1353,30.5945 31.6353,31.2612 29,31.5C 21.4945,29.8375 18.4945,25.1708 20,17.5C 20.414,17.0426 20.914,16.7093 21.5,16.5C 21.0564,19.8018 21.5564,23.1351 23,26.5C 25.3167,29.0965 28.15,29.9299 31.5,29C 25.3956,28.5704 22.5623,25.4037 23,19.5C 23.3173,17.6992 23.984,17.3659 25,18.5C 25.49,17.2068 25.6567,15.8734 25.5,14.5C 24.209,14.7373 23.209,14.404 22.5,13.5C 25.9007,11.6156 29.5674,11.1156 33.5,12C 39.4667,15.3924 40.9667,20.2258 38,26.5C 37.5,26 37,25.5 36.5,25C 38.6313,17.1315 35.6313,13.4648 27.5,14C 35.361,15.0716 37.6943,19.0716 34.5,26C 35.4295,27.0769 36.0962,28.2436 36.5,29.5 Z"></path></g><g><path style="opacity:1" fill="#405f92" d="M 28.5,16.5 C 29.9953,16.4148 30.9953,17.0815 31.5,18.5C 30.6034,18.6691 29.6034,19.0024 28.5,19.5C 31.9291,21.5185 32.2624,23.8518 29.5,26.5C 28.2801,26.1131 27.6135,25.2798 27.5,24C 27.4692,21.5554 27.8025,19.0554 28.5,16.5 Z"></path></g><g><path style="opacity:1" fill="#53527c" d="M 32.5,7.5 C 29.3926,7.35123 26.3926,7.85123 23.5,9C 15.1468,14.5978 13.4801,21.7645 18.5,30.5C 13.3557,24.4807 13.189,18.1474 18,11.5C 19.5185,10.8366 20.6851,9.83663 21.5,8.5C 25.1559,6.54227 28.8225,6.20893 32.5,7.5 Z"></path></g><g><path style="opacity:1" fill="#555787" d="M 18.5,30.5 C 24.6977,34.9866 31.3643,35.6532 38.5,32.5C 33.3321,37.1843 27.6654,37.6843 21.5,34C 20.2899,32.9609 19.2899,31.7942 18.5,30.5 Z"></path></g><g><path style="opacity:1" fill="#d1657c" d="M 21.5,4.5 C 20.6457,6.03503 20.6457,7.36837 21.5,8.5C 20.6851,9.83663 19.5185,10.8366 18,11.5C 13.189,18.1474 13.3557,24.4807 18.5,30.5C 19.2899,31.7942 20.2899,32.9609 21.5,34C 27.6654,37.6843 33.3321,37.1843 38.5,32.5C 39.609,32.4431 40.609,32.1098 41.5,31.5C 41.8333,32.1667 42.1667,32.8333 42.5,33.5C 40.8543,37.5957 37.8543,39.5957 33.5,39.5C 30.8333,40.8333 28.1667,40.8333 25.5,39.5C 23.7354,38.5386 21.7354,38.2053 19.5,38.5C 18.218,35.3832 16.0513,33.0499 13,31.5C 12.6988,28.0199 11.8655,24.6866 10.5,21.5C 11.8655,18.3134 12.6988,14.9801 13,11.5C 16.0668,9.24929 18.9001,6.91596 21.5,4.5 Z"></path></g><g><path style="opacity:0.325" fill="#334667" d="M 47.5,25.5 C 47.5,27.8333 47.5,30.1667 47.5,32.5C 39.2671,38.969 36.2671,47.6357 38.5,58.5C 34.7974,58.1376 31.7974,56.471 29.5,53.5C 27.2026,56.471 24.2026,58.1376 20.5,58.5C 21.0599,51.8787 20.3932,45.5454 18.5,39.5C 18.5,38.8333 18.8333,38.5 19.5,38.5C 21.7354,38.2053 23.7354,38.5386 25.5,39.5C 24.5,39.5 23.5,39.5 22.5,39.5C 22.1718,44.8746 22.5052,50.2079 23.5,55.5C 25.2279,53.7745 27.2279,52.4411 29.5,51.5C 32.0942,52.5922 34.2609,54.2589 36,56.5C 36.4994,50.8431 36.6661,45.1764 36.5,39.5C 35.5,39.5 34.5,39.5 33.5,39.5C 37.8543,39.5957 40.8543,37.5957 42.5,33.5C 43.7206,32.9717 44.8873,32.305 46,31.5C 46.1909,29.2922 46.6909,27.2922 47.5,25.5 Z"></path></g><g><path style="opacity:1" fill="#e0ac3d" d="M 25.5,39.5 C 26.3121,40.9931 27.6455,41.6598 29.5,41.5C 31.3545,41.6598 32.6879,40.9931 33.5,39.5C 34.5,39.5 35.5,39.5 36.5,39.5C 36.6661,45.1764 36.4994,50.8431 36,56.5C 34.2609,54.2589 32.0942,52.5922 29.5,51.5C 27.2279,52.4411 25.2279,53.7745 23.5,55.5C 22.5052,50.2079 22.1718,44.8746 22.5,39.5C 23.5,39.5 24.5,39.5 25.5,39.5 Z"></path></g><g><path style="opacity:1" fill="#59526b" d="M 25.5,39.5 C 28.1667,40.8333 30.8333,40.8333 33.5,39.5C 32.6879,40.9931 31.3545,41.6598 29.5,41.5C 27.6455,41.6598 26.3121,40.9931 25.5,39.5 Z"></path></g></svg>