<svg xmlns="http://www.w3.org/2000/svg" xmlns:xlink="http://www.w3.org/1999/xlink" width="60px" height="60px" style="shape-rendering:geometricPrecision; text-rendering:geometricPrecision; image-rendering:optimizeQuality; fill-rule:evenodd; clip-rule:evenodd"><g><path style="opacity:0.89" fill="#ff4554" d="M 45.5,13.5 C 45.5299,12.5028 45.0299,11.8361 44,11.5C 34.7461,23.052 22.9128,28.3854 8.5,27.5C 20.7637,24.3888 30.7637,17.8888 38.5,8C 36.7397,7.03467 36.4063,5.868 37.5,4.5C 41.1223,3.29185 44.789,2.29185 48.5,1.5C 48.7009,4.50777 49.0343,7.50777 49.5,10.5C 49.1667,11.8333 48.8333,13.1667 48.5,14.5C 47.5832,13.8728 46.5832,13.5394 45.5,13.5 Z"></path></g><g><path style="opacity:0.924" fill="#89cafe" d="M 54.5,53.5 C 51.1667,54.8333 47.8333,54.8333 44.5,53.5C 44.3335,43.4944 44.5002,33.4944 45,23.5C 48,22.1667 51,22.1667 54,23.5C 54.4998,33.4944 54.6665,43.4944 54.5,53.5 Z"></path></g><g><path style="opacity:0.844" fill="#fc2a38" d="M 45.5,13.5 C 35.5211,24.8197 22.8544,30.8197 7.5,31.5C 7.23219,29.901 7.56552,28.5676 8.5,27.5C 22.9128,28.3854 34.7461,23.052 44,11.5C 45.0299,11.8361 45.5299,12.5028 45.5,13.5 Z"></path></g><g><path style="opacity:0.939" fill="#95dc7a" d="M 41.5,53.5 C 37.9351,54.7866 34.2684,54.7866 30.5,53.5C 30.3337,46.1591 30.5003,38.8258 31,31.5C 34.0709,29.232 37.4042,28.8986 41,30.5C 41.4997,38.1594 41.6664,45.8261 41.5,53.5 Z"></path></g><g><path style="opacity:0.857" fill="#ffbd61" d="M 28.5,53.5 C 24.7316,54.7866 21.0649,54.7866 17.5,53.5C 17.5,47.8333 17.5,42.1667 17.5,36.5C 21.1064,36.2108 24.6064,36.5442 28,37.5C 28.4994,42.8229 28.666,48.1563 28.5,53.5 Z"></path></g><g><path style="opacity:0.885" fill="#fee074" d="M 14.5,53.5 C 11.1667,54.8333 7.83333,54.8333 4.5,53.5C 4.5,49.8333 4.5,46.1667 4.5,42.5C 7.83333,42.5 11.1667,42.5 14.5,42.5C 14.5,46.1667 14.5,49.8333 14.5,53.5 Z"></path></g><g><path style="opacity:0.549" fill="#4e738e" d="M 4.5,53.5 C 7.83333,54.8333 11.1667,54.8333 14.5,53.5C 15.5,53.5 16.5,53.5 17.5,53.5C 21.0649,54.7866 24.7316,54.7866 28.5,53.5C 29.1667,53.5 29.8333,53.5 30.5,53.5C 34.2684,54.7866 37.9351,54.7866 41.5,53.5C 42.5,53.5 43.5,53.5 44.5,53.5C 47.8333,54.8333 51.1667,54.8333 54.5,53.5C 56.2915,53.366 57.9582,53.6993 59.5,54.5C 59.5,55.5 59.5,56.5 59.5,57.5C 39.5,57.5 19.5,57.5 -0.5,57.5C -0.5,56.5 -0.5,55.5 -0.5,54.5C 1.04181,53.6993 2.70848,53.366 4.5,53.5 Z"></path></g></svg>