<svg xmlns="http://www.w3.org/2000/svg" xmlns:xlink="http://www.w3.org/1999/xlink" width="60px" height="60px" style="shape-rendering:geometricPrecision; text-rendering:geometricPrecision; image-rendering:optimizeQuality; fill-rule:evenodd; clip-rule:evenodd"><g><path style="opacity:0.942" fill="#fb8086" d="M 19.5,-0.5 C 22.5,-0.5 25.5,-0.5 28.5,-0.5C 28.5,0.5 28.5,1.5 28.5,2.5C 27.5489,3.91866 27.2155,5.58533 27.5,7.5C 15.1404,9.35992 8.47372,16.5266 7.5,29C 7.68433,31.865 8.01766,34.6984 8.5,37.5C 7.92499,39.4113 6.92499,41.078 5.5,42.5C 4.57683,43.3029 3.57683,43.4696 2.5,43C 1.21886,41.5913 0.218865,40.0913 -0.5,38.5C -0.5,32.1667 -0.5,25.8333 -0.5,19.5C 3.83333,10.5 10.5,3.83333 19.5,-0.5 Z"></path></g><g><path style="opacity:0.999" fill="#fbdf77" d="M 30.5,0.5 C 49.7142,4.23528 58.2142,15.902 56,35.5C 55.4338,37.7226 54.6005,39.7226 53.5,41.5C 52.3951,40.3995 51.0618,39.7329 49.5,39.5C 54.8935,22.2778 48.8935,11.6112 31.5,7.5C 31.7845,5.58533 31.4511,3.91866 30.5,2.5C 30.5,1.83333 30.5,1.16667 30.5,0.5 Z"></path></g><g><path style="opacity:0.977" fill="#6d636b" d="M 28.5,2.5 C 29.1667,2.5 29.8333,2.5 30.5,2.5C 31.4511,3.91866 31.7845,5.58533 31.5,7.5C 30.1667,7.5 28.8333,7.5 27.5,7.5C 27.2155,5.58533 27.5489,3.91866 28.5,2.5 Z"></path></g><g><path style="opacity:0.967" fill="#ffd35d" d="M 30.5,0.5 C 30.5,0.166667 30.5,-0.166667 30.5,-0.5C 33.5,-0.5 36.5,-0.5 39.5,-0.5C 49.3532,4.01622 56.0199,11.3495 59.5,21.5C 59.5,26.8333 59.5,32.1667 59.5,37.5C 58.9162,39.7427 57.7495,41.7427 56,43.5C 55.3292,42.7476 54.4959,42.4142 53.5,42.5C 53.5,42.1667 53.5,41.8333 53.5,41.5C 54.6005,39.7226 55.4338,37.7226 56,35.5C 58.2142,15.902 49.7142,4.23528 30.5,0.5 Z"></path></g><g><path style="opacity:1" fill="#18cef8" d="M 27.5,7.5 C 28.8333,7.5 30.1667,7.5 31.5,7.5C 48.8935,11.6112 54.8935,22.2778 49.5,39.5C 48.5987,40.2905 47.9321,41.2905 47.5,42.5C 39.024,52.1107 29.024,53.944 17.5,48C 14.9774,46.6403 12.9774,44.807 11.5,42.5C 10.7368,40.6316 9.73685,38.9649 8.5,37.5C 8.01766,34.6984 7.68433,31.865 7.5,29C 8.47372,16.5266 15.1404,9.35992 27.5,7.5 Z"></path></g><g><path style="opacity:1" fill="#e0eee1" d="M 12.5,22.5 C 14.924,22.1924 17.2573,22.5258 19.5,23.5C 17.9547,24.4519 16.288,24.7852 14.5,24.5C 14.5,25.8333 14.5,27.1667 14.5,28.5C 19.8333,29.1667 19.8333,29.8333 14.5,30.5C 14.5,31.8333 14.5,33.1667 14.5,34.5C 16.288,34.2148 17.9547,34.5481 19.5,35.5C 17.2573,36.4742 14.924,36.8076 12.5,36.5C 12.5,31.8333 12.5,27.1667 12.5,22.5 Z"></path></g><g><path style="opacity:1" fill="#e4efe0" d="M 24.5,22.5 C 26.8273,22.2471 28.8273,22.9137 30.5,24.5C 28.674,24.9202 26.674,24.9202 24.5,24.5C 24.5291,27.6557 26.1957,29.3223 29.5,29.5C 30.7516,36.3976 28.2516,38.0643 22,34.5C 21.3123,33.6683 21.479,33.0016 22.5,32.5C 24.9621,35.0531 27.2955,35.0531 29.5,32.5C 27.4622,30.7236 25.2955,29.0569 23,27.5C 22.3872,25.5048 22.8872,23.8381 24.5,22.5 Z"></path></g><g><path style="opacity:1" fill="#e4efe0" d="M 37.5,22.5 C 40.1569,22.162 42.4902,22.8287 44.5,24.5C 42.3284,24.6759 39.9951,24.8425 37.5,25C 34.8333,28 34.8333,31 37.5,34C 40.579,35.0904 42.9124,34.2571 44.5,31.5C 40.8903,29.2876 41.557,28.2876 46.5,28.5C 46.0375,34.1341 43.0375,36.6341 37.5,36C 32.2086,31.4227 32.2086,26.9227 37.5,22.5 Z"></path></g><g><path style="opacity:0.893" fill="#6e656d" d="M 8.5,37.5 C 9.73685,38.9649 10.7368,40.6316 11.5,42.5C 10.1667,42.8333 8.83333,43.1667 7.5,43.5C 6.83333,43.1667 6.16667,42.8333 5.5,42.5C 6.92499,41.078 7.92499,39.4113 8.5,37.5 Z"></path></g><g><path style="opacity:0.907" fill="#66626a" d="M 49.5,39.5 C 51.0618,39.7329 52.3951,40.3995 53.5,41.5C 53.5,41.8333 53.5,42.1667 53.5,42.5C 52.8333,42.8333 52.1667,43.1667 51.5,43.5C 50.1667,43.1667 48.8333,42.8333 47.5,42.5C 47.9321,41.2905 48.5987,40.2905 49.5,39.5 Z"></path></g><g><path style="opacity:0.966" fill="#6ed6a3" d="M 11.5,42.5 C 12.9774,44.807 14.9774,46.6403 17.5,48C 29.024,53.944 39.024,52.1107 47.5,42.5C 48.8333,42.8333 50.1667,43.1667 51.5,43.5C 52.209,44.404 53.209,44.7373 54.5,44.5C 54.0287,48.5025 52.0287,51.6692 48.5,54C 45.0095,56.412 41.3429,58.2453 37.5,59.5C 32.1667,59.5 26.8333,59.5 21.5,59.5C 15.1388,57.3372 9.63877,53.6705 5,48.5C 4.50999,47.2068 4.34332,45.8734 4.5,44.5C 5.79105,44.7373 6.79105,44.404 7.5,43.5C 8.83333,43.1667 10.1667,42.8333 11.5,42.5 Z"></path></g></svg>