<svg xmlns="http://www.w3.org/2000/svg" xmlns:xlink="http://www.w3.org/1999/xlink" width="123px" height="44px" style="shape-rendering:geometricPrecision; text-rendering:geometricPrecision; image-rendering:optimizeQuality; fill-rule:evenodd; clip-rule:evenodd"><g><path style="opacity:0.875" fill="#ee8d40" d="M 4.5,-0.5 C 41.8333,-0.5 79.1667,-0.5 116.5,-0.5C 118.475,1.13696 120.475,2.80363 122.5,4.5C 122.5,15.5 122.5,26.5 122.5,37.5C 120.863,39.4752 119.196,41.4752 117.5,43.5C 80.1667,43.5 42.8333,43.5 5.5,43.5C 3.52483,41.863 1.52483,40.1964 -0.5,38.5C -0.5,27.5 -0.5,16.5 -0.5,5.5C 1.13696,3.52483 2.80363,1.52483 4.5,-0.5 Z M 8.5,0.5 C 43.5016,0.333348 78.5016,0.500015 113.5,1C 117.333,2.16667 119.833,4.66667 121,8.5C 121.92,18.2417 121.587,27.9084 120,37.5C 118.363,39.8102 116.196,41.3102 113.5,42C 78.5,42.6667 43.5,42.6667 8.5,42C 5.80402,41.3102 3.63735,39.8102 2,37.5C 0,26.8333 0,16.1667 2,5.5C 3.80493,3.17434 5.9716,1.50767 8.5,0.5 Z"></path></g></svg>