<svg xmlns="http://www.w3.org/2000/svg" id="Layer_1" data-name="Layer 1" viewBox="0 0 30 30"><defs><style>      .cls-1 {        fill: #f7adb8;      }      .cls-2 {        fill: #f9f9fb;      }      .cls-3 {        fill: #eaeaea;      }      .cls-4 {        fill: #e6e6e6;      }      .cls-5 {        fill: #f0586d;      }      .cls-6 {        fill: #fefefe;      }      .cls-7 {        fill: #fbb762;      }      .cls-8 {        fill: #d6d6d6;      }      .cls-9 {        fill: #155487;      }      .cls-10 {        fill: #225789;      }      .cls-11 {        fill: #0f5286;      }      .cls-12 {        fill: #a2b0c7;      }      .cls-13 {        fill: #5a85a7;      }      .cls-14 {        fill: #5bb3e5;      }      .cls-15 {        fill: #83a1b9;      }      .cls-16 {        fill: #51bf9f;      }    </style></defs><path class="cls-8" d="m28.14,22.19c.14-.15.28-.01.41,0-.09.09-.1.17,0,.28.2.25.32.04.46-.06.18.33.37.64.35,1.04-.03.69-.55,1.22-1.24,1.22-.66,0-1.31,0-1.97,0-.13-.16-.22-.35-.44-.41-.63-.15-.79-.07-1.11.47-.02-.02-.04-.05-.07-.05-.7,0-1.41-.09-2.11.04-.58.11-.87.45-.97,1.04-.39,0-.78.01-1.16.02-.04,0-.05,0-.05.05-.02.41-.02.41.39.41.28,0,.55,0,.83,0,.02.02.04.03.05.05-.03.2.09.35.18.51-.38,0-.75,0-1.13.01-.11,0-.23-.06-.32.06,0,.13,0,.26,0,.39.04.07.11.06.18.06.88,0,1.77,0,2.65,0,.07,0,.14.01.18-.06h.01c.27,0,.54,0,.81,0,.6,0,1.05.39,1.19,1.01.13.56-.18,1.19-.69,1.42-.08.03-.17.05-.22.12h-13.35c0-.11-.1-.13-.17-.17-.12-.09-.26-.15-.35-.29-.33-.49-.33-1-.08-1.5.23-.47.66-.61,1.16-.6.22,0,.46.07.67-.06.21.12.41.27.63.35.56.2,1.08.43,1.72.45.63.01,1.21-.05,1.77-.28,1.61-.68,2.5-1.9,2.68-3.65.4,0,.8,0,1.2,0,.02.06-.01.14.06.18h0c.04.06.1.05.16.05.87,0,1.75,0,2.62,0,.06,0,.14.02.17-.06,0-.02,0-.03,0-.05,0-.79.01-1.59.02-2.38.51.27,1.06.3,1.63.3,1-.01,2.01,0,3.01,0-.08.09-.15.17-.27.31.19-.04.17.35.42.13.12-.1.26-.21.07-.37Zm.61.65c-.1.1-.24.19-.27.31-.02.08.13.25.24.23.13-.02.27-.15.28-.29,0-.09-.13-.18-.25-.25Zm-.49.32c-.09-.11-.17-.25-.32-.26-.12-.01-.26.15-.24.19.06.13.17.28.32.3.1.01.18-.12.24-.23Z"></path><path class="cls-3" d="m12.24,27.23c-.21.13-.45.06-.67.06-.5-.01-.93.13-1.16.6-.24.5-.25,1.02.08,1.5.09.14.23.2.35.29.07.05.17.06.17.17h-6.96c-.11-.19-.34-.22-.48-.38-.33-.37-.44-.96-.24-1.43.21-.49.57-.74,1.12-.75.61,0,1.21.06,1.82-.05.56-.1.92-.57.98-1.13.08-.92-.61-1.44-1.42-1.43-1.29.02-2.59,0-3.88,0-.52,0-.9-.22-1.13-.67-.23-.47-.2-.95.1-1.4.04-.06.11-.11.11-.2.12.06.19.17.27.27q.27-.25.14-.44c.22-.15.45-.17.7-.08-.2,0-.27.16-.43.26.18.05.26.36.49.08.12-.15.09-.22,0-.33.08-.1.2-.06.3-.06,1.01,0,2.03,0,3.04,0,.26,0,.52.02.77-.06,0,.39,0,.79,0,1.18.01.32-.05.65.04.97,0,.02,0,.04.02.06.08.11.2.06.29.06.56,0,1.12.01,1.68.02.17.26.44.33.72.33.53,0,1.06,0,1.59,0,.06.2.13.39.18.59.08.36.27.66.47.95.26.38.59.7.92,1.01Zm-3.74-.62c-.1.11-.25.2-.28.32-.02.08.13.24.24.23.12-.01.25-.15.27-.27.02-.12-.14-.19-.24-.28Zm1.04.26c-.2.02-.21-.44-.5-.12-.28.31.22.24.16.48.13-.14.22-.23.34-.36Zm-.34,1.06c0-.18.44-.14.21-.44-.17-.21-.24-.03-.34.06-.25.23.1.24.14.38Zm-.4-.26c-.18-.08-.22-.39-.48-.2-.16.12-.07.2.02.31.24.29.28-.07.46-.12Z"></path><path class="cls-8" d="m28.49,28.8c-.18.42-.53.71-.81,1.05h-.12c-.04-.06-.08-.06-.12,0h-.64c-.28-.19-.6-.32-.79-.64-.3-.53-.16-1.25.34-1.66.42-.35,1.2-.33,1.6.03.03.03.04.08.06.12-.1,0-.16.06-.21.13-.04.07-.24.1-.07.23.1.07.19.3.36.06.04-.05.1-.08.15-.13.19.2.18.45.18.7.02.04.04.07.06.11Zm-.57-.35c-.09.05-.17.13-.23.23-.02.03.31.32.35.29.09-.06.24-.14.21-.24-.04-.12-.15-.24-.33-.28Z"></path><path class="cls-6" d="m27.44,29.85c.04-.06.08-.06.12,0h-.12Z"></path><path class="cls-11" d="m12.24,27.23c-.33-.31-.67-.63-.92-1.01-.2-.29-.39-.59-.47-.95-.05-.2-.12-.39-.18-.59.02-.21-.15-.37-.12-.58,0-.21,0-.43,0-.64,0-.56.23-1.05.45-1.54.31-.63.76-1.15,1.32-1.56.28-.21.58-.42.94-.48.17-.03.31-.08.44-.18.28-.08.59-.02.86-.13l.05.02s.02-.03.02-.05c0-.63-.01-1.26-.02-1.88,0-.01-.03-.02-.04-.04-.15-.04-.29.04-.45-.02-.71-.26-1.2-.73-1.52-1.4-.1-.22-.04-.56-.24-.65-.22-.1-.51-.03-.77-.02-.21,0-.23-.07-.14-.23,0-.57,0-1.14,0-1.71,0-.11.05-.23-.05-.33,0,0-.01-.02-.02-.03,0-.24,0-.48,0-.71,0-.16,0-.32,0-.48-.32-.12-.66-.04-.99-.05-.18,0-.38-.06-.56.05.04.45-.25.81-.35,1.22-.04.08-.08.15-.13.23-.03,0-.05.02-.05.06-.02.04-.05.08-.07.12-.06.02-.04.07-.06.11-.1.05-.17.14-.23.23-.03,0-.05.02-.05.06-.02.02-.05.05-.07.07-.04-.01-.05,0-.05.04-.45.42-1,.65-1.58.82-.12-.01-.24-.01-.34.06-.11.07-.06.17-.06.26,0,2.76,0,5.52,0,8.28,0,.09-.05.2.06.26.85,0,1.7,0,2.54.01,0,.07.01.15.02.22,0,.06-.01.11-.02.17h-3.01s-.01-.03-.02-.05c.03-.74.03-1.48,0-2.21,0-.79,0-1.58,0-2.37.03-.89.03-1.79,0-2.68,0-.56,0-1.12,0-1.68,0-.14-.02-.2-.19-.23-1.43-.29-2.39-1.1-2.77-2.53-.22-.83-.05-1.61.36-2.35.37-.68.93-1.13,1.66-1.38.23-.08.45-.17.7-.17.22,0,.24-.16.24-.34,0-1.27,0-2.53,0-3.8,0-.37.08-.69.34-.97.3-.32.66-.43,1.09-.43,3.01,0,6.01,0,9.02,0,1.58,0,3.15,0,4.73,0,.27,0,.53-.01.8.07.56.19.84.57.88,1.16.11,1.32.03,2.64.04,3.96,0,.26.11.33.32.34.35.03.68.13.96.35.02.06.07.05.12.04.97.54,1.47,1.38,1.57,2.48.08.84-.13,1.57-.62,2.25-.52.71-1.23,1.1-2.08,1.26-.21.04-.28.11-.28.33.02.55.01,1.1.02,1.65,0,0-.02,0-.02,0,0,0-.02.01-.02.02,0,.01.01.03.02.04,0,.93.01,1.86.02,2.79,0,0-.02,0-.02,0,0,0-.02.01-.02.02,0,.01.01.03.02.04,0,.64,0,1.28,0,1.92,0,0-.02.01-.02.02,0,.01.01.03.02.04,0,0,.02,0,.02,0,0,.79-.01,1.59-.02,2.38-.01.01-.03.03-.04.04l-2.91.02s0,0,0,0c0-.14,0-.28,0-.41h0c.77,0,1.54,0,2.32,0,.06,0,.14.02.17-.06,0-.02,0-.04,0-.05,0-1.13,0-2.26,0-3.38,0-1.75,0-3.51,0-5.26,0-.04,0-.05-.05-.05-.12-.03-.23-.05-.35-.08,0-.03-.03-.05-.06-.05-.02-.06-.06-.06-.11-.05-.19,0-.38-.03-.55-.12-.67-.35-1.22-.83-1.56-1.52-.14-.32-.28-.64-.32-.99.05-.04.05-.07,0-.11,0-.04-.02-.08-.03-.12-.36-.12-.74-.03-1.11-.05-.14,0-.31-.06-.44.05,0,.4,0,.81,0,1.21,0,.02,0,.04,0,.06,0,.7-.01,1.39-.02,2.09-.25,0-.5,0-.75,0-.09,0-.2-.03-.23.11-.05.03-.05.08-.06.12-.25,1.14-.96,1.8-2.09,2.04-.05.01-.06.04-.06.08,0,.51,0,1.02.01,1.53,0,.02-.01.04-.02.06-.01,0-.03.01-.04.02.01.01.03.02.04.03l.02.12s0,.05.04.04c.6.15,1.24.21,1.77.56.37.24.77.45,1.01.86.01.02.02.05.06.04.1.08.19.17.29.25.02.04,0,.1.06.11.02.04.05.08.07.12,0,.04.01.05.05.06.11.21.23.42.34.64.03.05-.04.14.06.17h0s0,.09.06.12c.06.31.13.62.19.93,0,.23,0,.46,0,.69-.18,1.74-1.07,2.97-2.68,3.65-.56.23-1.14.29-1.77.28-.64-.01-1.16-.25-1.72-.45-.22-.08-.42-.23-.63-.35Zm5.57-15.65c.49,0,.98,0,1.46-.01.17,0,.34.06.5-.05,0-.04,0-.09,0-.13.08-.63.35-1.18.72-1.68.01-.02.03-.04.04-.06.4-.44.9-.75,1.45-.98h.03s.02-.01.02-.01c.12-.02.24-.04.35-.06.13.05.24-.03.35-.07.04.01.05,0,.04-.04,0-.6,0-1.2,0-1.8,0-.04,0-.05-.05-.05-.12,0-.23,0-.35-.01h0c-.05-.09-.14-.05-.21-.05-5.11,0-10.22,0-15.33,0-.06.02-.07.06-.07.11,0,.58,0,1.15,0,1.73,0,.05.02.09.06.12.12-.02.22.1.34.06.14.04.28.08.41.12.41.1.75.32,1.09.55.14.23.33.4.53.57.31.48.55.99.59,1.58,0,.09.04.15.14.14.63,0,1.25,0,1.88,0,0,.18.01.36.02.54.01.25-.08.5.06.74-.09.11-.08.23-.06.35,0,.6,0,1.2,0,1.8.07.11.17.03.26.05.24.06.35-.07.36-.28.02-.3.21-.54.33-.78.15-.29.39-.58.73-.74.79-.42,1.59-.52,2.4-.03.06.04.12.1.21.08.42.33.78.71.94,1.25.15.5.16.5.68.49.12-.58.08-1.16.02-1.74,0-.02-.01-.04-.02-.06,0-.54.01-1.08.02-1.62.01-.02.03-.03.04-.05Zm4.58,1.86c-.11.06-.22.06-.34.05-.31-.04-.5.14-.69.35-.08.09-.09.16.02.23.47.3.95.55,1.54.53.43-.02.84-.08,1.25-.25.2-.08.38-.18.51-.35.05-.07.07-.13-.03-.23-.29-.27-.62-.32-.99-.27-.09-.01-.23,0-.22-.13.02-.3-.14-.64.2-.88.09-.06.13-.17.14-.27.02-.3.04-.59.06-.89.04-.61-.23-.97-.92-.93-.45.03-.75.32-.77.78-.01.27.09.53.06.8-.02.24.06.43.23.59.1.1.18.71.1.82-.02.03-.1.03-.16.04Zm-16.3-.77s.03.04.04.06c0,.18,0,.36.01.54.01.16-.07.22-.22.22-.34-.03-.67-.04-.93.24-.11.11-.19.25-.01.36.34.21.7.42,1.08.48.72.11,1.42-.05,2.04-.46.21-.14.21-.25,0-.41-.26-.21-.55-.24-.87-.2-.24-.06-.36-.68-.14-.87.22-.2.26-.43.26-.69,0-.21-.01-.43.02-.63.06-.36-.09-.7-.4-.84-.36-.16-.91-.03-1.1.23-.24.34-.15.73-.13,1.09.02.32.02.68.34.89Zm8.01,11.44c0,.14-.02.29,0,.43.03.28-.01.48-.35.49-.67-.04-1.16.22-1.4.86-.19.51-.18.75.13.97.85.61,1.8.85,2.82.72.7-.09,1.35-.37,1.9-.83.11-.09.15-.19.14-.32-.08-.91-.7-1.43-1.56-1.37-.09-.05-.29.07-.28-.09.02-.38-.18-.82.24-1.12.15-.11.17-.29.17-.47,0-.11.03-.23.03-.34.03-.41.04-.83,0-1.24-.02-.26-.17-.52-.41-.66-.36-.21-.76-.2-1.15-.1-.56.14-.75.43-.75,1.01,0,.25,0,.5,0,.75,0,.5.01.99.47,1.33Zm11.68-11.89c.02-.3.05-.59,0-.9-.12-.6-.37-1.12-.81-1.53-.58-.56-1.3-.79-2.11-.76-.89.04-1.58.43-2.09,1.14-.46.64-.66,1.36-.5,2.14.09.43.26.83.54,1.18.05.06.11.23.23.06.26-.37.66-.48,1.08-.56.01,0,.03.01.04.02,0-.02-.02-.05-.02-.07-.24-.26-.39-.56-.35-.93.05-.04.05-.07,0-.11,0-.08,0-.16-.02-.23-.24-.84.3-1.77,1.32-1.7.76.05,1.24.51,1.25,1.26,0,.29-.08.57-.07.86,0,.28-.04.55-.27.75-.14.12-.08.2.08.22.37.04.69.2.94.48.09.1.12.12.23,0,.3-.34.4-.76.55-1.17.05-.04.05-.07,0-.11Zm-20.43-.06c.05-.04.05-.07,0-.11-.13-.49-.13-.99.06-1.46.21-.52.94-.78,1.55-.61.45.12.8.37.86.83.05.48.06.98-.02,1.47-.03.21-.09.4-.25.55-.12.11-.03.17.07.2.36.08.68.22.92.5.07.08.12.09.21,0,.28-.28.45-.64.56-.98.08-.24.04-.57.04-.86.02-1.33-1.03-2.48-2.34-2.66-.68-.09-1.35.01-1.94.4-.51.33-.9.75-1.1,1.34-.35.99-.2,1.9.42,2.74.05.07.08.14.16.04.29-.36.71-.51,1.15-.61-.16-.27-.4-.46-.34-.79Zm17.4-6.03s.06-.03.04-.06v-1.74s-.02-.05-.04-.06c-.03-.27-.15-.47-.4-.61-.17-.09-.35-.07-.53-.09-.09-.09-.2-.05-.3-.05-4.57,0-9.13,0-13.7,0-.11,0-.23-.03-.33.05-.36.06-.54.31-.64.64-.08.09-.05.2-.05.3,0,.45.02.91,0,1.36-.01.27.08.32.33.31,2.8,0,5.6,0,8.4,0,2.34,0,4.67,0,7.01,0,.08,0,.17.05.23-.04Zm-9.39,14.15l-.77.48s-.1-.02-.12.04c-.25.24-.5.48-.75.71-.04-.01-.05,0-.04.04l-.02.12s-.05.02-.05.06c-.02.04-.05.08-.07.12-.03,0-.06.02-.05.05-.06.14-.12.27-.19.41-.09.03-.02.12-.06.17-.48,1.08-.25,2.84.55,3.63.16-.7.67-1.48,1.61-1.49.09,0,.21-.02.22-.17,0-.11.09-.21-.08-.3-.16-.08-.24-.27-.26-.45-.07-.45-.13-.9-.13-1.35,0-.13.17-.21.1-.3-.24-.31-.04-.57.09-.81.37-.68,1.58-1.02,2.25-.63.5.29.82.73.81,1.35,0,.44,0,.88-.05,1.32-.04.38-.12.73-.41.99-.09.08-.07.15-.06.23,0,.1.1.07.16.07.82.1,1.41.48,1.64,1.31.01.05.05.12.09.14.07.03.12-.05.16-.1.55-.82.7-1.74.59-2.71-.05-.48-.3-.91-.45-1.36,0-.06-.05-.09-.1-.12,0-.02,0-.04-.01-.06,0-.04-.01-.05-.05-.05-.11-.19-.28-.31-.43-.46-.36-.35-.77-.63-1.23-.81-.66-.25-1.34-.36-2.05-.25-.25.04-.49.14-.75.14-.04,0-.1-.03-.11.05Zm3.35-5c0-1.15-.93-2.03-2.16-1.95-.42.03-.85.26-1.15.6-.33.37-.49.8-.53,1.31-.08,1.03.94,2.04,1.91,2.01,1.01-.04,1.95-.84,1.93-1.97Z"></path><path class="cls-8" d="m23.27,19.81c0-.93-.01-1.86-.02-2.79,0-.02,0-.04,0-.06,0,0,.02,0,.02,0,.48,0,.96,0,1.43,0-.02.18.06.24.24.24.44-.01.89,0,1.33,0,.51.44.53,1.01.41,1.61-.69-.32-1.25,0-1.29.71-.49.02-.97-.04-1.46.05-.24.04-.46.13-.67.24Z"></path><path class="cls-3" d="m3.25,18.57c-.07-.52.08-.97.41-1.37.46,0,.93-.02,1.39,0,.19,0,.26-.05.24-.24.34,0,.69,0,1.03,0,0,.87,0,1.74,0,2.62-.66-.1-1.33-.04-1.99-.06-.1,0-.21-.04-.31-.05,0-.57-.28-.8-.77-.89Z"></path><path class="cls-9" d="m2.56,6.35c-.56-.03-.86-.35-.88-.81-.02-.36.35-.84.81-.82.52.02.83.34.86.93.01.23-.52.7-.8.7Zm-.16-1.17c-.13-.01-.21.14-.25.31-.03.14.21.41.35.39.18-.03.35-.1.35-.34,0-.24-.12-.34-.45-.36Z"></path><path class="cls-9" d="m3.25,18.57c.48.09.77.31.77.89-.06.46-.45.8-.94.75-.38-.04-.67-.36-.7-.83-.01-.29.31-.79.78-.79.03,0,.06,0,.09-.01Zm0,.47c-.23,0-.36.12-.4.32-.03.14.22.4.36.38.18-.03.34-.1.34-.34,0-.23-.12-.32-.3-.35Z"></path><path class="cls-9" d="m24.61,24.75c.32-.54.49-.63,1.11-.47.22.05.31.25.44.41.12.53-.13.89-.53,1.17-.04.03-.11.04-.17.04-.41,0-.85-.45-.85-.86,0-.1,0-.19,0-.29Zm.78-.07c-.22-.03-.31.08-.32.29,0,.21.13.38.3.38.15,0,.37-.08.35-.35-.02-.23-.09-.34-.33-.32Z"></path><path class="cls-9" d="m27.54,7.8c-.46,0-.85-.37-.85-.82,0-.44.41-.84.87-.86.3-.02.78.51.75.85-.03.48-.3.79-.78.83Zm.32-.88c-.04-.17-.15-.29-.37-.28-.23,0-.32.16-.32.36,0,.21.15.32.35.34.18.01.35-.19.35-.41Z"></path><path class="cls-9" d="m3.25,25.84c0-.47.31-.8.76-.81.46,0,.86.37.85.81-.01.42-.35.82-.83.81-.43,0-.79-.37-.79-.81Zm.75-.35c-.16.04-.3.13-.29.33,0,.22.13.37.35.36.21,0,.34-.15.34-.35,0-.23-.16-.32-.4-.35Z"></path><path class="cls-9" d="m5.63,1.46c0-.47.3-.78.77-.79.46-.01.85.37.85.81,0,.46-.38.81-.85.81-.46,0-.77-.33-.77-.83Zm.72.36c.25,0,.44-.15.43-.34,0-.23-.17-.33-.35-.33-.16,0-.33.08-.34.31-.01.23.12.32.26.37Z"></path><path class="cls-9" d="m21.47,1.48c0-.49.31-.81.78-.81.46,0,.84.35.83.8-.01.52-.41.85-.86.83-.45-.02-.75-.33-.75-.81Zm.76.35c.24-.03.39-.14.39-.36,0-.22-.16-.35-.38-.33-.18.02-.3.13-.3.34,0,.22.13.31.3.35Z"></path><path class="cls-9" d="m25.4,19.52c.04-.7.6-1.02,1.29-.71.33.28.44.69.28,1.02-.15.3-.58.5-.95.44-.32-.05-.57-.34-.62-.75Zm.48-.06c-.04.19.1.29.23.34.14.05.28.02.38-.12.11-.16.11-.31-.04-.45-.36-.15-.49-.09-.57.23Z"></path><path class="cls-11" d="m26.28,17.21c-.44,0-.89-.02-1.33,0-.19,0-.26-.05-.24-.24-.02-.18.05-.24.24-.24.86.01,1.72.01,2.58,0,.18,0,.25.1.24.22-.01.11,0,.28-.23.26-.41-.03-.83,0-1.24,0Z"></path><path class="cls-11" d="m5.29,16.96c.02.18-.06.24-.24.24-.46-.01-.93,0-1.39,0-.4,0-.79-.02-1.19,0-.2,0-.21-.09-.21-.24,0-.16.02-.24.21-.24.87.01,1.74.01,2.61,0,.21,0,.21.1.21.24Z"></path><path class="cls-11" d="m20.26,27.29c0-.13,0-.26,0-.39.5-.04,1,.05,1.5-.05.4,0,.8.02,1.2-.01.26-.02.35.07.31.32,0,.05,0,.09,0,.14,0,0-.01,0-.01,0-1,0-2,0-3.01,0Z"></path><path class="cls-11" d="m25.69,15.68c.27,0,.54,0,.81,0,.21,0,.17.13.17.25,0,.13,0,.22-.17.22-.54,0-1.08,0-1.62,0-.22,0-.16-.14-.17-.25,0-.12-.02-.23.17-.22.27.01.54,0,.81,0Z"></path><path class="cls-11" d="m3.25,15.68c.24,0,.48.01.72,0,.17,0,.22.05.21.21-.01.13.04.27-.19.26-.51-.01-1.02-.01-1.53,0-.2,0-.18-.11-.18-.24,0-.14,0-.24.2-.23.26.01.52,0,.78,0Z"></path><path class="cls-11" d="m20.31,25.8c.39,0,.78-.01,1.16-.02.21,0,.42.01.64.02.02.02.03.03.05.05.04.4.07.43-.34.41-.1,0-.19,0-.29,0-.02-.01-.04-.01-.05,0-.28,0-.55,0-.83,0-.41,0-.41,0-.39-.41.02-.02.03-.03.05-.05Z"></path><path class="cls-10" d="m14.6,1.58c.13.08.27.17.3.32.02.14-.19.24-.23.23-.14-.03-.28-.16-.31-.3-.03-.1.12-.2.25-.25Z"></path><path class="cls-9" d="m28,2.17c-.04-.18-.47-.17-.23-.48.15-.19.25-.07.37.04.28.26-.14.27-.14.43Z"></path><path class="cls-9" d="m27.94,1.41c-.05-.15-.42-.17-.15-.43.12-.12.22-.22.37-.04.23.3-.18.29-.22.47Z"></path><path class="cls-9" d="m28.74,1.41c-.03-.18-.45-.16-.22-.46.14-.18.24-.1.37.02.28.25-.09.29-.14.44Z"></path><path class="cls-9" d="m28.7,2.16c-.05-.15-.42-.16-.16-.42.11-.11.21-.24.37-.05.25.3-.18.29-.21.48Z"></path><path class="cls-10" d="m1.3,29.09c-.05-.23-.44-.23-.22-.53.14-.19.24-.08.37.03.28.26-.08.29-.15.5Z"></path><path class="cls-10" d="m2.31,1.19c-.06.05-.15.13-.25.21-.03.02-.34-.3-.32-.33.07-.1.13-.22.27-.22.06,0,.3.23.29.35Z"></path><path class="cls-10" d="m1.32,2.15c-.11-.11-.27-.19-.31-.31-.04-.1.11-.23.23-.24.16-.01.27.14.31.25.04.13-.15.19-.22.3Z"></path><path class="cls-10" d="m2,2.17c-.09-.09-.24-.18-.24-.27,0-.15.14-.27.29-.3.13-.02.26.12.25.22-.01.15-.19.22-.3.35Z"></path><path class="cls-10" d="m1.99,27.69c.15.06.29.17.31.3.02.11-.16.26-.23.25-.14-.02-.27-.17-.31-.3-.03-.11.12-.19.23-.26Z"></path><path class="cls-10" d="m1.25,1.44c-.09-.18-.42-.24-.13-.49.13-.11.23-.16.35,0,.21.29-.17.29-.22.5Z"></path><path class="cls-10" d="m14.94,1.04c-.1.14-.18.27-.32.31-.14.03-.26-.12-.27-.21,0-.14.14-.25.27-.29.15-.05.18.14.31.19Z"></path><path class="cls-10" d="m1.6,27.92c-.12.12-.19.27-.33.29-.14.02-.26-.13-.26-.22.01-.13.14-.26.28-.28.15-.03.18.14.31.21Z"></path><path class="cls-9" d="m29.02,27.97c-.07.11-.14.24-.27.24-.15,0-.27-.15-.3-.27-.03-.1.11-.23.24-.23.16,0,.21.17.33.26Z"></path><path class="cls-10" d="m1.33,21.38c.09.03.18.11.23.21.03.06-.25.33-.3.3-.1-.06-.24-.09-.26-.24,0-.05.26-.27.34-.27Z"></path><path class="cls-10" d="m15.69,1.83c-.12.11-.22.24-.35.3-.03.02-.21-.11-.19-.24.02-.14.09-.29.25-.3.13,0,.19.13.28.23Z"></path><path class="cls-10" d="m15.39,1.41c-.1-.16-.37-.25-.18-.49.14-.19.24-.03.34.07.14.14.14.15-.16.42Z"></path><path class="cls-9" d="m28.26,27.99c-.05.04-.11.07-.15.13-.17.23-.26,0-.36-.06-.17-.12.03-.16.07-.23.04-.07.11-.14.21-.13.1.08.23.14.23.3Z"></path><path class="cls-10" d="m27.68,11.95c.17-.05.21-.44.5-.15.18.18-.02.23-.09.3-.25.26-.26-.12-.41-.15Z"></path><path class="cls-9" d="m28.14,22.19c.19.16.05.27-.07.37-.25.22-.23-.17-.42-.13.12-.13.19-.22.27-.31.09-.02.16.01.22.06Z"></path><path class="cls-10" d="m2.35,28.67c-.12.13-.19.27-.33.3-.15.03-.21-.13-.21-.22,0-.13.09-.26.23-.29.15-.03.18.15.31.21Z"></path><path class="cls-9" d="m28.49,28.8s-.04-.07-.06-.11c.07-.06.14-.12.21-.19.13-.12.2,0,.28.07.1.08.07.13,0,.23-.16.22-.29.17-.44,0Z"></path><path class="cls-10" d="m28.27,12.71c-.08.11-.14.2-.26.24-.05.02-.35-.28-.32-.31.07-.08.13-.22.26-.19.14.03.21.18.32.26Z"></path><path class="cls-10" d="m29.02,11.96c-.09.11-.17.26-.26.23-.14-.04-.26-.17-.31-.31-.01-.04.12-.21.25-.19.14.03.21.18.32.27Z"></path><path class="cls-10" d="m28.75,12.4c.1.08.26.16.25.26-.02.13-.15.27-.29.28-.09,0-.23-.13-.22-.23,0-.14.17-.21.27-.31Z"></path><path class="cls-10" d="m2.07,21.98c-.1-.22-.43-.33-.16-.56.17-.15.26.05.33.15.2.24-.15.23-.18.41Z"></path><path class="cls-9" d="m1.45,22.25q.14.19-.14.44c-.08-.1-.15-.21-.27-.27.12-.3.19-.33.4-.17Z"></path><path class="cls-9" d="m2.05,11.51c-.02-.19-.44-.28-.1-.53.17-.12.21.07.28.13.13.11.12.12-.18.4Z"></path><path class="cls-9" d="m2.1,11.68c.08.08.23.14.21.25-.03.11-.14.26-.26.27-.11,0-.25-.13-.23-.24.03-.11.15-.21.28-.27Z"></path><path class="cls-9" d="m1.04,11.2c.11-.09.17-.26.32-.25.08,0,.21.12.19.21-.03.13-.15.27-.28.28-.09,0-.18-.12-.23-.24Z"></path><path class="cls-9" d="m2.2,22.19c.1.11.13.18,0,.33-.23.28-.31-.03-.49-.08.15-.1.23-.27.43-.26.02,0,.04.01.06.02Z"></path><path class="cls-9" d="m1.28,11.67c.1.11.26.17.27.32,0,.07-.14.21-.2.21-.14-.02-.26-.15-.29-.28-.02-.1.12-.17.22-.25Z"></path><path class="cls-9" d="m29.01,22.42c-.14.09-.26.3-.46.06-.1-.12-.09-.19,0-.28.28-.17.32.11.46.23Z"></path><path class="cls-12" d="m6.32,19.58c0-.87,0-1.74,0-2.62.01,0,.03,0,.04,0,.03.89.03,1.79,0,2.68-.01-.02-.03-.04-.04-.06Z"></path><path class="cls-12" d="m6.36,22.01c.04.74.03,1.48,0,2.21-.09-.32-.03-.65-.04-.97-.01-.39,0-.79,0-1.18.01-.02.03-.04.04-.06Z"></path><path class="cls-13" d="m21.76,26.85c-.5.09-1,0-1.5.05.09-.12.21-.06.32-.06.38-.01.75,0,1.13-.01.02,0,.04.02.06.03Z"></path><path class="cls-2" d="m24.66,9s-.09.01-.12-.04c.05-.02.11-.07.12.04Z"></path><path class="cls-10" d="m23.26,21.84s-.02-.03-.02-.04c0,0,.01-.01.02-.02,0,.02,0,.04,0,.06Z"></path><path class="cls-10" d="m22.15,25.84s-.03-.03-.05-.05c.04,0,.05,0,.05.05Z"></path><path class="cls-2" d="m21.47,26.26s.04,0,.05,0c0,.02,0,.03,0,.05-.02-.02-.04-.03-.05-.05Z"></path><path class="cls-10" d="m23.25,19.87s-.01-.03-.02-.04c0,0,.01-.01.02-.02,0,.02,0,.04,0,.06Z"></path><path class="cls-4" d="m22.79,15.11c0,1.75,0,3.51,0,5.26,0,1.13,0,2.26,0,3.38-.02.02-.03.03-.05.05-.71,0-1.43,0-2.14.01-.1,0-.21-.04-.3.05,0,0,0,0,0,0-.1.06-.03.16-.07.23-.4,0-.8,0-1.2,0,0-.23,0-.46,0-.69.1.07.22.06.34.06.89,0,1.78-.01,2.66,0,.27,0,.36-.06.36-.35,0-2.71,0-5.42,0-8.14.12.03.23.05.35.08.02.02.03.03.05.05Z"></path><path class="cls-10" d="m28.75,22.84c.12.07.25.16.25.25,0,.14-.15.27-.28.29-.11.02-.26-.15-.24-.23.03-.12.18-.21.27-.31Z"></path><path class="cls-10" d="m28.26,23.15c-.06.1-.14.24-.24.23-.15-.02-.26-.17-.32-.3-.02-.05.11-.21.24-.19.15.02.23.15.32.26Z"></path><path class="cls-15" d="m20.26,27.29c1,0,2,0,3.01,0-.04.08-.11.06-.18.06-.88,0-1.77,0-2.65,0-.07,0-.14.01-.18-.06Z"></path><path class="cls-13" d="m20.3,24.28c.97,0,1.94-.01,2.91-.02.01,0,.03,0,.04,0-.04.08-.11.06-.17.06-.87,0-1.75,0-2.62,0-.06,0-.12,0-.16-.05Z"></path><path class="cls-13" d="m20.24,24.1c.03-.07-.03-.18.07-.23,0,.14,0,.28,0,.41-.08-.04-.04-.12-.06-.18Z"></path><path class="cls-10" d="m23.25,24.27s-.03,0-.04,0c.01-.01.03-.03.04-.04,0,.02.01.03,0,.05Z"></path><path class="cls-10" d="m20.31,25.8s-.03.03-.05.05c0-.04,0-.05.05-.05Z"></path><path class="cls-8" d="m9.39,24.27c0-.06.01-.11.02-.17.38,0,.76,0,1.14,0-.03.21.13.38.12.58-.53,0-1.06,0-1.59,0-.29,0-.55-.07-.72-.33.16,0,.32,0,.48-.01.19-.02.39.08.57-.06Z"></path><path class="cls-10" d="m8.5,26.61c.1.1.26.16.24.28-.02.12-.15.25-.27.27-.11.01-.26-.15-.24-.23.03-.12.18-.21.28-.32Z"></path><path class="cls-15" d="m9.39,24.27c-.17.14-.38.04-.57.06-.16.02-.32.01-.48.01-.56,0-1.12,0-1.68-.02-.1,0-.21.05-.29-.06,1,0,2.01,0,3.01,0Z"></path><path class="cls-9" d="m9.54,26.87c-.12.13-.2.22-.34.36.06-.25-.44-.17-.16-.48.29-.32.3.14.5.12Z"></path><path class="cls-10" d="m9.2,27.93c-.04-.13-.38-.15-.14-.38.1-.09.18-.27.34-.06.23.3-.2.26-.21.44Z"></path><path class="cls-9" d="m8.8,27.67c-.18.05-.21.4-.46.12-.09-.11-.19-.19-.02-.31.26-.19.3.11.48.2Z"></path><path class="cls-9" d="m27.91,28.45c.17.04.29.16.33.28.03.1-.12.18-.21.24-.03.02-.36-.26-.35-.29.05-.1.14-.17.23-.23Z"></path><path class="cls-6" d="m22.4,14.99c0,2.71,0,5.42,0,8.14,0,.28-.08.35-.36.35-.89-.02-1.78,0-2.66,0-.11,0-.23.02-.34-.06-.06-.31-.13-.62-.19-.93,0-.05-.01-.09-.06-.12,0,0,0,0,0,0,0-.06.01-.13-.06-.17-.11-.21-.23-.42-.34-.64-.02-.02-.03-.04-.05-.06-.02-.04-.05-.08-.07-.12,0-.05-.01-.09-.06-.11-.1-.08-.19-.17-.29-.25-.02-.01-.04-.02-.06-.04-.23-.41-.63-.62-1.01-.86-.54-.35-1.17-.41-1.77-.56,0-.02-.02-.03-.04-.04,0-.04-.01-.08-.02-.12,0-.02,0-.03,0-.05,0-.02.01-.04.02-.06.07-.08.04-.19.04-.28,0-.44,0-.89,0-1.33,1.13-.24,1.84-.9,2.09-2.04.01-.05,0-.1.06-.12.27,0,.55,0,.82,0,.07,0,.19.04.16-.11,0-.7.01-1.39.02-2.09.02-.02.03-.03.05-.05.61,0,1.23,0,1.84-.01.34.69.89,1.17,1.56,1.52.17.09.36.12.55.12.01.07.03.14.11.05.04,0,.05.01.06.05Zm-2.78,6.45c.01.14-.06.29.05.42.02.03.04.03.06,0,.35,0,.69-.01,1.04-.02.1-.15.11-.42-.01-.43-.37-.04-.77-.11-1.14.03Zm-.52-1.22q-.03.41.37.41c.8,0,1.6,0,2.41,0,.03.03.05.02.05-.02,0-.13,0-.27,0-.4-.02-.08-.09-.05-.14-.05-.85,0-1.69,0-2.54,0-.05,0-.12-.03-.14.05Zm-.76-1.22q-.02.41.37.41c.95,0,1.89,0,2.84,0q.39,0,.37-.41c-.02-.08-.09-.05-.14-.05-1.1,0-2.2,0-3.3,0-.05,0-.12-.03-.14.05Zm3.53-1.27h-5.46s-.05,0-.05.05q-.02.41.37.41c1.6,0,3.21,0,4.81,0q.39,0,.37-.41s0-.05-.05-.05Z"></path><path class="cls-5" d="m21.99,8.67c-.55.22-1.05.53-1.45.98-.03.01-.05.02-.04.06-.37.5-.64,1.05-.72,1.68-.83-.68-1.66-1.36-2.48-2.05-.2-.17-.34-.2-.56-.03-.85.63-1.72,1.24-2.58,1.86-.49.35-.98.7-1.47,1.06-.27.2-.56.36-.79.61-.13-.24-.05-.49-.06-.74.03,0,.06,0,.09-.01.87-.61,1.73-1.23,2.6-1.84.1-.07.07-.11,0-.18-.34-.27-.67-.55-1-.83-.11-.1-.2-.1-.33,0-.43.32-.88.62-1.32.95-.59.44-1.22.84-1.79,1.32-.05.02-.1.03-.15.05-.1,0-.13-.05-.14-.14-.04-.58-.27-1.1-.59-1.58.08,0,.15,0,.23,0,.41-.02.65-.3.64-.75,0-.38-.27-.63-.66-.64-.49,0-.7.23-.74.83-.34-.23-.68-.45-1.09-.55,0-.34,0-.68,0-1.03,0-.18.04-.27.23-.25h.03s.03,0,.03,0c.13,0,.25,0,.38,0,4.46,0,8.91,0,13.37,0,.12,0,.23,0,.35,0,0,.41,0,.81,0,1.22Z"></path><path class="cls-6" d="m14.56,19.56c-.28.12-.58.06-.86.13,0-.64-.01-1.28-.02-1.92,0-.02-.01-.03-.02-.05-.02,0-.04-.02-.06-.02-1.91,0-3.83,0-5.74,0-.19,0-.2.1-.2.24,0,1.24,0,2.47,0,3.71,0,.19.06.25.25.25.92,0,1.84,0,2.75,0,.11,0,.23.02.34.03-.22.49-.45.99-.45,1.54-1.01,0-2.03,0-3.04,0-.26,0-.32-.08-.32-.33,0-2.71,0-5.43,0-8.14.58-.17,1.12-.4,1.58-.82.02-.01.03-.03.05-.04.02-.02.05-.05.07-.07.02-.02.03-.04.05-.06.06-.09.13-.18.23-.23.05-.02.06-.06.06-.11.02-.04.05-.08.07-.12.02-.02.03-.04.05-.06.04-.08.08-.15.13-.23.29,0,.59-.01.88-.02.34.02.68.04,1.02-.01,0,0,.01.02.02.03,0,.55,0,1.1,0,1.65,0,.13-.05.27.05.39-.09.16-.06.24.14.23.26-.01.56-.08.77.02.2.09.14.43.24.65.32.67.81,1.15,1.52,1.4.16.06.31-.02.45.02,0,.65,0,1.3,0,1.95Z"></path><path class="cls-16" d="m13.67,17.77c0,.64.01,1.28.02,1.92-.13.1-.27.15-.44.18-.35.07-.66.27-.94.48-.55.42-1.01.93-1.32,1.56-.11-.01-.23-.03-.34-.03-.92,0-1.84,0-2.75,0-.19,0-.25-.05-.25-.25,0-1.24,0-2.47,0-3.71,0-.14,0-.24.2-.24,1.91,0,3.83,0,5.74,0,.02,0,.04.01.06.02,0,.02.01.03.02.05Z"></path><path class="cls-6" d="m12.59,20.75l.77-.48c.06.03.11.05.11-.05.26,0,.49-.1.75-.14.72-.1,1.4,0,2.05.25.46.18.88.46,1.23.81.15.15.32.28.43.46.02.02.03.03.05.05,0,.02,0,.04.01.06,0,.07.03.11.1.12.16.45.4.88.45,1.36.11.97-.04,1.88-.59,2.71-.03.05-.09.13-.16.1-.04-.02-.07-.09-.09-.14-.24-.83-.83-1.21-1.64-1.31-.06,0-.15.03-.16-.07,0-.08-.03-.15.06-.23.29-.26.37-.61.41-.99.04-.44.04-.88.05-1.32,0-.61-.32-1.06-.81-1.35-.67-.39-1.88-.04-2.25.63-.13.23-.33.5-.09.81.07.09-.1.17-.1.3,0,.46.06.91.13,1.35.03.18.11.37.26.45.18.09.09.19.08.3,0,.15-.13.17-.22.17-.94,0-1.45.78-1.61,1.49-.8-.79-1.04-2.55-.55-3.63.07-.04.06-.11.06-.17.06-.14.12-.27.19-.41.02-.02.03-.04.05-.05.02-.04.05-.08.07-.12.02-.02.03-.04.05-.06,0-.04.01-.08.02-.12.02,0,.03-.02.04-.04.25-.24.5-.48.75-.71.04-.01.08-.03.12-.04Z"></path><path class="cls-1" d="m11.9,12.84c.23-.25.52-.41.79-.61.49-.36.98-.71,1.47-1.06.86-.62,1.73-1.23,2.58-1.86.23-.17.36-.14.56.03.82.69,1.65,1.37,2.48,2.05,0,.04,0,.09,0,.13-.55,0-1.1,0-1.65,0-.12,0-.25-.05-.36.05,0,.02,0,.04,0,.06,0,.54-.01,1.08-.02,1.62-.34,0-.67,0-1.01,0-.21,0-.42-.07-.62.05-.09.02-.15-.04-.21-.08-.81-.49-1.6-.39-2.4.03-.54,0-1.08,0-1.62,0-.02-.02-.04-.04-.06-.06-.02-.12-.03-.24.06-.35Z"></path><path class="cls-6" d="m6.84,4.2c.1-.33.28-.58.64-.64,4.04,0,8.07,0,12.11,0,.74,0,1.49,0,2.23,0,.18.02.35,0,.53.09.25.14.37.34.4.61.01.02.03.04.04.06,0,.58,0,1.16,0,1.74-.01.02-.03.04-.04.06-.06.09-.15.04-.23.04-.1-.1-.22-.05-.33-.05-5.02,0-10.03,0-15.05,0-.24,0-.31-.05-.31-.3.02-.54,0-1.08,0-1.62Zm7.99,1.51c.07,0,.14,0,.2,0,2.34,0,4.68,0,7.02,0,.24,0,.33-.06.31-.31-.02-.28,0-.56,0-.84,0-.49-.1-.6-.59-.6-4.25,0-8.51,0-12.76,0-.42,0-.83,0-1.25,0-.34,0-.49.16-.5.5,0,.31.02.62,0,.93-.02.27.08.31.33.31,2.42,0,4.83,0,7.25,0Z"></path><path class="cls-6" d="m7.83,7.44c-.19-.02-.24.07-.23.25.01.34,0,.68,0,1.03-.14-.04-.28-.08-.41-.12,0-.65,0-1.3,0-1.96.14,0,.29,0,.43,0,4.92,0,9.84,0,14.77,0,0,0,0,0,0,0,0,.66,0,1.31,0,1.97-.12.02-.24.04-.35.06,0-.12.01-.25,0-.37-.03-.28.07-.57-.06-.84-.12,0-.23,0-.35,0-4.46,0-8.91,0-13.37,0-.13,0-.25,0-.38,0-.02-.03-.04-.02-.05,0Z"></path><path class="cls-6" d="m5.35,12.15c-.06.32.19.52.34.79-.44.1-.86.25-1.15.61-.08.1-.11.03-.16-.04-.63-.84-.77-1.75-.42-2.74.2-.59.59-1.01,1.1-1.34.6-.38,1.27-.49,1.94-.4,1.31.18,2.36,1.33,2.34,2.66,0,.29.04.62-.04.86-.11.34-.28.7-.56.98-.08.08-.14.07-.21,0-.24-.28-.56-.43-.92-.5-.11-.02-.19-.09-.07-.2.16-.15.22-.34.25-.55.08-.49.07-.99.02-1.47-.05-.46-.41-.71-.86-.83-.61-.17-1.34.09-1.55.61-.19.47-.19.97-.06,1.46,0,.04,0,.08,0,.11Z"></path><path class="cls-6" d="m21.77,11.97c-.04.37.11.67.35.93,0,.02-.01.04-.02.06-.41.08-.81.19-1.08.56-.12.17-.19,0-.23-.06-.27-.35-.45-.75-.54-1.18-.16-.78.04-1.5.5-2.14.51-.71,1.2-1.1,2.09-1.14.81-.03,1.52.2,2.11.76.44.41.69.94.81,1.53.06.31.02.6,0,.9,0,.04,0,.07,0,.11-.15.4-.25.83-.55,1.17-.11.12-.14.11-.23,0-.25-.28-.56-.44-.94-.48-.15-.02-.21-.1-.08-.22.23-.2.28-.47.27-.75,0-.29.07-.57.07-.86,0-.75-.48-1.2-1.25-1.26-1.02-.07-1.56.85-1.32,1.7.02.07.01.15.02.23,0,.04,0,.08,0,.11Z"></path><path class="cls-14" d="m15.78,25.04c.86-.06,1.49.46,1.56,1.37.01.13-.02.23-.14.32-.56.46-1.2.74-1.9.83-1.02.13-1.97-.11-2.82-.72-.31-.22-.32-.47-.13-.97.24-.64.73-.9,1.4-.86.03,0,.06.01.09.02.33.43.81.8,1.36.51.23-.12.42-.3.58-.5Z"></path><path class="cls-7" d="m15.78,25.04c-.16.21-.35.38-.58.5-.55.29-1.03-.08-1.36-.51.1-.05.29.08.3-.12,0-.27.06-.55-.04-.81-.45-.34-.47-.83-.47-1.33,0-.25,0-.5,0-.75,0-.58.2-.87.75-1.01.38-.09.79-.11,1.15.1.24.14.38.4.41.66.04.41.02.83,0,1.24,0,.11-.03.22-.03.34,0,.18-.02.36-.17.47-.42.31-.22.74-.24,1.12,0,.16.19.04.28.09Z"></path><path class="cls-1" d="m10.09,11.51c.56-.48,1.19-.88,1.79-1.32.43-.32.88-.62,1.32-.95.12-.09.21-.09.33,0,.33.28.67.55,1,.83.08.06.1.11,0,.18-.87.61-1.73,1.23-2.6,1.84-.02.01-.06,0-.09.01,0-.18-.01-.36-.02-.54-.08-.08-.18-.04-.27-.05-.49,0-.97,0-1.46-.01Z"></path><path class="cls-4" d="m7.19,15c0,2.71,0,5.43,0,8.14,0,.25.05.33.32.33,1.01-.02,2.03,0,3.04,0,0,.21,0,.43,0,.64-.38,0-.76,0-1.14,0,0-.07-.01-.15-.02-.22-.08-.12-.19-.06-.29-.06-.75,0-1.5,0-2.25,0,0-2.92,0-5.83,0-8.75.11-.07.22-.07.34-.06Z"></path><path class="cls-7" d="m5.93,13.49c.15,0,.23-.06.22-.22-.01-.18,0-.36-.01-.54,0-.04-.01-.05-.04-.06-.32-.22-.32-.58-.34-.89-.02-.36-.11-.75.13-1.09.18-.26.74-.39,1.1-.23.32.14.47.48.4.84-.04.21-.02.42-.02.63,0,.27-.04.5-.26.69-.22.2-.1.82.14.87-.48.51-.85.51-1.32,0Z"></path><path class="cls-7" d="m22.39,13.43c.05-.01.13,0,.16-.04.08-.11,0-.72-.1-.82-.17-.16-.25-.35-.23-.59.02-.27-.08-.53-.06-.8.02-.46.32-.75.77-.78.69-.05.96.31.92.93-.02.3-.04.59-.06.89,0,.11-.05.21-.14.27-.34.23-.18.58-.2.88,0,.13.13.11.22.13-.42.48-1.04.46-1.28-.06Z"></path><path class="cls-6" d="m16.71,15.28c.01,1.13-.92,1.93-1.93,1.97-.97.03-1.99-.98-1.91-2.01.04-.51.19-.94.53-1.31.31-.34.74-.57,1.15-.6,1.23-.08,2.16.8,2.16,1.95Zm-1.95-1.56c-.41-.04-.79.13-1.11.43-.33.31-.46.75-.46,1.16,0,.83.69,1.6,1.61,1.61.86,0,1.64-.77,1.61-1.63-.02-.85-.66-1.58-1.66-1.56Z"></path><path class="cls-16" d="m22.39,13.43c.24.52.85.54,1.28.06.37-.05.7,0,.99.27.11.1.09.16.03.23-.13.17-.31.26-.51.35-.4.17-.82.23-1.25.25-.59.03-1.07-.22-1.54-.53-.11-.07-.1-.15-.02-.23.18-.2.38-.39.69-.35.11.01.23.01.34-.05Z"></path><path class="cls-4" d="m5.93,13.49c.47.51.83.51,1.32,0,.31-.04.61-.01.87.2.2.17.2.28,0,.41-.62.41-1.32.57-2.04.46-.38-.06-.74-.27-1.08-.48-.18-.11-.1-.24.01-.36.26-.28.59-.27.93-.24Z"></path><path class="cls-1" d="m20.11,13.25c-.61,0-1.23,0-1.84.01-.02,0-.03,0-.05,0,0-.4,0-.81,0-1.21.52,0,1.03,0,1.55,0,0,.04.02.08.03.12,0,.04,0,.07,0,.11.04.35.17.67.32.99Z"></path><path class="cls-2" d="m16.12,13.31c.2-.12.41-.04.62-.05.33-.01.67,0,1.01,0,0,.02.01.04.02.06,0,.58-.01,1.16-.02,1.74-.53,0-.53,0-.68-.49-.16-.53-.52-.91-.94-1.25Z"></path><path class="cls-1" d="m10.34,13.24c-.29,0-.59.01-.88.02.09-.41.39-.77.35-1.22.52,0,1.03,0,1.55,0,0,.16,0,.32,0,.48-.34.24-.68.48-1.02.72Z"></path><path class="cls-6" d="m11.9,13.25c.54,0,1.08,0,1.62,0-.33.16-.58.44-.73.74-.12.24-.3.48-.33.78-.02.21-.12.34-.36.28-.08-.02-.19.06-.26-.05.08-.08.05-.18.05-.27,0-.49,0-.98,0-1.47Z"></path><path class="cls-6" d="m8.69,9.27c.04-.6.25-.84.74-.83.39,0,.66.26.66.64,0,.45-.24.73-.64.75-.08,0-.15,0-.23,0-.2-.17-.39-.34-.53-.57Z"></path><path class="cls-13" d="m6.84,4.2c0,.54.02,1.08,0,1.62,0,.25.07.3.31.3,5.02,0,10.03,0,15.05,0,.11,0,.23-.05.33.05-2.34,0-4.67,0-7.01,0-2.8,0-5.6,0-8.4,0-.25,0-.34-.05-.33-.31.02-.45,0-.91,0-1.36,0-.1-.03-.21.05-.3Z"></path><path class="cls-8" d="m22.4,6.63c-4.92,0-9.84,0-14.77,0-.14,0-.29,0-.44,0-.11,0-.23,0-.34,0,0-.02,0-.03,0-.05,5.11,0,10.22,0,15.33,0,.07,0,.16-.04.21.05Z"></path><path class="cls-15" d="m21.82,3.55c-.74,0-1.49,0-2.23,0-4.04,0-8.07,0-12.11,0,.1-.08.22-.05.33-.05,4.57,0,9.13,0,13.7,0,.1,0,.21-.04.3.05Z"></path><path class="cls-4" d="m22.39,8.6c0-.66,0-1.31,0-1.97.12,0,.23,0,.35.01.02.02.03.03.05.05,0,.6,0,1.2,0,1.8-.02,0-.03.02-.04.04-.11.03-.22.12-.35.07Z"></path><path class="cls-4" d="m6.86,6.64c.11,0,.23,0,.34,0,0,.65,0,1.3,0,1.96-.12.05-.22-.07-.34-.06,0-.64,0-1.27,0-1.91Z"></path><path class="cls-13" d="m6.85,15.06c0,2.92,0,5.83,0,8.75,0,.02,0,.04,0,.06-.11-.07-.06-.18-.06-.26,0-2.76,0-5.52,0-8.28,0-.09-.05-.2.06-.26Z"></path><path class="cls-5" d="m10.34,13.24c.34-.24.68-.48,1.02-.72,0,.24,0,.48,0,.71-.34.05-.68.03-1.02.01Z"></path><path class="cls-15" d="m6.85,23.86s0-.04,0-.06c.75,0,1.5,0,2.25,0,.1,0,.21-.05.29.06-.85,0-1.7,0-2.54-.01Z"></path><path class="cls-15" d="m20.3,23.86c.09-.09.2-.05.3-.05.71,0,1.43,0,2.14-.01,0,0,.02,0,.02,0h.02c-.03.09-.11.06-.17.06-.77,0-1.54,0-2.32,0Z"></path><path class="cls-13" d="m14.56,19.56c0-.65,0-1.3,0-1.95.01.01.04.02.04.04,0,.63.02,1.26.02,1.88,0,.02-.01.03-.02.05-.02,0-.03-.01-.05-.02Z"></path><path class="cls-15" d="m11.42,15.29c-.1-.12-.05-.26-.05-.39,0-.55,0-1.1,0-1.65.1.1.05.22.05.33,0,.57,0,1.14,0,1.71Z"></path><path class="cls-15" d="m17.77,11.57c.11-.1.24-.05.36-.05.55,0,1.1,0,1.65,0-.16.1-.33.04-.5.05-.49.01-.98.01-1.46.01-.01,0-.03,0-.04-.01Z"></path><path class="cls-9" d="m18.21,15.4c.03.15-.08.11-.16.11-.27,0-.55,0-.82,0,.03-.14.14-.11.23-.11.25,0,.5,0,.75,0Z"></path><path class="cls-13" d="m6.86,6.64c0,.64,0,1.27,0,1.91-.05-.02-.06-.07-.07-.12,0-.58,0-1.15,0-1.73,0-.05.01-.09.07-.11,0,.02,0,.03,0,.05Z"></path><path class="cls-15" d="m10.09,11.51c.49,0,.97,0,1.46.01.09,0,.19-.04.27.05-.63,0-1.25,0-1.88-.01.05-.02.1-.03.15-.05Z"></path><path class="cls-12" d="m11.9,13.25c0,.49,0,.98,0,1.47,0,.09.03.19-.05.27,0-.6,0-1.2,0-1.8.02.02.04.04.06.06Z"></path><path class="cls-10" d="m17.75,15.05c0-.58.01-1.16.02-1.74.06.58.1,1.16-.02,1.74Z"></path><path class="cls-8" d="m15.09,17.67c0,.44,0,.89,0,1.33,0,.09.03.19-.04.28,0-.51,0-1.02-.01-1.53,0-.04.01-.07.06-.08Z"></path><path class="cls-13" d="m11.36,12.03c-.52,0-1.03,0-1.55,0,.18-.11.37-.06.56-.05.33.01.67-.07.99.05Z"></path><path class="cls-13" d="m19.77,12.03c-.52,0-1.03,0-1.55,0,.13-.12.3-.06.44-.05.37.02.74-.07,1.11.05Z"></path><path class="cls-10" d="m14.1,24.1c.1.27.05.54.04.81,0,.2-.2.07-.3.12-.03,0-.06-.01-.09-.02.33,0,.38-.21.35-.49-.02-.14,0-.29,0-.43Z"></path><path class="cls-1" d="m21.98,7.45c.13.27.03.56.06.84.01.12,0,.25,0,.37,0,0-.03.01-.03.01,0,0-.03,0-.03,0,0-.41,0-.81,0-1.22Z"></path><path class="cls-2" d="m22.34,14.94c-.08.08-.1.02-.11-.05.05,0,.1,0,.11.05Z"></path><path class="cls-2" d="m18.09,21.84c-.07,0-.1-.05-.1-.12.04.03.1.06.1.12Z"></path><path class="cls-2" d="m13.46,20.23c0,.1-.05.08-.11.05,0-.08.06-.05.11-.05Z"></path><path class="cls-2" d="m18.74,22.19c.07.04.06.11.06.17-.1-.03-.03-.12-.06-.17Z"></path><path class="cls-2" d="m11.31,22.3c0,.06.01.13-.06.17.04-.05-.03-.14.06-.17Z"></path><path class="cls-9" d="m21.77,11.97s0-.08,0-.11c.05.04.05.08,0,.11Z"></path><path class="cls-9" d="m22.11,12.96s.01-.04.02-.06c0,.02.02.05.02.07-.01,0-.03-.01-.04-.02Z"></path><path class="cls-2" d="m9.22,13.66s-.01.09-.06.11c.02-.04,0-.1.06-.11Z"></path><path class="cls-2" d="m18.22,21.26s.06.07.06.11c-.06-.02-.04-.07-.06-.11Z"></path><path class="cls-2" d="m18.8,22.36s.06.07.06.12c-.05-.02-.04-.08-.06-.12Z"></path><path class="cls-9" d="m5.35,12.15s0-.08,0-.11c.05.04.05.08,0,.11Z"></path><path class="cls-9" d="m19.8,12.26s0-.07,0-.11c.05.04.05.07,0,.11Z"></path><path class="cls-2" d="m12.59,20.75s-.08.03-.12.04c.02-.06.07-.05.12-.04Z"></path><path class="cls-9" d="m25.77,12.32s0-.07,0-.11c.05.04.05.07,0,.11Z"></path><path class="cls-9" d="m20.49,9.71s.01-.05.04-.06c-.01.02-.03.04-.04.06Z"></path><path class="cls-10" d="m23.25,16.96s0,.04,0,.06c0-.01-.01-.03-.02-.04,0,0,.01-.01.02-.02Z"></path><path class="cls-3" d="m18.23,13.25s.03,0,.05,0c-.02.02-.03.03-.05.05,0-.02,0-.04,0-.06Z"></path><path class="cls-2" d="m9.34,13.48s-.03.04-.05.06c0-.04.01-.05.05-.06Z"></path><path class="cls-2" d="m11.55,21.84s-.03.04-.05.05c0-.04.01-.05.05-.05Z"></path><path class="cls-2" d="m11.66,21.66s-.03.04-.05.06c0-.04.01-.05.05-.06Z"></path><path class="cls-2" d="m17.97,21.66s-.03-.03-.05-.05c.03,0,.05.01.05.05Z"></path><path class="cls-2" d="m18.34,21.49s.03.04.05.06c-.03,0-.05-.02-.05-.06Z"></path><path class="cls-2" d="m11.72,21.51s-.02.03-.04.04c0-.04,0-.05.04-.04Z"></path><path class="cls-2" d="m17.87,20.97s.04.02.06.04c-.04.02-.05-.01-.06-.04Z"></path><path class="cls-9" d="m6.09,12.67s.05.03.04.06c-.01-.02-.03-.04-.04-.06Z"></path><path class="cls-8" d="m22.74,8.53s.02-.03.04-.04c0,.03,0,.05-.04.04Z"></path><path class="cls-2" d="m8.93,14.01s-.03.04-.05.06c0-.04.01-.05.05-.06Z"></path><path class="cls-2" d="m8.82,14.14s-.03.03-.05.04c0-.04,0-.05.05-.04Z"></path><path class="cls-8" d="m15.05,19.52s.03.02.04.04c-.03,0-.05,0-.04-.04Z"></path><path class="cls-8" d="m15.03,19.35s0,.03,0,.05c-.01-.01-.03-.02-.04-.04.01,0,.03-.01.04-.02Z"></path><path class="cls-10" d="m17.77,11.57s.03,0,.04.01c-.02.02-.03.03-.04.05,0-.02,0-.04,0-.06Z"></path><path class="cls-8" d="m22.79,6.69s-.03-.03-.05-.05c.04,0,.05,0,.05.05Z"></path><path class="cls-8" d="m22.79,15.11s-.03-.03-.05-.05c.04,0,.05,0,.05.05Z"></path><path class="cls-3" d="m22.75,6.12s.03-.04.04-.06c.01.04-.01.05-.04.06Z"></path><path class="cls-3" d="m22.79,4.32s-.03-.04-.04-.06c.03.01.05.03.04.06Z"></path><path class="cls-8" d="m22.79,23.81h-.02s-.02,0-.02,0c.02-.02.03-.03.05-.05.01.02.01.03,0,.05Z"></path><path class="cls-2" d="m2.4,5.18c.32.01.44.12.45.36,0,.24-.17.31-.35.34-.14.03-.38-.25-.35-.39.04-.17.12-.33.25-.31Z"></path><path class="cls-2" d="m3.24,19.05c.18.03.3.13.3.35,0,.24-.15.31-.34.34-.14.02-.38-.23-.36-.38.04-.2.16-.31.4-.32Z"></path><path class="cls-2" d="m25.38,24.68c.24-.02.31.09.33.32.02.28-.2.35-.35.35-.17,0-.3-.16-.3-.38,0-.21.1-.32.32-.29Z"></path><path class="cls-2" d="m27.85,6.92c0,.23-.16.43-.35.41-.2-.02-.35-.13-.35-.34,0-.19.1-.35.32-.36.22,0,.33.12.37.28Z"></path><path class="cls-2" d="m4.01,25.49c.24.02.4.12.4.35,0,.2-.13.34-.34.35-.22,0-.35-.14-.35-.36,0-.21.14-.29.29-.33Z"></path><path class="cls-2" d="m6.35,1.82c-.14-.05-.27-.14-.26-.37.01-.22.17-.31.34-.31.18,0,.35.11.35.33,0,.19-.18.35-.43.34Z"></path><path class="cls-2" d="m22.23,1.82c-.17-.04-.3-.13-.3-.35,0-.21.12-.32.3-.34.22-.02.38.11.38.33,0,.22-.14.34-.39.36Z"></path><path class="cls-2" d="m26.45,19.23c.15.14.15.29.04.45-.09.14-.24.17-.38.12-.14-.05-.28-.14-.23-.34.23.02.35-.22.57-.23Z"></path><path class="cls-8" d="m26.45,19.23c-.21.01-.34.25-.57.23.08-.33.21-.38.57-.23Z"></path><path class="cls-11" d="m16.42,17.73h5.46s.03.03.05.05q.02.41-.37.41c-1.6,0-3.21,0-4.81,0q-.39,0-.37-.41s.03-.03.05-.05Z"></path><path class="cls-11" d="m21.92,19q.02.41-.37.41c-.95,0-1.89,0-2.84,0q-.39,0-.37-.41c1.19,0,2.38,0,3.58,0Z"></path><path class="cls-11" d="m21.87,20.63c-.8,0-1.6,0-2.41,0q-.39,0-.37-.41c.94,0,1.88,0,2.82,0,0,.13,0,.27,0,.4-.02,0-.04.01-.05.02Z"></path><path class="cls-11" d="m19.67,21.85c-.11-.13-.04-.28-.05-.42.26,0,.51,0,.77,0,.39,0,.39,0,.38.41-.35,0-.69.01-1.04.02-.02,0-.04,0-.06,0Z"></path><path class="cls-10" d="m21.92,19c-1.19,0-2.38,0-3.58,0,.02-.08.09-.05.14-.05,1.1,0,2.2,0,3.3,0,.05,0,.12-.03.14.05Z"></path><path class="cls-10" d="m21.92,20.22c-.94,0-1.88,0-2.82,0,.02-.08.09-.05.14-.05.85,0,1.69,0,2.54,0,.05,0,.12-.03.14.05Z"></path><path class="cls-13" d="m20.77,21.83c0-.41,0-.41-.38-.41-.26,0-.51,0-.77,0,.37-.14.77-.08,1.14-.03.12.01.11.28.01.43Z"></path><path class="cls-4" d="m19.67,21.85s.04,0,.06,0c-.02.03-.04.03-.06,0Z"></path><path class="cls-4" d="m21.87,20.63s.04-.01.05-.02c0,.04-.02.05-.05.02Z"></path><path class="cls-10" d="m21.92,17.78s-.03-.03-.05-.05c.04,0,.05,0,.05.05Z"></path><path class="cls-10" d="m16.42,17.73s-.03.03-.05.05c0-.04,0-.05.05-.05Z"></path><path class="cls-3" d="m7.83,7.44s.03-.03.05,0c0,0-.03,0-.03,0h-.03Z"></path><path class="cls-12" d="m13.67,17.77s-.01-.03-.02-.05c0,.02.01.03.02.05Z"></path><path class="cls-14" d="m14.82,5.71c-2.42,0-4.83,0-7.25,0-.24,0-.35-.04-.33-.31.03-.31,0-.62,0-.93,0-.34.16-.5.5-.5.42,0,.83,0,1.25,0,4.25,0,8.51,0,12.76,0,.49,0,.59.1.59.6,0,.28-.02.56,0,.84.02.24-.07.31-.31.31-2.34,0-4.68,0-7.02,0-.07,0-.14,0-.2,0Zm2.34-.64c1.39,0,2.78,0,4.17,0,.15,0,.25-.01.25-.21,0-.19-.05-.25-.25-.25-2.77,0-5.54,0-8.31,0-.17,0-.27.03-.27.24,0,.22.11.22.27.22,1.38,0,2.76,0,4.14,0Zm-6.82-.46c-.2-.03-.26.09-.26.25,0,.17.1.27.27.27.18,0,.25-.11.25-.28,0-.2-.09-.26-.27-.24Zm-1.01,0c-.2,0-.3.08-.3.26,0,.17.1.27.27.26.19,0,.25-.12.25-.3,0-.18-.1-.23-.23-.22Zm-.82.23c.02-.13-.04-.23-.22-.23-.18,0-.3.06-.3.25,0,.17.1.27.26.27.17,0,.26-.09.26-.3Z"></path><path class="cls-5" d="m14.76,13.72c1-.02,1.63.71,1.66,1.56.02.86-.75,1.63-1.61,1.63-.93,0-1.62-.77-1.61-1.61,0-.41.13-.85.46-1.16.32-.3.7-.47,1.11-.43Zm.85,1.61c0-.28,0-.3-.27-.27-.26.02-.35-.07-.31-.32,0-.03,0-.06,0-.09.03-.2-.11-.18-.24-.18-.14,0-.23,0-.23.19,0,.38-.01.39-.42.39-.16,0-.2.05-.22.21-.03.27.12.28.31.26.25-.03.38.03.34.32-.03.19,0,.33.26.33.27,0,.21-.18.2-.31-.04-.29.07-.38.35-.34.14.02.29.02.24-.18Z"></path><path class="cls-6" d="m17.17,5.07c-1.38,0-2.76,0-4.14,0-.16,0-.28,0-.27-.22,0-.2.1-.24.27-.24,2.77,0,5.54,0,8.31,0,.19,0,.24.06.25.25,0,.2-.1.21-.25.21-1.39,0-2.78,0-4.17,0Z"></path><path class="cls-2" d="m10.35,4.61c.18-.02.27.04.27.24,0,.17-.07.28-.25.28-.17,0-.27-.1-.27-.27,0-.16.06-.28.26-.25Z"></path><path class="cls-2" d="m9.35,4.6c.13-.01.23.04.23.22,0,.18-.06.3-.25.3-.17,0-.27-.09-.27-.26,0-.17.09-.26.3-.26Z"></path><path class="cls-2" d="m8.53,4.83c0,.2-.08.3-.26.3-.17,0-.27-.1-.26-.27,0-.2.12-.25.3-.25.18,0,.24.09.22.23Z"></path><path class="cls-6" d="m15.61,15.33c.05.2-.09.2-.24.18-.28-.04-.38.05-.35.34.02.13.08.31-.2.31-.27,0-.29-.14-.26-.33.05-.29-.09-.35-.34-.32-.19.02-.34.02-.31-.26.02-.16.05-.21.22-.21.41,0,.42-.01.42-.39,0-.19.1-.19.23-.19.13,0,.26-.02.24.18,0,.03,0,.06,0,.09-.04.25.04.34.31.32.28-.02.28,0,.27.27Z"></path></svg>