<svg xmlns="http://www.w3.org/2000/svg" id="Layer_1" data-name="Layer 1" viewBox="0 0 30 30"><defs><style>      .cls-1 {        fill: #f9cf58;      }      .cls-2 {        fill: #ee3440;      }      .cls-3 {        fill: #fee17a;      }      .cls-4 {        fill: #fff8f6;      }      .cls-5 {        fill: #fbab40;      }      .cls-6 {        fill: #ef4a58;      }      .cls-7 {        fill: #fdba58;      }      .cls-8 {        fill: #e2f0d8;      }      .cls-9 {        fill: #9cce7c;      }      .cls-10 {        fill: #d0d5df;      }      .cls-11 {        fill: #d4bb62;      }      .cls-12 {        fill: #3f7093;      }      .cls-13 {        fill: #94c7ec;      }      .cls-14 {        fill: #87c662;      }    </style></defs><path class="cls-12" d="m7.38,27.84c.74,0,1.49,0,2.23,0,0,0,.03,0,.03,0h.03c1.4,0,2.79,0,4.19,0,.02,0,.04,0,.06,0,.74,0,1.48,0,2.22,0,1.4,0,2.81,0,4.21,0,.76,0,1.51,0,2.27,0,1.4,0,2.81,0,4.21,0,.75,0,1.51.02,2.26,0,.26,0,.45.08.59.3v.29c-.15.22-.35.28-.61.28-9.41,0-18.82,0-28.23,0-.32,0-.5-.16-.51-.44,0-.25.18-.41.49-.42.78,0,1.57,0,2.35,0,1.4.02,2.81.02,4.21,0Z"></path><path class="cls-13" d="m26.83,27.83c-1.4,0-2.81,0-4.21,0,0-1.8,0-3.59,0-5.39,0-3.02,0-6.04,0-9.06,0-.55.18-.73.74-.73.93,0,1.85,0,2.78,0,.46,0,.7.23.69.68-.05,3.4,0,6.8-.02,10.2,0,1.43,0,2.87,0,4.3Z"></path><path class="cls-6" d="m24.46,7.1c0,.18.01.37-.01.55-.03.2-.23.26-.42.13-.38-.26-.76-.52-1.14-.79-.05-.03-.09-.07-.15-.06-.45-.56-.69-.57-1.1-.03-.56.73-1.17,1.43-1.81,2.09-.38.39-.81.75-1.22,1.12-.99.88-2.09,1.62-3.25,2.25-1.27.68-2.59,1.24-3.98,1.63-1.17.33-2.36.58-3.56.73-.59.07-1.18.18-1.78.21-.37.02-.75.17-1.12.03.66-.22,1.33-.44,1.98-.69,1.11-.42,2.21-.86,3.28-1.38,1.3-.63,2.57-1.32,3.77-2.12,1.35-.9,2.61-1.9,3.75-3.06.79-.8,1.52-1.63,2.12-2.58.1-.16.1-.23-.06-.34-.37-.23-.71-.5-1.08-.73-.16-.1-.2-.24-.2-.37,0-.14.17-.16.28-.19.82-.19,1.63-.43,2.45-.64.74-.19,1.48-.39,2.23-.57.44-.11.54-.05.58.39.08.83.16,1.66.25,2.49.05.48.03.98.18,1.46.03.1-.02.23-.03.34.01.04,0,.1.07.11Z"></path><path class="cls-9" d="m16.15,26.82c0-.1-.01-.19-.01-.29,0-3.33,0-6.67,0-10,0-.1,0-.19,0-.29.02-.26.19-.44.46-.44,1.07,0,2.14,0,3.21,0,.31,0,.51.22.53.53,0,.06,0,.11,0,.17,0,3.35,0,6.71,0,10.06,0,.09,0,.17-.01.26-1.39,0-2.78,0-4.18,0Z"></path><path class="cls-7" d="m9.67,26.82c0-.6-.01-1.2-.01-1.8,0-1.88,0-3.76,0-5.64,0-.21.13-.35.32-.4.14-.04.28-.05.42-.05.92,0,1.83,0,2.75,0,.5,0,.71.21.71.71,0,2.32,0,4.64,0,6.96,0,.08,0,.15-.01.23-1.39,0-2.78,0-4.18,0Z"></path><path class="cls-3" d="m3.19,26.82c0-1.34,0-2.67,0-4.01,0-.18-.06-.37.1-.53.13-.12.26-.22.45-.22,1.02,0,2.04,0,3.07,0,.35,0,.58.23.58.58,0,1.39,0,2.79,0,4.18-1.39,0-2.79,0-4.18,0Z"></path><path class="cls-2" d="m4.91,14.96c.38.14.75,0,1.12-.03.59-.03,1.18-.14,1.78-.21,1.21-.15,2.39-.4,3.56-.73,1.39-.39,2.72-.94,3.98-1.63,1.17-.63,2.26-1.37,3.25-2.25.41-.37.84-.72,1.22-1.12.64-.66,1.25-1.36,1.81-2.09.41-.54.65-.53,1.1.03-.39.5-.79.99-1.2,1.47-.43.51-.88,1.01-1.4,1.45-.56.47-1.08.98-1.66,1.42-.88.66-1.81,1.25-2.77,1.78-1.36.75-2.81,1.32-4.28,1.81-.56.19-1.14.34-1.72.49-1.01.26-2.05.4-3.08.57-.57.09-1.15.18-1.74.13-.29-.03-.47-.14-.51-.38-.06-.33.06-.55.35-.65.05-.02.1-.03.16-.05Z"></path><path class="cls-5" d="m9.67,26.82c1.39,0,2.78,0,4.18,0,0,.32.01.65.02.97-.01.01-.02.03-.02.05-1.4,0-2.79,0-4.19,0,0-.02,0-.03-.02-.04,0-.32.02-.65.03-.97Z"></path><path class="cls-14" d="m16.15,26.82c1.39,0,2.78,0,4.18,0,0,.34.01.68.02,1.02-1.4,0-2.81,0-4.21,0,0-.34.01-.68.02-1.01Z"></path><path class="cls-1" d="m3.19,26.82c1.39,0,2.79,0,4.18,0,0,.31.02.61.02.92,0,.02,0,.04,0,.05,0,0-.02,0-.02,0-1.39,0-2.79,0-4.18,0,0-.32,0-.65,0-.97Z"></path><path class="cls-11" d="m3.18,27.79c1.39,0,2.79,0,4.18,0,0,.01.01.03.01.05-1.4.02-2.81.02-4.21,0,0-.02,0-.03.02-.05Z"></path><path class="cls-4" d="m7.39,27.79s0-.04,0-.05c0,.01.01.02.02.04,0,0,0,.01-.02.02Z"></path><path class="cls-8" d="m9.64,27.79s.02.03.02.04c0,0-.03,0-.03,0,0,0-.03,0-.03,0,0-.02.02-.03.03-.04Z"></path><path class="cls-10" d="m13.85,27.84s0-.03.02-.05c.01.01.03.03.04.04-.02,0-.04,0-.06,0Z"></path></svg>