<svg xmlns="http://www.w3.org/2000/svg" id="Layer_1" data-name="Layer 1" viewBox="0 0 30 30"><defs><style>      .cls-1 {        fill: none;      }      .cls-2 {        fill: #fee178;      }      .cls-3 {        fill: #f37e87;      }      .cls-4 {        fill: #fcf2df;      }      .cls-5 {        fill: #3dc6ee;      }      .cls-6 {        fill: #7ac89e;      }    </style></defs><rect class="cls-1" x="15.42" y="15" width="2.16" height="2.16"></rect><path class="cls-6" d="m16.07,28.83h-2.21c-.03-.06-.09-.05-.14-.05-.64,0-1.26-.14-1.87-.29-1.53-.37-2.97-.97-4.3-1.83-1.42-.92-2.65-2.05-3.65-3.42-.3-.41-.26-.63.19-.89.26-.15.5-.31.78-.43.14-.06.25-.15.11-.36-.28-.43-.51-.9-.77-1.35.53-.31,1.05-.63,1.58-.94.05.08.1.17.15.26.42.84.95,1.62,1.58,2.31.92,1.02,2.02,1.82,3.28,2.38,1.55.7,3.17,1.04,4.88.9,1.47-.12,2.85-.53,4.16-1.22,1.15-.61,2.09-1.45,2.93-2.41.6-.68,1.04-1.46,1.44-2.26.04.08.12.1.18.14.47.27.93.55,1.39.83-.26.49-.51.98-.83,1.43-.07.11-.07.15.04.21.33.18.66.37.98.57.31.19.36.45.16.75-.4.58-.86,1.1-1.36,1.6-.98.98-2.06,1.81-3.29,2.46-1.38.73-2.84,1.23-4.38,1.46-.35.05-.7.11-1.04.16Z"></path><path class="cls-2" d="m25.79,20.18c-.46-.28-.93-.55-1.39-.83-.07-.04-.15-.06-.18-.14.13-.33.27-.66.38-1,.3-.96.5-1.94.51-2.95.07-.3.06-.6,0-.9-.02-.19-.04-.37-.06-.56-.07-.86-.29-1.69-.6-2.49-.49-1.29-1.19-2.44-2.19-3.4-.51-.5-1.01-1.01-1.62-1.39-.25-.15-.53-.25-.76-.41-.36-.25-.74-.46-1.15-.6-.91-.32-1.84-.57-2.8-.67,0-.52,0-1.04,0-1.56,0-.09.03-.2-.06-.28.08-.08.06-.18.06-.28,0-.29.01-.57,0-.86-.02-.28.06-.51.27-.69.18,0,.36,0,.54,0,.5.1,1.01.19,1.51.3,1.18.27,2.29.73,3.36,1.29,1.42.75,2.63,1.77,3.71,2.95,1.03,1.12,1.82,2.4,2.41,3.8.43,1,.73,2.03.88,3.11.06.43.14.86.21,1.28v2.16c-.09.23-.08.47-.11.7-.18,1.28-.49,2.53-1.02,3.71-.19.42-.44.5-.83.28-.35-.19-.67-.45-1.05-.6Z"></path><path class="cls-3" d="m4.21,20.21c-.31.05-.54.26-.8.41-.76.42-.87.39-1.2-.41-.46-1.12-.76-2.28-.92-3.48-.09-.7-.08-1.4-.1-2.1-.02-1.19.21-2.34.5-3.47.21-.85.57-1.66.97-2.43,1.82-3.51,4.62-5.86,8.38-7.05.69-.22,1.4-.36,2.11-.45.04,0,.09,0,.12-.05h.49c.25.15.33.36.33.65,0,.39-.04.79.02,1.18,0,.61,0,1.22,0,1.83-.16.02-.32.05-.48.06-.92.09-1.8.35-2.64.72-1.5.65-2.78,1.61-3.81,2.88-.69.84-1.24,1.76-1.63,2.78-.35.93-.57,1.88-.66,2.87-.08.95,0,1.89.16,2.82.14.8.45,1.55.73,2.31-.53.31-1.05.63-1.58.94Z"></path><path class="cls-5" d="m5.79,19.27c-.28-.76-.6-1.5-.73-2.31-.16-.93-.24-1.87-.16-2.82.09-.99.3-1.94.66-2.87.39-1.02.94-1.94,1.63-2.78,1.04-1.27,2.32-2.23,3.81-2.88.84-.37,1.72-.63,2.64-.72.16-.02.32-.04.47-.06.6-.07,1.21-.02,1.81,0,.96.1,1.89.36,2.8.67.41.14.79.36,1.15.6.24.16.52.26.76.41.61.38,1.11.89,1.62,1.39,1,.97,1.7,2.12,2.19,3.4.3.8.53,1.63.6,2.49.02.18.04.37.06.56,0,.3,0,.6,0,.9,0,1.01-.21,1.99-.51,2.95-.11.34-.25.67-.38,1-.4.81-.84,1.59-1.44,2.26-.85.96-1.79,1.8-2.93,2.41-1.31.7-2.68,1.1-4.16,1.22-1.71.14-3.33-.2-4.88-.9-1.26-.57-2.36-1.37-3.28-2.38-.63-.69-1.16-1.46-1.58-2.31-.04-.09-.1-.17-.15-.26Zm15.75-4.7c-.26,0-.52,0-.78,0-.27,0-.46.16-.47.38,0,.23.18.42.45.43.2,0,.4,0,.59,0q.59,0,.46.57c-.23.95-1.29,1.6-2.24,1.36-1.19-.29-2.05-1.29-1.91-2.58.07-.7.38-1.26.95-1.67.28-.2.6-.31.93-.42.26-.09.52-.04.78-.01.37.03.69.24,1.01.4.2.1.4.08.53-.12.13-.19.09-.35-.1-.51-.19-.17-.39-.32-.63-.39-1.06-.32-2.07-.27-3,.4-.86.62-1.29,1.5-1.32,2.52-.03,1.18.51,2.13,1.51,2.76.75.48,1.58.61,2.45.36,1.52-.44,2-1.88,2.01-3.07,0-.25-.16-.39-.41-.4-.27,0-.54,0-.81,0Zm-7.78,3.58c.41.02.89-.14,1.32-.46.49-.37.74-.87.67-1.48-.09-.78-.62-1.22-1.28-1.52-.52-.24-1.06-.43-1.59-.66-.38-.16-.49-.71-.24-1.03.27-.34,1.19-.51,1.58-.3.26.14.53.27.78.42.17.11.35.07.49-.08.09-.1.17-.25.08-.34-.12-.12-.21-.29-.34-.38-.43-.28-.9-.5-1.42-.52-.55-.01-1.06.06-1.53.44-.43.35-.61.8-.59,1.27.03.54.28,1.04.86,1.27.64.25,1.29.48,1.91.78.24.12.48.34.5.67.03.47-.28.89-.82,1.03-.76.19-1.41-.05-1.98-.56-.25-.23-.47-.26-.66-.07-.18.18-.15.49.09.69.6.49,1.27.81,2.17.82Zm-6.53-3.19c0,.88,0,1.76,0,2.65,0,.38.14.52.52.53.72,0,1.44,0,2.15.01.2,0,.45-.23.45-.42,0-.22-.18-.41-.43-.41-.55,0-1.1,0-1.64,0-.19,0-.25-.06-.24-.25.01-.49,0-.97,0-1.46,0-.18.06-.23.23-.23.46,0,.92,0,1.37,0,.27,0,.54-.23.53-.45,0-.22-.2-.36-.51-.36-.47,0-.93,0-1.4,0-.18,0-.23-.06-.23-.24,0-.49,0-.97,0-1.46,0-.18.05-.25.24-.25.52.01,1.04,0,1.56,0,.31,0,.5-.15.51-.4,0-.25-.19-.42-.52-.42-.69,0-1.38,0-2.07,0-.4,0-.54.13-.54.53,0,.87,0,1.75,0,2.62Z"></path><path class="cls-6" d="m15.92,4.83c-.6-.02-1.21-.07-1.81,0,0-.61,0-1.22,0-1.83.58-.08,1.17-.07,1.75,0,.09.08.06.18.06.28,0,.52,0,1.04,0,1.56Z"></path><path class="cls-6" d="m25.1,15.26c0-.3,0-.6,0-.9.07.3.07.6,0,.9Z"></path><path class="cls-4" d="m21.53,14.56c.27,0,.54,0,.81,0,.25,0,.42.15.41.4-.01,1.19-.49,2.62-2.01,3.07-.87.25-1.7.12-2.45-.36-1-.63-1.54-1.58-1.51-2.76.03-1.03.46-1.9,1.32-2.52.93-.67,1.94-.71,3-.4.24.07.44.22.63.39.19.16.22.32.1.51-.13.19-.33.21-.53.12-.33-.16-.64-.37-1.01-.4-.26-.02-.52-.08-.78.01-.32.11-.65.22-.93.42-.57.41-.88.98-.95,1.67-.14,1.29.73,2.29,1.91,2.58.94.23,2-.41,2.24-1.36q.14-.57-.46-.57c-.2,0-.4,0-.59,0-.27-.01-.46-.2-.45-.43,0-.22.2-.38.47-.38.26,0,.52,0,.78,0Z"></path><path class="cls-4" d="m13.76,18.14c-.91,0-1.58-.32-2.17-.82-.24-.2-.27-.51-.09-.69.18-.19.4-.16.66.07.57.51,1.22.75,1.98.56.53-.13.85-.55.82-1.03-.02-.33-.26-.55-.5-.67-.62-.3-1.27-.53-1.91-.78-.58-.23-.83-.73-.86-1.27-.03-.47.16-.92.59-1.27.47-.38.98-.45,1.53-.44.53.01.99.24,1.42.52.13.08.22.25.34.38.09.09.01.24-.08.34-.14.15-.31.19-.49.08-.25-.16-.52-.29-.78-.42-.39-.21-1.31-.04-1.58.3-.26.32-.14.87.24,1.03.53.23,1.07.42,1.59.66.66.3,1.19.74,1.28,1.52.07.61-.18,1.11-.67,1.48-.42.32-.9.47-1.32.46Z"></path><path class="cls-4" d="m7.23,14.96c0-.87,0-1.75,0-2.62,0-.4.13-.53.54-.53.69,0,1.38,0,2.07,0,.33,0,.52.16.52.42,0,.25-.2.4-.51.4-.52,0-1.04,0-1.56,0-.19,0-.25.06-.24.25.01.49,0,.97,0,1.46,0,.17.05.24.23.24.47,0,.93,0,1.4,0,.31,0,.5.14.51.36,0,.23-.26.45-.53.45-.46,0-.92,0-1.37,0-.18,0-.24.05-.23.23,0,.49.01.97,0,1.46,0,.19.06.25.24.25.55,0,1.1,0,1.64,0,.24,0,.43.19.43.41,0,.19-.25.42-.45.42-.72,0-1.44,0-2.15-.01-.38,0-.52-.15-.52-.53,0-.88,0-1.76,0-2.65Z"></path></svg>