<svg xmlns="http://www.w3.org/2000/svg" xmlns:xlink="http://www.w3.org/1999/xlink" width="512px" height="512px" style="shape-rendering:geometricPrecision; text-rendering:geometricPrecision; image-rendering:optimizeQuality; fill-rule:evenodd; clip-rule:evenodd"><g><path style="opacity:0.987" fill="#28ae5b" d="M 262.5,127.5 C 279.079,109.418 296.246,91.7517 314,74.5C 314.34,69.1778 311.84,67.0112 306.5,68C 289.653,85.014 272.653,101.847 255.5,118.5C 238.347,101.847 221.347,85.014 204.5,68C 199.16,67.0112 196.66,69.1778 197,74.5C 214.754,91.7517 231.921,109.418 248.5,127.5C 211.735,126.041 184.902,109.041 168,76.5C 161.554,62.493 159.221,47.8263 161,32.5C 194.705,29.1812 222.039,40.8479 243,67.5C 249.06,75.9558 253.227,85.2892 255.5,95.5C 266.362,60.1436 290.029,38.977 326.5,32C 334.413,31.1859 342.246,31.3526 350,32.5C 351.677,73.8176 333.844,103.318 296.5,121C 285.608,125.412 274.275,127.578 262.5,127.5 Z"></path></g><g><path style="opacity:0.999" fill="#257c45" d="M 262.5,127.5 C 261.883,127.611 261.383,127.944 261,128.5C 260.5,145.163 260.333,161.83 260.5,178.5C 257.167,178.5 253.833,178.5 250.5,178.5C 250.667,161.83 250.5,145.163 250,128.5C 249.617,127.944 249.117,127.611 248.5,127.5C 231.921,109.418 214.754,91.7517 197,74.5C 196.66,69.1778 199.16,67.0112 204.5,68C 221.347,85.014 238.347,101.847 255.5,118.5C 272.653,101.847 289.653,85.014 306.5,68C 311.84,67.0112 314.34,69.1778 314,74.5C 296.246,91.7517 279.079,109.418 262.5,127.5 Z"></path></g><g><path style="opacity:0.997" fill="#03b2fe" d="M 250.5,178.5 C 253.833,178.5 257.167,178.5 260.5,178.5C 273.907,178.68 286.907,180.68 299.5,184.5C 285.546,196.074 280.38,210.74 284,228.5C 286.863,235.422 289.53,242.422 292,249.5C 292.667,253.833 292.667,258.167 292,262.5C 283.204,283.721 290.37,294.221 313.5,294C 319.4,292.3 323.9,288.8 327,283.5C 329.313,273.687 334.48,265.854 342.5,260C 350.153,256.508 357.487,252.508 364.5,248C 369.129,243.219 373.129,238.052 376.5,232.5C 388.301,244.742 397.634,258.742 404.5,274.5C 396.612,287.407 386.946,298.907 375.5,309C 371.779,311.527 367.779,313.527 363.5,315C 349.975,314.62 337.975,318.62 327.5,327C 310.119,344.915 298.286,366.082 292,390.5C 287.719,406.403 284.553,422.403 282.5,438.5C 264.5,438.5 246.5,438.5 228.5,438.5C 225.54,413.46 219.374,389.127 210,365.5C 205.006,354.837 199.006,344.837 192,335.5C 180.192,321.337 165.025,314.504 146.5,315C 136.168,309.667 127.335,302.501 120,293.5C 115.481,287.108 110.981,280.775 106.5,274.5C 112.77,260.937 120.77,248.604 130.5,237.5C 133.339,249.013 138.673,259.18 146.5,268C 151.816,272.186 157.816,273.519 164.5,272C 172.236,268.899 180.236,267.066 188.5,266.5C 192.256,266.463 195.922,266.963 199.5,268C 203.11,269.944 206.443,272.277 209.5,275C 213.12,275.841 216.454,275.174 219.5,273C 228.677,264.469 232.511,253.969 231,241.5C 230.215,239.714 229.049,238.214 227.5,237C 211.241,229.806 198.075,218.972 188,204.5C 186.239,201.589 184.739,198.589 183.5,195.5C 204.33,184.395 226.664,178.728 250.5,178.5 Z"></path></g><g><path style="opacity:0.997" fill="#238425" d="M 299.5,184.5 C 330.177,192.661 355.843,208.661 376.5,232.5C 373.129,238.052 369.129,243.219 364.5,248C 357.487,252.508 350.153,256.508 342.5,260C 334.48,265.854 329.313,273.687 327,283.5C 323.9,288.8 319.4,292.3 313.5,294C 290.37,294.221 283.204,283.721 292,262.5C 292.667,258.167 292.667,253.833 292,249.5C 289.53,242.422 286.863,235.422 284,228.5C 280.38,210.74 285.546,196.074 299.5,184.5 Z"></path></g><g><path style="opacity:0.996" fill="#238425" d="M 183.5,195.5 C 184.739,198.589 186.239,201.589 188,204.5C 198.075,218.972 211.241,229.806 227.5,237C 229.049,238.214 230.215,239.714 231,241.5C 232.511,253.969 228.677,264.469 219.5,273C 216.454,275.174 213.12,275.841 209.5,275C 206.443,272.277 203.11,269.944 199.5,268C 195.922,266.963 192.256,266.463 188.5,266.5C 180.236,267.066 172.236,268.899 164.5,272C 157.816,273.519 151.816,272.186 146.5,268C 138.673,259.18 133.339,249.013 130.5,237.5C 144.641,219.023 162.307,205.023 183.5,195.5 Z"></path></g><g><path style="opacity:0.994" fill="#febb68" d="M 77.5,274.5 C 75.4212,278.328 73.5879,282.328 72,286.5C 71.392,293.687 73.0586,300.353 77,306.5C 91.9894,330.825 111.156,351.325 134.5,368C 140.914,370.593 143.414,368.426 142,361.5C 125.309,349.32 110.309,335.32 97,319.5C 91.4994,311.836 86.4994,303.836 82,295.5C 81.5017,292.183 81.335,288.85 81.5,285.5C 86.5489,274.696 94.8822,271.03 106.5,274.5C 110.981,280.775 115.481,287.108 120,293.5C 127.335,302.501 136.168,309.667 146.5,315C 165.025,314.504 180.192,321.337 192,335.5C 199.006,344.837 205.006,354.837 210,365.5C 219.374,389.127 225.54,413.46 228.5,438.5C 229.407,452.141 229.74,465.808 229.5,479.5C 203.167,479.5 176.833,479.5 150.5,479.5C 164.231,436.453 148.898,411.953 104.5,406C 91.4704,400.305 81.6371,391.138 75,378.5C 69.2335,368.302 64.5668,357.635 61,346.5C 50.5521,309.042 40.8855,271.375 32,233.5C 29.8333,217 37,209.833 53.5,212C 58.9891,214.468 62.4891,218.635 64,224.5C 68.8119,241.099 73.3119,257.766 77.5,274.5 Z"></path></g><g><path style="opacity:0.993" fill="#febb68" d="M 282.5,438.5 C 284.553,422.403 287.719,406.403 292,390.5C 298.286,366.082 310.119,344.915 327.5,327C 337.975,318.62 349.975,314.62 363.5,315C 367.779,313.527 371.779,311.527 375.5,309C 386.946,298.907 396.612,287.407 404.5,274.5C 416.118,271.03 424.451,274.696 429.5,285.5C 429.665,288.85 429.498,292.183 429,295.5C 419.851,312.991 408.018,328.491 393.5,342C 385.621,348.88 377.455,355.38 369,361.5C 367.586,368.426 370.086,370.593 376.5,368C 399.844,351.325 419.011,330.825 434,306.5C 438.94,299.38 440.273,291.714 438,283.5C 437.009,280.36 435.176,278.026 432.5,276.5C 437.329,259.185 442.163,241.852 447,224.5C 451.918,211.465 460.751,207.965 473.5,214C 479.167,219.319 481.001,225.819 479,233.5C 470.115,271.375 460.448,309.042 450,346.5C 444.141,366.065 434.307,383.232 420.5,398C 416.328,401.499 411.662,404.166 406.5,406C 362.097,411.957 346.764,436.457 360.5,479.5C 334.167,479.5 307.833,479.5 281.5,479.5C 281.26,465.808 281.593,452.141 282.5,438.5 Z"></path></g><g><path style="opacity:1" fill="#f09444" d="M 77.5,274.5 C 78.8333,278.167 80.1667,281.833 81.5,285.5C 81.335,288.85 81.5017,292.183 82,295.5C 86.4994,303.836 91.4994,311.836 97,319.5C 110.309,335.32 125.309,349.32 142,361.5C 143.414,368.426 140.914,370.593 134.5,368C 111.156,351.325 91.9894,330.825 77,306.5C 73.0586,300.353 71.392,293.687 72,286.5C 73.5879,282.328 75.4212,278.328 77.5,274.5 Z"></path></g><g><path style="opacity:1" fill="#f09444" d="M 432.5,276.5 C 435.176,278.026 437.009,280.36 438,283.5C 440.273,291.714 438.94,299.38 434,306.5C 419.011,330.825 399.844,351.325 376.5,368C 370.086,370.593 367.586,368.426 369,361.5C 377.455,355.38 385.621,348.88 393.5,342C 408.018,328.491 419.851,312.991 429,295.5C 429.498,292.183 429.665,288.85 429.5,285.5C 430.669,282.659 431.669,279.659 432.5,276.5 Z"></path></g></svg>