<svg xmlns="http://www.w3.org/2000/svg" xmlns:xlink="http://www.w3.org/1999/xlink" width="512px" height="512px" style="shape-rendering:geometricPrecision; text-rendering:geometricPrecision; image-rendering:optimizeQuality; fill-rule:evenodd; clip-rule:evenodd"><g><path style="opacity:0.993" fill="#fc8087" d="M 221.5,-0.5 C 225.833,-0.5 230.167,-0.5 234.5,-0.5C 235.458,0.961599 236.624,2.29493 238,3.5C 238.5,13.1609 238.666,22.8276 238.5,32.5C 238.5,43.8333 238.5,55.1667 238.5,66.5C 238.5,66.8333 238.5,67.1667 238.5,67.5C 174.03,74.7992 125.196,106.133 92,161.5C 62.1729,217.655 59.6729,274.988 84.5,333.5C 74.8333,339.5 65.1667,345.5 55.5,351.5C 48.3565,355.908 41.0232,360.074 33.5,364C 29.1712,365.151 25.3379,364.318 22,361.5C 9.86682,334.622 2.36682,306.622 -0.5,277.5C -0.5,262.5 -0.5,247.5 -0.5,232.5C 9.97471,144.251 52.9747,77.0845 128.5,31C 157.689,14.771 188.689,4.27101 221.5,-0.5 Z"></path></g><g><path style="opacity:1" fill="#ffd15b" d="M 276.5,-0.5 C 280.833,-0.5 285.167,-0.5 289.5,-0.5C 380.435,14.6969 446.601,63.3635 488,145.5C 500.466,173.376 508.299,202.376 511.5,232.5C 511.5,247.5 511.5,262.5 511.5,277.5C 508.399,306.562 500.899,334.562 489,361.5C 485.662,364.318 481.829,365.151 477.5,364C 473.44,362.311 469.773,360.144 466.5,357.5C 490.458,299.443 493.958,240.11 477,179.5C 448.567,95.4006 392.4,38.9006 308.5,10C 297.405,6.97724 286.405,4.14391 275.5,1.5C 275.833,0.833333 276.167,0.166667 276.5,-0.5 Z"></path></g><g><path style="opacity:1" fill="#fee077" d="M 275.5,1.5 C 286.405,4.14391 297.405,6.97724 308.5,10C 392.4,38.9006 448.567,95.4006 477,179.5C 493.958,240.11 490.458,299.443 466.5,357.5C 462.7,355.766 459.034,353.766 455.5,351.5C 445.833,345.5 436.167,339.5 426.5,333.5C 456.437,259.891 446.604,192.224 397,130.5C 363.608,93.7203 322.108,72.7203 272.5,67.5C 272.5,55.8333 272.5,44.1667 272.5,32.5C 272.334,22.8276 272.5,13.1609 273,3.5C 273.708,2.61947 274.542,1.9528 275.5,1.5 Z"></path></g><g><path style="opacity:0.996" fill="#675d67" d="M 272.5,32.5 C 272.5,44.1667 272.5,55.8333 272.5,67.5C 261.205,66.5658 249.871,66.2325 238.5,66.5C 238.5,55.1667 238.5,43.8333 238.5,32.5C 249.833,31.1667 261.167,31.1667 272.5,32.5 Z"></path></g><g><path style="opacity:1" fill="#06d0fa" d="M 238.5,67.5 C 307.072,71.3029 359.239,102.303 395,160.5C 420.956,207.817 426.623,257.484 412,309.5C 388.51,377.99 341.677,421.156 271.5,439C 264.865,440.217 258.199,441.217 251.5,442C 256.823,442.499 262.156,442.666 267.5,442.5C 198.522,444.676 143.189,418.343 101.5,363.5C 95.3096,353.785 89.643,343.785 84.5,333.5C 59.6729,274.988 62.1729,217.655 92,161.5C 125.196,106.133 174.03,74.7992 238.5,67.5 Z"></path></g><g><path style="opacity:1" fill="#0bc0f8" d="M 238.5,67.5 C 238.5,67.1667 238.5,66.8333 238.5,66.5C 249.871,66.2325 261.205,66.5658 272.5,67.5C 322.108,72.7203 363.608,93.7203 397,130.5C 446.604,192.224 456.437,259.891 426.5,333.5C 421.343,343.817 415.676,353.817 409.5,363.5C 374.243,410.998 326.909,437.332 267.5,442.5C 262.156,442.666 256.823,442.499 251.5,442C 258.199,441.217 264.865,440.217 271.5,439C 341.677,421.156 388.51,377.99 412,309.5C 426.623,257.484 420.956,207.817 395,160.5C 359.239,102.303 307.072,71.3029 238.5,67.5 Z"></path></g><g><path style="opacity:1" fill="#fef2de" d="M 127.5,262.5 C 126.505,274.322 126.172,286.322 126.5,298.5C 138.833,298.5 151.167,298.5 163.5,298.5C 169.515,300.681 171.015,304.681 168,310.5C 166.829,311.893 165.329,312.727 163.5,313C 147.833,313.667 132.167,313.667 116.5,313C 114.333,312.167 112.833,310.667 112,308.5C 111.013,272.082 111.347,235.749 113,199.5C 113.903,198.299 115.069,197.465 116.5,197C 132.5,196.333 148.5,196.333 164.5,197C 171.167,201.667 171.167,206.333 164.5,211C 151.838,211.5 139.171,211.667 126.5,211.5C 126.5,223.5 126.5,235.5 126.5,247.5C 138.171,247.333 149.838,247.5 161.5,248C 166.998,251.167 167.832,255.334 164,260.5C 162.933,261.191 161.766,261.691 160.5,262C 149.505,262.5 138.505,262.667 127.5,262.5 Z"></path></g><g><path style="opacity:1" fill="#fdf2de" d="M 219.5,196.5 C 235.243,194.52 249.577,198.02 262.5,207C 266.533,210.168 267.367,214.001 265,218.5C 263.406,220.297 261.406,221.297 259,221.5C 252.28,217.479 245.114,214.312 237.5,212C 229.8,210.666 222.467,211.666 215.5,215C 208.001,222.114 207.668,229.447 214.5,237C 227.915,242.472 241.248,248.138 254.5,254C 271.22,266.481 274.053,281.648 263,299.5C 251.691,311.38 237.858,315.88 221.5,313C 209.009,310.673 198.509,304.839 190,295.5C 186.778,289.091 188.611,285.091 195.5,283.5C 200.453,285.268 204.786,288.101 208.5,292C 221.74,300.14 235.074,300.474 248.5,293C 257.087,283.619 256.421,274.952 246.5,267C 233.248,261.138 219.915,255.472 206.5,250C 196.174,242.034 192.34,231.534 195,218.5C 199.605,207.127 207.772,199.794 219.5,196.5 Z"></path></g><g><path style="opacity:1" fill="#fdf2de" d="M 335.5,196.5 C 351.14,194.528 365.807,197.362 379.5,205C 383.982,208.705 384.649,213.038 381.5,218C 379.801,218.958 377.967,219.458 376,219.5C 369.95,216.897 363.783,214.397 357.5,212C 337.113,208.617 321.279,215.451 310,232.5C 299.491,254.564 303.324,273.731 321.5,290C 339.738,302.098 357.238,301.265 374,287.5C 379.625,280.129 382.792,271.795 383.5,262.5C 375.16,262.666 366.827,262.5 358.5,262C 352.448,257.777 352.115,253.111 357.5,248C 370.167,247.333 382.833,247.333 395.5,248C 397.049,249.214 398.215,250.714 399,252.5C 400.352,272.456 393.852,289.289 379.5,303C 357.556,316.994 335.556,316.994 313.5,303C 290.242,283.477 283.742,259.311 294,230.5C 302.796,212.873 316.629,201.539 335.5,196.5 Z"></path></g><g><path style="opacity:1" fill="#79e0ed" d="M 127.5,262.5 C 127.5,274.167 127.5,285.833 127.5,297.5C 139.678,297.172 151.678,297.505 163.5,298.5C 151.167,298.5 138.833,298.5 126.5,298.5C 126.172,286.322 126.505,274.322 127.5,262.5 Z"></path></g><g><path style="opacity:0.993" fill="#685e68" d="M 84.5,333.5 C 89.643,343.785 95.3096,353.785 101.5,363.5C 91.4829,369.195 81.4829,374.861 71.5,380.5C 65.3931,371.288 60.0598,361.622 55.5,351.5C 65.1667,345.5 74.8333,339.5 84.5,333.5 Z"></path></g><g><path style="opacity:0.99" fill="#685e68" d="M 426.5,333.5 C 436.167,339.5 445.833,345.5 455.5,351.5C 450.94,361.622 445.607,371.288 439.5,380.5C 429.5,374.833 419.5,369.167 409.5,363.5C 415.676,353.817 421.343,343.817 426.5,333.5 Z"></path></g><g><path style="opacity:0.998" fill="#6ed6a3" d="M 101.5,363.5 C 143.189,418.343 198.522,444.676 267.5,442.5C 326.909,437.332 374.243,410.998 409.5,363.5C 419.5,369.167 429.5,374.833 439.5,380.5C 446.688,384.839 454.021,389.006 461.5,393C 464.318,396.338 465.151,400.171 464,404.5C 417.926,467.131 356.093,502.798 278.5,511.5C 263.167,511.5 247.833,511.5 232.5,511.5C 154.905,502.797 93.0713,467.13 47,404.5C 45.8485,400.171 46.6819,396.338 49.5,393C 56.9789,389.006 64.3122,384.839 71.5,380.5C 81.4829,374.861 91.4829,369.195 101.5,363.5 Z"></path></g></svg>