<svg xmlns="http://www.w3.org/2000/svg" xmlns:xlink="http://www.w3.org/1999/xlink" width="512px" height="512px" style="shape-rendering:geometricPrecision; text-rendering:geometricPrecision; image-rendering:optimizeQuality; fill-rule:evenodd; clip-rule:evenodd"><g><path style="opacity:0.977" fill="#020202" d="M 221.5,-0.5 C 226.5,-0.5 231.5,-0.5 236.5,-0.5C 240.811,1.6467 243.978,4.98004 246,9.5C 246.5,16.8258 246.666,24.1591 246.5,31.5C 252.5,30.1667 258.5,30.1667 264.5,31.5C 264.334,24.1591 264.5,16.8258 265,9.5C 267.022,4.98004 270.189,1.6467 274.5,-0.5C 279.5,-0.5 284.5,-0.5 289.5,-0.5C 389.933,16.9567 459.099,72.9567 497,167.5C 504.218,188.774 509.052,210.441 511.5,232.5C 511.5,247.5 511.5,262.5 511.5,277.5C 508.54,307.89 500.373,336.89 487,364.5C 482.535,368.433 477.368,369.933 471.5,369C 465.057,366.613 459.057,363.446 453.5,359.5C 450.876,364.585 447.876,369.418 444.5,374C 450.582,377.123 456.415,380.623 462,384.5C 467.406,391.604 467.74,398.937 463,406.5C 416.371,468.072 354.537,503.072 277.5,511.5C 262.833,511.5 248.167,511.5 233.5,511.5C 191.799,507.433 153.132,494.266 117.5,472C 114.9,469.016 113.9,465.516 114.5,461.5C 117.251,458.563 120.585,457.396 124.5,458C 194.683,501.147 268.35,508.147 345.5,479C 387.909,461.546 422.742,434.379 450,397.5C 450.617,396.551 450.451,395.718 449.5,395C 435.323,386.817 421.157,378.65 407,370.5C 353.05,433.927 285.217,456.427 203.5,438C 176.847,429.677 152.847,416.677 131.5,399C 121.902,389.738 112.735,380.238 104,370.5C 89.2323,378.797 74.7323,387.464 60.5,396.5C 70.6939,411.532 82.8606,424.865 97,436.5C 100.076,440.331 100.243,444.331 97.5,448.5C 93.4082,451.316 89.4082,451.149 85.5,448C 70.0931,434.606 56.9265,419.439 46,402.5C 43.7933,395.987 44.7933,389.987 49,384.5C 54.5847,380.623 60.4181,377.123 66.5,374C 63.1242,369.418 60.1242,364.585 57.5,359.5C 51.0256,364.321 43.8589,367.654 36,369.5C 29.9377,369.139 25.2711,366.473 22,361.5C 9.86682,334.622 2.36682,306.622 -0.5,277.5C -0.5,262.5 -0.5,247.5 -0.5,232.5C 11.6362,134.352 61.9695,63.519 150.5,20C 173.367,9.98372 197.034,3.15038 221.5,-0.5 Z"></path></g><g><path style="opacity:1" fill="#fb7f86" d="M 162.5,97.5 C 156.663,100.918 150.996,104.584 145.5,108.5C 142.02,106.033 138.353,105.866 134.5,108C 76.7713,159.52 55.6046,223.353 71,299.5C 74.0391,309.276 77.0391,318.943 80,328.5C 65.5816,336.96 51.0816,345.293 36.5,353.5C 33.8388,349.511 31.6722,345.178 30,340.5C 1.27131,257.351 12.2713,180.018 63,108.5C 105.958,53.9277 162.125,22.5944 231.5,14.5C 231.5,31.8333 231.5,49.1667 231.5,66.5C 207.737,69.143 185.404,76.3096 164.5,88C 161.586,90.739 160.919,93.9057 162.5,97.5 Z"></path></g><g><path style="opacity:1" fill="#fde076" d="M 331.5,25.5 C 409.245,62.4486 457.745,123.115 477,207.5C 485.708,255.471 481.208,302.138 463.5,347.5C 452.326,341.081 441.326,334.415 430.5,327.5C 454.517,264.825 448.683,205.158 413,148.5C 380.363,102.246 335.863,74.913 279.5,66.5C 279.5,49.1667 279.5,31.8333 279.5,14.5C 297.247,16.2707 314.581,19.9373 331.5,25.5 Z"></path></g><g><path style="opacity:1" fill="#fbcd59" d="M 331.5,25.5 C 409.901,53.4022 461.734,107.069 487,186.5C 502.251,242.316 498.918,296.983 477,350.5C 476.632,351.91 475.799,352.91 474.5,353.5C 470.646,351.742 466.979,349.742 463.5,347.5C 481.208,302.138 485.708,255.471 477,207.5C 457.745,123.115 409.245,62.4486 331.5,25.5 Z"></path></g><g><path style="opacity:1" fill="#675d67" d="M 246.5,46.5 C 252.5,46.5 258.5,46.5 264.5,46.5C 264.5,52.5 264.5,58.5 264.5,64.5C 258.5,64.5 252.5,64.5 246.5,64.5C 246.5,58.5 246.5,52.5 246.5,46.5 Z"></path></g><g><path style="opacity:1" fill="#01cff9" d="M 310.5,88.5 C 384.187,128.528 418.687,190.862 414,275.5C 404.029,342.256 369.196,390.922 309.5,421.5C 233.916,442.357 170.416,423.357 119,364.5C 81.1654,313.83 71.4987,258.163 90,197.5C 102.008,165.506 121.008,138.506 147,116.5C 147.718,113.593 147.218,110.926 145.5,108.5C 150.996,104.584 156.663,100.918 162.5,97.5C 163.783,99.8147 165.783,101.148 168.5,101.5C 180.215,95.9834 192.215,91.1501 204.5,87C 239.963,76.7265 275.297,77.2265 310.5,88.5 Z"></path></g><g><path style="opacity:1" fill="#01bdf6" d="M 310.5,88.5 C 356.653,104.818 390.82,134.818 413,178.5C 435.258,226.712 436.258,275.378 416,324.5C 394.285,372.052 358.785,404.385 309.5,421.5C 369.196,390.922 404.029,342.256 414,275.5C 418.687,190.862 384.187,128.528 310.5,88.5 Z"></path></g><g><path style="opacity:1" fill="#010405" d="M 222.5,197.5 C 238.318,196.283 252.318,200.616 264.5,210.5C 267.879,217.076 265.879,221.076 258.5,222.5C 251.809,218.824 244.809,215.658 237.5,213C 229.591,211.5 222.258,212.833 215.5,217C 208.843,223.708 208.843,230.375 215.5,237C 228.5,242.667 241.5,248.333 254.5,254C 271.583,266.708 274.083,281.875 262,299.5C 246.724,313.074 229.558,315.907 210.5,308C 203.019,304.507 196.519,299.674 191,293.5C 190.061,284.434 193.894,281.268 202.5,284C 216.513,298.542 232.179,300.876 249.5,291C 256.452,282.972 256.119,275.305 248.5,268C 234.981,261.742 221.314,255.742 207.5,250C 194.775,239.504 192.275,227.004 200,212.5C 205.626,204.609 213.126,199.609 222.5,197.5 Z"></path></g><g><path style="opacity:1" fill="#000202" d="M 119.5,198.5 C 135.837,198.333 152.17,198.5 168.5,199C 172.5,203.333 172.5,207.667 168.5,212C 155.838,212.5 143.171,212.667 130.5,212.5C 130.5,224.167 130.5,235.833 130.5,247.5C 141.838,247.333 153.172,247.5 164.5,248C 168.212,250.513 169.378,254.013 168,258.5C 166.786,260.049 165.286,261.215 163.5,262C 152.505,262.5 141.505,262.667 130.5,262.5C 130.5,273.833 130.5,285.167 130.5,296.5C 142.505,296.333 154.505,296.5 166.5,297C 171.689,299.913 172.856,304.08 170,309.5C 169.25,310.126 168.416,310.626 167.5,311C 151.5,311.667 135.5,311.667 119.5,311C 117.951,309.786 116.785,308.286 116,306.5C 115.333,271.833 115.333,237.167 116,202.5C 117.376,201.295 118.542,199.962 119.5,198.5 Z"></path></g><g><path style="opacity:1" fill="#010405" d="M 337.5,197.5 C 348.567,197.067 359.234,198.9 369.5,203C 373.44,204.886 376.94,207.386 380,210.5C 381.101,216.311 378.768,219.644 373,220.5C 366.012,217.594 358.845,215.094 351.5,213C 325.631,211.523 309.464,223.356 303,248.5C 302.025,274.054 313.859,290.22 338.5,297C 362.967,298.368 376.634,286.868 379.5,262.5C 371.493,262.666 363.493,262.5 355.5,262C 348.833,257.333 348.833,252.667 355.5,248C 367.167,247.333 378.833,247.333 390.5,248C 392.667,248.833 394.167,250.333 395,252.5C 396.117,272.086 389.617,288.586 375.5,302C 353.125,316.452 331.125,315.786 309.5,300C 284.562,276.316 281.062,249.816 299,220.5C 309.02,207.951 321.854,200.284 337.5,197.5 Z"></path></g><g><path style="opacity:1" fill="#655b65" d="M 85.5,342.5 C 89.5305,346.852 92.8638,351.852 95.5,357.5C 90.6657,360.752 85.6657,363.752 80.5,366.5C 77.1023,361.762 74.1023,356.762 71.5,351.5C 76.1843,348.474 80.8509,345.474 85.5,342.5 Z"></path></g><g><path style="opacity:1" fill="#655b65" d="M 423.5,342.5 C 429.306,344.635 434.639,347.635 439.5,351.5C 436.898,356.762 433.898,361.762 430.5,366.5C 425.334,363.752 420.334,360.752 415.5,357.5C 418.434,352.632 421.1,347.632 423.5,342.5 Z"></path></g><g><path style="opacity:1" fill="#6ed5a1" d="M 114.5,461.5 C 109.142,456.814 103.475,452.481 97.5,448.5C 100.243,444.331 100.076,440.331 97,436.5C 82.8606,424.865 70.6939,411.532 60.5,396.5C 74.7323,387.464 89.2323,378.797 104,370.5C 112.735,380.238 121.902,389.738 131.5,399C 152.847,416.677 176.847,429.677 203.5,438C 285.217,456.427 353.05,433.927 407,370.5C 421.157,378.65 435.323,386.817 449.5,395C 450.451,395.718 450.617,396.551 450,397.5C 422.742,434.379 387.909,461.546 345.5,479C 268.35,508.147 194.683,501.147 124.5,458C 120.585,457.396 117.251,458.563 114.5,461.5 Z"></path></g></svg>