<svg xmlns="http://www.w3.org/2000/svg" xmlns:xlink="http://www.w3.org/1999/xlink" version="1.1" width="256" height="256" viewBox="0 0 256 256" xml:space="preserve">

<defs>
</defs>
<g style="stroke: none; stroke-width: 0; stroke-dasharray: none; stroke-linecap: butt; stroke-linejoin: miter; stroke-miterlimit: 10; fill: none; fill-rule: nonzero; opacity: 1;" transform="translate(1.4065934065934016 1.4065934065934016) scale(2.81 2.81)" >
	<path d="M 36.962 88.228 c -0.525 0 -1.051 -0.138 -1.52 -0.413 c -0.917 -0.539 -1.48 -1.523 -1.48 -2.587 V 47.806 c 0 -2.227 -0.812 -4.373 -2.287 -6.042 L 0.751 6.758 c -0.781 -0.884 -0.971 -2.144 -0.486 -3.22 C 0.75 2.463 1.82 1.772 3 1.772 h 16.394 c 1.657 0 3 1.343 3 3 s -1.343 3 -3 3 h -9.74 l 26.52 30.019 c 2.444 2.767 3.79 6.324 3.79 10.015 V 80.12 l 10.076 -5.618 V 47.806 c 0 -3.692 1.346 -7.248 3.79 -10.015 L 80.347 7.772 H 34.021 c -1.657 0 -3 -1.343 -3 -3 s 1.343 -3 3 -3 H 87 c 1.18 0 2.25 0.691 2.734 1.767 c 0.485 1.076 0.295 2.335 -0.486 3.22 L 58.324 41.764 c -1.475 1.669 -2.286 3.814 -2.286 6.042 v 28.458 c 0 1.088 -0.589 2.091 -1.539 2.62 l -16.076 8.964 C 37.969 88.102 37.465 88.228 36.962 88.228 z" style="stroke: none; stroke-width: 1; stroke-dasharray: none; stroke-linecap: butt; stroke-linejoin: miter; stroke-miterlimit: 10; fill: rgb(0,0,0); fill-rule: nonzero; opacity: 1;" transform=" matrix(1 0 0 1 0 0) " stroke-linecap="round" />
	<path d="M 71.054 25.823 H 18.947 c -1.657 0 -3 -1.343 -3 -3 s 1.343 -3 3 -3 h 52.107 c 1.657 0 3 1.343 3 3 S 72.711 25.823 71.054 25.823 z" style="stroke: none; stroke-width: 1; stroke-dasharray: none; stroke-linecap: butt; stroke-linejoin: miter; stroke-miterlimit: 10; fill: rgb(0,0,0); fill-rule: nonzero; opacity: 1;" transform=" matrix(1 0 0 1 0 0) " stroke-linecap="round" />
	<path d="M 62.535 35.466 h -35.07 c -1.657 0 -3 -1.343 -3 -3 s 1.343 -3 3 -3 h 35.07 c 1.657 0 3 1.343 3 3 S 64.192 35.466 62.535 35.466 z" style="stroke: none; stroke-width: 1; stroke-dasharray: none; stroke-linecap: butt; stroke-linejoin: miter; stroke-miterlimit: 10; fill: rgb(0,0,0); fill-rule: nonzero; opacity: 1;" transform=" matrix(1 0 0 1 0 0) " stroke-linecap="round" />
</g>
</svg>