<svg width="426" height="37" viewBox="0 0 426 37" fill="none" xmlns="http://www.w3.org/2000/svg">
<path d="M60.54 29.18C58.96 29.18 57.5 28.92 56.16 28.4C54.82 27.86 53.66 27.11 52.68 26.15C51.7 25.19 50.93 24.06 50.37 22.76C49.83 21.46 49.56 20.04 49.56 18.5C49.56 16.96 49.83 15.54 50.37 14.24C50.93 12.94 51.7 11.81 52.68 10.85C53.68 9.89 54.85 9.15 56.19 8.63C57.53 8.09 58.99 7.82 60.57 7.82C62.09 7.82 63.52 8.08 64.86 8.6C66.2 9.1 67.33 9.86 68.25 10.88L66.84 12.29C65.98 11.41 65.03 10.78 63.99 10.4C62.95 10 61.83 9.8 60.63 9.8C59.37 9.8 58.2 10.02 57.12 10.46C56.04 10.88 55.1 11.49 54.3 12.29C53.5 13.07 52.87 13.99 52.41 15.05C51.97 16.09 51.75 17.24 51.75 18.5C51.75 19.76 51.97 20.92 52.41 21.98C52.87 23.02 53.5 23.94 54.3 24.74C55.1 25.52 56.04 26.13 57.12 26.57C58.2 26.99 59.37 27.2 60.63 27.2C61.83 27.2 62.95 27 63.99 26.6C65.03 26.2 65.98 25.56 66.84 24.68L68.25 26.09C67.33 27.11 66.2 27.88 64.86 28.4C63.52 28.92 62.08 29.18 60.54 29.18ZM72.5325 29V13.25H74.5725V17.54L74.3625 16.79C74.8025 15.59 75.5425 14.68 76.5825 14.06C77.6225 13.42 78.9125 13.1 80.4525 13.1V15.17C80.3725 15.17 80.2925 15.17 80.2125 15.17C80.1325 15.15 80.0525 15.14 79.9725 15.14C78.3125 15.14 77.0125 15.65 76.0725 16.67C75.1325 17.67 74.6625 19.1 74.6625 20.96V29H72.5325ZM90.8827 29.15C89.2427 29.15 87.8027 28.81 86.5627 28.13C85.3227 27.43 84.3527 26.48 83.6527 25.28C82.9527 24.06 82.6027 22.67 82.6027 21.11C82.6027 19.55 82.9327 18.17 83.5927 16.97C84.2727 15.77 85.1927 14.83 86.3527 14.15C87.5327 13.45 88.8527 13.1 90.3127 13.1C91.7927 13.1 93.1027 13.44 94.2427 14.12C95.4027 14.78 96.3127 15.72 96.9727 16.94C97.6327 18.14 97.9627 19.53 97.9627 21.11C97.9627 21.21 97.9527 21.32 97.9327 21.44C97.9327 21.54 97.9327 21.65 97.9327 21.77H84.2227V20.18H96.7927L95.9527 20.81C95.9527 19.67 95.7027 18.66 95.2027 17.78C94.7227 16.88 94.0627 16.18 93.2227 15.68C92.3827 15.18 91.4127 14.93 90.3127 14.93C89.2327 14.93 88.2627 15.18 87.4027 15.68C86.5427 16.18 85.8727 16.88 85.3927 17.78C84.9127 18.68 84.6727 19.71 84.6727 20.87V21.2C84.6727 22.4 84.9327 23.46 85.4527 24.38C85.9927 25.28 86.7327 25.99 87.6727 26.51C88.6327 27.01 89.7227 27.26 90.9427 27.26C91.9027 27.26 92.7927 27.09 93.6127 26.75C94.4527 26.41 95.1727 25.89 95.7727 25.19L96.9727 26.57C96.2727 27.41 95.3927 28.05 94.3327 28.49C93.2927 28.93 92.1427 29.15 90.8827 29.15ZM111.729 29V25.52L111.639 24.95V19.13C111.639 17.79 111.259 16.76 110.499 16.04C109.759 15.32 108.649 14.96 107.169 14.96C106.149 14.96 105.179 15.13 104.259 15.47C103.339 15.81 102.559 16.26 101.919 16.82L100.959 15.23C101.759 14.55 102.719 14.03 103.839 13.67C104.959 13.29 106.139 13.1 107.379 13.1C109.419 13.1 110.989 13.61 112.089 14.63C113.209 15.63 113.769 17.16 113.769 19.22V29H111.729ZM106.299 29.15C105.119 29.15 104.089 28.96 103.209 28.58C102.349 28.18 101.689 27.64 101.229 26.96C100.769 26.26 100.539 25.46 100.539 24.56C100.539 23.74 100.729 23 101.109 22.34C101.509 21.66 102.149 21.12 103.029 20.72C103.929 20.3 105.129 20.09 106.629 20.09H112.059V21.68H106.689C105.169 21.68 104.109 21.95 103.509 22.49C102.929 23.03 102.639 23.7 102.639 24.5C102.639 25.4 102.989 26.12 103.689 26.66C104.389 27.2 105.369 27.47 106.629 27.47C107.829 27.47 108.859 27.2 109.719 26.66C110.599 26.1 111.239 25.3 111.639 24.26L112.119 25.73C111.719 26.77 111.019 27.6 110.019 28.22C109.039 28.84 107.799 29.15 106.299 29.15ZM124.534 29.15C123.054 29.15 121.914 28.75 121.114 27.95C120.314 27.15 119.914 26.02 119.914 24.56V9.77H122.044V24.44C122.044 25.36 122.274 26.07 122.734 26.57C123.214 27.07 123.894 27.32 124.774 27.32C125.714 27.32 126.494 27.05 127.114 26.51L127.864 28.04C127.444 28.42 126.934 28.7 126.334 28.88C125.754 29.06 125.154 29.15 124.534 29.15ZM117.094 15.02V13.25H126.844V15.02H117.094ZM137.875 29.15C136.235 29.15 134.795 28.81 133.555 28.13C132.315 27.43 131.345 26.48 130.645 25.28C129.945 24.06 129.595 22.67 129.595 21.11C129.595 19.55 129.925 18.17 130.585 16.97C131.265 15.77 132.185 14.83 133.345 14.15C134.525 13.45 135.845 13.1 137.305 13.1C138.785 13.1 140.095 13.44 141.235 14.12C142.395 14.78 143.305 15.72 143.965 16.94C144.625 18.14 144.955 19.53 144.955 21.11C144.955 21.21 144.945 21.32 144.925 21.44C144.925 21.54 144.925 21.65 144.925 21.77H131.215V20.18H143.785L142.945 20.81C142.945 19.67 142.695 18.66 142.195 17.78C141.715 16.88 141.055 16.18 140.215 15.68C139.375 15.18 138.405 14.93 137.305 14.93C136.225 14.93 135.255 15.18 134.395 15.68C133.535 16.18 132.865 16.88 132.385 17.78C131.905 18.68 131.665 19.71 131.665 20.87V21.2C131.665 22.4 131.925 23.46 132.445 24.38C132.985 25.28 133.725 25.99 134.665 26.51C135.625 27.01 136.715 27.26 137.935 27.26C138.895 27.26 139.785 27.09 140.605 26.75C141.445 26.41 142.165 25.89 142.765 25.19L143.965 26.57C143.265 27.41 142.385 28.05 141.325 28.49C140.285 28.93 139.135 29.15 137.875 29.15ZM163.682 29.15C162.122 29.15 160.722 28.81 159.482 28.13C158.262 27.43 157.302 26.48 156.602 25.28C155.902 24.06 155.552 22.67 155.552 21.11C155.552 19.53 155.902 18.14 156.602 16.94C157.302 15.74 158.262 14.8 159.482 14.12C160.722 13.44 162.122 13.1 163.682 13.1C165.022 13.1 166.232 13.36 167.312 13.88C168.392 14.4 169.242 15.18 169.862 16.22L168.272 17.3C167.732 16.5 167.062 15.91 166.262 15.53C165.462 15.15 164.592 14.96 163.652 14.96C162.532 14.96 161.522 15.22 160.622 15.74C159.722 16.24 159.012 16.95 158.492 17.87C157.972 18.79 157.712 19.87 157.712 21.11C157.712 22.35 157.972 23.43 158.492 24.35C159.012 25.27 159.722 25.99 160.622 26.51C161.522 27.01 162.532 27.26 163.652 27.26C164.592 27.26 165.462 27.07 166.262 26.69C167.062 26.31 167.732 25.73 168.272 24.95L169.862 26.03C169.242 27.05 168.392 27.83 167.312 28.37C166.232 28.89 165.022 29.15 163.682 29.15ZM180.203 29.15C178.683 29.15 177.313 28.81 176.093 28.13C174.893 27.43 173.943 26.48 173.243 25.28C172.543 24.06 172.193 22.67 172.193 21.11C172.193 19.53 172.543 18.14 173.243 16.94C173.943 15.74 174.893 14.8 176.093 14.12C177.293 13.44 178.663 13.1 180.203 13.1C181.763 13.1 183.143 13.44 184.343 14.12C185.563 14.8 186.513 15.74 187.193 16.94C187.893 18.14 188.243 19.53 188.243 21.11C188.243 22.67 187.893 24.06 187.193 25.28C186.513 26.48 185.563 27.43 184.343 28.13C183.123 28.81 181.743 29.15 180.203 29.15ZM180.203 27.26C181.343 27.26 182.353 27.01 183.233 26.51C184.113 25.99 184.803 25.27 185.303 24.35C185.823 23.41 186.083 22.33 186.083 21.11C186.083 19.87 185.823 18.79 185.303 17.87C184.803 16.95 184.113 16.24 183.233 15.74C182.353 15.22 181.353 14.96 180.233 14.96C179.113 14.96 178.113 15.22 177.233 15.74C176.353 16.24 175.653 16.95 175.133 17.87C174.613 18.79 174.353 19.87 174.353 21.11C174.353 22.33 174.613 23.41 175.133 24.35C175.653 25.27 176.353 25.99 177.233 26.51C178.113 27.01 179.103 27.26 180.203 27.26ZM212.271 13.1C213.551 13.1 214.661 13.35 215.601 13.85C216.561 14.33 217.301 15.07 217.821 16.07C218.361 17.07 218.631 18.33 218.631 19.85V29H216.501V20.06C216.501 18.4 216.101 17.15 215.301 16.31C214.521 15.45 213.411 15.02 211.971 15.02C210.891 15.02 209.951 15.25 209.151 15.71C208.371 16.15 207.761 16.8 207.321 17.66C206.901 18.5 206.691 19.52 206.691 20.72V29H204.561V20.06C204.561 18.4 204.161 17.15 203.361 16.31C202.561 15.45 201.441 15.02 200.001 15.02C198.941 15.02 198.011 15.25 197.211 15.71C196.411 16.15 195.791 16.8 195.351 17.66C194.931 18.5 194.721 19.52 194.721 20.72V29H192.591V13.25H194.631V17.51L194.301 16.76C194.781 15.62 195.551 14.73 196.611 14.09C197.691 13.43 198.961 13.1 200.421 13.1C201.961 13.1 203.271 13.49 204.351 14.27C205.431 15.03 206.131 16.18 206.451 17.72L205.611 17.39C206.071 16.11 206.881 15.08 208.041 14.3C209.221 13.5 210.631 13.1 212.271 13.1ZM232.538 29.15C231.178 29.15 229.948 28.84 228.848 28.22C227.748 27.58 226.868 26.67 226.208 25.49C225.568 24.29 225.248 22.83 225.248 21.11C225.248 19.39 225.568 17.94 226.208 16.76C226.848 15.56 227.718 14.65 228.818 14.03C229.918 13.41 231.158 13.1 232.538 13.1C234.038 13.1 235.378 13.44 236.558 14.12C237.758 14.78 238.698 15.72 239.378 16.94C240.058 18.14 240.398 19.53 240.398 21.11C240.398 22.71 240.058 24.11 239.378 25.31C238.698 26.51 237.758 27.45 236.558 28.13C235.378 28.81 234.038 29.15 232.538 29.15ZM224.408 34.82V13.25H226.448V17.99L226.238 21.14L226.538 24.32V34.82H224.408ZM232.388 27.26C233.508 27.26 234.508 27.01 235.388 26.51C236.268 25.99 236.968 25.27 237.488 24.35C238.008 23.41 238.268 22.33 238.268 21.11C238.268 19.89 238.008 18.82 237.488 17.9C236.968 16.98 236.268 16.26 235.388 15.74C234.508 15.22 233.508 14.96 232.388 14.96C231.268 14.96 230.258 15.22 229.357 15.74C228.478 16.26 227.778 16.98 227.258 17.9C226.758 18.82 226.508 19.89 226.508 21.11C226.508 22.33 226.758 23.41 227.258 24.35C227.778 25.27 228.478 25.99 229.357 26.51C230.258 27.01 231.268 27.26 232.388 27.26ZM254.522 29V25.52L254.432 24.95V19.13C254.432 17.79 254.052 16.76 253.292 16.04C252.552 15.32 251.442 14.96 249.962 14.96C248.942 14.96 247.972 15.13 247.052 15.47C246.132 15.81 245.352 16.26 244.712 16.82L243.752 15.23C244.552 14.55 245.512 14.03 246.632 13.67C247.752 13.29 248.932 13.1 250.172 13.1C252.212 13.1 253.782 13.61 254.882 14.63C256.002 15.63 256.562 17.16 256.562 19.22V29H254.522ZM249.092 29.15C247.912 29.15 246.882 28.96 246.002 28.58C245.142 28.18 244.482 27.64 244.022 26.96C243.562 26.26 243.332 25.46 243.332 24.56C243.332 23.74 243.522 23 243.902 22.34C244.302 21.66 244.942 21.12 245.822 20.72C246.722 20.3 247.922 20.09 249.422 20.09H254.852V21.68H249.482C247.962 21.68 246.902 21.95 246.302 22.49C245.722 23.03 245.432 23.7 245.432 24.5C245.432 25.4 245.782 26.12 246.482 26.66C247.182 27.2 248.162 27.47 249.422 27.47C250.622 27.47 251.652 27.2 252.512 26.66C253.392 26.1 254.032 25.3 254.432 24.26L254.912 25.73C254.512 26.77 253.812 27.6 252.812 28.22C251.832 28.84 250.592 29.15 249.092 29.15ZM270.387 13.1C271.667 13.1 272.787 13.35 273.747 13.85C274.727 14.33 275.487 15.07 276.027 16.07C276.587 17.07 276.867 18.33 276.867 19.85V29H274.737V20.06C274.737 18.4 274.317 17.15 273.477 16.31C272.657 15.45 271.497 15.02 269.997 15.02C268.877 15.02 267.897 15.25 267.057 15.71C266.237 16.15 265.597 16.8 265.137 17.66C264.697 18.5 264.477 19.52 264.477 20.72V29H262.347V13.25H264.387V17.57L264.057 16.76C264.557 15.62 265.357 14.73 266.457 14.09C267.557 13.43 268.867 13.1 270.387 13.1ZM282.447 34.97C281.707 34.97 280.997 34.85 280.317 34.61C279.657 34.37 279.087 34.01 278.607 33.53L279.597 31.94C279.997 32.32 280.427 32.61 280.887 32.81C281.367 33.03 281.897 33.14 282.477 33.14C283.177 33.14 283.777 32.94 284.277 32.54C284.797 32.16 285.287 31.48 285.747 30.5L286.767 28.19L287.007 27.86L293.487 13.25H295.587L287.697 30.89C287.257 31.91 286.767 32.72 286.227 33.32C285.707 33.92 285.137 34.34 284.517 34.58C283.897 34.84 283.207 34.97 282.447 34.97ZM286.647 29.45L279.387 13.25H281.607L288.027 27.71L286.647 29.45ZM316.309 29V25.52L316.219 24.95V19.13C316.219 17.79 315.839 16.76 315.079 16.04C314.339 15.32 313.229 14.96 311.749 14.96C310.729 14.96 309.759 15.13 308.839 15.47C307.919 15.81 307.139 16.26 306.499 16.82L305.539 15.23C306.339 14.55 307.299 14.03 308.419 13.67C309.539 13.29 310.719 13.1 311.959 13.1C313.999 13.1 315.569 13.61 316.669 14.63C317.789 15.63 318.349 17.16 318.349 19.22V29H316.309ZM310.879 29.15C309.699 29.15 308.669 28.96 307.789 28.58C306.929 28.18 306.269 27.64 305.809 26.96C305.349 26.26 305.119 25.46 305.119 24.56C305.119 23.74 305.309 23 305.689 22.34C306.089 21.66 306.729 21.12 307.609 20.72C308.509 20.3 309.709 20.09 311.209 20.09H316.639V21.68H311.269C309.749 21.68 308.689 21.95 308.089 22.49C307.509 23.03 307.219 23.7 307.219 24.5C307.219 25.4 307.569 26.12 308.269 26.66C308.969 27.2 309.949 27.47 311.209 27.47C312.409 27.47 313.439 27.2 314.299 26.66C315.179 26.1 315.819 25.3 316.219 24.26L316.699 25.73C316.299 26.77 315.599 27.6 314.599 28.22C313.619 28.84 312.379 29.15 310.879 29.15ZM330.674 29.15C329.114 29.15 327.714 28.81 326.474 28.13C325.254 27.43 324.294 26.48 323.594 25.28C322.894 24.06 322.544 22.67 322.544 21.11C322.544 19.53 322.894 18.14 323.594 16.94C324.294 15.74 325.254 14.8 326.474 14.12C327.714 13.44 329.114 13.1 330.674 13.1C332.014 13.1 333.224 13.36 334.304 13.88C335.384 14.4 336.234 15.18 336.854 16.22L335.264 17.3C334.724 16.5 334.054 15.91 333.254 15.53C332.454 15.15 331.584 14.96 330.644 14.96C329.524 14.96 328.514 15.22 327.614 15.74C326.714 16.24 326.004 16.95 325.484 17.87C324.964 18.79 324.704 19.87 324.704 21.11C324.704 22.35 324.964 23.43 325.484 24.35C326.004 25.27 326.714 25.99 327.614 26.51C328.514 27.01 329.524 27.26 330.644 27.26C331.584 27.26 332.454 27.07 333.254 26.69C334.054 26.31 334.724 25.73 335.264 24.95L336.854 26.03C336.234 27.05 335.384 27.83 334.304 28.37C333.224 28.89 332.014 29.15 330.674 29.15ZM347.315 29.15C345.755 29.15 344.355 28.81 343.115 28.13C341.895 27.43 340.935 26.48 340.235 25.28C339.535 24.06 339.185 22.67 339.185 21.11C339.185 19.53 339.535 18.14 340.235 16.94C340.935 15.74 341.895 14.8 343.115 14.12C344.355 13.44 345.755 13.1 347.315 13.1C348.655 13.1 349.865 13.36 350.945 13.88C352.025 14.4 352.875 15.18 353.495 16.22L351.905 17.3C351.365 16.5 350.695 15.91 349.895 15.53C349.095 15.15 348.225 14.96 347.285 14.96C346.165 14.96 345.155 15.22 344.255 15.74C343.355 16.24 342.645 16.95 342.125 17.87C341.605 18.79 341.345 19.87 341.345 21.11C341.345 22.35 341.605 23.43 342.125 24.35C342.645 25.27 343.355 25.99 344.255 26.51C345.155 27.01 346.165 27.26 347.285 27.26C348.225 27.26 349.095 27.07 349.895 26.69C350.695 26.31 351.365 25.73 351.905 24.95L353.495 26.03C352.875 27.05 352.025 27.83 350.945 28.37C349.865 28.89 348.655 29.15 347.315 29.15ZM363.835 29.15C362.315 29.15 360.945 28.81 359.725 28.13C358.525 27.43 357.575 26.48 356.875 25.28C356.175 24.06 355.825 22.67 355.825 21.11C355.825 19.53 356.175 18.14 356.875 16.94C357.575 15.74 358.525 14.8 359.725 14.12C360.925 13.44 362.295 13.1 363.835 13.1C365.395 13.1 366.775 13.44 367.975 14.12C369.195 14.8 370.145 15.74 370.825 16.94C371.525 18.14 371.875 19.53 371.875 21.11C371.875 22.67 371.525 24.06 370.825 25.28C370.145 26.48 369.195 27.43 367.975 28.13C366.755 28.81 365.375 29.15 363.835 29.15ZM363.835 27.26C364.975 27.26 365.985 27.01 366.865 26.51C367.745 25.99 368.435 25.27 368.935 24.35C369.455 23.41 369.715 22.33 369.715 21.11C369.715 19.87 369.455 18.79 368.935 17.87C368.435 16.95 367.745 16.24 366.865 15.74C365.985 15.22 364.985 14.96 363.865 14.96C362.745 14.96 361.745 15.22 360.865 15.74C359.985 16.24 359.285 16.95 358.765 17.87C358.245 18.79 357.985 19.87 357.985 21.11C357.985 22.33 358.245 23.41 358.765 24.35C359.285 25.27 359.985 25.99 360.865 26.51C361.745 27.01 362.735 27.26 363.835 27.26ZM382.734 29.15C381.394 29.15 380.224 28.9 379.224 28.4C378.224 27.9 377.444 27.15 376.884 26.15C376.344 25.15 376.074 23.9 376.074 22.4V13.25H378.204V22.16C378.204 23.84 378.614 25.11 379.434 25.97C380.274 26.81 381.444 27.23 382.944 27.23C384.044 27.23 384.994 27.01 385.794 26.57C386.614 26.11 387.234 25.45 387.654 24.59C388.094 23.73 388.314 22.7 388.314 21.5V13.25H390.444V29H388.404V24.68L388.734 25.46C388.234 26.62 387.454 27.53 386.394 28.19C385.354 28.83 384.134 29.15 382.734 29.15ZM404.42 13.1C405.7 13.1 406.82 13.35 407.78 13.85C408.76 14.33 409.52 15.07 410.06 16.07C410.62 17.07 410.9 18.33 410.9 19.85V29H408.77V20.06C408.77 18.4 408.35 17.15 407.51 16.31C406.69 15.45 405.53 15.02 404.03 15.02C402.91 15.02 401.93 15.25 401.09 15.71C400.27 16.15 399.63 16.8 399.17 17.66C398.73 18.5 398.51 19.52 398.51 20.72V29H396.38V13.25H398.42V17.57L398.09 16.76C398.59 15.62 399.39 14.73 400.49 14.09C401.59 13.43 402.9 13.1 404.42 13.1ZM421.634 29.15C420.154 29.15 419.014 28.75 418.214 27.95C417.414 27.15 417.014 26.02 417.014 24.56V9.77H419.144V24.44C419.144 25.36 419.374 26.07 419.834 26.57C420.314 27.07 420.994 27.32 421.874 27.32C422.814 27.32 423.594 27.05 424.214 26.51L424.964 28.04C424.544 28.42 424.034 28.7 423.434 28.88C422.854 29.06 422.254 29.15 421.634 29.15ZM414.194 15.02V13.25H423.944V15.02H414.194Z" fill="#333333"/>
<path d="M25.1642 8.64923C23.1074 6.63525 20.3987 5.23056 17.3209 4.82086C9.77008 3.8157 2.82608 9.12815 1.82093 16.679C0.815778 24.2298 6.12822 31.1738 13.6791 32.179C21.2299 33.1841 28.1739 27.8717 29.1791 20.3209C29.4395 18.3647 29.2786 16.4361 28.7502 14.6534" stroke="#DFFC7C" stroke-width="3" stroke-linecap="round" stroke-linejoin="round"/>
<path d="M8.51477 19.0053L14.3039 24.7945L30.3091 8.78925" stroke="#333333" stroke-width="3" stroke-linecap="round" stroke-linejoin="round"/>
</svg>
