<svg width="208" height="58" viewBox="0 0 208 58" fill="none" xmlns="http://www.w3.org/2000/svg">
<rect width="208" height="58" rx="5" fill="#333333"/>
<path d="M20.52 37V20.2H27.072C28.544 20.2 29.8 20.432 30.84 20.896C31.88 21.36 32.68 22.032 33.24 22.912C33.8 23.792 34.08 24.84 34.08 26.056C34.08 27.272 33.8 28.32 33.24 29.2C32.68 30.064 31.88 30.736 30.84 31.216C29.8 31.68 28.544 31.912 27.072 31.912H21.84L22.92 30.784V37H20.52ZM22.92 31.024L21.84 29.824H27C28.536 29.824 29.696 29.496 30.48 28.84C31.28 28.184 31.68 27.256 31.68 26.056C31.68 24.856 31.28 23.928 30.48 23.272C29.696 22.616 28.536 22.288 27 22.288H21.84L22.92 21.088V31.024ZM45.4243 37.192C44.1443 37.192 42.9523 36.976 41.8483 36.544C40.7603 36.112 39.8163 35.512 39.0163 34.744C38.2163 33.96 37.5923 33.048 37.1443 32.008C36.6963 30.968 36.4723 29.832 36.4723 28.6C36.4723 27.368 36.6963 26.232 37.1443 25.192C37.5923 24.152 38.2163 23.248 39.0163 22.48C39.8163 21.696 40.7603 21.088 41.8483 20.656C42.9363 20.224 44.1283 20.008 45.4243 20.008C46.7043 20.008 47.8803 20.224 48.9523 20.656C50.0403 21.072 50.9843 21.672 51.7843 22.456C52.6003 23.224 53.2243 24.128 53.6563 25.168C54.1043 26.208 54.3283 27.352 54.3283 28.6C54.3283 29.848 54.1043 30.992 53.6563 32.032C53.2243 33.072 52.6003 33.984 51.7843 34.768C50.9843 35.536 50.0403 36.136 48.9523 36.568C47.8803 36.984 46.7043 37.192 45.4243 37.192ZM45.4243 35.056C46.3523 35.056 47.2083 34.896 47.9923 34.576C48.7923 34.256 49.4803 33.808 50.0563 33.232C50.6483 32.64 51.1043 31.952 51.4243 31.168C51.7603 30.384 51.9283 29.528 51.9283 28.6C51.9283 27.672 51.7603 26.816 51.4243 26.032C51.1043 25.248 50.6483 24.568 50.0563 23.992C49.4803 23.4 48.7923 22.944 47.9923 22.624C47.2083 22.304 46.3523 22.144 45.4243 22.144C44.4803 22.144 43.6083 22.304 42.8083 22.624C42.0243 22.944 41.3363 23.4 40.7443 23.992C40.1523 24.568 39.6883 25.248 39.3523 26.032C39.0323 26.816 38.8723 27.672 38.8723 28.6C38.8723 29.528 39.0323 30.384 39.3523 31.168C39.6883 31.952 40.1523 32.64 40.7443 33.232C41.3363 33.808 42.0243 34.256 42.8083 34.576C43.6083 34.896 44.4803 35.056 45.4243 35.056ZM62.8926 37.192C61.6126 37.192 60.3886 37 59.2206 36.616C58.0526 36.216 57.1326 35.704 56.4606 35.08L57.3486 33.208C57.9886 33.768 58.8046 34.232 59.7966 34.6C60.7886 34.968 61.8206 35.152 62.8926 35.152C63.8686 35.152 64.6606 35.04 65.2686 34.816C65.8766 34.592 66.3246 34.288 66.6126 33.904C66.9006 33.504 67.0446 33.056 67.0446 32.56C67.0446 31.984 66.8526 31.52 66.4686 31.168C66.1006 30.816 65.6126 30.536 65.0046 30.328C64.4126 30.104 63.7566 29.912 63.0366 29.752C62.3166 29.592 61.5886 29.408 60.8526 29.2C60.1326 28.976 59.4686 28.696 58.8606 28.36C58.2686 28.024 57.7886 27.576 57.4206 27.016C57.0526 26.44 56.8686 25.704 56.8686 24.808C56.8686 23.944 57.0926 23.152 57.5406 22.432C58.0046 21.696 58.7086 21.112 59.6526 20.68C60.6126 20.232 61.8286 20.008 63.3006 20.008C64.2766 20.008 65.2446 20.136 66.2046 20.392C67.1646 20.648 67.9966 21.016 68.7006 21.496L67.9086 23.416C67.1886 22.936 66.4286 22.592 65.6286 22.384C64.8286 22.16 64.0526 22.048 63.3006 22.048C62.3566 22.048 61.5806 22.168 60.9726 22.408C60.3646 22.648 59.9166 22.968 59.6286 23.368C59.3566 23.768 59.2206 24.216 59.2206 24.712C59.2206 25.304 59.4046 25.776 59.7726 26.128C60.1566 26.48 60.6446 26.76 61.2366 26.968C61.8446 27.176 62.5086 27.368 63.2286 27.544C63.9486 27.704 64.6686 27.888 65.3886 28.096C66.1246 28.304 66.7886 28.576 67.3806 28.912C67.9886 29.248 68.4766 29.696 68.8446 30.256C69.2126 30.816 69.3966 31.536 69.3966 32.416C69.3966 33.264 69.1646 34.056 68.7006 34.792C68.2366 35.512 67.5166 36.096 66.5406 36.544C65.5806 36.976 64.3646 37.192 62.8926 37.192ZM72.9028 37V20.2H75.3028V37H72.9028ZM83.6685 37V22.288H77.9085V20.2H91.8045V22.288H86.0445V37H83.6685ZM114.126 37L106.734 20.2H109.326L116.118 35.704H114.63L121.47 20.2H123.87L116.502 37H114.126ZM126.012 37V20.2H132.564C134.036 20.2 135.292 20.432 136.332 20.896C137.372 21.36 138.172 22.032 138.732 22.912C139.292 23.792 139.572 24.84 139.572 26.056C139.572 27.272 139.292 28.32 138.732 29.2C138.172 30.064 137.372 30.736 136.332 31.216C135.292 31.68 134.036 31.912 132.564 31.912H127.332L128.412 30.784V37H126.012ZM128.412 31.024L127.332 29.824H132.492C134.028 29.824 135.188 29.496 135.972 28.84C136.772 28.184 137.172 27.256 137.172 26.056C137.172 24.856 136.772 23.928 135.972 23.272C135.188 22.616 134.028 22.288 132.492 22.288H127.332L128.412 21.088V31.024ZM143.098 37V20.2H145.498V34.912H154.594V37H143.098ZM164.027 37.192C161.819 37.192 160.083 36.56 158.819 35.296C157.555 34.032 156.923 32.184 156.923 29.752V20.2H159.323V29.656C159.323 31.528 159.731 32.896 160.547 33.76C161.379 34.624 162.547 35.056 164.051 35.056C165.571 35.056 166.739 34.624 167.555 33.76C168.387 32.896 168.803 31.528 168.803 29.656V20.2H171.131V29.752C171.131 32.184 170.499 34.032 169.235 35.296C167.987 36.56 166.251 37.192 164.027 37.192ZM180.947 37.192C179.667 37.192 178.443 37 177.275 36.616C176.107 36.216 175.187 35.704 174.515 35.08L175.403 33.208C176.043 33.768 176.859 34.232 177.851 34.6C178.843 34.968 179.875 35.152 180.947 35.152C181.923 35.152 182.715 35.04 183.323 34.816C183.931 34.592 184.379 34.288 184.667 33.904C184.955 33.504 185.099 33.056 185.099 32.56C185.099 31.984 184.907 31.52 184.523 31.168C184.155 30.816 183.667 30.536 183.059 30.328C182.467 30.104 181.811 29.912 181.091 29.752C180.371 29.592 179.643 29.408 178.907 29.2C178.187 28.976 177.523 28.696 176.915 28.36C176.323 28.024 175.843 27.576 175.475 27.016C175.107 26.44 174.923 25.704 174.923 24.808C174.923 23.944 175.147 23.152 175.595 22.432C176.059 21.696 176.763 21.112 177.707 20.68C178.667 20.232 179.883 20.008 181.355 20.008C182.331 20.008 183.299 20.136 184.259 20.392C185.219 20.648 186.051 21.016 186.755 21.496L185.963 23.416C185.243 22.936 184.483 22.592 183.683 22.384C182.883 22.16 182.107 22.048 181.355 22.048C180.411 22.048 179.635 22.168 179.027 22.408C178.419 22.648 177.971 22.968 177.683 23.368C177.411 23.768 177.275 24.216 177.275 24.712C177.275 25.304 177.459 25.776 177.827 26.128C178.211 26.48 178.699 26.76 179.291 26.968C179.899 27.176 180.563 27.368 181.283 27.544C182.003 27.704 182.723 27.888 183.443 28.096C184.179 28.304 184.843 28.576 185.435 28.912C186.043 29.248 186.531 29.696 186.899 30.256C187.267 30.816 187.451 31.536 187.451 32.416C187.451 33.264 187.219 34.056 186.755 34.792C186.291 35.512 185.571 36.096 184.595 36.544C183.635 36.976 182.419 37.192 180.947 37.192Z" fill="white"/>
<path d="M94.4184 37V20.2H96.8184V37H94.4184ZM101.848 37V20.2H104.248V37H101.848Z" fill="#DBE373"/>
</svg>
