<svg width="1728" height="287" viewBox="0 0 1728 287" fill="none" xmlns="http://www.w3.org/2000/svg">
<mask id="mask0_491_197" style="mask-type:alpha" maskUnits="userSpaceOnUse" x="0" y="0" width="1728" height="287">
<rect width="1728" height="287" fill="#333333"/>
</mask>
<g mask="url(#mask0_491_197)">
<g opacity="0.3">
<path d="M1015.28 200.657H1000.74" stroke="white" stroke-width="2.47" stroke-linecap="round" stroke-linejoin="round"/>
<path d="M1008.02 193.382V207.915" stroke="white" stroke-width="2.47" stroke-linecap="round" stroke-linejoin="round"/>
</g>
<g opacity="0.4">
<path d="M1618.3 206.651H1601.08" stroke="white" stroke-width="1.71" stroke-linecap="round" stroke-linejoin="round"/>
<path d="M1609.7 198.04V215.245" stroke="white" stroke-width="1.71" stroke-linecap="round" stroke-linejoin="round"/>
</g>
<g opacity="0.3">
<path d="M1407.39 214.884H1392.87" stroke="white" stroke-width="2.47" stroke-linecap="round" stroke-linejoin="round"/>
<path d="M1400.13 207.608V222.142" stroke="white" stroke-width="2.47" stroke-linecap="round" stroke-linejoin="round"/>
</g>
<path opacity="0.7" d="M1482.57 219.343C1482.57 214.685 1486.34 210.93 1490.98 210.93C1495.63 210.93 1499.4 214.703 1499.4 219.343C1499.4 223.983 1495.63 227.756 1490.98 227.756C1486.34 227.756 1482.57 223.983 1482.57 219.343Z" stroke="white" stroke-width="2.11" stroke-linecap="round" stroke-linejoin="round"/>
<path opacity="0.7" d="M1268.6 230.934C1268.6 226.276 1272.37 222.521 1277.01 222.521C1281.66 222.521 1285.43 226.294 1285.43 230.934C1285.43 235.574 1281.66 239.347 1277.01 239.347C1272.37 239.347 1268.6 235.574 1268.6 230.934Z" stroke="white" stroke-width="2.11" stroke-linecap="round" stroke-linejoin="round"/>
<path d="M1070.34 124.181C1070.34 119.108 1074.46 114.991 1079.54 114.991C1084.62 114.991 1088.74 119.108 1088.74 124.181C1088.74 129.254 1084.62 133.37 1079.54 133.37C1074.46 133.37 1070.34 129.254 1070.34 124.181Z" stroke="white" stroke-width="0.54" stroke-linecap="round" stroke-linejoin="round"/>
<path d="M972.355 54.2581C972.355 50.5751 975.335 47.5962 979.021 47.5962C982.706 47.5962 985.687 50.5751 985.687 54.2581C985.687 57.9411 982.706 60.92 979.021 60.92C975.335 60.92 972.355 57.9411 972.355 54.2581Z" stroke="white" stroke-width="0.62" stroke-linecap="round" stroke-linejoin="round"/>
<path d="M1706.02 71.8788C1706.02 68.1958 1709 65.2169 1712.69 65.2169C1716.37 65.2169 1719.35 68.1958 1719.35 71.8788C1719.35 75.5618 1716.37 78.5407 1712.69 78.5407C1709 78.5407 1706.02 75.5618 1706.02 71.8788Z" stroke="white" stroke-width="0.62" stroke-linecap="round" stroke-linejoin="round"/>
<g opacity="0.5">
<path d="M1089.69 248.465H1081.42C1080.34 248.465 1079.45 249.345 1079.45 250.433V269.583C1079.45 270.671 1080.34 271.551 1081.42 271.551H1089.69C1089.92 272.565 1090.19 273.567 1090.5 274.545L1083.34 278.676C1082.4 279.213 1082.08 280.423 1082.62 281.364L1092.21 297.948C1092.75 298.889 1093.96 299.207 1094.9 298.669L1102.07 294.539C1102.78 295.284 1103.51 296.017 1104.26 296.726L1100.12 303.888C1099.58 304.829 1099.9 306.026 1100.84 306.576L1117.44 316.158C1118.38 316.695 1119.58 316.378 1120.13 315.437L1124.26 308.275C1125.24 308.568 1126.24 308.849 1127.26 309.082V317.343C1127.26 318.431 1128.14 319.311 1129.23 319.311H1148.39C1149.48 319.311 1150.36 318.431 1150.36 317.343V309.082C1151.37 308.849 1152.38 308.581 1153.36 308.275L1157.49 315.437C1158.03 316.378 1159.24 316.695 1160.18 316.158L1176.77 306.576C1177.72 306.039 1178.03 304.829 1177.5 303.888L1173.36 296.726C1174.11 296.017 1174.84 295.284 1175.55 294.539L1182.72 298.669C1183.66 299.207 1184.86 298.889 1185.41 297.948L1195 281.364C1195.53 280.423 1195.22 279.225 1194.27 278.676L1187.12 274.545C1187.41 273.567 1187.69 272.553 1187.93 271.551H1196.19C1197.28 271.551 1198.16 270.671 1198.16 269.583V250.433C1198.16 249.345 1197.28 248.465 1196.19 248.465H1187.93C1187.69 247.451 1187.43 246.448 1187.12 245.471L1194.27 241.34C1195.22 240.802 1195.53 239.592 1195 238.651L1185.41 222.067C1184.87 221.126 1183.66 220.809 1182.72 221.346L1175.55 225.477C1174.84 224.732 1174.11 223.998 1173.36 223.289L1177.5 216.128C1178.03 215.187 1177.72 213.989 1176.77 213.439L1160.18 203.858C1159.24 203.32 1158.04 203.638 1157.49 204.579L1153.36 211.74C1152.38 211.447 1151.37 211.166 1150.36 210.934V202.672C1150.36 201.585 1149.48 200.705 1148.39 200.705H1129.23C1128.14 200.705 1127.26 201.585 1127.26 202.672V210.934C1126.24 211.166 1125.24 211.435 1124.26 211.74L1120.13 204.579C1119.59 203.638 1118.38 203.32 1117.44 203.858L1100.84 213.439C1099.9 213.977 1099.58 215.187 1100.12 216.128L1104.26 223.289C1103.51 223.998 1102.78 224.732 1102.07 225.477L1094.9 221.346C1093.96 220.809 1092.76 221.126 1092.21 222.067L1082.62 238.651C1082.08 239.592 1082.4 240.79 1083.34 241.34L1090.5 245.471C1090.2 246.448 1089.92 247.451 1089.69 248.465ZM1133.28 232.529C1152.9 228.581 1170.24 245.911 1166.29 265.526C1164.07 276.561 1155.3 285.324 1144.24 287.511C1124.67 291.385 1107.39 274.129 1111.27 254.563C1113.46 243.528 1122.23 234.753 1133.28 232.529Z" fill="#C7E1F9"/>
</g>
<g opacity="0.2">
<path d="M1268.51 151.334H1261.75C1260.87 151.334 1260.14 152.056 1260.14 152.941V168.612C1260.14 169.496 1260.87 170.218 1261.75 170.218H1268.51C1268.71 171.049 1268.92 171.861 1269.16 172.674L1263.3 176.05C1262.53 176.501 1262.27 177.476 1262.71 178.252L1270.55 191.829C1271 192.605 1271.98 192.858 1272.75 192.425L1278.62 189.049C1279.2 189.662 1279.8 190.258 1280.41 190.836L1277.03 196.704C1276.58 197.48 1276.85 198.455 1277.63 198.906L1291.22 206.742C1291.99 207.193 1292.97 206.922 1293.42 206.146L1296.8 200.296C1297.59 200.549 1298.42 200.766 1299.25 200.946V207.716C1299.25 208.601 1299.98 209.323 1300.86 209.323H1316.54C1317.43 209.323 1318.15 208.601 1318.15 207.716V200.946C1318.98 200.748 1319.8 200.531 1320.61 200.296L1323.99 206.146C1324.44 206.922 1325.41 207.175 1326.19 206.742L1339.78 198.906C1340.55 198.455 1340.81 197.48 1340.37 196.704L1336.99 190.836C1337.61 190.258 1338.2 189.662 1338.78 189.049L1344.65 192.425C1345.43 192.876 1346.41 192.605 1346.86 191.829L1354.7 178.252C1355.15 177.476 1354.88 176.501 1354.1 176.05L1348.25 172.674C1348.5 171.879 1348.72 171.049 1348.9 170.218H1355.66C1356.54 170.218 1357.26 169.496 1357.26 168.612V152.941C1357.26 152.056 1356.54 151.334 1355.66 151.334H1348.9C1348.7 150.504 1348.48 149.691 1348.25 148.879L1354.1 145.503C1354.88 145.051 1355.13 144.076 1354.7 143.3L1346.86 129.723C1346.41 128.947 1345.43 128.694 1344.65 129.128L1338.78 132.504C1338.2 131.89 1337.61 131.294 1336.99 130.716L1340.37 124.849C1340.82 124.073 1340.55 123.098 1339.78 122.646L1326.19 114.811C1325.41 114.36 1324.44 114.63 1323.99 115.407L1320.61 121.256C1319.8 121.003 1318.98 120.787 1318.15 120.606V113.854C1318.15 112.969 1317.43 112.247 1316.54 112.247H1300.86C1299.98 112.247 1299.25 112.969 1299.25 113.854V120.606C1298.42 120.805 1297.61 121.021 1296.8 121.256L1293.42 115.407C1292.97 114.63 1291.99 114.378 1291.22 114.811L1277.63 122.646C1276.85 123.098 1276.6 124.073 1277.03 124.849L1280.41 130.716C1279.8 131.294 1279.2 131.89 1278.62 132.504L1272.75 129.128C1271.98 128.676 1271 128.947 1270.55 129.723L1262.71 143.3C1262.26 144.076 1262.53 145.051 1263.3 145.503L1269.16 148.879C1268.9 149.691 1268.69 150.504 1268.51 151.334ZM1304.17 138.299C1320.23 135.067 1334.41 149.258 1331.19 165.308C1329.37 174.335 1322.2 181.502 1313.15 183.289C1297.12 186.467 1283 172.331 1286.18 156.335C1287.96 147.308 1295.14 140.123 1304.17 138.299Z" fill="#C7E1F9"/>
</g>
<g opacity="0.3">
<path d="M1567.31 115.514H1561.38C1560.6 115.514 1559.97 116.146 1559.97 116.923V130.662C1559.97 131.438 1560.6 132.07 1561.38 132.07H1567.31C1567.47 132.792 1567.67 133.514 1567.88 134.218L1562.75 137.179C1562.08 137.576 1561.85 138.425 1562.23 139.111L1569.11 151.008C1569.51 151.676 1570.36 151.911 1571.05 151.532L1576.19 148.571C1576.7 149.113 1577.22 149.636 1577.77 150.142L1574.8 155.287C1574.41 155.955 1574.64 156.822 1575.33 157.219L1587.23 164.097C1587.9 164.495 1588.77 164.26 1589.17 163.574L1592.13 158.429C1592.83 158.645 1593.56 158.844 1594.28 159.006V164.928C1594.28 165.704 1594.91 166.336 1595.69 166.336H1609.43C1610.21 166.336 1610.84 165.704 1610.84 164.928V159.006C1611.57 158.844 1612.29 158.645 1612.99 158.429L1615.96 163.574C1616.35 164.242 1617.2 164.477 1617.89 164.097L1629.8 157.219C1630.46 156.822 1630.7 155.973 1630.32 155.287L1627.36 150.142C1627.9 149.636 1628.42 149.113 1628.93 148.571L1634.08 151.532C1634.75 151.929 1635.61 151.694 1636.01 151.008L1642.89 139.111C1643.29 138.443 1643.06 137.576 1642.37 137.179L1637.24 134.218C1637.45 133.514 1637.65 132.792 1637.82 132.07H1643.72C1644.5 132.07 1645.13 131.438 1645.13 130.662V116.923C1645.13 116.146 1644.5 115.514 1643.72 115.514H1637.8C1637.64 114.792 1637.44 114.07 1637.22 113.366L1642.35 110.405C1643.02 110.008 1643.25 109.159 1642.87 108.473L1635.99 96.5758C1635.59 95.9078 1634.75 95.6731 1634.06 96.0523L1628.91 99.0131C1628.4 98.4715 1627.88 97.9479 1627.34 97.4424L1630.3 92.2971C1630.7 91.6291 1630.46 90.7625 1629.78 90.3653L1617.87 83.4867C1617.2 83.0896 1616.34 83.3243 1615.94 84.0103L1612.98 89.1376C1612.27 88.921 1611.55 88.7224 1610.83 88.5599V82.6382C1610.83 81.8619 1610.19 81.23 1609.42 81.23H1595.67C1594.89 81.23 1594.26 81.8619 1594.26 82.6382V88.5599C1593.54 88.7224 1592.81 88.921 1592.11 89.1376L1589.15 84.0103C1588.75 83.3423 1587.9 83.1076 1587.21 83.4867L1575.31 90.3653C1574.64 90.7625 1574.41 91.611 1574.78 92.2971L1577.75 97.4424C1577.21 97.9479 1576.68 98.4715 1576.18 99.0131L1571.03 96.0523C1570.36 95.6551 1569.49 95.8898 1569.09 96.5758L1562.21 108.473C1561.81 109.141 1562.05 110.008 1562.74 110.405L1567.87 113.366C1567.65 114.07 1567.45 114.792 1567.29 115.514H1567.31ZM1598.58 104.086C1612.67 101.252 1625.1 113.691 1622.28 127.773C1620.69 135.699 1614.38 141.981 1606.45 143.552C1592.4 146.332 1580.01 133.947 1582.79 119.901C1584.36 111.976 1590.65 105.675 1598.58 104.086Z" fill="#C7E1F9"/>
</g>
<g opacity="0.3">
<path d="M1539.13 274.588H1535.56C1535.09 274.588 1534.71 274.967 1534.71 275.437V283.705C1534.71 284.175 1535.09 284.554 1535.56 284.554H1539.13C1539.24 284.987 1539.35 285.421 1539.48 285.854L1536.39 287.641C1535.99 287.876 1535.84 288.399 1536.08 288.797L1540.22 295.964C1540.45 296.361 1540.97 296.506 1541.37 296.271L1544.46 294.484C1544.77 294.809 1545.08 295.115 1545.4 295.422L1543.61 298.51C1543.38 298.907 1543.52 299.43 1543.92 299.665L1551.09 303.799C1551.49 304.034 1552.01 303.89 1552.25 303.492L1554.04 300.405C1554.45 300.532 1554.89 300.658 1555.34 300.748V304.323C1555.34 304.792 1555.72 305.172 1556.19 305.172H1564.46C1564.93 305.172 1565.31 304.792 1565.31 304.323V300.748C1565.74 300.64 1566.18 300.532 1566.61 300.405L1568.4 303.492C1568.63 303.89 1569.16 304.034 1569.55 303.799L1576.73 299.665C1577.12 299.43 1577.27 298.907 1577.03 298.51L1575.25 295.422C1575.57 295.115 1575.88 294.809 1576.18 294.484L1579.27 296.271C1579.67 296.506 1580.2 296.361 1580.43 295.964L1584.57 288.797C1584.8 288.399 1584.66 287.876 1584.26 287.641L1581.17 285.854C1581.3 285.439 1581.42 284.987 1581.51 284.554H1585.09C1585.56 284.554 1585.94 284.175 1585.94 283.705V275.437C1585.94 274.967 1585.56 274.588 1585.09 274.588H1581.51C1581.41 274.155 1581.3 273.722 1581.17 273.288L1584.26 271.501C1584.66 271.266 1584.8 270.743 1584.57 270.345L1580.43 263.178C1580.2 262.781 1579.67 262.636 1579.27 262.871L1576.18 264.659C1575.88 264.334 1575.57 264.027 1575.25 263.72L1577.03 260.632C1577.27 260.235 1577.12 259.712 1576.73 259.477L1569.55 255.343C1569.16 255.108 1568.63 255.252 1568.4 255.65L1566.61 258.737C1566.19 258.61 1565.76 258.484 1565.31 258.394V254.819C1565.31 254.35 1564.93 253.971 1564.46 253.971H1556.19C1555.72 253.971 1555.34 254.35 1555.34 254.819V258.394C1554.9 258.502 1554.47 258.61 1554.04 258.737L1552.25 255.65C1552.01 255.252 1551.49 255.108 1551.09 255.343L1543.92 259.477C1543.52 259.712 1543.38 260.235 1543.61 260.632L1545.4 263.72C1545.08 264.027 1544.77 264.334 1544.46 264.659L1541.37 262.871C1540.97 262.636 1540.45 262.781 1540.22 263.178L1536.08 270.345C1535.84 270.743 1535.99 271.266 1536.39 271.501L1539.48 273.288C1539.35 273.704 1539.22 274.137 1539.13 274.588ZM1557.96 267.71C1566.43 266.013 1573.93 273.487 1572.21 281.954C1571.25 286.72 1567.46 290.494 1562.69 291.451C1554.24 293.13 1546.77 285.673 1548.45 277.224C1549.39 272.458 1553.19 268.666 1557.96 267.71Z" fill="#C7E1F9"/>
</g>
<g style="mix-blend-mode:screen">
<path d="M1199.42 -4.18441H1195.21C1194.65 -4.18441 1194.2 -3.73307 1194.2 -3.1734V6.59378C1194.2 7.15345 1194.65 7.6048 1195.21 7.6048H1199.42C1199.54 8.12836 1199.67 8.63388 1199.83 9.13939L1196.18 11.2517C1195.7 11.5225 1195.53 12.1363 1195.82 12.6238L1200.72 21.0911C1200.99 21.5785 1201.6 21.741 1202.09 21.4521L1205.74 19.3398C1206.1 19.719 1206.48 20.0981 1206.86 20.4592L1204.75 24.1061C1204.48 24.5935 1204.64 25.2074 1205.11 25.4782L1213.58 30.3708C1214.07 30.6416 1214.68 30.4791 1214.95 30.0097L1217.07 26.3628C1217.57 26.5072 1218.08 26.6517 1218.6 26.7781V31.0027C1218.6 31.5624 1219.06 32.0137 1219.62 32.0137H1229.39C1229.95 32.0137 1230.4 31.5624 1230.4 31.0027V26.7781C1230.92 26.6517 1231.43 26.5253 1231.94 26.3628L1234.05 30.0097C1234.32 30.4972 1234.94 30.6597 1235.42 30.3708L1243.9 25.4782C1244.38 25.2074 1244.55 24.5935 1244.26 24.1061L1242.14 20.4592C1242.52 20.0981 1242.9 19.719 1243.26 19.3398L1246.91 21.4521C1247.4 21.723 1248.01 21.5605 1248.29 21.0911L1253.18 12.6238C1253.45 12.1363 1253.29 11.5225 1252.82 11.2517L1249.17 9.13939C1249.32 8.63388 1249.46 8.12836 1249.59 7.6048H1253.8C1254.36 7.6048 1254.81 7.15345 1254.81 6.59378V-3.1734C1254.81 -3.73307 1254.36 -4.18441 1253.8 -4.18441H1249.59C1249.46 -4.70797 1249.33 -5.21347 1249.17 -5.71898L1252.82 -7.83131C1253.31 -8.10212 1253.47 -8.71594 1253.18 -9.2034L1248.29 -17.6707C1248.01 -18.1581 1247.4 -18.3206 1246.91 -18.0318L1243.26 -15.9195C1242.9 -16.2986 1242.52 -16.6777 1242.14 -17.0388L1244.26 -20.6857C1244.53 -21.1731 1244.37 -21.787 1243.9 -22.0578L1235.42 -26.9504C1234.94 -27.2212 1234.32 -27.0587 1234.05 -26.5893L1231.94 -22.9424C1231.43 -23.0869 1230.92 -23.2313 1230.4 -23.3577V-27.5823C1230.4 -28.1419 1229.95 -28.5933 1229.39 -28.5933H1219.62C1219.06 -28.5933 1218.6 -28.1419 1218.6 -27.5823V-23.3577C1218.08 -23.2313 1217.57 -23.1049 1217.07 -22.9424L1214.95 -26.5893C1214.68 -27.0768 1214.07 -27.2393 1213.58 -26.9504L1205.11 -22.0578C1204.62 -21.787 1204.46 -21.1731 1204.75 -20.6857L1206.86 -17.0388C1206.48 -16.6777 1206.1 -16.2986 1205.74 -15.9195L1202.09 -18.0318C1201.6 -18.3026 1200.99 -18.1401 1200.72 -17.6707L1195.82 -9.2034C1195.55 -8.71594 1195.71 -8.10212 1196.18 -7.83131L1199.83 -5.71898C1199.69 -5.21347 1199.54 -4.70797 1199.42 -4.18441ZM1221.66 -12.3267C1231.67 -14.3488 1240.52 -5.50233 1238.51 4.51759C1237.37 10.1504 1232.89 14.6278 1227.26 15.7291C1217.27 17.715 1208.45 8.90468 1210.44 -1.07914C1211.56 -6.71196 1216.02 -11.1893 1221.66 -12.3267Z" fill="#A4ADC5"/>
</g>
</g>
</svg>
