<svg width="1059" height="52" viewBox="0 0 1059 52" fill="none" xmlns="http://www.w3.org/2000/svg">
<rect x="801" width="258" height="52" rx="10" fill="#00AAE1"/>
<path d="M844.411 34.22C843.238 34.22 842.145 34.0293 841.133 33.648C840.136 33.252 839.263 32.702 838.515 31.998C837.782 31.2793 837.21 30.436 836.799 29.468C836.388 28.5 836.183 27.444 836.183 26.3C836.183 25.156 836.388 24.1 836.799 23.132C837.21 22.164 837.789 21.328 838.537 20.624C839.285 19.9053 840.158 19.3553 841.155 18.974C842.152 18.578 843.245 18.38 844.433 18.38C845.694 18.38 846.846 18.6 847.887 19.04C848.928 19.4653 849.808 20.1033 850.527 20.954L848.679 22.692C848.122 22.0907 847.498 21.6433 846.809 21.35C846.12 21.042 845.372 20.888 844.565 20.888C843.758 20.888 843.018 21.02 842.343 21.284C841.683 21.548 841.104 21.922 840.605 22.406C840.121 22.89 839.74 23.462 839.461 24.122C839.197 24.782 839.065 25.508 839.065 26.3C839.065 27.092 839.197 27.818 839.461 28.478C839.74 29.138 840.121 29.71 840.605 30.194C841.104 30.678 841.683 31.052 842.343 31.316C843.018 31.58 843.758 31.712 844.565 31.712C845.372 31.712 846.12 31.5653 846.809 31.272C847.498 30.964 848.122 30.502 848.679 29.886L850.527 31.646C849.808 32.482 848.928 33.12 847.887 33.56C846.846 34 845.687 34.22 844.411 34.22ZM853.003 34V22.252H855.621V25.486L855.313 24.54C855.665 23.748 856.215 23.1467 856.963 22.736C857.726 22.3253 858.672 22.12 859.801 22.12V24.738C859.684 24.7087 859.574 24.694 859.471 24.694C859.369 24.6793 859.266 24.672 859.163 24.672C858.122 24.672 857.293 24.98 856.677 25.596C856.061 26.1973 855.753 27.0993 855.753 28.302V34H853.003ZM867.549 34.154C866.243 34.154 865.099 33.8973 864.117 33.384C863.149 32.856 862.393 32.1373 861.851 31.228C861.323 30.3187 861.059 29.2847 861.059 28.126C861.059 26.9527 861.315 25.9187 861.829 25.024C862.357 24.1147 863.075 23.4033 863.985 22.89C864.909 22.3767 865.957 22.12 867.131 22.12C868.275 22.12 869.294 22.3693 870.189 22.868C871.083 23.3667 871.787 24.0707 872.301 24.98C872.814 25.8893 873.071 26.96 873.071 28.192C873.071 28.3093 873.063 28.4413 873.049 28.588C873.049 28.7347 873.041 28.874 873.027 29.006H863.237V27.18H871.575L870.497 27.752C870.511 27.0773 870.372 26.4833 870.079 25.97C869.785 25.4567 869.382 25.0533 868.869 24.76C868.37 24.4667 867.791 24.32 867.131 24.32C866.456 24.32 865.862 24.4667 865.349 24.76C864.85 25.0533 864.454 25.464 864.161 25.992C863.882 26.5053 863.743 27.114 863.743 27.818V28.258C863.743 28.962 863.904 29.5853 864.227 30.128C864.549 30.6707 865.004 31.0887 865.591 31.382C866.177 31.6753 866.852 31.822 867.615 31.822C868.275 31.822 868.869 31.7193 869.397 31.514C869.925 31.3087 870.394 30.986 870.805 30.546L872.279 32.24C871.751 32.856 871.083 33.3327 870.277 33.67C869.485 33.9927 868.575 34.154 867.549 34.154ZM882.628 34V31.624L882.474 31.118V26.96C882.474 26.1533 882.232 25.53 881.748 25.09C881.264 24.6353 880.531 24.408 879.548 24.408C878.888 24.408 878.235 24.5107 877.59 24.716C876.959 24.9213 876.424 25.2073 875.984 25.574L874.906 23.572C875.537 23.088 876.285 22.7287 877.15 22.494C878.03 22.2447 878.939 22.12 879.878 22.12C881.579 22.12 882.892 22.5307 883.816 23.352C884.755 24.1587 885.224 25.4127 885.224 27.114V34H882.628ZM878.932 34.154C878.052 34.154 877.282 34.0073 876.622 33.714C875.962 33.406 875.449 32.988 875.082 32.46C874.73 31.9173 874.554 31.3087 874.554 30.634C874.554 29.974 874.708 29.38 875.016 28.852C875.339 28.324 875.859 27.906 876.578 27.598C877.297 27.29 878.25 27.136 879.438 27.136H882.848V28.962H879.636C878.697 28.962 878.067 29.116 877.744 29.424C877.421 29.7173 877.26 30.084 877.26 30.524C877.26 31.0227 877.458 31.4187 877.854 31.712C878.25 32.0053 878.8 32.152 879.504 32.152C880.179 32.152 880.78 31.998 881.308 31.69C881.851 31.382 882.239 30.9273 882.474 30.326L882.936 31.976C882.672 32.6653 882.195 33.2007 881.506 33.582C880.831 33.9633 879.973 34.154 878.932 34.154ZM893.175 34.154C891.885 34.154 890.887 33.824 890.183 33.164C889.479 32.4893 889.127 31.4993 889.127 30.194V19.656H891.877V30.128C891.877 30.6853 892.017 31.118 892.295 31.426C892.589 31.734 892.992 31.888 893.505 31.888C894.121 31.888 894.635 31.7267 895.045 31.404L895.815 33.362C895.493 33.626 895.097 33.824 894.627 33.956C894.158 34.088 893.674 34.154 893.175 34.154ZM887.191 24.54V22.34H895.023V24.54H887.191ZM903.213 34.154C901.907 34.154 900.763 33.8973 899.781 33.384C898.813 32.856 898.057 32.1373 897.515 31.228C896.987 30.3187 896.723 29.2847 896.723 28.126C896.723 26.9527 896.979 25.9187 897.493 25.024C898.021 24.1147 898.739 23.4033 899.649 22.89C900.573 22.3767 901.621 22.12 902.795 22.12C903.939 22.12 904.958 22.3693 905.853 22.868C906.747 23.3667 907.451 24.0707 907.965 24.98C908.478 25.8893 908.735 26.96 908.735 28.192C908.735 28.3093 908.727 28.4413 908.713 28.588C908.713 28.7347 908.705 28.874 908.691 29.006H898.901V27.18H907.239L906.161 27.752C906.175 27.0773 906.036 26.4833 905.743 25.97C905.449 25.4567 905.046 25.0533 904.533 24.76C904.034 24.4667 903.455 24.32 902.795 24.32C902.12 24.32 901.526 24.4667 901.013 24.76C900.514 25.0533 900.118 25.464 899.825 25.992C899.546 26.5053 899.407 27.114 899.407 27.818V28.258C899.407 28.962 899.568 29.5853 899.891 30.128C900.213 30.6707 900.668 31.0887 901.255 31.382C901.841 31.6753 902.516 31.822 903.279 31.822C903.939 31.822 904.533 31.7193 905.061 31.514C905.589 31.3087 906.058 30.986 906.469 30.546L907.943 32.24C907.415 32.856 906.747 33.3327 905.941 33.67C905.149 33.9927 904.239 34.154 903.213 34.154ZM915.542 34L922.472 18.6H925.288L932.24 34H929.248L923.286 20.118H924.43L918.49 34H915.542ZM918.732 30.436L919.502 28.192H927.818L928.588 30.436H918.732ZM939.217 34.154C937.985 34.154 936.885 33.8973 935.917 33.384C934.964 32.856 934.216 32.1373 933.673 31.228C933.131 30.3187 932.859 29.2847 932.859 28.126C932.859 26.9527 933.131 25.9187 933.673 25.024C934.216 24.1147 934.964 23.4033 935.917 22.89C936.885 22.3767 937.985 22.12 939.217 22.12C940.361 22.12 941.366 22.3547 942.231 22.824C943.111 23.2787 943.779 23.9533 944.233 24.848L942.121 26.08C941.769 25.5227 941.337 25.112 940.823 24.848C940.325 24.584 939.782 24.452 939.195 24.452C938.521 24.452 937.912 24.5987 937.369 24.892C936.827 25.1853 936.401 25.6107 936.093 26.168C935.785 26.7107 935.631 27.3633 935.631 28.126C935.631 28.8887 935.785 29.5487 936.093 30.106C936.401 30.6487 936.827 31.0667 937.369 31.36C937.912 31.6533 938.521 31.8 939.195 31.8C939.782 31.8 940.325 31.668 940.823 31.404C941.337 31.14 941.769 30.7293 942.121 30.172L944.233 31.404C943.779 32.284 943.111 32.966 942.231 33.45C941.366 33.9193 940.361 34.154 939.217 34.154ZM951.829 34.154C950.597 34.154 949.497 33.8973 948.529 33.384C947.575 32.856 946.827 32.1373 946.285 31.228C945.742 30.3187 945.471 29.2847 945.471 28.126C945.471 26.9527 945.742 25.9187 946.285 25.024C946.827 24.1147 947.575 23.4033 948.529 22.89C949.497 22.3767 950.597 22.12 951.829 22.12C952.973 22.12 953.977 22.3547 954.843 22.824C955.723 23.2787 956.39 23.9533 956.845 24.848L954.733 26.08C954.381 25.5227 953.948 25.112 953.435 24.848C952.936 24.584 952.393 24.452 951.807 24.452C951.132 24.452 950.523 24.5987 949.981 24.892C949.438 25.1853 949.013 25.6107 948.705 26.168C948.397 26.7107 948.243 27.3633 948.243 28.126C948.243 28.8887 948.397 29.5487 948.705 30.106C949.013 30.6487 949.438 31.0667 949.981 31.36C950.523 31.6533 951.132 31.8 951.807 31.8C952.393 31.8 952.936 31.668 953.435 31.404C953.948 31.14 954.381 30.7293 954.733 30.172L956.845 31.404C956.39 32.284 955.723 32.966 954.843 33.45C953.977 33.9193 952.973 34.154 951.829 34.154ZM964.33 34.154C963.127 34.154 962.057 33.8973 961.118 33.384C960.179 32.856 959.439 32.1373 958.896 31.228C958.353 30.3187 958.082 29.2847 958.082 28.126C958.082 26.9527 958.353 25.9187 958.896 25.024C959.439 24.1147 960.179 23.4033 961.118 22.89C962.057 22.3767 963.127 22.12 964.33 22.12C965.547 22.12 966.625 22.3767 967.564 22.89C968.517 23.4033 969.258 24.1073 969.786 25.002C970.329 25.8967 970.6 26.938 970.6 28.126C970.6 29.2847 970.329 30.3187 969.786 31.228C969.258 32.1373 968.517 32.856 967.564 33.384C966.625 33.8973 965.547 34.154 964.33 34.154ZM964.33 31.8C965.005 31.8 965.606 31.6533 966.134 31.36C966.662 31.0667 967.073 30.6413 967.366 30.084C967.674 29.5267 967.828 28.874 967.828 28.126C967.828 27.3633 967.674 26.7107 967.366 26.168C967.073 25.6107 966.662 25.1853 966.134 24.892C965.606 24.5987 965.012 24.452 964.352 24.452C963.677 24.452 963.076 24.5987 962.548 24.892C962.035 25.1853 961.624 25.6107 961.316 26.168C961.008 26.7107 960.854 27.3633 960.854 28.126C960.854 28.874 961.008 29.5267 961.316 30.084C961.624 30.6413 962.035 31.0667 962.548 31.36C963.076 31.6533 963.67 31.8 964.33 31.8ZM978.202 34.154C977.204 34.154 976.324 33.9707 975.562 33.604C974.799 33.2227 974.205 32.6507 973.78 31.888C973.354 31.1107 973.142 30.1353 973.142 28.962V22.252H975.892V28.588C975.892 29.644 976.126 30.436 976.596 30.964C977.08 31.4773 977.762 31.734 978.642 31.734C979.287 31.734 979.844 31.602 980.314 31.338C980.798 31.074 981.172 30.678 981.436 30.15C981.714 29.622 981.854 28.9693 981.854 28.192V22.252H984.604V34H981.986V30.832L982.448 31.8C982.052 32.5627 981.472 33.1493 980.71 33.56C979.947 33.956 979.111 34.154 978.202 34.154ZM994.87 22.12C995.809 22.12 996.645 22.3033 997.378 22.67C998.126 23.0367 998.713 23.6013 999.138 24.364C999.564 25.112 999.776 26.08 999.776 27.268V34H997.026V27.62C997.026 26.5787 996.777 25.8013 996.278 25.288C995.794 24.7747 995.112 24.518 994.232 24.518C993.587 24.518 993.015 24.65 992.516 24.914C992.018 25.178 991.629 25.574 991.35 26.102C991.086 26.6153 990.954 27.268 990.954 28.06V34H988.204V22.252H990.822V25.42L990.36 24.452C990.771 23.704 991.365 23.132 992.142 22.736C992.934 22.3253 993.844 22.12 994.87 22.12ZM1007.69 34.154C1006.4 34.154 1005.4 33.824 1004.69 33.164C1003.99 32.4893 1003.64 31.4993 1003.64 30.194V19.656H1006.39V30.128C1006.39 30.6853 1006.53 31.118 1006.81 31.426C1007.1 31.734 1007.5 31.888 1008.02 31.888C1008.63 31.888 1009.15 31.7267 1009.56 31.404L1010.33 33.362C1010 33.626 1009.61 33.824 1009.14 33.956C1008.67 34.088 1008.19 34.154 1007.69 34.154ZM1001.7 24.54V22.34H1009.53V24.54H1001.7Z" fill="white"/>
<path d="M1020 33.7652L1026 27.8826L1020 22" stroke="white" stroke-width="2" stroke-linecap="round" stroke-linejoin="round"/>
<path d="M26.312 25.5774H34.232V27.4474H26.312V25.5774ZM26.51 32.4194H35.486V34.3334H24.31V18.9334H35.178V20.8474H26.51V32.4194ZM44.9663 22.5634C45.9196 22.5634 46.7556 22.7467 47.4743 23.1134C48.2076 23.48 48.7796 24.0374 49.1903 24.7854C49.6009 25.5334 49.8063 26.4794 49.8063 27.6234V34.3334H47.6943V27.8654C47.6943 26.736 47.4156 25.8854 46.8583 25.3134C46.3156 24.7414 45.5456 24.4554 44.5483 24.4554C43.8003 24.4554 43.1476 24.602 42.5903 24.8954C42.0329 25.1887 41.6003 25.6214 41.2923 26.1934C40.9989 26.7654 40.8523 27.4767 40.8523 28.3274V34.3334H38.7403V22.6734H40.7643V25.8194L40.4343 24.9834C40.8156 24.2207 41.4023 23.6267 42.1943 23.2014C42.9863 22.776 43.9103 22.5634 44.9663 22.5634ZM57.7189 34.4654C56.5456 34.4654 55.6362 34.15 54.9909 33.5194C54.3456 32.8887 54.0229 31.9867 54.0229 30.8134V20.1214H56.1349V30.7254C56.1349 31.356 56.2889 31.84 56.5969 32.1774C56.9196 32.5147 57.3742 32.6834 57.9609 32.6834C58.6209 32.6834 59.1709 32.5 59.6109 32.1334L60.2709 33.6514C59.9482 33.93 59.5596 34.1354 59.1049 34.2674C58.6649 34.3994 58.2029 34.4654 57.7189 34.4654ZM52.0429 24.4114V22.6734H59.4789V24.4114H52.0429ZM67.6295 34.4654C66.3829 34.4654 65.2829 34.2087 64.3295 33.6954C63.3909 33.182 62.6575 32.478 62.1295 31.5834C61.6162 30.6887 61.3595 29.662 61.3595 28.5034C61.3595 27.3447 61.6089 26.318 62.1075 25.4234C62.6209 24.5287 63.3175 23.832 64.1975 23.3334C65.0922 22.82 66.0969 22.5634 67.2115 22.5634C68.3409 22.5634 69.3382 22.8127 70.2035 23.3114C71.0689 23.81 71.7435 24.514 72.2275 25.4234C72.7262 26.318 72.9755 27.3667 72.9755 28.5694C72.9755 28.6574 72.9682 28.76 72.9535 28.8774C72.9535 28.9947 72.9462 29.1047 72.9315 29.2074H63.0095V27.6894H71.8315L70.9735 28.2174C70.9882 27.4694 70.8342 26.802 70.5115 26.2154C70.1889 25.6287 69.7415 25.174 69.1695 24.8514C68.6122 24.514 67.9595 24.3454 67.2115 24.3454C66.4782 24.3454 65.8255 24.514 65.2535 24.8514C64.6815 25.174 64.2342 25.636 63.9115 26.2374C63.5889 26.824 63.4275 27.4987 63.4275 28.2614V28.6134C63.4275 29.3907 63.6035 30.0874 63.9555 30.7034C64.3222 31.3047 64.8282 31.774 65.4735 32.1114C66.1189 32.4487 66.8595 32.6174 67.6955 32.6174C68.3849 32.6174 69.0082 32.5 69.5655 32.2654C70.1375 32.0307 70.6362 31.6787 71.0615 31.2094L72.2275 32.5734C71.6995 33.1894 71.0395 33.6587 70.2475 33.9814C69.4702 34.304 68.5975 34.4654 67.6295 34.4654ZM75.9083 34.3334V22.6734H77.9323V25.8414L77.7343 25.0494C78.0569 24.2427 78.5996 23.6267 79.3623 23.2014C80.1249 22.776 81.0636 22.5634 82.1783 22.5634V24.6094C82.0903 24.5947 82.0023 24.5874 81.9143 24.5874C81.8409 24.5874 81.7676 24.5874 81.6943 24.5874C80.5649 24.5874 79.6703 24.9247 79.0103 25.5994C78.3503 26.274 78.0203 27.2494 78.0203 28.5254V34.3334H75.9083ZM98.0339 34.5094C96.8606 34.5094 95.7752 34.3187 94.7779 33.9374C93.7952 33.5414 92.9372 32.9914 92.2039 32.2874C91.4852 31.5687 90.9206 30.7327 90.5099 29.7794C90.0992 28.826 89.8939 27.7774 89.8939 26.6334C89.8939 25.4894 90.0992 24.4407 90.5099 23.4874C90.9206 22.534 91.4926 21.7054 92.2259 21.0014C92.9592 20.2827 93.8172 19.7327 94.7999 19.3514C95.7972 18.9554 96.8826 18.7574 98.0559 18.7574C99.2439 18.7574 100.337 18.9627 101.334 19.3734C102.346 19.7694 103.204 20.3634 103.908 21.1554L102.478 22.5414C101.891 21.9254 101.231 21.4707 100.498 21.1774C99.7646 20.8694 98.9799 20.7154 98.1439 20.7154C97.2786 20.7154 96.4719 20.862 95.7239 21.1554C94.9906 21.4487 94.3526 21.8594 93.8099 22.3874C93.2672 22.9154 92.8419 23.546 92.5339 24.2794C92.2406 24.998 92.0939 25.7827 92.0939 26.6334C92.0939 27.484 92.2406 28.276 92.5339 29.0094C92.8419 29.728 93.2672 30.3514 93.8099 30.8794C94.3526 31.4074 94.9906 31.818 95.7239 32.1114C96.4719 32.4047 97.2786 32.5514 98.1439 32.5514C98.9799 32.5514 99.7646 32.4047 100.498 32.1114C101.231 31.8034 101.891 31.334 102.478 30.7034L103.908 32.0894C103.204 32.8814 102.346 33.4827 101.334 33.8934C100.337 34.304 99.2366 34.5094 98.0339 34.5094ZM107.046 34.3334V18.9334H109.246V34.3334H107.046ZM113.857 34.3334V18.9334H115.661L125.847 31.5834H124.901V18.9334H127.101V34.3334H125.297L115.111 21.6834H116.057V34.3334H113.857ZM143.537 22.5634C144.49 22.5634 145.326 22.7467 146.045 23.1134C146.778 23.48 147.35 24.0374 147.761 24.7854C148.171 25.5334 148.377 26.4794 148.377 27.6234V34.3334H146.265V27.8654C146.265 26.736 145.986 25.8854 145.429 25.3134C144.886 24.7414 144.116 24.4554 143.119 24.4554C142.371 24.4554 141.718 24.602 141.161 24.8954C140.603 25.1887 140.171 25.6214 139.863 26.1934C139.569 26.7654 139.423 27.4767 139.423 28.3274V34.3334H137.311V22.6734H139.335V25.8194L139.005 24.9834C139.386 24.2207 139.973 23.6267 140.765 23.2014C141.557 22.776 142.481 22.5634 143.537 22.5634ZM157.191 34.4654C156.194 34.4654 155.314 34.282 154.551 33.9154C153.803 33.5487 153.217 32.9914 152.791 32.2434C152.381 31.4807 152.175 30.5274 152.175 29.3834V22.6734H154.287V29.1414C154.287 30.2854 154.559 31.1434 155.101 31.7154C155.659 32.2874 156.436 32.5734 157.433 32.5734C158.167 32.5734 158.805 32.4267 159.347 32.1334C159.89 31.8254 160.308 31.3854 160.601 30.8134C160.895 30.2267 161.041 29.5227 161.041 28.7014V22.6734H163.153V34.3334H161.151V31.1874L161.481 32.0234C161.1 32.8007 160.528 33.402 159.765 33.8274C159.003 34.2527 158.145 34.4654 157.191 34.4654ZM181.76 22.5634C182.699 22.5634 183.527 22.7467 184.246 23.1134C184.965 23.48 185.522 24.0374 185.918 24.7854C186.329 25.5334 186.534 26.4794 186.534 27.6234V34.3334H184.422V27.8654C184.422 26.736 184.158 25.8854 183.63 25.3134C183.102 24.7414 182.361 24.4554 181.408 24.4554C180.704 24.4554 180.088 24.602 179.56 24.8954C179.032 25.1887 178.621 25.6214 178.328 26.1934C178.049 26.7654 177.91 27.4767 177.91 28.3274V34.3334H175.798V27.8654C175.798 26.736 175.534 25.8854 175.006 25.3134C174.493 24.7414 173.752 24.4554 172.784 24.4554C172.095 24.4554 171.486 24.602 170.958 24.8954C170.43 25.1887 170.019 25.6214 169.726 26.1934C169.433 26.7654 169.286 27.4767 169.286 28.3274V34.3334H167.174V22.6734H169.198V25.7754L168.868 24.9834C169.235 24.2207 169.799 23.6267 170.562 23.2014C171.325 22.776 172.212 22.5634 173.224 22.5634C174.339 22.5634 175.299 22.842 176.106 23.3994C176.913 23.942 177.441 24.7707 177.69 25.8854L176.832 25.5334C177.184 24.6387 177.8 23.92 178.68 23.3774C179.56 22.8347 180.587 22.5634 181.76 22.5634ZM196.602 34.4654C195.605 34.4654 194.703 34.2454 193.896 33.8054C193.104 33.3507 192.473 32.6834 192.004 31.8034C191.549 30.9234 191.322 29.8234 191.322 28.5034C191.322 27.1834 191.557 26.0834 192.026 25.2034C192.51 24.3234 193.148 23.6634 193.94 23.2234C194.747 22.7834 195.634 22.5634 196.602 22.5634C197.746 22.5634 198.758 22.8127 199.638 23.3114C200.518 23.81 201.215 24.5067 201.728 25.4014C202.241 26.2814 202.498 27.3154 202.498 28.5034C202.498 29.6914 202.241 30.7327 201.728 31.6274C201.215 32.522 200.518 33.2187 199.638 33.7174C198.758 34.216 197.746 34.4654 196.602 34.4654ZM190.42 34.3334V18.0094H192.532V25.7754L192.312 28.4814L192.444 31.1874V34.3334H190.42ZM196.426 32.6174C197.174 32.6174 197.841 32.4487 198.428 32.1114C199.029 31.774 199.499 31.2974 199.836 30.6814C200.188 30.0507 200.364 29.3247 200.364 28.5034C200.364 27.6674 200.188 26.9487 199.836 26.3474C199.499 25.7314 199.029 25.2547 198.428 24.9174C197.841 24.58 197.174 24.4114 196.426 24.4114C195.693 24.4114 195.025 24.58 194.424 24.9174C193.837 25.2547 193.368 25.7314 193.016 26.3474C192.679 26.9487 192.51 27.6674 192.51 28.5034C192.51 29.3247 192.679 30.0507 193.016 30.6814C193.368 31.2974 193.837 31.774 194.424 32.1114C195.025 32.4487 195.693 32.6174 196.426 32.6174ZM210.608 34.4654C209.361 34.4654 208.261 34.2087 207.308 33.6954C206.369 33.182 205.636 32.478 205.108 31.5834C204.595 30.6887 204.338 29.662 204.338 28.5034C204.338 27.3447 204.587 26.318 205.086 25.4234C205.599 24.5287 206.296 23.832 207.176 23.3334C208.071 22.82 209.075 22.5634 210.19 22.5634C211.319 22.5634 212.317 22.8127 213.182 23.3114C214.047 23.81 214.722 24.514 215.206 25.4234C215.705 26.318 215.954 27.3667 215.954 28.5694C215.954 28.6574 215.947 28.76 215.932 28.8774C215.932 28.9947 215.925 29.1047 215.91 29.2074H205.988V27.6894H214.81L213.952 28.2174C213.967 27.4694 213.813 26.802 213.49 26.2154C213.167 25.6287 212.72 25.174 212.148 24.8514C211.591 24.514 210.938 24.3454 210.19 24.3454C209.457 24.3454 208.804 24.514 208.232 24.8514C207.66 25.174 207.213 25.636 206.89 26.2374C206.567 26.824 206.406 27.4987 206.406 28.2614V28.6134C206.406 29.3907 206.582 30.0874 206.934 30.7034C207.301 31.3047 207.807 31.774 208.452 32.1114C209.097 32.4487 209.838 32.6174 210.674 32.6174C211.363 32.6174 211.987 32.5 212.544 32.2654C213.116 32.0307 213.615 31.6787 214.04 31.2094L215.206 32.5734C214.678 33.1894 214.018 33.6587 213.226 33.9814C212.449 34.304 211.576 34.4654 210.608 34.4654ZM218.887 34.3334V22.6734H220.911V25.8414L220.713 25.0494C221.035 24.2427 221.578 23.6267 222.341 23.2014C223.103 22.776 224.042 22.5634 225.157 22.5634V24.6094C225.069 24.5947 224.981 24.5874 224.893 24.5874C224.819 24.5874 224.746 24.5874 224.673 24.5874C223.543 24.5874 222.649 24.9247 221.989 25.5994C221.329 26.274 220.999 27.2494 220.999 28.5254V34.3334H218.887Z" fill="#D1D2D3"/>
<rect x="0.5" y="0.5" width="760" height="51" rx="9.5" stroke="#00AAE1"/>
</svg>
