<svg width="23" height="47" viewBox="0 0 23 47" fill="none" xmlns="http://www.w3.org/2000/svg">
<rect x="5.15063" y="5.15063" width="5.15068" height="5.15068" rx="1" transform="rotate(180 5.15063 5.15063)" fill="#E7E7E7"/>
<rect x="5.15063" y="30.2603" width="5.15068" height="5.15068" rx="1" transform="rotate(180 5.15063 30.2603)" fill="#E7E7E7"/>
<rect x="5.15063" y="13.5205" width="5.15068" height="5.15068" rx="1" transform="rotate(180 5.15063 13.5205)" fill="#E7E7E7"/>
<rect x="5.15063" y="38.6301" width="5.15068" height="5.15068" rx="1" transform="rotate(180 5.15063 38.6301)" fill="#E7E7E7"/>
<rect x="5.15063" y="21.8904" width="5.15068" height="5.15068" rx="1" transform="rotate(180 5.15063 21.8904)" fill="#E7E7E7"/>
<rect x="5.15063" y="47" width="5.15068" height="5.15068" rx="1" transform="rotate(180 5.15063 47)" fill="#E7E7E7"/>
<rect x="13.5205" y="5.15063" width="5.15068" height="5.15068" rx="1" transform="rotate(180 13.5205 5.15063)" fill="#E7E7E7"/>
<rect x="13.5205" y="30.2603" width="5.15068" height="5.15068" rx="1" transform="rotate(180 13.5205 30.2603)" fill="#E7E7E7"/>
<rect x="13.5205" y="13.5205" width="5.15068" height="5.15068" rx="1" transform="rotate(180 13.5205 13.5205)" fill="#E7E7E7"/>
<rect x="13.5205" y="38.6301" width="5.15068" height="5.15068" rx="1" transform="rotate(180 13.5205 38.6301)" fill="#E7E7E7"/>
<rect x="13.5205" y="21.8904" width="5.15068" height="5.15068" rx="1" transform="rotate(180 13.5205 21.8904)" fill="#E7E7E7"/>
<rect x="13.5205" y="47" width="5.15068" height="5.15068" rx="1" transform="rotate(180 13.5205 47)" fill="#E7E7E7"/>
<rect x="21.8904" y="5.15063" width="5.15068" height="5.15068" rx="1" transform="rotate(180 21.8904 5.15063)" fill="#E7E7E7"/>
<rect x="21.8904" y="30.2603" width="5.15068" height="5.15068" rx="1" transform="rotate(180 21.8904 30.2603)" fill="#E7E7E7"/>
<rect x="21.8904" y="13.5205" width="5.15068" height="5.15068" rx="1" transform="rotate(180 21.8904 13.5205)" fill="#E7E7E7"/>
<rect x="21.8904" y="38.6301" width="5.15068" height="5.15068" rx="1" transform="rotate(180 21.8904 38.6301)" fill="#E7E7E7"/>
<rect x="21.8904" y="21.8904" width="5.15068" height="5.15068" rx="1" transform="rotate(180 21.8904 21.8904)" fill="#E7E7E7"/>
<rect x="21.8904" y="47" width="5.15068" height="5.15068" rx="1" transform="rotate(180 21.8904 47)" fill="#E7E7E7"/>
</svg>
