<svg width="39" height="38" viewBox="0 0 39 38" fill="none" xmlns="http://www.w3.org/2000/svg">
<path d="M0.00227712 18.9546C-0.00449889 8.53936 8.73859 -0.161782 19.8011 0.00178079C30.7098 0.163365 39.2449 8.93838 38.9948 19.4466C38.7475 29.8474 29.8831 38.2023 19.007 37.9958C8.5475 37.798 -0.142729 29.1404 0.00227712 18.9546ZM19.818 30.4805C19.818 30.47 19.818 30.4601 19.818 30.4495C20.2693 30.4495 20.7213 30.4535 21.1726 30.4489C22.7392 30.4337 24.3126 30.5254 25.865 30.2438C28.2684 29.8078 29.9312 28.5013 30.7647 26.2371C31.1787 25.112 31.2315 23.936 31.2478 22.7634C31.2756 20.6872 31.281 18.6097 31.2512 16.5328C31.2336 15.3061 31.2336 14.0655 31.0445 12.858C30.6156 10.1156 28.8471 8.30391 26.0513 7.76706C24.8452 7.53556 23.5875 7.49665 22.3523 7.4795C19.9827 7.44653 17.6118 7.47753 15.2415 7.51182C14.5341 7.52171 13.8179 7.57711 13.1227 7.70176C10.6426 8.14892 8.93441 9.49964 8.1301 11.866C7.78114 12.8916 7.72964 13.9561 7.70592 15.0192C7.6673 16.7109 7.64562 18.4033 7.66527 20.0949C7.68288 21.6198 7.67679 23.1519 7.8367 24.6655C8.19447 28.0482 10.6135 30.187 14.1662 30.3677C16.0472 30.4634 17.9336 30.4462 19.818 30.4799V30.4805Z" fill="white"/>
</svg>
