<svg width="349" height="32" viewBox="0 0 349 32" fill="none" xmlns="http://www.w3.org/2000/svg">
<path d="M8.11409 25L0.158086 6.8H3.82409L10.9221 23.258H8.81609L15.9921 6.8H19.3721L11.4421 25H8.11409ZM21.1076 25V11.116H24.3576V25H21.1076ZM22.7456 8.828C22.1389 8.828 21.6363 8.63733 21.2376 8.256C20.8563 7.87467 20.6656 7.41533 20.6656 6.878C20.6656 6.32333 20.8563 5.864 21.2376 5.5C21.6363 5.11867 22.1389 4.928 22.7456 4.928C23.3523 4.928 23.8463 5.11 24.2276 5.474C24.6263 5.82067 24.8256 6.26267 24.8256 6.8C24.8256 7.372 24.6349 7.85733 24.2536 8.256C23.8723 8.63733 23.3696 8.828 22.7456 8.828ZM35.1492 25.182C33.6065 25.182 32.2545 24.8787 31.0932 24.272C29.9492 23.648 29.0565 22.7987 28.4152 21.724C27.7912 20.6493 27.4792 19.4273 27.4792 18.058C27.4792 16.6713 27.7825 15.4493 28.3892 14.392C29.0132 13.3173 29.8625 12.4767 30.9372 11.87C32.0292 11.2633 33.2685 10.96 34.6552 10.96C36.0072 10.96 37.2119 11.2547 38.2692 11.844C39.3265 12.4333 40.1585 13.2653 40.7652 14.34C41.3719 15.4147 41.6752 16.68 41.6752 18.136C41.6752 18.2747 41.6665 18.4307 41.6492 18.604C41.6492 18.7773 41.6405 18.942 41.6232 19.098H30.0532V16.94H39.9072L38.6332 17.616C38.6505 16.8187 38.4859 16.1167 38.1392 15.51C37.7925 14.9033 37.3159 14.4267 36.7092 14.08C36.1199 13.7333 35.4352 13.56 34.6552 13.56C33.8579 13.56 33.1559 13.7333 32.5492 14.08C31.9599 14.4267 31.4919 14.912 31.1452 15.536C30.8159 16.1427 30.6512 16.862 30.6512 17.694V18.214C30.6512 19.046 30.8419 19.7827 31.2232 20.424C31.6045 21.0653 32.1419 21.5593 32.8352 21.906C33.5285 22.2527 34.3259 22.426 35.2272 22.426C36.0072 22.426 36.7092 22.3047 37.3332 22.062C37.9572 21.8193 38.5119 21.438 38.9972 20.918L40.7392 22.92C40.1152 23.648 39.3265 24.2113 38.3732 24.61C37.4372 24.9913 36.3625 25.182 35.1492 25.182ZM47.6111 25L42.5151 11.116H45.5831L49.9511 23.362H48.4951L53.0711 11.116H55.8011L60.2471 23.362H58.8171L63.3151 11.116H66.2011L61.0791 25H57.9591L53.9031 14.158H54.8651L50.7311 25H47.6111ZM73.3593 25L81.5493 6.8H84.8773L93.0933 25H89.5573L82.5113 8.594H83.8633L76.8433 25H73.3593ZM77.1293 20.788L78.0393 18.136H87.8673L88.7773 20.788H77.1293ZM100.845 25.182C99.5102 25.182 98.3056 24.8873 97.2309 24.298C96.1736 23.6913 95.3416 22.8593 94.7349 21.802C94.1282 20.7447 93.8249 19.4967 93.8249 18.058C93.8249 16.6193 94.1282 15.3713 94.7349 14.314C95.3416 13.2567 96.1736 12.4333 97.2309 11.844C98.3056 11.2547 99.5102 10.96 100.845 10.96C102.006 10.96 103.046 11.22 103.965 11.74C104.884 12.2427 105.612 13.014 106.149 14.054C106.686 15.094 106.955 16.4287 106.955 18.058C106.955 19.67 106.695 21.0047 106.175 22.062C105.655 23.102 104.936 23.882 104.017 24.402C103.098 24.922 102.041 25.182 100.845 25.182ZM101.235 22.4C102.015 22.4 102.708 22.2267 103.315 21.88C103.939 21.5333 104.433 21.0307 104.797 20.372C105.178 19.7133 105.369 18.942 105.369 18.058C105.369 17.1567 105.178 16.3853 104.797 15.744C104.433 15.0853 103.939 14.5827 103.315 14.236C102.708 13.8893 102.015 13.716 101.235 13.716C100.455 13.716 99.7529 13.8893 99.1289 14.236C98.5222 14.5827 98.0282 15.0853 97.6469 15.744C97.2829 16.3853 97.1009 17.1567 97.1009 18.058C97.1009 18.942 97.2829 19.7133 97.6469 20.372C98.0282 21.0307 98.5222 21.5333 99.1289 21.88C99.7529 22.2267 100.455 22.4 101.235 22.4ZM105.447 25V21.724L105.577 18.032L105.317 14.34V5.708H108.541V25H105.447ZM116.511 25L110.557 11.116H113.937L119.059 23.362H117.395L122.699 11.116H125.819L119.865 25H116.511ZM135.972 25V22.192L135.79 21.594V16.68C135.79 15.7267 135.504 14.99 134.932 14.47C134.36 13.9327 133.493 13.664 132.332 13.664C131.552 13.664 130.781 13.7853 130.018 14.028C129.273 14.2707 128.64 14.6087 128.12 15.042L126.846 12.676C127.591 12.104 128.475 11.6793 129.498 11.402C130.538 11.1073 131.613 10.96 132.722 10.96C134.733 10.96 136.284 11.4453 137.376 12.416C138.485 13.3693 139.04 14.8513 139.04 16.862V25H135.972ZM131.604 25.182C130.564 25.182 129.654 25.0087 128.874 24.662C128.094 24.298 127.487 23.804 127.054 23.18C126.638 22.5387 126.43 21.8193 126.43 21.022C126.43 20.242 126.612 19.54 126.976 18.916C127.357 18.292 127.973 17.798 128.822 17.434C129.671 17.07 130.798 16.888 132.202 16.888H136.232V19.046H132.436C131.327 19.046 130.581 19.228 130.2 19.592C129.819 19.9387 129.628 20.372 129.628 20.892C129.628 21.4813 129.862 21.9493 130.33 22.296C130.798 22.6427 131.448 22.816 132.28 22.816C133.077 22.816 133.788 22.634 134.412 22.27C135.053 21.906 135.513 21.3687 135.79 20.658L136.336 22.608C136.024 23.4227 135.461 24.0553 134.646 24.506C133.849 24.9567 132.835 25.182 131.604 25.182ZM151.089 10.96C152.198 10.96 153.186 11.1767 154.053 11.61C154.937 12.0433 155.63 12.7107 156.133 13.612C156.636 14.496 156.887 15.64 156.887 17.044V25H153.637V17.46C153.637 16.2293 153.342 15.3107 152.753 14.704C152.181 14.0973 151.375 13.794 150.335 13.794C149.572 13.794 148.896 13.95 148.307 14.262C147.718 14.574 147.258 15.042 146.929 15.666C146.617 16.2727 146.461 17.044 146.461 17.98V25H143.211V11.116H146.305V14.86L145.759 13.716C146.244 12.832 146.946 12.156 147.865 11.688C148.801 11.2027 149.876 10.96 151.089 10.96ZM167.405 25.182C165.949 25.182 164.649 24.8787 163.505 24.272C162.379 23.648 161.495 22.7987 160.853 21.724C160.212 20.6493 159.891 19.4273 159.891 18.058C159.891 16.6713 160.212 15.4493 160.853 14.392C161.495 13.3173 162.379 12.4767 163.505 11.87C164.649 11.2633 165.949 10.96 167.405 10.96C168.757 10.96 169.945 11.2373 170.967 11.792C172.007 12.3293 172.796 13.1267 173.333 14.184L170.837 15.64C170.421 14.9813 169.91 14.496 169.303 14.184C168.714 13.872 168.073 13.716 167.379 13.716C166.582 13.716 165.863 13.8893 165.221 14.236C164.58 14.5827 164.077 15.0853 163.713 15.744C163.349 16.3853 163.167 17.1567 163.167 18.058C163.167 18.9593 163.349 19.7393 163.713 20.398C164.077 21.0393 164.58 21.5333 165.221 21.88C165.863 22.2267 166.582 22.4 167.379 22.4C168.073 22.4 168.714 22.244 169.303 21.932C169.91 21.62 170.421 21.1347 170.837 20.476L173.333 21.932C172.796 22.972 172.007 23.778 170.967 24.35C169.945 24.9047 168.757 25.182 167.405 25.182ZM182.466 25.182C180.923 25.182 179.571 24.8787 178.41 24.272C177.266 23.648 176.373 22.7987 175.732 21.724C175.108 20.6493 174.796 19.4273 174.796 18.058C174.796 16.6713 175.099 15.4493 175.706 14.392C176.33 13.3173 177.179 12.4767 178.254 11.87C179.346 11.2633 180.585 10.96 181.972 10.96C183.324 10.96 184.528 11.2547 185.586 11.844C186.643 12.4333 187.475 13.2653 188.082 14.34C188.688 15.4147 188.992 16.68 188.992 18.136C188.992 18.2747 188.983 18.4307 188.966 18.604C188.966 18.7773 188.957 18.942 188.94 19.098H177.37V16.94H187.224L185.95 17.616C185.967 16.8187 185.802 16.1167 185.456 15.51C185.109 14.9033 184.632 14.4267 184.026 14.08C183.436 13.7333 182.752 13.56 181.972 13.56C181.174 13.56 180.472 13.7333 179.866 14.08C179.276 14.4267 178.808 14.912 178.462 15.536C178.132 16.1427 177.968 16.862 177.968 17.694V18.214C177.968 19.046 178.158 19.7827 178.54 20.424C178.921 21.0653 179.458 21.5593 180.152 21.906C180.845 22.2527 181.642 22.426 182.544 22.426C183.324 22.426 184.026 22.3047 184.65 22.062C185.274 21.8193 185.828 21.438 186.314 20.918L188.056 22.92C187.432 23.648 186.643 24.2113 185.69 24.61C184.754 24.9913 183.679 25.182 182.466 25.182ZM197.989 25.182C196.655 25.182 195.45 24.8873 194.375 24.298C193.318 23.6913 192.486 22.8593 191.879 21.802C191.273 20.7447 190.969 19.4967 190.969 18.058C190.969 16.6193 191.273 15.3713 191.879 14.314C192.486 13.2567 193.318 12.4333 194.375 11.844C195.45 11.2547 196.655 10.96 197.989 10.96C199.151 10.96 200.191 11.22 201.109 11.74C202.028 12.2427 202.756 13.014 203.293 14.054C203.831 15.094 204.099 16.4287 204.099 18.058C204.099 19.67 203.839 21.0047 203.319 22.062C202.799 23.102 202.08 23.882 201.161 24.402C200.243 24.922 199.185 25.182 197.989 25.182ZM198.379 22.4C199.159 22.4 199.853 22.2267 200.459 21.88C201.083 21.5333 201.577 21.0307 201.941 20.372C202.323 19.7133 202.513 18.942 202.513 18.058C202.513 17.1567 202.323 16.3853 201.941 15.744C201.577 15.0853 201.083 14.5827 200.459 14.236C199.853 13.8893 199.159 13.716 198.379 13.716C197.599 13.716 196.897 13.8893 196.273 14.236C195.667 14.5827 195.173 15.0853 194.791 15.744C194.427 16.3853 194.245 17.1567 194.245 18.058C194.245 18.942 194.427 19.7133 194.791 20.372C195.173 21.0307 195.667 21.5333 196.273 21.88C196.897 22.2267 197.599 22.4 198.379 22.4ZM202.591 25V21.724L202.721 18.032L202.461 14.34V5.708H205.685V25H202.591ZM220.555 15.172H229.629V18.032H220.555V15.172ZM220.841 25H217.461V6.8H230.747V9.634H220.841V25ZM239.848 25.182C238.306 25.182 236.954 24.8787 235.792 24.272C234.648 23.648 233.756 22.7987 233.114 21.724C232.49 20.6493 232.178 19.4273 232.178 18.058C232.178 16.6713 232.482 15.4493 233.088 14.392C233.712 13.3173 234.562 12.4767 235.636 11.87C236.728 11.2633 237.968 10.96 239.354 10.96C240.706 10.96 241.911 11.2547 242.968 11.844C244.026 12.4333 244.858 13.2653 245.464 14.34C246.071 15.4147 246.374 16.68 246.374 18.136C246.374 18.2747 246.366 18.4307 246.348 18.604C246.348 18.7773 246.34 18.942 246.322 19.098H234.752V16.94H244.606L243.332 17.616C243.35 16.8187 243.185 16.1167 242.838 15.51C242.492 14.9033 242.015 14.4267 241.408 14.08C240.819 13.7333 240.134 13.56 239.354 13.56C238.557 13.56 237.855 13.7333 237.248 14.08C236.659 14.4267 236.191 14.912 235.844 15.536C235.515 16.1427 235.35 16.862 235.35 17.694V18.214C235.35 19.046 235.541 19.7827 235.922 20.424C236.304 21.0653 236.841 21.5593 237.534 21.906C238.228 22.2527 239.025 22.426 239.926 22.426C240.706 22.426 241.408 22.3047 242.032 22.062C242.656 21.8193 243.211 21.438 243.696 20.918L245.438 22.92C244.814 23.648 244.026 24.2113 243.072 24.61C242.136 24.9913 241.062 25.182 239.848 25.182ZM257.669 25V22.192L257.487 21.594V16.68C257.487 15.7267 257.201 14.99 256.629 14.47C256.057 13.9327 255.191 13.664 254.029 13.664C253.249 13.664 252.478 13.7853 251.715 14.028C250.97 14.2707 250.337 14.6087 249.817 15.042L248.543 12.676C249.289 12.104 250.173 11.6793 251.195 11.402C252.235 11.1073 253.31 10.96 254.419 10.96C256.43 10.96 257.981 11.4453 259.073 12.416C260.183 13.3693 260.737 14.8513 260.737 16.862V25H257.669ZM253.301 25.182C252.261 25.182 251.351 25.0087 250.571 24.662C249.791 24.298 249.185 23.804 248.751 23.18C248.335 22.5387 248.127 21.8193 248.127 21.022C248.127 20.242 248.309 19.54 248.673 18.916C249.055 18.292 249.67 17.798 250.519 17.434C251.369 17.07 252.495 16.888 253.899 16.888H257.929V19.046H254.133C253.024 19.046 252.279 19.228 251.897 19.592C251.516 19.9387 251.325 20.372 251.325 20.892C251.325 21.4813 251.559 21.9493 252.027 22.296C252.495 22.6427 253.145 22.816 253.977 22.816C254.775 22.816 255.485 22.634 256.109 22.27C256.751 21.906 257.21 21.3687 257.487 20.658L258.033 22.608C257.721 23.4227 257.158 24.0553 256.343 24.506C255.546 24.9567 254.532 25.182 253.301 25.182ZM270.134 25.182C268.609 25.182 267.43 24.792 266.598 24.012C265.766 23.2147 265.35 22.0447 265.35 20.502V8.048H268.6V20.424C268.6 21.0827 268.765 21.594 269.094 21.958C269.441 22.322 269.918 22.504 270.524 22.504C271.252 22.504 271.859 22.3133 272.344 21.932L273.254 24.246C272.873 24.558 272.405 24.792 271.85 24.948C271.296 25.104 270.724 25.182 270.134 25.182ZM263.062 13.82V11.22H272.318V13.82H263.062ZM281.804 25.182C280.625 25.182 279.585 24.9653 278.684 24.532C277.783 24.0813 277.081 23.4053 276.578 22.504C276.075 21.5853 275.824 20.4327 275.824 19.046V11.116H279.074V18.604C279.074 19.852 279.351 20.788 279.906 21.412C280.478 22.0187 281.284 22.322 282.324 22.322C283.087 22.322 283.745 22.166 284.3 21.854C284.872 21.542 285.314 21.074 285.626 20.45C285.955 19.826 286.12 19.0547 286.12 18.136V11.116H289.37V25H286.276V21.256L286.822 22.4C286.354 23.3013 285.669 23.9947 284.768 24.48C283.867 24.948 282.879 25.182 281.804 25.182ZM293.625 25V11.116H296.719V14.938L296.355 13.82C296.771 12.884 297.421 12.1733 298.305 11.688C299.206 11.2027 300.324 10.96 301.659 10.96V14.054C301.52 14.0193 301.39 14.002 301.269 14.002C301.148 13.9847 301.026 13.976 300.905 13.976C299.674 13.976 298.695 14.34 297.967 15.068C297.239 15.7787 296.875 16.8447 296.875 18.266V25H293.625ZM310.815 25.182C309.273 25.182 307.921 24.8787 306.759 24.272C305.615 23.648 304.723 22.7987 304.081 21.724C303.457 20.6493 303.145 19.4273 303.145 18.058C303.145 16.6713 303.449 15.4493 304.055 14.392C304.679 13.3173 305.529 12.4767 306.603 11.87C307.695 11.2633 308.935 10.96 310.321 10.96C311.673 10.96 312.878 11.2547 313.935 11.844C314.993 12.4333 315.825 13.2653 316.431 14.34C317.038 15.4147 317.341 16.68 317.341 18.136C317.341 18.2747 317.333 18.4307 317.315 18.604C317.315 18.7773 317.307 18.942 317.289 19.098H305.719V16.94H315.573L314.299 17.616C314.317 16.8187 314.152 16.1167 313.805 15.51C313.459 14.9033 312.982 14.4267 312.375 14.08C311.786 13.7333 311.101 13.56 310.321 13.56C309.524 13.56 308.822 13.7333 308.215 14.08C307.626 14.4267 307.158 14.912 306.811 15.536C306.482 16.1427 306.317 16.862 306.317 17.694V18.214C306.317 19.046 306.508 19.7827 306.889 20.424C307.271 21.0653 307.808 21.5593 308.501 21.906C309.195 22.2527 309.992 22.426 310.893 22.426C311.673 22.426 312.375 22.3047 312.999 22.062C313.623 21.8193 314.178 21.438 314.663 20.918L316.405 22.92C315.781 23.648 314.993 24.2113 314.039 24.61C313.103 24.9913 312.029 25.182 310.815 25.182ZM324.753 25.182C323.592 25.182 322.474 25.0347 321.399 24.74C320.342 24.428 319.501 24.0553 318.877 23.622L320.125 21.152C320.749 21.5507 321.494 21.88 322.361 22.14C323.228 22.4 324.094 22.53 324.961 22.53C325.984 22.53 326.72 22.3913 327.171 22.114C327.639 21.8367 327.873 21.464 327.873 20.996C327.873 20.6147 327.717 20.3287 327.405 20.138C327.093 19.93 326.686 19.774 326.183 19.67C325.68 19.566 325.117 19.4707 324.493 19.384C323.886 19.2973 323.271 19.1847 322.647 19.046C322.04 18.89 321.486 18.6733 320.983 18.396C320.48 18.1013 320.073 17.7113 319.761 17.226C319.449 16.7407 319.293 16.0993 319.293 15.302C319.293 14.418 319.544 13.6553 320.047 13.014C320.55 12.3553 321.252 11.8527 322.153 11.506C323.072 11.142 324.155 10.96 325.403 10.96C326.339 10.96 327.284 11.064 328.237 11.272C329.19 11.48 329.979 11.7747 330.603 12.156L329.355 14.626C328.696 14.2273 328.029 13.9587 327.353 13.82C326.694 13.664 326.036 13.586 325.377 13.586C324.389 13.586 323.652 13.7333 323.167 14.028C322.699 14.3227 322.465 14.6953 322.465 15.146C322.465 15.562 322.621 15.874 322.933 16.082C323.245 16.29 323.652 16.4547 324.155 16.576C324.658 16.6973 325.212 16.8013 325.819 16.888C326.443 16.9573 327.058 17.07 327.665 17.226C328.272 17.382 328.826 17.5987 329.329 17.876C329.849 18.136 330.265 18.5087 330.577 18.994C330.889 19.4793 331.045 20.112 331.045 20.892C331.045 21.7587 330.785 22.5127 330.265 23.154C329.762 23.7953 329.043 24.298 328.107 24.662C327.171 25.0087 326.053 25.182 324.753 25.182Z" fill="white"/>
<path d="M342 24L348 18L342 12" stroke="white" stroke-width="2" stroke-linecap="round" stroke-linejoin="round"/>
</svg>
