<svg width="291" height="37" viewBox="0 0 291 37" fill="none" xmlns="http://www.w3.org/2000/svg">
<path d="M25.1642 8.64923C23.1074 6.63525 20.3987 5.23056 17.3209 4.82086C9.77008 3.8157 2.82608 9.12815 1.82093 16.679C0.815778 24.2298 6.12822 31.1738 13.6791 32.179C21.2299 33.1841 28.1739 27.8717 29.1791 20.3209C29.4395 18.3647 29.2786 16.4361 28.7502 14.6534" stroke="#DFFC7C" stroke-width="3" stroke-linecap="round" stroke-linejoin="round"/>
<path d="M8.51477 19.0053L14.3039 24.7945L30.3091 8.78925" stroke="#333333" stroke-width="3" stroke-linecap="round" stroke-linejoin="round"/>
<path d="M48.06 29L57.66 8H59.85L69.45 29H67.11L58.29 9.29H59.19L50.37 29H48.06ZM51.84 23.39L52.5 21.59H64.71L65.37 23.39H51.84ZM78.5974 29.15C77.0974 29.15 75.7474 28.81 74.5474 28.13C73.3674 27.45 72.4374 26.51 71.7574 25.31C71.0774 24.09 70.7374 22.69 70.7374 21.11C70.7374 19.51 71.0774 18.11 71.7574 16.91C72.4374 15.71 73.3674 14.78 74.5474 14.12C75.7474 13.44 77.0974 13.1 78.5974 13.1C79.9774 13.1 81.2074 13.41 82.2874 14.03C83.3874 14.65 84.2574 15.56 84.8974 16.76C85.5574 17.94 85.8874 19.39 85.8874 21.11C85.8874 22.81 85.5674 24.26 84.9274 25.46C84.2874 26.66 83.4174 27.58 82.3174 28.22C81.2374 28.84 79.9974 29.15 78.5974 29.15ZM78.7474 27.26C79.8674 27.26 80.8674 27.01 81.7474 26.51C82.6474 25.99 83.3474 25.27 83.8474 24.35C84.3674 23.41 84.6274 22.33 84.6274 21.11C84.6274 19.87 84.3674 18.79 83.8474 17.87C83.3474 16.95 82.6474 16.24 81.7474 15.74C80.8674 15.22 79.8674 14.96 78.7474 14.96C77.6474 14.96 76.6574 15.22 75.7774 15.74C74.8974 16.24 74.1974 16.95 73.6774 17.87C73.1574 18.79 72.8974 19.87 72.8974 21.11C72.8974 22.33 73.1574 23.41 73.6774 24.35C74.1974 25.27 74.8974 25.99 75.7774 26.51C76.6574 27.01 77.6474 27.26 78.7474 27.26ZM84.6874 29V24.26L84.8974 21.08L84.5974 17.9V6.74H86.7274V29H84.6874ZM98.9295 29.15C97.4295 29.15 96.0795 28.81 94.8795 28.13C93.6995 27.45 92.7695 26.51 92.0895 25.31C91.4095 24.09 91.0695 22.69 91.0695 21.11C91.0695 19.51 91.4095 18.11 92.0895 16.91C92.7695 15.71 93.6995 14.78 94.8795 14.12C96.0795 13.44 97.4295 13.1 98.9295 13.1C100.309 13.1 101.539 13.41 102.619 14.03C103.719 14.65 104.589 15.56 105.229 16.76C105.889 17.94 106.219 19.39 106.219 21.11C106.219 22.81 105.899 24.26 105.259 25.46C104.619 26.66 103.749 27.58 102.649 28.22C101.569 28.84 100.329 29.15 98.9295 29.15ZM99.0795 27.26C100.199 27.26 101.199 27.01 102.079 26.51C102.979 25.99 103.679 25.27 104.179 24.35C104.699 23.41 104.959 22.33 104.959 21.11C104.959 19.87 104.699 18.79 104.179 17.87C103.679 16.95 102.979 16.24 102.079 15.74C101.199 15.22 100.199 14.96 99.0795 14.96C97.9795 14.96 96.9895 15.22 96.1095 15.74C95.2295 16.24 94.5295 16.95 94.0095 17.87C93.4895 18.79 93.2295 19.87 93.2295 21.11C93.2295 22.33 93.4895 23.41 94.0095 24.35C94.5295 25.27 95.2295 25.99 96.1095 26.51C96.9895 27.01 97.9795 27.26 99.0795 27.26ZM105.019 29V24.26L105.229 21.08L104.929 17.9V6.74H107.059V29H105.019ZM121.293 29V8H130.353C132.693 8 134.503 8.47 135.783 9.41C137.083 10.35 137.733 11.68 137.733 13.4C137.733 14.54 137.463 15.5 136.923 16.28C136.403 17.06 135.683 17.65 134.763 18.05C133.863 18.45 132.873 18.65 131.793 18.65L132.303 17.93C133.643 17.93 134.793 18.14 135.753 18.56C136.733 18.96 137.493 19.57 138.033 20.39C138.573 21.19 138.843 22.19 138.843 23.39C138.843 25.17 138.183 26.55 136.863 27.53C135.563 28.51 133.593 29 130.953 29H121.293ZM123.513 27.17H130.923C132.763 27.17 134.173 26.86 135.153 26.24C136.133 25.6 136.623 24.59 136.623 23.21C136.623 21.85 136.133 20.86 135.153 20.24C134.173 19.6 132.763 19.28 130.923 19.28H123.273V17.45H130.203C131.883 17.45 133.183 17.13 134.103 16.49C135.043 15.85 135.513 14.9 135.513 13.64C135.513 12.36 135.043 11.41 134.103 10.79C133.183 10.15 131.883 9.83 130.203 9.83H123.513V27.17ZM149.88 29.15C148.36 29.15 146.99 28.81 145.77 28.13C144.57 27.43 143.62 26.48 142.92 25.28C142.22 24.06 141.87 22.67 141.87 21.11C141.87 19.53 142.22 18.14 142.92 16.94C143.62 15.74 144.57 14.8 145.77 14.12C146.97 13.44 148.34 13.1 149.88 13.1C151.44 13.1 152.82 13.44 154.02 14.12C155.24 14.8 156.19 15.74 156.87 16.94C157.57 18.14 157.92 19.53 157.92 21.11C157.92 22.67 157.57 24.06 156.87 25.28C156.19 26.48 155.24 27.43 154.02 28.13C152.8 28.81 151.42 29.15 149.88 29.15ZM149.88 27.26C151.02 27.26 152.03 27.01 152.91 26.51C153.79 25.99 154.48 25.27 154.98 24.35C155.5 23.41 155.76 22.33 155.76 21.11C155.76 19.87 155.5 18.79 154.98 17.87C154.48 16.95 153.79 16.24 152.91 15.74C152.03 15.22 151.03 14.96 149.91 14.96C148.79 14.96 147.79 15.22 146.91 15.74C146.03 16.24 145.33 16.95 144.81 17.87C144.29 18.79 144.03 19.87 144.03 21.11C144.03 22.33 144.29 23.41 144.81 24.35C145.33 25.27 146.03 25.99 146.91 26.51C147.79 27.01 148.78 27.26 149.88 27.26ZM168.779 29.15C167.439 29.15 166.269 28.9 165.269 28.4C164.269 27.9 163.489 27.15 162.929 26.15C162.389 25.15 162.119 23.9 162.119 22.4V13.25H164.249V22.16C164.249 23.84 164.659 25.11 165.479 25.97C166.319 26.81 167.489 27.23 168.989 27.23C170.089 27.23 171.039 27.01 171.839 26.57C172.659 26.11 173.279 25.45 173.699 24.59C174.139 23.73 174.359 22.7 174.359 21.5V13.25H176.489V29H174.449V24.68L174.779 25.46C174.279 26.62 173.499 27.53 172.439 28.19C171.399 28.83 170.179 29.15 168.779 29.15ZM190.465 13.1C191.745 13.1 192.865 13.35 193.825 13.85C194.805 14.33 195.565 15.07 196.105 16.07C196.665 17.07 196.945 18.33 196.945 19.85V29H194.815V20.06C194.815 18.4 194.395 17.15 193.555 16.31C192.735 15.45 191.575 15.02 190.075 15.02C188.955 15.02 187.975 15.25 187.135 15.71C186.315 16.15 185.675 16.8 185.215 17.66C184.775 18.5 184.555 19.52 184.555 20.72V29H182.425V13.25H184.465V17.57L184.135 16.76C184.635 15.62 185.435 14.73 186.535 14.09C187.635 13.43 188.945 13.1 190.465 13.1ZM208.969 29.15C207.469 29.15 206.119 28.81 204.919 28.13C203.739 27.45 202.809 26.51 202.129 25.31C201.449 24.09 201.109 22.69 201.109 21.11C201.109 19.51 201.449 18.11 202.129 16.91C202.809 15.71 203.739 14.78 204.919 14.12C206.119 13.44 207.469 13.1 208.969 13.1C210.349 13.1 211.579 13.41 212.659 14.03C213.759 14.65 214.629 15.56 215.269 16.76C215.929 17.94 216.259 19.39 216.259 21.11C216.259 22.81 215.939 24.26 215.299 25.46C214.659 26.66 213.789 27.58 212.689 28.22C211.609 28.84 210.369 29.15 208.969 29.15ZM209.119 27.26C210.239 27.26 211.239 27.01 212.119 26.51C213.019 25.99 213.719 25.27 214.219 24.35C214.739 23.41 214.999 22.33 214.999 21.11C214.999 19.87 214.739 18.79 214.219 17.87C213.719 16.95 213.019 16.24 212.119 15.74C211.239 15.22 210.239 14.96 209.119 14.96C208.019 14.96 207.029 15.22 206.149 15.74C205.269 16.24 204.569 16.95 204.049 17.87C203.529 18.79 203.269 19.87 203.269 21.11C203.269 22.33 203.529 23.41 204.049 24.35C204.569 25.27 205.269 25.99 206.149 26.51C207.029 27.01 208.019 27.26 209.119 27.26ZM215.059 29V24.26L215.269 21.08L214.969 17.9V6.74H217.099V29H215.059ZM232.901 29V25.52L232.811 24.95V19.13C232.811 17.79 232.431 16.76 231.671 16.04C230.931 15.32 229.821 14.96 228.341 14.96C227.321 14.96 226.351 15.13 225.431 15.47C224.511 15.81 223.731 16.26 223.091 16.82L222.131 15.23C222.931 14.55 223.891 14.03 225.011 13.67C226.131 13.29 227.311 13.1 228.551 13.1C230.591 13.1 232.161 13.61 233.261 14.63C234.381 15.63 234.941 17.16 234.941 19.22V29H232.901ZM227.471 29.15C226.291 29.15 225.261 28.96 224.381 28.58C223.521 28.18 222.861 27.64 222.401 26.96C221.941 26.26 221.711 25.46 221.711 24.56C221.711 23.74 221.901 23 222.281 22.34C222.681 21.66 223.321 21.12 224.201 20.72C225.101 20.3 226.301 20.09 227.801 20.09H233.231V21.68H227.861C226.341 21.68 225.281 21.95 224.681 22.49C224.101 23.03 223.811 23.7 223.811 24.5C223.811 25.4 224.161 26.12 224.861 26.66C225.561 27.2 226.541 27.47 227.801 27.47C229.001 27.47 230.031 27.2 230.891 26.66C231.771 26.1 232.411 25.3 232.811 24.26L233.291 25.73C232.891 26.77 232.191 27.6 231.191 28.22C230.211 28.84 228.971 29.15 227.471 29.15ZM240.726 29V13.25H242.766V17.54L242.556 16.79C242.996 15.59 243.736 14.68 244.776 14.06C245.816 13.42 247.106 13.1 248.646 13.1V15.17C248.566 15.17 248.486 15.17 248.406 15.17C248.326 15.15 248.246 15.14 248.166 15.14C246.506 15.14 245.206 15.65 244.266 16.67C243.326 17.67 242.856 19.1 242.856 20.96V29H240.726ZM252.533 29V13.25H254.663V29H252.533ZM253.613 9.77C253.173 9.77 252.803 9.62 252.503 9.32C252.203 9.02 252.053 8.66 252.053 8.24C252.053 7.82 252.203 7.47 252.503 7.19C252.803 6.89 253.173 6.74 253.613 6.74C254.053 6.74 254.423 6.88 254.723 7.16C255.023 7.44 255.173 7.79 255.173 8.21C255.173 8.65 255.023 9.02 254.723 9.32C254.443 9.62 254.073 9.77 253.613 9.77ZM267.279 29.15C265.639 29.15 264.199 28.81 262.959 28.13C261.719 27.43 260.749 26.48 260.049 25.28C259.349 24.06 258.999 22.67 258.999 21.11C258.999 19.55 259.329 18.17 259.989 16.97C260.669 15.77 261.589 14.83 262.749 14.15C263.929 13.45 265.249 13.1 266.709 13.1C268.189 13.1 269.499 13.44 270.639 14.12C271.799 14.78 272.709 15.72 273.369 16.94C274.029 18.14 274.359 19.53 274.359 21.11C274.359 21.21 274.349 21.32 274.329 21.44C274.329 21.54 274.329 21.65 274.329 21.77H260.619V20.18H273.189L272.349 20.81C272.349 19.67 272.099 18.66 271.599 17.78C271.119 16.88 270.459 16.18 269.619 15.68C268.779 15.18 267.809 14.93 266.709 14.93C265.629 14.93 264.659 15.18 263.799 15.68C262.939 16.18 262.269 16.88 261.789 17.78C261.309 18.68 261.069 19.71 261.069 20.87V21.2C261.069 22.4 261.329 23.46 261.849 24.38C262.389 25.28 263.129 25.99 264.069 26.51C265.029 27.01 266.119 27.26 267.339 27.26C268.299 27.26 269.189 27.09 270.009 26.75C270.849 26.41 271.569 25.89 272.169 25.19L273.369 26.57C272.669 27.41 271.789 28.05 270.729 28.49C269.689 28.93 268.539 29.15 267.279 29.15ZM282.925 29.15C281.625 29.15 280.395 28.97 279.235 28.61C278.075 28.23 277.165 27.76 276.505 27.2L277.465 25.52C278.105 26 278.925 26.42 279.925 26.78C280.925 27.12 281.975 27.29 283.075 27.29C284.575 27.29 285.655 27.06 286.315 26.6C286.975 26.12 287.305 25.49 287.305 24.71C287.305 24.13 287.115 23.68 286.735 23.36C286.375 23.02 285.895 22.77 285.295 22.61C284.695 22.43 284.025 22.28 283.285 22.16C282.545 22.04 281.805 21.9 281.065 21.74C280.345 21.58 279.685 21.35 279.085 21.05C278.485 20.73 277.995 20.3 277.615 19.76C277.255 19.22 277.075 18.5 277.075 17.6C277.075 16.74 277.315 15.97 277.795 15.29C278.275 14.61 278.975 14.08 279.895 13.7C280.835 13.3 281.975 13.1 283.315 13.1C284.335 13.1 285.355 13.24 286.375 13.52C287.395 13.78 288.235 14.13 288.895 14.57L287.965 16.28C287.265 15.8 286.515 15.46 285.715 15.26C284.915 15.04 284.115 14.93 283.315 14.93C281.895 14.93 280.845 15.18 280.165 15.68C279.505 16.16 279.175 16.78 279.175 17.54C279.175 18.14 279.355 18.61 279.715 18.95C280.095 19.29 280.585 19.56 281.185 19.76C281.805 19.94 282.475 20.09 283.195 20.21C283.935 20.33 284.665 20.48 285.385 20.66C286.125 20.82 286.795 21.05 287.395 21.35C288.015 21.63 288.505 22.04 288.865 22.58C289.245 23.1 289.435 23.79 289.435 24.65C289.435 25.57 289.175 26.37 288.655 27.05C288.155 27.71 287.415 28.23 286.435 28.61C285.475 28.97 284.305 29.15 282.925 29.15Z" fill="#333333"/>
</svg>
