<svg width="398" height="244" viewBox="0 0 398 244" fill="none" xmlns="http://www.w3.org/2000/svg">
<path d="M8.35234 194V186.8L67.5523 128C73.1523 122.4 77.3523 117.533 80.1523 113.4C82.9523 109.133 84.819 105.2 85.7524 101.6C86.819 98 87.3523 94.4667 87.3523 91C87.3523 82.2 84.3523 75.2667 78.3524 70.2C72.3523 65 63.5523 62.4 51.9523 62.4C43.1523 62.4 35.419 63.7333 28.7523 66.4C22.219 69.0667 16.5523 73.1333 11.7523 78.6L4.55234 72.2C9.88568 66.0667 16.619 61.3333 24.7523 58C33.019 54.6667 42.3523 53 52.7523 53C61.9523 53 69.8857 54.5333 76.5523 57.6C83.3523 60.5333 88.5523 64.8 92.1523 70.4C95.8857 75.8667 97.7524 82.4 97.7524 90C97.7524 94.5333 97.0857 99 95.7523 103.4C94.5523 107.667 92.2857 112.2 88.9524 117C85.7523 121.8 81.0857 127.267 74.9523 133.4L19.3523 188.8L15.9523 184.8H104.552V194H8.35234Z" fill="#D9D9D9"/>
<path d="M120.44 70V56H121.46V70H120.44ZM131.118 59.48C131.972 59.48 132.712 59.6467 133.338 59.98C133.978 60.3 134.472 60.7933 134.818 61.46C135.178 62.1133 135.358 62.9267 135.358 63.9V70H134.358V63.98C134.358 62.8067 134.058 61.9133 133.458 61.3C132.872 60.6867 132.045 60.38 130.978 60.38C130.165 60.38 129.458 60.5467 128.858 60.88C128.258 61.2133 127.798 61.68 127.478 62.28C127.172 62.88 127.018 63.6 127.018 64.44V70H126.018V59.56H126.978V62.46L126.838 62.14C127.158 61.3133 127.685 60.6667 128.418 60.2C129.152 59.72 130.052 59.48 131.118 59.48ZM147.652 70.08C146.732 70.08 146.026 69.8267 145.532 69.32C145.052 68.8133 144.812 68.12 144.812 67.24V57.28H145.812V67.14C145.812 67.8067 145.979 68.32 146.312 68.68C146.646 69.04 147.126 69.22 147.752 69.22C148.406 69.22 148.946 69.0267 149.372 68.64L149.792 69.34C149.526 69.5933 149.199 69.78 148.812 69.9C148.439 70.02 148.052 70.08 147.652 70.08ZM142.892 60.42V59.56H149.132V60.42H142.892ZM156.29 70.08C155.29 70.08 154.397 69.8533 153.61 69.4C152.837 68.9467 152.217 68.32 151.75 67.52C151.297 66.72 151.07 65.8067 151.07 64.78C151.07 63.74 151.297 62.8267 151.75 62.04C152.217 61.24 152.837 60.6133 153.61 60.16C154.397 59.7067 155.29 59.48 156.29 59.48C157.29 59.48 158.183 59.7067 158.97 60.16C159.757 60.6133 160.377 61.24 160.83 62.04C161.283 62.8267 161.51 63.74 161.51 64.78C161.51 65.8067 161.283 66.72 160.83 67.52C160.377 68.32 159.757 68.9467 158.97 69.4C158.183 69.8533 157.29 70.08 156.29 70.08ZM156.29 69.18C157.09 69.18 157.81 69 158.45 68.64C159.09 68.2667 159.59 67.7467 159.95 67.08C160.31 66.4133 160.49 65.6467 160.49 64.78C160.49 63.9 160.31 63.1333 159.95 62.48C159.59 61.8133 159.09 61.3 158.45 60.94C157.81 60.5667 157.09 60.38 156.29 60.38C155.49 60.38 154.77 60.5667 154.13 60.94C153.503 61.3 153.003 61.8133 152.63 62.48C152.27 63.1333 152.09 63.9 152.09 64.78C152.09 65.6467 152.27 66.4133 152.63 67.08C153.003 67.7467 153.503 68.2667 154.13 68.64C154.77 69 155.49 69.18 156.29 69.18ZM168.632 70.08C167.659 70.08 166.779 69.86 165.992 69.42C165.219 68.9667 164.606 68.34 164.152 67.54C163.699 66.74 163.472 65.82 163.472 64.78C163.472 63.7267 163.699 62.8067 164.152 62.02C164.606 61.22 165.219 60.6 165.992 60.16C166.779 59.7067 167.659 59.48 168.632 59.48C169.552 59.48 170.379 59.6933 171.112 60.12C171.859 60.5467 172.446 61.1533 172.872 61.94C173.312 62.7267 173.532 63.6733 173.532 64.78C173.532 65.86 173.319 66.8 172.892 67.6C172.466 68.4 171.879 69.0133 171.132 69.44C170.399 69.8667 169.566 70.08 168.632 70.08ZM168.692 69.18C169.492 69.18 170.206 69 170.832 68.64C171.472 68.2667 171.972 67.7467 172.332 67.08C172.706 66.4133 172.892 65.6467 172.892 64.78C172.892 63.9 172.706 63.1333 172.332 62.48C171.972 61.8133 171.472 61.3 170.832 60.94C170.206 60.5667 169.492 60.38 168.692 60.38C167.892 60.38 167.172 60.5667 166.532 60.94C165.906 61.3 165.406 61.8133 165.032 62.48C164.672 63.1333 164.492 63.9 164.492 64.78C164.492 65.6467 164.672 66.4133 165.032 67.08C165.406 67.7467 165.906 68.2667 166.532 68.64C167.172 69 167.892 69.18 168.692 69.18ZM172.912 70V66.58L173.092 64.76L172.892 62.94V55.16H173.892V70H172.912ZM184.688 70V67.62L184.648 67.26V63.34C184.648 62.3667 184.382 61.6267 183.848 61.12C183.328 60.6133 182.562 60.36 181.548 60.36C180.828 60.36 180.155 60.4867 179.528 60.74C178.915 60.98 178.388 61.2933 177.948 61.68L177.448 60.96C177.968 60.4933 178.595 60.1333 179.328 59.88C180.062 59.6133 180.828 59.48 181.628 59.48C182.922 59.48 183.915 59.8067 184.608 60.46C185.302 61.1133 185.648 62.0867 185.648 63.38V70H184.688ZM180.928 70.08C180.155 70.08 179.482 69.96 178.908 69.72C178.348 69.4667 177.915 69.1133 177.608 68.66C177.315 68.2067 177.168 67.6867 177.168 67.1C177.168 66.5667 177.288 66.0867 177.528 65.66C177.782 65.22 178.195 64.8667 178.768 64.6C179.342 64.32 180.108 64.18 181.068 64.18H184.908V64.96H181.088C180.008 64.96 179.248 65.16 178.808 65.56C178.382 65.96 178.168 66.46 178.168 67.06C178.168 67.7267 178.422 68.26 178.928 68.66C179.435 69.06 180.148 69.26 181.068 69.26C181.948 69.26 182.688 69.06 183.288 68.66C183.902 68.26 184.355 67.68 184.648 66.92L184.928 67.6C184.648 68.36 184.168 68.9667 183.488 69.42C182.822 69.86 181.968 70.08 180.928 70.08ZM189.333 73.96C188.853 73.96 188.4 73.88 187.973 73.72C187.56 73.56 187.206 73.3267 186.913 73.02L187.413 72.26C187.68 72.54 187.966 72.7467 188.273 72.88C188.593 73.0133 188.953 73.08 189.353 73.08C189.833 73.08 190.253 72.9467 190.613 72.68C190.986 72.4133 191.333 71.9267 191.653 71.22L192.373 69.62L192.513 69.44L196.933 59.56H197.953L192.593 71.42C192.313 72.06 192.006 72.56 191.673 72.92C191.353 73.2933 191 73.56 190.613 73.72C190.226 73.88 189.8 73.96 189.333 73.96ZM192.353 70.26L187.513 59.56H188.573L192.973 69.38L192.353 70.26ZM199.551 59.56L200.331 56.18L200.431 56.76C200.177 56.76 199.964 56.68 199.791 56.52C199.631 56.36 199.551 56.16 199.551 55.92C199.551 55.68 199.631 55.48 199.791 55.32C199.964 55.16 200.164 55.08 200.391 55.08C200.644 55.08 200.844 55.1667 200.991 55.34C201.151 55.5 201.231 55.6933 201.231 55.92C201.231 56.0133 201.224 56.1067 201.211 56.2C201.197 56.2933 201.177 56.3867 201.151 56.48C201.124 56.5733 201.091 56.6933 201.051 56.84L200.271 59.56H199.551ZM206.842 70.08C205.975 70.08 205.162 69.9533 204.402 69.7C203.655 69.4467 203.075 69.1267 202.662 68.74L203.122 67.94C203.522 68.2867 204.055 68.5867 204.722 68.84C205.389 69.08 206.109 69.2 206.882 69.2C207.975 69.2 208.762 69.02 209.242 68.66C209.722 68.3 209.962 67.8267 209.962 67.24C209.962 66.8133 209.835 66.48 209.582 66.24C209.342 65.9867 209.015 65.7933 208.602 65.66C208.189 65.5267 207.735 65.42 207.242 65.34C206.749 65.2467 206.255 65.1467 205.762 65.04C205.269 64.9333 204.815 64.78 204.402 64.58C203.989 64.38 203.655 64.1067 203.402 63.76C203.162 63.4 203.042 62.9267 203.042 62.34C203.042 61.8067 203.189 61.3267 203.482 60.9C203.775 60.4733 204.215 60.1333 204.802 59.88C205.389 59.6133 206.122 59.48 207.002 59.48C207.655 59.48 208.309 59.5733 208.962 59.76C209.629 59.9467 210.169 60.1933 210.582 60.5L210.122 61.3C209.682 60.9667 209.189 60.7267 208.642 60.58C208.095 60.4333 207.542 60.36 206.982 60.36C205.969 60.36 205.222 60.5467 204.742 60.92C204.275 61.2933 204.042 61.76 204.042 62.32C204.042 62.76 204.162 63.1133 204.402 63.38C204.655 63.6333 204.989 63.8333 205.402 63.98C205.815 64.1133 206.269 64.2267 206.762 64.32C207.255 64.4 207.749 64.4933 208.242 64.6C208.735 64.7067 209.189 64.86 209.602 65.06C210.015 65.2467 210.342 65.5133 210.582 65.86C210.835 66.1933 210.962 66.6467 210.962 67.22C210.962 67.7933 210.802 68.2933 210.482 68.72C210.175 69.1467 209.715 69.48 209.102 69.72C208.489 69.96 207.735 70.08 206.842 70.08ZM220.93 70L216.97 59.56H217.93L221.61 69.44H221.19L224.97 59.56H225.83L229.59 69.44H229.15L232.89 59.56H233.81L229.85 70H228.91L225.23 60.52H225.55L221.85 70H220.93ZM239.923 70.08C238.923 70.08 238.029 69.8533 237.243 69.4C236.469 68.9467 235.849 68.32 235.383 67.52C234.929 66.72 234.703 65.8067 234.703 64.78C234.703 63.74 234.929 62.8267 235.383 62.04C235.849 61.24 236.469 60.6133 237.243 60.16C238.029 59.7067 238.923 59.48 239.923 59.48C240.923 59.48 241.816 59.7067 242.603 60.16C243.389 60.6133 244.009 61.24 244.463 62.04C244.916 62.8267 245.143 63.74 245.143 64.78C245.143 65.8067 244.916 66.72 244.463 67.52C244.009 68.32 243.389 68.9467 242.603 69.4C241.816 69.8533 240.923 70.08 239.923 70.08ZM239.923 69.18C240.723 69.18 241.443 69 242.083 68.64C242.723 68.2667 243.223 67.7467 243.583 67.08C243.943 66.4133 244.123 65.6467 244.123 64.78C244.123 63.9 243.943 63.1333 243.583 62.48C243.223 61.8133 242.723 61.3 242.083 60.94C241.443 60.5667 240.723 60.38 239.923 60.38C239.123 60.38 238.403 60.5667 237.763 60.94C237.136 61.3 236.636 61.8133 236.263 62.48C235.903 63.1333 235.723 63.9 235.723 64.78C235.723 65.6467 235.903 66.4133 236.263 67.08C236.636 67.7467 237.136 68.2667 237.763 68.64C238.403 69 239.123 69.18 239.923 69.18ZM248.245 70V59.56H249.205V62.42L249.105 62.1C249.398 61.26 249.892 60.6133 250.585 60.16C251.278 59.7067 252.145 59.48 253.185 59.48V60.46C253.145 60.46 253.105 60.46 253.065 60.46C253.025 60.4467 252.985 60.44 252.945 60.44C251.785 60.44 250.878 60.8067 250.225 61.54C249.572 62.26 249.245 63.2667 249.245 64.56V70H248.245ZM255.94 70V55.16H256.94V70H255.94ZM265.175 70.08C264.202 70.08 263.322 69.86 262.535 69.42C261.762 68.9667 261.148 68.34 260.695 67.54C260.242 66.74 260.015 65.82 260.015 64.78C260.015 63.7267 260.242 62.8067 260.695 62.02C261.148 61.22 261.762 60.6 262.535 60.16C263.322 59.7067 264.202 59.48 265.175 59.48C266.095 59.48 266.922 59.6933 267.655 60.12C268.402 60.5467 268.988 61.1533 269.415 61.94C269.855 62.7267 270.075 63.6733 270.075 64.78C270.075 65.86 269.862 66.8 269.435 67.6C269.008 68.4 268.422 69.0133 267.675 69.44C266.942 69.8667 266.108 70.08 265.175 70.08ZM265.235 69.18C266.035 69.18 266.748 69 267.375 68.64C268.015 68.2667 268.515 67.7467 268.875 67.08C269.248 66.4133 269.435 65.6467 269.435 64.78C269.435 63.9 269.248 63.1333 268.875 62.48C268.515 61.8133 268.015 61.3 267.375 60.94C266.748 60.5667 266.035 60.38 265.235 60.38C264.435 60.38 263.715 60.5667 263.075 60.94C262.448 61.3 261.948 61.8133 261.575 62.48C261.215 63.1333 261.035 63.9 261.035 64.78C261.035 65.6467 261.215 66.4133 261.575 67.08C261.948 67.7467 262.448 68.2667 263.075 68.64C263.715 69 264.435 69.18 265.235 69.18ZM269.455 70V66.58L269.635 64.76L269.435 62.94V55.16H270.435V70H269.455ZM273.691 72.86L274.471 69.48L274.571 70.06C274.318 70.06 274.105 69.98 273.931 69.82C273.771 69.66 273.691 69.46 273.691 69.22C273.691 68.98 273.771 68.78 273.931 68.62C274.105 68.46 274.305 68.38 274.531 68.38C274.785 68.38 274.985 68.4667 275.131 68.64C275.291 68.8 275.371 68.9933 275.371 69.22C275.371 69.3133 275.365 69.4067 275.351 69.5C275.338 69.5933 275.318 69.6867 275.291 69.78C275.265 69.8733 275.231 69.9933 275.191 70.14L274.411 72.86H273.691ZM287.792 70.1C286.752 70.1 285.765 69.9267 284.832 69.58C283.912 69.22 283.199 68.76 282.692 68.2L283.152 67.44C283.632 67.9333 284.285 68.3533 285.112 68.7C285.952 69.0333 286.839 69.2 287.772 69.2C288.705 69.2 289.465 69.08 290.052 68.84C290.652 68.5867 291.092 68.2533 291.372 67.84C291.665 67.4267 291.812 66.9667 291.812 66.46C291.812 65.86 291.652 65.38 291.332 65.02C291.012 64.66 290.592 64.3733 290.072 64.16C289.552 63.9467 288.985 63.7667 288.372 63.62C287.759 63.4733 287.139 63.32 286.512 63.16C285.885 62.9867 285.312 62.7667 284.792 62.5C284.272 62.2333 283.852 61.8733 283.532 61.42C283.225 60.9533 283.072 60.3533 283.072 59.62C283.072 58.9533 283.245 58.34 283.592 57.78C283.939 57.22 284.479 56.7667 285.212 56.42C285.945 56.0733 286.885 55.9 288.032 55.9C288.805 55.9 289.565 56.0133 290.312 56.24C291.072 56.4667 291.719 56.7733 292.252 57.16L291.872 57.98C291.285 57.58 290.652 57.2867 289.972 57.1C289.305 56.9 288.659 56.8 288.032 56.8C287.139 56.8 286.399 56.9267 285.812 57.18C285.225 57.4333 284.792 57.7733 284.512 58.2C284.232 58.6133 284.092 59.08 284.092 59.6C284.092 60.2 284.245 60.68 284.552 61.04C284.872 61.4 285.292 61.6867 285.812 61.9C286.332 62.1133 286.905 62.2933 287.532 62.44C288.159 62.5867 288.779 62.7467 289.392 62.92C290.005 63.08 290.572 63.2933 291.092 63.56C291.612 63.8267 292.032 64.1867 292.352 64.64C292.672 65.0933 292.832 65.68 292.832 66.4C292.832 67.0533 292.652 67.6667 292.292 68.24C291.932 68.8 291.379 69.2533 290.632 69.6C289.899 69.9333 288.952 70.1 287.792 70.1ZM308.979 59.48C309.819 59.48 310.546 59.6467 311.159 59.98C311.786 60.3 312.273 60.7933 312.619 61.46C312.966 62.1133 313.139 62.9267 313.139 63.9V70H312.139V63.98C312.139 62.8067 311.853 61.9133 311.279 61.3C310.706 60.6867 309.906 60.38 308.879 60.38C308.093 60.38 307.413 60.5467 306.839 60.88C306.266 61.2133 305.826 61.68 305.519 62.28C305.213 62.88 305.059 63.6 305.059 64.44V70H304.059V63.98C304.059 62.8067 303.773 61.9133 303.199 61.3C302.626 60.6867 301.826 60.38 300.799 60.38C300.013 60.38 299.333 60.5467 298.759 60.88C298.186 61.2133 297.746 61.68 297.439 62.28C297.133 62.88 296.979 63.6 296.979 64.44V70H295.979V59.56H296.939V62.44L296.799 62.12C297.106 61.3067 297.619 60.6667 298.339 60.2C299.059 59.72 299.926 59.48 300.939 59.48C301.979 59.48 302.853 59.7467 303.559 60.28C304.279 60.8 304.733 61.58 304.919 62.62L304.579 62.48C304.859 61.5867 305.386 60.8667 306.159 60.32C306.933 59.76 307.873 59.48 308.979 59.48ZM323.848 70V67.62L323.808 67.26V63.34C323.808 62.3667 323.542 61.6267 323.008 61.12C322.488 60.6133 321.722 60.36 320.708 60.36C319.988 60.36 319.315 60.4867 318.688 60.74C318.075 60.98 317.548 61.2933 317.108 61.68L316.608 60.96C317.128 60.4933 317.755 60.1333 318.488 59.88C319.222 59.6133 319.988 59.48 320.788 59.48C322.082 59.48 323.075 59.8067 323.768 60.46C324.462 61.1133 324.808 62.0867 324.808 63.38V70H323.848ZM320.088 70.08C319.315 70.08 318.642 69.96 318.068 69.72C317.508 69.4667 317.075 69.1133 316.768 68.66C316.475 68.2067 316.328 67.6867 316.328 67.1C316.328 66.5667 316.448 66.0867 316.688 65.66C316.942 65.22 317.355 64.8667 317.928 64.6C318.502 64.32 319.268 64.18 320.228 64.18H324.068V64.96H320.248C319.168 64.96 318.408 65.16 317.968 65.56C317.542 65.96 317.328 66.46 317.328 67.06C317.328 67.7267 317.582 68.26 318.088 68.66C318.595 69.06 319.308 69.26 320.228 69.26C321.108 69.26 321.848 69.06 322.448 68.66C323.062 68.26 323.515 67.68 323.808 66.92L324.088 67.6C323.808 68.36 323.328 68.9667 322.648 69.42C321.982 69.86 321.128 70.08 320.088 70.08ZM328.929 70V59.56H329.889V62.42L329.789 62.1C330.082 61.26 330.575 60.6133 331.269 60.16C331.962 59.7067 332.829 59.48 333.869 59.48V60.46C333.829 60.46 333.789 60.46 333.749 60.46C333.709 60.4467 333.669 60.44 333.629 60.44C332.469 60.44 331.562 60.8067 330.909 61.54C330.255 62.26 329.929 63.2667 329.929 64.56V70H328.929ZM340.133 70.08C339.213 70.08 338.506 69.8267 338.013 69.32C337.533 68.8133 337.293 68.12 337.293 67.24V57.28H338.293V67.14C338.293 67.8067 338.459 68.32 338.793 68.68C339.126 69.04 339.606 69.22 340.233 69.22C340.886 69.22 341.426 69.0267 341.853 68.64L342.273 69.34C342.006 69.5933 341.679 69.78 341.293 69.9C340.919 70.02 340.533 70.08 340.133 70.08ZM335.373 60.42V59.56H341.613V60.42H335.373ZM125.36 94.08C124.44 94.08 123.607 93.8667 122.86 93.44C122.127 93.0133 121.54 92.4 121.1 91.6C120.673 90.8 120.46 89.86 120.46 88.78C120.46 87.6733 120.673 86.7267 121.1 85.94C121.54 85.1533 122.127 84.5467 122.86 84.12C123.607 83.6933 124.44 83.48 125.36 83.48C126.347 83.48 127.227 83.7067 128 84.16C128.787 84.6 129.4 85.22 129.84 86.02C130.293 86.8067 130.52 87.7267 130.52 88.78C130.52 89.82 130.293 90.74 129.84 91.54C129.4 92.34 128.787 92.9667 128 93.42C127.227 93.86 126.347 94.08 125.36 94.08ZM120.12 94V79.16H121.12V86.94L120.92 88.76L121.08 90.58V94H120.12ZM125.3 93.18C126.1 93.18 126.82 93 127.46 92.64C128.1 92.2667 128.6 91.7467 128.96 91.08C129.333 90.4133 129.52 89.6467 129.52 88.78C129.52 87.9 129.333 87.1333 128.96 86.48C128.6 85.8133 128.1 85.3 127.46 84.94C126.82 84.5667 126.1 84.38 125.3 84.38C124.5 84.38 123.78 84.5667 123.14 84.94C122.513 85.3 122.013 85.8133 121.64 86.48C121.28 87.1333 121.1 87.9 121.1 88.78C121.1 89.6467 121.28 90.4133 121.64 91.08C122.013 91.7467 122.513 92.2667 123.14 92.64C123.78 93 124.5 93.18 125.3 93.18ZM137.856 94.08C136.963 94.08 136.189 93.92 135.536 93.6C134.883 93.2667 134.376 92.7733 134.016 92.12C133.669 91.4533 133.496 90.6333 133.496 89.66V83.56H134.496V89.58C134.496 90.7533 134.796 91.6467 135.396 92.26C135.996 92.8733 136.843 93.18 137.936 93.18C138.723 93.18 139.403 93.0133 139.976 92.68C140.549 92.3467 140.989 91.88 141.296 91.28C141.603 90.6667 141.756 89.9467 141.756 89.12V83.56H142.756V94H141.796V91.1L141.936 91.44C141.629 92.2533 141.116 92.9 140.396 93.38C139.689 93.8467 138.843 94.08 137.856 94.08ZM149.635 94.08C148.768 94.08 147.955 93.9533 147.195 93.7C146.448 93.4467 145.868 93.1267 145.455 92.74L145.915 91.94C146.315 92.2867 146.848 92.5867 147.515 92.84C148.182 93.08 148.902 93.2 149.675 93.2C150.768 93.2 151.555 93.02 152.035 92.66C152.515 92.3 152.755 91.8267 152.755 91.24C152.755 90.8133 152.628 90.48 152.375 90.24C152.135 89.9867 151.808 89.7933 151.395 89.66C150.982 89.5267 150.528 89.42 150.035 89.34C149.542 89.2467 149.048 89.1467 148.555 89.04C148.062 88.9333 147.608 88.78 147.195 88.58C146.782 88.38 146.448 88.1067 146.195 87.76C145.955 87.4 145.835 86.9267 145.835 86.34C145.835 85.8067 145.982 85.3267 146.275 84.9C146.568 84.4733 147.008 84.1333 147.595 83.88C148.182 83.6133 148.915 83.48 149.795 83.48C150.448 83.48 151.102 83.5733 151.755 83.76C152.422 83.9467 152.962 84.1933 153.375 84.5L152.915 85.3C152.475 84.9667 151.982 84.7267 151.435 84.58C150.888 84.4333 150.335 84.36 149.775 84.36C148.762 84.36 148.015 84.5467 147.535 84.92C147.068 85.2933 146.835 85.76 146.835 86.32C146.835 86.76 146.955 87.1133 147.195 87.38C147.448 87.6333 147.782 87.8333 148.195 87.98C148.608 88.1133 149.062 88.2267 149.555 88.32C150.048 88.4 150.542 88.4933 151.035 88.6C151.528 88.7067 151.982 88.86 152.395 89.06C152.808 89.2467 153.135 89.5133 153.375 89.86C153.628 90.1933 153.755 90.6467 153.755 91.22C153.755 91.7933 153.595 92.2933 153.275 92.72C152.968 93.1467 152.508 93.48 151.895 93.72C151.282 93.96 150.528 94.08 149.635 94.08ZM156.546 94V83.56H157.546V94H156.546ZM157.046 81.02C156.819 81.02 156.626 80.94 156.466 80.78C156.306 80.62 156.226 80.4333 156.226 80.22C156.226 79.9933 156.306 79.8 156.466 79.64C156.626 79.48 156.819 79.4 157.046 79.4C157.286 79.4 157.479 79.48 157.626 79.64C157.786 79.7867 157.866 79.9733 157.866 80.2C157.866 80.4267 157.786 80.62 157.626 80.78C157.479 80.94 157.286 81.02 157.046 81.02ZM166.861 83.48C167.714 83.48 168.454 83.6467 169.081 83.98C169.721 84.3 170.214 84.7933 170.561 85.46C170.921 86.1133 171.101 86.9267 171.101 87.9V94H170.101V87.98C170.101 86.8067 169.801 85.9133 169.201 85.3C168.614 84.6867 167.787 84.38 166.721 84.38C165.907 84.38 165.201 84.5467 164.601 84.88C164.001 85.2133 163.541 85.68 163.221 86.28C162.914 86.88 162.761 87.6 162.761 88.44V94H161.761V83.56H162.721V86.46L162.581 86.14C162.901 85.3133 163.427 84.6667 164.161 84.2C164.894 83.72 165.794 83.48 166.861 83.48ZM179.458 94.08C178.404 94.08 177.471 93.8533 176.658 93.4C175.858 92.9467 175.224 92.32 174.758 91.52C174.304 90.72 174.078 89.8067 174.078 88.78C174.078 87.74 174.291 86.8267 174.718 86.04C175.158 85.24 175.758 84.6133 176.518 84.16C177.278 83.7067 178.131 83.48 179.078 83.48C180.024 83.48 180.871 83.7 181.618 84.14C182.378 84.58 182.971 85.2 183.398 86C183.838 86.7867 184.058 87.7 184.058 88.74C184.058 88.78 184.051 88.8267 184.038 88.88C184.038 88.92 184.038 88.9667 184.038 89.02H174.818V88.24H183.498L183.098 88.62C183.111 87.8067 182.938 87.08 182.578 86.44C182.231 85.7867 181.758 85.28 181.158 84.92C180.558 84.5467 179.864 84.36 179.078 84.36C178.304 84.36 177.611 84.5467 176.998 84.92C176.398 85.28 175.924 85.7867 175.578 86.44C175.231 87.08 175.058 87.8133 175.058 88.64V88.82C175.058 89.6733 175.244 90.4333 175.618 91.1C176.004 91.7533 176.531 92.2667 177.198 92.64C177.864 93 178.624 93.18 179.478 93.18C180.144 93.18 180.764 93.06 181.338 92.82C181.924 92.58 182.418 92.2133 182.818 91.72L183.398 92.38C182.944 92.94 182.371 93.3667 181.678 93.66C180.998 93.94 180.258 94.08 179.458 94.08ZM189.791 94.08C188.925 94.08 188.111 93.9533 187.351 93.7C186.605 93.4467 186.025 93.1267 185.611 92.74L186.071 91.94C186.471 92.2867 187.005 92.5867 187.671 92.84C188.338 93.08 189.058 93.2 189.831 93.2C190.925 93.2 191.711 93.02 192.191 92.66C192.671 92.3 192.911 91.8267 192.911 91.24C192.911 90.8133 192.785 90.48 192.531 90.24C192.291 89.9867 191.965 89.7933 191.551 89.66C191.138 89.5267 190.685 89.42 190.191 89.34C189.698 89.2467 189.205 89.1467 188.711 89.04C188.218 88.9333 187.765 88.78 187.351 88.58C186.938 88.38 186.605 88.1067 186.351 87.76C186.111 87.4 185.991 86.9267 185.991 86.34C185.991 85.8067 186.138 85.3267 186.431 84.9C186.725 84.4733 187.165 84.1333 187.751 83.88C188.338 83.6133 189.071 83.48 189.951 83.48C190.605 83.48 191.258 83.5733 191.911 83.76C192.578 83.9467 193.118 84.1933 193.531 84.5L193.071 85.3C192.631 84.9667 192.138 84.7267 191.591 84.58C191.045 84.4333 190.491 84.36 189.931 84.36C188.918 84.36 188.171 84.5467 187.691 84.92C187.225 85.2933 186.991 85.76 186.991 86.32C186.991 86.76 187.111 87.1133 187.351 87.38C187.605 87.6333 187.938 87.8333 188.351 87.98C188.765 88.1133 189.218 88.2267 189.711 88.32C190.205 88.4 190.698 88.4933 191.191 88.6C191.685 88.7067 192.138 88.86 192.551 89.06C192.965 89.2467 193.291 89.5133 193.531 89.86C193.785 90.1933 193.911 90.6467 193.911 91.22C193.911 91.7933 193.751 92.2933 193.431 92.72C193.125 93.1467 192.665 93.48 192.051 93.72C191.438 93.96 190.685 94.08 189.791 94.08ZM199.342 94.08C198.475 94.08 197.662 93.9533 196.902 93.7C196.155 93.4467 195.575 93.1267 195.162 92.74L195.622 91.94C196.022 92.2867 196.555 92.5867 197.222 92.84C197.889 93.08 198.609 93.2 199.382 93.2C200.475 93.2 201.262 93.02 201.742 92.66C202.222 92.3 202.462 91.8267 202.462 91.24C202.462 90.8133 202.335 90.48 202.082 90.24C201.842 89.9867 201.515 89.7933 201.102 89.66C200.689 89.5267 200.235 89.42 199.742 89.34C199.249 89.2467 198.755 89.1467 198.262 89.04C197.769 88.9333 197.315 88.78 196.902 88.58C196.489 88.38 196.155 88.1067 195.902 87.76C195.662 87.4 195.542 86.9267 195.542 86.34C195.542 85.8067 195.689 85.3267 195.982 84.9C196.275 84.4733 196.715 84.1333 197.302 83.88C197.889 83.6133 198.622 83.48 199.502 83.48C200.155 83.48 200.809 83.5733 201.462 83.76C202.129 83.9467 202.669 84.1933 203.082 84.5L202.622 85.3C202.182 84.9667 201.689 84.7267 201.142 84.58C200.595 84.4333 200.042 84.36 199.482 84.36C198.469 84.36 197.722 84.5467 197.242 84.92C196.775 85.2933 196.542 85.76 196.542 86.32C196.542 86.76 196.662 87.1133 196.902 87.38C197.155 87.6333 197.489 87.8333 197.902 87.98C198.315 88.1133 198.769 88.2267 199.262 88.32C199.755 88.4 200.249 88.4933 200.742 88.6C201.235 88.7067 201.689 88.86 202.102 89.06C202.515 89.2467 202.842 89.5133 203.082 89.86C203.335 90.1933 203.462 90.6467 203.462 91.22C203.462 91.7933 203.302 92.2933 202.982 92.72C202.675 93.1467 202.215 93.48 201.602 93.72C200.989 93.96 200.235 94.08 199.342 94.08ZM210.493 94.08C209.439 94.08 208.506 93.8533 207.693 93.4C206.893 92.9467 206.259 92.32 205.793 91.52C205.339 90.72 205.113 89.8067 205.113 88.78C205.113 87.74 205.326 86.8267 205.753 86.04C206.193 85.24 206.793 84.6133 207.553 84.16C208.313 83.7067 209.166 83.48 210.113 83.48C211.059 83.48 211.906 83.7 212.653 84.14C213.413 84.58 214.006 85.2 214.433 86C214.873 86.7867 215.093 87.7 215.093 88.74C215.093 88.78 215.086 88.8267 215.073 88.88C215.073 88.92 215.073 88.9667 215.073 89.02H205.853V88.24H214.533L214.133 88.62C214.146 87.8067 213.973 87.08 213.613 86.44C213.266 85.7867 212.793 85.28 212.193 84.92C211.593 84.5467 210.899 84.36 210.113 84.36C209.339 84.36 208.646 84.5467 208.033 84.92C207.433 85.28 206.959 85.7867 206.613 86.44C206.266 87.08 206.093 87.8133 206.093 88.64V88.82C206.093 89.6733 206.279 90.4333 206.653 91.1C207.039 91.7533 207.566 92.2667 208.233 92.64C208.899 93 209.659 93.18 210.513 93.18C211.179 93.18 211.799 93.06 212.373 92.82C212.959 92.58 213.453 92.2133 213.853 91.72L214.433 92.38C213.979 92.94 213.406 93.3667 212.713 93.66C212.033 93.94 211.293 94.08 210.493 94.08ZM220.826 94.08C219.96 94.08 219.146 93.9533 218.386 93.7C217.64 93.4467 217.06 93.1267 216.646 92.74L217.106 91.94C217.506 92.2867 218.04 92.5867 218.706 92.84C219.373 93.08 220.093 93.2 220.866 93.2C221.96 93.2 222.746 93.02 223.226 92.66C223.706 92.3 223.946 91.8267 223.946 91.24C223.946 90.8133 223.82 90.48 223.566 90.24C223.326 89.9867 223 89.7933 222.586 89.66C222.173 89.5267 221.72 89.42 221.226 89.34C220.733 89.2467 220.24 89.1467 219.746 89.04C219.253 88.9333 218.8 88.78 218.386 88.58C217.973 88.38 217.64 88.1067 217.386 87.76C217.146 87.4 217.026 86.9267 217.026 86.34C217.026 85.8067 217.173 85.3267 217.466 84.9C217.76 84.4733 218.2 84.1333 218.786 83.88C219.373 83.6133 220.106 83.48 220.986 83.48C221.64 83.48 222.293 83.5733 222.946 83.76C223.613 83.9467 224.153 84.1933 224.566 84.5L224.106 85.3C223.666 84.9667 223.173 84.7267 222.626 84.58C222.08 84.4333 221.526 84.36 220.966 84.36C219.953 84.36 219.206 84.5467 218.726 84.92C218.26 85.2933 218.026 85.76 218.026 86.32C218.026 86.76 218.146 87.1133 218.386 87.38C218.64 87.6333 218.973 87.8333 219.386 87.98C219.8 88.1133 220.253 88.2267 220.746 88.32C221.24 88.4 221.733 88.4933 222.226 88.6C222.72 88.7067 223.173 88.86 223.586 89.06C224 89.2467 224.326 89.5133 224.566 89.86C224.82 90.1933 224.946 90.6467 224.946 91.22C224.946 91.7933 224.786 92.2933 224.466 92.72C224.16 93.1467 223.7 93.48 223.086 93.72C222.473 93.96 221.72 94.08 220.826 94.08ZM235.914 94.08C234.994 94.08 234.287 93.8267 233.794 93.32C233.314 92.8133 233.074 92.12 233.074 91.24V81.28H234.074V91.14C234.074 91.8067 234.241 92.32 234.574 92.68C234.907 93.04 235.387 93.22 236.014 93.22C236.667 93.22 237.207 93.0267 237.634 92.64L238.054 93.34C237.787 93.5933 237.461 93.78 237.074 93.9C236.701 94.02 236.314 94.08 235.914 94.08ZM231.154 84.42V83.56H237.394V84.42H231.154ZM244.552 94.08C243.552 94.08 242.658 93.8533 241.872 93.4C241.098 92.9467 240.478 92.32 240.012 91.52C239.558 90.72 239.332 89.8067 239.332 88.78C239.332 87.74 239.558 86.8267 240.012 86.04C240.478 85.24 241.098 84.6133 241.872 84.16C242.658 83.7067 243.552 83.48 244.552 83.48C245.552 83.48 246.445 83.7067 247.232 84.16C248.018 84.6133 248.638 85.24 249.092 86.04C249.545 86.8267 249.772 87.74 249.772 88.78C249.772 89.8067 249.545 90.72 249.092 91.52C248.638 92.32 248.018 92.9467 247.232 93.4C246.445 93.8533 245.552 94.08 244.552 94.08ZM244.552 93.18C245.352 93.18 246.072 93 246.712 92.64C247.352 92.2667 247.852 91.7467 248.212 91.08C248.572 90.4133 248.752 89.6467 248.752 88.78C248.752 87.9 248.572 87.1333 248.212 86.48C247.852 85.8133 247.352 85.3 246.712 84.94C246.072 84.5667 245.352 84.38 244.552 84.38C243.752 84.38 243.032 84.5667 242.392 84.94C241.765 85.3 241.265 85.8133 240.892 86.48C240.532 87.1333 240.352 87.9 240.352 88.78C240.352 89.6467 240.532 90.4133 240.892 91.08C241.265 91.7467 241.765 92.2667 242.392 92.64C243.032 93 243.752 93.18 244.552 93.18ZM256.894 94.08C255.921 94.08 255.041 93.86 254.254 93.42C253.481 92.9667 252.867 92.34 252.414 91.54C251.961 90.74 251.734 89.82 251.734 88.78C251.734 87.7267 251.961 86.8067 252.414 86.02C252.867 85.22 253.481 84.6 254.254 84.16C255.041 83.7067 255.921 83.48 256.894 83.48C257.814 83.48 258.641 83.6933 259.374 84.12C260.121 84.5467 260.707 85.1533 261.134 85.94C261.574 86.7267 261.794 87.6733 261.794 88.78C261.794 89.86 261.581 90.8 261.154 91.6C260.727 92.4 260.141 93.0133 259.394 93.44C258.661 93.8667 257.827 94.08 256.894 94.08ZM256.954 93.18C257.754 93.18 258.467 93 259.094 92.64C259.734 92.2667 260.234 91.7467 260.594 91.08C260.967 90.4133 261.154 89.6467 261.154 88.78C261.154 87.9 260.967 87.1333 260.594 86.48C260.234 85.8133 259.734 85.3 259.094 84.94C258.467 84.5667 257.754 84.38 256.954 84.38C256.154 84.38 255.434 84.5667 254.794 84.94C254.167 85.3 253.667 85.8133 253.294 86.48C252.934 87.1333 252.754 87.9 252.754 88.78C252.754 89.6467 252.934 90.4133 253.294 91.08C253.667 91.7467 254.167 92.2667 254.794 92.64C255.434 93 256.154 93.18 256.954 93.18ZM261.174 94V90.58L261.354 88.76L261.154 86.94V79.16H262.154V94H261.174ZM272.95 94V91.62L272.91 91.26V87.34C272.91 86.3667 272.643 85.6267 272.11 85.12C271.59 84.6133 270.823 84.36 269.81 84.36C269.09 84.36 268.417 84.4867 267.79 84.74C267.177 84.98 266.65 85.2933 266.21 85.68L265.71 84.96C266.23 84.4933 266.857 84.1333 267.59 83.88C268.323 83.6133 269.09 83.48 269.89 83.48C271.183 83.48 272.177 83.8067 272.87 84.46C273.563 85.1133 273.91 86.0867 273.91 87.38V94H272.95ZM269.19 94.08C268.417 94.08 267.743 93.96 267.17 93.72C266.61 93.4667 266.177 93.1133 265.87 92.66C265.577 92.2067 265.43 91.6867 265.43 91.1C265.43 90.5667 265.55 90.0867 265.79 89.66C266.043 89.22 266.457 88.8667 267.03 88.6C267.603 88.32 268.37 88.18 269.33 88.18H273.17V88.96H269.35C268.27 88.96 267.51 89.16 267.07 89.56C266.643 89.96 266.43 90.46 266.43 91.06C266.43 91.7267 266.683 92.26 267.19 92.66C267.697 93.06 268.41 93.26 269.33 93.26C270.21 93.26 270.95 93.06 271.55 92.66C272.163 92.26 272.617 91.68 272.91 90.92L273.19 91.6C272.91 92.36 272.43 92.9667 271.75 93.42C271.083 93.86 270.23 94.08 269.19 94.08ZM277.595 97.96C277.115 97.96 276.662 97.88 276.235 97.72C275.822 97.56 275.468 97.3267 275.175 97.02L275.675 96.26C275.942 96.54 276.228 96.7467 276.535 96.88C276.855 97.0133 277.215 97.08 277.615 97.08C278.095 97.08 278.515 96.9467 278.875 96.68C279.248 96.4133 279.595 95.9267 279.915 95.22L280.635 93.62L280.775 93.44L285.195 83.56H286.215L280.855 95.42C280.575 96.06 280.268 96.56 279.935 96.92C279.615 97.2933 279.262 97.56 278.875 97.72C278.488 97.88 278.062 97.96 277.595 97.96ZM280.615 94.26L275.775 83.56H276.835L281.235 93.38L280.615 94.26ZM297.778 94.08C296.725 94.08 295.791 93.8533 294.978 93.4C294.178 92.9467 293.545 92.32 293.078 91.52C292.625 90.72 292.398 89.8067 292.398 88.78C292.398 87.74 292.611 86.8267 293.038 86.04C293.478 85.24 294.078 84.6133 294.838 84.16C295.598 83.7067 296.451 83.48 297.398 83.48C298.345 83.48 299.191 83.7 299.938 84.14C300.698 84.58 301.291 85.2 301.718 86C302.158 86.7867 302.378 87.7 302.378 88.74C302.378 88.78 302.371 88.8267 302.358 88.88C302.358 88.92 302.358 88.9667 302.358 89.02H293.138V88.24H301.818L301.418 88.62C301.431 87.8067 301.258 87.08 300.898 86.44C300.551 85.7867 300.078 85.28 299.478 84.92C298.878 84.5467 298.185 84.36 297.398 84.36C296.625 84.36 295.931 84.5467 295.318 84.92C294.718 85.28 294.245 85.7867 293.898 86.44C293.551 87.08 293.378 87.8133 293.378 88.64V88.82C293.378 89.6733 293.565 90.4333 293.938 91.1C294.325 91.7533 294.851 92.2667 295.518 92.64C296.185 93 296.945 93.18 297.798 93.18C298.465 93.18 299.085 93.06 299.658 92.82C300.245 92.58 300.738 92.2133 301.138 91.72L301.718 92.38C301.265 92.94 300.691 93.3667 299.998 93.66C299.318 93.94 298.578 94.08 297.778 94.08ZM318.472 83.48C319.312 83.48 320.038 83.6467 320.652 83.98C321.278 84.3 321.765 84.7933 322.112 85.46C322.458 86.1133 322.632 86.9267 322.632 87.9V94H321.632V87.98C321.632 86.8067 321.345 85.9133 320.772 85.3C320.198 84.6867 319.398 84.38 318.372 84.38C317.585 84.38 316.905 84.5467 316.332 84.88C315.758 85.2133 315.318 85.68 315.012 86.28C314.705 86.88 314.552 87.6 314.552 88.44V94H313.552V87.98C313.552 86.8067 313.265 85.9133 312.692 85.3C312.118 84.6867 311.318 84.38 310.292 84.38C309.505 84.38 308.825 84.5467 308.252 84.88C307.678 85.2133 307.238 85.68 306.932 86.28C306.625 86.88 306.472 87.6 306.472 88.44V94H305.472V83.56H306.432V86.44L306.292 86.12C306.598 85.3067 307.112 84.6667 307.832 84.2C308.552 83.72 309.418 83.48 310.432 83.48C311.472 83.48 312.345 83.7467 313.052 84.28C313.772 84.8 314.225 85.58 314.412 86.62L314.072 86.48C314.352 85.5867 314.878 84.8667 315.652 84.32C316.425 83.76 317.365 83.48 318.472 83.48ZM332.001 94.08C331.081 94.08 330.247 93.8667 329.501 93.44C328.767 93.0133 328.181 92.4 327.741 91.6C327.314 90.8 327.101 89.86 327.101 88.78C327.101 87.6733 327.314 86.7267 327.741 85.94C328.181 85.1533 328.767 84.5467 329.501 84.12C330.247 83.6933 331.081 83.48 332.001 83.48C332.987 83.48 333.867 83.7067 334.641 84.16C335.427 84.6 336.041 85.22 336.481 86.02C336.934 86.8067 337.161 87.7267 337.161 88.78C337.161 89.82 336.934 90.74 336.481 91.54C336.041 92.34 335.427 92.9667 334.641 93.42C333.867 93.86 332.987 94.08 332.001 94.08ZM326.761 94V79.16H327.761V86.94L327.561 88.76L327.721 90.58V94H326.761ZM331.941 93.18C332.741 93.18 333.461 93 334.101 92.64C334.741 92.2667 335.241 91.7467 335.601 91.08C335.974 90.4133 336.161 89.6467 336.161 88.78C336.161 87.9 335.974 87.1333 335.601 86.48C335.241 85.8133 334.741 85.3 334.101 84.94C333.461 84.5667 332.741 84.38 331.941 84.38C331.141 84.38 330.421 84.5667 329.781 84.94C329.154 85.3 328.654 85.8133 328.281 86.48C327.921 87.1333 327.741 87.9 327.741 88.78C327.741 89.6467 327.921 90.4133 328.281 91.08C328.654 91.7467 329.154 92.2667 329.781 92.64C330.421 93 331.141 93.18 331.941 93.18ZM340.257 94V83.56H341.217V86.42L341.117 86.1C341.41 85.26 341.903 84.6133 342.597 84.16C343.29 83.7067 344.157 83.48 345.197 83.48V84.46C345.157 84.46 345.117 84.46 345.077 84.46C345.037 84.4467 344.997 84.44 344.957 84.44C343.797 84.44 342.89 84.8067 342.237 85.54C341.583 86.26 341.257 87.2667 341.257 88.56V94H340.257ZM353.751 94V91.62L353.711 91.26V87.34C353.711 86.3667 353.444 85.6267 352.911 85.12C352.391 84.6133 351.624 84.36 350.611 84.36C349.891 84.36 349.217 84.4867 348.591 84.74C347.977 84.98 347.451 85.2933 347.011 85.68L346.511 84.96C347.031 84.4933 347.657 84.1333 348.391 83.88C349.124 83.6133 349.891 83.48 350.691 83.48C351.984 83.48 352.977 83.8067 353.671 84.46C354.364 85.1133 354.711 86.0867 354.711 87.38V94H353.751ZM349.991 94.08C349.217 94.08 348.544 93.96 347.971 93.72C347.411 93.4667 346.977 93.1133 346.671 92.66C346.377 92.2067 346.231 91.6867 346.231 91.1C346.231 90.5667 346.351 90.0867 346.591 89.66C346.844 89.22 347.257 88.8667 347.831 88.6C348.404 88.32 349.171 88.18 350.131 88.18H353.971V88.96H350.151C349.071 88.96 348.311 89.16 347.871 89.56C347.444 89.96 347.231 90.46 347.231 91.06C347.231 91.7267 347.484 92.26 347.991 92.66C348.497 93.06 349.211 93.26 350.131 93.26C351.011 93.26 351.751 93.06 352.351 92.66C352.964 92.26 353.417 91.68 353.711 90.92L353.991 91.6C353.711 92.36 353.231 92.9667 352.551 93.42C351.884 93.86 351.031 94.08 349.991 94.08ZM362.971 94.08C361.958 94.08 361.051 93.8533 360.251 93.4C359.464 92.9467 358.838 92.32 358.371 91.52C357.918 90.72 357.691 89.8067 357.691 88.78C357.691 87.74 357.918 86.82 358.371 86.02C358.838 85.22 359.464 84.6 360.251 84.16C361.051 83.7067 361.958 83.48 362.971 83.48C363.811 83.48 364.571 83.64 365.251 83.96C365.944 84.28 366.504 84.76 366.931 85.4L366.191 85.94C365.818 85.4067 365.351 85.0133 364.791 84.76C364.231 84.5067 363.624 84.38 362.971 84.38C362.158 84.38 361.424 84.5667 360.771 84.94C360.131 85.3 359.624 85.8133 359.251 86.48C358.891 87.1333 358.711 87.9 358.711 88.78C358.711 89.66 358.891 90.4333 359.251 91.1C359.624 91.7533 360.131 92.2667 360.771 92.64C361.424 93 362.158 93.18 362.971 93.18C363.624 93.18 364.231 93.0533 364.791 92.8C365.351 92.5467 365.818 92.1533 366.191 91.62L366.931 92.16C366.504 92.8 365.944 93.28 365.251 93.6C364.571 93.92 363.811 94.08 362.971 94.08ZM373.989 94.08C372.936 94.08 372.002 93.8533 371.189 93.4C370.389 92.9467 369.756 92.32 369.289 91.52C368.836 90.72 368.609 89.8067 368.609 88.78C368.609 87.74 368.822 86.8267 369.249 86.04C369.689 85.24 370.289 84.6133 371.049 84.16C371.809 83.7067 372.662 83.48 373.609 83.48C374.556 83.48 375.402 83.7 376.149 84.14C376.909 84.58 377.502 85.2 377.929 86C378.369 86.7867 378.589 87.7 378.589 88.74C378.589 88.78 378.582 88.8267 378.569 88.88C378.569 88.92 378.569 88.9667 378.569 89.02H369.349V88.24H378.029L377.629 88.62C377.642 87.8067 377.469 87.08 377.109 86.44C376.762 85.7867 376.289 85.28 375.689 84.92C375.089 84.5467 374.396 84.36 373.609 84.36C372.836 84.36 372.142 84.5467 371.529 84.92C370.929 85.28 370.456 85.7867 370.109 86.44C369.762 87.08 369.589 87.8133 369.589 88.64V88.82C369.589 89.6733 369.776 90.4333 370.149 91.1C370.536 91.7533 371.062 92.2667 371.729 92.64C372.396 93 373.156 93.18 374.009 93.18C374.676 93.18 375.296 93.06 375.869 92.82C376.456 92.58 376.949 92.2133 377.349 91.72L377.929 92.38C377.476 92.94 376.902 93.3667 376.209 93.66C375.529 93.94 374.789 94.08 373.989 94.08ZM123.16 118.08C122.24 118.08 121.533 117.827 121.04 117.32C120.56 116.813 120.32 116.12 120.32 115.24V105.28H121.32V115.14C121.32 115.807 121.487 116.32 121.82 116.68C122.153 117.04 122.633 117.22 123.26 117.22C123.913 117.22 124.453 117.027 124.88 116.64L125.3 117.34C125.033 117.593 124.707 117.78 124.32 117.9C123.947 118.02 123.56 118.08 123.16 118.08ZM118.4 108.42V107.56H124.64V108.42H118.4ZM128.089 118V107.56H129.049V110.42L128.949 110.1C129.242 109.26 129.735 108.613 130.429 108.16C131.122 107.707 131.989 107.48 133.029 107.48V108.46C132.989 108.46 132.949 108.46 132.909 108.46C132.869 108.447 132.829 108.44 132.789 108.44C131.629 108.44 130.722 108.807 130.069 109.54C129.415 110.26 129.089 111.267 129.089 112.56V118H128.089ZM141.583 118V115.62L141.543 115.26V111.34C141.543 110.367 141.276 109.627 140.743 109.12C140.223 108.613 139.456 108.36 138.443 108.36C137.723 108.36 137.049 108.487 136.423 108.74C135.809 108.98 135.283 109.293 134.843 109.68L134.343 108.96C134.863 108.493 135.489 108.133 136.223 107.88C136.956 107.613 137.723 107.48 138.523 107.48C139.816 107.48 140.809 107.807 141.503 108.46C142.196 109.113 142.543 110.087 142.543 111.38V118H141.583ZM137.823 118.08C137.049 118.08 136.376 117.96 135.803 117.72C135.243 117.467 134.809 117.113 134.503 116.66C134.209 116.207 134.063 115.687 134.063 115.1C134.063 114.567 134.183 114.087 134.423 113.66C134.676 113.22 135.089 112.867 135.663 112.6C136.236 112.32 137.003 112.18 137.963 112.18H141.803V112.96H137.983C136.903 112.96 136.143 113.16 135.703 113.56C135.276 113.96 135.063 114.46 135.063 115.06C135.063 115.727 135.316 116.26 135.823 116.66C136.329 117.06 137.043 117.26 137.963 117.26C138.843 117.26 139.583 117.06 140.183 116.66C140.796 116.26 141.249 115.68 141.543 114.92L141.823 115.6C141.543 116.36 141.063 116.967 140.383 117.42C139.716 117.86 138.863 118.08 137.823 118.08ZM151.763 107.48C152.616 107.48 153.356 107.647 153.983 107.98C154.623 108.3 155.116 108.793 155.463 109.46C155.823 110.113 156.003 110.927 156.003 111.9V118H155.003V111.98C155.003 110.807 154.703 109.913 154.103 109.3C153.516 108.687 152.69 108.38 151.623 108.38C150.81 108.38 150.103 108.547 149.503 108.88C148.903 109.213 148.443 109.68 148.123 110.28C147.816 110.88 147.663 111.6 147.663 112.44V118H146.663V107.56H147.623V110.46L147.483 110.14C147.803 109.313 148.33 108.667 149.063 108.2C149.796 107.72 150.696 107.48 151.763 107.48ZM162.76 118.08C161.893 118.08 161.08 117.953 160.32 117.7C159.573 117.447 158.993 117.127 158.58 116.74L159.04 115.94C159.44 116.287 159.973 116.587 160.64 116.84C161.307 117.08 162.027 117.2 162.8 117.2C163.893 117.2 164.68 117.02 165.16 116.66C165.64 116.3 165.88 115.827 165.88 115.24C165.88 114.813 165.753 114.48 165.5 114.24C165.26 113.987 164.933 113.793 164.52 113.66C164.107 113.527 163.653 113.42 163.16 113.34C162.667 113.247 162.173 113.147 161.68 113.04C161.187 112.933 160.733 112.78 160.32 112.58C159.907 112.38 159.573 112.107 159.32 111.76C159.08 111.4 158.96 110.927 158.96 110.34C158.96 109.807 159.107 109.327 159.4 108.9C159.693 108.473 160.133 108.133 160.72 107.88C161.307 107.613 162.04 107.48 162.92 107.48C163.573 107.48 164.227 107.573 164.88 107.76C165.547 107.947 166.087 108.193 166.5 108.5L166.04 109.3C165.6 108.967 165.107 108.727 164.56 108.58C164.013 108.433 163.46 108.36 162.9 108.36C161.887 108.36 161.14 108.547 160.66 108.92C160.193 109.293 159.96 109.76 159.96 110.32C159.96 110.76 160.08 111.113 160.32 111.38C160.573 111.633 160.907 111.833 161.32 111.98C161.733 112.113 162.187 112.227 162.68 112.32C163.173 112.4 163.667 112.493 164.16 112.6C164.653 112.707 165.107 112.86 165.52 113.06C165.933 113.247 166.26 113.513 166.5 113.86C166.753 114.193 166.88 114.647 166.88 115.22C166.88 115.793 166.72 116.293 166.4 116.72C166.093 117.147 165.633 117.48 165.02 117.72C164.407 117.96 163.653 118.08 162.76 118.08ZM174.911 118.08C173.991 118.08 173.157 117.867 172.411 117.44C171.677 117.013 171.091 116.407 170.651 115.62C170.224 114.82 170.011 113.873 170.011 112.78C170.011 111.687 170.224 110.747 170.651 109.96C171.091 109.16 171.677 108.547 172.411 108.12C173.157 107.693 173.991 107.48 174.911 107.48C175.897 107.48 176.777 107.707 177.551 108.16C178.337 108.6 178.951 109.22 179.391 110.02C179.844 110.82 180.071 111.74 180.071 112.78C180.071 113.82 179.844 114.74 179.391 115.54C178.951 116.34 178.337 116.967 177.551 117.42C176.777 117.86 175.897 118.08 174.911 118.08ZM169.671 121.88V107.56H170.631V110.98L170.471 112.8L170.671 114.62V121.88H169.671ZM174.851 117.18C175.651 117.18 176.371 117 177.011 116.64C177.651 116.267 178.151 115.747 178.511 115.08C178.884 114.413 179.071 113.647 179.071 112.78C179.071 111.9 178.884 111.133 178.511 110.48C178.151 109.813 177.651 109.3 177.011 108.94C176.371 108.567 175.651 108.38 174.851 108.38C174.051 108.38 173.331 108.567 172.691 108.94C172.064 109.3 171.564 109.813 171.191 110.48C170.831 111.133 170.651 111.9 170.651 112.78C170.651 113.647 170.831 114.413 171.191 115.08C171.564 115.747 172.064 116.267 172.691 116.64C173.331 117 174.051 117.18 174.851 117.18ZM189.708 118V115.62L189.668 115.26V111.34C189.668 110.367 189.401 109.627 188.868 109.12C188.348 108.613 187.581 108.36 186.568 108.36C185.848 108.36 185.174 108.487 184.548 108.74C183.934 108.98 183.408 109.293 182.968 109.68L182.468 108.96C182.988 108.493 183.614 108.133 184.348 107.88C185.081 107.613 185.848 107.48 186.648 107.48C187.941 107.48 188.934 107.807 189.628 108.46C190.321 109.113 190.668 110.087 190.668 111.38V118H189.708ZM185.948 118.08C185.174 118.08 184.501 117.96 183.928 117.72C183.368 117.467 182.934 117.113 182.628 116.66C182.334 116.207 182.188 115.687 182.188 115.1C182.188 114.567 182.308 114.087 182.548 113.66C182.801 113.22 183.214 112.867 183.788 112.6C184.361 112.32 185.128 112.18 186.088 112.18H189.928V112.96H186.108C185.028 112.96 184.268 113.16 183.828 113.56C183.401 113.96 183.188 114.46 183.188 115.06C183.188 115.727 183.441 116.26 183.948 116.66C184.454 117.06 185.168 117.26 186.088 117.26C186.968 117.26 187.708 117.06 188.308 116.66C188.921 116.26 189.374 115.68 189.668 114.92L189.948 115.6C189.668 116.36 189.188 116.967 188.508 117.42C187.841 117.86 186.988 118.08 185.948 118.08ZM194.788 118V107.56H195.748V110.42L195.648 110.1C195.941 109.26 196.435 108.613 197.128 108.16C197.821 107.707 198.688 107.48 199.728 107.48V108.46C199.688 108.46 199.648 108.46 199.608 108.46C199.568 108.447 199.528 108.44 199.488 108.44C198.328 108.44 197.421 108.807 196.768 109.54C196.115 110.26 195.788 111.267 195.788 112.56V118H194.788ZM206.626 118.08C205.572 118.08 204.639 117.853 203.826 117.4C203.026 116.947 202.392 116.32 201.926 115.52C201.472 114.72 201.246 113.807 201.246 112.78C201.246 111.74 201.459 110.827 201.886 110.04C202.326 109.24 202.926 108.613 203.686 108.16C204.446 107.707 205.299 107.48 206.246 107.48C207.192 107.48 208.039 107.7 208.786 108.14C209.546 108.58 210.139 109.2 210.566 110C211.006 110.787 211.226 111.7 211.226 112.74C211.226 112.78 211.219 112.827 211.206 112.88C211.206 112.92 211.206 112.967 211.206 113.02H201.986V112.24H210.666L210.266 112.62C210.279 111.807 210.106 111.08 209.746 110.44C209.399 109.787 208.926 109.28 208.326 108.92C207.726 108.547 207.032 108.36 206.246 108.36C205.472 108.36 204.779 108.547 204.166 108.92C203.566 109.28 203.092 109.787 202.746 110.44C202.399 111.08 202.226 111.813 202.226 112.64V112.82C202.226 113.673 202.412 114.433 202.786 115.1C203.172 115.753 203.699 116.267 204.366 116.64C205.032 117 205.792 117.18 206.646 117.18C207.312 117.18 207.932 117.06 208.506 116.82C209.092 116.58 209.586 116.213 209.986 115.72L210.566 116.38C210.112 116.94 209.539 117.367 208.846 117.66C208.166 117.94 207.426 118.08 206.626 118.08ZM219.419 107.48C220.273 107.48 221.013 107.647 221.639 107.98C222.279 108.3 222.773 108.793 223.119 109.46C223.479 110.113 223.659 110.927 223.659 111.9V118H222.659V111.98C222.659 110.807 222.359 109.913 221.759 109.3C221.173 108.687 220.346 108.38 219.279 108.38C218.466 108.38 217.759 108.547 217.159 108.88C216.559 109.213 216.099 109.68 215.779 110.28C215.473 110.88 215.319 111.6 215.319 112.44V118H214.319V107.56H215.279V110.46L215.139 110.14C215.459 109.313 215.986 108.667 216.719 108.2C217.453 107.72 218.353 107.48 219.419 107.48ZM230.816 118.08C229.896 118.08 229.19 117.827 228.696 117.32C228.216 116.813 227.976 116.12 227.976 115.24V105.28H228.976V115.14C228.976 115.807 229.143 116.32 229.476 116.68C229.81 117.04 230.29 117.22 230.916 117.22C231.57 117.22 232.11 117.027 232.536 116.64L232.956 117.34C232.69 117.593 232.363 117.78 231.976 117.9C231.603 118.02 231.216 118.08 230.816 118.08ZM226.056 108.42V107.56H232.296V108.42H226.056ZM243.522 118.08C242.655 118.08 241.842 117.953 241.082 117.7C240.335 117.447 239.755 117.127 239.342 116.74L239.802 115.94C240.202 116.287 240.735 116.587 241.402 116.84C242.068 117.08 242.788 117.2 243.562 117.2C244.655 117.2 245.442 117.02 245.922 116.66C246.402 116.3 246.642 115.827 246.642 115.24C246.642 114.813 246.515 114.48 246.262 114.24C246.022 113.987 245.695 113.793 245.282 113.66C244.868 113.527 244.415 113.42 243.922 113.34C243.428 113.247 242.935 113.147 242.442 113.04C241.948 112.933 241.495 112.78 241.082 112.58C240.668 112.38 240.335 112.107 240.082 111.76C239.842 111.4 239.722 110.927 239.722 110.34C239.722 109.807 239.868 109.327 240.162 108.9C240.455 108.473 240.895 108.133 241.482 107.88C242.068 107.613 242.802 107.48 243.682 107.48C244.335 107.48 244.988 107.573 245.642 107.76C246.308 107.947 246.848 108.193 247.262 108.5L246.802 109.3C246.362 108.967 245.868 108.727 245.322 108.58C244.775 108.433 244.222 108.36 243.662 108.36C242.648 108.36 241.902 108.547 241.422 108.92C240.955 109.293 240.722 109.76 240.722 110.32C240.722 110.76 240.842 111.113 241.082 111.38C241.335 111.633 241.668 111.833 242.082 111.98C242.495 112.113 242.948 112.227 243.442 112.32C243.935 112.4 244.428 112.493 244.922 112.6C245.415 112.707 245.868 112.86 246.282 113.06C246.695 113.247 247.022 113.513 247.262 113.86C247.515 114.193 247.642 114.647 247.642 115.22C247.642 115.793 247.482 116.293 247.162 116.72C246.855 117.147 246.395 117.48 245.782 117.72C245.168 117.96 244.415 118.08 243.522 118.08ZM254.673 118.08C253.779 118.08 253.006 117.92 252.353 117.6C251.699 117.267 251.193 116.773 250.833 116.12C250.486 115.453 250.313 114.633 250.313 113.66V107.56H251.313V113.58C251.313 114.753 251.613 115.647 252.213 116.26C252.813 116.873 253.659 117.18 254.753 117.18C255.539 117.18 256.219 117.013 256.793 116.68C257.366 116.347 257.806 115.88 258.113 115.28C258.419 114.667 258.573 113.947 258.573 113.12V107.56H259.573V118H258.613V115.1L258.753 115.44C258.446 116.253 257.933 116.9 257.213 117.38C256.506 117.847 255.659 118.08 254.673 118.08ZM266.451 118.08C265.585 118.08 264.771 117.953 264.011 117.7C263.265 117.447 262.685 117.127 262.271 116.74L262.731 115.94C263.131 116.287 263.665 116.587 264.331 116.84C264.998 117.08 265.718 117.2 266.491 117.2C267.585 117.2 268.371 117.02 268.851 116.66C269.331 116.3 269.571 115.827 269.571 115.24C269.571 114.813 269.445 114.48 269.191 114.24C268.951 113.987 268.625 113.793 268.211 113.66C267.798 113.527 267.345 113.42 266.851 113.34C266.358 113.247 265.865 113.147 265.371 113.04C264.878 112.933 264.425 112.78 264.011 112.58C263.598 112.38 263.265 112.107 263.011 111.76C262.771 111.4 262.651 110.927 262.651 110.34C262.651 109.807 262.798 109.327 263.091 108.9C263.385 108.473 263.825 108.133 264.411 107.88C264.998 107.613 265.731 107.48 266.611 107.48C267.265 107.48 267.918 107.573 268.571 107.76C269.238 107.947 269.778 108.193 270.191 108.5L269.731 109.3C269.291 108.967 268.798 108.727 268.251 108.58C267.705 108.433 267.151 108.36 266.591 108.36C265.578 108.36 264.831 108.547 264.351 108.92C263.885 109.293 263.651 109.76 263.651 110.32C263.651 110.76 263.771 111.113 264.011 111.38C264.265 111.633 264.598 111.833 265.011 111.98C265.425 112.113 265.878 112.227 266.371 112.32C266.865 112.4 267.358 112.493 267.851 112.6C268.345 112.707 268.798 112.86 269.211 113.06C269.625 113.247 269.951 113.513 270.191 113.86C270.445 114.193 270.571 114.647 270.571 115.22C270.571 115.793 270.411 116.293 270.091 116.72C269.785 117.147 269.325 117.48 268.711 117.72C268.098 117.96 267.345 118.08 266.451 118.08ZM276.402 118.08C275.482 118.08 274.776 117.827 274.282 117.32C273.802 116.813 273.562 116.12 273.562 115.24V105.28H274.562V115.14C274.562 115.807 274.729 116.32 275.062 116.68C275.396 117.04 275.876 117.22 276.502 117.22C277.156 117.22 277.696 117.027 278.122 116.64L278.542 117.34C278.276 117.593 277.949 117.78 277.562 117.9C277.189 118.02 276.802 118.08 276.402 118.08ZM271.642 108.42V107.56H277.882V108.42H271.642ZM287.911 118V115.62L287.871 115.26V111.34C287.871 110.367 287.604 109.627 287.071 109.12C286.551 108.613 285.784 108.36 284.771 108.36C284.051 108.36 283.378 108.487 282.751 108.74C282.138 108.98 281.611 109.293 281.171 109.68L280.671 108.96C281.191 108.493 281.818 108.133 282.551 107.88C283.284 107.613 284.051 107.48 284.851 107.48C286.144 107.48 287.138 107.807 287.831 108.46C288.524 109.113 288.871 110.087 288.871 111.38V118H287.911ZM284.151 118.08C283.378 118.08 282.704 117.96 282.131 117.72C281.571 117.467 281.138 117.113 280.831 116.66C280.538 116.207 280.391 115.687 280.391 115.1C280.391 114.567 280.511 114.087 280.751 113.66C281.004 113.22 281.418 112.867 281.991 112.6C282.564 112.32 283.331 112.18 284.291 112.18H288.131V112.96H284.311C283.231 112.96 282.471 113.16 282.031 113.56C281.604 113.96 281.391 114.46 281.391 115.06C281.391 115.727 281.644 116.26 282.151 116.66C282.658 117.06 283.371 117.26 284.291 117.26C285.171 117.26 285.911 117.06 286.511 116.66C287.124 116.26 287.578 115.68 287.871 114.92L288.151 115.6C287.871 116.36 287.391 116.967 286.711 117.42C286.044 117.86 285.191 118.08 284.151 118.08ZM292.991 118V107.56H293.991V118H292.991ZM293.491 105.02C293.264 105.02 293.071 104.94 292.911 104.78C292.751 104.62 292.671 104.433 292.671 104.22C292.671 103.993 292.751 103.8 292.911 103.64C293.071 103.48 293.264 103.4 293.491 103.4C293.731 103.4 293.924 103.48 294.071 103.64C294.231 103.787 294.311 103.973 294.311 104.2C294.311 104.427 294.231 104.62 294.071 104.78C293.924 104.94 293.731 105.02 293.491 105.02ZM303.306 107.48C304.159 107.48 304.899 107.647 305.526 107.98C306.166 108.3 306.659 108.793 307.006 109.46C307.366 110.113 307.546 110.927 307.546 111.9V118H306.546V111.98C306.546 110.807 306.246 109.913 305.646 109.3C305.059 108.687 304.233 108.38 303.166 108.38C302.353 108.38 301.646 108.547 301.046 108.88C300.446 109.213 299.986 109.68 299.666 110.28C299.359 110.88 299.206 111.6 299.206 112.44V118H298.206V107.56H299.166V110.46L299.026 110.14C299.346 109.313 299.873 108.667 300.606 108.2C301.339 107.72 302.239 107.48 303.306 107.48ZM318.243 118V115.62L318.203 115.26V111.34C318.203 110.367 317.936 109.627 317.403 109.12C316.883 108.613 316.116 108.36 315.103 108.36C314.383 108.36 313.71 108.487 313.083 108.74C312.47 108.98 311.943 109.293 311.503 109.68L311.003 108.96C311.523 108.493 312.15 108.133 312.883 107.88C313.616 107.613 314.383 107.48 315.183 107.48C316.476 107.48 317.47 107.807 318.163 108.46C318.856 109.113 319.203 110.087 319.203 111.38V118H318.243ZM314.483 118.08C313.71 118.08 313.036 117.96 312.463 117.72C311.903 117.467 311.47 117.113 311.163 116.66C310.87 116.207 310.723 115.687 310.723 115.1C310.723 114.567 310.843 114.087 311.083 113.66C311.336 113.22 311.75 112.867 312.323 112.6C312.896 112.32 313.663 112.18 314.623 112.18H318.463V112.96H314.643C313.563 112.96 312.803 113.16 312.363 113.56C311.936 113.96 311.723 114.46 311.723 115.06C311.723 115.727 311.976 116.26 312.483 116.66C312.99 117.06 313.703 117.26 314.623 117.26C315.503 117.26 316.243 117.06 316.843 116.66C317.456 116.26 317.91 115.68 318.203 114.92L318.483 115.6C318.203 116.36 317.723 116.967 317.043 117.42C316.376 117.86 315.523 118.08 314.483 118.08ZM328.563 118.08C327.643 118.08 326.81 117.867 326.063 117.44C325.33 117.013 324.743 116.4 324.303 115.6C323.876 114.8 323.663 113.86 323.663 112.78C323.663 111.673 323.876 110.727 324.303 109.94C324.743 109.153 325.33 108.547 326.063 108.12C326.81 107.693 327.643 107.48 328.563 107.48C329.55 107.48 330.43 107.707 331.203 108.16C331.99 108.6 332.603 109.22 333.043 110.02C333.496 110.807 333.723 111.727 333.723 112.78C333.723 113.82 333.496 114.74 333.043 115.54C332.603 116.34 331.99 116.967 331.203 117.42C330.43 117.86 329.55 118.08 328.563 118.08ZM323.323 118V103.16H324.323V110.94L324.123 112.76L324.283 114.58V118H323.323ZM328.503 117.18C329.303 117.18 330.023 117 330.663 116.64C331.303 116.267 331.803 115.747 332.163 115.08C332.536 114.413 332.723 113.647 332.723 112.78C332.723 111.9 332.536 111.133 332.163 110.48C331.803 109.813 331.303 109.3 330.663 108.94C330.023 108.567 329.303 108.38 328.503 108.38C327.703 108.38 326.983 108.567 326.343 108.94C325.716 109.3 325.216 109.813 324.843 110.48C324.483 111.133 324.303 111.9 324.303 112.78C324.303 113.647 324.483 114.413 324.843 115.08C325.216 115.747 325.716 116.267 326.343 116.64C326.983 117 327.703 117.18 328.503 117.18ZM336.819 118V107.56H337.819V118H336.819ZM337.319 105.02C337.093 105.02 336.899 104.94 336.739 104.78C336.579 104.62 336.499 104.433 336.499 104.22C336.499 103.993 336.579 103.8 336.739 103.64C336.899 103.48 337.093 103.4 337.319 103.4C337.559 103.4 337.753 103.48 337.899 103.64C338.059 103.787 338.139 103.973 338.139 104.2C338.139 104.427 338.059 104.62 337.899 104.78C337.753 104.94 337.559 105.02 337.319 105.02ZM342.034 118V103.16H343.034V118H342.034ZM347.249 118V107.56H348.249V118H347.249ZM347.749 105.02C347.522 105.02 347.329 104.94 347.169 104.78C347.009 104.62 346.929 104.433 346.929 104.22C346.929 103.993 347.009 103.8 347.169 103.64C347.329 103.48 347.522 103.4 347.749 103.4C347.989 103.4 348.182 103.48 348.329 103.64C348.489 103.787 348.569 103.973 348.569 104.2C348.569 104.427 348.489 104.62 348.329 104.78C348.182 104.94 347.989 105.02 347.749 105.02ZM355.504 118.08C354.584 118.08 353.877 117.827 353.384 117.32C352.904 116.813 352.664 116.12 352.664 115.24V105.28H353.664V115.14C353.664 115.807 353.83 116.32 354.164 116.68C354.497 117.04 354.977 117.22 355.604 117.22C356.257 117.22 356.797 117.027 357.224 116.64L357.644 117.34C357.377 117.593 357.05 117.78 356.664 117.9C356.29 118.02 355.904 118.08 355.504 118.08ZM350.744 108.42V107.56H356.984V108.42H350.744ZM359.997 121.96C359.517 121.96 359.064 121.88 358.637 121.72C358.224 121.56 357.871 121.327 357.577 121.02L358.077 120.26C358.344 120.54 358.631 120.747 358.937 120.88C359.257 121.013 359.617 121.08 360.017 121.08C360.497 121.08 360.917 120.947 361.277 120.68C361.651 120.413 361.997 119.927 362.317 119.22L363.037 117.62L363.177 117.44L367.597 107.56H368.617L363.257 119.42C362.977 120.06 362.671 120.56 362.337 120.92C362.017 121.293 361.664 121.56 361.277 121.72C360.891 121.88 360.464 121.96 359.997 121.96ZM363.017 118.26L358.177 107.56H359.237L363.637 117.38L363.017 118.26ZM126.7 142V139.62L126.66 139.26V135.34C126.66 134.367 126.393 133.627 125.86 133.12C125.34 132.613 124.573 132.36 123.56 132.36C122.84 132.36 122.167 132.487 121.54 132.74C120.927 132.98 120.4 133.293 119.96 133.68L119.46 132.96C119.98 132.493 120.607 132.133 121.34 131.88C122.073 131.613 122.84 131.48 123.64 131.48C124.933 131.48 125.927 131.807 126.62 132.46C127.313 133.113 127.66 134.087 127.66 135.38V142H126.7ZM122.94 142.08C122.167 142.08 121.493 141.96 120.92 141.72C120.36 141.467 119.927 141.113 119.62 140.66C119.327 140.207 119.18 139.687 119.18 139.1C119.18 138.567 119.3 138.087 119.54 137.66C119.793 137.22 120.207 136.867 120.78 136.6C121.353 136.32 122.12 136.18 123.08 136.18H126.92V136.96H123.1C122.02 136.96 121.26 137.16 120.82 137.56C120.393 137.96 120.18 138.46 120.18 139.06C120.18 139.727 120.433 140.26 120.94 140.66C121.447 141.06 122.16 141.26 123.08 141.26C123.96 141.26 124.7 141.06 125.3 140.66C125.913 140.26 126.367 139.68 126.66 138.92L126.94 139.6C126.66 140.36 126.18 140.967 125.5 141.42C124.833 141.86 123.98 142.08 122.94 142.08ZM136.88 131.48C137.733 131.48 138.473 131.647 139.1 131.98C139.74 132.3 140.233 132.793 140.58 133.46C140.94 134.113 141.12 134.927 141.12 135.9V142H140.12V135.98C140.12 134.807 139.82 133.913 139.22 133.3C138.633 132.687 137.807 132.38 136.74 132.38C135.927 132.38 135.22 132.547 134.62 132.88C134.02 133.213 133.56 133.68 133.24 134.28C132.933 134.88 132.78 135.6 132.78 136.44V142H131.78V131.56H132.74V134.46L132.6 134.14C132.92 133.313 133.447 132.667 134.18 132.2C134.913 131.72 135.813 131.48 136.88 131.48ZM149.257 142.08C148.284 142.08 147.404 141.86 146.617 141.42C145.844 140.967 145.231 140.34 144.777 139.54C144.324 138.74 144.097 137.82 144.097 136.78C144.097 135.727 144.324 134.807 144.777 134.02C145.231 133.22 145.844 132.6 146.617 132.16C147.404 131.707 148.284 131.48 149.257 131.48C150.177 131.48 151.004 131.693 151.737 132.12C152.484 132.547 153.071 133.153 153.497 133.94C153.937 134.727 154.157 135.673 154.157 136.78C154.157 137.86 153.944 138.8 153.517 139.6C153.091 140.4 152.504 141.013 151.757 141.44C151.024 141.867 150.191 142.08 149.257 142.08ZM149.317 141.18C150.117 141.18 150.831 141 151.457 140.64C152.097 140.267 152.597 139.747 152.957 139.08C153.331 138.413 153.517 137.647 153.517 136.78C153.517 135.9 153.331 135.133 152.957 134.48C152.597 133.813 152.097 133.3 151.457 132.94C150.831 132.567 150.117 132.38 149.317 132.38C148.517 132.38 147.797 132.567 147.157 132.94C146.531 133.3 146.031 133.813 145.657 134.48C145.297 135.133 145.117 135.9 145.117 136.78C145.117 137.647 145.297 138.413 145.657 139.08C146.031 139.747 146.531 140.267 147.157 140.64C147.797 141 148.517 141.18 149.317 141.18ZM153.537 142V138.58L153.717 136.76L153.517 134.94V127.16H154.517V142H153.537ZM168.11 142.08C167.057 142.08 166.123 141.853 165.31 141.4C164.51 140.947 163.877 140.32 163.41 139.52C162.957 138.72 162.73 137.807 162.73 136.78C162.73 135.74 162.943 134.827 163.37 134.04C163.81 133.24 164.41 132.613 165.17 132.16C165.93 131.707 166.783 131.48 167.73 131.48C168.677 131.48 169.523 131.7 170.27 132.14C171.03 132.58 171.623 133.2 172.05 134C172.49 134.787 172.71 135.7 172.71 136.74C172.71 136.78 172.703 136.827 172.69 136.88C172.69 136.92 172.69 136.967 172.69 137.02H163.47V136.24H172.15L171.75 136.62C171.763 135.807 171.59 135.08 171.23 134.44C170.883 133.787 170.41 133.28 169.81 132.92C169.21 132.547 168.517 132.36 167.73 132.36C166.957 132.36 166.263 132.547 165.65 132.92C165.05 133.28 164.577 133.787 164.23 134.44C163.883 135.08 163.71 135.813 163.71 136.64V136.82C163.71 137.673 163.897 138.433 164.27 139.1C164.657 139.753 165.183 140.267 165.85 140.64C166.517 141 167.277 141.18 168.13 141.18C168.797 141.18 169.417 141.06 169.99 140.82C170.577 140.58 171.07 140.213 171.47 139.72L172.05 140.38C171.597 140.94 171.023 141.367 170.33 141.66C169.65 141.94 168.91 142.08 168.11 142.08ZM176.004 142V129.96C176.004 129.093 176.25 128.4 176.744 127.88C177.25 127.347 177.97 127.08 178.904 127.08C179.29 127.08 179.67 127.14 180.044 127.26C180.417 127.367 180.724 127.533 180.964 127.76L180.564 128.52C180.364 128.32 180.124 128.173 179.844 128.08C179.564 127.987 179.264 127.94 178.944 127.94C178.304 127.94 177.817 128.12 177.484 128.48C177.15 128.827 176.984 129.347 176.984 130.04V131.8L177.004 132.28V142H176.004ZM174.084 132.42V131.56H180.324V132.42H174.084ZM182.625 142V129.96C182.625 129.093 182.871 128.4 183.365 127.88C183.871 127.347 184.591 127.08 185.525 127.08C185.911 127.08 186.291 127.14 186.665 127.26C187.038 127.367 187.345 127.533 187.585 127.76L187.185 128.52C186.985 128.32 186.745 128.173 186.465 128.08C186.185 127.987 185.885 127.94 185.565 127.94C184.925 127.94 184.438 128.12 184.105 128.48C183.771 128.827 183.605 129.347 183.605 130.04V131.8L183.625 132.28V142H182.625ZM180.705 132.42V131.56H186.945V132.42H180.705ZM193.051 142.08C191.998 142.08 191.065 141.853 190.251 141.4C189.451 140.947 188.818 140.32 188.351 139.52C187.898 138.72 187.671 137.807 187.671 136.78C187.671 135.74 187.885 134.827 188.311 134.04C188.751 133.24 189.351 132.613 190.111 132.16C190.871 131.707 191.725 131.48 192.671 131.48C193.618 131.48 194.465 131.7 195.211 132.14C195.971 132.58 196.565 133.2 196.991 134C197.431 134.787 197.651 135.7 197.651 136.74C197.651 136.78 197.645 136.827 197.631 136.88C197.631 136.92 197.631 136.967 197.631 137.02H188.411V136.24H197.091L196.691 136.62C196.705 135.807 196.531 135.08 196.171 134.44C195.825 133.787 195.351 133.28 194.751 132.92C194.151 132.547 193.458 132.36 192.671 132.36C191.898 132.36 191.205 132.547 190.591 132.92C189.991 133.28 189.518 133.787 189.171 134.44C188.825 135.08 188.651 135.813 188.651 136.64V136.82C188.651 137.673 188.838 138.433 189.211 139.1C189.598 139.753 190.125 140.267 190.791 140.64C191.458 141 192.218 141.18 193.071 141.18C193.738 141.18 194.358 141.06 194.931 140.82C195.518 140.58 196.011 140.213 196.411 139.72L196.991 140.38C196.538 140.94 195.965 141.367 195.271 141.66C194.591 141.94 193.851 142.08 193.051 142.08ZM204.885 142.08C203.872 142.08 202.965 141.853 202.165 141.4C201.378 140.947 200.752 140.32 200.285 139.52C199.832 138.72 199.605 137.807 199.605 136.78C199.605 135.74 199.832 134.82 200.285 134.02C200.752 133.22 201.378 132.6 202.165 132.16C202.965 131.707 203.872 131.48 204.885 131.48C205.725 131.48 206.485 131.64 207.165 131.96C207.858 132.28 208.418 132.76 208.845 133.4L208.105 133.94C207.732 133.407 207.265 133.013 206.705 132.76C206.145 132.507 205.538 132.38 204.885 132.38C204.072 132.38 203.338 132.567 202.685 132.94C202.045 133.3 201.538 133.813 201.165 134.48C200.805 135.133 200.625 135.9 200.625 136.78C200.625 137.66 200.805 138.433 201.165 139.1C201.538 139.753 202.045 140.267 202.685 140.64C203.338 141 204.072 141.18 204.885 141.18C205.538 141.18 206.145 141.053 206.705 140.8C207.265 140.547 207.732 140.153 208.105 139.62L208.845 140.16C208.418 140.8 207.858 141.28 207.165 141.6C206.485 141.92 205.725 142.08 204.885 142.08ZM214.996 142.08C214.076 142.08 213.369 141.827 212.876 141.32C212.396 140.813 212.156 140.12 212.156 139.24V129.28H213.156V139.14C213.156 139.807 213.323 140.32 213.656 140.68C213.989 141.04 214.469 141.22 215.096 141.22C215.749 141.22 216.289 141.027 216.716 140.64L217.136 141.34C216.869 141.593 216.543 141.78 216.156 141.9C215.783 142.02 215.396 142.08 214.996 142.08ZM210.236 132.42V131.56H216.476V132.42H210.236ZM219.925 142V131.56H220.925V142H219.925ZM220.425 129.02C220.198 129.02 220.005 128.94 219.845 128.78C219.685 128.62 219.605 128.433 219.605 128.22C219.605 127.993 219.685 127.8 219.845 127.64C220.005 127.48 220.198 127.4 220.425 127.4C220.665 127.4 220.858 127.48 221.005 127.64C221.165 127.787 221.245 127.973 221.245 128.2C221.245 128.427 221.165 128.62 221.005 128.78C220.858 128.94 220.665 129.02 220.425 129.02ZM227.78 142L223.08 131.56H224.14L228.54 141.44H228.06L232.5 131.56H233.52L228.8 142H227.78ZM239.653 142.08C238.6 142.08 237.666 141.853 236.853 141.4C236.053 140.947 235.42 140.32 234.953 139.52C234.5 138.72 234.273 137.807 234.273 136.78C234.273 135.74 234.486 134.827 234.913 134.04C235.353 133.24 235.953 132.613 236.713 132.16C237.473 131.707 238.326 131.48 239.273 131.48C240.22 131.48 241.066 131.7 241.813 132.14C242.573 132.58 243.166 133.2 243.593 134C244.033 134.787 244.253 135.7 244.253 136.74C244.253 136.78 244.246 136.827 244.233 136.88C244.233 136.92 244.233 136.967 244.233 137.02H235.013V136.24H243.693L243.293 136.62C243.306 135.807 243.133 135.08 242.773 134.44C242.426 133.787 241.953 133.28 241.353 132.92C240.753 132.547 240.06 132.36 239.273 132.36C238.5 132.36 237.806 132.547 237.193 132.92C236.593 133.28 236.12 133.787 235.773 134.44C235.426 135.08 235.253 135.813 235.253 136.64V136.82C235.253 137.673 235.44 138.433 235.813 139.1C236.2 139.753 236.726 140.267 237.393 140.64C238.06 141 238.82 141.18 239.673 141.18C240.34 141.18 240.96 141.06 241.533 140.82C242.12 140.58 242.613 140.213 243.013 139.72L243.593 140.38C243.14 140.94 242.566 141.367 241.873 141.66C241.193 141.94 240.453 142.08 239.653 142.08ZM124.26 166.08C123.247 166.08 122.34 165.853 121.54 165.4C120.753 164.947 120.127 164.32 119.66 163.52C119.207 162.72 118.98 161.807 118.98 160.78C118.98 159.74 119.207 158.82 119.66 158.02C120.127 157.22 120.753 156.6 121.54 156.16C122.34 155.707 123.247 155.48 124.26 155.48C125.1 155.48 125.86 155.64 126.54 155.96C127.233 156.28 127.793 156.76 128.22 157.4L127.48 157.94C127.107 157.407 126.64 157.013 126.08 156.76C125.52 156.507 124.913 156.38 124.26 156.38C123.447 156.38 122.713 156.567 122.06 156.94C121.42 157.3 120.913 157.813 120.54 158.48C120.18 159.133 120 159.9 120 160.78C120 161.66 120.18 162.433 120.54 163.1C120.913 163.753 121.42 164.267 122.06 164.64C122.713 165 123.447 165.18 124.26 165.18C124.913 165.18 125.52 165.053 126.08 164.8C126.64 164.547 127.107 164.153 127.48 163.62L128.22 164.16C127.793 164.8 127.233 165.28 126.54 165.6C125.86 165.92 125.1 166.08 124.26 166.08ZM135.118 166.08C134.118 166.08 133.225 165.853 132.438 165.4C131.665 164.947 131.045 164.32 130.578 163.52C130.125 162.72 129.898 161.807 129.898 160.78C129.898 159.74 130.125 158.827 130.578 158.04C131.045 157.24 131.665 156.613 132.438 156.16C133.225 155.707 134.118 155.48 135.118 155.48C136.118 155.48 137.011 155.707 137.798 156.16C138.585 156.613 139.205 157.24 139.658 158.04C140.111 158.827 140.338 159.74 140.338 160.78C140.338 161.807 140.111 162.72 139.658 163.52C139.205 164.32 138.585 164.947 137.798 165.4C137.011 165.853 136.118 166.08 135.118 166.08ZM135.118 165.18C135.918 165.18 136.638 165 137.278 164.64C137.918 164.267 138.418 163.747 138.778 163.08C139.138 162.413 139.318 161.647 139.318 160.78C139.318 159.9 139.138 159.133 138.778 158.48C138.418 157.813 137.918 157.3 137.278 156.94C136.638 156.567 135.918 156.38 135.118 156.38C134.318 156.38 133.598 156.567 132.958 156.94C132.331 157.3 131.831 157.813 131.458 158.48C131.098 159.133 130.918 159.9 130.918 160.78C130.918 161.647 131.098 162.413 131.458 163.08C131.831 163.747 132.331 164.267 132.958 164.64C133.598 165 134.318 165.18 135.118 165.18ZM156.44 155.48C157.28 155.48 158.007 155.647 158.62 155.98C159.247 156.3 159.734 156.793 160.08 157.46C160.427 158.113 160.6 158.927 160.6 159.9V166H159.6V159.98C159.6 158.807 159.314 157.913 158.74 157.3C158.167 156.687 157.367 156.38 156.34 156.38C155.554 156.38 154.874 156.547 154.3 156.88C153.727 157.213 153.287 157.68 152.98 158.28C152.674 158.88 152.52 159.6 152.52 160.44V166H151.52V159.98C151.52 158.807 151.234 157.913 150.66 157.3C150.087 156.687 149.287 156.38 148.26 156.38C147.474 156.38 146.794 156.547 146.22 156.88C145.647 157.213 145.207 157.68 144.9 158.28C144.594 158.88 144.44 159.6 144.44 160.44V166H143.44V155.56H144.4V158.44L144.26 158.12C144.567 157.307 145.08 156.667 145.8 156.2C146.52 155.72 147.387 155.48 148.4 155.48C149.44 155.48 150.314 155.747 151.02 156.28C151.74 156.8 152.194 157.58 152.38 158.62L152.04 158.48C152.32 157.587 152.847 156.867 153.62 156.32C154.394 155.76 155.334 155.48 156.44 155.48ZM177.729 155.48C178.569 155.48 179.296 155.647 179.909 155.98C180.536 156.3 181.023 156.793 181.369 157.46C181.716 158.113 181.889 158.927 181.889 159.9V166H180.889V159.98C180.889 158.807 180.603 157.913 180.029 157.3C179.456 156.687 178.656 156.38 177.629 156.38C176.843 156.38 176.163 156.547 175.589 156.88C175.016 157.213 174.576 157.68 174.269 158.28C173.963 158.88 173.809 159.6 173.809 160.44V166H172.809V159.98C172.809 158.807 172.523 157.913 171.949 157.3C171.376 156.687 170.576 156.38 169.549 156.38C168.763 156.38 168.083 156.547 167.509 156.88C166.936 157.213 166.496 157.68 166.189 158.28C165.883 158.88 165.729 159.6 165.729 160.44V166H164.729V155.56H165.689V158.44L165.549 158.12C165.856 157.307 166.369 156.667 167.089 156.2C167.809 155.72 168.676 155.48 169.689 155.48C170.729 155.48 171.603 155.747 172.309 156.28C173.029 156.8 173.483 157.58 173.669 158.62L173.329 158.48C173.609 157.587 174.136 156.867 174.909 156.32C175.683 155.76 176.623 155.48 177.729 155.48ZM190.258 166.08C189.365 166.08 188.592 165.92 187.938 165.6C187.285 165.267 186.778 164.773 186.418 164.12C186.072 163.453 185.898 162.633 185.898 161.66V155.56H186.898V161.58C186.898 162.753 187.198 163.647 187.798 164.26C188.398 164.873 189.245 165.18 190.338 165.18C191.125 165.18 191.805 165.013 192.378 164.68C192.952 164.347 193.392 163.88 193.698 163.28C194.005 162.667 194.158 161.947 194.158 161.12V155.56H195.158V166H194.198V163.1L194.338 163.44C194.032 164.253 193.518 164.9 192.798 165.38C192.092 165.847 191.245 166.08 190.258 166.08ZM204.497 155.48C205.351 155.48 206.091 155.647 206.717 155.98C207.357 156.3 207.851 156.793 208.197 157.46C208.557 158.113 208.737 158.927 208.737 159.9V166H207.737V159.98C207.737 158.807 207.437 157.913 206.837 157.3C206.251 156.687 205.424 156.38 204.357 156.38C203.544 156.38 202.837 156.547 202.237 156.88C201.637 157.213 201.177 157.68 200.857 158.28C200.551 158.88 200.397 159.6 200.397 160.44V166H199.397V155.56H200.357V158.46L200.217 158.14C200.537 157.313 201.064 156.667 201.797 156.2C202.531 155.72 203.431 155.48 204.497 155.48ZM212.854 166V155.56H213.854V166H212.854ZM213.354 153.02C213.128 153.02 212.934 152.94 212.774 152.78C212.614 152.62 212.534 152.433 212.534 152.22C212.534 151.993 212.614 151.8 212.774 151.64C212.934 151.48 213.128 151.4 213.354 151.4C213.594 151.4 213.788 151.48 213.934 151.64C214.094 151.787 214.174 151.973 214.174 152.2C214.174 152.427 214.094 152.62 213.934 152.78C213.788 152.94 213.594 153.02 213.354 153.02ZM222.209 166.08C221.196 166.08 220.289 165.853 219.489 165.4C218.703 164.947 218.076 164.32 217.609 163.52C217.156 162.72 216.929 161.807 216.929 160.78C216.929 159.74 217.156 158.82 217.609 158.02C218.076 157.22 218.703 156.6 219.489 156.16C220.289 155.707 221.196 155.48 222.209 155.48C223.049 155.48 223.809 155.64 224.489 155.96C225.183 156.28 225.743 156.76 226.169 157.4L225.429 157.94C225.056 157.407 224.589 157.013 224.029 156.76C223.469 156.507 222.863 156.38 222.209 156.38C221.396 156.38 220.663 156.567 220.009 156.94C219.369 157.3 218.863 157.813 218.489 158.48C218.129 159.133 217.949 159.9 217.949 160.78C217.949 161.66 218.129 162.433 218.489 163.1C218.863 163.753 219.369 164.267 220.009 164.64C220.663 165 221.396 165.18 222.209 165.18C222.863 165.18 223.469 165.053 224.029 164.8C224.589 164.547 225.056 164.153 225.429 163.62L226.169 164.16C225.743 164.8 225.183 165.28 224.489 165.6C223.809 165.92 223.049 166.08 222.209 166.08ZM235.743 166V163.62L235.703 163.26V159.34C235.703 158.367 235.436 157.627 234.903 157.12C234.383 156.613 233.616 156.36 232.603 156.36C231.883 156.36 231.21 156.487 230.583 156.74C229.97 156.98 229.443 157.293 229.003 157.68L228.503 156.96C229.023 156.493 229.65 156.133 230.383 155.88C231.116 155.613 231.883 155.48 232.683 155.48C233.976 155.48 234.97 155.807 235.663 156.46C236.356 157.113 236.703 158.087 236.703 159.38V166H235.743ZM231.983 166.08C231.21 166.08 230.536 165.96 229.963 165.72C229.403 165.467 228.97 165.113 228.663 164.66C228.37 164.207 228.223 163.687 228.223 163.1C228.223 162.567 228.343 162.087 228.583 161.66C228.836 161.22 229.25 160.867 229.823 160.6C230.396 160.32 231.163 160.18 232.123 160.18H235.963V160.96H232.143C231.063 160.96 230.303 161.16 229.863 161.56C229.436 161.96 229.223 162.46 229.223 163.06C229.223 163.727 229.476 164.26 229.983 164.66C230.49 165.06 231.203 165.26 232.123 165.26C233.003 165.26 233.743 165.06 234.343 164.66C234.956 164.26 235.41 163.68 235.703 162.92L235.983 163.6C235.703 164.36 235.223 164.967 234.543 165.42C233.876 165.86 233.023 166.08 231.983 166.08ZM243.863 166.08C242.943 166.08 242.236 165.827 241.743 165.32C241.263 164.813 241.023 164.12 241.023 163.24V153.28H242.023V163.14C242.023 163.807 242.19 164.32 242.523 164.68C242.856 165.04 243.336 165.22 243.963 165.22C244.616 165.22 245.156 165.027 245.583 164.64L246.003 165.34C245.736 165.593 245.41 165.78 245.023 165.9C244.65 166.02 244.263 166.08 243.863 166.08ZM239.103 156.42V155.56H245.343V156.42H239.103ZM248.792 166V155.56H249.792V166H248.792ZM249.292 153.02C249.065 153.02 248.872 152.94 248.712 152.78C248.552 152.62 248.472 152.433 248.472 152.22C248.472 151.993 248.552 151.8 248.712 151.64C248.872 151.48 249.065 151.4 249.292 151.4C249.532 151.4 249.725 151.48 249.872 151.64C250.032 151.787 250.112 151.973 250.112 152.2C250.112 152.427 250.032 152.62 249.872 152.78C249.725 152.94 249.532 153.02 249.292 153.02ZM258.087 166.08C257.087 166.08 256.193 165.853 255.407 165.4C254.633 164.947 254.013 164.32 253.547 163.52C253.093 162.72 252.867 161.807 252.867 160.78C252.867 159.74 253.093 158.827 253.547 158.04C254.013 157.24 254.633 156.613 255.407 156.16C256.193 155.707 257.087 155.48 258.087 155.48C259.087 155.48 259.98 155.707 260.767 156.16C261.553 156.613 262.173 157.24 262.627 158.04C263.08 158.827 263.307 159.74 263.307 160.78C263.307 161.807 263.08 162.72 262.627 163.52C262.173 164.32 261.553 164.947 260.767 165.4C259.98 165.853 259.087 166.08 258.087 166.08ZM258.087 165.18C258.887 165.18 259.607 165 260.247 164.64C260.887 164.267 261.387 163.747 261.747 163.08C262.107 162.413 262.287 161.647 262.287 160.78C262.287 159.9 262.107 159.133 261.747 158.48C261.387 157.813 260.887 157.3 260.247 156.94C259.607 156.567 258.887 156.38 258.087 156.38C257.287 156.38 256.567 156.567 255.927 156.94C255.3 157.3 254.8 157.813 254.427 158.48C254.067 159.133 253.887 159.9 253.887 160.78C253.887 161.647 254.067 162.413 254.427 163.08C254.8 163.747 255.3 164.267 255.927 164.64C256.567 165 257.287 165.18 258.087 165.18ZM271.509 155.48C272.362 155.48 273.102 155.647 273.729 155.98C274.369 156.3 274.862 156.793 275.209 157.46C275.569 158.113 275.749 158.927 275.749 159.9V166H274.749V159.98C274.749 158.807 274.449 157.913 273.849 157.3C273.262 156.687 272.436 156.38 271.369 156.38C270.556 156.38 269.849 156.547 269.249 156.88C268.649 157.213 268.189 157.68 267.869 158.28C267.562 158.88 267.409 159.6 267.409 160.44V166H266.409V155.56H267.369V158.46L267.229 158.14C267.549 157.313 268.076 156.667 268.809 156.2C269.542 155.72 270.442 155.48 271.509 155.48ZM278.906 168.86L279.686 165.48L279.786 166.06C279.533 166.06 279.319 165.98 279.146 165.82C278.986 165.66 278.906 165.46 278.906 165.22C278.906 164.98 278.986 164.78 279.146 164.62C279.319 164.46 279.519 164.38 279.746 164.38C279.999 164.38 280.199 164.467 280.346 164.64C280.506 164.8 280.586 164.993 280.586 165.22C280.586 165.313 280.579 165.407 280.566 165.5C280.553 165.593 280.533 165.687 280.506 165.78C280.479 165.873 280.446 165.993 280.406 166.14L279.626 168.86H278.906ZM293.027 166.08C292.053 166.08 291.173 165.86 290.387 165.42C289.613 164.967 289 164.34 288.547 163.54C288.093 162.74 287.867 161.82 287.867 160.78C287.867 159.727 288.093 158.807 288.547 158.02C289 157.22 289.613 156.6 290.387 156.16C291.173 155.707 292.053 155.48 293.027 155.48C293.947 155.48 294.773 155.693 295.507 156.12C296.253 156.547 296.84 157.153 297.267 157.94C297.707 158.727 297.927 159.673 297.927 160.78C297.927 161.86 297.713 162.8 297.287 163.6C296.86 164.4 296.273 165.013 295.527 165.44C294.793 165.867 293.96 166.08 293.027 166.08ZM293.087 165.18C293.887 165.18 294.6 165 295.227 164.64C295.867 164.267 296.367 163.747 296.727 163.08C297.1 162.413 297.287 161.647 297.287 160.78C297.287 159.9 297.1 159.133 296.727 158.48C296.367 157.813 295.867 157.3 295.227 156.94C294.6 156.567 293.887 156.38 293.087 156.38C292.287 156.38 291.567 156.567 290.927 156.94C290.3 157.3 289.8 157.813 289.427 158.48C289.067 159.133 288.887 159.9 288.887 160.78C288.887 161.647 289.067 162.413 289.427 163.08C289.8 163.747 290.3 164.267 290.927 164.64C291.567 165 292.287 165.18 293.087 165.18ZM297.307 166V162.58L297.487 160.76L297.287 158.94V151.16H298.287V166H297.307ZM302.503 166V155.56H303.463V158.42L303.363 158.1C303.656 157.26 304.149 156.613 304.843 156.16C305.536 155.707 306.403 155.48 307.443 155.48V156.46C307.403 156.46 307.363 156.46 307.323 156.46C307.283 156.447 307.243 156.44 307.203 156.44C306.043 156.44 305.136 156.807 304.483 157.54C303.829 158.26 303.503 159.267 303.503 160.56V166H302.503ZM310.198 166V155.56H311.198V166H310.198ZM310.698 153.02C310.471 153.02 310.278 152.94 310.118 152.78C309.958 152.62 309.878 152.433 309.878 152.22C309.878 151.993 309.958 151.8 310.118 151.64C310.278 151.48 310.471 151.4 310.698 151.4C310.938 151.4 311.131 151.48 311.278 151.64C311.438 151.787 311.518 151.973 311.518 152.2C311.518 152.427 311.438 152.62 311.278 152.78C311.131 152.94 310.938 153.02 310.698 153.02ZM318.053 166L313.353 155.56H314.413L318.813 165.44H318.333L322.773 155.56H323.793L319.073 166H318.053ZM325.979 166V155.56H326.979V166H325.979ZM326.479 153.02C326.253 153.02 326.059 152.94 325.899 152.78C325.739 152.62 325.659 152.433 325.659 152.22C325.659 151.993 325.739 151.8 325.899 151.64C326.059 151.48 326.253 151.4 326.479 151.4C326.719 151.4 326.913 151.48 327.059 151.64C327.219 151.787 327.299 151.973 327.299 152.2C327.299 152.427 327.219 152.62 327.059 152.78C326.913 152.94 326.719 153.02 326.479 153.02ZM336.294 155.48C337.148 155.48 337.888 155.647 338.514 155.98C339.154 156.3 339.648 156.793 339.994 157.46C340.354 158.113 340.534 158.927 340.534 159.9V166H339.534V159.98C339.534 158.807 339.234 157.913 338.634 157.3C338.048 156.687 337.221 156.38 336.154 156.38C335.341 156.38 334.634 156.547 334.034 156.88C333.434 157.213 332.974 157.68 332.654 158.28C332.348 158.88 332.194 159.6 332.194 160.44V166H331.194V155.56H332.154V158.46L332.014 158.14C332.334 157.313 332.861 156.667 333.594 156.2C334.328 155.72 335.228 155.48 336.294 155.48ZM348.991 169.96C348.045 169.96 347.145 169.813 346.291 169.52C345.438 169.227 344.745 168.82 344.211 168.3L344.751 167.54C345.271 168.02 345.891 168.393 346.611 168.66C347.345 168.927 348.131 169.06 348.971 169.06C350.371 169.06 351.398 168.733 352.051 168.08C352.718 167.427 353.051 166.4 353.051 165V162.1L353.251 160.54L353.091 158.98V155.56H354.051V164.88C354.051 166.627 353.625 167.907 352.771 168.72C351.931 169.547 350.671 169.96 348.991 169.96ZM348.711 165.62C347.725 165.62 346.838 165.407 346.051 164.98C345.278 164.54 344.658 163.94 344.191 163.18C343.738 162.407 343.511 161.527 343.511 160.54C343.511 159.54 343.738 158.66 344.191 157.9C344.658 157.14 345.278 156.547 346.051 156.12C346.838 155.693 347.725 155.48 348.711 155.48C349.658 155.48 350.505 155.687 351.251 156.1C352.011 156.5 352.611 157.08 353.051 157.84C353.491 158.587 353.711 159.487 353.711 160.54C353.711 161.58 353.491 162.48 353.051 163.24C352.611 164 352.011 164.587 351.251 165C350.505 165.413 349.658 165.62 348.711 165.62ZM348.791 164.72C349.631 164.72 350.371 164.547 351.011 164.2C351.651 163.84 352.151 163.347 352.511 162.72C352.885 162.08 353.071 161.353 353.071 160.54C353.071 159.713 352.885 158.987 352.511 158.36C352.151 157.733 351.651 157.247 351.011 156.9C350.371 156.553 349.631 156.38 348.791 156.38C347.978 156.38 347.245 156.553 346.591 156.9C345.951 157.247 345.445 157.733 345.071 158.36C344.711 158.987 344.531 159.713 344.531 160.54C344.531 161.353 344.711 162.08 345.071 162.72C345.445 163.347 345.951 163.84 346.591 164.2C347.245 164.547 347.978 164.72 348.791 164.72ZM125.36 190.08C124.44 190.08 123.607 189.867 122.86 189.44C122.127 189.013 121.54 188.407 121.1 187.62C120.673 186.82 120.46 185.873 120.46 184.78C120.46 183.687 120.673 182.747 121.1 181.96C121.54 181.16 122.127 180.547 122.86 180.12C123.607 179.693 124.44 179.48 125.36 179.48C126.347 179.48 127.227 179.707 128 180.16C128.787 180.6 129.4 181.22 129.84 182.02C130.293 182.82 130.52 183.74 130.52 184.78C130.52 185.82 130.293 186.74 129.84 187.54C129.4 188.34 128.787 188.967 128 189.42C127.227 189.86 126.347 190.08 125.36 190.08ZM120.12 193.88V179.56H121.08V182.98L120.92 184.8L121.12 186.62V193.88H120.12ZM125.3 189.18C126.1 189.18 126.82 189 127.46 188.64C128.1 188.267 128.6 187.747 128.96 187.08C129.333 186.413 129.52 185.647 129.52 184.78C129.52 183.9 129.333 183.133 128.96 182.48C128.6 181.813 128.1 181.3 127.46 180.94C126.82 180.567 126.1 180.38 125.3 180.38C124.5 180.38 123.78 180.567 123.14 180.94C122.513 181.3 122.013 181.813 121.64 182.48C121.28 183.133 121.1 183.9 121.1 184.78C121.1 185.647 121.28 186.413 121.64 187.08C122.013 187.747 122.513 188.267 123.14 188.64C123.78 189 124.5 189.18 125.3 189.18ZM137.696 190.08C136.696 190.08 135.803 189.853 135.016 189.4C134.243 188.947 133.623 188.32 133.156 187.52C132.703 186.72 132.476 185.807 132.476 184.78C132.476 183.74 132.703 182.827 133.156 182.04C133.623 181.24 134.243 180.613 135.016 180.16C135.803 179.707 136.696 179.48 137.696 179.48C138.696 179.48 139.589 179.707 140.376 180.16C141.163 180.613 141.783 181.24 142.236 182.04C142.689 182.827 142.916 183.74 142.916 184.78C142.916 185.807 142.689 186.72 142.236 187.52C141.783 188.32 141.163 188.947 140.376 189.4C139.589 189.853 138.696 190.08 137.696 190.08ZM137.696 189.18C138.496 189.18 139.216 189 139.856 188.64C140.496 188.267 140.996 187.747 141.356 187.08C141.716 186.413 141.896 185.647 141.896 184.78C141.896 183.9 141.716 183.133 141.356 182.48C140.996 181.813 140.496 181.3 139.856 180.94C139.216 180.567 138.496 180.38 137.696 180.38C136.896 180.38 136.176 180.567 135.536 180.94C134.909 181.3 134.409 181.813 134.036 182.48C133.676 183.133 133.496 183.9 133.496 184.78C133.496 185.647 133.676 186.413 134.036 187.08C134.409 187.747 134.909 188.267 135.536 188.64C136.176 189 136.896 189.18 137.696 189.18ZM148.658 190.08C147.792 190.08 146.978 189.953 146.218 189.7C145.472 189.447 144.892 189.127 144.478 188.74L144.938 187.94C145.338 188.287 145.872 188.587 146.538 188.84C147.205 189.08 147.925 189.2 148.698 189.2C149.792 189.2 150.578 189.02 151.058 188.66C151.538 188.3 151.778 187.827 151.778 187.24C151.778 186.813 151.652 186.48 151.398 186.24C151.158 185.987 150.832 185.793 150.418 185.66C150.005 185.527 149.552 185.42 149.058 185.34C148.565 185.247 148.072 185.147 147.578 185.04C147.085 184.933 146.632 184.78 146.218 184.58C145.805 184.38 145.472 184.107 145.218 183.76C144.978 183.4 144.858 182.927 144.858 182.34C144.858 181.807 145.005 181.327 145.298 180.9C145.592 180.473 146.032 180.133 146.618 179.88C147.205 179.613 147.938 179.48 148.818 179.48C149.472 179.48 150.125 179.573 150.778 179.76C151.445 179.947 151.985 180.193 152.398 180.5L151.938 181.3C151.498 180.967 151.005 180.727 150.458 180.58C149.912 180.433 149.358 180.36 148.798 180.36C147.785 180.36 147.038 180.547 146.558 180.92C146.092 181.293 145.858 181.76 145.858 182.32C145.858 182.76 145.978 183.113 146.218 183.38C146.472 183.633 146.805 183.833 147.218 183.98C147.632 184.113 148.085 184.227 148.578 184.32C149.072 184.4 149.565 184.493 150.058 184.6C150.552 184.707 151.005 184.86 151.418 185.06C151.832 185.247 152.158 185.513 152.398 185.86C152.652 186.193 152.778 186.647 152.778 187.22C152.778 187.793 152.618 188.293 152.298 188.72C151.992 189.147 151.532 189.48 150.918 189.72C150.305 189.96 149.552 190.08 148.658 190.08ZM155.569 190V179.56H156.569V190H155.569ZM156.069 177.02C155.843 177.02 155.649 176.94 155.489 176.78C155.329 176.62 155.249 176.433 155.249 176.22C155.249 175.993 155.329 175.8 155.489 175.64C155.649 175.48 155.843 175.4 156.069 175.4C156.309 175.4 156.503 175.48 156.649 175.64C156.809 175.787 156.889 175.973 156.889 176.2C156.889 176.427 156.809 176.62 156.649 176.78C156.503 176.94 156.309 177.02 156.069 177.02ZM163.824 190.08C162.904 190.08 162.197 189.827 161.704 189.32C161.224 188.813 160.984 188.12 160.984 187.24V177.28H161.984V187.14C161.984 187.807 162.151 188.32 162.484 188.68C162.817 189.04 163.297 189.22 163.924 189.22C164.577 189.22 165.117 189.027 165.544 188.64L165.964 189.34C165.697 189.593 165.371 189.78 164.984 189.9C164.611 190.02 164.224 190.08 163.824 190.08ZM159.064 180.42V179.56H165.304V180.42H159.064ZM168.753 190V179.56H169.753V190H168.753ZM169.253 177.02C169.026 177.02 168.833 176.94 168.673 176.78C168.513 176.62 168.433 176.433 168.433 176.22C168.433 175.993 168.513 175.8 168.673 175.64C168.833 175.48 169.026 175.4 169.253 175.4C169.493 175.4 169.686 175.48 169.833 175.64C169.993 175.787 170.073 175.973 170.073 176.2C170.073 176.427 169.993 176.62 169.833 176.78C169.686 176.94 169.493 177.02 169.253 177.02ZM176.608 190L171.908 179.56H172.968L177.368 189.44H176.888L181.328 179.56H182.348L177.628 190H176.608ZM188.481 190.08C187.428 190.08 186.494 189.853 185.681 189.4C184.881 188.947 184.248 188.32 183.781 187.52C183.328 186.72 183.101 185.807 183.101 184.78C183.101 183.74 183.314 182.827 183.741 182.04C184.181 181.24 184.781 180.613 185.541 180.16C186.301 179.707 187.154 179.48 188.101 179.48C189.048 179.48 189.894 179.7 190.641 180.14C191.401 180.58 191.994 181.2 192.421 182C192.861 182.787 193.081 183.7 193.081 184.74C193.081 184.78 193.074 184.827 193.061 184.88C193.061 184.92 193.061 184.967 193.061 185.02H183.841V184.24H192.521L192.121 184.62C192.134 183.807 191.961 183.08 191.601 182.44C191.254 181.787 190.781 181.28 190.181 180.92C189.581 180.547 188.888 180.36 188.101 180.36C187.328 180.36 186.634 180.547 186.021 180.92C185.421 181.28 184.948 181.787 184.601 182.44C184.254 183.08 184.081 183.813 184.081 184.64V184.82C184.081 185.673 184.268 186.433 184.641 187.1C185.028 187.753 185.554 188.267 186.221 188.64C186.888 189 187.648 189.18 188.501 189.18C189.168 189.18 189.788 189.06 190.361 188.82C190.948 188.58 191.441 188.213 191.841 187.72L192.421 188.38C191.968 188.94 191.394 189.367 190.701 189.66C190.021 189.94 189.281 190.08 188.481 190.08ZM203.951 190.08C203.085 190.08 202.271 189.953 201.511 189.7C200.765 189.447 200.185 189.127 199.771 188.74L200.231 187.94C200.631 188.287 201.165 188.587 201.831 188.84C202.498 189.08 203.218 189.2 203.991 189.2C205.085 189.2 205.871 189.02 206.351 188.66C206.831 188.3 207.071 187.827 207.071 187.24C207.071 186.813 206.945 186.48 206.691 186.24C206.451 185.987 206.125 185.793 205.711 185.66C205.298 185.527 204.845 185.42 204.351 185.34C203.858 185.247 203.365 185.147 202.871 185.04C202.378 184.933 201.925 184.78 201.511 184.58C201.098 184.38 200.765 184.107 200.511 183.76C200.271 183.4 200.151 182.927 200.151 182.34C200.151 181.807 200.298 181.327 200.591 180.9C200.885 180.473 201.325 180.133 201.911 179.88C202.498 179.613 203.231 179.48 204.111 179.48C204.765 179.48 205.418 179.573 206.071 179.76C206.738 179.947 207.278 180.193 207.691 180.5L207.231 181.3C206.791 180.967 206.298 180.727 205.751 180.58C205.205 180.433 204.651 180.36 204.091 180.36C203.078 180.36 202.331 180.547 201.851 180.92C201.385 181.293 201.151 181.76 201.151 182.32C201.151 182.76 201.271 183.113 201.511 183.38C201.765 183.633 202.098 183.833 202.511 183.98C202.925 184.113 203.378 184.227 203.871 184.32C204.365 184.4 204.858 184.493 205.351 184.6C205.845 184.707 206.298 184.86 206.711 185.06C207.125 185.247 207.451 185.513 207.691 185.86C207.945 186.193 208.071 186.647 208.071 187.22C208.071 187.793 207.911 188.293 207.591 188.72C207.285 189.147 206.825 189.48 206.211 189.72C205.598 189.96 204.845 190.08 203.951 190.08ZM213.902 190.08C212.982 190.08 212.276 189.827 211.782 189.32C211.302 188.813 211.062 188.12 211.062 187.24V177.28H212.062V187.14C212.062 187.807 212.229 188.32 212.562 188.68C212.896 189.04 213.376 189.22 214.002 189.22C214.656 189.22 215.196 189.027 215.622 188.64L216.042 189.34C215.776 189.593 215.449 189.78 215.062 189.9C214.689 190.02 214.302 190.08 213.902 190.08ZM209.142 180.42V179.56H215.382V180.42H209.142ZM225.411 190V187.62L225.371 187.26V183.34C225.371 182.367 225.104 181.627 224.571 181.12C224.051 180.613 223.284 180.36 222.271 180.36C221.551 180.36 220.878 180.487 220.251 180.74C219.638 180.98 219.111 181.293 218.671 181.68L218.171 180.96C218.691 180.493 219.318 180.133 220.051 179.88C220.784 179.613 221.551 179.48 222.351 179.48C223.644 179.48 224.638 179.807 225.331 180.46C226.024 181.113 226.371 182.087 226.371 183.38V190H225.411ZM221.651 190.08C220.878 190.08 220.204 189.96 219.631 189.72C219.071 189.467 218.638 189.113 218.331 188.66C218.038 188.207 217.891 187.687 217.891 187.1C217.891 186.567 218.011 186.087 218.251 185.66C218.504 185.22 218.918 184.867 219.491 184.6C220.064 184.32 220.831 184.18 221.791 184.18H225.631V184.96H221.811C220.731 184.96 219.971 185.16 219.531 185.56C219.104 185.96 218.891 186.46 218.891 187.06C218.891 187.727 219.144 188.26 219.651 188.66C220.158 189.06 220.871 189.26 221.791 189.26C222.671 189.26 223.411 189.06 224.011 188.66C224.624 188.26 225.078 187.68 225.371 186.92L225.651 187.6C225.371 188.36 224.891 188.967 224.211 189.42C223.544 189.86 222.691 190.08 221.651 190.08ZM231.251 187.12L231.271 185.86L238.171 179.56H239.451L234.871 183.86L234.271 184.36L231.251 187.12ZM230.491 190V175.16H231.491V190H230.491ZM238.651 190L234.091 184.28L234.771 183.54L239.891 190H238.651ZM246.079 190.08C245.025 190.08 244.092 189.853 243.279 189.4C242.479 188.947 241.845 188.32 241.379 187.52C240.925 186.72 240.699 185.807 240.699 184.78C240.699 183.74 240.912 182.827 241.339 182.04C241.779 181.24 242.379 180.613 243.139 180.16C243.899 179.707 244.752 179.48 245.699 179.48C246.645 179.48 247.492 179.7 248.239 180.14C248.999 180.58 249.592 181.2 250.019 182C250.459 182.787 250.679 183.7 250.679 184.74C250.679 184.78 250.672 184.827 250.659 184.88C250.659 184.92 250.659 184.967 250.659 185.02H241.439V184.24H250.119L249.719 184.62C249.732 183.807 249.559 183.08 249.199 182.44C248.852 181.787 248.379 181.28 247.779 180.92C247.179 180.547 246.485 180.36 245.699 180.36C244.925 180.36 244.232 180.547 243.619 180.92C243.019 181.28 242.545 181.787 242.199 182.44C241.852 183.08 241.679 183.813 241.679 184.64V184.82C241.679 185.673 241.865 186.433 242.239 187.1C242.625 187.753 243.152 188.267 243.819 188.64C244.485 189 245.245 189.18 246.099 189.18C246.765 189.18 247.385 189.06 247.959 188.82C248.545 188.58 249.039 188.213 249.439 187.72L250.019 188.38C249.565 188.94 248.992 189.367 248.299 189.66C247.619 189.94 246.879 190.08 246.079 190.08ZM258.872 179.48C259.726 179.48 260.466 179.647 261.092 179.98C261.732 180.3 262.226 180.793 262.572 181.46C262.932 182.113 263.112 182.927 263.112 183.9V190H262.112V183.98C262.112 182.807 261.812 181.913 261.212 181.3C260.626 180.687 259.799 180.38 258.732 180.38C257.919 180.38 257.212 180.547 256.612 180.88C256.012 181.213 255.552 181.68 255.232 182.28C254.926 182.88 254.772 183.6 254.772 184.44V190H253.772V175.16H254.772V182.46L254.592 182.14C254.912 181.313 255.439 180.667 256.172 180.2C256.906 179.72 257.806 179.48 258.872 179.48ZM271.309 190.08C270.309 190.08 269.416 189.853 268.629 189.4C267.856 188.947 267.236 188.32 266.769 187.52C266.316 186.72 266.089 185.807 266.089 184.78C266.089 183.74 266.316 182.827 266.769 182.04C267.236 181.24 267.856 180.613 268.629 180.16C269.416 179.707 270.309 179.48 271.309 179.48C272.309 179.48 273.203 179.707 273.989 180.16C274.776 180.613 275.396 181.24 275.849 182.04C276.303 182.827 276.529 183.74 276.529 184.78C276.529 185.807 276.303 186.72 275.849 187.52C275.396 188.32 274.776 188.947 273.989 189.4C273.203 189.853 272.309 190.08 271.309 190.08ZM271.309 189.18C272.109 189.18 272.829 189 273.469 188.64C274.109 188.267 274.609 187.747 274.969 187.08C275.329 186.413 275.509 185.647 275.509 184.78C275.509 183.9 275.329 183.133 274.969 182.48C274.609 181.813 274.109 181.3 273.469 180.94C272.829 180.567 272.109 180.38 271.309 180.38C270.509 180.38 269.789 180.567 269.149 180.94C268.523 181.3 268.023 181.813 267.649 182.48C267.289 183.133 267.109 183.9 267.109 184.78C267.109 185.647 267.289 186.413 267.649 187.08C268.023 187.747 268.523 188.267 269.149 188.64C269.789 189 270.509 189.18 271.309 189.18ZM279.632 190V175.16H280.632V190H279.632ZM288.867 190.08C287.893 190.08 287.013 189.86 286.227 189.42C285.453 188.967 284.84 188.34 284.387 187.54C283.933 186.74 283.707 185.82 283.707 184.78C283.707 183.727 283.933 182.807 284.387 182.02C284.84 181.22 285.453 180.6 286.227 180.16C287.013 179.707 287.893 179.48 288.867 179.48C289.787 179.48 290.613 179.693 291.347 180.12C292.093 180.547 292.68 181.153 293.107 181.94C293.547 182.727 293.767 183.673 293.767 184.78C293.767 185.86 293.553 186.8 293.127 187.6C292.7 188.4 292.113 189.013 291.367 189.44C290.633 189.867 289.8 190.08 288.867 190.08ZM288.927 189.18C289.727 189.18 290.44 189 291.067 188.64C291.707 188.267 292.207 187.747 292.567 187.08C292.94 186.413 293.127 185.647 293.127 184.78C293.127 183.9 292.94 183.133 292.567 182.48C292.207 181.813 291.707 181.3 291.067 180.94C290.44 180.567 289.727 180.38 288.927 180.38C288.127 180.38 287.407 180.567 286.767 180.94C286.14 181.3 285.64 181.813 285.267 182.48C284.907 183.133 284.727 183.9 284.727 184.78C284.727 185.647 284.907 186.413 285.267 187.08C285.64 187.747 286.14 188.267 286.767 188.64C287.407 189 288.127 189.18 288.927 189.18ZM293.147 190V186.58L293.327 184.76L293.127 182.94V175.16H294.127V190H293.147ZM302.583 190.08C301.529 190.08 300.596 189.853 299.783 189.4C298.983 188.947 298.349 188.32 297.883 187.52C297.429 186.72 297.203 185.807 297.203 184.78C297.203 183.74 297.416 182.827 297.843 182.04C298.283 181.24 298.883 180.613 299.643 180.16C300.403 179.707 301.256 179.48 302.203 179.48C303.149 179.48 303.996 179.7 304.743 180.14C305.503 180.58 306.096 181.2 306.523 182C306.963 182.787 307.183 183.7 307.183 184.74C307.183 184.78 307.176 184.827 307.163 184.88C307.163 184.92 307.163 184.967 307.163 185.02H297.943V184.24H306.623L306.223 184.62C306.236 183.807 306.063 183.08 305.703 182.44C305.356 181.787 304.883 181.28 304.283 180.92C303.683 180.547 302.989 180.36 302.203 180.36C301.429 180.36 300.736 180.547 300.123 180.92C299.523 181.28 299.049 181.787 298.703 182.44C298.356 183.08 298.183 183.813 298.183 184.64V184.82C298.183 185.673 298.369 186.433 298.743 187.1C299.129 187.753 299.656 188.267 300.323 188.64C300.989 189 301.749 189.18 302.603 189.18C303.269 189.18 303.889 189.06 304.463 188.82C305.049 188.58 305.543 188.213 305.943 187.72L306.523 188.38C306.069 188.94 305.496 189.367 304.803 189.66C304.123 189.94 303.383 190.08 302.583 190.08ZM310.276 190V179.56H311.236V182.42L311.136 182.1C311.43 181.26 311.923 180.613 312.616 180.16C313.31 179.707 314.176 179.48 315.216 179.48V180.46C315.176 180.46 315.136 180.46 315.096 180.46C315.056 180.447 315.016 180.44 314.976 180.44C313.816 180.44 312.91 180.807 312.256 181.54C311.603 182.26 311.276 183.267 311.276 184.56V190H310.276ZM323.284 190V179.56H324.284V190H323.284ZM323.784 177.02C323.557 177.02 323.364 176.94 323.204 176.78C323.044 176.62 322.964 176.433 322.964 176.22C322.964 175.993 323.044 175.8 323.204 175.64C323.364 175.48 323.557 175.4 323.784 175.4C324.024 175.4 324.217 175.48 324.364 175.64C324.524 175.787 324.604 175.973 324.604 176.2C324.604 176.427 324.524 176.62 324.364 176.78C324.217 176.94 324.024 177.02 323.784 177.02ZM341.499 179.48C342.339 179.48 343.066 179.647 343.679 179.98C344.306 180.3 344.792 180.793 345.139 181.46C345.486 182.113 345.659 182.927 345.659 183.9V190H344.659V183.98C344.659 182.807 344.372 181.913 343.799 181.3C343.226 180.687 342.426 180.38 341.399 180.38C340.612 180.38 339.932 180.547 339.359 180.88C338.786 181.213 338.346 181.68 338.039 182.28C337.732 182.88 337.579 183.6 337.579 184.44V190H336.579V183.98C336.579 182.807 336.292 181.913 335.719 181.3C335.146 180.687 334.346 180.38 333.319 180.38C332.532 180.38 331.852 180.547 331.279 180.88C330.706 181.213 330.266 181.68 329.959 182.28C329.652 182.88 329.499 183.6 329.499 184.44V190H328.499V179.56H329.459V182.44L329.319 182.12C329.626 181.307 330.139 180.667 330.859 180.2C331.579 179.72 332.446 179.48 333.459 179.48C334.499 179.48 335.372 179.747 336.079 180.28C336.799 180.8 337.252 181.58 337.439 182.62L337.099 182.48C337.379 181.587 337.906 180.867 338.679 180.32C339.452 179.76 340.392 179.48 341.499 179.48ZM355.028 190.08C354.108 190.08 353.275 189.867 352.528 189.44C351.795 189.013 351.208 188.407 350.768 187.62C350.341 186.82 350.128 185.873 350.128 184.78C350.128 183.687 350.341 182.747 350.768 181.96C351.208 181.16 351.795 180.547 352.528 180.12C353.275 179.693 354.108 179.48 355.028 179.48C356.015 179.48 356.895 179.707 357.668 180.16C358.455 180.6 359.068 181.22 359.508 182.02C359.961 182.82 360.188 183.74 360.188 184.78C360.188 185.82 359.961 186.74 359.508 187.54C359.068 188.34 358.455 188.967 357.668 189.42C356.895 189.86 356.015 190.08 355.028 190.08ZM349.788 193.88V179.56H350.748V182.98L350.588 184.8L350.788 186.62V193.88H349.788ZM354.968 189.18C355.768 189.18 356.488 189 357.128 188.64C357.768 188.267 358.268 187.747 358.628 187.08C359.001 186.413 359.188 185.647 359.188 184.78C359.188 183.9 359.001 183.133 358.628 182.48C358.268 181.813 357.768 181.3 357.128 180.94C356.488 180.567 355.768 180.38 354.968 180.38C354.168 180.38 353.448 180.567 352.808 180.94C352.181 181.3 351.681 181.813 351.308 182.48C350.948 183.133 350.768 183.9 350.768 184.78C350.768 185.647 350.948 186.413 351.308 187.08C351.681 187.747 352.181 188.267 352.808 188.64C353.448 189 354.168 189.18 354.968 189.18ZM369.825 190V187.62L369.785 187.26V183.34C369.785 182.367 369.518 181.627 368.985 181.12C368.465 180.613 367.698 180.36 366.685 180.36C365.965 180.36 365.292 180.487 364.665 180.74C364.052 180.98 363.525 181.293 363.085 181.68L362.585 180.96C363.105 180.493 363.732 180.133 364.465 179.88C365.198 179.613 365.965 179.48 366.765 179.48C368.058 179.48 369.052 179.807 369.745 180.46C370.438 181.113 370.785 182.087 370.785 183.38V190H369.825ZM366.065 190.08C365.292 190.08 364.618 189.96 364.045 189.72C363.485 189.467 363.052 189.113 362.745 188.66C362.452 188.207 362.305 187.687 362.305 187.1C362.305 186.567 362.425 186.087 362.665 185.66C362.918 185.22 363.332 184.867 363.905 184.6C364.478 184.32 365.245 184.18 366.205 184.18H370.045V184.96H366.225C365.145 184.96 364.385 185.16 363.945 185.56C363.518 185.96 363.305 186.46 363.305 187.06C363.305 187.727 363.558 188.26 364.065 188.66C364.572 189.06 365.285 189.26 366.205 189.26C367.085 189.26 367.825 189.06 368.425 188.66C369.038 188.26 369.492 187.68 369.785 186.92L370.065 187.6C369.785 188.36 369.305 188.967 368.625 189.42C367.958 189.86 367.105 190.08 366.065 190.08ZM379.045 190.08C378.032 190.08 377.125 189.853 376.325 189.4C375.538 188.947 374.912 188.32 374.445 187.52C373.992 186.72 373.765 185.807 373.765 184.78C373.765 183.74 373.992 182.82 374.445 182.02C374.912 181.22 375.538 180.6 376.325 180.16C377.125 179.707 378.032 179.48 379.045 179.48C379.885 179.48 380.645 179.64 381.325 179.96C382.018 180.28 382.578 180.76 383.005 181.4L382.265 181.94C381.892 181.407 381.425 181.013 380.865 180.76C380.305 180.507 379.698 180.38 379.045 180.38C378.232 180.38 377.498 180.567 376.845 180.94C376.205 181.3 375.698 181.813 375.325 182.48C374.965 183.133 374.785 183.9 374.785 184.78C374.785 185.66 374.965 186.433 375.325 187.1C375.698 187.753 376.205 188.267 376.845 188.64C377.498 189 378.232 189.18 379.045 189.18C379.698 189.18 380.305 189.053 380.865 188.8C381.425 188.547 381.892 188.153 382.265 187.62L383.005 188.16C382.578 188.8 382.018 189.28 381.325 189.6C380.645 189.92 379.885 190.08 379.045 190.08ZM389.156 190.08C388.236 190.08 387.529 189.827 387.036 189.32C386.556 188.813 386.316 188.12 386.316 187.24V177.28H387.316V187.14C387.316 187.807 387.483 188.32 387.816 188.68C388.149 189.04 388.629 189.22 389.256 189.22C389.909 189.22 390.449 189.027 390.876 188.64L391.296 189.34C391.029 189.593 390.703 189.78 390.316 189.9C389.943 190.02 389.556 190.08 389.156 190.08ZM384.396 180.42V179.56H390.636V180.42H384.396ZM394.16 190.08C393.933 190.08 393.733 190 393.56 189.84C393.4 189.667 393.32 189.46 393.32 189.22C393.32 188.98 393.4 188.78 393.56 188.62C393.733 188.46 393.933 188.38 394.16 188.38C394.387 188.38 394.58 188.46 394.74 188.62C394.913 188.78 395 188.98 395 189.22C395 189.46 394.913 189.667 394.74 189.84C394.58 190 394.387 190.08 394.16 190.08Z" fill="#706E66"/>
</svg>
