<svg width="288" height="58" viewBox="0 0 288 58" fill="none" xmlns="http://www.w3.org/2000/svg">
<rect width="287.769" height="58" rx="10" fill="#00AAE1"/>
<path d="M76.4591 38V21.2H79.5791V35.36H88.3631V38H76.4591ZM96.4451 38.168C95.0211 38.168 93.7731 37.888 92.7011 37.328C91.6451 36.752 90.8211 35.968 90.2291 34.976C89.6531 33.984 89.3651 32.856 89.3651 31.592C89.3651 30.312 89.6451 29.184 90.2051 28.208C90.7811 27.216 91.5651 26.44 92.5571 25.88C93.5651 25.32 94.7091 25.04 95.9891 25.04C97.2371 25.04 98.3491 25.312 99.3251 25.856C100.301 26.4 101.069 27.168 101.629 28.16C102.189 29.152 102.469 30.32 102.469 31.664C102.469 31.792 102.461 31.936 102.445 32.096C102.445 32.256 102.437 32.408 102.421 32.552H91.7411V30.56H100.837L99.6611 31.184C99.6771 30.448 99.5251 29.8 99.2051 29.24C98.8851 28.68 98.4451 28.24 97.8851 27.92C97.3411 27.6 96.7091 27.44 95.9891 27.44C95.2531 27.44 94.6051 27.6 94.0451 27.92C93.5011 28.24 93.0691 28.688 92.7491 29.264C92.4451 29.824 92.2931 30.488 92.2931 31.256V31.736C92.2931 32.504 92.4691 33.184 92.8211 33.776C93.1731 34.368 93.6691 34.824 94.3091 35.144C94.9491 35.464 95.6851 35.624 96.5171 35.624C97.2371 35.624 97.8851 35.512 98.4611 35.288C99.0371 35.064 99.5491 34.712 99.9971 34.232L101.605 36.08C101.029 36.752 100.301 37.272 99.4211 37.64C98.5571 37.992 97.5651 38.168 96.4451 38.168ZM112.895 38V35.408L112.727 34.856V30.32C112.727 29.44 112.463 28.76 111.935 28.28C111.407 27.784 110.607 27.536 109.535 27.536C108.815 27.536 108.103 27.648 107.399 27.872C106.711 28.096 106.127 28.408 105.647 28.808L104.471 26.624C105.159 26.096 105.975 25.704 106.919 25.448C107.879 25.176 108.871 25.04 109.895 25.04C111.751 25.04 113.183 25.488 114.191 26.384C115.215 27.264 115.727 28.632 115.727 30.488V38H112.895ZM108.863 38.168C107.903 38.168 107.063 38.008 106.343 37.688C105.623 37.352 105.063 36.896 104.663 36.32C104.279 35.728 104.087 35.064 104.087 34.328C104.087 33.608 104.255 32.96 104.591 32.384C104.943 31.808 105.511 31.352 106.295 31.016C107.079 30.68 108.119 30.512 109.415 30.512H113.135V32.504H109.631C108.607 32.504 107.919 32.672 107.567 33.008C107.215 33.328 107.039 33.728 107.039 34.208C107.039 34.752 107.255 35.184 107.687 35.504C108.119 35.824 108.719 35.984 109.487 35.984C110.223 35.984 110.879 35.816 111.455 35.48C112.047 35.144 112.471 34.648 112.727 33.992L113.231 35.792C112.943 36.544 112.423 37.128 111.671 37.544C110.935 37.96 109.999 38.168 108.863 38.168ZM119.577 38V25.184H122.433V28.712L122.097 27.68C122.481 26.816 123.081 26.16 123.897 25.712C124.729 25.264 125.761 25.04 126.993 25.04V27.896C126.865 27.864 126.745 27.848 126.633 27.848C126.521 27.832 126.409 27.824 126.297 27.824C125.161 27.824 124.257 28.16 123.585 28.832C122.913 29.488 122.577 30.472 122.577 31.784V38H119.577ZM136.81 25.04C137.834 25.04 138.746 25.24 139.546 25.64C140.362 26.04 141.002 26.656 141.466 27.488C141.93 28.304 142.162 29.36 142.162 30.656V38H139.162V31.04C139.162 29.904 138.89 29.056 138.346 28.496C137.818 27.936 137.074 27.656 136.114 27.656C135.41 27.656 134.786 27.8 134.242 28.088C133.698 28.376 133.274 28.808 132.97 29.384C132.682 29.944 132.538 30.656 132.538 31.52V38H129.538V25.184H132.394V28.64L131.89 27.584C132.338 26.768 132.986 26.144 133.834 25.712C134.698 25.264 135.69 25.04 136.81 25.04ZM152.889 38V21.2H155.457L162.801 33.464H161.457L168.681 21.2H171.249L171.273 38H168.321L168.297 25.832H168.921L162.777 36.08H161.385L155.145 25.832H155.865V38H152.889ZM181.283 38.168C179.971 38.168 178.803 37.888 177.779 37.328C176.755 36.752 175.947 35.968 175.355 34.976C174.763 33.984 174.467 32.856 174.467 31.592C174.467 30.312 174.763 29.184 175.355 28.208C175.947 27.216 176.755 26.44 177.779 25.88C178.803 25.32 179.971 25.04 181.283 25.04C182.611 25.04 183.787 25.32 184.811 25.88C185.851 26.44 186.659 27.208 187.235 28.184C187.827 29.16 188.123 30.296 188.123 31.592C188.123 32.856 187.827 33.984 187.235 34.976C186.659 35.968 185.851 36.752 184.811 37.328C183.787 37.888 182.611 38.168 181.283 38.168ZM181.283 35.6C182.019 35.6 182.675 35.44 183.251 35.12C183.827 34.8 184.275 34.336 184.595 33.728C184.931 33.12 185.099 32.408 185.099 31.592C185.099 30.76 184.931 30.048 184.595 29.456C184.275 28.848 183.827 28.384 183.251 28.064C182.675 27.744 182.027 27.584 181.307 27.584C180.571 27.584 179.915 27.744 179.339 28.064C178.779 28.384 178.331 28.848 177.995 29.456C177.659 30.048 177.491 30.76 177.491 31.592C177.491 32.408 177.659 33.12 177.995 33.728C178.331 34.336 178.779 34.8 179.339 35.12C179.915 35.44 180.563 35.6 181.283 35.6ZM190.991 38V25.184H193.847V28.712L193.511 27.68C193.895 26.816 194.495 26.16 195.311 25.712C196.143 25.264 197.175 25.04 198.407 25.04V27.896C198.279 27.864 198.159 27.848 198.047 27.848C197.935 27.832 197.823 27.824 197.711 27.824C196.575 27.824 195.671 28.16 194.999 28.832C194.327 29.488 193.991 30.472 193.991 31.784V38H190.991ZM206.859 38.168C205.435 38.168 204.187 37.888 203.115 37.328C202.059 36.752 201.235 35.968 200.643 34.976C200.067 33.984 199.779 32.856 199.779 31.592C199.779 30.312 200.059 29.184 200.619 28.208C201.195 27.216 201.979 26.44 202.971 25.88C203.979 25.32 205.123 25.04 206.403 25.04C207.651 25.04 208.763 25.312 209.739 25.856C210.715 26.4 211.483 27.168 212.043 28.16C212.603 29.152 212.883 30.32 212.883 31.664C212.883 31.792 212.875 31.936 212.859 32.096C212.859 32.256 212.851 32.408 212.835 32.552H202.155V30.56H211.251L210.075 31.184C210.091 30.448 209.939 29.8 209.619 29.24C209.299 28.68 208.859 28.24 208.299 27.92C207.755 27.6 207.123 27.44 206.403 27.44C205.667 27.44 205.019 27.6 204.459 27.92C203.915 28.24 203.483 28.688 203.163 29.264C202.859 29.824 202.707 30.488 202.707 31.256V31.736C202.707 32.504 202.883 33.184 203.235 33.776C203.587 34.368 204.083 34.824 204.723 35.144C205.363 35.464 206.099 35.624 206.931 35.624C207.651 35.624 208.299 35.512 208.875 35.288C209.451 35.064 209.963 34.712 210.411 34.232L212.019 36.08C211.443 36.752 210.715 37.272 209.835 37.64C208.971 37.992 207.979 38.168 206.859 38.168Z" fill="white"/>
</svg>
