<svg width="343" height="244" viewBox="0 0 343 244" fill="none" xmlns="http://www.w3.org/2000/svg">
<path d="M36.2461 194V58.4L40.8461 63.2H2.04609V54H46.4461V194H36.2461Z" fill="#D9D9D9"/>
<path d="M65.44 70V56H66.46V70H65.44ZM76.1184 59.48C76.9718 59.48 77.7118 59.6467 78.3384 59.98C78.9784 60.3 79.4718 60.7933 79.8184 61.46C80.1784 62.1133 80.3584 62.9267 80.3584 63.9V70H79.3584V63.98C79.3584 62.8067 79.0584 61.9133 78.4584 61.3C77.8718 60.6867 77.0451 60.38 75.9784 60.38C75.1651 60.38 74.4584 60.5467 73.8584 60.88C73.2584 61.2133 72.7984 61.68 72.4784 62.28C72.1718 62.88 72.0184 63.6 72.0184 64.44V70H71.0184V59.56H71.9784V62.46L71.8384 62.14C72.1584 61.3133 72.6851 60.6667 73.4184 60.2C74.1518 59.72 75.0518 59.48 76.1184 59.48ZM92.6522 70.08C91.7322 70.08 91.0255 69.8267 90.5322 69.32C90.0522 68.8133 89.8122 68.12 89.8122 67.24V57.28H90.8122V67.14C90.8122 67.8067 90.9789 68.32 91.3122 68.68C91.6455 69.04 92.1255 69.22 92.7522 69.22C93.4055 69.22 93.9455 69.0267 94.3722 68.64L94.7922 69.34C94.5255 69.5933 94.1989 69.78 93.8122 69.9C93.4389 70.02 93.0522 70.08 92.6522 70.08ZM87.8922 60.42V59.56H94.1322V60.42H87.8922ZM101.29 70.08C100.29 70.08 99.3965 69.8533 98.6098 69.4C97.8365 68.9467 97.2165 68.32 96.7498 67.52C96.2965 66.72 96.0698 65.8067 96.0698 64.78C96.0698 63.74 96.2965 62.8267 96.7498 62.04C97.2165 61.24 97.8365 60.6133 98.6098 60.16C99.3965 59.7067 100.29 59.48 101.29 59.48C102.29 59.48 103.183 59.7067 103.97 60.16C104.757 60.6133 105.377 61.24 105.83 62.04C106.283 62.8267 106.51 63.74 106.51 64.78C106.51 65.8067 106.283 66.72 105.83 67.52C105.377 68.32 104.757 68.9467 103.97 69.4C103.183 69.8533 102.29 70.08 101.29 70.08ZM101.29 69.18C102.09 69.18 102.81 69 103.45 68.64C104.09 68.2667 104.59 67.7467 104.95 67.08C105.31 66.4133 105.49 65.6467 105.49 64.78C105.49 63.9 105.31 63.1333 104.95 62.48C104.59 61.8133 104.09 61.3 103.45 60.94C102.81 60.5667 102.09 60.38 101.29 60.38C100.49 60.38 99.7698 60.5667 99.1298 60.94C98.5032 61.3 98.0032 61.8133 97.6298 62.48C97.2698 63.1333 97.0898 63.9 97.0898 64.78C97.0898 65.6467 97.2698 66.4133 97.6298 67.08C98.0032 67.7467 98.5032 68.2667 99.1298 68.64C99.7698 69 100.49 69.18 101.29 69.18ZM113.632 70.08C112.659 70.08 111.779 69.86 110.992 69.42C110.219 68.9667 109.606 68.34 109.152 67.54C108.699 66.74 108.472 65.82 108.472 64.78C108.472 63.7267 108.699 62.8067 109.152 62.02C109.606 61.22 110.219 60.6 110.992 60.16C111.779 59.7067 112.659 59.48 113.632 59.48C114.552 59.48 115.379 59.6933 116.112 60.12C116.859 60.5467 117.446 61.1533 117.872 61.94C118.312 62.7267 118.532 63.6733 118.532 64.78C118.532 65.86 118.319 66.8 117.892 67.6C117.466 68.4 116.879 69.0133 116.132 69.44C115.399 69.8667 114.566 70.08 113.632 70.08ZM113.692 69.18C114.492 69.18 115.206 69 115.832 68.64C116.472 68.2667 116.972 67.7467 117.332 67.08C117.706 66.4133 117.892 65.6467 117.892 64.78C117.892 63.9 117.706 63.1333 117.332 62.48C116.972 61.8133 116.472 61.3 115.832 60.94C115.206 60.5667 114.492 60.38 113.692 60.38C112.892 60.38 112.172 60.5667 111.532 60.94C110.906 61.3 110.406 61.8133 110.032 62.48C109.672 63.1333 109.492 63.9 109.492 64.78C109.492 65.6467 109.672 66.4133 110.032 67.08C110.406 67.7467 110.906 68.2667 111.532 68.64C112.172 69 112.892 69.18 113.692 69.18ZM117.912 70V66.58L118.092 64.76L117.892 62.94V55.16H118.892V70H117.912ZM129.688 70V67.62L129.648 67.26V63.34C129.648 62.3667 129.382 61.6267 128.848 61.12C128.328 60.6133 127.562 60.36 126.548 60.36C125.828 60.36 125.155 60.4867 124.528 60.74C123.915 60.98 123.388 61.2933 122.948 61.68L122.448 60.96C122.968 60.4933 123.595 60.1333 124.328 59.88C125.062 59.6133 125.828 59.48 126.628 59.48C127.922 59.48 128.915 59.8067 129.608 60.46C130.302 61.1133 130.648 62.0867 130.648 63.38V70H129.688ZM125.928 70.08C125.155 70.08 124.482 69.96 123.908 69.72C123.348 69.4667 122.915 69.1133 122.608 68.66C122.315 68.2067 122.168 67.6867 122.168 67.1C122.168 66.5667 122.288 66.0867 122.528 65.66C122.782 65.22 123.195 64.8667 123.768 64.6C124.342 64.32 125.108 64.18 126.068 64.18H129.908V64.96H126.088C125.008 64.96 124.248 65.16 123.808 65.56C123.382 65.96 123.168 66.46 123.168 67.06C123.168 67.7267 123.422 68.26 123.928 68.66C124.435 69.06 125.148 69.26 126.068 69.26C126.948 69.26 127.688 69.06 128.288 68.66C128.902 68.26 129.355 67.68 129.648 66.92L129.928 67.6C129.648 68.36 129.168 68.9667 128.488 69.42C127.822 69.86 126.968 70.08 125.928 70.08ZM134.333 73.96C133.853 73.96 133.4 73.88 132.973 73.72C132.56 73.56 132.206 73.3267 131.913 73.02L132.413 72.26C132.68 72.54 132.966 72.7467 133.273 72.88C133.593 73.0133 133.953 73.08 134.353 73.08C134.833 73.08 135.253 72.9467 135.613 72.68C135.986 72.4133 136.333 71.9267 136.653 71.22L137.373 69.62L137.513 69.44L141.933 59.56H142.953L137.593 71.42C137.313 72.06 137.006 72.56 136.673 72.92C136.353 73.2933 136 73.56 135.613 73.72C135.226 73.88 134.8 73.96 134.333 73.96ZM137.353 70.26L132.513 59.56H133.573L137.973 69.38L137.353 70.26ZM144.551 59.56L145.331 56.18L145.431 56.76C145.177 56.76 144.964 56.68 144.791 56.52C144.631 56.36 144.551 56.16 144.551 55.92C144.551 55.68 144.631 55.48 144.791 55.32C144.964 55.16 145.164 55.08 145.391 55.08C145.644 55.08 145.844 55.1667 145.991 55.34C146.151 55.5 146.231 55.6933 146.231 55.92C146.231 56.0133 146.224 56.1067 146.211 56.2C146.197 56.2933 146.177 56.3867 146.151 56.48C146.124 56.5733 146.091 56.6933 146.051 56.84L145.271 59.56H144.551ZM151.842 70.08C150.975 70.08 150.162 69.9533 149.402 69.7C148.655 69.4467 148.075 69.1267 147.662 68.74L148.122 67.94C148.522 68.2867 149.055 68.5867 149.722 68.84C150.389 69.08 151.109 69.2 151.882 69.2C152.975 69.2 153.762 69.02 154.242 68.66C154.722 68.3 154.962 67.8267 154.962 67.24C154.962 66.8133 154.835 66.48 154.582 66.24C154.342 65.9867 154.015 65.7933 153.602 65.66C153.189 65.5267 152.735 65.42 152.242 65.34C151.749 65.2467 151.255 65.1467 150.762 65.04C150.269 64.9333 149.815 64.78 149.402 64.58C148.989 64.38 148.655 64.1067 148.402 63.76C148.162 63.4 148.042 62.9267 148.042 62.34C148.042 61.8067 148.189 61.3267 148.482 60.9C148.775 60.4733 149.215 60.1333 149.802 59.88C150.389 59.6133 151.122 59.48 152.002 59.48C152.655 59.48 153.309 59.5733 153.962 59.76C154.629 59.9467 155.169 60.1933 155.582 60.5L155.122 61.3C154.682 60.9667 154.189 60.7267 153.642 60.58C153.095 60.4333 152.542 60.36 151.982 60.36C150.969 60.36 150.222 60.5467 149.742 60.92C149.275 61.2933 149.042 61.76 149.042 62.32C149.042 62.76 149.162 63.1133 149.402 63.38C149.655 63.6333 149.989 63.8333 150.402 63.98C150.815 64.1133 151.269 64.2267 151.762 64.32C152.255 64.4 152.749 64.4933 153.242 64.6C153.735 64.7067 154.189 64.86 154.602 65.06C155.015 65.2467 155.342 65.5133 155.582 65.86C155.835 66.1933 155.962 66.6467 155.962 67.22C155.962 67.7933 155.802 68.2933 155.482 68.72C155.175 69.1467 154.715 69.48 154.102 69.72C153.489 69.96 152.735 70.08 151.842 70.08ZM165.93 70L161.97 59.56H162.93L166.61 69.44H166.19L169.97 59.56H170.83L174.59 69.44H174.15L177.89 59.56H178.81L174.85 70H173.91L170.23 60.52H170.55L166.85 70H165.93ZM184.923 70.08C183.923 70.08 183.029 69.8533 182.243 69.4C181.469 68.9467 180.849 68.32 180.383 67.52C179.929 66.72 179.703 65.8067 179.703 64.78C179.703 63.74 179.929 62.8267 180.383 62.04C180.849 61.24 181.469 60.6133 182.243 60.16C183.029 59.7067 183.923 59.48 184.923 59.48C185.923 59.48 186.816 59.7067 187.603 60.16C188.389 60.6133 189.009 61.24 189.463 62.04C189.916 62.8267 190.143 63.74 190.143 64.78C190.143 65.8067 189.916 66.72 189.463 67.52C189.009 68.32 188.389 68.9467 187.603 69.4C186.816 69.8533 185.923 70.08 184.923 70.08ZM184.923 69.18C185.723 69.18 186.443 69 187.083 68.64C187.723 68.2667 188.223 67.7467 188.583 67.08C188.943 66.4133 189.123 65.6467 189.123 64.78C189.123 63.9 188.943 63.1333 188.583 62.48C188.223 61.8133 187.723 61.3 187.083 60.94C186.443 60.5667 185.723 60.38 184.923 60.38C184.123 60.38 183.403 60.5667 182.763 60.94C182.136 61.3 181.636 61.8133 181.263 62.48C180.903 63.1333 180.723 63.9 180.723 64.78C180.723 65.6467 180.903 66.4133 181.263 67.08C181.636 67.7467 182.136 68.2667 182.763 68.64C183.403 69 184.123 69.18 184.923 69.18ZM193.245 70V59.56H194.205V62.42L194.105 62.1C194.398 61.26 194.892 60.6133 195.585 60.16C196.278 59.7067 197.145 59.48 198.185 59.48V60.46C198.145 60.46 198.105 60.46 198.065 60.46C198.025 60.4467 197.985 60.44 197.945 60.44C196.785 60.44 195.878 60.8067 195.225 61.54C194.572 62.26 194.245 63.2667 194.245 64.56V70H193.245ZM200.94 70V55.16H201.94V70H200.94ZM210.175 70.08C209.202 70.08 208.322 69.86 207.535 69.42C206.762 68.9667 206.148 68.34 205.695 67.54C205.242 66.74 205.015 65.82 205.015 64.78C205.015 63.7267 205.242 62.8067 205.695 62.02C206.148 61.22 206.762 60.6 207.535 60.16C208.322 59.7067 209.202 59.48 210.175 59.48C211.095 59.48 211.922 59.6933 212.655 60.12C213.402 60.5467 213.988 61.1533 214.415 61.94C214.855 62.7267 215.075 63.6733 215.075 64.78C215.075 65.86 214.862 66.8 214.435 67.6C214.008 68.4 213.422 69.0133 212.675 69.44C211.942 69.8667 211.108 70.08 210.175 70.08ZM210.235 69.18C211.035 69.18 211.748 69 212.375 68.64C213.015 68.2667 213.515 67.7467 213.875 67.08C214.248 66.4133 214.435 65.6467 214.435 64.78C214.435 63.9 214.248 63.1333 213.875 62.48C213.515 61.8133 213.015 61.3 212.375 60.94C211.748 60.5667 211.035 60.38 210.235 60.38C209.435 60.38 208.715 60.5667 208.075 60.94C207.448 61.3 206.948 61.8133 206.575 62.48C206.215 63.1333 206.035 63.9 206.035 64.78C206.035 65.6467 206.215 66.4133 206.575 67.08C206.948 67.7467 207.448 68.2667 208.075 68.64C208.715 69 209.435 69.18 210.235 69.18ZM214.455 70V66.58L214.635 64.76L214.435 62.94V55.16H215.435V70H214.455ZM218.691 72.86L219.471 69.48L219.571 70.06C219.318 70.06 219.105 69.98 218.931 69.82C218.771 69.66 218.691 69.46 218.691 69.22C218.691 68.98 218.771 68.78 218.931 68.62C219.105 68.46 219.305 68.38 219.531 68.38C219.785 68.38 219.985 68.4667 220.131 68.64C220.291 68.8 220.371 68.9933 220.371 69.22C220.371 69.3133 220.365 69.4067 220.351 69.5C220.338 69.5933 220.318 69.6867 220.291 69.78C220.265 69.8733 220.231 69.9933 220.191 70.14L219.411 72.86H218.691ZM232.792 70.1C231.752 70.1 230.765 69.9267 229.832 69.58C228.912 69.22 228.199 68.76 227.692 68.2L228.152 67.44C228.632 67.9333 229.285 68.3533 230.112 68.7C230.952 69.0333 231.839 69.2 232.772 69.2C233.705 69.2 234.465 69.08 235.052 68.84C235.652 68.5867 236.092 68.2533 236.372 67.84C236.665 67.4267 236.812 66.9667 236.812 66.46C236.812 65.86 236.652 65.38 236.332 65.02C236.012 64.66 235.592 64.3733 235.072 64.16C234.552 63.9467 233.985 63.7667 233.372 63.62C232.759 63.4733 232.139 63.32 231.512 63.16C230.885 62.9867 230.312 62.7667 229.792 62.5C229.272 62.2333 228.852 61.8733 228.532 61.42C228.225 60.9533 228.072 60.3533 228.072 59.62C228.072 58.9533 228.245 58.34 228.592 57.78C228.939 57.22 229.479 56.7667 230.212 56.42C230.945 56.0733 231.885 55.9 233.032 55.9C233.805 55.9 234.565 56.0133 235.312 56.24C236.072 56.4667 236.719 56.7733 237.252 57.16L236.872 57.98C236.285 57.58 235.652 57.2867 234.972 57.1C234.305 56.9 233.659 56.8 233.032 56.8C232.139 56.8 231.399 56.9267 230.812 57.18C230.225 57.4333 229.792 57.7733 229.512 58.2C229.232 58.6133 229.092 59.08 229.092 59.6C229.092 60.2 229.245 60.68 229.552 61.04C229.872 61.4 230.292 61.6867 230.812 61.9C231.332 62.1133 231.905 62.2933 232.532 62.44C233.159 62.5867 233.779 62.7467 234.392 62.92C235.005 63.08 235.572 63.2933 236.092 63.56C236.612 63.8267 237.032 64.1867 237.352 64.64C237.672 65.0933 237.832 65.68 237.832 66.4C237.832 67.0533 237.652 67.6667 237.292 68.24C236.932 68.8 236.379 69.2533 235.632 69.6C234.899 69.9333 233.952 70.1 232.792 70.1ZM253.979 59.48C254.819 59.48 255.546 59.6467 256.159 59.98C256.786 60.3 257.273 60.7933 257.619 61.46C257.966 62.1133 258.139 62.9267 258.139 63.9V70H257.139V63.98C257.139 62.8067 256.853 61.9133 256.279 61.3C255.706 60.6867 254.906 60.38 253.879 60.38C253.093 60.38 252.413 60.5467 251.839 60.88C251.266 61.2133 250.826 61.68 250.519 62.28C250.213 62.88 250.059 63.6 250.059 64.44V70H249.059V63.98C249.059 62.8067 248.773 61.9133 248.199 61.3C247.626 60.6867 246.826 60.38 245.799 60.38C245.013 60.38 244.333 60.5467 243.759 60.88C243.186 61.2133 242.746 61.68 242.439 62.28C242.133 62.88 241.979 63.6 241.979 64.44V70H240.979V59.56H241.939V62.44L241.799 62.12C242.106 61.3067 242.619 60.6667 243.339 60.2C244.059 59.72 244.926 59.48 245.939 59.48C246.979 59.48 247.853 59.7467 248.559 60.28C249.279 60.8 249.733 61.58 249.919 62.62L249.579 62.48C249.859 61.5867 250.386 60.8667 251.159 60.32C251.933 59.76 252.873 59.48 253.979 59.48ZM268.848 70V67.62L268.808 67.26V63.34C268.808 62.3667 268.542 61.6267 268.008 61.12C267.488 60.6133 266.722 60.36 265.708 60.36C264.988 60.36 264.315 60.4867 263.688 60.74C263.075 60.98 262.548 61.2933 262.108 61.68L261.608 60.96C262.128 60.4933 262.755 60.1333 263.488 59.88C264.222 59.6133 264.988 59.48 265.788 59.48C267.082 59.48 268.075 59.8067 268.768 60.46C269.462 61.1133 269.808 62.0867 269.808 63.38V70H268.848ZM265.088 70.08C264.315 70.08 263.642 69.96 263.068 69.72C262.508 69.4667 262.075 69.1133 261.768 68.66C261.475 68.2067 261.328 67.6867 261.328 67.1C261.328 66.5667 261.448 66.0867 261.688 65.66C261.942 65.22 262.355 64.8667 262.928 64.6C263.502 64.32 264.268 64.18 265.228 64.18H269.068V64.96H265.248C264.168 64.96 263.408 65.16 262.968 65.56C262.542 65.96 262.328 66.46 262.328 67.06C262.328 67.7267 262.582 68.26 263.088 68.66C263.595 69.06 264.308 69.26 265.228 69.26C266.108 69.26 266.848 69.06 267.448 68.66C268.062 68.26 268.515 67.68 268.808 66.92L269.088 67.6C268.808 68.36 268.328 68.9667 267.648 69.42C266.982 69.86 266.128 70.08 265.088 70.08ZM273.929 70V59.56H274.889V62.42L274.789 62.1C275.082 61.26 275.575 60.6133 276.269 60.16C276.962 59.7067 277.829 59.48 278.869 59.48V60.46C278.829 60.46 278.789 60.46 278.749 60.46C278.709 60.4467 278.669 60.44 278.629 60.44C277.469 60.44 276.562 60.8067 275.909 61.54C275.255 62.26 274.929 63.2667 274.929 64.56V70H273.929ZM285.133 70.08C284.213 70.08 283.506 69.8267 283.013 69.32C282.533 68.8133 282.293 68.12 282.293 67.24V57.28H283.293V67.14C283.293 67.8067 283.459 68.32 283.793 68.68C284.126 69.04 284.606 69.22 285.233 69.22C285.886 69.22 286.426 69.0267 286.853 68.64L287.273 69.34C287.006 69.5933 286.679 69.78 286.293 69.9C285.919 70.02 285.533 70.08 285.133 70.08ZM280.373 60.42V59.56H286.613V60.42H280.373ZM70.36 94.08C69.44 94.08 68.6067 93.8667 67.86 93.44C67.1267 93.0133 66.54 92.4 66.1 91.6C65.6733 90.8 65.46 89.86 65.46 88.78C65.46 87.6733 65.6733 86.7267 66.1 85.94C66.54 85.1533 67.1267 84.5467 67.86 84.12C68.6067 83.6933 69.44 83.48 70.36 83.48C71.3467 83.48 72.2267 83.7067 73 84.16C73.7867 84.6 74.4 85.22 74.84 86.02C75.2933 86.8067 75.52 87.7267 75.52 88.78C75.52 89.82 75.2933 90.74 74.84 91.54C74.4 92.34 73.7867 92.9667 73 93.42C72.2267 93.86 71.3467 94.08 70.36 94.08ZM65.12 94V79.16H66.12V86.94L65.92 88.76L66.08 90.58V94H65.12ZM70.3 93.18C71.1 93.18 71.82 93 72.46 92.64C73.1 92.2667 73.6 91.7467 73.96 91.08C74.3333 90.4133 74.52 89.6467 74.52 88.78C74.52 87.9 74.3333 87.1333 73.96 86.48C73.6 85.8133 73.1 85.3 72.46 84.94C71.82 84.5667 71.1 84.38 70.3 84.38C69.5 84.38 68.78 84.5667 68.14 84.94C67.5133 85.3 67.0133 85.8133 66.64 86.48C66.28 87.1333 66.1 87.9 66.1 88.78C66.1 89.6467 66.28 90.4133 66.64 91.08C67.0133 91.7467 67.5133 92.2667 68.14 92.64C68.78 93 69.5 93.18 70.3 93.18ZM82.8561 94.08C81.9628 94.08 81.1894 93.92 80.5361 93.6C79.8828 93.2667 79.3761 92.7733 79.0161 92.12C78.6694 91.4533 78.4961 90.6333 78.4961 89.66V83.56H79.4961V89.58C79.4961 90.7533 79.7961 91.6467 80.3961 92.26C80.9961 92.8733 81.8428 93.18 82.9361 93.18C83.7228 93.18 84.4028 93.0133 84.9761 92.68C85.5494 92.3467 85.9894 91.88 86.2961 91.28C86.6028 90.6667 86.7561 89.9467 86.7561 89.12V83.56H87.7561V94H86.7961V91.1L86.9361 91.44C86.6294 92.2533 86.1161 92.9 85.3961 93.38C84.6894 93.8467 83.8428 94.08 82.8561 94.08ZM94.635 94.08C93.7683 94.08 92.955 93.9533 92.195 93.7C91.4483 93.4467 90.8683 93.1267 90.455 92.74L90.915 91.94C91.315 92.2867 91.8483 92.5867 92.515 92.84C93.1817 93.08 93.9017 93.2 94.675 93.2C95.7683 93.2 96.555 93.02 97.035 92.66C97.515 92.3 97.755 91.8267 97.755 91.24C97.755 90.8133 97.6283 90.48 97.375 90.24C97.135 89.9867 96.8083 89.7933 96.395 89.66C95.9817 89.5267 95.5283 89.42 95.035 89.34C94.5417 89.2467 94.0483 89.1467 93.555 89.04C93.0617 88.9333 92.6083 88.78 92.195 88.58C91.7817 88.38 91.4483 88.1067 91.195 87.76C90.955 87.4 90.835 86.9267 90.835 86.34C90.835 85.8067 90.9817 85.3267 91.275 84.9C91.5683 84.4733 92.0083 84.1333 92.595 83.88C93.1817 83.6133 93.915 83.48 94.795 83.48C95.4483 83.48 96.1017 83.5733 96.755 83.76C97.4217 83.9467 97.9617 84.1933 98.375 84.5L97.915 85.3C97.475 84.9667 96.9817 84.7267 96.435 84.58C95.8883 84.4333 95.335 84.36 94.775 84.36C93.7617 84.36 93.015 84.5467 92.535 84.92C92.0683 85.2933 91.835 85.76 91.835 86.32C91.835 86.76 91.955 87.1133 92.195 87.38C92.4483 87.6333 92.7817 87.8333 93.195 87.98C93.6083 88.1133 94.0617 88.2267 94.555 88.32C95.0483 88.4 95.5417 88.4933 96.035 88.6C96.5283 88.7067 96.9817 88.86 97.395 89.06C97.8083 89.2467 98.135 89.5133 98.375 89.86C98.6283 90.1933 98.755 90.6467 98.755 91.22C98.755 91.7933 98.595 92.2933 98.275 92.72C97.9683 93.1467 97.5083 93.48 96.895 93.72C96.2817 93.96 95.5283 94.08 94.635 94.08ZM101.546 94V83.56H102.546V94H101.546ZM102.046 81.02C101.819 81.02 101.626 80.94 101.466 80.78C101.306 80.62 101.226 80.4333 101.226 80.22C101.226 79.9933 101.306 79.8 101.466 79.64C101.626 79.48 101.819 79.4 102.046 79.4C102.286 79.4 102.479 79.48 102.626 79.64C102.786 79.7867 102.866 79.9733 102.866 80.2C102.866 80.4267 102.786 80.62 102.626 80.78C102.479 80.94 102.286 81.02 102.046 81.02ZM111.861 83.48C112.714 83.48 113.454 83.6467 114.081 83.98C114.721 84.3 115.214 84.7933 115.561 85.46C115.921 86.1133 116.101 86.9267 116.101 87.9V94H115.101V87.98C115.101 86.8067 114.801 85.9133 114.201 85.3C113.614 84.6867 112.787 84.38 111.721 84.38C110.907 84.38 110.201 84.5467 109.601 84.88C109.001 85.2133 108.541 85.68 108.221 86.28C107.914 86.88 107.761 87.6 107.761 88.44V94H106.761V83.56H107.721V86.46L107.581 86.14C107.901 85.3133 108.427 84.6667 109.161 84.2C109.894 83.72 110.794 83.48 111.861 83.48ZM124.458 94.08C123.404 94.08 122.471 93.8533 121.658 93.4C120.858 92.9467 120.224 92.32 119.758 91.52C119.304 90.72 119.078 89.8067 119.078 88.78C119.078 87.74 119.291 86.8267 119.718 86.04C120.158 85.24 120.758 84.6133 121.518 84.16C122.278 83.7067 123.131 83.48 124.078 83.48C125.024 83.48 125.871 83.7 126.618 84.14C127.378 84.58 127.971 85.2 128.398 86C128.838 86.7867 129.058 87.7 129.058 88.74C129.058 88.78 129.051 88.8267 129.038 88.88C129.038 88.92 129.038 88.9667 129.038 89.02H119.818V88.24H128.498L128.098 88.62C128.111 87.8067 127.938 87.08 127.578 86.44C127.231 85.7867 126.758 85.28 126.158 84.92C125.558 84.5467 124.864 84.36 124.078 84.36C123.304 84.36 122.611 84.5467 121.998 84.92C121.398 85.28 120.924 85.7867 120.578 86.44C120.231 87.08 120.058 87.8133 120.058 88.64V88.82C120.058 89.6733 120.244 90.4333 120.618 91.1C121.004 91.7533 121.531 92.2667 122.198 92.64C122.864 93 123.624 93.18 124.478 93.18C125.144 93.18 125.764 93.06 126.338 92.82C126.924 92.58 127.418 92.2133 127.818 91.72L128.398 92.38C127.944 92.94 127.371 93.3667 126.678 93.66C125.998 93.94 125.258 94.08 124.458 94.08ZM134.791 94.08C133.925 94.08 133.111 93.9533 132.351 93.7C131.605 93.4467 131.025 93.1267 130.611 92.74L131.071 91.94C131.471 92.2867 132.005 92.5867 132.671 92.84C133.338 93.08 134.058 93.2 134.831 93.2C135.925 93.2 136.711 93.02 137.191 92.66C137.671 92.3 137.911 91.8267 137.911 91.24C137.911 90.8133 137.785 90.48 137.531 90.24C137.291 89.9867 136.965 89.7933 136.551 89.66C136.138 89.5267 135.685 89.42 135.191 89.34C134.698 89.2467 134.205 89.1467 133.711 89.04C133.218 88.9333 132.765 88.78 132.351 88.58C131.938 88.38 131.605 88.1067 131.351 87.76C131.111 87.4 130.991 86.9267 130.991 86.34C130.991 85.8067 131.138 85.3267 131.431 84.9C131.725 84.4733 132.165 84.1333 132.751 83.88C133.338 83.6133 134.071 83.48 134.951 83.48C135.605 83.48 136.258 83.5733 136.911 83.76C137.578 83.9467 138.118 84.1933 138.531 84.5L138.071 85.3C137.631 84.9667 137.138 84.7267 136.591 84.58C136.045 84.4333 135.491 84.36 134.931 84.36C133.918 84.36 133.171 84.5467 132.691 84.92C132.225 85.2933 131.991 85.76 131.991 86.32C131.991 86.76 132.111 87.1133 132.351 87.38C132.605 87.6333 132.938 87.8333 133.351 87.98C133.765 88.1133 134.218 88.2267 134.711 88.32C135.205 88.4 135.698 88.4933 136.191 88.6C136.685 88.7067 137.138 88.86 137.551 89.06C137.965 89.2467 138.291 89.5133 138.531 89.86C138.785 90.1933 138.911 90.6467 138.911 91.22C138.911 91.7933 138.751 92.2933 138.431 92.72C138.125 93.1467 137.665 93.48 137.051 93.72C136.438 93.96 135.685 94.08 134.791 94.08ZM144.342 94.08C143.475 94.08 142.662 93.9533 141.902 93.7C141.155 93.4467 140.575 93.1267 140.162 92.74L140.622 91.94C141.022 92.2867 141.555 92.5867 142.222 92.84C142.889 93.08 143.609 93.2 144.382 93.2C145.475 93.2 146.262 93.02 146.742 92.66C147.222 92.3 147.462 91.8267 147.462 91.24C147.462 90.8133 147.335 90.48 147.082 90.24C146.842 89.9867 146.515 89.7933 146.102 89.66C145.689 89.5267 145.235 89.42 144.742 89.34C144.249 89.2467 143.755 89.1467 143.262 89.04C142.769 88.9333 142.315 88.78 141.902 88.58C141.489 88.38 141.155 88.1067 140.902 87.76C140.662 87.4 140.542 86.9267 140.542 86.34C140.542 85.8067 140.689 85.3267 140.982 84.9C141.275 84.4733 141.715 84.1333 142.302 83.88C142.889 83.6133 143.622 83.48 144.502 83.48C145.155 83.48 145.809 83.5733 146.462 83.76C147.129 83.9467 147.669 84.1933 148.082 84.5L147.622 85.3C147.182 84.9667 146.689 84.7267 146.142 84.58C145.595 84.4333 145.042 84.36 144.482 84.36C143.469 84.36 142.722 84.5467 142.242 84.92C141.775 85.2933 141.542 85.76 141.542 86.32C141.542 86.76 141.662 87.1133 141.902 87.38C142.155 87.6333 142.489 87.8333 142.902 87.98C143.315 88.1133 143.769 88.2267 144.262 88.32C144.755 88.4 145.249 88.4933 145.742 88.6C146.235 88.7067 146.689 88.86 147.102 89.06C147.515 89.2467 147.842 89.5133 148.082 89.86C148.335 90.1933 148.462 90.6467 148.462 91.22C148.462 91.7933 148.302 92.2933 147.982 92.72C147.675 93.1467 147.215 93.48 146.602 93.72C145.989 93.96 145.235 94.08 144.342 94.08ZM155.493 94.08C154.439 94.08 153.506 93.8533 152.693 93.4C151.893 92.9467 151.259 92.32 150.793 91.52C150.339 90.72 150.113 89.8067 150.113 88.78C150.113 87.74 150.326 86.8267 150.753 86.04C151.193 85.24 151.793 84.6133 152.553 84.16C153.313 83.7067 154.166 83.48 155.113 83.48C156.059 83.48 156.906 83.7 157.653 84.14C158.413 84.58 159.006 85.2 159.433 86C159.873 86.7867 160.093 87.7 160.093 88.74C160.093 88.78 160.086 88.8267 160.073 88.88C160.073 88.92 160.073 88.9667 160.073 89.02H150.853V88.24H159.533L159.133 88.62C159.146 87.8067 158.973 87.08 158.613 86.44C158.266 85.7867 157.793 85.28 157.193 84.92C156.593 84.5467 155.899 84.36 155.113 84.36C154.339 84.36 153.646 84.5467 153.033 84.92C152.433 85.28 151.959 85.7867 151.613 86.44C151.266 87.08 151.093 87.8133 151.093 88.64V88.82C151.093 89.6733 151.279 90.4333 151.653 91.1C152.039 91.7533 152.566 92.2667 153.233 92.64C153.899 93 154.659 93.18 155.513 93.18C156.179 93.18 156.799 93.06 157.373 92.82C157.959 92.58 158.453 92.2133 158.853 91.72L159.433 92.38C158.979 92.94 158.406 93.3667 157.713 93.66C157.033 93.94 156.293 94.08 155.493 94.08ZM165.826 94.08C164.96 94.08 164.146 93.9533 163.386 93.7C162.64 93.4467 162.06 93.1267 161.646 92.74L162.106 91.94C162.506 92.2867 163.04 92.5867 163.706 92.84C164.373 93.08 165.093 93.2 165.866 93.2C166.96 93.2 167.746 93.02 168.226 92.66C168.706 92.3 168.946 91.8267 168.946 91.24C168.946 90.8133 168.82 90.48 168.566 90.24C168.326 89.9867 168 89.7933 167.586 89.66C167.173 89.5267 166.72 89.42 166.226 89.34C165.733 89.2467 165.24 89.1467 164.746 89.04C164.253 88.9333 163.8 88.78 163.386 88.58C162.973 88.38 162.64 88.1067 162.386 87.76C162.146 87.4 162.026 86.9267 162.026 86.34C162.026 85.8067 162.173 85.3267 162.466 84.9C162.76 84.4733 163.2 84.1333 163.786 83.88C164.373 83.6133 165.106 83.48 165.986 83.48C166.64 83.48 167.293 83.5733 167.946 83.76C168.613 83.9467 169.153 84.1933 169.566 84.5L169.106 85.3C168.666 84.9667 168.173 84.7267 167.626 84.58C167.08 84.4333 166.526 84.36 165.966 84.36C164.953 84.36 164.206 84.5467 163.726 84.92C163.26 85.2933 163.026 85.76 163.026 86.32C163.026 86.76 163.146 87.1133 163.386 87.38C163.64 87.6333 163.973 87.8333 164.386 87.98C164.8 88.1133 165.253 88.2267 165.746 88.32C166.24 88.4 166.733 88.4933 167.226 88.6C167.72 88.7067 168.173 88.86 168.586 89.06C169 89.2467 169.326 89.5133 169.566 89.86C169.82 90.1933 169.946 90.6467 169.946 91.22C169.946 91.7933 169.786 92.2933 169.466 92.72C169.16 93.1467 168.7 93.48 168.086 93.72C167.473 93.96 166.72 94.08 165.826 94.08ZM180.914 94.08C179.994 94.08 179.287 93.8267 178.794 93.32C178.314 92.8133 178.074 92.12 178.074 91.24V81.28H179.074V91.14C179.074 91.8067 179.241 92.32 179.574 92.68C179.907 93.04 180.387 93.22 181.014 93.22C181.667 93.22 182.207 93.0267 182.634 92.64L183.054 93.34C182.787 93.5933 182.461 93.78 182.074 93.9C181.701 94.02 181.314 94.08 180.914 94.08ZM176.154 84.42V83.56H182.394V84.42H176.154ZM189.552 94.08C188.552 94.08 187.658 93.8533 186.872 93.4C186.098 92.9467 185.478 92.32 185.012 91.52C184.558 90.72 184.332 89.8067 184.332 88.78C184.332 87.74 184.558 86.8267 185.012 86.04C185.478 85.24 186.098 84.6133 186.872 84.16C187.658 83.7067 188.552 83.48 189.552 83.48C190.552 83.48 191.445 83.7067 192.232 84.16C193.018 84.6133 193.638 85.24 194.092 86.04C194.545 86.8267 194.772 87.74 194.772 88.78C194.772 89.8067 194.545 90.72 194.092 91.52C193.638 92.32 193.018 92.9467 192.232 93.4C191.445 93.8533 190.552 94.08 189.552 94.08ZM189.552 93.18C190.352 93.18 191.072 93 191.712 92.64C192.352 92.2667 192.852 91.7467 193.212 91.08C193.572 90.4133 193.752 89.6467 193.752 88.78C193.752 87.9 193.572 87.1333 193.212 86.48C192.852 85.8133 192.352 85.3 191.712 84.94C191.072 84.5667 190.352 84.38 189.552 84.38C188.752 84.38 188.032 84.5667 187.392 84.94C186.765 85.3 186.265 85.8133 185.892 86.48C185.532 87.1333 185.352 87.9 185.352 88.78C185.352 89.6467 185.532 90.4133 185.892 91.08C186.265 91.7467 186.765 92.2667 187.392 92.64C188.032 93 188.752 93.18 189.552 93.18ZM201.894 94.08C200.921 94.08 200.041 93.86 199.254 93.42C198.481 92.9667 197.867 92.34 197.414 91.54C196.961 90.74 196.734 89.82 196.734 88.78C196.734 87.7267 196.961 86.8067 197.414 86.02C197.867 85.22 198.481 84.6 199.254 84.16C200.041 83.7067 200.921 83.48 201.894 83.48C202.814 83.48 203.641 83.6933 204.374 84.12C205.121 84.5467 205.707 85.1533 206.134 85.94C206.574 86.7267 206.794 87.6733 206.794 88.78C206.794 89.86 206.581 90.8 206.154 91.6C205.727 92.4 205.141 93.0133 204.394 93.44C203.661 93.8667 202.827 94.08 201.894 94.08ZM201.954 93.18C202.754 93.18 203.467 93 204.094 92.64C204.734 92.2667 205.234 91.7467 205.594 91.08C205.967 90.4133 206.154 89.6467 206.154 88.78C206.154 87.9 205.967 87.1333 205.594 86.48C205.234 85.8133 204.734 85.3 204.094 84.94C203.467 84.5667 202.754 84.38 201.954 84.38C201.154 84.38 200.434 84.5667 199.794 84.94C199.167 85.3 198.667 85.8133 198.294 86.48C197.934 87.1333 197.754 87.9 197.754 88.78C197.754 89.6467 197.934 90.4133 198.294 91.08C198.667 91.7467 199.167 92.2667 199.794 92.64C200.434 93 201.154 93.18 201.954 93.18ZM206.174 94V90.58L206.354 88.76L206.154 86.94V79.16H207.154V94H206.174ZM217.95 94V91.62L217.91 91.26V87.34C217.91 86.3667 217.643 85.6267 217.11 85.12C216.59 84.6133 215.823 84.36 214.81 84.36C214.09 84.36 213.417 84.4867 212.79 84.74C212.177 84.98 211.65 85.2933 211.21 85.68L210.71 84.96C211.23 84.4933 211.857 84.1333 212.59 83.88C213.323 83.6133 214.09 83.48 214.89 83.48C216.183 83.48 217.177 83.8067 217.87 84.46C218.563 85.1133 218.91 86.0867 218.91 87.38V94H217.95ZM214.19 94.08C213.417 94.08 212.743 93.96 212.17 93.72C211.61 93.4667 211.177 93.1133 210.87 92.66C210.577 92.2067 210.43 91.6867 210.43 91.1C210.43 90.5667 210.55 90.0867 210.79 89.66C211.043 89.22 211.457 88.8667 212.03 88.6C212.603 88.32 213.37 88.18 214.33 88.18H218.17V88.96H214.35C213.27 88.96 212.51 89.16 212.07 89.56C211.643 89.96 211.43 90.46 211.43 91.06C211.43 91.7267 211.683 92.26 212.19 92.66C212.697 93.06 213.41 93.26 214.33 93.26C215.21 93.26 215.95 93.06 216.55 92.66C217.163 92.26 217.617 91.68 217.91 90.92L218.19 91.6C217.91 92.36 217.43 92.9667 216.75 93.42C216.083 93.86 215.23 94.08 214.19 94.08ZM222.595 97.96C222.115 97.96 221.662 97.88 221.235 97.72C220.822 97.56 220.468 97.3267 220.175 97.02L220.675 96.26C220.942 96.54 221.228 96.7467 221.535 96.88C221.855 97.0133 222.215 97.08 222.615 97.08C223.095 97.08 223.515 96.9467 223.875 96.68C224.248 96.4133 224.595 95.9267 224.915 95.22L225.635 93.62L225.775 93.44L230.195 83.56H231.215L225.855 95.42C225.575 96.06 225.268 96.56 224.935 96.92C224.615 97.2933 224.262 97.56 223.875 97.72C223.488 97.88 223.062 97.96 222.595 97.96ZM225.615 94.26L220.775 83.56H221.835L226.235 93.38L225.615 94.26ZM242.778 94.08C241.725 94.08 240.791 93.8533 239.978 93.4C239.178 92.9467 238.545 92.32 238.078 91.52C237.625 90.72 237.398 89.8067 237.398 88.78C237.398 87.74 237.611 86.8267 238.038 86.04C238.478 85.24 239.078 84.6133 239.838 84.16C240.598 83.7067 241.451 83.48 242.398 83.48C243.345 83.48 244.191 83.7 244.938 84.14C245.698 84.58 246.291 85.2 246.718 86C247.158 86.7867 247.378 87.7 247.378 88.74C247.378 88.78 247.371 88.8267 247.358 88.88C247.358 88.92 247.358 88.9667 247.358 89.02H238.138V88.24H246.818L246.418 88.62C246.431 87.8067 246.258 87.08 245.898 86.44C245.551 85.7867 245.078 85.28 244.478 84.92C243.878 84.5467 243.185 84.36 242.398 84.36C241.625 84.36 240.931 84.5467 240.318 84.92C239.718 85.28 239.245 85.7867 238.898 86.44C238.551 87.08 238.378 87.8133 238.378 88.64V88.82C238.378 89.6733 238.565 90.4333 238.938 91.1C239.325 91.7533 239.851 92.2667 240.518 92.64C241.185 93 241.945 93.18 242.798 93.18C243.465 93.18 244.085 93.06 244.658 92.82C245.245 92.58 245.738 92.2133 246.138 91.72L246.718 92.38C246.265 92.94 245.691 93.3667 244.998 93.66C244.318 93.94 243.578 94.08 242.778 94.08ZM263.472 83.48C264.312 83.48 265.038 83.6467 265.652 83.98C266.278 84.3 266.765 84.7933 267.112 85.46C267.458 86.1133 267.632 86.9267 267.632 87.9V94H266.632V87.98C266.632 86.8067 266.345 85.9133 265.772 85.3C265.198 84.6867 264.398 84.38 263.372 84.38C262.585 84.38 261.905 84.5467 261.332 84.88C260.758 85.2133 260.318 85.68 260.012 86.28C259.705 86.88 259.552 87.6 259.552 88.44V94H258.552V87.98C258.552 86.8067 258.265 85.9133 257.692 85.3C257.118 84.6867 256.318 84.38 255.292 84.38C254.505 84.38 253.825 84.5467 253.252 84.88C252.678 85.2133 252.238 85.68 251.932 86.28C251.625 86.88 251.472 87.6 251.472 88.44V94H250.472V83.56H251.432V86.44L251.292 86.12C251.598 85.3067 252.112 84.6667 252.832 84.2C253.552 83.72 254.418 83.48 255.432 83.48C256.472 83.48 257.345 83.7467 258.052 84.28C258.772 84.8 259.225 85.58 259.412 86.62L259.072 86.48C259.352 85.5867 259.878 84.8667 260.652 84.32C261.425 83.76 262.365 83.48 263.472 83.48ZM277.001 94.08C276.081 94.08 275.247 93.8667 274.501 93.44C273.767 93.0133 273.181 92.4 272.741 91.6C272.314 90.8 272.101 89.86 272.101 88.78C272.101 87.6733 272.314 86.7267 272.741 85.94C273.181 85.1533 273.767 84.5467 274.501 84.12C275.247 83.6933 276.081 83.48 277.001 83.48C277.987 83.48 278.867 83.7067 279.641 84.16C280.427 84.6 281.041 85.22 281.481 86.02C281.934 86.8067 282.161 87.7267 282.161 88.78C282.161 89.82 281.934 90.74 281.481 91.54C281.041 92.34 280.427 92.9667 279.641 93.42C278.867 93.86 277.987 94.08 277.001 94.08ZM271.761 94V79.16H272.761V86.94L272.561 88.76L272.721 90.58V94H271.761ZM276.941 93.18C277.741 93.18 278.461 93 279.101 92.64C279.741 92.2667 280.241 91.7467 280.601 91.08C280.974 90.4133 281.161 89.6467 281.161 88.78C281.161 87.9 280.974 87.1333 280.601 86.48C280.241 85.8133 279.741 85.3 279.101 84.94C278.461 84.5667 277.741 84.38 276.941 84.38C276.141 84.38 275.421 84.5667 274.781 84.94C274.154 85.3 273.654 85.8133 273.281 86.48C272.921 87.1333 272.741 87.9 272.741 88.78C272.741 89.6467 272.921 90.4133 273.281 91.08C273.654 91.7467 274.154 92.2667 274.781 92.64C275.421 93 276.141 93.18 276.941 93.18ZM285.257 94V83.56H286.217V86.42L286.117 86.1C286.41 85.26 286.903 84.6133 287.597 84.16C288.29 83.7067 289.157 83.48 290.197 83.48V84.46C290.157 84.46 290.117 84.46 290.077 84.46C290.037 84.4467 289.997 84.44 289.957 84.44C288.797 84.44 287.89 84.8067 287.237 85.54C286.583 86.26 286.257 87.2667 286.257 88.56V94H285.257ZM298.751 94V91.62L298.711 91.26V87.34C298.711 86.3667 298.444 85.6267 297.911 85.12C297.391 84.6133 296.624 84.36 295.611 84.36C294.891 84.36 294.217 84.4867 293.591 84.74C292.977 84.98 292.451 85.2933 292.011 85.68L291.511 84.96C292.031 84.4933 292.657 84.1333 293.391 83.88C294.124 83.6133 294.891 83.48 295.691 83.48C296.984 83.48 297.977 83.8067 298.671 84.46C299.364 85.1133 299.711 86.0867 299.711 87.38V94H298.751ZM294.991 94.08C294.217 94.08 293.544 93.96 292.971 93.72C292.411 93.4667 291.977 93.1133 291.671 92.66C291.377 92.2067 291.231 91.6867 291.231 91.1C291.231 90.5667 291.351 90.0867 291.591 89.66C291.844 89.22 292.257 88.8667 292.831 88.6C293.404 88.32 294.171 88.18 295.131 88.18H298.971V88.96H295.151C294.071 88.96 293.311 89.16 292.871 89.56C292.444 89.96 292.231 90.46 292.231 91.06C292.231 91.7267 292.484 92.26 292.991 92.66C293.497 93.06 294.211 93.26 295.131 93.26C296.011 93.26 296.751 93.06 297.351 92.66C297.964 92.26 298.417 91.68 298.711 90.92L298.991 91.6C298.711 92.36 298.231 92.9667 297.551 93.42C296.884 93.86 296.031 94.08 294.991 94.08ZM307.971 94.08C306.958 94.08 306.051 93.8533 305.251 93.4C304.464 92.9467 303.838 92.32 303.371 91.52C302.918 90.72 302.691 89.8067 302.691 88.78C302.691 87.74 302.918 86.82 303.371 86.02C303.838 85.22 304.464 84.6 305.251 84.16C306.051 83.7067 306.958 83.48 307.971 83.48C308.811 83.48 309.571 83.64 310.251 83.96C310.944 84.28 311.504 84.76 311.931 85.4L311.191 85.94C310.818 85.4067 310.351 85.0133 309.791 84.76C309.231 84.5067 308.624 84.38 307.971 84.38C307.158 84.38 306.424 84.5667 305.771 84.94C305.131 85.3 304.624 85.8133 304.251 86.48C303.891 87.1333 303.711 87.9 303.711 88.78C303.711 89.66 303.891 90.4333 304.251 91.1C304.624 91.7533 305.131 92.2667 305.771 92.64C306.424 93 307.158 93.18 307.971 93.18C308.624 93.18 309.231 93.0533 309.791 92.8C310.351 92.5467 310.818 92.1533 311.191 91.62L311.931 92.16C311.504 92.8 310.944 93.28 310.251 93.6C309.571 93.92 308.811 94.08 307.971 94.08ZM318.989 94.08C317.936 94.08 317.002 93.8533 316.189 93.4C315.389 92.9467 314.756 92.32 314.289 91.52C313.836 90.72 313.609 89.8067 313.609 88.78C313.609 87.74 313.822 86.8267 314.249 86.04C314.689 85.24 315.289 84.6133 316.049 84.16C316.809 83.7067 317.662 83.48 318.609 83.48C319.556 83.48 320.402 83.7 321.149 84.14C321.909 84.58 322.502 85.2 322.929 86C323.369 86.7867 323.589 87.7 323.589 88.74C323.589 88.78 323.582 88.8267 323.569 88.88C323.569 88.92 323.569 88.9667 323.569 89.02H314.349V88.24H323.029L322.629 88.62C322.642 87.8067 322.469 87.08 322.109 86.44C321.762 85.7867 321.289 85.28 320.689 84.92C320.089 84.5467 319.396 84.36 318.609 84.36C317.836 84.36 317.142 84.5467 316.529 84.92C315.929 85.28 315.456 85.7867 315.109 86.44C314.762 87.08 314.589 87.8133 314.589 88.64V88.82C314.589 89.6733 314.776 90.4333 315.149 91.1C315.536 91.7533 316.062 92.2667 316.729 92.64C317.396 93 318.156 93.18 319.009 93.18C319.676 93.18 320.296 93.06 320.869 92.82C321.456 92.58 321.949 92.2133 322.349 91.72L322.929 92.38C322.476 92.94 321.902 93.3667 321.209 93.66C320.529 93.94 319.789 94.08 318.989 94.08ZM68.16 118.08C67.24 118.08 66.5333 117.827 66.04 117.32C65.56 116.813 65.32 116.12 65.32 115.24V105.28H66.32V115.14C66.32 115.807 66.4867 116.32 66.82 116.68C67.1533 117.04 67.6333 117.22 68.26 117.22C68.9133 117.22 69.4533 117.027 69.88 116.64L70.3 117.34C70.0333 117.593 69.7067 117.78 69.32 117.9C68.9467 118.02 68.56 118.08 68.16 118.08ZM63.4 108.42V107.56H69.64V108.42H63.4ZM73.0888 118V107.56H74.0488V110.42L73.9488 110.1C74.2421 109.26 74.7354 108.613 75.4288 108.16C76.1221 107.707 76.9888 107.48 78.0288 107.48V108.46C77.9888 108.46 77.9488 108.46 77.9088 108.46C77.8688 108.447 77.8288 108.44 77.7888 108.44C76.6288 108.44 75.7221 108.807 75.0688 109.54C74.4154 110.26 74.0888 111.267 74.0888 112.56V118H73.0888ZM86.5828 118V115.62L86.5428 115.26V111.34C86.5428 110.367 86.2761 109.627 85.7428 109.12C85.2228 108.613 84.4561 108.36 83.4428 108.36C82.7228 108.36 82.0495 108.487 81.4228 108.74C80.8095 108.98 80.2828 109.293 79.8428 109.68L79.3428 108.96C79.8628 108.493 80.4895 108.133 81.2228 107.88C81.9561 107.613 82.7228 107.48 83.5228 107.48C84.8161 107.48 85.8095 107.807 86.5028 108.46C87.1961 109.113 87.5428 110.087 87.5428 111.38V118H86.5828ZM82.8228 118.08C82.0495 118.08 81.3761 117.96 80.8028 117.72C80.2428 117.467 79.8095 117.113 79.5028 116.66C79.2095 116.207 79.0628 115.687 79.0628 115.1C79.0628 114.567 79.1828 114.087 79.4228 113.66C79.6761 113.22 80.0895 112.867 80.6628 112.6C81.2361 112.32 82.0028 112.18 82.9628 112.18H86.8028V112.96H82.9828C81.9028 112.96 81.1428 113.16 80.7028 113.56C80.2761 113.96 80.0628 114.46 80.0628 115.06C80.0628 115.727 80.3161 116.26 80.8228 116.66C81.3295 117.06 82.0428 117.26 82.9628 117.26C83.8428 117.26 84.5828 117.06 85.1828 116.66C85.7961 116.26 86.2495 115.68 86.5428 114.92L86.8228 115.6C86.5428 116.36 86.0628 116.967 85.3828 117.42C84.7161 117.86 83.8628 118.08 82.8228 118.08ZM96.763 107.48C97.6163 107.48 98.3563 107.647 98.983 107.98C99.623 108.3 100.116 108.793 100.463 109.46C100.823 110.113 101.003 110.927 101.003 111.9V118H100.003V111.98C100.003 110.807 99.703 109.913 99.103 109.3C98.5163 108.687 97.6896 108.38 96.623 108.38C95.8096 108.38 95.103 108.547 94.503 108.88C93.903 109.213 93.443 109.68 93.123 110.28C92.8163 110.88 92.663 111.6 92.663 112.44V118H91.663V107.56H92.623V110.46L92.483 110.14C92.803 109.313 93.3296 108.667 94.063 108.2C94.7963 107.72 95.6963 107.48 96.763 107.48ZM107.76 118.08C106.893 118.08 106.08 117.953 105.32 117.7C104.573 117.447 103.993 117.127 103.58 116.74L104.04 115.94C104.44 116.287 104.973 116.587 105.64 116.84C106.307 117.08 107.027 117.2 107.8 117.2C108.893 117.2 109.68 117.02 110.16 116.66C110.64 116.3 110.88 115.827 110.88 115.24C110.88 114.813 110.753 114.48 110.5 114.24C110.26 113.987 109.933 113.793 109.52 113.66C109.107 113.527 108.653 113.42 108.16 113.34C107.667 113.247 107.173 113.147 106.68 113.04C106.187 112.933 105.733 112.78 105.32 112.58C104.907 112.38 104.573 112.107 104.32 111.76C104.08 111.4 103.96 110.927 103.96 110.34C103.96 109.807 104.107 109.327 104.4 108.9C104.693 108.473 105.133 108.133 105.72 107.88C106.307 107.613 107.04 107.48 107.92 107.48C108.573 107.48 109.227 107.573 109.88 107.76C110.547 107.947 111.087 108.193 111.5 108.5L111.04 109.3C110.6 108.967 110.107 108.727 109.56 108.58C109.013 108.433 108.46 108.36 107.9 108.36C106.887 108.36 106.14 108.547 105.66 108.92C105.193 109.293 104.96 109.76 104.96 110.32C104.96 110.76 105.08 111.113 105.32 111.38C105.573 111.633 105.907 111.833 106.32 111.98C106.733 112.113 107.187 112.227 107.68 112.32C108.173 112.4 108.667 112.493 109.16 112.6C109.653 112.707 110.107 112.86 110.52 113.06C110.933 113.247 111.26 113.513 111.5 113.86C111.753 114.193 111.88 114.647 111.88 115.22C111.88 115.793 111.72 116.293 111.4 116.72C111.093 117.147 110.633 117.48 110.02 117.72C109.407 117.96 108.653 118.08 107.76 118.08ZM119.911 118.08C118.991 118.08 118.157 117.867 117.411 117.44C116.677 117.013 116.091 116.407 115.651 115.62C115.224 114.82 115.011 113.873 115.011 112.78C115.011 111.687 115.224 110.747 115.651 109.96C116.091 109.16 116.677 108.547 117.411 108.12C118.157 107.693 118.991 107.48 119.911 107.48C120.897 107.48 121.777 107.707 122.551 108.16C123.337 108.6 123.951 109.22 124.391 110.02C124.844 110.82 125.071 111.74 125.071 112.78C125.071 113.82 124.844 114.74 124.391 115.54C123.951 116.34 123.337 116.967 122.551 117.42C121.777 117.86 120.897 118.08 119.911 118.08ZM114.671 121.88V107.56H115.631V110.98L115.471 112.8L115.671 114.62V121.88H114.671ZM119.851 117.18C120.651 117.18 121.371 117 122.011 116.64C122.651 116.267 123.151 115.747 123.511 115.08C123.884 114.413 124.071 113.647 124.071 112.78C124.071 111.9 123.884 111.133 123.511 110.48C123.151 109.813 122.651 109.3 122.011 108.94C121.371 108.567 120.651 108.38 119.851 108.38C119.051 108.38 118.331 108.567 117.691 108.94C117.064 109.3 116.564 109.813 116.191 110.48C115.831 111.133 115.651 111.9 115.651 112.78C115.651 113.647 115.831 114.413 116.191 115.08C116.564 115.747 117.064 116.267 117.691 116.64C118.331 117 119.051 117.18 119.851 117.18ZM134.708 118V115.62L134.668 115.26V111.34C134.668 110.367 134.401 109.627 133.868 109.12C133.348 108.613 132.581 108.36 131.568 108.36C130.848 108.36 130.174 108.487 129.548 108.74C128.934 108.98 128.408 109.293 127.968 109.68L127.468 108.96C127.988 108.493 128.614 108.133 129.348 107.88C130.081 107.613 130.848 107.48 131.648 107.48C132.941 107.48 133.934 107.807 134.628 108.46C135.321 109.113 135.668 110.087 135.668 111.38V118H134.708ZM130.948 118.08C130.174 118.08 129.501 117.96 128.928 117.72C128.368 117.467 127.934 117.113 127.628 116.66C127.334 116.207 127.188 115.687 127.188 115.1C127.188 114.567 127.308 114.087 127.548 113.66C127.801 113.22 128.214 112.867 128.788 112.6C129.361 112.32 130.128 112.18 131.088 112.18H134.928V112.96H131.108C130.028 112.96 129.268 113.16 128.828 113.56C128.401 113.96 128.188 114.46 128.188 115.06C128.188 115.727 128.441 116.26 128.948 116.66C129.454 117.06 130.168 117.26 131.088 117.26C131.968 117.26 132.708 117.06 133.308 116.66C133.921 116.26 134.374 115.68 134.668 114.92L134.948 115.6C134.668 116.36 134.188 116.967 133.508 117.42C132.841 117.86 131.988 118.08 130.948 118.08ZM139.788 118V107.56H140.748V110.42L140.648 110.1C140.941 109.26 141.435 108.613 142.128 108.16C142.821 107.707 143.688 107.48 144.728 107.48V108.46C144.688 108.46 144.648 108.46 144.608 108.46C144.568 108.447 144.528 108.44 144.488 108.44C143.328 108.44 142.421 108.807 141.768 109.54C141.115 110.26 140.788 111.267 140.788 112.56V118H139.788ZM151.626 118.08C150.572 118.08 149.639 117.853 148.826 117.4C148.026 116.947 147.392 116.32 146.926 115.52C146.472 114.72 146.246 113.807 146.246 112.78C146.246 111.74 146.459 110.827 146.886 110.04C147.326 109.24 147.926 108.613 148.686 108.16C149.446 107.707 150.299 107.48 151.246 107.48C152.192 107.48 153.039 107.7 153.786 108.14C154.546 108.58 155.139 109.2 155.566 110C156.006 110.787 156.226 111.7 156.226 112.74C156.226 112.78 156.219 112.827 156.206 112.88C156.206 112.92 156.206 112.967 156.206 113.02H146.986V112.24H155.666L155.266 112.62C155.279 111.807 155.106 111.08 154.746 110.44C154.399 109.787 153.926 109.28 153.326 108.92C152.726 108.547 152.032 108.36 151.246 108.36C150.472 108.36 149.779 108.547 149.166 108.92C148.566 109.28 148.092 109.787 147.746 110.44C147.399 111.08 147.226 111.813 147.226 112.64V112.82C147.226 113.673 147.412 114.433 147.786 115.1C148.172 115.753 148.699 116.267 149.366 116.64C150.032 117 150.792 117.18 151.646 117.18C152.312 117.18 152.932 117.06 153.506 116.82C154.092 116.58 154.586 116.213 154.986 115.72L155.566 116.38C155.112 116.94 154.539 117.367 153.846 117.66C153.166 117.94 152.426 118.08 151.626 118.08ZM164.419 107.48C165.273 107.48 166.013 107.647 166.639 107.98C167.279 108.3 167.773 108.793 168.119 109.46C168.479 110.113 168.659 110.927 168.659 111.9V118H167.659V111.98C167.659 110.807 167.359 109.913 166.759 109.3C166.173 108.687 165.346 108.38 164.279 108.38C163.466 108.38 162.759 108.547 162.159 108.88C161.559 109.213 161.099 109.68 160.779 110.28C160.473 110.88 160.319 111.6 160.319 112.44V118H159.319V107.56H160.279V110.46L160.139 110.14C160.459 109.313 160.986 108.667 161.719 108.2C162.453 107.72 163.353 107.48 164.419 107.48ZM175.816 118.08C174.896 118.08 174.19 117.827 173.696 117.32C173.216 116.813 172.976 116.12 172.976 115.24V105.28H173.976V115.14C173.976 115.807 174.143 116.32 174.476 116.68C174.81 117.04 175.29 117.22 175.916 117.22C176.57 117.22 177.11 117.027 177.536 116.64L177.956 117.34C177.69 117.593 177.363 117.78 176.976 117.9C176.603 118.02 176.216 118.08 175.816 118.08ZM171.056 108.42V107.56H177.296V108.42H171.056ZM188.522 118.08C187.655 118.08 186.842 117.953 186.082 117.7C185.335 117.447 184.755 117.127 184.342 116.74L184.802 115.94C185.202 116.287 185.735 116.587 186.402 116.84C187.068 117.08 187.788 117.2 188.562 117.2C189.655 117.2 190.442 117.02 190.922 116.66C191.402 116.3 191.642 115.827 191.642 115.24C191.642 114.813 191.515 114.48 191.262 114.24C191.022 113.987 190.695 113.793 190.282 113.66C189.868 113.527 189.415 113.42 188.922 113.34C188.428 113.247 187.935 113.147 187.442 113.04C186.948 112.933 186.495 112.78 186.082 112.58C185.668 112.38 185.335 112.107 185.082 111.76C184.842 111.4 184.722 110.927 184.722 110.34C184.722 109.807 184.868 109.327 185.162 108.9C185.455 108.473 185.895 108.133 186.482 107.88C187.068 107.613 187.802 107.48 188.682 107.48C189.335 107.48 189.988 107.573 190.642 107.76C191.308 107.947 191.848 108.193 192.262 108.5L191.802 109.3C191.362 108.967 190.868 108.727 190.322 108.58C189.775 108.433 189.222 108.36 188.662 108.36C187.648 108.36 186.902 108.547 186.422 108.92C185.955 109.293 185.722 109.76 185.722 110.32C185.722 110.76 185.842 111.113 186.082 111.38C186.335 111.633 186.668 111.833 187.082 111.98C187.495 112.113 187.948 112.227 188.442 112.32C188.935 112.4 189.428 112.493 189.922 112.6C190.415 112.707 190.868 112.86 191.282 113.06C191.695 113.247 192.022 113.513 192.262 113.86C192.515 114.193 192.642 114.647 192.642 115.22C192.642 115.793 192.482 116.293 192.162 116.72C191.855 117.147 191.395 117.48 190.782 117.72C190.168 117.96 189.415 118.08 188.522 118.08ZM199.673 118.08C198.779 118.08 198.006 117.92 197.353 117.6C196.699 117.267 196.193 116.773 195.833 116.12C195.486 115.453 195.313 114.633 195.313 113.66V107.56H196.313V113.58C196.313 114.753 196.613 115.647 197.213 116.26C197.813 116.873 198.659 117.18 199.753 117.18C200.539 117.18 201.219 117.013 201.793 116.68C202.366 116.347 202.806 115.88 203.113 115.28C203.419 114.667 203.573 113.947 203.573 113.12V107.56H204.573V118H203.613V115.1L203.753 115.44C203.446 116.253 202.933 116.9 202.213 117.38C201.506 117.847 200.659 118.08 199.673 118.08ZM211.451 118.08C210.585 118.08 209.771 117.953 209.011 117.7C208.265 117.447 207.685 117.127 207.271 116.74L207.731 115.94C208.131 116.287 208.665 116.587 209.331 116.84C209.998 117.08 210.718 117.2 211.491 117.2C212.585 117.2 213.371 117.02 213.851 116.66C214.331 116.3 214.571 115.827 214.571 115.24C214.571 114.813 214.445 114.48 214.191 114.24C213.951 113.987 213.625 113.793 213.211 113.66C212.798 113.527 212.345 113.42 211.851 113.34C211.358 113.247 210.865 113.147 210.371 113.04C209.878 112.933 209.425 112.78 209.011 112.58C208.598 112.38 208.265 112.107 208.011 111.76C207.771 111.4 207.651 110.927 207.651 110.34C207.651 109.807 207.798 109.327 208.091 108.9C208.385 108.473 208.825 108.133 209.411 107.88C209.998 107.613 210.731 107.48 211.611 107.48C212.265 107.48 212.918 107.573 213.571 107.76C214.238 107.947 214.778 108.193 215.191 108.5L214.731 109.3C214.291 108.967 213.798 108.727 213.251 108.58C212.705 108.433 212.151 108.36 211.591 108.36C210.578 108.36 209.831 108.547 209.351 108.92C208.885 109.293 208.651 109.76 208.651 110.32C208.651 110.76 208.771 111.113 209.011 111.38C209.265 111.633 209.598 111.833 210.011 111.98C210.425 112.113 210.878 112.227 211.371 112.32C211.865 112.4 212.358 112.493 212.851 112.6C213.345 112.707 213.798 112.86 214.211 113.06C214.625 113.247 214.951 113.513 215.191 113.86C215.445 114.193 215.571 114.647 215.571 115.22C215.571 115.793 215.411 116.293 215.091 116.72C214.785 117.147 214.325 117.48 213.711 117.72C213.098 117.96 212.345 118.08 211.451 118.08ZM221.402 118.08C220.482 118.08 219.776 117.827 219.282 117.32C218.802 116.813 218.562 116.12 218.562 115.24V105.28H219.562V115.14C219.562 115.807 219.729 116.32 220.062 116.68C220.396 117.04 220.876 117.22 221.502 117.22C222.156 117.22 222.696 117.027 223.122 116.64L223.542 117.34C223.276 117.593 222.949 117.78 222.562 117.9C222.189 118.02 221.802 118.08 221.402 118.08ZM216.642 108.42V107.56H222.882V108.42H216.642ZM232.911 118V115.62L232.871 115.26V111.34C232.871 110.367 232.604 109.627 232.071 109.12C231.551 108.613 230.784 108.36 229.771 108.36C229.051 108.36 228.378 108.487 227.751 108.74C227.138 108.98 226.611 109.293 226.171 109.68L225.671 108.96C226.191 108.493 226.818 108.133 227.551 107.88C228.284 107.613 229.051 107.48 229.851 107.48C231.144 107.48 232.138 107.807 232.831 108.46C233.524 109.113 233.871 110.087 233.871 111.38V118H232.911ZM229.151 118.08C228.378 118.08 227.704 117.96 227.131 117.72C226.571 117.467 226.138 117.113 225.831 116.66C225.538 116.207 225.391 115.687 225.391 115.1C225.391 114.567 225.511 114.087 225.751 113.66C226.004 113.22 226.418 112.867 226.991 112.6C227.564 112.32 228.331 112.18 229.291 112.18H233.131V112.96H229.311C228.231 112.96 227.471 113.16 227.031 113.56C226.604 113.96 226.391 114.46 226.391 115.06C226.391 115.727 226.644 116.26 227.151 116.66C227.658 117.06 228.371 117.26 229.291 117.26C230.171 117.26 230.911 117.06 231.511 116.66C232.124 116.26 232.578 115.68 232.871 114.92L233.151 115.6C232.871 116.36 232.391 116.967 231.711 117.42C231.044 117.86 230.191 118.08 229.151 118.08ZM237.991 118V107.56H238.991V118H237.991ZM238.491 105.02C238.264 105.02 238.071 104.94 237.911 104.78C237.751 104.62 237.671 104.433 237.671 104.22C237.671 103.993 237.751 103.8 237.911 103.64C238.071 103.48 238.264 103.4 238.491 103.4C238.731 103.4 238.924 103.48 239.071 103.64C239.231 103.787 239.311 103.973 239.311 104.2C239.311 104.427 239.231 104.62 239.071 104.78C238.924 104.94 238.731 105.02 238.491 105.02ZM248.306 107.48C249.159 107.48 249.899 107.647 250.526 107.98C251.166 108.3 251.659 108.793 252.006 109.46C252.366 110.113 252.546 110.927 252.546 111.9V118H251.546V111.98C251.546 110.807 251.246 109.913 250.646 109.3C250.059 108.687 249.233 108.38 248.166 108.38C247.353 108.38 246.646 108.547 246.046 108.88C245.446 109.213 244.986 109.68 244.666 110.28C244.359 110.88 244.206 111.6 244.206 112.44V118H243.206V107.56H244.166V110.46L244.026 110.14C244.346 109.313 244.873 108.667 245.606 108.2C246.339 107.72 247.239 107.48 248.306 107.48ZM263.243 118V115.62L263.203 115.26V111.34C263.203 110.367 262.936 109.627 262.403 109.12C261.883 108.613 261.116 108.36 260.103 108.36C259.383 108.36 258.71 108.487 258.083 108.74C257.47 108.98 256.943 109.293 256.503 109.68L256.003 108.96C256.523 108.493 257.15 108.133 257.883 107.88C258.616 107.613 259.383 107.48 260.183 107.48C261.476 107.48 262.47 107.807 263.163 108.46C263.856 109.113 264.203 110.087 264.203 111.38V118H263.243ZM259.483 118.08C258.71 118.08 258.036 117.96 257.463 117.72C256.903 117.467 256.47 117.113 256.163 116.66C255.87 116.207 255.723 115.687 255.723 115.1C255.723 114.567 255.843 114.087 256.083 113.66C256.336 113.22 256.75 112.867 257.323 112.6C257.896 112.32 258.663 112.18 259.623 112.18H263.463V112.96H259.643C258.563 112.96 257.803 113.16 257.363 113.56C256.936 113.96 256.723 114.46 256.723 115.06C256.723 115.727 256.976 116.26 257.483 116.66C257.99 117.06 258.703 117.26 259.623 117.26C260.503 117.26 261.243 117.06 261.843 116.66C262.456 116.26 262.91 115.68 263.203 114.92L263.483 115.6C263.203 116.36 262.723 116.967 262.043 117.42C261.376 117.86 260.523 118.08 259.483 118.08ZM273.563 118.08C272.643 118.08 271.81 117.867 271.063 117.44C270.33 117.013 269.743 116.4 269.303 115.6C268.876 114.8 268.663 113.86 268.663 112.78C268.663 111.673 268.876 110.727 269.303 109.94C269.743 109.153 270.33 108.547 271.063 108.12C271.81 107.693 272.643 107.48 273.563 107.48C274.55 107.48 275.43 107.707 276.203 108.16C276.99 108.6 277.603 109.22 278.043 110.02C278.496 110.807 278.723 111.727 278.723 112.78C278.723 113.82 278.496 114.74 278.043 115.54C277.603 116.34 276.99 116.967 276.203 117.42C275.43 117.86 274.55 118.08 273.563 118.08ZM268.323 118V103.16H269.323V110.94L269.123 112.76L269.283 114.58V118H268.323ZM273.503 117.18C274.303 117.18 275.023 117 275.663 116.64C276.303 116.267 276.803 115.747 277.163 115.08C277.536 114.413 277.723 113.647 277.723 112.78C277.723 111.9 277.536 111.133 277.163 110.48C276.803 109.813 276.303 109.3 275.663 108.94C275.023 108.567 274.303 108.38 273.503 108.38C272.703 108.38 271.983 108.567 271.343 108.94C270.716 109.3 270.216 109.813 269.843 110.48C269.483 111.133 269.303 111.9 269.303 112.78C269.303 113.647 269.483 114.413 269.843 115.08C270.216 115.747 270.716 116.267 271.343 116.64C271.983 117 272.703 117.18 273.503 117.18ZM281.819 118V107.56H282.819V118H281.819ZM282.319 105.02C282.093 105.02 281.899 104.94 281.739 104.78C281.579 104.62 281.499 104.433 281.499 104.22C281.499 103.993 281.579 103.8 281.739 103.64C281.899 103.48 282.093 103.4 282.319 103.4C282.559 103.4 282.753 103.48 282.899 103.64C283.059 103.787 283.139 103.973 283.139 104.2C283.139 104.427 283.059 104.62 282.899 104.78C282.753 104.94 282.559 105.02 282.319 105.02ZM287.034 118V103.16H288.034V118H287.034ZM292.249 118V107.56H293.249V118H292.249ZM292.749 105.02C292.522 105.02 292.329 104.94 292.169 104.78C292.009 104.62 291.929 104.433 291.929 104.22C291.929 103.993 292.009 103.8 292.169 103.64C292.329 103.48 292.522 103.4 292.749 103.4C292.989 103.4 293.182 103.48 293.329 103.64C293.489 103.787 293.569 103.973 293.569 104.2C293.569 104.427 293.489 104.62 293.329 104.78C293.182 104.94 292.989 105.02 292.749 105.02ZM300.504 118.08C299.584 118.08 298.877 117.827 298.384 117.32C297.904 116.813 297.664 116.12 297.664 115.24V105.28H298.664V115.14C298.664 115.807 298.83 116.32 299.164 116.68C299.497 117.04 299.977 117.22 300.604 117.22C301.257 117.22 301.797 117.027 302.224 116.64L302.644 117.34C302.377 117.593 302.05 117.78 301.664 117.9C301.29 118.02 300.904 118.08 300.504 118.08ZM295.744 108.42V107.56H301.984V108.42H295.744ZM304.997 121.96C304.517 121.96 304.064 121.88 303.637 121.72C303.224 121.56 302.871 121.327 302.577 121.02L303.077 120.26C303.344 120.54 303.631 120.747 303.937 120.88C304.257 121.013 304.617 121.08 305.017 121.08C305.497 121.08 305.917 120.947 306.277 120.68C306.651 120.413 306.997 119.927 307.317 119.22L308.037 117.62L308.177 117.44L312.597 107.56H313.617L308.257 119.42C307.977 120.06 307.671 120.56 307.337 120.92C307.017 121.293 306.664 121.56 306.277 121.72C305.891 121.88 305.464 121.96 304.997 121.96ZM308.017 118.26L303.177 107.56H304.237L308.637 117.38L308.017 118.26ZM71.7 142V139.62L71.66 139.26V135.34C71.66 134.367 71.3933 133.627 70.86 133.12C70.34 132.613 69.5733 132.36 68.56 132.36C67.84 132.36 67.1667 132.487 66.54 132.74C65.9267 132.98 65.4 133.293 64.96 133.68L64.46 132.96C64.98 132.493 65.6067 132.133 66.34 131.88C67.0733 131.613 67.84 131.48 68.64 131.48C69.9333 131.48 70.9267 131.807 71.62 132.46C72.3133 133.113 72.66 134.087 72.66 135.38V142H71.7ZM67.94 142.08C67.1667 142.08 66.4933 141.96 65.92 141.72C65.36 141.467 64.9267 141.113 64.62 140.66C64.3267 140.207 64.18 139.687 64.18 139.1C64.18 138.567 64.3 138.087 64.54 137.66C64.7933 137.22 65.2067 136.867 65.78 136.6C66.3533 136.32 67.12 136.18 68.08 136.18H71.92V136.96H68.1C67.02 136.96 66.26 137.16 65.82 137.56C65.3933 137.96 65.18 138.46 65.18 139.06C65.18 139.727 65.4333 140.26 65.94 140.66C66.4467 141.06 67.16 141.26 68.08 141.26C68.96 141.26 69.7 141.06 70.3 140.66C70.9133 140.26 71.3667 139.68 71.66 138.92L71.94 139.6C71.66 140.36 71.18 140.967 70.5 141.42C69.8333 141.86 68.98 142.08 67.94 142.08ZM81.8802 131.48C82.7335 131.48 83.4735 131.647 84.1002 131.98C84.7402 132.3 85.2335 132.793 85.5802 133.46C85.9402 134.113 86.1202 134.927 86.1202 135.9V142H85.1202V135.98C85.1202 134.807 84.8202 133.913 84.2202 133.3C83.6335 132.687 82.8068 132.38 81.7402 132.38C80.9268 132.38 80.2202 132.547 79.6202 132.88C79.0202 133.213 78.5602 133.68 78.2402 134.28C77.9335 134.88 77.7802 135.6 77.7802 136.44V142H76.7802V131.56H77.7402V134.46L77.6002 134.14C77.9202 133.313 78.4468 132.667 79.1802 132.2C79.9135 131.72 80.8135 131.48 81.8802 131.48ZM94.2572 142.08C93.2839 142.08 92.4039 141.86 91.6172 141.42C90.8439 140.967 90.2305 140.34 89.7772 139.54C89.3239 138.74 89.0972 137.82 89.0972 136.78C89.0972 135.727 89.3239 134.807 89.7772 134.02C90.2305 133.22 90.8439 132.6 91.6172 132.16C92.4039 131.707 93.2839 131.48 94.2572 131.48C95.1772 131.48 96.0039 131.693 96.7372 132.12C97.4839 132.547 98.0705 133.153 98.4972 133.94C98.9372 134.727 99.1572 135.673 99.1572 136.78C99.1572 137.86 98.9439 138.8 98.5172 139.6C98.0905 140.4 97.5039 141.013 96.7572 141.44C96.0239 141.867 95.1905 142.08 94.2572 142.08ZM94.3172 141.18C95.1172 141.18 95.8305 141 96.4572 140.64C97.0972 140.267 97.5972 139.747 97.9572 139.08C98.3305 138.413 98.5172 137.647 98.5172 136.78C98.5172 135.9 98.3305 135.133 97.9572 134.48C97.5972 133.813 97.0972 133.3 96.4572 132.94C95.8305 132.567 95.1172 132.38 94.3172 132.38C93.5172 132.38 92.7972 132.567 92.1572 132.94C91.5305 133.3 91.0305 133.813 90.6572 134.48C90.2972 135.133 90.1172 135.9 90.1172 136.78C90.1172 137.647 90.2972 138.413 90.6572 139.08C91.0305 139.747 91.5305 140.267 92.1572 140.64C92.7972 141 93.5172 141.18 94.3172 141.18ZM98.5372 142V138.58L98.7172 136.76L98.5172 134.94V127.16H99.5172V142H98.5372ZM113.11 142.08C112.057 142.08 111.123 141.853 110.31 141.4C109.51 140.947 108.877 140.32 108.41 139.52C107.957 138.72 107.73 137.807 107.73 136.78C107.73 135.74 107.943 134.827 108.37 134.04C108.81 133.24 109.41 132.613 110.17 132.16C110.93 131.707 111.783 131.48 112.73 131.48C113.677 131.48 114.523 131.7 115.27 132.14C116.03 132.58 116.623 133.2 117.05 134C117.49 134.787 117.71 135.7 117.71 136.74C117.71 136.78 117.703 136.827 117.69 136.88C117.69 136.92 117.69 136.967 117.69 137.02H108.47V136.24H117.15L116.75 136.62C116.763 135.807 116.59 135.08 116.23 134.44C115.883 133.787 115.41 133.28 114.81 132.92C114.21 132.547 113.517 132.36 112.73 132.36C111.957 132.36 111.263 132.547 110.65 132.92C110.05 133.28 109.577 133.787 109.23 134.44C108.883 135.08 108.71 135.813 108.71 136.64V136.82C108.71 137.673 108.897 138.433 109.27 139.1C109.657 139.753 110.183 140.267 110.85 140.64C111.517 141 112.277 141.18 113.13 141.18C113.797 141.18 114.417 141.06 114.99 140.82C115.577 140.58 116.07 140.213 116.47 139.72L117.05 140.38C116.597 140.94 116.023 141.367 115.33 141.66C114.65 141.94 113.91 142.08 113.11 142.08ZM121.004 142V129.96C121.004 129.093 121.25 128.4 121.744 127.88C122.25 127.347 122.97 127.08 123.904 127.08C124.29 127.08 124.67 127.14 125.044 127.26C125.417 127.367 125.724 127.533 125.964 127.76L125.564 128.52C125.364 128.32 125.124 128.173 124.844 128.08C124.564 127.987 124.264 127.94 123.944 127.94C123.304 127.94 122.817 128.12 122.484 128.48C122.15 128.827 121.984 129.347 121.984 130.04V131.8L122.004 132.28V142H121.004ZM119.084 132.42V131.56H125.324V132.42H119.084ZM127.625 142V129.96C127.625 129.093 127.871 128.4 128.365 127.88C128.871 127.347 129.591 127.08 130.525 127.08C130.911 127.08 131.291 127.14 131.665 127.26C132.038 127.367 132.345 127.533 132.585 127.76L132.185 128.52C131.985 128.32 131.745 128.173 131.465 128.08C131.185 127.987 130.885 127.94 130.565 127.94C129.925 127.94 129.438 128.12 129.105 128.48C128.771 128.827 128.605 129.347 128.605 130.04V131.8L128.625 132.28V142H127.625ZM125.705 132.42V131.56H131.945V132.42H125.705ZM138.051 142.08C136.998 142.08 136.065 141.853 135.251 141.4C134.451 140.947 133.818 140.32 133.351 139.52C132.898 138.72 132.671 137.807 132.671 136.78C132.671 135.74 132.885 134.827 133.311 134.04C133.751 133.24 134.351 132.613 135.111 132.16C135.871 131.707 136.725 131.48 137.671 131.48C138.618 131.48 139.465 131.7 140.211 132.14C140.971 132.58 141.565 133.2 141.991 134C142.431 134.787 142.651 135.7 142.651 136.74C142.651 136.78 142.645 136.827 142.631 136.88C142.631 136.92 142.631 136.967 142.631 137.02H133.411V136.24H142.091L141.691 136.62C141.705 135.807 141.531 135.08 141.171 134.44C140.825 133.787 140.351 133.28 139.751 132.92C139.151 132.547 138.458 132.36 137.671 132.36C136.898 132.36 136.205 132.547 135.591 132.92C134.991 133.28 134.518 133.787 134.171 134.44C133.825 135.08 133.651 135.813 133.651 136.64V136.82C133.651 137.673 133.838 138.433 134.211 139.1C134.598 139.753 135.125 140.267 135.791 140.64C136.458 141 137.218 141.18 138.071 141.18C138.738 141.18 139.358 141.06 139.931 140.82C140.518 140.58 141.011 140.213 141.411 139.72L141.991 140.38C141.538 140.94 140.965 141.367 140.271 141.66C139.591 141.94 138.851 142.08 138.051 142.08ZM149.885 142.08C148.872 142.08 147.965 141.853 147.165 141.4C146.378 140.947 145.752 140.32 145.285 139.52C144.832 138.72 144.605 137.807 144.605 136.78C144.605 135.74 144.832 134.82 145.285 134.02C145.752 133.22 146.378 132.6 147.165 132.16C147.965 131.707 148.872 131.48 149.885 131.48C150.725 131.48 151.485 131.64 152.165 131.96C152.858 132.28 153.418 132.76 153.845 133.4L153.105 133.94C152.732 133.407 152.265 133.013 151.705 132.76C151.145 132.507 150.538 132.38 149.885 132.38C149.072 132.38 148.338 132.567 147.685 132.94C147.045 133.3 146.538 133.813 146.165 134.48C145.805 135.133 145.625 135.9 145.625 136.78C145.625 137.66 145.805 138.433 146.165 139.1C146.538 139.753 147.045 140.267 147.685 140.64C148.338 141 149.072 141.18 149.885 141.18C150.538 141.18 151.145 141.053 151.705 140.8C152.265 140.547 152.732 140.153 153.105 139.62L153.845 140.16C153.418 140.8 152.858 141.28 152.165 141.6C151.485 141.92 150.725 142.08 149.885 142.08ZM159.996 142.08C159.076 142.08 158.369 141.827 157.876 141.32C157.396 140.813 157.156 140.12 157.156 139.24V129.28H158.156V139.14C158.156 139.807 158.323 140.32 158.656 140.68C158.989 141.04 159.469 141.22 160.096 141.22C160.749 141.22 161.289 141.027 161.716 140.64L162.136 141.34C161.869 141.593 161.543 141.78 161.156 141.9C160.783 142.02 160.396 142.08 159.996 142.08ZM155.236 132.42V131.56H161.476V132.42H155.236ZM164.925 142V131.56H165.925V142H164.925ZM165.425 129.02C165.198 129.02 165.005 128.94 164.845 128.78C164.685 128.62 164.605 128.433 164.605 128.22C164.605 127.993 164.685 127.8 164.845 127.64C165.005 127.48 165.198 127.4 165.425 127.4C165.665 127.4 165.858 127.48 166.005 127.64C166.165 127.787 166.245 127.973 166.245 128.2C166.245 128.427 166.165 128.62 166.005 128.78C165.858 128.94 165.665 129.02 165.425 129.02ZM172.78 142L168.08 131.56H169.14L173.54 141.44H173.06L177.5 131.56H178.52L173.8 142H172.78ZM184.653 142.08C183.6 142.08 182.666 141.853 181.853 141.4C181.053 140.947 180.42 140.32 179.953 139.52C179.5 138.72 179.273 137.807 179.273 136.78C179.273 135.74 179.486 134.827 179.913 134.04C180.353 133.24 180.953 132.613 181.713 132.16C182.473 131.707 183.326 131.48 184.273 131.48C185.22 131.48 186.066 131.7 186.813 132.14C187.573 132.58 188.166 133.2 188.593 134C189.033 134.787 189.253 135.7 189.253 136.74C189.253 136.78 189.246 136.827 189.233 136.88C189.233 136.92 189.233 136.967 189.233 137.02H180.013V136.24H188.693L188.293 136.62C188.306 135.807 188.133 135.08 187.773 134.44C187.426 133.787 186.953 133.28 186.353 132.92C185.753 132.547 185.06 132.36 184.273 132.36C183.5 132.36 182.806 132.547 182.193 132.92C181.593 133.28 181.12 133.787 180.773 134.44C180.426 135.08 180.253 135.813 180.253 136.64V136.82C180.253 137.673 180.44 138.433 180.813 139.1C181.2 139.753 181.726 140.267 182.393 140.64C183.06 141 183.82 141.18 184.673 141.18C185.34 141.18 185.96 141.06 186.533 140.82C187.12 140.58 187.613 140.213 188.013 139.72L188.593 140.38C188.14 140.94 187.566 141.367 186.873 141.66C186.193 141.94 185.453 142.08 184.653 142.08ZM69.26 166.08C68.2467 166.08 67.34 165.853 66.54 165.4C65.7533 164.947 65.1267 164.32 64.66 163.52C64.2067 162.72 63.98 161.807 63.98 160.78C63.98 159.74 64.2067 158.82 64.66 158.02C65.1267 157.22 65.7533 156.6 66.54 156.16C67.34 155.707 68.2467 155.48 69.26 155.48C70.1 155.48 70.86 155.64 71.54 155.96C72.2333 156.28 72.7933 156.76 73.22 157.4L72.48 157.94C72.1067 157.407 71.64 157.013 71.08 156.76C70.52 156.507 69.9133 156.38 69.26 156.38C68.4467 156.38 67.7133 156.567 67.06 156.94C66.42 157.3 65.9133 157.813 65.54 158.48C65.18 159.133 65 159.9 65 160.78C65 161.66 65.18 162.433 65.54 163.1C65.9133 163.753 66.42 164.267 67.06 164.64C67.7133 165 68.4467 165.18 69.26 165.18C69.9133 165.18 70.52 165.053 71.08 164.8C71.64 164.547 72.1067 164.153 72.48 163.62L73.22 164.16C72.7933 164.8 72.2333 165.28 71.54 165.6C70.86 165.92 70.1 166.08 69.26 166.08ZM80.118 166.08C79.118 166.08 78.2246 165.853 77.438 165.4C76.6646 164.947 76.0446 164.32 75.578 163.52C75.1246 162.72 74.898 161.807 74.898 160.78C74.898 159.74 75.1246 158.827 75.578 158.04C76.0446 157.24 76.6646 156.613 77.438 156.16C78.2246 155.707 79.118 155.48 80.118 155.48C81.118 155.48 82.0113 155.707 82.798 156.16C83.5846 156.613 84.2046 157.24 84.658 158.04C85.1113 158.827 85.338 159.74 85.338 160.78C85.338 161.807 85.1113 162.72 84.658 163.52C84.2046 164.32 83.5846 164.947 82.798 165.4C82.0113 165.853 81.118 166.08 80.118 166.08ZM80.118 165.18C80.918 165.18 81.638 165 82.278 164.64C82.918 164.267 83.418 163.747 83.778 163.08C84.138 162.413 84.318 161.647 84.318 160.78C84.318 159.9 84.138 159.133 83.778 158.48C83.418 157.813 82.918 157.3 82.278 156.94C81.638 156.567 80.918 156.38 80.118 156.38C79.318 156.38 78.598 156.567 77.958 156.94C77.3313 157.3 76.8313 157.813 76.458 158.48C76.098 159.133 75.918 159.9 75.918 160.78C75.918 161.647 76.098 162.413 76.458 163.08C76.8313 163.747 77.3313 164.267 77.958 164.64C78.598 165 79.318 165.18 80.118 165.18ZM101.44 155.48C102.28 155.48 103.007 155.647 103.62 155.98C104.247 156.3 104.734 156.793 105.08 157.46C105.427 158.113 105.6 158.927 105.6 159.9V166H104.6V159.98C104.6 158.807 104.314 157.913 103.74 157.3C103.167 156.687 102.367 156.38 101.34 156.38C100.554 156.38 99.8736 156.547 99.3003 156.88C98.727 157.213 98.287 157.68 97.9803 158.28C97.6736 158.88 97.5203 159.6 97.5203 160.44V166H96.5203V159.98C96.5203 158.807 96.2336 157.913 95.6603 157.3C95.087 156.687 94.287 156.38 93.2603 156.38C92.4736 156.38 91.7936 156.547 91.2203 156.88C90.647 157.213 90.207 157.68 89.9003 158.28C89.5936 158.88 89.4403 159.6 89.4403 160.44V166H88.4403V155.56H89.4003V158.44L89.2603 158.12C89.567 157.307 90.0803 156.667 90.8003 156.2C91.5203 155.72 92.387 155.48 93.4003 155.48C94.4403 155.48 95.3136 155.747 96.0203 156.28C96.7403 156.8 97.1936 157.58 97.3803 158.62L97.0403 158.48C97.3203 157.587 97.847 156.867 98.6203 156.32C99.3936 155.76 100.334 155.48 101.44 155.48ZM122.729 155.48C123.569 155.48 124.296 155.647 124.909 155.98C125.536 156.3 126.023 156.793 126.369 157.46C126.716 158.113 126.889 158.927 126.889 159.9V166H125.889V159.98C125.889 158.807 125.603 157.913 125.029 157.3C124.456 156.687 123.656 156.38 122.629 156.38C121.843 156.38 121.163 156.547 120.589 156.88C120.016 157.213 119.576 157.68 119.269 158.28C118.963 158.88 118.809 159.6 118.809 160.44V166H117.809V159.98C117.809 158.807 117.523 157.913 116.949 157.3C116.376 156.687 115.576 156.38 114.549 156.38C113.763 156.38 113.083 156.547 112.509 156.88C111.936 157.213 111.496 157.68 111.189 158.28C110.883 158.88 110.729 159.6 110.729 160.44V166H109.729V155.56H110.689V158.44L110.549 158.12C110.856 157.307 111.369 156.667 112.089 156.2C112.809 155.72 113.676 155.48 114.689 155.48C115.729 155.48 116.603 155.747 117.309 156.28C118.029 156.8 118.483 157.58 118.669 158.62L118.329 158.48C118.609 157.587 119.136 156.867 119.909 156.32C120.683 155.76 121.623 155.48 122.729 155.48ZM135.258 166.08C134.365 166.08 133.592 165.92 132.938 165.6C132.285 165.267 131.778 164.773 131.418 164.12C131.072 163.453 130.898 162.633 130.898 161.66V155.56H131.898V161.58C131.898 162.753 132.198 163.647 132.798 164.26C133.398 164.873 134.245 165.18 135.338 165.18C136.125 165.18 136.805 165.013 137.378 164.68C137.952 164.347 138.392 163.88 138.698 163.28C139.005 162.667 139.158 161.947 139.158 161.12V155.56H140.158V166H139.198V163.1L139.338 163.44C139.032 164.253 138.518 164.9 137.798 165.38C137.092 165.847 136.245 166.08 135.258 166.08ZM149.497 155.48C150.351 155.48 151.091 155.647 151.717 155.98C152.357 156.3 152.851 156.793 153.197 157.46C153.557 158.113 153.737 158.927 153.737 159.9V166H152.737V159.98C152.737 158.807 152.437 157.913 151.837 157.3C151.251 156.687 150.424 156.38 149.357 156.38C148.544 156.38 147.837 156.547 147.237 156.88C146.637 157.213 146.177 157.68 145.857 158.28C145.551 158.88 145.397 159.6 145.397 160.44V166H144.397V155.56H145.357V158.46L145.217 158.14C145.537 157.313 146.064 156.667 146.797 156.2C147.531 155.72 148.431 155.48 149.497 155.48ZM157.854 166V155.56H158.854V166H157.854ZM158.354 153.02C158.128 153.02 157.934 152.94 157.774 152.78C157.614 152.62 157.534 152.433 157.534 152.22C157.534 151.993 157.614 151.8 157.774 151.64C157.934 151.48 158.128 151.4 158.354 151.4C158.594 151.4 158.788 151.48 158.934 151.64C159.094 151.787 159.174 151.973 159.174 152.2C159.174 152.427 159.094 152.62 158.934 152.78C158.788 152.94 158.594 153.02 158.354 153.02ZM167.209 166.08C166.196 166.08 165.289 165.853 164.489 165.4C163.703 164.947 163.076 164.32 162.609 163.52C162.156 162.72 161.929 161.807 161.929 160.78C161.929 159.74 162.156 158.82 162.609 158.02C163.076 157.22 163.703 156.6 164.489 156.16C165.289 155.707 166.196 155.48 167.209 155.48C168.049 155.48 168.809 155.64 169.489 155.96C170.183 156.28 170.743 156.76 171.169 157.4L170.429 157.94C170.056 157.407 169.589 157.013 169.029 156.76C168.469 156.507 167.863 156.38 167.209 156.38C166.396 156.38 165.663 156.567 165.009 156.94C164.369 157.3 163.863 157.813 163.489 158.48C163.129 159.133 162.949 159.9 162.949 160.78C162.949 161.66 163.129 162.433 163.489 163.1C163.863 163.753 164.369 164.267 165.009 164.64C165.663 165 166.396 165.18 167.209 165.18C167.863 165.18 168.469 165.053 169.029 164.8C169.589 164.547 170.056 164.153 170.429 163.62L171.169 164.16C170.743 164.8 170.183 165.28 169.489 165.6C168.809 165.92 168.049 166.08 167.209 166.08ZM180.743 166V163.62L180.703 163.26V159.34C180.703 158.367 180.436 157.627 179.903 157.12C179.383 156.613 178.616 156.36 177.603 156.36C176.883 156.36 176.21 156.487 175.583 156.74C174.97 156.98 174.443 157.293 174.003 157.68L173.503 156.96C174.023 156.493 174.65 156.133 175.383 155.88C176.116 155.613 176.883 155.48 177.683 155.48C178.976 155.48 179.97 155.807 180.663 156.46C181.356 157.113 181.703 158.087 181.703 159.38V166H180.743ZM176.983 166.08C176.21 166.08 175.536 165.96 174.963 165.72C174.403 165.467 173.97 165.113 173.663 164.66C173.37 164.207 173.223 163.687 173.223 163.1C173.223 162.567 173.343 162.087 173.583 161.66C173.836 161.22 174.25 160.867 174.823 160.6C175.396 160.32 176.163 160.18 177.123 160.18H180.963V160.96H177.143C176.063 160.96 175.303 161.16 174.863 161.56C174.436 161.96 174.223 162.46 174.223 163.06C174.223 163.727 174.476 164.26 174.983 164.66C175.49 165.06 176.203 165.26 177.123 165.26C178.003 165.26 178.743 165.06 179.343 164.66C179.956 164.26 180.41 163.68 180.703 162.92L180.983 163.6C180.703 164.36 180.223 164.967 179.543 165.42C178.876 165.86 178.023 166.08 176.983 166.08ZM188.863 166.08C187.943 166.08 187.236 165.827 186.743 165.32C186.263 164.813 186.023 164.12 186.023 163.24V153.28H187.023V163.14C187.023 163.807 187.19 164.32 187.523 164.68C187.856 165.04 188.336 165.22 188.963 165.22C189.616 165.22 190.156 165.027 190.583 164.64L191.003 165.34C190.736 165.593 190.41 165.78 190.023 165.9C189.65 166.02 189.263 166.08 188.863 166.08ZM184.103 156.42V155.56H190.343V156.42H184.103ZM193.792 166V155.56H194.792V166H193.792ZM194.292 153.02C194.065 153.02 193.872 152.94 193.712 152.78C193.552 152.62 193.472 152.433 193.472 152.22C193.472 151.993 193.552 151.8 193.712 151.64C193.872 151.48 194.065 151.4 194.292 151.4C194.532 151.4 194.725 151.48 194.872 151.64C195.032 151.787 195.112 151.973 195.112 152.2C195.112 152.427 195.032 152.62 194.872 152.78C194.725 152.94 194.532 153.02 194.292 153.02ZM203.087 166.08C202.087 166.08 201.193 165.853 200.407 165.4C199.633 164.947 199.013 164.32 198.547 163.52C198.093 162.72 197.867 161.807 197.867 160.78C197.867 159.74 198.093 158.827 198.547 158.04C199.013 157.24 199.633 156.613 200.407 156.16C201.193 155.707 202.087 155.48 203.087 155.48C204.087 155.48 204.98 155.707 205.767 156.16C206.553 156.613 207.173 157.24 207.627 158.04C208.08 158.827 208.307 159.74 208.307 160.78C208.307 161.807 208.08 162.72 207.627 163.52C207.173 164.32 206.553 164.947 205.767 165.4C204.98 165.853 204.087 166.08 203.087 166.08ZM203.087 165.18C203.887 165.18 204.607 165 205.247 164.64C205.887 164.267 206.387 163.747 206.747 163.08C207.107 162.413 207.287 161.647 207.287 160.78C207.287 159.9 207.107 159.133 206.747 158.48C206.387 157.813 205.887 157.3 205.247 156.94C204.607 156.567 203.887 156.38 203.087 156.38C202.287 156.38 201.567 156.567 200.927 156.94C200.3 157.3 199.8 157.813 199.427 158.48C199.067 159.133 198.887 159.9 198.887 160.78C198.887 161.647 199.067 162.413 199.427 163.08C199.8 163.747 200.3 164.267 200.927 164.64C201.567 165 202.287 165.18 203.087 165.18ZM216.509 155.48C217.362 155.48 218.102 155.647 218.729 155.98C219.369 156.3 219.862 156.793 220.209 157.46C220.569 158.113 220.749 158.927 220.749 159.9V166H219.749V159.98C219.749 158.807 219.449 157.913 218.849 157.3C218.262 156.687 217.436 156.38 216.369 156.38C215.556 156.38 214.849 156.547 214.249 156.88C213.649 157.213 213.189 157.68 212.869 158.28C212.562 158.88 212.409 159.6 212.409 160.44V166H211.409V155.56H212.369V158.46L212.229 158.14C212.549 157.313 213.076 156.667 213.809 156.2C214.542 155.72 215.442 155.48 216.509 155.48ZM223.906 168.86L224.686 165.48L224.786 166.06C224.533 166.06 224.319 165.98 224.146 165.82C223.986 165.66 223.906 165.46 223.906 165.22C223.906 164.98 223.986 164.78 224.146 164.62C224.319 164.46 224.519 164.38 224.746 164.38C224.999 164.38 225.199 164.467 225.346 164.64C225.506 164.8 225.586 164.993 225.586 165.22C225.586 165.313 225.579 165.407 225.566 165.5C225.553 165.593 225.533 165.687 225.506 165.78C225.479 165.873 225.446 165.993 225.406 166.14L224.626 168.86H223.906ZM238.027 166.08C237.053 166.08 236.173 165.86 235.387 165.42C234.613 164.967 234 164.34 233.547 163.54C233.093 162.74 232.867 161.82 232.867 160.78C232.867 159.727 233.093 158.807 233.547 158.02C234 157.22 234.613 156.6 235.387 156.16C236.173 155.707 237.053 155.48 238.027 155.48C238.947 155.48 239.773 155.693 240.507 156.12C241.253 156.547 241.84 157.153 242.267 157.94C242.707 158.727 242.927 159.673 242.927 160.78C242.927 161.86 242.713 162.8 242.287 163.6C241.86 164.4 241.273 165.013 240.527 165.44C239.793 165.867 238.96 166.08 238.027 166.08ZM238.087 165.18C238.887 165.18 239.6 165 240.227 164.64C240.867 164.267 241.367 163.747 241.727 163.08C242.1 162.413 242.287 161.647 242.287 160.78C242.287 159.9 242.1 159.133 241.727 158.48C241.367 157.813 240.867 157.3 240.227 156.94C239.6 156.567 238.887 156.38 238.087 156.38C237.287 156.38 236.567 156.567 235.927 156.94C235.3 157.3 234.8 157.813 234.427 158.48C234.067 159.133 233.887 159.9 233.887 160.78C233.887 161.647 234.067 162.413 234.427 163.08C234.8 163.747 235.3 164.267 235.927 164.64C236.567 165 237.287 165.18 238.087 165.18ZM242.307 166V162.58L242.487 160.76L242.287 158.94V151.16H243.287V166H242.307ZM247.503 166V155.56H248.463V158.42L248.363 158.1C248.656 157.26 249.149 156.613 249.843 156.16C250.536 155.707 251.403 155.48 252.443 155.48V156.46C252.403 156.46 252.363 156.46 252.323 156.46C252.283 156.447 252.243 156.44 252.203 156.44C251.043 156.44 250.136 156.807 249.483 157.54C248.829 158.26 248.503 159.267 248.503 160.56V166H247.503ZM255.198 166V155.56H256.198V166H255.198ZM255.698 153.02C255.471 153.02 255.278 152.94 255.118 152.78C254.958 152.62 254.878 152.433 254.878 152.22C254.878 151.993 254.958 151.8 255.118 151.64C255.278 151.48 255.471 151.4 255.698 151.4C255.938 151.4 256.131 151.48 256.278 151.64C256.438 151.787 256.518 151.973 256.518 152.2C256.518 152.427 256.438 152.62 256.278 152.78C256.131 152.94 255.938 153.02 255.698 153.02ZM263.053 166L258.353 155.56H259.413L263.813 165.44H263.333L267.773 155.56H268.793L264.073 166H263.053ZM270.979 166V155.56H271.979V166H270.979ZM271.479 153.02C271.253 153.02 271.059 152.94 270.899 152.78C270.739 152.62 270.659 152.433 270.659 152.22C270.659 151.993 270.739 151.8 270.899 151.64C271.059 151.48 271.253 151.4 271.479 151.4C271.719 151.4 271.913 151.48 272.059 151.64C272.219 151.787 272.299 151.973 272.299 152.2C272.299 152.427 272.219 152.62 272.059 152.78C271.913 152.94 271.719 153.02 271.479 153.02ZM281.294 155.48C282.148 155.48 282.888 155.647 283.514 155.98C284.154 156.3 284.648 156.793 284.994 157.46C285.354 158.113 285.534 158.927 285.534 159.9V166H284.534V159.98C284.534 158.807 284.234 157.913 283.634 157.3C283.048 156.687 282.221 156.38 281.154 156.38C280.341 156.38 279.634 156.547 279.034 156.88C278.434 157.213 277.974 157.68 277.654 158.28C277.348 158.88 277.194 159.6 277.194 160.44V166H276.194V155.56H277.154V158.46L277.014 158.14C277.334 157.313 277.861 156.667 278.594 156.2C279.328 155.72 280.228 155.48 281.294 155.48ZM293.991 169.96C293.045 169.96 292.145 169.813 291.291 169.52C290.438 169.227 289.745 168.82 289.211 168.3L289.751 167.54C290.271 168.02 290.891 168.393 291.611 168.66C292.345 168.927 293.131 169.06 293.971 169.06C295.371 169.06 296.398 168.733 297.051 168.08C297.718 167.427 298.051 166.4 298.051 165V162.1L298.251 160.54L298.091 158.98V155.56H299.051V164.88C299.051 166.627 298.625 167.907 297.771 168.72C296.931 169.547 295.671 169.96 293.991 169.96ZM293.711 165.62C292.725 165.62 291.838 165.407 291.051 164.98C290.278 164.54 289.658 163.94 289.191 163.18C288.738 162.407 288.511 161.527 288.511 160.54C288.511 159.54 288.738 158.66 289.191 157.9C289.658 157.14 290.278 156.547 291.051 156.12C291.838 155.693 292.725 155.48 293.711 155.48C294.658 155.48 295.505 155.687 296.251 156.1C297.011 156.5 297.611 157.08 298.051 157.84C298.491 158.587 298.711 159.487 298.711 160.54C298.711 161.58 298.491 162.48 298.051 163.24C297.611 164 297.011 164.587 296.251 165C295.505 165.413 294.658 165.62 293.711 165.62ZM293.791 164.72C294.631 164.72 295.371 164.547 296.011 164.2C296.651 163.84 297.151 163.347 297.511 162.72C297.885 162.08 298.071 161.353 298.071 160.54C298.071 159.713 297.885 158.987 297.511 158.36C297.151 157.733 296.651 157.247 296.011 156.9C295.371 156.553 294.631 156.38 293.791 156.38C292.978 156.38 292.245 156.553 291.591 156.9C290.951 157.247 290.445 157.733 290.071 158.36C289.711 158.987 289.531 159.713 289.531 160.54C289.531 161.353 289.711 162.08 290.071 162.72C290.445 163.347 290.951 163.84 291.591 164.2C292.245 164.547 292.978 164.72 293.791 164.72ZM70.36 190.08C69.44 190.08 68.6067 189.867 67.86 189.44C67.1267 189.013 66.54 188.407 66.1 187.62C65.6733 186.82 65.46 185.873 65.46 184.78C65.46 183.687 65.6733 182.747 66.1 181.96C66.54 181.16 67.1267 180.547 67.86 180.12C68.6067 179.693 69.44 179.48 70.36 179.48C71.3467 179.48 72.2267 179.707 73 180.16C73.7867 180.6 74.4 181.22 74.84 182.02C75.2933 182.82 75.52 183.74 75.52 184.78C75.52 185.82 75.2933 186.74 74.84 187.54C74.4 188.34 73.7867 188.967 73 189.42C72.2267 189.86 71.3467 190.08 70.36 190.08ZM65.12 193.88V179.56H66.08V182.98L65.92 184.8L66.12 186.62V193.88H65.12ZM70.3 189.18C71.1 189.18 71.82 189 72.46 188.64C73.1 188.267 73.6 187.747 73.96 187.08C74.3333 186.413 74.52 185.647 74.52 184.78C74.52 183.9 74.3333 183.133 73.96 182.48C73.6 181.813 73.1 181.3 72.46 180.94C71.82 180.567 71.1 180.38 70.3 180.38C69.5 180.38 68.78 180.567 68.14 180.94C67.5133 181.3 67.0133 181.813 66.64 182.48C66.28 183.133 66.1 183.9 66.1 184.78C66.1 185.647 66.28 186.413 66.64 187.08C67.0133 187.747 67.5133 188.267 68.14 188.64C68.78 189 69.5 189.18 70.3 189.18ZM82.6961 190.08C81.6961 190.08 80.8028 189.853 80.0161 189.4C79.2428 188.947 78.6228 188.32 78.1561 187.52C77.7028 186.72 77.4761 185.807 77.4761 184.78C77.4761 183.74 77.7028 182.827 78.1561 182.04C78.6228 181.24 79.2428 180.613 80.0161 180.16C80.8028 179.707 81.6961 179.48 82.6961 179.48C83.6961 179.48 84.5894 179.707 85.3761 180.16C86.1628 180.613 86.7828 181.24 87.2361 182.04C87.6894 182.827 87.9161 183.74 87.9161 184.78C87.9161 185.807 87.6894 186.72 87.2361 187.52C86.7828 188.32 86.1628 188.947 85.3761 189.4C84.5894 189.853 83.6961 190.08 82.6961 190.08ZM82.6961 189.18C83.4961 189.18 84.2161 189 84.8561 188.64C85.4961 188.267 85.9961 187.747 86.3561 187.08C86.7161 186.413 86.8961 185.647 86.8961 184.78C86.8961 183.9 86.7161 183.133 86.3561 182.48C85.9961 181.813 85.4961 181.3 84.8561 180.94C84.2161 180.567 83.4961 180.38 82.6961 180.38C81.8961 180.38 81.1761 180.567 80.5361 180.94C79.9094 181.3 79.4094 181.813 79.0361 182.48C78.6761 183.133 78.4961 183.9 78.4961 184.78C78.4961 185.647 78.6761 186.413 79.0361 187.08C79.4094 187.747 79.9094 188.267 80.5361 188.64C81.1761 189 81.8961 189.18 82.6961 189.18ZM93.6584 190.08C92.7918 190.08 91.9784 189.953 91.2184 189.7C90.4718 189.447 89.8918 189.127 89.4784 188.74L89.9384 187.94C90.3384 188.287 90.8718 188.587 91.5384 188.84C92.2051 189.08 92.9251 189.2 93.6984 189.2C94.7918 189.2 95.5784 189.02 96.0584 188.66C96.5384 188.3 96.7784 187.827 96.7784 187.24C96.7784 186.813 96.6518 186.48 96.3984 186.24C96.1584 185.987 95.8318 185.793 95.4184 185.66C95.0051 185.527 94.5518 185.42 94.0584 185.34C93.5651 185.247 93.0718 185.147 92.5784 185.04C92.0851 184.933 91.6318 184.78 91.2184 184.58C90.8051 184.38 90.4718 184.107 90.2184 183.76C89.9784 183.4 89.8584 182.927 89.8584 182.34C89.8584 181.807 90.0051 181.327 90.2984 180.9C90.5918 180.473 91.0318 180.133 91.6184 179.88C92.2051 179.613 92.9384 179.48 93.8184 179.48C94.4718 179.48 95.1251 179.573 95.7784 179.76C96.4451 179.947 96.9851 180.193 97.3984 180.5L96.9384 181.3C96.4984 180.967 96.0051 180.727 95.4584 180.58C94.9118 180.433 94.3584 180.36 93.7984 180.36C92.7851 180.36 92.0384 180.547 91.5584 180.92C91.0918 181.293 90.8584 181.76 90.8584 182.32C90.8584 182.76 90.9784 183.113 91.2184 183.38C91.4718 183.633 91.8051 183.833 92.2184 183.98C92.6318 184.113 93.0851 184.227 93.5784 184.32C94.0718 184.4 94.5651 184.493 95.0584 184.6C95.5518 184.707 96.0051 184.86 96.4184 185.06C96.8318 185.247 97.1584 185.513 97.3984 185.86C97.6518 186.193 97.7784 186.647 97.7784 187.22C97.7784 187.793 97.6184 188.293 97.2984 188.72C96.9918 189.147 96.5318 189.48 95.9184 189.72C95.3051 189.96 94.5518 190.08 93.6584 190.08ZM100.569 190V179.56H101.569V190H100.569ZM101.069 177.02C100.843 177.02 100.649 176.94 100.489 176.78C100.329 176.62 100.249 176.433 100.249 176.22C100.249 175.993 100.329 175.8 100.489 175.64C100.649 175.48 100.843 175.4 101.069 175.4C101.309 175.4 101.503 175.48 101.649 175.64C101.809 175.787 101.889 175.973 101.889 176.2C101.889 176.427 101.809 176.62 101.649 176.78C101.503 176.94 101.309 177.02 101.069 177.02ZM108.824 190.08C107.904 190.08 107.197 189.827 106.704 189.32C106.224 188.813 105.984 188.12 105.984 187.24V177.28H106.984V187.14C106.984 187.807 107.151 188.32 107.484 188.68C107.817 189.04 108.297 189.22 108.924 189.22C109.577 189.22 110.117 189.027 110.544 188.64L110.964 189.34C110.697 189.593 110.371 189.78 109.984 189.9C109.611 190.02 109.224 190.08 108.824 190.08ZM104.064 180.42V179.56H110.304V180.42H104.064ZM113.753 190V179.56H114.753V190H113.753ZM114.253 177.02C114.026 177.02 113.833 176.94 113.673 176.78C113.513 176.62 113.433 176.433 113.433 176.22C113.433 175.993 113.513 175.8 113.673 175.64C113.833 175.48 114.026 175.4 114.253 175.4C114.493 175.4 114.686 175.48 114.833 175.64C114.993 175.787 115.073 175.973 115.073 176.2C115.073 176.427 114.993 176.62 114.833 176.78C114.686 176.94 114.493 177.02 114.253 177.02ZM121.608 190L116.908 179.56H117.968L122.368 189.44H121.888L126.328 179.56H127.348L122.628 190H121.608ZM133.481 190.08C132.428 190.08 131.494 189.853 130.681 189.4C129.881 188.947 129.248 188.32 128.781 187.52C128.328 186.72 128.101 185.807 128.101 184.78C128.101 183.74 128.314 182.827 128.741 182.04C129.181 181.24 129.781 180.613 130.541 180.16C131.301 179.707 132.154 179.48 133.101 179.48C134.048 179.48 134.894 179.7 135.641 180.14C136.401 180.58 136.994 181.2 137.421 182C137.861 182.787 138.081 183.7 138.081 184.74C138.081 184.78 138.074 184.827 138.061 184.88C138.061 184.92 138.061 184.967 138.061 185.02H128.841V184.24H137.521L137.121 184.62C137.134 183.807 136.961 183.08 136.601 182.44C136.254 181.787 135.781 181.28 135.181 180.92C134.581 180.547 133.888 180.36 133.101 180.36C132.328 180.36 131.634 180.547 131.021 180.92C130.421 181.28 129.948 181.787 129.601 182.44C129.254 183.08 129.081 183.813 129.081 184.64V184.82C129.081 185.673 129.268 186.433 129.641 187.1C130.028 187.753 130.554 188.267 131.221 188.64C131.888 189 132.648 189.18 133.501 189.18C134.168 189.18 134.788 189.06 135.361 188.82C135.948 188.58 136.441 188.213 136.841 187.72L137.421 188.38C136.968 188.94 136.394 189.367 135.701 189.66C135.021 189.94 134.281 190.08 133.481 190.08ZM148.951 190.08C148.085 190.08 147.271 189.953 146.511 189.7C145.765 189.447 145.185 189.127 144.771 188.74L145.231 187.94C145.631 188.287 146.165 188.587 146.831 188.84C147.498 189.08 148.218 189.2 148.991 189.2C150.085 189.2 150.871 189.02 151.351 188.66C151.831 188.3 152.071 187.827 152.071 187.24C152.071 186.813 151.945 186.48 151.691 186.24C151.451 185.987 151.125 185.793 150.711 185.66C150.298 185.527 149.845 185.42 149.351 185.34C148.858 185.247 148.365 185.147 147.871 185.04C147.378 184.933 146.925 184.78 146.511 184.58C146.098 184.38 145.765 184.107 145.511 183.76C145.271 183.4 145.151 182.927 145.151 182.34C145.151 181.807 145.298 181.327 145.591 180.9C145.885 180.473 146.325 180.133 146.911 179.88C147.498 179.613 148.231 179.48 149.111 179.48C149.765 179.48 150.418 179.573 151.071 179.76C151.738 179.947 152.278 180.193 152.691 180.5L152.231 181.3C151.791 180.967 151.298 180.727 150.751 180.58C150.205 180.433 149.651 180.36 149.091 180.36C148.078 180.36 147.331 180.547 146.851 180.92C146.385 181.293 146.151 181.76 146.151 182.32C146.151 182.76 146.271 183.113 146.511 183.38C146.765 183.633 147.098 183.833 147.511 183.98C147.925 184.113 148.378 184.227 148.871 184.32C149.365 184.4 149.858 184.493 150.351 184.6C150.845 184.707 151.298 184.86 151.711 185.06C152.125 185.247 152.451 185.513 152.691 185.86C152.945 186.193 153.071 186.647 153.071 187.22C153.071 187.793 152.911 188.293 152.591 188.72C152.285 189.147 151.825 189.48 151.211 189.72C150.598 189.96 149.845 190.08 148.951 190.08ZM158.902 190.08C157.982 190.08 157.276 189.827 156.782 189.32C156.302 188.813 156.062 188.12 156.062 187.24V177.28H157.062V187.14C157.062 187.807 157.229 188.32 157.562 188.68C157.896 189.04 158.376 189.22 159.002 189.22C159.656 189.22 160.196 189.027 160.622 188.64L161.042 189.34C160.776 189.593 160.449 189.78 160.062 189.9C159.689 190.02 159.302 190.08 158.902 190.08ZM154.142 180.42V179.56H160.382V180.42H154.142ZM170.411 190V187.62L170.371 187.26V183.34C170.371 182.367 170.104 181.627 169.571 181.12C169.051 180.613 168.284 180.36 167.271 180.36C166.551 180.36 165.878 180.487 165.251 180.74C164.638 180.98 164.111 181.293 163.671 181.68L163.171 180.96C163.691 180.493 164.318 180.133 165.051 179.88C165.784 179.613 166.551 179.48 167.351 179.48C168.644 179.48 169.638 179.807 170.331 180.46C171.024 181.113 171.371 182.087 171.371 183.38V190H170.411ZM166.651 190.08C165.878 190.08 165.204 189.96 164.631 189.72C164.071 189.467 163.638 189.113 163.331 188.66C163.038 188.207 162.891 187.687 162.891 187.1C162.891 186.567 163.011 186.087 163.251 185.66C163.504 185.22 163.918 184.867 164.491 184.6C165.064 184.32 165.831 184.18 166.791 184.18H170.631V184.96H166.811C165.731 184.96 164.971 185.16 164.531 185.56C164.104 185.96 163.891 186.46 163.891 187.06C163.891 187.727 164.144 188.26 164.651 188.66C165.158 189.06 165.871 189.26 166.791 189.26C167.671 189.26 168.411 189.06 169.011 188.66C169.624 188.26 170.078 187.68 170.371 186.92L170.651 187.6C170.371 188.36 169.891 188.967 169.211 189.42C168.544 189.86 167.691 190.08 166.651 190.08ZM176.251 187.12L176.271 185.86L183.171 179.56H184.451L179.871 183.86L179.271 184.36L176.251 187.12ZM175.491 190V175.16H176.491V190H175.491ZM183.651 190L179.091 184.28L179.771 183.54L184.891 190H183.651ZM191.079 190.08C190.025 190.08 189.092 189.853 188.279 189.4C187.479 188.947 186.845 188.32 186.379 187.52C185.925 186.72 185.699 185.807 185.699 184.78C185.699 183.74 185.912 182.827 186.339 182.04C186.779 181.24 187.379 180.613 188.139 180.16C188.899 179.707 189.752 179.48 190.699 179.48C191.645 179.48 192.492 179.7 193.239 180.14C193.999 180.58 194.592 181.2 195.019 182C195.459 182.787 195.679 183.7 195.679 184.74C195.679 184.78 195.672 184.827 195.659 184.88C195.659 184.92 195.659 184.967 195.659 185.02H186.439V184.24H195.119L194.719 184.62C194.732 183.807 194.559 183.08 194.199 182.44C193.852 181.787 193.379 181.28 192.779 180.92C192.179 180.547 191.485 180.36 190.699 180.36C189.925 180.36 189.232 180.547 188.619 180.92C188.019 181.28 187.545 181.787 187.199 182.44C186.852 183.08 186.679 183.813 186.679 184.64V184.82C186.679 185.673 186.865 186.433 187.239 187.1C187.625 187.753 188.152 188.267 188.819 188.64C189.485 189 190.245 189.18 191.099 189.18C191.765 189.18 192.385 189.06 192.959 188.82C193.545 188.58 194.039 188.213 194.439 187.72L195.019 188.38C194.565 188.94 193.992 189.367 193.299 189.66C192.619 189.94 191.879 190.08 191.079 190.08ZM203.872 179.48C204.726 179.48 205.466 179.647 206.092 179.98C206.732 180.3 207.226 180.793 207.572 181.46C207.932 182.113 208.112 182.927 208.112 183.9V190H207.112V183.98C207.112 182.807 206.812 181.913 206.212 181.3C205.626 180.687 204.799 180.38 203.732 180.38C202.919 180.38 202.212 180.547 201.612 180.88C201.012 181.213 200.552 181.68 200.232 182.28C199.926 182.88 199.772 183.6 199.772 184.44V190H198.772V175.16H199.772V182.46L199.592 182.14C199.912 181.313 200.439 180.667 201.172 180.2C201.906 179.72 202.806 179.48 203.872 179.48ZM216.309 190.08C215.309 190.08 214.416 189.853 213.629 189.4C212.856 188.947 212.236 188.32 211.769 187.52C211.316 186.72 211.089 185.807 211.089 184.78C211.089 183.74 211.316 182.827 211.769 182.04C212.236 181.24 212.856 180.613 213.629 180.16C214.416 179.707 215.309 179.48 216.309 179.48C217.309 179.48 218.203 179.707 218.989 180.16C219.776 180.613 220.396 181.24 220.849 182.04C221.303 182.827 221.529 183.74 221.529 184.78C221.529 185.807 221.303 186.72 220.849 187.52C220.396 188.32 219.776 188.947 218.989 189.4C218.203 189.853 217.309 190.08 216.309 190.08ZM216.309 189.18C217.109 189.18 217.829 189 218.469 188.64C219.109 188.267 219.609 187.747 219.969 187.08C220.329 186.413 220.509 185.647 220.509 184.78C220.509 183.9 220.329 183.133 219.969 182.48C219.609 181.813 219.109 181.3 218.469 180.94C217.829 180.567 217.109 180.38 216.309 180.38C215.509 180.38 214.789 180.567 214.149 180.94C213.523 181.3 213.023 181.813 212.649 182.48C212.289 183.133 212.109 183.9 212.109 184.78C212.109 185.647 212.289 186.413 212.649 187.08C213.023 187.747 213.523 188.267 214.149 188.64C214.789 189 215.509 189.18 216.309 189.18ZM224.632 190V175.16H225.632V190H224.632ZM233.867 190.08C232.893 190.08 232.013 189.86 231.227 189.42C230.453 188.967 229.84 188.34 229.387 187.54C228.933 186.74 228.707 185.82 228.707 184.78C228.707 183.727 228.933 182.807 229.387 182.02C229.84 181.22 230.453 180.6 231.227 180.16C232.013 179.707 232.893 179.48 233.867 179.48C234.787 179.48 235.613 179.693 236.347 180.12C237.093 180.547 237.68 181.153 238.107 181.94C238.547 182.727 238.767 183.673 238.767 184.78C238.767 185.86 238.553 186.8 238.127 187.6C237.7 188.4 237.113 189.013 236.367 189.44C235.633 189.867 234.8 190.08 233.867 190.08ZM233.927 189.18C234.727 189.18 235.44 189 236.067 188.64C236.707 188.267 237.207 187.747 237.567 187.08C237.94 186.413 238.127 185.647 238.127 184.78C238.127 183.9 237.94 183.133 237.567 182.48C237.207 181.813 236.707 181.3 236.067 180.94C235.44 180.567 234.727 180.38 233.927 180.38C233.127 180.38 232.407 180.567 231.767 180.94C231.14 181.3 230.64 181.813 230.267 182.48C229.907 183.133 229.727 183.9 229.727 184.78C229.727 185.647 229.907 186.413 230.267 187.08C230.64 187.747 231.14 188.267 231.767 188.64C232.407 189 233.127 189.18 233.927 189.18ZM238.147 190V186.58L238.327 184.76L238.127 182.94V175.16H239.127V190H238.147ZM247.583 190.08C246.529 190.08 245.596 189.853 244.783 189.4C243.983 188.947 243.349 188.32 242.883 187.52C242.429 186.72 242.203 185.807 242.203 184.78C242.203 183.74 242.416 182.827 242.843 182.04C243.283 181.24 243.883 180.613 244.643 180.16C245.403 179.707 246.256 179.48 247.203 179.48C248.149 179.48 248.996 179.7 249.743 180.14C250.503 180.58 251.096 181.2 251.523 182C251.963 182.787 252.183 183.7 252.183 184.74C252.183 184.78 252.176 184.827 252.163 184.88C252.163 184.92 252.163 184.967 252.163 185.02H242.943V184.24H251.623L251.223 184.62C251.236 183.807 251.063 183.08 250.703 182.44C250.356 181.787 249.883 181.28 249.283 180.92C248.683 180.547 247.989 180.36 247.203 180.36C246.429 180.36 245.736 180.547 245.123 180.92C244.523 181.28 244.049 181.787 243.703 182.44C243.356 183.08 243.183 183.813 243.183 184.64V184.82C243.183 185.673 243.369 186.433 243.743 187.1C244.129 187.753 244.656 188.267 245.323 188.64C245.989 189 246.749 189.18 247.603 189.18C248.269 189.18 248.889 189.06 249.463 188.82C250.049 188.58 250.543 188.213 250.943 187.72L251.523 188.38C251.069 188.94 250.496 189.367 249.803 189.66C249.123 189.94 248.383 190.08 247.583 190.08ZM255.276 190V179.56H256.236V182.42L256.136 182.1C256.43 181.26 256.923 180.613 257.616 180.16C258.31 179.707 259.176 179.48 260.216 179.48V180.46C260.176 180.46 260.136 180.46 260.096 180.46C260.056 180.447 260.016 180.44 259.976 180.44C258.816 180.44 257.91 180.807 257.256 181.54C256.603 182.26 256.276 183.267 256.276 184.56V190H255.276ZM268.284 190V179.56H269.284V190H268.284ZM268.784 177.02C268.557 177.02 268.364 176.94 268.204 176.78C268.044 176.62 267.964 176.433 267.964 176.22C267.964 175.993 268.044 175.8 268.204 175.64C268.364 175.48 268.557 175.4 268.784 175.4C269.024 175.4 269.217 175.48 269.364 175.64C269.524 175.787 269.604 175.973 269.604 176.2C269.604 176.427 269.524 176.62 269.364 176.78C269.217 176.94 269.024 177.02 268.784 177.02ZM286.499 179.48C287.339 179.48 288.066 179.647 288.679 179.98C289.306 180.3 289.792 180.793 290.139 181.46C290.486 182.113 290.659 182.927 290.659 183.9V190H289.659V183.98C289.659 182.807 289.372 181.913 288.799 181.3C288.226 180.687 287.426 180.38 286.399 180.38C285.612 180.38 284.932 180.547 284.359 180.88C283.786 181.213 283.346 181.68 283.039 182.28C282.732 182.88 282.579 183.6 282.579 184.44V190H281.579V183.98C281.579 182.807 281.292 181.913 280.719 181.3C280.146 180.687 279.346 180.38 278.319 180.38C277.532 180.38 276.852 180.547 276.279 180.88C275.706 181.213 275.266 181.68 274.959 182.28C274.652 182.88 274.499 183.6 274.499 184.44V190H273.499V179.56H274.459V182.44L274.319 182.12C274.626 181.307 275.139 180.667 275.859 180.2C276.579 179.72 277.446 179.48 278.459 179.48C279.499 179.48 280.372 179.747 281.079 180.28C281.799 180.8 282.252 181.58 282.439 182.62L282.099 182.48C282.379 181.587 282.906 180.867 283.679 180.32C284.452 179.76 285.392 179.48 286.499 179.48ZM300.028 190.08C299.108 190.08 298.275 189.867 297.528 189.44C296.795 189.013 296.208 188.407 295.768 187.62C295.341 186.82 295.128 185.873 295.128 184.78C295.128 183.687 295.341 182.747 295.768 181.96C296.208 181.16 296.795 180.547 297.528 180.12C298.275 179.693 299.108 179.48 300.028 179.48C301.015 179.48 301.895 179.707 302.668 180.16C303.455 180.6 304.068 181.22 304.508 182.02C304.961 182.82 305.188 183.74 305.188 184.78C305.188 185.82 304.961 186.74 304.508 187.54C304.068 188.34 303.455 188.967 302.668 189.42C301.895 189.86 301.015 190.08 300.028 190.08ZM294.788 193.88V179.56H295.748V182.98L295.588 184.8L295.788 186.62V193.88H294.788ZM299.968 189.18C300.768 189.18 301.488 189 302.128 188.64C302.768 188.267 303.268 187.747 303.628 187.08C304.001 186.413 304.188 185.647 304.188 184.78C304.188 183.9 304.001 183.133 303.628 182.48C303.268 181.813 302.768 181.3 302.128 180.94C301.488 180.567 300.768 180.38 299.968 180.38C299.168 180.38 298.448 180.567 297.808 180.94C297.181 181.3 296.681 181.813 296.308 182.48C295.948 183.133 295.768 183.9 295.768 184.78C295.768 185.647 295.948 186.413 296.308 187.08C296.681 187.747 297.181 188.267 297.808 188.64C298.448 189 299.168 189.18 299.968 189.18ZM314.825 190V187.62L314.785 187.26V183.34C314.785 182.367 314.518 181.627 313.985 181.12C313.465 180.613 312.698 180.36 311.685 180.36C310.965 180.36 310.292 180.487 309.665 180.74C309.052 180.98 308.525 181.293 308.085 181.68L307.585 180.96C308.105 180.493 308.732 180.133 309.465 179.88C310.198 179.613 310.965 179.48 311.765 179.48C313.058 179.48 314.052 179.807 314.745 180.46C315.438 181.113 315.785 182.087 315.785 183.38V190H314.825ZM311.065 190.08C310.292 190.08 309.618 189.96 309.045 189.72C308.485 189.467 308.052 189.113 307.745 188.66C307.452 188.207 307.305 187.687 307.305 187.1C307.305 186.567 307.425 186.087 307.665 185.66C307.918 185.22 308.332 184.867 308.905 184.6C309.478 184.32 310.245 184.18 311.205 184.18H315.045V184.96H311.225C310.145 184.96 309.385 185.16 308.945 185.56C308.518 185.96 308.305 186.46 308.305 187.06C308.305 187.727 308.558 188.26 309.065 188.66C309.572 189.06 310.285 189.26 311.205 189.26C312.085 189.26 312.825 189.06 313.425 188.66C314.038 188.26 314.492 187.68 314.785 186.92L315.065 187.6C314.785 188.36 314.305 188.967 313.625 189.42C312.958 189.86 312.105 190.08 311.065 190.08ZM324.045 190.08C323.032 190.08 322.125 189.853 321.325 189.4C320.538 188.947 319.912 188.32 319.445 187.52C318.992 186.72 318.765 185.807 318.765 184.78C318.765 183.74 318.992 182.82 319.445 182.02C319.912 181.22 320.538 180.6 321.325 180.16C322.125 179.707 323.032 179.48 324.045 179.48C324.885 179.48 325.645 179.64 326.325 179.96C327.018 180.28 327.578 180.76 328.005 181.4L327.265 181.94C326.892 181.407 326.425 181.013 325.865 180.76C325.305 180.507 324.698 180.38 324.045 180.38C323.232 180.38 322.498 180.567 321.845 180.94C321.205 181.3 320.698 181.813 320.325 182.48C319.965 183.133 319.785 183.9 319.785 184.78C319.785 185.66 319.965 186.433 320.325 187.1C320.698 187.753 321.205 188.267 321.845 188.64C322.498 189 323.232 189.18 324.045 189.18C324.698 189.18 325.305 189.053 325.865 188.8C326.425 188.547 326.892 188.153 327.265 187.62L328.005 188.16C327.578 188.8 327.018 189.28 326.325 189.6C325.645 189.92 324.885 190.08 324.045 190.08ZM334.156 190.08C333.236 190.08 332.529 189.827 332.036 189.32C331.556 188.813 331.316 188.12 331.316 187.24V177.28H332.316V187.14C332.316 187.807 332.483 188.32 332.816 188.68C333.149 189.04 333.629 189.22 334.256 189.22C334.909 189.22 335.449 189.027 335.876 188.64L336.296 189.34C336.029 189.593 335.703 189.78 335.316 189.9C334.943 190.02 334.556 190.08 334.156 190.08ZM329.396 180.42V179.56H335.636V180.42H329.396ZM339.16 190.08C338.933 190.08 338.733 190 338.56 189.84C338.4 189.667 338.32 189.46 338.32 189.22C338.32 188.98 338.4 188.78 338.56 188.62C338.733 188.46 338.933 188.38 339.16 188.38C339.387 188.38 339.58 188.46 339.74 188.62C339.913 188.78 340 188.98 340 189.22C340 189.46 339.913 189.667 339.74 189.84C339.58 190 339.387 190.08 339.16 190.08Z" fill="#706E66"/>
</svg>
