<svg xmlns="http://www.w3.org/2000/svg" width="316" height="293" viewBox="0 0 316 293" fill="none"><path d="M3 10C3 4.47715 7.47715 0 13 0H306C311.523 0 316 4.47715 316 10V283C316 288.523 311.523 293 306 293H13C7.47715 293 3 288.523 3 283V10Z" fill="white"></path><g filter="url(#filter0_dddd_1658_2772)"><mask id="path-2-inside-1_1658_2772" fill="white"><path fill-rule="evenodd" clip-rule="evenodd" d="M68 157.777C68 156.12 69.3431 154.777 71 154.777L107.807 154.777C109.486 154.777 110.839 153.399 110.807 151.72L109.274 71.057C109.242 69.3781 110.595 68 112.274 68L191.649 68C224.427 68 251 93.571 251 126.124C251 158.678 216.184 184.249 183.405 184.249H143.6C141.92 184.249 140.568 185.628 140.601 187.308L141.304 222.941C141.338 224.62 139.985 226 138.305 226H113.1C111.42 226 110.068 224.62 110.101 222.941L110.804 187.308C110.838 185.628 109.485 184.249 107.805 184.249H71C69.3431 184.249 68 182.906 68 181.249V157.777ZM184.865 154.943L145 154.943C143.343 154.943 142 153.6 142 151.943V99C142 97.3431 143.343 96 145 96H191.459C208.304 96 217.838 108.743 217.838 125.472C217.838 142.2 201.71 154.943 184.865 154.943Z"></path></mask><path fill-rule="evenodd" clip-rule="evenodd" d="M68 157.777C68 156.12 69.3431 154.777 71 154.777L107.807 154.777C109.486 154.777 110.839 153.399 110.807 151.72L109.274 71.057C109.242 69.3781 110.595 68 112.274 68L191.649 68C224.427 68 251 93.571 251 126.124C251 158.678 216.184 184.249 183.405 184.249H143.6C141.92 184.249 140.568 185.628 140.601 187.308L141.304 222.941C141.338 224.62 139.985 226 138.305 226H113.1C111.42 226 110.068 224.62 110.101 222.941L110.804 187.308C110.838 185.628 109.485 184.249 107.805 184.249H71C69.3431 184.249 68 182.906 68 181.249V157.777ZM184.865 154.943L145 154.943C143.343 154.943 142 153.6 142 151.943V99C142 97.3431 143.343 96 145 96H191.459C208.304 96 217.838 108.743 217.838 125.472C217.838 142.2 201.71 154.943 184.865 154.943Z" fill="#333333"></path><path d="M142.355 97.3342H191.649V94.3342H142.355V97.3342ZM143.689 96C143.689 96.7369 143.092 97.3342 142.355 97.3342V94.3342C141.435 94.3342 140.689 95.08 140.689 96H143.689ZM191.649 68V71V68ZM184.865 154.943V151.943V154.943ZM110.101 222.941L107.102 222.882L110.101 222.941ZM141.304 222.941L138.305 223L141.304 222.941ZM109.274 71.057L106.275 71.114L109.274 71.057ZM112.274 68V65V68ZM71 154.777L71 151.777L71 154.777ZM145 154.943V157.943V154.943ZM107.807 154.777V151.777V154.777ZM110.807 151.72L113.806 151.663L110.807 151.72ZM107.807 151.777L71 151.777L71 157.777L107.807 157.777V151.777ZM106.275 71.114L107.807 151.777L113.806 151.663L112.274 71L106.275 71.114ZM191.649 65L112.274 65V71L191.649 71V65ZM254 126.124C254 91.8403 226.01 65 191.649 65V71C222.845 71 248 95.3017 248 126.124H254ZM183.405 187.249C200.533 187.249 218.093 180.587 231.393 169.717C244.698 158.843 254 143.524 254 126.124H248C248 141.278 239.894 155.021 227.596 165.071C215.294 175.125 199.057 181.249 183.405 181.249V187.249ZM143.6 187.249H183.405V181.249H143.6V187.249ZM144.304 222.882L143.6 187.249L137.602 187.367L138.305 223L144.304 222.882ZM113.1 229H138.305V223H113.1V229ZM107.805 187.249L107.102 222.882L113.1 223L113.804 187.367L107.805 187.249ZM71 187.249H107.805V181.249H71V187.249ZM65 157.777V181.249H71V157.777H65ZM145 157.943L184.865 157.943V151.943L145 151.943V157.943ZM139 99V151.943H145V99H139ZM191.459 93H145V99H191.459V93ZM220.838 125.472C220.838 116.561 218.298 108.452 213.25 102.519C208.154 96.5281 200.703 93 191.459 93V99C199.061 99 204.798 101.843 208.68 106.406C212.61 111.026 214.838 117.653 214.838 125.472H220.838ZM184.865 157.943C202.925 157.943 220.838 144.267 220.838 125.472H214.838C214.838 140.134 200.494 151.943 184.865 151.943V157.943ZM71 181.249H71H65C65 184.562 67.6863 187.249 71 187.249V181.249ZM113.804 187.367C113.87 184.008 111.165 181.249 107.805 181.249V187.249L113.804 187.367ZM113.1 223L107.102 222.882C107.035 226.241 109.74 229 113.1 229V223ZM138.305 223V229C141.665 229 144.37 226.241 144.304 222.882L138.305 223ZM145 99V93C141.686 93 139 95.6863 139 99H145ZM112.274 71L112.274 71V65C108.915 65 106.211 67.7563 106.275 71.114L112.274 71ZM143.6 181.249C140.24 181.249 137.535 184.008 137.602 187.367L143.6 187.249V181.249ZM71 151.777C67.6863 151.777 65 154.464 65 157.777H71H71L71 151.777ZM145 151.943H139C139 155.257 141.686 157.943 145 157.943V151.943ZM107.807 157.777C111.166 157.777 113.87 155.021 113.806 151.663L107.807 151.777V157.777Z" fill="url(#paint0_linear_1658_2772)" mask="url(#path-2-inside-1_1658_2772)"></path></g><defs><filter id="filter0_dddd_1658_2772" x="0" y="40" width="255" height="198" filterUnits="userSpaceOnUse" color-interpolation-filters="sRGB"><feGaussianBlur stdDeviation="3.5"></feGaussianBlur><feGaussianBlur stdDeviation="6"></feGaussianBlur><feGaussianBlur stdDeviation="8"></feGaussianBlur><feGaussianBlur stdDeviation="10"></feGaussianBlur></filter><linearGradient id="paint0_linear_1658_2772" x1="159.5" y1="68" x2="159.5" y2="226" gradientUnits="userSpaceOnUse"><stop stop-color="#4766EA"></stop><stop offset="0.265625" stop-color="#00AAE1"></stop><stop offset="0.536458" stop-color="#64C397"></stop><stop offset="0.75" stop-color="#DBE373"></stop><stop offset="1" stop-color="#EF8E41"></stop></linearGradient></defs></svg>