<svg xmlns="http://www.w3.org/2000/svg" width="313" height="293" viewBox="0 0 313 293" fill="none"><rect width="313" height="293" rx="10" fill="#333333"></rect><mask id="path-2-inside-1_1658_2771" fill="white"><path fill-rule="evenodd" clip-rule="evenodd" d="M65 157.777C65 156.12 66.3431 154.777 68 154.777L104.807 154.777C106.486 154.777 107.839 153.399 107.807 151.72L106.274 71.057C106.242 69.3781 107.595 68 109.274 68L188.649 68C221.427 68 248 93.571 248 126.124C248 158.678 213.184 184.249 180.405 184.249H140.6C138.92 184.249 137.568 185.628 137.601 187.308L138.304 222.941C138.338 224.62 136.985 226 135.305 226H110.1C108.42 226 107.068 224.62 107.101 222.941L107.804 187.308C107.838 185.628 106.485 184.249 104.805 184.249H68C66.3431 184.249 65 182.906 65 181.249V157.777ZM181.865 154.943L142 154.943C140.343 154.943 139 153.6 139 151.943V99C139 97.3431 140.343 96 142 96H188.459C205.304 96 214.838 108.743 214.838 125.472C214.838 142.2 198.71 154.943 181.865 154.943Z"></path></mask><g filter="url(#filter0_i_1658_2771)"><path fill-rule="evenodd" clip-rule="evenodd" d="M65 157.777C65 156.12 66.3431 154.777 68 154.777L104.807 154.777C106.486 154.777 107.839 153.399 107.807 151.72L106.274 71.057C106.242 69.3781 107.595 68 109.274 68L188.649 68C221.427 68 248 93.571 248 126.124C248 158.678 213.184 184.249 180.405 184.249H140.6C138.92 184.249 137.568 185.628 137.601 187.308L138.304 222.941C138.338 224.62 136.985 226 135.305 226H110.1C108.42 226 107.068 224.62 107.101 222.941L107.804 187.308C107.838 185.628 106.485 184.249 104.805 184.249H68C66.3431 184.249 65 182.906 65 181.249V157.777ZM181.865 154.943L142 154.943C140.343 154.943 139 153.6 139 151.943V99C139 97.3431 140.343 96 142 96H188.459C205.304 96 214.838 108.743 214.838 125.472C214.838 142.2 198.71 154.943 181.865 154.943Z" fill="white"></path></g><path d="M139.355 97.3342H188.649V94.3342H139.355V97.3342ZM140.689 96C140.689 96.7369 140.092 97.3342 139.355 97.3342V94.3342C138.435 94.3342 137.689 95.08 137.689 96H140.689ZM188.649 68V71V68ZM181.865 154.943V151.943V154.943ZM107.101 222.941L104.102 222.882L107.101 222.941ZM138.304 222.941L135.305 223L138.304 222.941ZM106.274 71.057L103.275 71.114L106.274 71.057ZM109.274 68V65V68ZM68 154.777L68 151.777L68 154.777ZM142 154.943V157.943V154.943ZM104.807 154.777V151.777V154.777ZM107.807 151.72L110.806 151.663L107.807 151.72ZM104.807 151.777L68 151.777L68 157.777L104.807 157.777V151.777ZM103.275 71.114L104.807 151.777L110.806 151.663L109.274 71L103.275 71.114ZM188.649 65L109.274 65V71L188.649 71V65ZM251 126.124C251 91.8403 223.01 65 188.649 65V71C219.845 71 245 95.3017 245 126.124H251ZM180.405 187.249C197.533 187.249 215.093 180.587 228.393 169.717C241.698 158.843 251 143.524 251 126.124H245C245 141.278 236.894 155.021 224.596 165.071C212.294 175.125 196.057 181.249 180.405 181.249V187.249ZM140.6 187.249H180.405V181.249H140.6V187.249ZM141.304 222.882L140.6 187.249L134.602 187.367L135.305 223L141.304 222.882ZM110.1 229H135.305V223H110.1V229ZM104.805 187.249L104.102 222.882L110.1 223L110.804 187.367L104.805 187.249ZM68 187.249H104.805V181.249H68V187.249ZM62 157.777V181.249H68V157.777H62ZM142 157.943L181.865 157.943V151.943L142 151.943V157.943ZM136 99V151.943H142V99H136ZM188.459 93H142V99H188.459V93ZM217.838 125.472C217.838 116.561 215.298 108.452 210.25 102.519C205.154 96.5281 197.703 93 188.459 93V99C196.061 99 201.798 101.843 205.68 106.406C209.61 111.026 211.838 117.653 211.838 125.472H217.838ZM181.865 157.943C199.925 157.943 217.838 144.267 217.838 125.472H211.838C211.838 140.134 197.494 151.943 181.865 151.943V157.943ZM68 181.249H68H62C62 184.562 64.6863 187.249 68 187.249V181.249ZM110.804 187.367C110.87 184.008 108.165 181.249 104.805 181.249V187.249L110.804 187.367ZM110.1 223L104.102 222.882C104.035 226.241 106.74 229 110.1 229V223ZM135.305 223V229C138.665 229 141.37 226.241 141.304 222.882L135.305 223ZM142 99V93C138.686 93 136 95.6863 136 99H142ZM109.274 71L109.274 71V65C105.915 65 103.211 67.7563 103.275 71.114L109.274 71ZM140.6 181.249C137.24 181.249 134.535 184.008 134.602 187.367L140.6 187.249V181.249ZM68 151.777C64.6863 151.777 62 154.464 62 157.777H68H68L68 151.777ZM142 151.943H136C136 155.257 138.686 157.943 142 157.943V151.943ZM104.807 157.777C108.166 157.777 110.87 155.021 110.806 151.663L104.807 151.777V157.777Z" fill="url(#paint0_linear_1658_2771)" mask="url(#path-2-inside-1_1658_2771)"></path><defs><filter id="filter0_i_1658_2771" x="65" y="68" width="183" height="162" filterUnits="userSpaceOnUse" color-interpolation-filters="sRGB"><feGaussianBlur stdDeviation="2"></feGaussianBlur></filter><linearGradient id="paint0_linear_1658_2771" x1="156.5" y1="68" x2="156.5" y2="226" gradientUnits="userSpaceOnUse"><stop stop-color="#4766EA"></stop><stop offset="0.265625" stop-color="#00AAE1"></stop><stop offset="0.536458" stop-color="#64C397"></stop><stop offset="0.75" stop-color="#DBE373"></stop><stop offset="1" stop-color="#EF8E41"></stop></linearGradient></defs></svg>