<svg width="424" height="80" viewBox="0 0 424 80" fill="none" xmlns="http://www.w3.org/2000/svg">
<rect x="0.5" y="0.5" width="423" height="79" rx="9.5" stroke="#00AAE1"/>
<rect x="346" y="5" width="70" height="70" rx="10" fill="#00AAE1"/>
<path d="M21.92 38.04H29.12V39.74H21.92V38.04ZM22.1 44.26H30.26V46H20.1V32H29.98V33.74H22.1V44.26ZM38.8784 35.3C39.7451 35.3 40.5051 35.4667 41.1584 35.8C41.8251 36.1333 42.3451 36.64 42.7184 37.32C43.0918 38 43.2784 38.86 43.2784 39.9V46H41.3584V40.12C41.3584 39.0933 41.1051 38.32 40.5984 37.8C40.1051 37.28 39.4051 37.02 38.4984 37.02C37.8184 37.02 37.2251 37.1533 36.7184 37.42C36.2118 37.6867 35.8184 38.08 35.5384 38.6C35.2718 39.12 35.1384 39.7667 35.1384 40.54V46H33.2184V35.4H35.0584V38.26L34.7584 37.5C35.1051 36.8067 35.6384 36.2667 36.3584 35.88C37.0784 35.4933 37.9184 35.3 38.8784 35.3ZM50.4717 46.12C49.4051 46.12 48.5784 45.8333 47.9917 45.26C47.4051 44.6867 47.1117 43.8667 47.1117 42.8V33.08H49.0317V42.72C49.0317 43.2933 49.1717 43.7333 49.4517 44.04C49.7451 44.3467 50.1584 44.5 50.6917 44.5C51.2917 44.5 51.7917 44.3333 52.1917 44L52.7917 45.38C52.4984 45.6333 52.1451 45.82 51.7317 45.94C51.3317 46.06 50.9117 46.12 50.4717 46.12ZM45.3117 36.98V35.4H52.0717V36.98H45.3117ZM59.4814 46.12C58.3481 46.12 57.3481 45.8867 56.4814 45.42C55.6281 44.9533 54.9614 44.3133 54.4814 43.5C54.0147 42.6867 53.7814 41.7533 53.7814 40.7C53.7814 39.6467 54.0081 38.7133 54.4614 37.9C54.9281 37.0867 55.5614 36.4533 56.3614 36C57.1747 35.5333 58.0881 35.3 59.1014 35.3C60.1281 35.3 61.0347 35.5267 61.8214 35.98C62.6081 36.4333 63.2214 37.0733 63.6614 37.9C64.1147 38.7133 64.3414 39.6667 64.3414 40.76C64.3414 40.84 64.3347 40.9333 64.3214 41.04C64.3214 41.1467 64.3147 41.2467 64.3014 41.34H55.2814V39.96H63.3014L62.5214 40.44C62.5347 39.76 62.3947 39.1533 62.1014 38.62C61.8081 38.0867 61.4014 37.6733 60.8814 37.38C60.3747 37.0733 59.7814 36.92 59.1014 36.92C58.4347 36.92 57.8414 37.0733 57.3214 37.38C56.8014 37.6733 56.3947 38.0933 56.1014 38.64C55.8081 39.1733 55.6614 39.7867 55.6614 40.48V40.8C55.6614 41.5067 55.8214 42.14 56.1414 42.7C56.4747 43.2467 56.9347 43.6733 57.5214 43.98C58.1081 44.2867 58.7814 44.44 59.5414 44.44C60.1681 44.44 60.7347 44.3333 61.2414 44.12C61.7614 43.9067 62.2147 43.5867 62.6014 43.16L63.6614 44.4C63.1814 44.96 62.5814 45.3867 61.8614 45.68C61.1547 45.9733 60.3614 46.12 59.4814 46.12ZM67.0075 46V35.4H68.8475V38.28L68.6675 37.56C68.9608 36.8267 69.4542 36.2667 70.1475 35.88C70.8408 35.4933 71.6942 35.3 72.7075 35.3V37.16C72.6275 37.1467 72.5475 37.14 72.4675 37.14C72.4008 37.14 72.3342 37.14 72.2675 37.14C71.2408 37.14 70.4275 37.4467 69.8275 38.06C69.2275 38.6733 68.9275 39.56 68.9275 40.72V46H67.0075ZM81.0417 50C80.5351 50 80.0417 49.9133 79.5617 49.74C79.0817 49.58 78.6684 49.34 78.3217 49.02L79.1417 47.58C79.4084 47.8333 79.7017 48.0267 80.0217 48.16C80.3417 48.2933 80.6817 48.36 81.0417 48.36C81.5084 48.36 81.8951 48.24 82.2017 48C82.5084 47.76 82.7951 47.3333 83.0617 46.72L83.7217 45.26L83.9217 45.02L88.0817 35.4H89.9617L84.8217 47.06C84.5151 47.8067 84.1684 48.3933 83.7817 48.82C83.4084 49.2467 82.9951 49.5467 82.5417 49.72C82.0884 49.9067 81.5884 50 81.0417 50ZM83.5617 46.34L78.7217 35.4H80.7217L84.8417 44.84L83.5617 46.34ZM96.0006 46.12C94.934 46.12 93.9873 45.8867 93.1606 45.42C92.334 44.9533 91.6806 44.3133 91.2006 43.5C90.7206 42.6733 90.4806 41.74 90.4806 40.7C90.4806 39.6467 90.7206 38.7133 91.2006 37.9C91.6806 37.0867 92.334 36.4533 93.1606 36C93.9873 35.5333 94.934 35.3 96.0006 35.3C97.054 35.3 97.994 35.5333 98.8206 36C99.6606 36.4533 100.314 37.0867 100.781 37.9C101.261 38.7 101.501 39.6333 101.501 40.7C101.501 41.7533 101.261 42.6867 100.781 43.5C100.314 44.3133 99.6606 44.9533 98.8206 45.42C97.994 45.8867 97.054 46.12 96.0006 46.12ZM96.0006 44.44C96.6806 44.44 97.2873 44.2867 97.8206 43.98C98.3673 43.6733 98.794 43.24 99.1006 42.68C99.4073 42.1067 99.5606 41.4467 99.5606 40.7C99.5606 39.94 99.4073 39.2867 99.1006 38.74C98.794 38.18 98.3673 37.7467 97.8206 37.44C97.2873 37.1333 96.6806 36.98 96.0006 36.98C95.3206 36.98 94.714 37.1333 94.1806 37.44C93.6473 37.7467 93.2206 38.18 92.9006 38.74C92.5806 39.2867 92.4206 39.94 92.4206 40.7C92.4206 41.4467 92.5806 42.1067 92.9006 42.68C93.2206 43.24 93.6473 43.6733 94.1806 43.98C94.714 44.2867 95.3206 44.44 96.0006 44.44ZM108.616 46.12C107.709 46.12 106.909 45.9533 106.216 45.62C105.536 45.2867 105.003 44.78 104.616 44.1C104.243 43.4067 104.056 42.54 104.056 41.5V35.4H105.976V41.28C105.976 42.32 106.223 43.1 106.716 43.62C107.223 44.14 107.929 44.4 108.836 44.4C109.503 44.4 110.083 44.2667 110.576 44C111.069 43.72 111.449 43.32 111.716 42.8C111.983 42.2667 112.116 41.6267 112.116 40.88V35.4H114.036V46H112.216V43.14L112.516 43.9C112.169 44.6067 111.649 45.1533 110.956 45.54C110.263 45.9267 109.483 46.12 108.616 46.12ZM117.691 46V35.4H119.531V38.28L119.351 37.56C119.644 36.8267 120.138 36.2667 120.831 35.88C121.524 35.4933 122.378 35.3 123.391 35.3V37.16C123.311 37.1467 123.231 37.14 123.151 37.14C123.084 37.14 123.018 37.14 122.951 37.14C121.924 37.14 121.111 37.4467 120.511 38.06C119.911 38.6733 119.611 39.56 119.611 40.72V46H117.691ZM135.985 46.12C134.852 46.12 133.852 45.8867 132.985 45.42C132.132 44.9533 131.465 44.3133 130.985 43.5C130.519 42.6867 130.285 41.7533 130.285 40.7C130.285 39.6467 130.512 38.7133 130.965 37.9C131.432 37.0867 132.065 36.4533 132.865 36C133.679 35.5333 134.592 35.3 135.605 35.3C136.632 35.3 137.539 35.5267 138.325 35.98C139.112 36.4333 139.725 37.0733 140.165 37.9C140.619 38.7133 140.845 39.6667 140.845 40.76C140.845 40.84 140.839 40.9333 140.825 41.04C140.825 41.1467 140.819 41.2467 140.805 41.34H131.785V39.96H139.805L139.025 40.44C139.039 39.76 138.899 39.1533 138.605 38.62C138.312 38.0867 137.905 37.6733 137.385 37.38C136.879 37.0733 136.285 36.92 135.605 36.92C134.939 36.92 134.345 37.0733 133.825 37.38C133.305 37.6733 132.899 38.0933 132.605 38.64C132.312 39.1733 132.165 39.7867 132.165 40.48V40.8C132.165 41.5067 132.325 42.14 132.645 42.7C132.979 43.2467 133.439 43.6733 134.025 43.98C134.612 44.2867 135.285 44.44 136.045 44.44C136.672 44.44 137.239 44.3333 137.745 44.12C138.265 43.9067 138.719 43.5867 139.105 43.16L140.165 44.4C139.685 44.96 139.085 45.3867 138.365 45.68C137.659 45.9733 136.865 46.12 135.985 46.12ZM156.771 35.3C157.625 35.3 158.378 35.4667 159.031 35.8C159.685 36.1333 160.191 36.64 160.551 37.32C160.925 38 161.111 38.86 161.111 39.9V46H159.191V40.12C159.191 39.0933 158.951 38.32 158.471 37.8C157.991 37.28 157.318 37.02 156.451 37.02C155.811 37.02 155.251 37.1533 154.771 37.42C154.291 37.6867 153.918 38.08 153.651 38.6C153.398 39.12 153.271 39.7667 153.271 40.54V46H151.351V40.12C151.351 39.0933 151.111 38.32 150.631 37.8C150.165 37.28 149.491 37.02 148.611 37.02C147.985 37.02 147.431 37.1533 146.951 37.42C146.471 37.6867 146.098 38.08 145.831 38.6C145.565 39.12 145.431 39.7667 145.431 40.54V46H143.511V35.4H145.351V38.22L145.051 37.5C145.385 36.8067 145.898 36.2667 146.591 35.88C147.285 35.4933 148.091 35.3 149.011 35.3C150.025 35.3 150.898 35.5533 151.631 36.06C152.365 36.5533 152.845 37.3067 153.071 38.32L152.291 38C152.611 37.1867 153.171 36.5333 153.971 36.04C154.771 35.5467 155.705 35.3 156.771 35.3ZM171.224 46V43.76L171.124 43.34V39.52C171.124 38.7067 170.884 38.08 170.404 37.64C169.938 37.1867 169.231 36.96 168.284 36.96C167.658 36.96 167.044 37.0667 166.444 37.28C165.844 37.48 165.338 37.7533 164.924 38.1L164.124 36.66C164.671 36.22 165.324 35.8867 166.084 35.66C166.858 35.42 167.664 35.3 168.504 35.3C169.958 35.3 171.078 35.6533 171.864 36.36C172.651 37.0667 173.044 38.1467 173.044 39.6V46H171.224ZM167.744 46.12C166.958 46.12 166.264 45.9867 165.664 45.72C165.078 45.4533 164.624 45.0867 164.304 44.62C163.984 44.14 163.824 43.6 163.824 43C163.824 42.4267 163.958 41.9067 164.224 41.44C164.504 40.9733 164.951 40.6 165.564 40.32C166.191 40.04 167.031 39.9 168.084 39.9H171.444V41.28H168.164C167.204 41.28 166.558 41.44 166.224 41.76C165.891 42.08 165.724 42.4667 165.724 42.92C165.724 43.44 165.931 43.86 166.344 44.18C166.758 44.4867 167.331 44.64 168.064 44.64C168.784 44.64 169.411 44.48 169.944 44.16C170.491 43.84 170.884 43.3733 171.124 42.76L171.504 44.08C171.251 44.7067 170.804 45.2067 170.164 45.58C169.524 45.94 168.718 46.12 167.744 46.12ZM176.597 46V35.4H178.517V46H176.597ZM177.557 33.36C177.184 33.36 176.871 33.24 176.617 33C176.377 32.76 176.257 32.4667 176.257 32.12C176.257 31.76 176.377 31.46 176.617 31.22C176.871 30.98 177.184 30.86 177.557 30.86C177.931 30.86 178.237 30.98 178.477 31.22C178.731 31.4467 178.857 31.7333 178.857 32.08C178.857 32.44 178.737 32.7467 178.497 33C178.257 33.24 177.944 33.36 177.557 33.36ZM182.183 46V31.16H184.103V46H182.183ZM188.229 46.12C187.856 46.12 187.536 45.9933 187.269 45.74C187.003 45.4733 186.869 45.14 186.869 44.74C186.869 44.34 187.003 44.0133 187.269 43.76C187.536 43.5067 187.856 43.38 188.229 43.38C188.589 43.38 188.896 43.5067 189.149 43.76C189.416 44.0133 189.549 44.34 189.549 44.74C189.549 45.14 189.416 45.4733 189.149 45.74C188.896 45.9933 188.589 46.12 188.229 46.12ZM192.76 46.12C192.387 46.12 192.067 45.9933 191.8 45.74C191.534 45.4733 191.4 45.14 191.4 44.74C191.4 44.34 191.534 44.0133 191.8 43.76C192.067 43.5067 192.387 43.38 192.76 43.38C193.12 43.38 193.427 43.5067 193.68 43.76C193.947 44.0133 194.08 44.34 194.08 44.74C194.08 45.14 193.947 45.4733 193.68 45.74C193.427 45.9933 193.12 46.12 192.76 46.12ZM197.292 46.12C196.918 46.12 196.598 45.9933 196.332 45.74C196.065 45.4733 195.932 45.14 195.932 44.74C195.932 44.34 196.065 44.0133 196.332 43.76C196.598 43.5067 196.918 43.38 197.292 43.38C197.652 43.38 197.958 43.5067 198.212 43.76C198.478 44.0133 198.612 44.34 198.612 44.74C198.612 45.14 198.478 45.4733 198.212 45.74C197.958 45.9933 197.652 46.12 197.292 46.12Z" fill="#D1D2D3"/>
<path d="M367 38.7368L396 25L382.263 54L379.211 41.7895L367 38.7368Z" stroke="white" stroke-width="2" stroke-linecap="round" stroke-linejoin="round"/>
</svg>
