<svg width="161" height="30" viewBox="0 0 161 30" fill="none" xmlns="http://www.w3.org/2000/svg">
<path d="M146 27.5C152.904 27.5 158.5 21.9036 158.5 15C158.5 8.09644 152.904 2.5 146 2.5C139.096 2.5 133.5 8.09644 133.5 15C133.5 21.9036 139.096 27.5 146 27.5Z" stroke="#00AAE1" stroke-width="2" stroke-linecap="round" stroke-linejoin="round"/>
<path d="M143.5 10L151 15L143.5 20V10Z" stroke="#00AAE1" stroke-width="2" stroke-linecap="round" stroke-linejoin="round"/>
<path d="M2.80512 22V6.6H8.81112C10.1605 6.6 11.3118 6.81267 12.2651 7.238C13.2185 7.66333 13.9518 8.27933 14.4651 9.086C14.9785 9.89267 15.2351 10.8533 15.2351 11.968C15.2351 13.0827 14.9785 14.0433 14.4651 14.85C13.9518 15.642 13.2185 16.258 12.2651 16.698C11.3118 17.1233 10.1605 17.336 8.81112 17.336H4.01512L5.00512 16.302V22H2.80512ZM5.00512 16.522L4.01512 15.422H8.74512C10.1531 15.422 11.2165 15.1213 11.9351 14.52C12.6685 13.9187 13.0351 13.068 13.0351 11.968C13.0351 10.868 12.6685 10.0173 11.9351 9.416C11.2165 8.81467 10.1531 8.514 8.74512 8.514H4.01512L5.00512 7.414V16.522ZM18.3741 22V5.676H20.4861V22H18.3741ZM31.7566 22V19.536L31.6466 19.074V14.872C31.6466 13.9773 31.3826 13.288 30.8546 12.804C30.3413 12.3053 29.5639 12.056 28.5226 12.056C27.8333 12.056 27.1586 12.1733 26.4986 12.408C25.8386 12.628 25.2813 12.9287 24.8266 13.31L23.9466 11.726C24.5479 11.242 25.2666 10.8753 26.1026 10.626C26.9533 10.362 27.8406 10.23 28.7646 10.23C30.3633 10.23 31.5953 10.6187 32.4606 11.396C33.3259 12.1733 33.7586 13.3613 33.7586 14.96V22H31.7566ZM27.9286 22.132C27.0633 22.132 26.3006 21.9853 25.6406 21.692C24.9953 21.3987 24.4966 20.9953 24.1446 20.482C23.7926 19.954 23.6166 19.36 23.6166 18.7C23.6166 18.0693 23.7633 17.4973 24.0566 16.984C24.3646 16.4707 24.8559 16.06 25.5306 15.752C26.2199 15.444 27.1439 15.29 28.3026 15.29H31.9986V16.808H28.3906C27.3346 16.808 26.6233 16.984 26.2566 17.336C25.8899 17.688 25.7066 18.1133 25.7066 18.612C25.7066 19.184 25.9339 19.646 26.3886 19.998C26.8433 20.3353 27.4739 20.504 28.2806 20.504C29.0726 20.504 29.7619 20.328 30.3486 19.976C30.9499 19.624 31.3826 19.1107 31.6466 18.436L32.0646 19.888C31.7859 20.5773 31.2946 21.1273 30.5906 21.538C29.8866 21.934 28.9993 22.132 27.9286 22.132ZM37.9582 26.4C37.4009 26.4 36.8582 26.3047 36.3302 26.114C35.8022 25.938 35.3475 25.674 34.9662 25.322L35.8682 23.738C36.1615 24.0167 36.4842 24.2293 36.8362 24.376C37.1882 24.5227 37.5622 24.596 37.9582 24.596C38.4715 24.596 38.8969 24.464 39.2342 24.2C39.5715 23.936 39.8869 23.4667 40.1802 22.792L40.9062 21.186L41.1262 20.922L45.7022 10.34H47.7702L42.1162 23.166C41.7789 23.9873 41.3975 24.6327 40.9722 25.102C40.5615 25.5713 40.1069 25.9013 39.6082 26.092C39.1095 26.2973 38.5595 26.4 37.9582 26.4ZM40.7302 22.374L35.4062 10.34H37.6062L42.1382 20.724L40.7302 22.374ZM55.9575 22V6.6H62.4475C64.0901 6.6 65.5348 6.92267 66.7815 7.568C68.0428 8.21333 69.0181 9.11533 69.7075 10.274C70.4115 11.4327 70.7635 12.7747 70.7635 14.3C70.7635 15.8253 70.4115 17.1673 69.7075 18.326C69.0181 19.4847 68.0428 20.3867 66.7815 21.032C65.5348 21.6773 64.0901 22 62.4475 22H55.9575ZM58.1575 20.086H62.3155C63.5915 20.086 64.6915 19.844 65.6155 19.36C66.5541 18.876 67.2801 18.2013 67.7935 17.336C68.3068 16.456 68.5635 15.444 68.5635 14.3C68.5635 13.1413 68.3068 12.1293 67.7935 11.264C67.2801 10.3987 66.5541 9.724 65.6155 9.24C64.6915 8.756 63.5915 8.514 62.3155 8.514H58.1575V20.086ZM79.0172 22.132C77.7706 22.132 76.6706 21.8753 75.7172 21.362C74.7786 20.8487 74.0452 20.1447 73.5172 19.25C73.0039 18.3553 72.7472 17.3287 72.7472 16.17C72.7472 15.0113 72.9966 13.9847 73.4952 13.09C74.0086 12.1953 74.7052 11.4987 75.5852 11C76.4799 10.4867 77.4846 10.23 78.5992 10.23C79.7286 10.23 80.7259 10.4793 81.5912 10.978C82.4566 11.4767 83.1312 12.1807 83.6152 13.09C84.1139 13.9847 84.3632 15.0333 84.3632 16.236C84.3632 16.324 84.3559 16.4267 84.3412 16.544C84.3412 16.6613 84.3339 16.7713 84.3192 16.874H74.3972V15.356H83.2192L82.3612 15.884C82.3759 15.136 82.2219 14.4687 81.8992 13.882C81.5766 13.2953 81.1292 12.8407 80.5572 12.518C79.9999 12.1807 79.3472 12.012 78.5992 12.012C77.8659 12.012 77.2132 12.1807 76.6412 12.518C76.0692 12.8407 75.6219 13.3027 75.2992 13.904C74.9766 14.4907 74.8152 15.1653 74.8152 15.928V16.28C74.8152 17.0573 74.9912 17.754 75.3432 18.37C75.7099 18.9713 76.2159 19.4407 76.8612 19.778C77.5066 20.1153 78.2472 20.284 79.0832 20.284C79.7726 20.284 80.3959 20.1667 80.9532 19.932C81.5252 19.6973 82.0239 19.3453 82.4492 18.876L83.6152 20.24C83.0872 20.856 82.4272 21.3253 81.6352 21.648C80.8579 21.9707 79.9852 22.132 79.0172 22.132ZM101.882 10.23C102.821 10.23 103.649 10.4133 104.368 10.78C105.087 11.1467 105.644 11.704 106.04 12.452C106.451 13.2 106.656 14.146 106.656 15.29V22H104.544V15.532C104.544 14.4027 104.28 13.552 103.752 12.98C103.224 12.408 102.483 12.122 101.53 12.122C100.826 12.122 100.21 12.2687 99.6819 12.562C99.1539 12.8553 98.7433 13.288 98.4499 13.86C98.1713 14.432 98.0319 15.1433 98.0319 15.994V22H95.9199V15.532C95.9199 14.4027 95.6559 13.552 95.1279 12.98C94.6146 12.408 93.8739 12.122 92.9059 12.122C92.2166 12.122 91.6079 12.2687 91.0799 12.562C90.5519 12.8553 90.1413 13.288 89.8479 13.86C89.5546 14.432 89.4079 15.1433 89.4079 15.994V22H87.2959V10.34H89.3199V13.442L88.9899 12.65C89.3566 11.8873 89.9213 11.2933 90.6839 10.868C91.4466 10.4427 92.3339 10.23 93.3459 10.23C94.4606 10.23 95.4213 10.5087 96.2279 11.066C97.0346 11.6087 97.5626 12.4373 97.8119 13.552L96.9539 13.2C97.3059 12.3053 97.9219 11.5867 98.8019 11.044C99.6819 10.5013 100.709 10.23 101.882 10.23ZM115.536 22.132C114.363 22.132 113.321 21.8753 112.412 21.362C111.503 20.8487 110.784 20.1447 110.256 19.25C109.728 18.3407 109.464 17.314 109.464 16.17C109.464 15.0113 109.728 13.9847 110.256 13.09C110.784 12.1953 111.503 11.4987 112.412 11C113.321 10.4867 114.363 10.23 115.536 10.23C116.695 10.23 117.729 10.4867 118.638 11C119.562 11.4987 120.281 12.1953 120.794 13.09C121.322 13.97 121.586 14.9967 121.586 16.17C121.586 17.3287 121.322 18.3553 120.794 19.25C120.281 20.1447 119.562 20.8487 118.638 21.362C117.729 21.8753 116.695 22.132 115.536 22.132ZM115.536 20.284C116.284 20.284 116.951 20.1153 117.538 19.778C118.139 19.4407 118.609 18.964 118.946 18.348C119.283 17.7173 119.452 16.9913 119.452 16.17C119.452 15.334 119.283 14.6153 118.946 14.014C118.609 13.398 118.139 12.9213 117.538 12.584C116.951 12.2467 116.284 12.078 115.536 12.078C114.788 12.078 114.121 12.2467 113.534 12.584C112.947 12.9213 112.478 13.398 112.126 14.014C111.774 14.6153 111.598 15.334 111.598 16.17C111.598 16.9913 111.774 17.7173 112.126 18.348C112.478 18.964 112.947 19.4407 113.534 19.778C114.121 20.1153 114.788 20.284 115.536 20.284Z" fill="#00AAE1"/>
</svg>
