<svg width="168" height="27" viewBox="0 0 168 27" fill="none" xmlns="http://www.w3.org/2000/svg">
<path d="M2.45648 21V5.6H8.46248C9.81182 5.6 10.9632 5.81267 11.9165 6.238C12.8698 6.66333 13.6032 7.27933 14.1165 8.086C14.6298 8.89267 14.8865 9.85333 14.8865 10.968C14.8865 12.0827 14.6298 13.0433 14.1165 13.85C13.6032 14.642 12.8698 15.2507 11.9165 15.676C10.9632 16.1013 9.81182 16.314 8.46248 16.314H3.66648L4.65648 15.302V21H2.45648ZM12.7525 21L8.83648 15.412H11.1905L15.1505 21H12.7525ZM4.65648 15.522L3.66648 14.444H8.39649C9.80448 14.444 10.8678 14.1433 11.5865 13.542C12.3198 12.926 12.6865 12.068 12.6865 10.968C12.6865 9.868 12.3198 9.01733 11.5865 8.416C10.8678 7.81467 9.80448 7.514 8.39649 7.514H3.66648L4.65648 6.414V15.522ZM23.3249 21.132C22.0782 21.132 20.9782 20.8753 20.0249 20.362C19.0862 19.8487 18.3529 19.1447 17.8249 18.25C17.3115 17.3553 17.0549 16.3287 17.0549 15.17C17.0549 14.0113 17.3042 12.9847 17.8029 12.09C18.3162 11.1953 19.0129 10.4987 19.8929 10C20.7875 9.48667 21.7922 9.23 22.9069 9.23C24.0362 9.23 25.0335 9.47933 25.8989 9.978C26.7642 10.4767 27.4389 11.1807 27.9229 12.09C28.4215 12.9847 28.6709 14.0333 28.6709 15.236C28.6709 15.324 28.6635 15.4267 28.6489 15.544C28.6489 15.6613 28.6415 15.7713 28.6269 15.874H18.7049V14.356H27.5269L26.6689 14.884C26.6835 14.136 26.5295 13.4687 26.2069 12.882C25.8842 12.2953 25.4369 11.8407 24.8649 11.518C24.3075 11.1807 23.6549 11.012 22.9069 11.012C22.1735 11.012 21.5209 11.1807 20.9489 11.518C20.3769 11.8407 19.9295 12.3027 19.6069 12.904C19.2842 13.4907 19.1229 14.1653 19.1229 14.928V15.28C19.1229 16.0573 19.2989 16.754 19.6509 17.37C20.0175 17.9713 20.5235 18.4407 21.1689 18.778C21.8142 19.1153 22.5549 19.284 23.3909 19.284C24.0802 19.284 24.7035 19.1667 25.2609 18.932C25.8329 18.6973 26.3315 18.3453 26.7569 17.876L27.9229 19.24C27.3949 19.856 26.7349 20.3253 25.9429 20.648C25.1655 20.9707 24.2929 21.132 23.3249 21.132ZM36.4216 21.132C35.2922 21.132 34.2802 20.8827 33.3856 20.384C32.5056 19.8853 31.8089 19.1887 31.2956 18.294C30.7822 17.3993 30.5256 16.358 30.5256 15.17C30.5256 13.982 30.7822 12.948 31.2956 12.068C31.8089 11.1733 32.5056 10.4767 33.3856 9.978C34.2802 9.47933 35.2922 9.23 36.4216 9.23C37.4336 9.23 38.3356 9.45 39.1276 9.89C39.9196 10.33 40.5429 10.99 40.9976 11.87C41.4669 12.75 41.7016 13.85 41.7016 15.17C41.7016 16.49 41.4596 17.59 40.9756 18.47C40.5062 19.35 39.8756 20.0173 39.0836 20.472C38.2916 20.912 37.4042 21.132 36.4216 21.132ZM36.5976 19.284C37.3309 19.284 37.9909 19.1153 38.5776 18.778C39.1789 18.4407 39.6482 17.964 39.9856 17.348C40.3376 16.7173 40.5136 15.9913 40.5136 15.17C40.5136 14.334 40.3376 13.6153 39.9856 13.014C39.6482 12.398 39.1789 11.9213 38.5776 11.584C37.9909 11.2467 37.3309 11.078 36.5976 11.078C35.8496 11.078 35.1822 11.2467 34.5956 11.584C34.0089 11.9213 33.5396 12.398 33.1876 13.014C32.8356 13.6153 32.6596 14.334 32.6596 15.17C32.6596 15.9913 32.8356 16.7173 33.1876 17.348C33.5396 17.964 34.0089 18.4407 34.5956 18.778C35.1822 19.1153 35.8496 19.284 36.5976 19.284ZM40.4916 25.268V17.898L40.7116 15.192L40.5796 12.486V9.34H42.6036V25.268H40.4916ZM51.5057 21.132C50.5083 21.132 49.6283 20.9487 48.8657 20.582C48.1177 20.2153 47.531 19.658 47.1057 18.91C46.695 18.1473 46.4897 17.194 46.4897 16.05V9.34H48.6017V15.808C48.6017 16.952 48.873 17.81 49.4157 18.382C49.973 18.954 50.7503 19.24 51.7477 19.24C52.481 19.24 53.119 19.0933 53.6617 18.8C54.2043 18.492 54.6223 18.052 54.9157 17.48C55.209 16.8933 55.3557 16.1893 55.3557 15.368V9.34H57.4677V21H55.4657V17.854L55.7957 18.69C55.4143 19.4673 54.8423 20.0687 54.0797 20.494C53.317 20.9193 52.459 21.132 51.5057 21.132ZM66.6803 21.132C65.4337 21.132 64.3337 20.8753 63.3803 20.362C62.4417 19.8487 61.7083 19.1447 61.1803 18.25C60.667 17.3553 60.4103 16.3287 60.4103 15.17C60.4103 14.0113 60.6597 12.9847 61.1583 12.09C61.6717 11.1953 62.3683 10.4987 63.2483 10C64.143 9.48667 65.1477 9.23 66.2623 9.23C67.3917 9.23 68.389 9.47933 69.2543 9.978C70.1197 10.4767 70.7943 11.1807 71.2783 12.09C71.777 12.9847 72.0263 14.0333 72.0263 15.236C72.0263 15.324 72.019 15.4267 72.0043 15.544C72.0043 15.6613 71.997 15.7713 71.9823 15.874H62.0603V14.356H70.8823L70.0243 14.884C70.039 14.136 69.885 13.4687 69.5623 12.882C69.2397 12.2953 68.7923 11.8407 68.2203 11.518C67.663 11.1807 67.0103 11.012 66.2623 11.012C65.529 11.012 64.8763 11.1807 64.3043 11.518C63.7323 11.8407 63.285 12.3027 62.9623 12.904C62.6397 13.4907 62.4783 14.1653 62.4783 14.928V15.28C62.4783 16.0573 62.6543 16.754 63.0063 17.37C63.373 17.9713 63.879 18.4407 64.5243 18.778C65.1697 19.1153 65.9103 19.284 66.7463 19.284C67.4357 19.284 68.059 19.1667 68.6163 18.932C69.1883 18.6973 69.687 18.3453 70.1123 17.876L71.2783 19.24C70.7503 19.856 70.0903 20.3253 69.2983 20.648C68.521 20.9707 67.6483 21.132 66.6803 21.132ZM78.303 21.132C77.335 21.132 76.411 21 75.531 20.736C74.6657 20.472 73.9837 20.1493 73.485 19.768L74.365 18.096C74.8637 18.4333 75.4797 18.7193 76.213 18.954C76.9464 19.1887 77.6944 19.306 78.457 19.306C79.4397 19.306 80.1437 19.1667 80.569 18.888C81.009 18.6093 81.229 18.2207 81.229 17.722C81.229 17.3553 81.097 17.0693 80.833 16.864C80.569 16.6587 80.217 16.5047 79.777 16.402C79.3517 16.2993 78.875 16.2113 78.347 16.138C77.819 16.05 77.291 15.9473 76.763 15.83C76.235 15.698 75.751 15.522 75.311 15.302C74.871 15.0673 74.519 14.752 74.255 14.356C73.991 13.9453 73.859 13.4027 73.859 12.728C73.859 12.024 74.057 11.408 74.453 10.88C74.849 10.352 75.4064 9.94867 76.125 9.67C76.8584 9.37667 77.7237 9.23 78.721 9.23C79.4837 9.23 80.2537 9.32533 81.031 9.516C81.823 9.692 82.4684 9.94867 82.967 10.286L82.065 11.958C81.537 11.606 80.987 11.364 80.415 11.232C79.843 11.1 79.271 11.034 78.699 11.034C77.775 11.034 77.0857 11.188 76.631 11.496C76.1764 11.7893 75.949 12.1707 75.949 12.64C75.949 13.036 76.081 13.344 76.345 13.564C76.6237 13.7693 76.9757 13.9307 77.401 14.048C77.841 14.1653 78.325 14.268 78.853 14.356C79.381 14.4293 79.909 14.532 80.437 14.664C80.965 14.7813 81.4417 14.95 81.867 15.17C82.307 15.39 82.659 15.698 82.923 16.094C83.2017 16.49 83.341 17.018 83.341 17.678C83.341 18.382 83.1357 18.9907 82.725 19.504C82.3144 20.0173 81.735 20.4207 80.987 20.714C80.239 20.9927 79.3444 21.132 78.303 21.132ZM89.9845 21.132C88.8112 21.132 87.9018 20.8167 87.2565 20.186C86.6112 19.5553 86.2885 18.6533 86.2885 17.48V6.788H88.4005V17.392C88.4005 18.0227 88.5545 18.5067 88.8625 18.844C89.1852 19.1813 89.6398 19.35 90.2265 19.35C90.8865 19.35 91.4365 19.1667 91.8765 18.8L92.5365 20.318C92.2138 20.5967 91.8252 20.802 91.3705 20.934C90.9305 21.066 90.4685 21.132 89.9845 21.132ZM84.3085 11.078V9.34H91.7445V11.078H84.3085ZM101.306 21V5.6H107.796C109.439 5.6 110.883 5.92267 112.13 6.568C113.391 7.21333 114.367 8.11533 115.056 9.274C115.76 10.4327 116.112 11.7747 116.112 13.3C116.112 14.8253 115.76 16.1673 115.056 17.326C114.367 18.4847 113.391 19.3867 112.13 20.032C110.883 20.6773 109.439 21 107.796 21H101.306ZM103.506 19.086H107.664C108.94 19.086 110.04 18.844 110.964 18.36C111.903 17.876 112.629 17.2013 113.142 16.336C113.655 15.456 113.912 14.444 113.912 13.3C113.912 12.1413 113.655 11.1293 113.142 10.264C112.629 9.39867 111.903 8.724 110.964 8.24C110.04 7.756 108.94 7.514 107.664 7.514H103.506V19.086ZM124.366 21.132C123.119 21.132 122.019 20.8753 121.066 20.362C120.127 19.8487 119.394 19.1447 118.866 18.25C118.353 17.3553 118.096 16.3287 118.096 15.17C118.096 14.0113 118.345 12.9847 118.844 12.09C119.357 11.1953 120.054 10.4987 120.934 10C121.829 9.48667 122.833 9.23 123.948 9.23C125.077 9.23 126.075 9.47933 126.94 9.978C127.805 10.4767 128.48 11.1807 128.964 12.09C129.463 12.9847 129.712 14.0333 129.712 15.236C129.712 15.324 129.705 15.4267 129.69 15.544C129.69 15.6613 129.683 15.7713 129.668 15.874H119.746V14.356H128.568L127.71 14.884C127.725 14.136 127.571 13.4687 127.248 12.882C126.925 12.2953 126.478 11.8407 125.906 11.518C125.349 11.1807 124.696 11.012 123.948 11.012C123.215 11.012 122.562 11.1807 121.99 11.518C121.418 11.8407 120.971 12.3027 120.648 12.904C120.325 13.4907 120.164 14.1653 120.164 14.928V15.28C120.164 16.0573 120.34 16.754 120.692 17.37C121.059 17.9713 121.565 18.4407 122.21 18.778C122.855 19.1153 123.596 19.284 124.432 19.284C125.121 19.284 125.745 19.1667 126.302 18.932C126.874 18.6973 127.373 18.3453 127.798 17.876L128.964 19.24C128.436 19.856 127.776 20.3253 126.984 20.648C126.207 20.9707 125.334 21.132 124.366 21.132ZM147.231 9.23C148.169 9.23 148.998 9.41333 149.717 9.78C150.435 10.1467 150.993 10.704 151.389 11.452C151.799 12.2 152.005 13.146 152.005 14.29V21H149.893V14.532C149.893 13.4027 149.629 12.552 149.101 11.98C148.573 11.408 147.832 11.122 146.879 11.122C146.175 11.122 145.559 11.2687 145.031 11.562C144.503 11.8553 144.092 12.288 143.799 12.86C143.52 13.432 143.381 14.1433 143.381 14.994V21H141.269V14.532C141.269 13.4027 141.005 12.552 140.477 11.98C139.963 11.408 139.223 11.122 138.255 11.122C137.565 11.122 136.957 11.2687 136.429 11.562C135.901 11.8553 135.49 12.288 135.197 12.86C134.903 13.432 134.757 14.1433 134.757 14.994V21H132.645V9.34H134.669V12.442L134.339 11.65C134.705 10.8873 135.27 10.2933 136.033 9.868C136.795 9.44267 137.683 9.23 138.695 9.23C139.809 9.23 140.77 9.50867 141.577 10.066C142.383 10.6087 142.911 11.4373 143.161 12.552L142.303 12.2C142.655 11.3053 143.271 10.5867 144.151 10.044C145.031 9.50133 146.057 9.23 147.231 9.23ZM160.885 21.132C159.711 21.132 158.67 20.8753 157.761 20.362C156.851 19.8487 156.133 19.1447 155.605 18.25C155.077 17.3407 154.813 16.314 154.813 15.17C154.813 14.0113 155.077 12.9847 155.605 12.09C156.133 11.1953 156.851 10.4987 157.761 10C158.67 9.48667 159.711 9.23 160.885 9.23C162.043 9.23 163.077 9.48667 163.987 10C164.911 10.4987 165.629 11.1953 166.143 12.09C166.671 12.97 166.935 13.9967 166.935 15.17C166.935 16.3287 166.671 17.3553 166.143 18.25C165.629 19.1447 164.911 19.8487 163.987 20.362C163.077 20.8753 162.043 21.132 160.885 21.132ZM160.885 19.284C161.633 19.284 162.3 19.1153 162.887 18.778C163.488 18.4407 163.957 17.964 164.295 17.348C164.632 16.7173 164.801 15.9913 164.801 15.17C164.801 14.334 164.632 13.6153 164.295 13.014C163.957 12.398 163.488 11.9213 162.887 11.584C162.3 11.2467 161.633 11.078 160.885 11.078C160.137 11.078 159.469 11.2467 158.883 11.584C158.296 11.9213 157.827 12.398 157.475 13.014C157.123 13.6153 156.947 14.334 156.947 15.17C156.947 15.9913 157.123 16.7173 157.475 17.348C157.827 17.964 158.296 18.4407 158.883 18.778C159.469 19.1153 160.137 19.284 160.885 19.284Z" fill="#00AAE1"/>
</svg>
