<svg xmlns="http://www.w3.org/2000/svg" width="298" height="240" viewBox="0 0 298 240" fill="none"><g filter="url(#filter0_dddd_1658_2773)"><mask id="path-1-inside-1_1658_2773" fill="white"><path fill-rule="evenodd" clip-rule="evenodd" d="M68 130.777C68 129.12 69.3431 127.777 71 127.777L107.807 127.777C109.486 127.777 110.839 126.399 110.807 124.72L109.274 44.057C109.242 42.3781 110.595 41 112.274 41L191.649 41C224.427 41 251 66.571 251 99.1244C251 131.678 216.184 157.249 183.405 157.249H143.6C141.92 157.249 140.568 158.628 140.601 160.308L141.304 195.941C141.338 197.62 139.985 199 138.305 199H113.1C111.42 199 110.068 197.62 110.101 195.941L110.804 160.308C110.838 158.628 109.485 157.249 107.805 157.249H71C69.3431 157.249 68 155.906 68 154.249V130.777ZM184.865 127.943L145 127.943C143.343 127.943 142 126.6 142 124.943V72C142 70.3431 143.343 69 145 69H191.459C208.304 69 217.838 81.7427 217.838 98.4715C217.838 115.2 201.71 127.943 184.865 127.943Z"></path></mask><path fill-rule="evenodd" clip-rule="evenodd" d="M68 130.777C68 129.12 69.3431 127.777 71 127.777L107.807 127.777C109.486 127.777 110.839 126.399 110.807 124.72L109.274 44.057C109.242 42.3781 110.595 41 112.274 41L191.649 41C224.427 41 251 66.571 251 99.1244C251 131.678 216.184 157.249 183.405 157.249H143.6C141.92 157.249 140.568 158.628 140.601 160.308L141.304 195.941C141.338 197.62 139.985 199 138.305 199H113.1C111.42 199 110.068 197.62 110.101 195.941L110.804 160.308C110.838 158.628 109.485 157.249 107.805 157.249H71C69.3431 157.249 68 155.906 68 154.249V130.777ZM184.865 127.943L145 127.943C143.343 127.943 142 126.6 142 124.943V72C142 70.3431 143.343 69 145 69H191.459C208.304 69 217.838 81.7427 217.838 98.4715C217.838 115.2 201.71 127.943 184.865 127.943Z" fill="#333333"></path><path d="M142.355 70.3342H191.649V67.3342H142.355V70.3342ZM143.689 69C143.689 69.7369 143.092 70.3342 142.355 70.3342V67.3342C141.435 67.3342 140.689 68.08 140.689 69H143.689ZM191.649 41V44V41ZM184.865 127.943V124.943V127.943ZM110.101 195.941L107.102 195.882L110.101 195.941ZM141.304 195.941L138.305 196L141.304 195.941ZM109.274 44.057L106.275 44.114L109.274 44.057ZM112.274 41V38V41ZM71 127.777L71 124.777L71 127.777ZM145 127.943V130.943V127.943ZM107.807 127.777V124.777V127.777ZM110.807 124.72L113.806 124.663L110.807 124.72ZM107.807 124.777L71 124.777L71 130.777L107.807 130.777V124.777ZM106.275 44.114L107.807 124.777L113.806 124.663L112.274 44L106.275 44.114ZM191.649 38L112.274 38V44L191.649 44V38ZM254 99.1244C254 64.8403 226.01 38 191.649 38V44C222.845 44 248 68.3017 248 99.1244H254ZM183.405 160.249C200.533 160.249 218.093 153.587 231.393 142.717C244.698 131.843 254 116.524 254 99.1244H248C248 114.278 239.894 128.021 227.596 138.071C215.294 148.125 199.057 154.249 183.405 154.249V160.249ZM143.6 160.249H183.405V154.249H143.6V160.249ZM144.304 195.882L143.6 160.249L137.602 160.367L138.305 196L144.304 195.882ZM113.1 202H138.305V196H113.1V202ZM107.805 160.249L107.102 195.882L113.1 196L113.804 160.367L107.805 160.249ZM71 160.249H107.805V154.249H71V160.249ZM65 130.777V154.249H71V130.777H65ZM145 130.943L184.865 130.943V124.943L145 124.943V130.943ZM139 72V124.943H145V72H139ZM191.459 66H145V72H191.459V66ZM220.838 98.4715C220.838 89.5611 218.298 81.4524 213.25 75.5186C208.154 69.5281 200.703 66 191.459 66V72C199.061 72 204.798 74.8432 208.68 79.4063C212.61 84.0261 214.838 90.6531 214.838 98.4715H220.838ZM184.865 130.943C202.925 130.943 220.838 117.267 220.838 98.4715H214.838C214.838 113.134 200.494 124.943 184.865 124.943V130.943ZM71 154.249H71H65C65 157.562 67.6863 160.249 71 160.249V154.249ZM113.804 160.367C113.87 157.008 111.165 154.249 107.805 154.249V160.249L113.804 160.367ZM113.1 196L107.102 195.882C107.035 199.241 109.74 202 113.1 202V196ZM138.305 196V202C141.665 202 144.37 199.241 144.304 195.882L138.305 196ZM145 72V66C141.686 66 139 68.6863 139 72H145ZM112.274 44L112.274 44V38C108.915 38 106.211 40.7563 106.275 44.114L112.274 44ZM143.6 154.249C140.24 154.249 137.535 157.008 137.602 160.367L143.6 160.249V154.249ZM71 124.777C67.6863 124.777 65 127.464 65 130.777H71H71L71 124.777ZM145 124.943H139C139 128.257 141.686 130.943 145 130.943V124.943ZM107.807 130.777C111.166 130.777 113.87 128.021 113.806 124.663L107.807 124.777V130.777Z" fill="url(#paint0_linear_1658_2773)" mask="url(#path-1-inside-1_1658_2773)"></path></g><defs><filter id="filter0_dddd_1658_2773" x="0" y="13" width="255" height="198" filterUnits="userSpaceOnUse" color-interpolation-filters="sRGB"><feGaussianBlur stdDeviation="3.5"></feGaussianBlur><feGaussianBlur stdDeviation="6"></feGaussianBlur><feGaussianBlur stdDeviation="8"></feGaussianBlur><feGaussianBlur stdDeviation="10"></feGaussianBlur></filter><linearGradient id="paint0_linear_1658_2773" x1="159.5" y1="41" x2="159.5" y2="199" gradientUnits="userSpaceOnUse"><stop stop-color="#4766EA"></stop><stop offset="0.265625" stop-color="#00AAE1"></stop><stop offset="0.536458" stop-color="#64C397"></stop><stop offset="0.75" stop-color="#DBE373"></stop><stop offset="1" stop-color="#EF8E41"></stop></linearGradient></defs></svg>