<svg xmlns="http://www.w3.org/2000/svg" xmlns:xlink="http://www.w3.org/1999/xlink" id="Layer_1" data-name="Layer 1" viewBox="0 0 316 293"><defs><style>      .cls-1 {        fill: url(#linear-gradient);      }      .cls-2 {        mask: url(#mask);      }      .cls-3, .cls-4 {        fill: #fff;      }      .cls-5 {        fill: #333;      }      .cls-5, .cls-4 {        fill-rule: evenodd;      }    </style><mask id="mask" x="65" y="65" width="189" height="164" maskUnits="userSpaceOnUse"><g id="path-2-inside-1_1658_2772" data-name="path-2-inside-1 1658 2772"><path class="cls-4" d="m68,157.78c0-1.66,1.34-3,3-3h36.81c1.68,0,3.03-1.38,3-3.06l-1.53-80.66c-.03-1.68,1.32-3.06,3-3.06h79.38c32.78,0,59.35,25.57,59.35,58.12s-34.82,58.12-67.6,58.12h-39.8c-1.68,0-3.03,1.38-3,3.06l.7,35.63c.03,1.68-1.32,3.06-3,3.06h-25.2c-1.68,0-3.03-1.38-3-3.06l.7-35.63c.03-1.68-1.32-3.06-3-3.06h-36.81c-1.66,0-3-1.34-3-3v-23.47Zm116.87-2.83h-39.87c-1.66,0-3-1.34-3-3v-52.94c0-1.66,1.34-3,3-3h46.46c16.85,0,26.38,12.74,26.38,29.47s-16.13,29.47-32.97,29.47Z"></path></g></mask><linearGradient id="linear-gradient" x1="159.5" y1="226" x2="159.5" y2="68" gradientTransform="translate(0 294) scale(1 -1)" gradientUnits="userSpaceOnUse"><stop offset="0" stop-color="#4766ea"></stop><stop offset=".27" stop-color="#00aae1"></stop><stop offset=".54" stop-color="#64c397"></stop><stop offset=".75" stop-color="#dbe373"></stop><stop offset="1" stop-color="#ef8e41"></stop></linearGradient></defs><path class="cls-3" d="m3,10C3,4.48,7.48,0,13,0h293c5.52,0,10,4.48,10,10v273c0,5.52-4.48,10-10,10H13c-5.52,0-10-4.48-10-10V10Z"></path><g><path class="cls-5" d="m68,157.78c0-1.66,1.34-3,3-3h36.81c1.68,0,3.03-1.38,3-3.06l-1.53-80.66c-.03-1.68,1.32-3.06,3-3.06h79.38c32.78,0,59.35,25.57,59.35,58.12s-34.82,58.12-67.6,58.12h-39.8c-1.68,0-3.03,1.38-3,3.06l.7,35.63c.03,1.68-1.32,3.06-3,3.06h-25.2c-1.68,0-3.03-1.38-3-3.06l.7-35.63c.03-1.68-1.32-3.06-3-3.06h-36.81c-1.66,0-3-1.34-3-3v-23.47Zm116.87-2.83h-39.87c-1.66,0-3-1.34-3-3v-52.94c0-1.66,1.34-3,3-3h46.46c16.85,0,26.38,12.74,26.38,29.47s-16.13,29.47-32.97,29.47Z"></path><g class="cls-2"><path class="cls-1" d="m142.35,97.33h49.29v-3h-49.29v3Zm1.33-1.33c0,.74-.6,1.33-1.33,1.33v-3c-.92,0-1.67.75-1.67,1.67h3Zm47.96-28v3-3Zm-6.78,86.94v-3,3Zm-74.76,68l-3-.06,3,.06Zm31.2,0l-3,.06,3-.06Zm-32.03-151.88l-3,.06,3-.06Zm3-3.06v-3,3Zm-41.27,86.78v-3,3Zm74,.17v3-3Zm-37.19-.17v-3,3Zm3-3.06l3-.06-3,.06Zm-3,.06h-36.81v6h36.81v-6Zm-1.53-80.66l1.53,80.66,6-.11-1.53-80.66-6,.11Zm85.37-6.11h-79.38v6h79.38v-6Zm62.35,61.12c0-34.28-27.99-61.12-62.35-61.12v6c31.2,0,56.35,24.3,56.35,55.12h6Zm-70.6,61.12c17.13,0,34.69-6.66,47.99-17.53,13.3-10.87,22.61-26.19,22.61-43.59h-6c0,15.15-8.11,28.9-20.4,38.95-12.3,10.05-28.54,16.18-44.19,16.18v6Zm-39.8,0h39.8v-6h-39.8v6Zm.7,35.63l-.7-35.63-6,.12.7,35.63,6-.12Zm-31.2,6.12h25.2v-6h-25.2v6Zm-5.29-41.75l-.7,35.63,6,.12.7-35.63-6-.12Zm-36.81,0h36.81v-6h-36.81v6Zm-6-29.47v23.47h6v-23.47h-6Zm80,.17h39.87v-6h-39.87v6Zm-6-58.94v52.94h6v-52.94h-6Zm52.46-6h-46.46v6h46.46v-6Zm29.38,32.47c0-8.91-2.54-17.02-7.59-22.95-5.1-5.99-12.55-9.52-21.79-9.52v6c7.6,0,13.34,2.84,17.22,7.41,3.93,4.62,6.16,11.25,6.16,19.07h6Zm-35.97,32.47c18.06,0,35.97-13.68,35.97-32.47h-6c0,14.66-14.34,26.47-29.97,26.47v6Zm-113.87,23.31h-6c0,3.31,2.69,6,6,6v-6Zm42.8,6.12c.07-3.36-2.64-6.12-6-6.12v6l6,.12Zm-.7,35.63l-6-.12c-.07,3.36,2.64,6.12,6,6.12v-6Zm25.2,0v6c3.36,0,6.07-2.76,6-6.12l-6,.12Zm6.7-124v-6c-3.31,0-6,2.69-6,6h6Zm-32.73-28h0v-6c-3.36,0-6.06,2.76-6,6.11l6-.11Zm31.33,110.25c-3.36,0-6.07,2.76-6,6.12l6-.12v-6Zm-72.6-29.47c-3.31,0-6,2.69-6,6h6v-6Zm74,.17h-6c0,3.31,2.69,6,6,6v-6Zm-37.19,5.83c3.36,0,6.06-2.76,6-6.11l-6,.11v6Z"></path></g></g></svg>