<svg width="152" height="52" viewBox="0 0 152 52" fill="none" xmlns="http://www.w3.org/2000/svg">
<rect x="0.5" y="0.5" width="151" height="51" rx="9.5" stroke="#D1D2D3"/>
<path d="M20.3246 34L27.2546 18.6H30.0706L37.0226 34H34.0306L28.0686 20.118H29.2126L23.2726 34H20.3246ZM23.5146 30.436L24.2846 28.192H32.6006L33.3706 30.436H23.5146ZM38.7171 34V17.676H41.4671V34H38.7171ZM45.0765 34V17.676H47.8265V34H45.0765ZM57.7799 34V18.6H64.1159C65.4799 18.6 66.6459 18.82 67.6139 19.26C68.5966 19.7 69.3519 20.3307 69.8799 21.152C70.4079 21.9733 70.6719 22.9487 70.6719 24.078C70.6719 25.2073 70.4079 26.1827 69.8799 27.004C69.3519 27.8253 68.5966 28.456 67.6139 28.896C66.6459 29.336 65.4799 29.556 64.1159 29.556H59.3639L60.6399 28.214V34H57.7799ZM60.6399 28.522L59.3639 27.136H63.9839C65.2452 27.136 66.1912 26.872 66.8219 26.344C67.4672 25.8013 67.7899 25.046 67.7899 24.078C67.7899 23.0953 67.4672 22.34 66.8219 21.812C66.1912 21.284 65.2452 21.02 63.9839 21.02H59.3639L60.6399 19.612V28.522ZM78.501 34.154C77.2983 34.154 76.2277 33.8973 75.289 33.384C74.3503 32.856 73.6097 32.1373 73.067 31.228C72.5243 30.3187 72.253 29.2847 72.253 28.126C72.253 26.9527 72.5243 25.9187 73.067 25.024C73.6097 24.1147 74.3503 23.4033 75.289 22.89C76.2277 22.3767 77.2983 22.12 78.501 22.12C79.7183 22.12 80.7963 22.3767 81.735 22.89C82.6883 23.4033 83.429 24.1073 83.957 25.002C84.4997 25.8967 84.771 26.938 84.771 28.126C84.771 29.2847 84.4997 30.3187 83.957 31.228C83.429 32.1373 82.6883 32.856 81.735 33.384C80.7963 33.8973 79.7183 34.154 78.501 34.154ZM78.501 31.8C79.1757 31.8 79.777 31.6533 80.305 31.36C80.833 31.0667 81.2437 30.6413 81.537 30.084C81.845 29.5267 81.999 28.874 81.999 28.126C81.999 27.3633 81.845 26.7107 81.537 26.168C81.2437 25.6107 80.833 25.1853 80.305 24.892C79.777 24.5987 79.183 24.452 78.523 24.452C77.8483 24.452 77.247 24.5987 76.719 24.892C76.2057 25.1853 75.795 25.6107 75.487 26.168C75.179 26.7107 75.025 27.3633 75.025 28.126C75.025 28.874 75.179 29.5267 75.487 30.084C75.795 30.6413 76.2057 31.0667 76.719 31.36C77.247 31.6533 77.841 31.8 78.501 31.8ZM91.0307 34.154C90.048 34.154 89.102 34.0293 88.1927 33.78C87.298 33.516 86.5867 33.2007 86.0587 32.834L87.1147 30.744C87.6427 31.0813 88.2733 31.36 89.0067 31.58C89.74 31.8 90.4733 31.91 91.2067 31.91C92.072 31.91 92.6953 31.7927 93.0767 31.558C93.4727 31.3233 93.6707 31.008 93.6707 30.612C93.6707 30.2893 93.5387 30.0473 93.2747 29.886C93.0107 29.71 92.666 29.578 92.2407 29.49C91.8153 29.402 91.3387 29.3213 90.8107 29.248C90.2973 29.1747 89.7767 29.0793 89.2487 28.962C88.7353 28.83 88.266 28.6467 87.8407 28.412C87.4153 28.1627 87.0707 27.8327 86.8067 27.422C86.5427 27.0113 86.4107 26.4687 86.4107 25.794C86.4107 25.046 86.6233 24.4007 87.0487 23.858C87.474 23.3007 88.068 22.8753 88.8307 22.582C89.608 22.274 90.5247 22.12 91.5807 22.12C92.3727 22.12 93.172 22.208 93.9787 22.384C94.7853 22.56 95.4527 22.8093 95.9807 23.132L94.9247 25.222C94.3673 24.8847 93.8027 24.6573 93.2307 24.54C92.6733 24.408 92.116 24.342 91.5587 24.342C90.7227 24.342 90.0993 24.4667 89.6887 24.716C89.2927 24.9653 89.0947 25.2807 89.0947 25.662C89.0947 26.014 89.2267 26.278 89.4907 26.454C89.7547 26.63 90.0993 26.7693 90.5247 26.872C90.95 26.9747 91.4193 27.0627 91.9327 27.136C92.4607 27.1947 92.9813 27.29 93.4947 27.422C94.008 27.554 94.4773 27.7373 94.9027 27.972C95.3427 28.192 95.6947 28.5073 95.9587 28.918C96.2227 29.3287 96.3547 29.864 96.3547 30.524C96.3547 31.2573 96.1347 31.8953 95.6947 32.438C95.2693 32.9807 94.6607 33.406 93.8687 33.714C93.0767 34.0073 92.1307 34.154 91.0307 34.154ZM103.145 34.154C101.854 34.154 100.857 33.824 100.153 33.164C99.4489 32.4893 99.0969 31.4993 99.0969 30.194V19.656H101.847V30.128C101.847 30.6853 101.986 31.118 102.265 31.426C102.558 31.734 102.962 31.888 103.475 31.888C104.091 31.888 104.604 31.7267 105.015 31.404L105.785 33.362C105.462 33.626 105.066 33.824 104.597 33.956C104.128 34.088 103.644 34.154 103.145 34.154ZM97.1609 24.54V22.34H104.993V24.54H97.1609ZM111.677 34.154C110.694 34.154 109.748 34.0293 108.839 33.78C107.944 33.516 107.233 33.2007 106.705 32.834L107.761 30.744C108.289 31.0813 108.92 31.36 109.653 31.58C110.386 31.8 111.12 31.91 111.853 31.91C112.718 31.91 113.342 31.7927 113.723 31.558C114.119 31.3233 114.317 31.008 114.317 30.612C114.317 30.2893 114.185 30.0473 113.921 29.886C113.657 29.71 113.312 29.578 112.887 29.49C112.462 29.402 111.985 29.3213 111.457 29.248C110.944 29.1747 110.423 29.0793 109.895 28.962C109.382 28.83 108.912 28.6467 108.487 28.412C108.062 28.1627 107.717 27.8327 107.453 27.422C107.189 27.0113 107.057 26.4687 107.057 25.794C107.057 25.046 107.27 24.4007 107.695 23.858C108.12 23.3007 108.714 22.8753 109.477 22.582C110.254 22.274 111.171 22.12 112.227 22.12C113.019 22.12 113.818 22.208 114.625 22.384C115.432 22.56 116.099 22.8093 116.627 23.132L115.571 25.222C115.014 24.8847 114.449 24.6573 113.877 24.54C113.32 24.408 112.762 24.342 112.205 24.342C111.369 24.342 110.746 24.4667 110.335 24.716C109.939 24.9653 109.741 25.2807 109.741 25.662C109.741 26.014 109.873 26.278 110.137 26.454C110.401 26.63 110.746 26.7693 111.171 26.872C111.596 26.9747 112.066 27.0627 112.579 27.136C113.107 27.1947 113.628 27.29 114.141 27.422C114.654 27.554 115.124 27.7373 115.549 27.972C115.989 28.192 116.341 28.5073 116.605 28.918C116.869 29.3287 117.001 29.864 117.001 30.524C117.001 31.2573 116.781 31.8953 116.341 32.438C115.916 32.9807 115.307 33.406 114.515 33.714C113.723 34.0073 112.777 34.154 111.677 34.154Z" fill="#00AAE1"/>
<path d="M128 33L134 27L128 21" stroke="#00AAE1" stroke-width="2" stroke-linecap="round" stroke-linejoin="round"/>
</svg>
