<svg width="810" height="481" viewBox="0 0 810 481" fill="none" xmlns="http://www.w3.org/2000/svg">
<path d="M47 201.754L47 457.101L800 457.101C805.523 457.101 810 452.623 810 447.101L810 211.754C810 206.231 805.523 201.754 800 201.754L47 201.754Z" fill="#DFFC7C"/>
<g filter="url(#filter0_ddddd_506_96)">
<path d="M127.556 102C127.556 93.7157 134.271 87 142.556 87H703.805C712.089 87 718.805 93.7157 718.805 102V457.101H127.556V102Z" fill="#F9F9F9"/>
<path d="M127.556 102C127.556 93.7157 134.271 87 142.556 87H703.805C712.089 87 718.805 93.7157 718.805 102V115.878H127.556V102Z" fill="#333333"/>
<circle cx="141.995" cy="101.439" r="4.55976" fill="#D9D9D9"/>
<circle cx="154.914" cy="101.439" r="4.55976" fill="#D9D9D9"/>
<circle cx="167.834" cy="101.439" r="4.55976" fill="#D9D9D9"/>
<rect x="127.556" y="115.878" width="103.355" height="341.222" fill="#D9D9D9"/>
<g filter="url(#filter1_d_506_96)">
<path d="M245.35 153.117H700.566V425.062C700.566 430.585 696.089 435.062 690.566 435.062H255.35C249.827 435.062 245.35 430.585 245.35 425.062V153.117Z" fill="white"/>
</g>
<rect x="245.35" y="151.597" width="455.216" height="25.8386" fill="#DFFC7C"/>
<path d="M256.016 172.072C255.384 172.072 254.8 171.968 254.264 171.76C253.728 171.544 253.264 171.244 252.872 170.86C252.48 170.476 252.172 170.024 251.948 169.504C251.732 168.984 251.624 168.416 251.624 167.8C251.624 167.184 251.732 166.616 251.948 166.096C252.172 165.576 252.48 165.124 252.872 164.74C253.272 164.356 253.74 164.06 254.276 163.852C254.812 163.636 255.396 163.528 256.028 163.528C256.636 163.528 257.208 163.632 257.744 163.84C258.28 164.04 258.732 164.344 259.1 164.752L258.536 165.316C258.192 164.964 257.812 164.712 257.396 164.56C256.98 164.4 256.532 164.32 256.052 164.32C255.548 164.32 255.08 164.408 254.648 164.584C254.216 164.752 253.84 164.996 253.52 165.316C253.2 165.628 252.948 165.996 252.764 166.42C252.588 166.836 252.5 167.296 252.5 167.8C252.5 168.304 252.588 168.768 252.764 169.192C252.948 169.608 253.2 169.976 253.52 170.296C253.84 170.608 254.216 170.852 254.648 171.028C255.08 171.196 255.548 171.28 256.052 171.28C256.532 171.28 256.98 171.2 257.396 171.04C257.812 170.88 258.192 170.624 258.536 170.272L259.1 170.836C258.732 171.244 258.28 171.552 257.744 171.76C257.208 171.968 256.632 172.072 256.016 172.072ZM260.813 172V165.7H261.629V167.416L261.545 167.116C261.721 166.636 262.017 166.272 262.433 166.024C262.849 165.768 263.365 165.64 263.981 165.64V166.468C263.949 166.468 263.917 166.468 263.885 166.468C263.853 166.46 263.821 166.456 263.789 166.456C263.125 166.456 262.605 166.66 262.229 167.068C261.853 167.468 261.665 168.04 261.665 168.784V172H260.813ZM268.153 172.06C267.497 172.06 266.921 171.924 266.425 171.652C265.929 171.372 265.541 170.992 265.261 170.512C264.981 170.024 264.841 169.468 264.841 168.844C264.841 168.22 264.973 167.668 265.237 167.188C265.509 166.708 265.877 166.332 266.341 166.06C266.813 165.78 267.341 165.64 267.925 165.64C268.517 165.64 269.041 165.776 269.497 166.048C269.961 166.312 270.325 166.688 270.589 167.176C270.853 167.656 270.985 168.212 270.985 168.844C270.985 168.884 270.981 168.928 270.973 168.976C270.973 169.016 270.973 169.06 270.973 169.108H265.489V168.472H270.517L270.181 168.724C270.181 168.268 270.081 167.864 269.881 167.512C269.689 167.152 269.425 166.872 269.089 166.672C268.753 166.472 268.365 166.372 267.925 166.372C267.493 166.372 267.105 166.472 266.761 166.672C266.417 166.872 266.149 167.152 265.957 167.512C265.765 167.872 265.669 168.284 265.669 168.748V168.88C265.669 169.36 265.773 169.784 265.981 170.152C266.197 170.512 266.493 170.796 266.869 171.004C267.253 171.204 267.689 171.304 268.177 171.304C268.561 171.304 268.917 171.236 269.245 171.1C269.581 170.964 269.869 170.756 270.109 170.476L270.589 171.028C270.309 171.364 269.957 171.62 269.533 171.796C269.117 171.972 268.657 172.06 268.153 172.06ZM276.491 172V170.608L276.455 170.38V168.052C276.455 167.516 276.303 167.104 275.999 166.816C275.703 166.528 275.259 166.384 274.667 166.384C274.259 166.384 273.871 166.452 273.503 166.588C273.135 166.724 272.823 166.904 272.567 167.128L272.183 166.492C272.503 166.22 272.887 166.012 273.335 165.868C273.783 165.716 274.255 165.64 274.751 165.64C275.567 165.64 276.195 165.844 276.635 166.252C277.083 166.652 277.307 167.264 277.307 168.088V172H276.491ZM274.319 172.06C273.847 172.06 273.435 171.984 273.083 171.832C272.739 171.672 272.475 171.456 272.291 171.184C272.107 170.904 272.015 170.584 272.015 170.224C272.015 169.896 272.091 169.6 272.243 169.336C272.403 169.064 272.659 168.848 273.011 168.688C273.371 168.52 273.851 168.436 274.451 168.436H276.623V169.072H274.475C273.867 169.072 273.443 169.18 273.203 169.396C272.971 169.612 272.855 169.88 272.855 170.2C272.855 170.56 272.995 170.848 273.275 171.064C273.555 171.28 273.947 171.388 274.451 171.388C274.931 171.388 275.343 171.28 275.687 171.064C276.039 170.84 276.295 170.52 276.455 170.104L276.647 170.692C276.487 171.108 276.207 171.44 275.807 171.688C275.415 171.936 274.919 172.06 274.319 172.06ZM281.614 172.06C281.022 172.06 280.566 171.9 280.246 171.58C279.926 171.26 279.766 170.808 279.766 170.224V164.308H280.618V170.176C280.618 170.544 280.71 170.828 280.894 171.028C281.086 171.228 281.358 171.328 281.71 171.328C282.086 171.328 282.398 171.22 282.646 171.004L282.946 171.616C282.778 171.768 282.574 171.88 282.334 171.952C282.102 172.024 281.862 172.06 281.614 172.06ZM278.638 166.408V165.7H282.538V166.408H278.638ZM286.95 172.06C286.294 172.06 285.718 171.924 285.222 171.652C284.726 171.372 284.338 170.992 284.058 170.512C283.778 170.024 283.638 169.468 283.638 168.844C283.638 168.22 283.77 167.668 284.034 167.188C284.306 166.708 284.674 166.332 285.138 166.06C285.61 165.78 286.138 165.64 286.722 165.64C287.314 165.64 287.838 165.776 288.294 166.048C288.758 166.312 289.122 166.688 289.386 167.176C289.65 167.656 289.782 168.212 289.782 168.844C289.782 168.884 289.778 168.928 289.77 168.976C289.77 169.016 289.77 169.06 289.77 169.108H284.286V168.472H289.314L288.978 168.724C288.978 168.268 288.878 167.864 288.678 167.512C288.486 167.152 288.222 166.872 287.886 166.672C287.55 166.472 287.162 166.372 286.722 166.372C286.29 166.372 285.902 166.472 285.558 166.672C285.214 166.872 284.946 167.152 284.754 167.512C284.562 167.872 284.466 168.284 284.466 168.748V168.88C284.466 169.36 284.57 169.784 284.778 170.152C284.994 170.512 285.29 170.796 285.666 171.004C286.05 171.204 286.486 171.304 286.974 171.304C287.358 171.304 287.714 171.236 288.042 171.1C288.378 170.964 288.666 170.756 288.906 170.476L289.386 171.028C289.106 171.364 288.754 171.62 288.33 171.796C287.914 171.972 287.454 172.06 286.95 172.06ZM298.485 172.072C297.853 172.072 297.269 171.968 296.733 171.76C296.197 171.544 295.733 171.244 295.341 170.86C294.949 170.476 294.641 170.024 294.417 169.504C294.201 168.984 294.093 168.416 294.093 167.8C294.093 167.184 294.201 166.616 294.417 166.096C294.641 165.576 294.949 165.124 295.341 164.74C295.741 164.356 296.209 164.06 296.745 163.852C297.281 163.636 297.865 163.528 298.497 163.528C299.105 163.528 299.677 163.632 300.213 163.84C300.749 164.04 301.201 164.344 301.569 164.752L301.005 165.316C300.661 164.964 300.281 164.712 299.865 164.56C299.449 164.4 299.001 164.32 298.521 164.32C298.017 164.32 297.549 164.408 297.117 164.584C296.685 164.752 296.309 164.996 295.989 165.316C295.669 165.628 295.417 165.996 295.233 166.42C295.057 166.836 294.969 167.296 294.969 167.8C294.969 168.304 295.057 168.768 295.233 169.192C295.417 169.608 295.669 169.976 295.989 170.296C296.309 170.608 296.685 170.852 297.117 171.028C297.549 171.196 298.017 171.28 298.521 171.28C299.001 171.28 299.449 171.2 299.865 171.04C300.281 170.88 300.661 170.624 301.005 170.272L301.569 170.836C301.201 171.244 300.749 171.552 300.213 171.76C299.677 171.968 299.101 172.072 298.485 172.072ZM305.569 172.06C304.961 172.06 304.413 171.924 303.925 171.652C303.445 171.372 303.065 170.992 302.785 170.512C302.505 170.024 302.365 169.468 302.365 168.844C302.365 168.212 302.505 167.656 302.785 167.176C303.065 166.696 303.445 166.32 303.925 166.048C304.405 165.776 304.953 165.64 305.569 165.64C306.193 165.64 306.745 165.776 307.225 166.048C307.713 166.32 308.093 166.696 308.365 167.176C308.645 167.656 308.785 168.212 308.785 168.844C308.785 169.468 308.645 170.024 308.365 170.512C308.093 170.992 307.713 171.372 307.225 171.652C306.737 171.924 306.185 172.06 305.569 172.06ZM305.569 171.304C306.025 171.304 306.429 171.204 306.781 171.004C307.133 170.796 307.409 170.508 307.609 170.14C307.817 169.764 307.921 169.332 307.921 168.844C307.921 168.348 307.817 167.916 307.609 167.548C307.409 167.18 307.133 166.896 306.781 166.696C306.429 166.488 306.029 166.384 305.581 166.384C305.133 166.384 304.733 166.488 304.381 166.696C304.029 166.896 303.749 167.18 303.541 167.548C303.333 167.916 303.229 168.348 303.229 168.844C303.229 169.332 303.333 169.764 303.541 170.14C303.749 170.508 304.029 170.796 304.381 171.004C304.733 171.204 305.129 171.304 305.569 171.304ZM318.396 165.64C318.908 165.64 319.352 165.74 319.728 165.94C320.112 166.132 320.408 166.428 320.616 166.828C320.832 167.228 320.94 167.732 320.94 168.34V172H320.088V168.424C320.088 167.76 319.928 167.26 319.608 166.924C319.296 166.58 318.852 166.408 318.276 166.408C317.844 166.408 317.468 166.5 317.148 166.684C316.836 166.86 316.592 167.12 316.416 167.464C316.248 167.8 316.164 168.208 316.164 168.688V172H315.312V168.424C315.312 167.76 315.152 167.26 314.832 166.924C314.512 166.58 314.064 166.408 313.488 166.408C313.064 166.408 312.692 166.5 312.372 166.684C312.052 166.86 311.804 167.12 311.628 167.464C311.46 167.8 311.376 168.208 311.376 168.688V172H310.524V165.7H311.34V167.404L311.208 167.104C311.4 166.648 311.708 166.292 312.132 166.036C312.564 165.772 313.072 165.64 313.656 165.64C314.272 165.64 314.796 165.796 315.228 166.108C315.66 166.412 315.94 166.872 316.068 167.488L315.732 167.356C315.916 166.844 316.24 166.432 316.704 166.12C317.176 165.8 317.74 165.64 318.396 165.64ZM326.503 172.06C325.959 172.06 325.467 171.936 325.027 171.688C324.587 171.432 324.235 171.068 323.971 170.596C323.715 170.116 323.587 169.532 323.587 168.844C323.587 168.156 323.715 167.576 323.971 167.104C324.227 166.624 324.575 166.26 325.015 166.012C325.455 165.764 325.951 165.64 326.503 165.64C327.103 165.64 327.639 165.776 328.111 166.048C328.591 166.312 328.967 166.688 329.239 167.176C329.511 167.656 329.647 168.212 329.647 168.844C329.647 169.484 329.511 170.044 329.239 170.524C328.967 171.004 328.591 171.38 328.111 171.652C327.639 171.924 327.103 172.06 326.503 172.06ZM323.251 174.328V165.7H324.067V167.596L323.983 168.856L324.103 170.128V174.328H323.251ZM326.443 171.304C326.891 171.304 327.291 171.204 327.643 171.004C327.995 170.796 328.275 170.508 328.483 170.14C328.691 169.764 328.795 169.332 328.795 168.844C328.795 168.356 328.691 167.928 328.483 167.56C328.275 167.192 327.995 166.904 327.643 166.696C327.291 166.488 326.891 166.384 326.443 166.384C325.995 166.384 325.591 166.488 325.23 166.696C324.879 166.904 324.599 167.192 324.391 167.56C324.191 167.928 324.091 168.356 324.091 168.844C324.091 169.332 324.191 169.764 324.391 170.14C324.599 170.508 324.879 170.796 325.23 171.004C325.591 171.204 325.995 171.304 326.443 171.304ZM335.296 172V170.608L335.26 170.38V168.052C335.26 167.516 335.108 167.104 334.804 166.816C334.508 166.528 334.064 166.384 333.472 166.384C333.064 166.384 332.676 166.452 332.308 166.588C331.94 166.724 331.628 166.904 331.372 167.128L330.988 166.492C331.308 166.22 331.692 166.012 332.14 165.868C332.588 165.716 333.06 165.64 333.556 165.64C334.372 165.64 335 165.844 335.44 166.252C335.888 166.652 336.112 167.264 336.112 168.088V172H335.296ZM333.124 172.06C332.652 172.06 332.24 171.984 331.888 171.832C331.544 171.672 331.28 171.456 331.096 171.184C330.912 170.904 330.82 170.584 330.82 170.224C330.82 169.896 330.896 169.6 331.048 169.336C331.208 169.064 331.464 168.848 331.816 168.688C332.176 168.52 332.656 168.436 333.256 168.436H335.428V169.072H333.28C332.672 169.072 332.248 169.18 332.008 169.396C331.776 169.612 331.66 169.88 331.66 170.2C331.66 170.56 331.8 170.848 332.08 171.064C332.36 171.28 332.752 171.388 333.256 171.388C333.736 171.388 334.148 171.28 334.492 171.064C334.844 170.84 335.1 170.52 335.26 170.104L335.452 170.692C335.292 171.108 335.012 171.44 334.612 171.688C334.22 171.936 333.724 172.06 333.124 172.06ZM341.642 165.64C342.154 165.64 342.602 165.74 342.986 165.94C343.378 166.132 343.682 166.428 343.898 166.828C344.122 167.228 344.234 167.732 344.234 168.34V172H343.382V168.424C343.382 167.76 343.214 167.26 342.878 166.924C342.55 166.58 342.086 166.408 341.486 166.408C341.038 166.408 340.646 166.5 340.31 166.684C339.982 166.86 339.726 167.12 339.542 167.464C339.366 167.8 339.278 168.208 339.278 168.688V172H338.426V165.7H339.242V167.428L339.11 167.104C339.31 166.648 339.63 166.292 340.07 166.036C340.51 165.772 341.034 165.64 341.642 165.64ZM346.466 174.388C346.17 174.388 345.886 174.34 345.614 174.244C345.35 174.148 345.122 174.004 344.93 173.812L345.326 173.176C345.486 173.328 345.658 173.444 345.842 173.524C346.034 173.612 346.246 173.656 346.478 173.656C346.758 173.656 346.998 173.576 347.198 173.416C347.406 173.264 347.602 172.992 347.786 172.6L348.194 171.676L348.29 171.544L350.882 165.7H351.722L348.566 172.756C348.39 173.164 348.194 173.488 347.978 173.728C347.77 173.968 347.542 174.136 347.294 174.232C347.046 174.336 346.77 174.388 346.466 174.388ZM348.146 172.18L345.242 165.7H346.13L348.698 171.484L348.146 172.18ZM356.243 172V163.6H359.387C360.099 163.6 360.711 163.716 361.223 163.948C361.735 164.172 362.127 164.5 362.399 164.932C362.679 165.356 362.819 165.872 362.819 166.48C362.819 167.072 362.679 167.584 362.399 168.016C362.127 168.44 361.735 168.768 361.223 169C360.711 169.232 360.099 169.348 359.387 169.348H356.735L357.131 168.928V172H356.243ZM357.131 169L356.735 168.568H359.363C360.203 168.568 360.839 168.388 361.271 168.028C361.711 167.66 361.931 167.144 361.931 166.48C361.931 165.808 361.711 165.288 361.271 164.92C360.839 164.552 360.203 164.368 359.363 164.368H356.735L357.131 163.948V169ZM364.407 172V165.7H365.223V167.416L365.139 167.116C365.315 166.636 365.611 166.272 366.027 166.024C366.443 165.768 366.959 165.64 367.575 165.64V166.468C367.543 166.468 367.511 166.468 367.479 166.468C367.447 166.46 367.415 166.456 367.383 166.456C366.719 166.456 366.199 166.66 365.823 167.068C365.447 167.468 365.259 168.04 365.259 168.784V172H364.407ZM371.639 172.06C371.031 172.06 370.483 171.924 369.995 171.652C369.515 171.372 369.135 170.992 368.855 170.512C368.575 170.024 368.435 169.468 368.435 168.844C368.435 168.212 368.575 167.656 368.855 167.176C369.135 166.696 369.515 166.32 369.995 166.048C370.475 165.776 371.023 165.64 371.639 165.64C372.263 165.64 372.815 165.776 373.295 166.048C373.783 166.32 374.163 166.696 374.435 167.176C374.715 167.656 374.855 168.212 374.855 168.844C374.855 169.468 374.715 170.024 374.435 170.512C374.163 170.992 373.783 171.372 373.295 171.652C372.807 171.924 372.255 172.06 371.639 172.06ZM371.639 171.304C372.095 171.304 372.499 171.204 372.851 171.004C373.203 170.796 373.479 170.508 373.679 170.14C373.887 169.764 373.991 169.332 373.991 168.844C373.991 168.348 373.887 167.916 373.679 167.548C373.479 167.18 373.203 166.896 372.851 166.696C372.499 166.488 372.099 166.384 371.651 166.384C371.203 166.384 370.803 166.488 370.451 166.696C370.099 166.896 369.819 167.18 369.611 167.548C369.403 167.916 369.299 168.348 369.299 168.844C369.299 169.332 369.403 169.764 369.611 170.14C369.819 170.508 370.099 170.796 370.451 171.004C370.803 171.204 371.199 171.304 371.639 171.304ZM376.738 172V164.908C376.738 164.348 376.902 163.896 377.23 163.552C377.558 163.208 378.03 163.036 378.646 163.036C378.886 163.036 379.118 163.068 379.342 163.132C379.566 163.196 379.754 163.296 379.906 163.432L379.618 164.068C379.498 163.964 379.358 163.888 379.198 163.84C379.038 163.784 378.866 163.756 378.682 163.756C378.322 163.756 378.046 163.856 377.854 164.056C377.662 164.256 377.566 164.552 377.566 164.944V165.904L377.59 166.3V172H376.738ZM375.61 166.408V165.7H379.51V166.408H375.61ZM380.662 172V165.7H381.514V172H380.662ZM381.094 164.308C380.918 164.308 380.77 164.248 380.65 164.128C380.53 164.008 380.47 163.864 380.47 163.696C380.47 163.528 380.53 163.388 380.65 163.276C380.77 163.156 380.918 163.096 381.094 163.096C381.27 163.096 381.418 163.152 381.538 163.264C381.658 163.376 381.718 163.516 381.718 163.684C381.718 163.86 381.658 164.008 381.538 164.128C381.426 164.248 381.278 164.308 381.094 164.308ZM383.907 172V163.096H384.759V172H383.907ZM389.805 172.06C389.149 172.06 388.573 171.924 388.077 171.652C387.581 171.372 387.193 170.992 386.913 170.512C386.633 170.024 386.493 169.468 386.493 168.844C386.493 168.22 386.625 167.668 386.889 167.188C387.161 166.708 387.529 166.332 387.993 166.06C388.465 165.78 388.993 165.64 389.577 165.64C390.169 165.64 390.693 165.776 391.149 166.048C391.613 166.312 391.977 166.688 392.241 167.176C392.505 167.656 392.637 168.212 392.637 168.844C392.637 168.884 392.633 168.928 392.625 168.976C392.625 169.016 392.625 169.06 392.625 169.108H387.141V168.472H392.169L391.833 168.724C391.833 168.268 391.733 167.864 391.533 167.512C391.341 167.152 391.077 166.872 390.741 166.672C390.405 166.472 390.017 166.372 389.577 166.372C389.145 166.372 388.757 166.472 388.413 166.672C388.069 166.872 387.801 167.152 387.609 167.512C387.417 167.872 387.321 168.284 387.321 168.748V168.88C387.321 169.36 387.425 169.784 387.633 170.152C387.849 170.512 388.145 170.796 388.521 171.004C388.905 171.204 389.341 171.304 389.829 171.304C390.213 171.304 390.569 171.236 390.897 171.1C391.233 170.964 391.521 170.756 391.761 170.476L392.241 171.028C391.961 171.364 391.609 171.62 391.185 171.796C390.769 171.972 390.309 172.06 389.805 172.06Z" fill="black"/>
<line x1="367.953" y1="177.435" x2="367.953" y2="434.302" stroke="#C9C8C5" stroke-width="0.5"/>
<path d="M284.14 220V213H287.16C287.94 213 288.543 213.157 288.97 213.47C289.403 213.783 289.62 214.227 289.62 214.8C289.62 215.18 289.53 215.5 289.35 215.76C289.177 216.02 288.937 216.217 288.63 216.35C288.33 216.483 288 216.55 287.64 216.55L287.81 216.31C288.257 216.31 288.64 216.38 288.96 216.52C289.287 216.653 289.54 216.857 289.72 217.13C289.9 217.397 289.99 217.73 289.99 218.13C289.99 218.723 289.77 219.183 289.33 219.51C288.897 219.837 288.24 220 287.36 220H284.14ZM284.88 219.39H287.35C287.963 219.39 288.433 219.287 288.76 219.08C289.087 218.867 289.25 218.53 289.25 218.07C289.25 217.617 289.087 217.287 288.76 217.08C288.433 216.867 287.963 216.76 287.35 216.76H284.8V216.15H287.11C287.67 216.15 288.103 216.043 288.41 215.83C288.723 215.617 288.88 215.3 288.88 214.88C288.88 214.453 288.723 214.137 288.41 213.93C288.103 213.717 287.67 213.61 287.11 213.61H284.88V219.39ZM294.819 220V218.84L294.789 218.65V216.71C294.789 216.263 294.662 215.92 294.409 215.68C294.162 215.44 293.792 215.32 293.299 215.32C292.959 215.32 292.636 215.377 292.329 215.49C292.022 215.603 291.762 215.753 291.549 215.94L291.229 215.41C291.496 215.183 291.816 215.01 292.189 214.89C292.562 214.763 292.956 214.7 293.369 214.7C294.049 214.7 294.572 214.87 294.939 215.21C295.312 215.543 295.499 216.053 295.499 216.74V220H294.819ZM293.009 220.05C292.616 220.05 292.272 219.987 291.979 219.86C291.692 219.727 291.472 219.547 291.319 219.32C291.166 219.087 291.089 218.82 291.089 218.52C291.089 218.247 291.152 218 291.279 217.78C291.412 217.553 291.626 217.373 291.919 217.24C292.219 217.1 292.619 217.03 293.119 217.03H294.929V217.56H293.139C292.632 217.56 292.279 217.65 292.079 217.83C291.886 218.01 291.789 218.233 291.789 218.5C291.789 218.8 291.906 219.04 292.139 219.22C292.372 219.4 292.699 219.49 293.119 219.49C293.519 219.49 293.862 219.4 294.149 219.22C294.442 219.033 294.656 218.767 294.789 218.42L294.949 218.91C294.816 219.257 294.582 219.533 294.249 219.74C293.922 219.947 293.509 220.05 293.009 220.05ZM298.838 220.05C298.404 220.05 297.994 219.99 297.608 219.87C297.221 219.743 296.918 219.587 296.698 219.4L297.018 218.84C297.231 219 297.504 219.14 297.838 219.26C298.171 219.373 298.521 219.43 298.888 219.43C299.388 219.43 299.748 219.353 299.968 219.2C300.188 219.04 300.298 218.83 300.298 218.57C300.298 218.377 300.234 218.227 300.108 218.12C299.988 218.007 299.828 217.923 299.628 217.87C299.428 217.81 299.204 217.76 298.958 217.72C298.711 217.68 298.464 217.633 298.218 217.58C297.978 217.527 297.758 217.45 297.558 217.35C297.358 217.243 297.194 217.1 297.068 216.92C296.948 216.74 296.888 216.5 296.888 216.2C296.888 215.913 296.968 215.657 297.128 215.43C297.288 215.203 297.521 215.027 297.828 214.9C298.141 214.767 298.521 214.7 298.968 214.7C299.308 214.7 299.648 214.747 299.988 214.84C300.328 214.927 300.608 215.043 300.828 215.19L300.518 215.76C300.284 215.6 300.034 215.487 299.768 215.42C299.501 215.347 299.234 215.31 298.968 215.31C298.494 215.31 298.144 215.393 297.918 215.56C297.698 215.72 297.588 215.927 297.588 216.18C297.588 216.38 297.648 216.537 297.768 216.65C297.894 216.763 298.058 216.853 298.258 216.92C298.464 216.98 298.688 217.03 298.928 217.07C299.174 217.11 299.418 217.16 299.658 217.22C299.904 217.273 300.128 217.35 300.328 217.45C300.534 217.543 300.698 217.68 300.818 217.86C300.944 218.033 301.008 218.263 301.008 218.55C301.008 218.857 300.921 219.123 300.748 219.35C300.581 219.57 300.334 219.743 300.008 219.87C299.688 219.99 299.298 220.05 298.838 220.05ZM302.31 220V214.75H303.02V220H302.31ZM302.67 213.59C302.524 213.59 302.4 213.54 302.3 213.44C302.2 213.34 302.15 213.22 302.15 213.08C302.15 212.94 302.2 212.823 302.3 212.73C302.4 212.63 302.524 212.58 302.67 212.58C302.817 212.58 302.94 212.627 303.04 212.72C303.14 212.813 303.19 212.93 303.19 213.07C303.19 213.217 303.14 213.34 303.04 213.44C302.947 213.54 302.824 213.59 302.67 213.59ZM307.176 220.05C306.656 220.05 306.189 219.937 305.776 219.71C305.369 219.477 305.049 219.16 304.816 218.76C304.583 218.353 304.466 217.89 304.466 217.37C304.466 216.843 304.583 216.38 304.816 215.98C305.049 215.58 305.369 215.267 305.776 215.04C306.189 214.813 306.656 214.7 307.176 214.7C307.623 214.7 308.026 214.787 308.386 214.96C308.746 215.133 309.029 215.393 309.236 215.74L308.706 216.1C308.526 215.833 308.303 215.637 308.036 215.51C307.769 215.383 307.479 215.32 307.166 215.32C306.793 215.32 306.456 215.407 306.156 215.58C305.856 215.747 305.619 215.983 305.446 216.29C305.273 216.597 305.186 216.957 305.186 217.37C305.186 217.783 305.273 218.143 305.446 218.45C305.619 218.757 305.856 218.997 306.156 219.17C306.456 219.337 306.793 219.42 307.166 219.42C307.479 219.42 307.769 219.357 308.036 219.23C308.303 219.103 308.526 218.91 308.706 218.65L309.236 219.01C309.029 219.35 308.746 219.61 308.386 219.79C308.026 219.963 307.623 220.05 307.176 220.05ZM313.398 220V213H314.138V220H313.398ZM318.945 214.7C319.372 214.7 319.745 214.783 320.065 214.95C320.392 215.11 320.645 215.357 320.825 215.69C321.012 216.023 321.105 216.443 321.105 216.95V220H320.395V217.02C320.395 216.467 320.255 216.05 319.975 215.77C319.702 215.483 319.315 215.34 318.815 215.34C318.442 215.34 318.115 215.417 317.835 215.57C317.562 215.717 317.349 215.933 317.195 216.22C317.049 216.5 316.975 216.84 316.975 217.24V220H316.265V214.75H316.945V216.19L316.835 215.92C317.002 215.54 317.269 215.243 317.635 215.03C318.002 214.81 318.439 214.7 318.945 214.7ZM323.143 220V214.09C323.143 213.623 323.28 213.247 323.553 212.96C323.827 212.673 324.22 212.53 324.733 212.53C324.933 212.53 325.127 212.557 325.313 212.61C325.5 212.663 325.657 212.747 325.783 212.86L325.543 213.39C325.443 213.303 325.327 213.24 325.193 213.2C325.06 213.153 324.917 213.13 324.763 213.13C324.463 213.13 324.233 213.213 324.073 213.38C323.913 213.547 323.833 213.793 323.833 214.12V214.92L323.853 215.25V220H323.143ZM322.203 215.34V214.75H325.453V215.34H322.203ZM328.464 220.05C327.957 220.05 327.501 219.937 327.094 219.71C326.694 219.477 326.377 219.16 326.144 218.76C325.911 218.353 325.794 217.89 325.794 217.37C325.794 216.843 325.911 216.38 326.144 215.98C326.377 215.58 326.694 215.267 327.094 215.04C327.494 214.813 327.951 214.7 328.464 214.7C328.984 214.7 329.444 214.813 329.844 215.04C330.251 215.267 330.567 215.58 330.794 215.98C331.027 216.38 331.144 216.843 331.144 217.37C331.144 217.89 331.027 218.353 330.794 218.76C330.567 219.16 330.251 219.477 329.844 219.71C329.437 219.937 328.977 220.05 328.464 220.05ZM328.464 219.42C328.844 219.42 329.181 219.337 329.474 219.17C329.767 218.997 329.997 218.757 330.164 218.45C330.337 218.137 330.424 217.777 330.424 217.37C330.424 216.957 330.337 216.597 330.164 216.29C329.997 215.983 329.767 215.747 329.474 215.58C329.181 215.407 328.847 215.32 328.474 215.32C328.101 215.32 327.767 215.407 327.474 215.58C327.181 215.747 326.947 215.983 326.774 216.29C326.601 216.597 326.514 216.957 326.514 217.37C326.514 217.777 326.601 218.137 326.774 218.45C326.947 218.757 327.181 218.997 327.474 219.17C327.767 219.337 328.097 219.42 328.464 219.42Z" fill="black"/>
<path d="M383.14 203V196H386.16C386.94 196 387.543 196.157 387.97 196.47C388.403 196.783 388.62 197.227 388.62 197.8C388.62 198.18 388.53 198.5 388.35 198.76C388.177 199.02 387.937 199.217 387.63 199.35C387.33 199.483 387 199.55 386.64 199.55L386.81 199.31C387.257 199.31 387.64 199.38 387.96 199.52C388.287 199.653 388.54 199.857 388.72 200.13C388.9 200.397 388.99 200.73 388.99 201.13C388.99 201.723 388.77 202.183 388.33 202.51C387.897 202.837 387.24 203 386.36 203H383.14ZM383.88 202.39H386.35C386.963 202.39 387.433 202.287 387.76 202.08C388.087 201.867 388.25 201.53 388.25 201.07C388.25 200.617 388.087 200.287 387.76 200.08C387.433 199.867 386.963 199.76 386.35 199.76H383.8V199.15H386.11C386.67 199.15 387.103 199.043 387.41 198.83C387.723 198.617 387.88 198.3 387.88 197.88C387.88 197.453 387.723 197.137 387.41 196.93C387.103 196.717 386.67 196.61 386.11 196.61H383.88V202.39ZM393.819 203V201.84L393.789 201.65V199.71C393.789 199.263 393.662 198.92 393.409 198.68C393.162 198.44 392.792 198.32 392.299 198.32C391.959 198.32 391.636 198.377 391.329 198.49C391.022 198.603 390.762 198.753 390.549 198.94L390.229 198.41C390.496 198.183 390.816 198.01 391.189 197.89C391.562 197.763 391.956 197.7 392.369 197.7C393.049 197.7 393.572 197.87 393.939 198.21C394.312 198.543 394.499 199.053 394.499 199.74V203H393.819ZM392.009 203.05C391.616 203.05 391.272 202.987 390.979 202.86C390.692 202.727 390.472 202.547 390.319 202.32C390.166 202.087 390.089 201.82 390.089 201.52C390.089 201.247 390.152 201 390.279 200.78C390.412 200.553 390.626 200.373 390.919 200.24C391.219 200.1 391.619 200.03 392.119 200.03H393.929V200.56H392.139C391.632 200.56 391.279 200.65 391.079 200.83C390.886 201.01 390.789 201.233 390.789 201.5C390.789 201.8 390.906 202.04 391.139 202.22C391.372 202.4 391.699 202.49 392.119 202.49C392.519 202.49 392.862 202.4 393.149 202.22C393.442 202.033 393.656 201.767 393.789 201.42L393.949 201.91C393.816 202.257 393.582 202.533 393.249 202.74C392.922 202.947 392.509 203.05 392.009 203.05ZM397.838 203.05C397.404 203.05 396.994 202.99 396.608 202.87C396.221 202.743 395.918 202.587 395.698 202.4L396.018 201.84C396.231 202 396.504 202.14 396.838 202.26C397.171 202.373 397.521 202.43 397.888 202.43C398.388 202.43 398.748 202.353 398.968 202.2C399.188 202.04 399.298 201.83 399.298 201.57C399.298 201.377 399.234 201.227 399.108 201.12C398.988 201.007 398.828 200.923 398.628 200.87C398.428 200.81 398.204 200.76 397.958 200.72C397.711 200.68 397.464 200.633 397.218 200.58C396.978 200.527 396.758 200.45 396.558 200.35C396.358 200.243 396.194 200.1 396.068 199.92C395.948 199.74 395.888 199.5 395.888 199.2C395.888 198.913 395.968 198.657 396.128 198.43C396.288 198.203 396.521 198.027 396.828 197.9C397.141 197.767 397.521 197.7 397.968 197.7C398.308 197.7 398.648 197.747 398.988 197.84C399.328 197.927 399.608 198.043 399.828 198.19L399.518 198.76C399.284 198.6 399.034 198.487 398.768 198.42C398.501 198.347 398.234 198.31 397.968 198.31C397.494 198.31 397.144 198.393 396.918 198.56C396.698 198.72 396.588 198.927 396.588 199.18C396.588 199.38 396.648 199.537 396.768 199.65C396.894 199.763 397.058 199.853 397.258 199.92C397.464 199.98 397.688 200.03 397.928 200.07C398.174 200.11 398.418 200.16 398.658 200.22C398.904 200.273 399.128 200.35 399.328 200.45C399.534 200.543 399.698 200.68 399.818 200.86C399.944 201.033 400.008 201.263 400.008 201.55C400.008 201.857 399.921 202.123 399.748 202.35C399.581 202.57 399.334 202.743 399.008 202.87C398.688 202.99 398.298 203.05 397.838 203.05ZM401.31 203V197.75H402.02V203H401.31ZM401.67 196.59C401.524 196.59 401.4 196.54 401.3 196.44C401.2 196.34 401.15 196.22 401.15 196.08C401.15 195.94 401.2 195.823 401.3 195.73C401.4 195.63 401.524 195.58 401.67 195.58C401.817 195.58 401.94 195.627 402.04 195.72C402.14 195.813 402.19 195.93 402.19 196.07C402.19 196.217 402.14 196.34 402.04 196.44C401.947 196.54 401.824 196.59 401.67 196.59ZM406.176 203.05C405.656 203.05 405.189 202.937 404.776 202.71C404.369 202.477 404.049 202.16 403.816 201.76C403.583 201.353 403.466 200.89 403.466 200.37C403.466 199.843 403.583 199.38 403.816 198.98C404.049 198.58 404.369 198.267 404.776 198.04C405.189 197.813 405.656 197.7 406.176 197.7C406.623 197.7 407.026 197.787 407.386 197.96C407.746 198.133 408.029 198.393 408.236 198.74L407.706 199.1C407.526 198.833 407.303 198.637 407.036 198.51C406.769 198.383 406.479 198.32 406.166 198.32C405.793 198.32 405.456 198.407 405.156 198.58C404.856 198.747 404.619 198.983 404.446 199.29C404.273 199.597 404.186 199.957 404.186 200.37C404.186 200.783 404.273 201.143 404.446 201.45C404.619 201.757 404.856 201.997 405.156 202.17C405.456 202.337 405.793 202.42 406.166 202.42C406.479 202.42 406.769 202.357 407.036 202.23C407.303 202.103 407.526 201.91 407.706 201.65L408.236 202.01C408.029 202.35 407.746 202.61 407.386 202.79C407.026 202.963 406.623 203.05 406.176 203.05ZM412.398 203V196H413.138V203H412.398ZM417.945 197.7C418.372 197.7 418.745 197.783 419.065 197.95C419.392 198.11 419.645 198.357 419.825 198.69C420.012 199.023 420.105 199.443 420.105 199.95V203H419.395V200.02C419.395 199.467 419.255 199.05 418.975 198.77C418.702 198.483 418.315 198.34 417.815 198.34C417.442 198.34 417.115 198.417 416.835 198.57C416.562 198.717 416.349 198.933 416.195 199.22C416.049 199.5 415.975 199.84 415.975 200.24V203H415.265V197.75H415.945V199.19L415.835 198.92C416.002 198.54 416.269 198.243 416.635 198.03C417.002 197.81 417.439 197.7 417.945 197.7ZM422.143 203V197.09C422.143 196.623 422.28 196.247 422.553 195.96C422.827 195.673 423.22 195.53 423.733 195.53C423.933 195.53 424.127 195.557 424.313 195.61C424.5 195.663 424.657 195.747 424.783 195.86L424.543 196.39C424.443 196.303 424.327 196.24 424.193 196.2C424.06 196.153 423.917 196.13 423.763 196.13C423.463 196.13 423.233 196.213 423.073 196.38C422.913 196.547 422.833 196.793 422.833 197.12V197.92L422.853 198.25V203H422.143ZM421.203 198.34V197.75H424.453V198.34H421.203ZM427.464 203.05C426.957 203.05 426.501 202.937 426.094 202.71C425.694 202.477 425.377 202.16 425.144 201.76C424.911 201.353 424.794 200.89 424.794 200.37C424.794 199.843 424.911 199.38 425.144 198.98C425.377 198.58 425.694 198.267 426.094 198.04C426.494 197.813 426.951 197.7 427.464 197.7C427.984 197.7 428.444 197.813 428.844 198.04C429.251 198.267 429.567 198.58 429.794 198.98C430.027 199.38 430.144 199.843 430.144 200.37C430.144 200.89 430.027 201.353 429.794 201.76C429.567 202.16 429.251 202.477 428.844 202.71C428.437 202.937 427.977 203.05 427.464 203.05ZM427.464 202.42C427.844 202.42 428.181 202.337 428.474 202.17C428.767 201.997 428.997 201.757 429.164 201.45C429.337 201.137 429.424 200.777 429.424 200.37C429.424 199.957 429.337 199.597 429.164 199.29C428.997 198.983 428.767 198.747 428.474 198.58C428.181 198.407 427.847 198.32 427.474 198.32C427.101 198.32 426.767 198.407 426.474 198.58C426.181 198.747 425.947 198.983 425.774 199.29C425.601 199.597 425.514 199.957 425.514 200.37C425.514 200.777 425.601 201.137 425.774 201.45C425.947 201.757 426.181 201.997 426.474 202.17C426.767 202.337 427.097 202.42 427.464 202.42Z" fill="#706E66"/>
<path d="M286.07 267.06C285.55 267.06 285.05 266.977 284.57 266.81C284.097 266.637 283.73 266.417 283.47 266.15L283.76 265.58C284.007 265.82 284.337 266.023 284.75 266.19C285.17 266.35 285.61 266.43 286.07 266.43C286.51 266.43 286.867 266.377 287.14 266.27C287.42 266.157 287.623 266.007 287.75 265.82C287.883 265.633 287.95 265.427 287.95 265.2C287.95 264.927 287.87 264.707 287.71 264.54C287.557 264.373 287.353 264.243 287.1 264.15C286.847 264.05 286.567 263.963 286.26 263.89C285.953 263.817 285.647 263.74 285.34 263.66C285.033 263.573 284.75 263.46 284.49 263.32C284.237 263.18 284.03 262.997 283.87 262.77C283.717 262.537 283.64 262.233 283.64 261.86C283.64 261.513 283.73 261.197 283.91 260.91C284.097 260.617 284.38 260.383 284.76 260.21C285.14 260.03 285.627 259.94 286.22 259.94C286.613 259.94 287.003 259.997 287.39 260.11C287.777 260.217 288.11 260.367 288.39 260.56L288.14 261.15C287.84 260.95 287.52 260.803 287.18 260.71C286.847 260.617 286.523 260.57 286.21 260.57C285.79 260.57 285.443 260.627 285.17 260.74C284.897 260.853 284.693 261.007 284.56 261.2C284.433 261.387 284.37 261.6 284.37 261.84C284.37 262.113 284.447 262.333 284.6 262.5C284.76 262.667 284.967 262.797 285.22 262.89C285.48 262.983 285.763 263.067 286.07 263.14C286.377 263.213 286.68 263.293 286.98 263.38C287.287 263.467 287.567 263.58 287.82 263.72C288.08 263.853 288.287 264.033 288.44 264.26C288.6 264.487 288.68 264.783 288.68 265.15C288.68 265.49 288.587 265.807 288.4 266.1C288.213 266.387 287.927 266.62 287.54 266.8C287.16 266.973 286.67 267.06 286.07 267.06ZM292.282 267.05C291.776 267.05 291.319 266.937 290.912 266.71C290.512 266.477 290.196 266.16 289.962 265.76C289.729 265.353 289.612 264.89 289.612 264.37C289.612 263.843 289.729 263.38 289.962 262.98C290.196 262.58 290.512 262.267 290.912 262.04C291.312 261.813 291.769 261.7 292.282 261.7C292.802 261.7 293.262 261.813 293.662 262.04C294.069 262.267 294.386 262.58 294.612 262.98C294.846 263.38 294.962 263.843 294.962 264.37C294.962 264.89 294.846 265.353 294.612 265.76C294.386 266.16 294.069 266.477 293.662 266.71C293.256 266.937 292.796 267.05 292.282 267.05ZM292.282 266.42C292.662 266.42 292.999 266.337 293.292 266.17C293.586 265.997 293.816 265.757 293.982 265.45C294.156 265.137 294.242 264.777 294.242 264.37C294.242 263.957 294.156 263.597 293.982 263.29C293.816 262.983 293.586 262.747 293.292 262.58C292.999 262.407 292.666 262.32 292.292 262.32C291.919 262.32 291.586 262.407 291.292 262.58C290.999 262.747 290.766 262.983 290.592 263.29C290.419 263.597 290.332 263.957 290.332 264.37C290.332 264.777 290.419 265.137 290.592 265.45C290.766 265.757 290.999 265.997 291.292 266.17C291.586 266.337 291.916 266.42 292.282 266.42ZM298.592 267.05C298.072 267.05 297.605 266.937 297.192 266.71C296.785 266.477 296.465 266.16 296.232 265.76C295.999 265.353 295.882 264.89 295.882 264.37C295.882 263.843 295.999 263.38 296.232 262.98C296.465 262.58 296.785 262.267 297.192 262.04C297.605 261.813 298.072 261.7 298.592 261.7C299.039 261.7 299.442 261.787 299.802 261.96C300.162 262.133 300.445 262.393 300.652 262.74L300.122 263.1C299.942 262.833 299.719 262.637 299.452 262.51C299.185 262.383 298.895 262.32 298.582 262.32C298.209 262.32 297.872 262.407 297.572 262.58C297.272 262.747 297.035 262.983 296.862 263.29C296.689 263.597 296.602 263.957 296.602 264.37C296.602 264.783 296.689 265.143 296.862 265.45C297.035 265.757 297.272 265.997 297.572 266.17C297.872 266.337 298.209 266.42 298.582 266.42C298.895 266.42 299.185 266.357 299.452 266.23C299.719 266.103 299.942 265.91 300.122 265.65L300.652 266.01C300.445 266.35 300.162 266.61 299.802 266.79C299.442 266.963 299.039 267.05 298.592 267.05ZM301.969 267V261.75H302.679V267H301.969ZM302.329 260.59C302.182 260.59 302.059 260.54 301.959 260.44C301.859 260.34 301.809 260.22 301.809 260.08C301.809 259.94 301.859 259.823 301.959 259.73C302.059 259.63 302.182 259.58 302.329 259.58C302.475 259.58 302.599 259.627 302.699 259.72C302.799 259.813 302.849 259.93 302.849 260.07C302.849 260.217 302.799 260.34 302.699 260.44C302.605 260.54 302.482 260.59 302.329 260.59ZM307.944 267V265.84L307.914 265.65V263.71C307.914 263.263 307.787 262.92 307.534 262.68C307.287 262.44 306.917 262.32 306.424 262.32C306.084 262.32 305.761 262.377 305.454 262.49C305.147 262.603 304.887 262.753 304.674 262.94L304.354 262.41C304.621 262.183 304.941 262.01 305.314 261.89C305.687 261.763 306.081 261.7 306.494 261.7C307.174 261.7 307.697 261.87 308.064 262.21C308.437 262.543 308.624 263.053 308.624 263.74V267H307.944ZM306.134 267.05C305.741 267.05 305.397 266.987 305.104 266.86C304.817 266.727 304.597 266.547 304.444 266.32C304.291 266.087 304.214 265.82 304.214 265.52C304.214 265.247 304.277 265 304.404 264.78C304.537 264.553 304.751 264.373 305.044 264.24C305.344 264.1 305.744 264.03 306.244 264.03H308.054V264.56H306.264C305.757 264.56 305.404 264.65 305.204 264.83C305.011 265.01 304.914 265.233 304.914 265.5C304.914 265.8 305.031 266.04 305.264 266.22C305.497 266.4 305.824 266.49 306.244 266.49C306.644 266.49 306.987 266.4 307.274 266.22C307.567 266.033 307.781 265.767 307.914 265.42L308.074 265.91C307.941 266.257 307.707 266.533 307.374 266.74C307.047 266.947 306.634 267.05 306.134 267.05ZM310.553 267V259.58H311.263V267H310.553ZM316.005 267V260H316.745V267H316.005ZM321.553 261.7C321.979 261.7 322.353 261.783 322.673 261.95C322.999 262.11 323.253 262.357 323.433 262.69C323.619 263.023 323.713 263.443 323.713 263.95V267H323.003V264.02C323.003 263.467 322.863 263.05 322.583 262.77C322.309 262.483 321.923 262.34 321.423 262.34C321.049 262.34 320.723 262.417 320.443 262.57C320.169 262.717 319.956 262.933 319.803 263.22C319.656 263.5 319.583 263.84 319.583 264.24V267H318.873V261.75H319.553V263.19L319.443 262.92C319.609 262.54 319.876 262.243 320.243 262.03C320.609 261.81 321.046 261.7 321.553 261.7ZM325.751 267V261.09C325.751 260.623 325.887 260.247 326.161 259.96C326.434 259.673 326.827 259.53 327.341 259.53C327.541 259.53 327.734 259.557 327.921 259.61C328.107 259.663 328.264 259.747 328.391 259.86L328.151 260.39C328.051 260.303 327.934 260.24 327.801 260.2C327.667 260.153 327.524 260.13 327.371 260.13C327.071 260.13 326.841 260.213 326.681 260.38C326.521 260.547 326.441 260.793 326.441 261.12V261.92L326.461 262.25V267H325.751ZM324.811 262.34V261.75H328.061V262.34H324.811ZM331.071 267.05C330.565 267.05 330.108 266.937 329.701 266.71C329.301 266.477 328.985 266.16 328.751 265.76C328.518 265.353 328.401 264.89 328.401 264.37C328.401 263.843 328.518 263.38 328.751 262.98C328.985 262.58 329.301 262.267 329.701 262.04C330.101 261.813 330.558 261.7 331.071 261.7C331.591 261.7 332.051 261.813 332.451 262.04C332.858 262.267 333.175 262.58 333.401 262.98C333.635 263.38 333.751 263.843 333.751 264.37C333.751 264.89 333.635 265.353 333.401 265.76C333.175 266.16 332.858 266.477 332.451 266.71C332.045 266.937 331.585 267.05 331.071 267.05ZM331.071 266.42C331.451 266.42 331.788 266.337 332.081 266.17C332.375 265.997 332.605 265.757 332.771 265.45C332.945 265.137 333.031 264.777 333.031 264.37C333.031 263.957 332.945 263.597 332.771 263.29C332.605 262.983 332.375 262.747 332.081 262.58C331.788 262.407 331.455 262.32 331.081 262.32C330.708 262.32 330.375 262.407 330.081 262.58C329.788 262.747 329.555 262.983 329.381 263.29C329.208 263.597 329.121 263.957 329.121 264.37C329.121 264.777 329.208 265.137 329.381 265.45C329.555 265.757 329.788 265.997 330.081 266.17C330.375 266.337 330.705 266.42 331.071 266.42Z" fill="black"/>
<path d="M283.02 314L286.22 307H286.95L290.15 314H289.37L286.43 307.43H286.73L283.79 314H283.02ZM284.28 312.13L284.5 311.53H288.57L288.79 312.13H284.28ZM293.289 314.05C292.769 314.05 292.302 313.937 291.889 313.71C291.482 313.477 291.162 313.16 290.929 312.76C290.696 312.353 290.579 311.89 290.579 311.37C290.579 310.843 290.696 310.38 290.929 309.98C291.162 309.58 291.482 309.267 291.889 309.04C292.302 308.813 292.769 308.7 293.289 308.7C293.736 308.7 294.139 308.787 294.499 308.96C294.859 309.133 295.142 309.393 295.349 309.74L294.819 310.1C294.639 309.833 294.416 309.637 294.149 309.51C293.882 309.383 293.592 309.32 293.279 309.32C292.906 309.32 292.569 309.407 292.269 309.58C291.969 309.747 291.732 309.983 291.559 310.29C291.386 310.597 291.299 310.957 291.299 311.37C291.299 311.783 291.386 312.143 291.559 312.45C291.732 312.757 291.969 312.997 292.269 313.17C292.569 313.337 292.906 313.42 293.279 313.42C293.592 313.42 293.882 313.357 294.149 313.23C294.416 313.103 294.639 312.91 294.819 312.65L295.349 313.01C295.142 313.35 294.859 313.61 294.499 313.79C294.139 313.963 293.736 314.05 293.289 314.05ZM298.463 314.05C297.969 314.05 297.589 313.917 297.323 313.65C297.056 313.383 296.923 313.007 296.923 312.52V307.59H297.633V312.48C297.633 312.787 297.709 313.023 297.863 313.19C298.023 313.357 298.249 313.44 298.543 313.44C298.856 313.44 299.116 313.35 299.323 313.17L299.573 313.68C299.433 313.807 299.263 313.9 299.063 313.96C298.869 314.02 298.669 314.05 298.463 314.05ZM295.983 309.34V308.75H299.233V309.34H295.983ZM300.865 314V308.75H301.575V314H300.865ZM301.225 307.59C301.078 307.59 300.955 307.54 300.855 307.44C300.755 307.34 300.705 307.22 300.705 307.08C300.705 306.94 300.755 306.823 300.855 306.73C300.955 306.63 301.078 306.58 301.225 306.58C301.372 306.58 301.495 306.627 301.595 306.72C301.695 306.813 301.745 306.93 301.745 307.07C301.745 307.217 301.695 307.34 301.595 307.44C301.502 307.54 301.378 307.59 301.225 307.59ZM304.901 314L302.571 308.75H303.311L305.451 313.62H305.101L307.271 308.75H307.971L305.631 314H304.901ZM308.97 314V308.75H309.68V314H308.97ZM309.33 307.59C309.184 307.59 309.06 307.54 308.96 307.44C308.86 307.34 308.81 307.22 308.81 307.08C308.81 306.94 308.86 306.823 308.96 306.73C309.06 306.63 309.184 306.58 309.33 306.58C309.477 306.58 309.6 306.627 309.7 306.72C309.8 306.813 309.85 306.93 309.85 307.07C309.85 307.217 309.8 307.34 309.7 307.44C309.607 307.54 309.484 307.59 309.33 307.59ZM313.316 314.05C312.823 314.05 312.443 313.917 312.176 313.65C311.909 313.383 311.776 313.007 311.776 312.52V307.59H312.486V312.48C312.486 312.787 312.563 313.023 312.716 313.19C312.876 313.357 313.103 313.44 313.396 313.44C313.709 313.44 313.969 313.35 314.176 313.17L314.426 313.68C314.286 313.807 314.116 313.9 313.916 313.96C313.723 314.02 313.523 314.05 313.316 314.05ZM310.836 309.34V308.75H314.086V309.34H310.836ZM315.661 315.99C315.414 315.99 315.178 315.95 314.951 315.87C314.731 315.79 314.541 315.67 314.381 315.51L314.711 314.98C314.844 315.107 314.988 315.203 315.141 315.27C315.301 315.343 315.478 315.38 315.671 315.38C315.904 315.38 316.104 315.313 316.271 315.18C316.444 315.053 316.608 314.827 316.761 314.5L317.101 313.73L317.181 313.62L319.341 308.75H320.041L317.411 314.63C317.264 314.97 317.101 315.24 316.921 315.44C316.748 315.64 316.558 315.78 316.351 315.86C316.144 315.947 315.914 315.99 315.661 315.99ZM317.061 314.15L314.641 308.75H315.381L317.521 313.57L317.061 314.15ZM323.808 314V307H324.548V314H323.808ZM329.356 308.7C329.782 308.7 330.156 308.783 330.476 308.95C330.802 309.11 331.056 309.357 331.236 309.69C331.422 310.023 331.516 310.443 331.516 310.95V314H330.806V311.02C330.806 310.467 330.666 310.05 330.386 309.77C330.112 309.483 329.726 309.34 329.226 309.34C328.852 309.34 328.526 309.417 328.246 309.57C327.972 309.717 327.759 309.933 327.606 310.22C327.459 310.5 327.386 310.84 327.386 311.24V314H326.676V308.75H327.356V310.19L327.246 309.92C327.412 309.54 327.679 309.243 328.046 309.03C328.412 308.81 328.849 308.7 329.356 308.7ZM333.553 314V308.09C333.553 307.623 333.69 307.247 333.963 306.96C334.237 306.673 334.63 306.53 335.143 306.53C335.343 306.53 335.537 306.557 335.723 306.61C335.91 306.663 336.067 306.747 336.193 306.86L335.953 307.39C335.853 307.303 335.737 307.24 335.603 307.2C335.47 307.153 335.327 307.13 335.173 307.13C334.873 307.13 334.643 307.213 334.483 307.38C334.323 307.547 334.243 307.793 334.243 308.12V308.92L334.263 309.25V314H333.553ZM332.613 309.34V308.75H335.863V309.34H332.613ZM338.874 314.05C338.367 314.05 337.911 313.937 337.504 313.71C337.104 313.477 336.787 313.16 336.554 312.76C336.321 312.353 336.204 311.89 336.204 311.37C336.204 310.843 336.321 310.38 336.554 309.98C336.787 309.58 337.104 309.267 337.504 309.04C337.904 308.813 338.361 308.7 338.874 308.7C339.394 308.7 339.854 308.813 340.254 309.04C340.661 309.267 340.977 309.58 341.204 309.98C341.437 310.38 341.554 310.843 341.554 311.37C341.554 311.89 341.437 312.353 341.204 312.76C340.977 313.16 340.661 313.477 340.254 313.71C339.847 313.937 339.387 314.05 338.874 314.05ZM338.874 313.42C339.254 313.42 339.591 313.337 339.884 313.17C340.177 312.997 340.407 312.757 340.574 312.45C340.747 312.137 340.834 311.777 340.834 311.37C340.834 310.957 340.747 310.597 340.574 310.29C340.407 309.983 340.177 309.747 339.884 309.58C339.591 309.407 339.257 309.32 338.884 309.32C338.511 309.32 338.177 309.407 337.884 309.58C337.591 309.747 337.357 309.983 337.184 310.29C337.011 310.597 336.924 310.957 336.924 311.37C336.924 311.777 337.011 312.137 337.184 312.45C337.357 312.757 337.591 312.997 337.884 313.17C338.177 313.337 338.507 313.42 338.874 313.42Z" fill="black"/>
<path d="M287.2 361.06C286.673 361.06 286.183 360.973 285.73 360.8C285.283 360.62 284.893 360.37 284.56 360.05C284.233 359.723 283.977 359.347 283.79 358.92C283.61 358.487 283.52 358.013 283.52 357.5C283.52 356.987 283.61 356.517 283.79 356.09C283.977 355.657 284.233 355.28 284.56 354.96C284.893 354.633 285.283 354.383 285.73 354.21C286.177 354.03 286.667 353.94 287.2 353.94C287.727 353.94 288.213 354.03 288.66 354.21C289.107 354.383 289.493 354.63 289.82 354.95C290.153 355.27 290.41 355.647 290.59 356.08C290.777 356.513 290.87 356.987 290.87 357.5C290.87 358.013 290.777 358.487 290.59 358.92C290.41 359.353 290.153 359.73 289.82 360.05C289.493 360.37 289.107 360.62 288.66 360.8C288.213 360.973 287.727 361.06 287.2 361.06ZM287.2 360.4C287.62 360.4 288.007 360.33 288.36 360.19C288.72 360.043 289.03 359.84 289.29 359.58C289.557 359.313 289.763 359.007 289.91 358.66C290.057 358.307 290.13 357.92 290.13 357.5C290.13 357.08 290.057 356.697 289.91 356.35C289.763 355.997 289.557 355.69 289.29 355.43C289.03 355.163 288.72 354.96 288.36 354.82C288.007 354.673 287.62 354.6 287.2 354.6C286.78 354.6 286.39 354.673 286.03 354.82C285.67 354.96 285.357 355.163 285.09 355.43C284.83 355.69 284.623 355.997 284.47 356.35C284.323 356.697 284.25 357.08 284.25 357.5C284.25 357.913 284.323 358.297 284.47 358.65C284.623 359.003 284.83 359.313 285.09 359.58C285.357 359.84 285.67 360.043 286.03 360.19C286.39 360.33 286.78 360.4 287.2 360.4ZM295.089 361.05C294.635 361.05 294.225 360.947 293.859 360.74C293.492 360.527 293.199 360.223 292.979 359.83C292.765 359.43 292.659 358.943 292.659 358.37C292.659 357.797 292.765 357.313 292.979 356.92C293.192 356.52 293.482 356.217 293.849 356.01C294.215 355.803 294.629 355.7 295.089 355.7C295.589 355.7 296.035 355.813 296.429 356.04C296.829 356.26 297.142 356.573 297.369 356.98C297.595 357.38 297.709 357.843 297.709 358.37C297.709 358.903 297.595 359.37 297.369 359.77C297.142 360.17 296.829 360.483 296.429 360.71C296.035 360.937 295.589 361.05 295.089 361.05ZM292.379 362.94V355.75H293.059V357.33L292.989 358.38L293.089 359.44V362.94H292.379ZM295.039 360.42C295.412 360.42 295.745 360.337 296.039 360.17C296.332 359.997 296.565 359.757 296.739 359.45C296.912 359.137 296.999 358.777 296.999 358.37C296.999 357.963 296.912 357.607 296.739 357.3C296.565 356.993 296.332 356.753 296.039 356.58C295.745 356.407 295.412 356.32 295.039 356.32C294.665 356.32 294.329 356.407 294.029 356.58C293.735 356.753 293.502 356.993 293.329 357.3C293.162 357.607 293.079 357.963 293.079 358.37C293.079 358.777 293.162 359.137 293.329 359.45C293.502 359.757 293.735 359.997 294.029 360.17C294.329 360.337 294.665 360.42 295.039 360.42ZM301.386 361.05C300.839 361.05 300.359 360.937 299.946 360.71C299.533 360.477 299.209 360.16 298.976 359.76C298.743 359.353 298.626 358.89 298.626 358.37C298.626 357.85 298.736 357.39 298.956 356.99C299.183 356.59 299.489 356.277 299.876 356.05C300.269 355.817 300.709 355.7 301.196 355.7C301.689 355.7 302.126 355.813 302.506 356.04C302.893 356.26 303.196 356.573 303.416 356.98C303.636 357.38 303.746 357.843 303.746 358.37C303.746 358.403 303.743 358.44 303.736 358.48C303.736 358.513 303.736 358.55 303.736 358.59H299.166V358.06H303.356L303.076 358.27C303.076 357.89 302.993 357.553 302.826 357.26C302.666 356.96 302.446 356.727 302.166 356.56C301.886 356.393 301.563 356.31 301.196 356.31C300.836 356.31 300.513 356.393 300.226 356.56C299.939 356.727 299.716 356.96 299.556 357.26C299.396 357.56 299.316 357.903 299.316 358.29V358.4C299.316 358.8 299.403 359.153 299.576 359.46C299.756 359.76 300.003 359.997 300.316 360.17C300.636 360.337 300.999 360.42 301.406 360.42C301.726 360.42 302.023 360.363 302.296 360.25C302.576 360.137 302.816 359.963 303.016 359.73L303.416 360.19C303.183 360.47 302.889 360.683 302.536 360.83C302.189 360.977 301.806 361.05 301.386 361.05ZM305.191 361V355.75H305.871V357.18L305.801 356.93C305.948 356.53 306.195 356.227 306.541 356.02C306.888 355.807 307.318 355.7 307.831 355.7V356.39C307.805 356.39 307.778 356.39 307.751 356.39C307.725 356.383 307.698 356.38 307.671 356.38C307.118 356.38 306.685 356.55 306.371 356.89C306.058 357.223 305.901 357.7 305.901 358.32V361H305.191ZM312.026 361V359.84L311.996 359.65V357.71C311.996 357.263 311.869 356.92 311.616 356.68C311.369 356.44 310.999 356.32 310.506 356.32C310.166 356.32 309.843 356.377 309.536 356.49C309.229 356.603 308.969 356.753 308.756 356.94L308.436 356.41C308.703 356.183 309.023 356.01 309.396 355.89C309.769 355.763 310.163 355.7 310.576 355.7C311.256 355.7 311.779 355.87 312.146 356.21C312.519 356.543 312.706 357.053 312.706 357.74V361H312.026ZM310.216 361.05C309.823 361.05 309.479 360.987 309.186 360.86C308.899 360.727 308.679 360.547 308.526 360.32C308.373 360.087 308.296 359.82 308.296 359.52C308.296 359.247 308.359 359 308.486 358.78C308.619 358.553 308.833 358.373 309.126 358.24C309.426 358.1 309.826 358.03 310.326 358.03H312.136V358.56H310.346C309.839 358.56 309.486 358.65 309.286 358.83C309.093 359.01 308.996 359.233 308.996 359.5C308.996 359.8 309.113 360.04 309.346 360.22C309.579 360.4 309.906 360.49 310.326 360.49C310.726 360.49 311.069 360.4 311.356 360.22C311.649 360.033 311.863 359.767 311.996 359.42L312.156 359.91C312.023 360.257 311.789 360.533 311.456 360.74C311.129 360.947 310.716 361.05 310.216 361.05ZM316.295 361.05C315.801 361.05 315.421 360.917 315.155 360.65C314.888 360.383 314.755 360.007 314.755 359.52V354.59H315.465V359.48C315.465 359.787 315.541 360.023 315.695 360.19C315.855 360.357 316.081 360.44 316.375 360.44C316.688 360.44 316.948 360.35 317.155 360.17L317.405 360.68C317.265 360.807 317.095 360.9 316.895 360.96C316.701 361.02 316.501 361.05 316.295 361.05ZM313.815 356.34V355.75H317.065V356.34H313.815ZM318.697 361V355.75H319.407V361H318.697ZM319.057 354.59C318.91 354.59 318.787 354.54 318.687 354.44C318.587 354.34 318.537 354.22 318.537 354.08C318.537 353.94 318.587 353.823 318.687 353.73C318.787 353.63 318.91 353.58 319.057 353.58C319.204 353.58 319.327 353.627 319.427 353.72C319.527 353.813 319.577 353.93 319.577 354.07C319.577 354.217 319.527 354.34 319.427 354.44C319.334 354.54 319.21 354.59 319.057 354.59ZM323.523 361.05C323.016 361.05 322.559 360.937 322.153 360.71C321.753 360.477 321.436 360.16 321.203 359.76C320.969 359.353 320.853 358.89 320.853 358.37C320.853 357.843 320.969 357.38 321.203 356.98C321.436 356.58 321.753 356.267 322.153 356.04C322.553 355.813 323.009 355.7 323.523 355.7C324.043 355.7 324.503 355.813 324.903 356.04C325.309 356.267 325.626 356.58 325.853 356.98C326.086 357.38 326.203 357.843 326.203 358.37C326.203 358.89 326.086 359.353 325.853 359.76C325.626 360.16 325.309 360.477 324.903 360.71C324.496 360.937 324.036 361.05 323.523 361.05ZM323.523 360.42C323.903 360.42 324.239 360.337 324.533 360.17C324.826 359.997 325.056 359.757 325.223 359.45C325.396 359.137 325.483 358.777 325.483 358.37C325.483 357.957 325.396 357.597 325.223 357.29C325.056 356.983 324.826 356.747 324.533 356.58C324.239 356.407 323.906 356.32 323.533 356.32C323.159 356.32 322.826 356.407 322.533 356.58C322.239 356.747 322.006 356.983 321.833 357.29C321.659 357.597 321.573 357.957 321.573 358.37C321.573 358.777 321.659 359.137 321.833 359.45C322.006 359.757 322.239 359.997 322.533 360.17C322.826 360.337 323.156 360.42 323.523 360.42ZM330.332 355.7C330.759 355.7 331.132 355.783 331.452 355.95C331.779 356.11 332.032 356.357 332.212 356.69C332.399 357.023 332.492 357.443 332.492 357.95V361H331.782V358.02C331.782 357.467 331.642 357.05 331.362 356.77C331.089 356.483 330.702 356.34 330.202 356.34C329.829 356.34 329.502 356.417 329.222 356.57C328.949 356.717 328.735 356.933 328.582 357.22C328.435 357.5 328.362 357.84 328.362 358.24V361H327.652V355.75H328.332V357.19L328.222 356.92C328.389 356.54 328.655 356.243 329.022 356.03C329.389 355.81 329.825 355.7 330.332 355.7ZM335.82 361.05C335.387 361.05 334.977 360.99 334.59 360.87C334.203 360.743 333.9 360.587 333.68 360.4L334 359.84C334.213 360 334.487 360.14 334.82 360.26C335.153 360.373 335.503 360.43 335.87 360.43C336.37 360.43 336.73 360.353 336.95 360.2C337.17 360.04 337.28 359.83 337.28 359.57C337.28 359.377 337.217 359.227 337.09 359.12C336.97 359.007 336.81 358.923 336.61 358.87C336.41 358.81 336.187 358.76 335.94 358.72C335.693 358.68 335.447 358.633 335.2 358.58C334.96 358.527 334.74 358.45 334.54 358.35C334.34 358.243 334.177 358.1 334.05 357.92C333.93 357.74 333.87 357.5 333.87 357.2C333.87 356.913 333.95 356.657 334.11 356.43C334.27 356.203 334.503 356.027 334.81 355.9C335.123 355.767 335.503 355.7 335.95 355.7C336.29 355.7 336.63 355.747 336.97 355.84C337.31 355.927 337.59 356.043 337.81 356.19L337.5 356.76C337.267 356.6 337.017 356.487 336.75 356.42C336.483 356.347 336.217 356.31 335.95 356.31C335.477 356.31 335.127 356.393 334.9 356.56C334.68 356.72 334.57 356.927 334.57 357.18C334.57 357.38 334.63 357.537 334.75 357.65C334.877 357.763 335.04 357.853 335.24 357.92C335.447 357.98 335.67 358.03 335.91 358.07C336.157 358.11 336.4 358.16 336.64 358.22C336.887 358.273 337.11 358.35 337.31 358.45C337.517 358.543 337.68 358.68 337.8 358.86C337.927 359.033 337.99 359.263 337.99 359.55C337.99 359.857 337.903 360.123 337.73 360.35C337.563 360.57 337.317 360.743 336.99 360.87C336.67 360.99 336.28 361.05 335.82 361.05ZM342.06 361V354H342.8V361H342.06ZM347.608 355.7C348.034 355.7 348.408 355.783 348.728 355.95C349.054 356.11 349.308 356.357 349.488 356.69C349.674 357.023 349.768 357.443 349.768 357.95V361H349.058V358.02C349.058 357.467 348.918 357.05 348.638 356.77C348.364 356.483 347.978 356.34 347.478 356.34C347.104 356.34 346.778 356.417 346.498 356.57C346.224 356.717 346.011 356.933 345.858 357.22C345.711 357.5 345.638 357.84 345.638 358.24V361H344.928V355.75H345.608V357.19L345.498 356.92C345.664 356.54 345.931 356.243 346.298 356.03C346.664 355.81 347.101 355.7 347.608 355.7ZM351.805 361V355.09C351.805 354.623 351.942 354.247 352.215 353.96C352.489 353.673 352.882 353.53 353.395 353.53C353.595 353.53 353.789 353.557 353.975 353.61C354.162 353.663 354.319 353.747 354.445 353.86L354.205 354.39C354.105 354.303 353.989 354.24 353.855 354.2C353.722 354.153 353.579 354.13 353.425 354.13C353.125 354.13 352.895 354.213 352.735 354.38C352.575 354.547 352.495 354.793 352.495 355.12V355.92L352.515 356.25V361H351.805ZM350.865 356.34V355.75H354.115V356.34H350.865ZM357.126 361.05C356.619 361.05 356.163 360.937 355.756 360.71C355.356 360.477 355.039 360.16 354.806 359.76C354.573 359.353 354.456 358.89 354.456 358.37C354.456 357.843 354.573 357.38 354.806 356.98C355.039 356.58 355.356 356.267 355.756 356.04C356.156 355.813 356.613 355.7 357.126 355.7C357.646 355.7 358.106 355.813 358.506 356.04C358.913 356.267 359.229 356.58 359.456 356.98C359.689 357.38 359.806 357.843 359.806 358.37C359.806 358.89 359.689 359.353 359.456 359.76C359.229 360.16 358.913 360.477 358.506 360.71C358.099 360.937 357.639 361.05 357.126 361.05ZM357.126 360.42C357.506 360.42 357.843 360.337 358.136 360.17C358.429 359.997 358.659 359.757 358.826 359.45C358.999 359.137 359.086 358.777 359.086 358.37C359.086 357.957 358.999 357.597 358.826 357.29C358.659 356.983 358.429 356.747 358.136 356.58C357.843 356.407 357.509 356.32 357.136 356.32C356.763 356.32 356.429 356.407 356.136 356.58C355.843 356.747 355.609 356.983 355.436 357.29C355.263 357.597 355.176 357.957 355.176 358.37C355.176 358.777 355.263 359.137 355.436 359.45C355.609 359.757 355.843 359.997 356.136 360.17C356.429 360.337 356.759 360.42 357.126 360.42Z" fill="black"/>
<path d="M285.73 409L283.37 402H284.13L286.34 408.59H285.96L288.24 402H288.92L291.17 408.59H290.81L293.04 402H293.75L291.39 409H290.61L288.46 402.75H288.66L286.5 409H285.73ZM296.696 409.05C296.19 409.05 295.733 408.937 295.326 408.71C294.926 408.477 294.61 408.16 294.376 407.76C294.143 407.353 294.026 406.89 294.026 406.37C294.026 405.843 294.143 405.38 294.376 404.98C294.61 404.58 294.926 404.267 295.326 404.04C295.726 403.813 296.183 403.7 296.696 403.7C297.216 403.7 297.676 403.813 298.076 404.04C298.483 404.267 298.8 404.58 299.026 404.98C299.26 405.38 299.376 405.843 299.376 406.37C299.376 406.89 299.26 407.353 299.026 407.76C298.8 408.16 298.483 408.477 298.076 408.71C297.67 408.937 297.21 409.05 296.696 409.05ZM296.696 408.42C297.076 408.42 297.413 408.337 297.706 408.17C298 407.997 298.23 407.757 298.396 407.45C298.57 407.137 298.656 406.777 298.656 406.37C298.656 405.957 298.57 405.597 298.396 405.29C298.23 404.983 298 404.747 297.706 404.58C297.413 404.407 297.08 404.32 296.706 404.32C296.333 404.32 296 404.407 295.706 404.58C295.413 404.747 295.18 404.983 295.006 405.29C294.833 405.597 294.746 405.957 294.746 406.37C294.746 406.777 294.833 407.137 295.006 407.45C295.18 407.757 295.413 407.997 295.706 408.17C296 408.337 296.33 408.42 296.696 408.42ZM300.826 409V403.75H301.506V405.18L301.436 404.93C301.583 404.53 301.829 404.227 302.176 404.02C302.523 403.807 302.953 403.7 303.466 403.7V404.39C303.439 404.39 303.413 404.39 303.386 404.39C303.359 404.383 303.333 404.38 303.306 404.38C302.753 404.38 302.319 404.55 302.006 404.89C301.693 405.223 301.536 405.7 301.536 406.32V409H300.826ZM305.321 407.64L305.341 406.73L308.611 403.75H309.481L307.171 405.96L306.771 406.3L305.321 407.64ZM304.761 409V401.58H305.471V409H304.761ZM308.831 409L306.641 406.27L307.101 405.72L309.701 409H308.831ZM310.887 409V403.09C310.887 402.623 311.024 402.247 311.297 401.96C311.571 401.673 311.964 401.53 312.477 401.53C312.677 401.53 312.871 401.557 313.057 401.61C313.244 401.663 313.401 401.747 313.527 401.86L313.287 402.39C313.187 402.303 313.071 402.24 312.937 402.2C312.804 402.153 312.661 402.13 312.507 402.13C312.207 402.13 311.977 402.213 311.817 402.38C311.657 402.547 311.577 402.793 311.577 403.12V403.92L311.597 404.25V409H310.887ZM309.947 404.34V403.75H313.197V404.34H309.947ZM316.208 409.05C315.701 409.05 315.245 408.937 314.838 408.71C314.438 408.477 314.121 408.16 313.888 407.76C313.655 407.353 313.538 406.89 313.538 406.37C313.538 405.843 313.655 405.38 313.888 404.98C314.121 404.58 314.438 404.267 314.838 404.04C315.238 403.813 315.695 403.7 316.208 403.7C316.728 403.7 317.188 403.813 317.588 404.04C317.995 404.267 318.311 404.58 318.538 404.98C318.771 405.38 318.888 405.843 318.888 406.37C318.888 406.89 318.771 407.353 318.538 407.76C318.311 408.16 317.995 408.477 317.588 408.71C317.181 408.937 316.721 409.05 316.208 409.05ZM316.208 408.42C316.588 408.42 316.925 408.337 317.218 408.17C317.511 407.997 317.741 407.757 317.908 407.45C318.081 407.137 318.168 406.777 318.168 406.37C318.168 405.957 318.081 405.597 317.908 405.29C317.741 404.983 317.511 404.747 317.218 404.58C316.925 404.407 316.591 404.32 316.218 404.32C315.845 404.32 315.511 404.407 315.218 404.58C314.925 404.747 314.691 404.983 314.518 405.29C314.345 405.597 314.258 405.957 314.258 406.37C314.258 406.777 314.345 407.137 314.518 407.45C314.691 407.757 314.925 407.997 315.218 408.17C315.511 408.337 315.841 408.42 316.208 408.42ZM320.338 409V403.75H321.018V405.18L320.948 404.93C321.094 404.53 321.341 404.227 321.688 404.02C322.034 403.807 322.464 403.7 322.978 403.7V404.39C322.951 404.39 322.924 404.39 322.898 404.39C322.871 404.383 322.844 404.38 322.818 404.38C322.264 404.38 321.831 404.55 321.518 404.89C321.204 405.223 321.048 405.7 321.048 406.32V409H320.338ZM326.404 409.05C325.884 409.05 325.418 408.937 325.004 408.71C324.598 408.477 324.278 408.16 324.044 407.76C323.811 407.353 323.694 406.89 323.694 406.37C323.694 405.843 323.811 405.38 324.044 404.98C324.278 404.58 324.598 404.267 325.004 404.04C325.418 403.813 325.884 403.7 326.404 403.7C326.851 403.7 327.254 403.787 327.614 403.96C327.974 404.133 328.258 404.393 328.464 404.74L327.934 405.1C327.754 404.833 327.531 404.637 327.264 404.51C326.998 404.383 326.708 404.32 326.394 404.32C326.021 404.32 325.684 404.407 325.384 404.58C325.084 404.747 324.848 404.983 324.674 405.29C324.501 405.597 324.414 405.957 324.414 406.37C324.414 406.783 324.501 407.143 324.674 407.45C324.848 407.757 325.084 407.997 325.384 408.17C325.684 408.337 326.021 408.42 326.394 408.42C326.708 408.42 326.998 408.357 327.264 408.23C327.531 408.103 327.754 407.91 327.934 407.65L328.464 408.01C328.258 408.35 327.974 408.61 327.614 408.79C327.254 408.963 326.851 409.05 326.404 409.05ZM332.001 409.05C331.455 409.05 330.975 408.937 330.561 408.71C330.148 408.477 329.825 408.16 329.591 407.76C329.358 407.353 329.241 406.89 329.241 406.37C329.241 405.85 329.351 405.39 329.571 404.99C329.798 404.59 330.105 404.277 330.491 404.05C330.885 403.817 331.325 403.7 331.811 403.7C332.305 403.7 332.741 403.813 333.121 404.04C333.508 404.26 333.811 404.573 334.031 404.98C334.251 405.38 334.361 405.843 334.361 406.37C334.361 406.403 334.358 406.44 334.351 406.48C334.351 406.513 334.351 406.55 334.351 406.59H329.781V406.06H333.971L333.691 406.27C333.691 405.89 333.608 405.553 333.441 405.26C333.281 404.96 333.061 404.727 332.781 404.56C332.501 404.393 332.178 404.31 331.811 404.31C331.451 404.31 331.128 404.393 330.841 404.56C330.555 404.727 330.331 404.96 330.171 405.26C330.011 405.56 329.931 405.903 329.931 406.29V406.4C329.931 406.8 330.018 407.153 330.191 407.46C330.371 407.76 330.618 407.997 330.931 408.17C331.251 408.337 331.615 408.42 332.021 408.42C332.341 408.42 332.638 408.363 332.911 408.25C333.191 408.137 333.431 407.963 333.631 407.73L334.031 408.19C333.798 408.47 333.505 408.683 333.151 408.83C332.805 408.977 332.421 409.05 332.001 409.05ZM338.574 409V402H339.314V409H338.574ZM344.121 403.7C344.548 403.7 344.921 403.783 345.241 403.95C345.568 404.11 345.821 404.357 346.001 404.69C346.188 405.023 346.281 405.443 346.281 405.95V409H345.571V406.02C345.571 405.467 345.431 405.05 345.151 404.77C344.878 404.483 344.491 404.34 343.991 404.34C343.618 404.34 343.291 404.417 343.011 404.57C342.738 404.717 342.525 404.933 342.371 405.22C342.225 405.5 342.151 405.84 342.151 406.24V409H341.441V403.75H342.121V405.19L342.011 404.92C342.178 404.54 342.445 404.243 342.811 404.03C343.178 403.81 343.615 403.7 344.121 403.7ZM348.319 409V403.09C348.319 402.623 348.456 402.247 348.729 401.96C349.002 401.673 349.396 401.53 349.909 401.53C350.109 401.53 350.302 401.557 350.489 401.61C350.676 401.663 350.832 401.747 350.959 401.86L350.719 402.39C350.619 402.303 350.502 402.24 350.369 402.2C350.236 402.153 350.092 402.13 349.939 402.13C349.639 402.13 349.409 402.213 349.249 402.38C349.089 402.547 349.009 402.793 349.009 403.12V403.92L349.029 404.25V409H348.319ZM347.379 404.34V403.75H350.629V404.34H347.379ZM353.64 409.05C353.133 409.05 352.676 408.937 352.27 408.71C351.87 408.477 351.553 408.16 351.32 407.76C351.086 407.353 350.97 406.89 350.97 406.37C350.97 405.843 351.086 405.38 351.32 404.98C351.553 404.58 351.87 404.267 352.27 404.04C352.67 403.813 353.126 403.7 353.64 403.7C354.16 403.7 354.62 403.813 355.02 404.04C355.426 404.267 355.743 404.58 355.97 404.98C356.203 405.38 356.32 405.843 356.32 406.37C356.32 406.89 356.203 407.353 355.97 407.76C355.743 408.16 355.426 408.477 355.02 408.71C354.613 408.937 354.153 409.05 353.64 409.05ZM353.64 408.42C354.02 408.42 354.356 408.337 354.65 408.17C354.943 407.997 355.173 407.757 355.34 407.45C355.513 407.137 355.6 406.777 355.6 406.37C355.6 405.957 355.513 405.597 355.34 405.29C355.173 404.983 354.943 404.747 354.65 404.58C354.356 404.407 354.023 404.32 353.65 404.32C353.276 404.32 352.943 404.407 352.65 404.58C352.356 404.747 352.123 404.983 351.95 405.29C351.776 405.597 351.69 405.957 351.69 406.37C351.69 406.777 351.776 407.137 351.95 407.45C352.123 407.757 352.356 407.997 352.65 408.17C352.943 408.337 353.273 408.42 353.64 408.42Z" fill="black"/>
<rect x="256.749" y="207.834" width="13.6793" height="13.6793" rx="3" fill="#333333"/>
<rect x="256.749" y="254.951" width="13.6793" height="13.6793" rx="3" fill="#333333"/>
<rect x="256.749" y="302.069" width="13.6793" height="13.6793" rx="3" fill="#333333"/>
<rect x="256.749" y="349.186" width="13.6793" height="13.6793" rx="3" fill="#333333"/>
<rect x="256.749" y="396.304" width="13.6793" height="13.6793" rx="3" fill="#333333"/>
<rect x="282.588" y="223.793" width="28.1185" height="1.51992" rx="0.75996" fill="#D9D9D9"/>
<rect x="282.588" y="270.15" width="28.1185" height="1.51992" rx="0.75996" fill="#D9D9D9"/>
<rect x="282.588" y="317.268" width="28.1185" height="1.51992" rx="0.75996" fill="#D9D9D9"/>
<rect x="282.588" y="364.385" width="28.1185" height="1.51992" rx="0.75996" fill="#D9D9D9"/>
<rect x="282.588" y="411.503" width="28.1185" height="1.51992" rx="0.75996" fill="#D9D9D9"/>
<rect x="383.152" y="233.922" width="131.733" height="16.9791" rx="1.75" fill="#EFEFEF" stroke="#D1CFC9" stroke-width="0.5"/>
<rect x="383.152" y="270.4" width="131.733" height="16.9791" rx="1.75" fill="#EFEFEF" stroke="#D1CFC9" stroke-width="0.5"/>
<rect x="383.152" y="306.878" width="131.733" height="16.9791" rx="1.75" fill="#EFEFEF" stroke="#D1CFC9" stroke-width="0.5"/>
<rect x="383.152" y="343.357" width="131.733" height="16.9791" rx="1.75" fill="#EFEFEF" stroke="#D1CFC9" stroke-width="0.5"/>
<rect x="382.902" y="392.504" width="69.1564" height="17.4791" rx="2" fill="#DFFC7C"/>
<rect x="534.384" y="233.922" width="131.733" height="16.9791" rx="1.75" fill="#EFEFEF" stroke="#D1CFC9" stroke-width="0.5"/>
<rect x="534.384" y="270.4" width="131.733" height="16.9791" rx="1.75" fill="#EFEFEF" stroke="#D1CFC9" stroke-width="0.5"/>
<path d="M389.16 405.045C388.77 405.045 388.401 404.991 388.053 404.883C387.705 404.769 387.432 404.628 387.234 404.46L387.522 403.956C387.714 404.1 387.96 404.226 388.26 404.334C388.56 404.436 388.875 404.487 389.205 404.487C389.655 404.487 389.979 404.418 390.177 404.28C390.375 404.136 390.474 403.947 390.474 403.713C390.474 403.539 390.417 403.404 390.303 403.308C390.195 403.206 390.051 403.131 389.871 403.083C389.691 403.029 389.49 402.984 389.268 402.948C389.046 402.912 388.824 402.87 388.602 402.822C388.386 402.774 388.188 402.705 388.008 402.615C387.828 402.519 387.681 402.39 387.567 402.228C387.459 402.066 387.405 401.85 387.405 401.58C387.405 401.322 387.477 401.091 387.621 400.887C387.765 400.683 387.975 400.524 388.251 400.41C388.533 400.29 388.875 400.23 389.277 400.23C389.583 400.23 389.889 400.272 390.195 400.356C390.501 400.434 390.753 400.539 390.951 400.671L390.672 401.184C390.462 401.04 390.237 400.938 389.997 400.878C389.757 400.812 389.517 400.779 389.277 400.779C388.851 400.779 388.536 400.854 388.332 401.004C388.134 401.148 388.035 401.334 388.035 401.562C388.035 401.742 388.089 401.883 388.197 401.985C388.311 402.087 388.458 402.168 388.638 402.228C388.824 402.282 389.025 402.327 389.241 402.363C389.463 402.399 389.682 402.444 389.898 402.498C390.12 402.546 390.321 402.615 390.501 402.705C390.687 402.789 390.834 402.912 390.942 403.074C391.056 403.23 391.113 403.437 391.113 403.695C391.113 403.971 391.035 404.211 390.879 404.415C390.729 404.613 390.507 404.769 390.213 404.883C389.925 404.991 389.574 405.045 389.16 405.045ZM395.247 405V403.956L395.22 403.785V402.039C395.22 401.637 395.106 401.328 394.878 401.112C394.656 400.896 394.323 400.788 393.879 400.788C393.573 400.788 393.282 400.839 393.006 400.941C392.73 401.043 392.496 401.178 392.304 401.346L392.016 400.869C392.256 400.665 392.544 400.509 392.88 400.401C393.216 400.287 393.57 400.23 393.942 400.23C394.554 400.23 395.025 400.383 395.355 400.689C395.691 400.989 395.859 401.448 395.859 402.066V405H395.247ZM393.618 405.045C393.264 405.045 392.955 404.988 392.691 404.874C392.433 404.754 392.235 404.592 392.097 404.388C391.959 404.178 391.89 403.938 391.89 403.668C391.89 403.422 391.947 403.2 392.061 403.002C392.181 402.798 392.373 402.636 392.637 402.516C392.907 402.39 393.267 402.327 393.717 402.327H395.346V402.804H393.735C393.279 402.804 392.961 402.885 392.781 403.047C392.607 403.209 392.52 403.41 392.52 403.65C392.52 403.92 392.625 404.136 392.835 404.298C393.045 404.46 393.339 404.541 393.717 404.541C394.077 404.541 394.386 404.46 394.644 404.298C394.908 404.13 395.1 403.89 395.22 403.578L395.364 404.019C395.244 404.331 395.034 404.58 394.734 404.766C394.44 404.952 394.068 405.045 393.618 405.045ZM398.721 405L396.624 400.275H397.29L399.216 404.658H398.901L400.854 400.275H401.484L399.378 405H398.721ZM404.259 405.045C403.767 405.045 403.335 404.943 402.963 404.739C402.591 404.529 402.3 404.244 402.09 403.884C401.88 403.518 401.775 403.101 401.775 402.633C401.775 402.165 401.874 401.751 402.072 401.391C402.276 401.031 402.552 400.749 402.9 400.545C403.254 400.335 403.65 400.23 404.088 400.23C404.532 400.23 404.925 400.332 405.267 400.536C405.615 400.734 405.888 401.016 406.086 401.382C406.284 401.742 406.383 402.159 406.383 402.633C406.383 402.663 406.38 402.696 406.374 402.732C406.374 402.762 406.374 402.795 406.374 402.831H402.261V402.354H406.032L405.78 402.543C405.78 402.201 405.705 401.898 405.555 401.634C405.411 401.364 405.213 401.154 404.961 401.004C404.709 400.854 404.418 400.779 404.088 400.779C403.764 400.779 403.473 400.854 403.215 401.004C402.957 401.154 402.756 401.364 402.612 401.634C402.468 401.904 402.396 402.213 402.396 402.561V402.66C402.396 403.02 402.474 403.338 402.63 403.614C402.792 403.884 403.014 404.097 403.296 404.253C403.584 404.403 403.911 404.478 404.277 404.478C404.565 404.478 404.832 404.427 405.078 404.325C405.33 404.223 405.546 404.067 405.726 403.857L406.086 404.271C405.876 404.523 405.612 404.715 405.294 404.847C404.982 404.979 404.637 405.045 404.259 405.045ZM411.704 405.054C411.296 405.054 410.933 404.988 410.615 404.856C410.297 404.718 410.045 404.529 409.859 404.289C409.679 404.049 409.589 403.77 409.589 403.452C409.589 403.182 409.649 402.936 409.769 402.714C409.889 402.486 410.081 402.264 410.345 402.048C410.615 401.826 410.972 401.595 411.416 401.355C411.794 401.145 412.088 400.965 412.298 400.815C412.514 400.659 412.667 400.512 412.757 400.374C412.847 400.23 412.892 400.077 412.892 399.915C412.892 399.681 412.811 399.492 412.649 399.348C412.493 399.204 412.268 399.132 411.974 399.132C411.656 399.132 411.41 399.213 411.236 399.375C411.062 399.531 410.975 399.735 410.975 399.987C410.975 400.113 410.993 400.233 411.029 400.347C411.071 400.461 411.146 400.587 411.254 400.725C411.368 400.863 411.524 401.037 411.722 401.247L415.052 404.676L414.683 405.099L411.209 401.526C410.999 401.304 410.831 401.112 410.705 400.95C410.585 400.782 410.501 400.623 410.453 400.473C410.405 400.323 410.381 400.164 410.381 399.996C410.381 399.726 410.444 399.492 410.57 399.294C410.702 399.09 410.888 398.934 411.128 398.826C411.368 398.712 411.65 398.655 411.974 398.655C412.268 398.655 412.523 398.706 412.739 398.808C412.961 398.904 413.132 399.045 413.252 399.231C413.378 399.417 413.441 399.642 413.441 399.906C413.441 400.134 413.384 400.347 413.27 400.545C413.162 400.743 412.982 400.938 412.73 401.13C412.478 401.316 412.136 401.526 411.704 401.76C411.326 401.97 411.026 402.162 410.804 402.336C410.588 402.51 410.435 402.681 410.345 402.849C410.255 403.011 410.21 403.191 410.21 403.389C410.21 403.617 410.273 403.818 410.399 403.992C410.531 404.16 410.711 404.292 410.939 404.388C411.173 404.478 411.44 404.523 411.74 404.523C412.16 404.523 412.535 404.436 412.865 404.262C413.195 404.088 413.471 403.824 413.693 403.47C413.921 403.116 414.086 402.672 414.188 402.138L414.701 402.3C414.587 402.9 414.392 403.404 414.116 403.812C413.84 404.22 413.498 404.529 413.09 404.739C412.682 404.949 412.22 405.054 411.704 405.054ZM420.827 400.23C421.211 400.23 421.547 400.305 421.835 400.455C422.129 400.599 422.357 400.821 422.519 401.121C422.687 401.421 422.771 401.799 422.771 402.255V405H422.132V402.318C422.132 401.82 422.006 401.445 421.754 401.193C421.508 400.935 421.16 400.806 420.71 400.806C420.374 400.806 420.08 400.875 419.828 401.013C419.582 401.145 419.39 401.34 419.252 401.598C419.12 401.85 419.054 402.156 419.054 402.516V405H418.415V400.275H419.027V401.571L418.928 401.328C419.078 400.986 419.318 400.719 419.648 400.527C419.978 400.329 420.371 400.23 420.827 400.23ZM426.504 405.045C426.012 405.045 425.58 404.943 425.208 404.739C424.836 404.529 424.545 404.244 424.335 403.884C424.125 403.518 424.02 403.101 424.02 402.633C424.02 402.165 424.119 401.751 424.317 401.391C424.521 401.031 424.797 400.749 425.145 400.545C425.499 400.335 425.895 400.23 426.333 400.23C426.777 400.23 427.17 400.332 427.512 400.536C427.86 400.734 428.133 401.016 428.331 401.382C428.529 401.742 428.628 402.159 428.628 402.633C428.628 402.663 428.625 402.696 428.619 402.732C428.619 402.762 428.619 402.795 428.619 402.831H424.506V402.354H428.277L428.025 402.543C428.025 402.201 427.95 401.898 427.8 401.634C427.656 401.364 427.458 401.154 427.206 401.004C426.954 400.854 426.663 400.779 426.333 400.779C426.009 400.779 425.718 400.854 425.46 401.004C425.202 401.154 425.001 401.364 424.857 401.634C424.713 401.904 424.641 402.213 424.641 402.561V402.66C424.641 403.02 424.719 403.338 424.875 403.614C425.037 403.884 425.259 404.097 425.541 404.253C425.829 404.403 426.156 404.478 426.522 404.478C426.81 404.478 427.077 404.427 427.323 404.325C427.575 404.223 427.791 404.067 427.971 403.857L428.331 404.271C428.121 404.523 427.857 404.715 427.539 404.847C427.227 404.979 426.882 405.045 426.504 405.045ZM429.077 405L431.075 402.408L431.066 402.723L429.167 400.275H429.887L431.444 402.3L431.174 402.291L432.731 400.275H433.433L431.516 402.75L431.525 402.408L433.541 405H432.812L431.165 402.84L431.417 402.876L429.797 405H429.077ZM436.099 405.045C435.655 405.045 435.313 404.925 435.073 404.685C434.833 404.445 434.713 404.106 434.713 403.668V399.231H435.352V403.632C435.352 403.908 435.421 404.121 435.559 404.271C435.703 404.421 435.907 404.496 436.171 404.496C436.453 404.496 436.687 404.415 436.873 404.253L437.098 404.712C436.972 404.826 436.819 404.91 436.639 404.964C436.465 405.018 436.285 405.045 436.099 405.045ZM433.867 400.806V400.275H436.792V400.806H433.867Z" fill="#333333"/>
<rect x="534.384" y="306.878" width="131.733" height="16.9791" rx="1.75" fill="#EFEFEF" stroke="#D1CFC9" stroke-width="0.5"/>
<rect x="534.384" y="343.357" width="131.733" height="16.9791" rx="1.75" fill="white" stroke="#D1CFC9" stroke-width="0.5"/>
<path d="M441 352.238H445M445 352.238L443 350.431M445 352.238L443 354.044" stroke="#333333" stroke-width="0.5" stroke-linecap="round" stroke-linejoin="round"/>
</g>
<defs>
<filter id="filter0_ddddd_506_96" x="-48.4443" y="0" width="777.249" height="480.101" filterUnits="userSpaceOnUse" color-interpolation-filters="sRGB">
<feFlood flood-opacity="0" result="BackgroundImageFix"/>
<feColorMatrix in="SourceAlpha" type="matrix" values="0 0 0 0 0 0 0 0 0 0 0 0 0 0 0 0 0 0 127 0" result="hardAlpha"/>
<feOffset/>
<feColorMatrix type="matrix" values="0 0 0 0 0 0 0 0 0 0 0 0 0 0 0 0 0 0 0.1 0"/>
<feBlend mode="normal" in2="BackgroundImageFix" result="effect1_dropShadow_506_96"/>
<feColorMatrix in="SourceAlpha" type="matrix" values="0 0 0 0 0 0 0 0 0 0 0 0 0 0 0 0 0 0 127 0" result="hardAlpha"/>
<feOffset dx="-8" dy="-2"/>
<feGaussianBlur stdDeviation="9"/>
<feColorMatrix type="matrix" values="0 0 0 0 0 0 0 0 0 0 0 0 0 0 0 0 0 0 0.1 0"/>
<feBlend mode="normal" in2="effect1_dropShadow_506_96" result="effect2_dropShadow_506_96"/>
<feColorMatrix in="SourceAlpha" type="matrix" values="0 0 0 0 0 0 0 0 0 0 0 0 0 0 0 0 0 0 127 0" result="hardAlpha"/>
<feOffset dx="-31" dy="-9"/>
<feGaussianBlur stdDeviation="16"/>
<feColorMatrix type="matrix" values="0 0 0 0 0 0 0 0 0 0 0 0 0 0 0 0 0 0 0.09 0"/>
<feBlend mode="normal" in2="effect2_dropShadow_506_96" result="effect3_dropShadow_506_96"/>
<feColorMatrix in="SourceAlpha" type="matrix" values="0 0 0 0 0 0 0 0 0 0 0 0 0 0 0 0 0 0 127 0" result="hardAlpha"/>
<feOffset dx="-70" dy="-20"/>
<feGaussianBlur stdDeviation="21.5"/>
<feColorMatrix type="matrix" values="0 0 0 0 0 0 0 0 0 0 0 0 0 0 0 0 0 0 0.05 0"/>
<feBlend mode="normal" in2="effect3_dropShadow_506_96" result="effect4_dropShadow_506_96"/>
<feColorMatrix in="SourceAlpha" type="matrix" values="0 0 0 0 0 0 0 0 0 0 0 0 0 0 0 0 0 0 127 0" result="hardAlpha"/>
<feOffset dx="-124" dy="-35"/>
<feGaussianBlur stdDeviation="26"/>
<feColorMatrix type="matrix" values="0 0 0 0 0 0 0 0 0 0 0 0 0 0 0 0 0 0 0.01 0"/>
<feBlend mode="normal" in2="effect4_dropShadow_506_96" result="effect5_dropShadow_506_96"/>
<feBlend mode="normal" in="SourceGraphic" in2="effect5_dropShadow_506_96" result="shape"/>
</filter>
<filter id="filter1_d_506_96" x="241.35" y="153.117" width="463.216" height="289.945" filterUnits="userSpaceOnUse" color-interpolation-filters="sRGB">
<feFlood flood-opacity="0" result="BackgroundImageFix"/>
<feColorMatrix in="SourceAlpha" type="matrix" values="0 0 0 0 0 0 0 0 0 0 0 0 0 0 0 0 0 0 127 0" result="hardAlpha"/>
<feOffset dy="4"/>
<feGaussianBlur stdDeviation="2"/>
<feComposite in2="hardAlpha" operator="out"/>
<feColorMatrix type="matrix" values="0 0 0 0 0 0 0 0 0 0 0 0 0 0 0 0 0 0 0.25 0"/>
<feBlend mode="normal" in2="BackgroundImageFix" result="effect1_dropShadow_506_96"/>
<feBlend mode="normal" in="SourceGraphic" in2="effect1_dropShadow_506_96" result="shape"/>
</filter>
</defs>
</svg>
