<svg width="320" height="37" viewBox="0 0 320 37" fill="none" xmlns="http://www.w3.org/2000/svg">
<path d="M25.1642 8.64923C23.1074 6.63525 20.3987 5.23056 17.3209 4.82086C9.77008 3.8157 2.82608 9.12815 1.82093 16.679C0.815778 24.2298 6.12822 31.1738 13.6791 32.179C21.2299 33.1841 28.1739 27.8717 29.1791 20.3209C29.4395 18.3647 29.2786 16.4361 28.7502 14.6534" stroke="#DFFC7C" stroke-width="3" stroke-linecap="round" stroke-linejoin="round"/>
<path d="M8.51477 19.0053L14.3039 24.7945L30.3091 8.78925" stroke="#333333" stroke-width="3" stroke-linecap="round" stroke-linejoin="round"/>
<path d="M53.4 17.39H64.5V19.28H53.4V17.39ZM53.64 27.08H66.27V29H51.42V8H65.82V9.92H53.64V27.08ZM75.034 29.15C73.734 29.15 72.504 28.97 71.344 28.61C70.184 28.23 69.274 27.76 68.614 27.2L69.574 25.52C70.214 26 71.034 26.42 72.034 26.78C73.034 27.12 74.084 27.29 75.184 27.29C76.684 27.29 77.764 27.06 78.424 26.6C79.084 26.12 79.414 25.49 79.414 24.71C79.414 24.13 79.224 23.68 78.844 23.36C78.484 23.02 78.004 22.77 77.404 22.61C76.804 22.43 76.134 22.28 75.394 22.16C74.654 22.04 73.914 21.9 73.174 21.74C72.454 21.58 71.794 21.35 71.194 21.05C70.594 20.73 70.104 20.3 69.724 19.76C69.364 19.22 69.184 18.5 69.184 17.6C69.184 16.74 69.424 15.97 69.904 15.29C70.384 14.61 71.084 14.08 72.004 13.7C72.944 13.3 74.084 13.1 75.424 13.1C76.444 13.1 77.464 13.24 78.484 13.52C79.504 13.78 80.344 14.13 81.004 14.57L80.074 16.28C79.374 15.8 78.624 15.46 77.824 15.26C77.024 15.04 76.224 14.93 75.424 14.93C74.004 14.93 72.954 15.18 72.274 15.68C71.614 16.16 71.284 16.78 71.284 17.54C71.284 18.14 71.464 18.61 71.824 18.95C72.204 19.29 72.694 19.56 73.294 19.76C73.914 19.94 74.584 20.09 75.304 20.21C76.044 20.33 76.774 20.48 77.494 20.66C78.234 20.82 78.904 21.05 79.504 21.35C80.124 21.63 80.614 22.04 80.974 22.58C81.354 23.1 81.544 23.79 81.544 24.65C81.544 25.57 81.284 26.37 80.764 27.05C80.264 27.71 79.524 28.23 78.544 28.61C77.584 28.97 76.414 29.15 75.034 29.15ZM90.4324 29.15C88.9524 29.15 87.8124 28.75 87.0124 27.95C86.2124 27.15 85.8124 26.02 85.8124 24.56V9.77H87.9424V24.44C87.9424 25.36 88.1724 26.07 88.6324 26.57C89.1124 27.07 89.7924 27.32 90.6724 27.32C91.6124 27.32 92.3924 27.05 93.0124 26.51L93.7624 28.04C93.3424 28.42 92.8324 28.7 92.2324 28.88C91.6524 29.06 91.0524 29.15 90.4324 29.15ZM82.9924 15.02V13.25H92.7424V15.02H82.9924ZM107.51 29V25.52L107.42 24.95V19.13C107.42 17.79 107.04 16.76 106.28 16.04C105.54 15.32 104.43 14.96 102.95 14.96C101.93 14.96 100.96 15.13 100.04 15.47C99.1199 15.81 98.3399 16.26 97.6999 16.82L96.7399 15.23C97.5399 14.55 98.4999 14.03 99.6199 13.67C100.74 13.29 101.92 13.1 103.16 13.1C105.2 13.1 106.77 13.61 107.87 14.63C108.99 15.63 109.55 17.16 109.55 19.22V29H107.51ZM102.08 29.15C100.9 29.15 99.8699 28.96 98.9899 28.58C98.1299 28.18 97.4699 27.64 97.0099 26.96C96.5499 26.26 96.3199 25.46 96.3199 24.56C96.3199 23.74 96.5099 23 96.8899 22.34C97.2899 21.66 97.9299 21.12 98.8099 20.72C99.7099 20.3 100.91 20.09 102.41 20.09H107.84V21.68H102.47C100.95 21.68 99.8899 21.95 99.2899 22.49C98.7099 23.03 98.4199 23.7 98.4199 24.5C98.4199 25.4 98.7699 26.12 99.4699 26.66C100.17 27.2 101.15 27.47 102.41 27.47C103.61 27.47 104.64 27.2 105.5 26.66C106.38 26.1 107.02 25.3 107.42 24.26L107.9 25.73C107.5 26.77 106.8 27.6 105.8 28.22C104.82 28.84 103.58 29.15 102.08 29.15ZM123.465 29.15C122.085 29.15 120.845 28.84 119.745 28.22C118.645 27.58 117.775 26.66 117.135 25.46C116.495 24.26 116.175 22.81 116.175 21.11C116.175 19.39 116.495 17.94 117.135 16.76C117.795 15.56 118.675 14.65 119.775 14.03C120.875 13.41 122.105 13.1 123.465 13.1C124.965 13.1 126.305 13.44 127.485 14.12C128.685 14.78 129.625 15.71 130.305 16.91C130.985 18.11 131.325 19.51 131.325 21.11C131.325 22.69 130.985 24.09 130.305 25.31C129.625 26.51 128.685 27.45 127.485 28.13C126.305 28.81 124.965 29.15 123.465 29.15ZM115.335 29V6.74H117.465V17.9L117.165 21.08L117.375 24.26V29H115.335ZM123.315 27.26C124.435 27.26 125.435 27.01 126.315 26.51C127.195 25.99 127.895 25.27 128.415 24.35C128.935 23.41 129.195 22.33 129.195 21.11C129.195 19.87 128.935 18.79 128.415 17.87C127.895 16.95 127.195 16.24 126.315 15.74C125.435 15.22 124.435 14.96 123.315 14.96C122.195 14.96 121.185 15.22 120.285 15.74C119.405 16.24 118.705 16.95 118.185 17.87C117.685 18.79 117.435 19.87 117.435 21.11C117.435 22.33 117.685 23.41 118.185 24.35C118.705 25.27 119.405 25.99 120.285 26.51C121.185 27.01 122.195 27.26 123.315 27.26ZM135.667 29V6.74H137.797V29H135.667ZM143.724 29V13.25H145.854V29H143.724ZM144.804 9.77C144.364 9.77 143.994 9.62 143.694 9.32C143.394 9.02 143.244 8.66 143.244 8.24C143.244 7.82 143.394 7.47 143.694 7.19C143.994 6.89 144.364 6.74 144.804 6.74C145.244 6.74 145.614 6.88 145.914 7.16C146.214 7.44 146.364 7.79 146.364 8.21C146.364 8.65 146.214 9.02 145.914 9.32C145.634 9.62 145.264 9.77 144.804 9.77ZM156.011 29.15C154.711 29.15 153.481 28.97 152.321 28.61C151.161 28.23 150.251 27.76 149.591 27.2L150.551 25.52C151.191 26 152.011 26.42 153.011 26.78C154.011 27.12 155.061 27.29 156.161 27.29C157.661 27.29 158.741 27.06 159.401 26.6C160.061 26.12 160.391 25.49 160.391 24.71C160.391 24.13 160.201 23.68 159.821 23.36C159.461 23.02 158.981 22.77 158.381 22.61C157.781 22.43 157.111 22.28 156.371 22.16C155.631 22.04 154.891 21.9 154.151 21.74C153.431 21.58 152.771 21.35 152.171 21.05C151.571 20.73 151.081 20.3 150.701 19.76C150.341 19.22 150.161 18.5 150.161 17.6C150.161 16.74 150.401 15.97 150.881 15.29C151.361 14.61 152.061 14.08 152.981 13.7C153.921 13.3 155.061 13.1 156.401 13.1C157.421 13.1 158.441 13.24 159.461 13.52C160.481 13.78 161.321 14.13 161.981 14.57L161.051 16.28C160.351 15.8 159.601 15.46 158.801 15.26C158.001 15.04 157.201 14.93 156.401 14.93C154.981 14.93 153.931 15.18 153.251 15.68C152.591 16.16 152.261 16.78 152.261 17.54C152.261 18.14 152.441 18.61 152.801 18.95C153.181 19.29 153.671 19.56 154.271 19.76C154.891 19.94 155.561 20.09 156.281 20.21C157.021 20.33 157.751 20.48 158.471 20.66C159.211 20.82 159.881 21.05 160.481 21.35C161.101 21.63 161.591 22.04 161.951 22.58C162.331 23.1 162.521 23.79 162.521 24.65C162.521 25.57 162.261 26.37 161.741 27.05C161.241 27.71 160.501 28.23 159.521 28.61C158.561 28.97 157.391 29.15 156.011 29.15ZM174.469 13.1C175.749 13.1 176.869 13.35 177.829 13.85C178.809 14.33 179.569 15.07 180.109 16.07C180.669 17.07 180.949 18.33 180.949 19.85V29H178.819V20.06C178.819 18.4 178.399 17.15 177.559 16.31C176.739 15.45 175.579 15.02 174.079 15.02C172.959 15.02 171.979 15.25 171.139 15.71C170.319 16.15 169.679 16.8 169.219 17.66C168.779 18.5 168.559 19.52 168.559 20.72V29H166.429V6.74H168.559V17.57L168.139 16.76C168.639 15.62 169.439 14.73 170.539 14.09C171.639 13.43 172.949 13.1 174.469 13.1ZM195.004 29V8H204.064C206.404 8 208.214 8.47 209.494 9.41C210.794 10.35 211.444 11.68 211.444 13.4C211.444 14.54 211.174 15.5 210.634 16.28C210.114 17.06 209.394 17.65 208.474 18.05C207.574 18.45 206.584 18.65 205.504 18.65L206.014 17.93C207.354 17.93 208.504 18.14 209.464 18.56C210.444 18.96 211.204 19.57 211.744 20.39C212.284 21.19 212.554 22.19 212.554 23.39C212.554 25.17 211.894 26.55 210.574 27.53C209.274 28.51 207.304 29 204.664 29H195.004ZM197.224 27.17H204.634C206.474 27.17 207.884 26.86 208.864 26.24C209.844 25.6 210.334 24.59 210.334 23.21C210.334 21.85 209.844 20.86 208.864 20.24C207.884 19.6 206.474 19.28 204.634 19.28H196.984V17.45H203.914C205.594 17.45 206.894 17.13 207.814 16.49C208.754 15.85 209.224 14.9 209.224 13.64C209.224 12.36 208.754 11.41 207.814 10.79C206.894 10.15 205.594 9.83 203.914 9.83H197.224V27.17ZM227.041 29V25.52L226.951 24.95V19.13C226.951 17.79 226.571 16.76 225.811 16.04C225.071 15.32 223.961 14.96 222.481 14.96C221.461 14.96 220.491 15.13 219.571 15.47C218.651 15.81 217.871 16.26 217.231 16.82L216.271 15.23C217.071 14.55 218.031 14.03 219.151 13.67C220.271 13.29 221.451 13.1 222.691 13.1C224.731 13.1 226.301 13.61 227.401 14.63C228.521 15.63 229.081 17.16 229.081 19.22V29H227.041ZM221.611 29.15C220.431 29.15 219.401 28.96 218.521 28.58C217.661 28.18 217.001 27.64 216.541 26.96C216.081 26.26 215.851 25.46 215.851 24.56C215.851 23.74 216.041 23 216.421 22.34C216.821 21.66 217.461 21.12 218.341 20.72C219.241 20.3 220.441 20.09 221.941 20.09H227.371V21.68H222.001C220.481 21.68 219.421 21.95 218.821 22.49C218.241 23.03 217.951 23.7 217.951 24.5C217.951 25.4 218.301 26.12 219.001 26.66C219.701 27.2 220.681 27.47 221.941 27.47C223.141 27.47 224.171 27.2 225.031 26.66C225.911 26.1 226.551 25.3 226.951 24.26L227.431 25.73C227.031 26.77 226.331 27.6 225.331 28.22C224.351 28.84 223.111 29.15 221.611 29.15ZM239.096 29.15C237.796 29.15 236.566 28.97 235.406 28.61C234.246 28.23 233.336 27.76 232.676 27.2L233.636 25.52C234.276 26 235.096 26.42 236.096 26.78C237.096 27.12 238.146 27.29 239.246 27.29C240.746 27.29 241.826 27.06 242.486 26.6C243.146 26.12 243.476 25.49 243.476 24.71C243.476 24.13 243.286 23.68 242.906 23.36C242.546 23.02 242.066 22.77 241.466 22.61C240.866 22.43 240.196 22.28 239.456 22.16C238.716 22.04 237.976 21.9 237.236 21.74C236.516 21.58 235.856 21.35 235.256 21.05C234.656 20.73 234.166 20.3 233.786 19.76C233.426 19.22 233.246 18.5 233.246 17.6C233.246 16.74 233.486 15.97 233.966 15.29C234.446 14.61 235.146 14.08 236.066 13.7C237.006 13.3 238.146 13.1 239.486 13.1C240.506 13.1 241.526 13.24 242.546 13.52C243.566 13.78 244.406 14.13 245.066 14.57L244.136 16.28C243.436 15.8 242.686 15.46 241.886 15.26C241.086 15.04 240.286 14.93 239.486 14.93C238.066 14.93 237.016 15.18 236.336 15.68C235.676 16.16 235.346 16.78 235.346 17.54C235.346 18.14 235.526 18.61 235.886 18.95C236.266 19.29 236.756 19.56 237.356 19.76C237.976 19.94 238.646 20.09 239.366 20.21C240.106 20.33 240.836 20.48 241.556 20.66C242.296 20.82 242.966 21.05 243.566 21.35C244.186 21.63 244.676 22.04 245.036 22.58C245.416 23.1 245.606 23.79 245.606 24.65C245.606 25.57 245.346 26.37 244.826 27.05C244.326 27.71 243.586 28.23 242.606 28.61C241.646 28.97 240.476 29.15 239.096 29.15ZM256.205 29.15C254.565 29.15 253.125 28.81 251.885 28.13C250.645 27.43 249.675 26.48 248.975 25.28C248.275 24.06 247.925 22.67 247.925 21.11C247.925 19.55 248.255 18.17 248.915 16.97C249.595 15.77 250.515 14.83 251.675 14.15C252.855 13.45 254.175 13.1 255.635 13.1C257.115 13.1 258.425 13.44 259.565 14.12C260.725 14.78 261.635 15.72 262.295 16.94C262.955 18.14 263.285 19.53 263.285 21.11C263.285 21.21 263.275 21.32 263.255 21.44C263.255 21.54 263.255 21.65 263.255 21.77H249.545V20.18H262.115L261.275 20.81C261.275 19.67 261.025 18.66 260.525 17.78C260.045 16.88 259.385 16.18 258.545 15.68C257.705 15.18 256.735 14.93 255.635 14.93C254.555 14.93 253.585 15.18 252.725 15.68C251.865 16.18 251.195 16.88 250.715 17.78C250.235 18.68 249.995 19.71 249.995 20.87V21.2C249.995 22.4 250.255 23.46 250.775 24.38C251.315 25.28 252.055 25.99 252.995 26.51C253.955 27.01 255.045 27.26 256.265 27.26C257.225 27.26 258.115 27.09 258.935 26.75C259.775 26.41 260.495 25.89 261.095 25.19L262.295 26.57C261.595 27.41 260.715 28.05 259.655 28.49C258.615 28.93 257.465 29.15 256.205 29.15ZM267.62 29V6.74H269.75V29H267.62ZM275.677 29V13.25H277.807V29H275.677ZM276.757 9.77C276.317 9.77 275.947 9.62 275.647 9.32C275.347 9.02 275.197 8.66 275.197 8.24C275.197 7.82 275.347 7.47 275.647 7.19C275.947 6.89 276.317 6.74 276.757 6.74C277.197 6.74 277.567 6.88 277.867 7.16C278.167 7.44 278.317 7.79 278.317 8.21C278.317 8.65 278.167 9.02 277.867 9.32C277.587 9.62 277.217 9.77 276.757 9.77ZM291.774 13.1C293.054 13.1 294.174 13.35 295.134 13.85C296.114 14.33 296.874 15.07 297.414 16.07C297.974 17.07 298.254 18.33 298.254 19.85V29H296.124V20.06C296.124 18.4 295.704 17.15 294.864 16.31C294.044 15.45 292.884 15.02 291.384 15.02C290.264 15.02 289.284 15.25 288.444 15.71C287.624 16.15 286.984 16.8 286.524 17.66C286.084 18.5 285.864 19.52 285.864 20.72V29H283.734V13.25H285.774V17.57L285.444 16.76C285.944 15.62 286.744 14.73 287.844 14.09C288.944 13.43 290.254 13.1 291.774 13.1ZM310.697 29.15C309.057 29.15 307.617 28.81 306.377 28.13C305.137 27.43 304.167 26.48 303.467 25.28C302.767 24.06 302.417 22.67 302.417 21.11C302.417 19.55 302.747 18.17 303.407 16.97C304.087 15.77 305.007 14.83 306.167 14.15C307.347 13.45 308.667 13.1 310.127 13.1C311.607 13.1 312.917 13.44 314.057 14.12C315.217 14.78 316.127 15.72 316.787 16.94C317.447 18.14 317.777 19.53 317.777 21.11C317.777 21.21 317.767 21.32 317.747 21.44C317.747 21.54 317.747 21.65 317.747 21.77H304.037V20.18H316.607L315.767 20.81C315.767 19.67 315.517 18.66 315.017 17.78C314.537 16.88 313.877 16.18 313.037 15.68C312.197 15.18 311.227 14.93 310.127 14.93C309.047 14.93 308.077 15.18 307.217 15.68C306.357 16.18 305.687 16.88 305.207 17.78C304.727 18.68 304.487 19.71 304.487 20.87V21.2C304.487 22.4 304.747 23.46 305.267 24.38C305.807 25.28 306.547 25.99 307.487 26.51C308.447 27.01 309.537 27.26 310.757 27.26C311.717 27.26 312.607 27.09 313.427 26.75C314.267 26.41 314.987 25.89 315.587 25.19L316.787 26.57C316.087 27.41 315.207 28.05 314.147 28.49C313.107 28.93 311.957 29.15 310.697 29.15Z" fill="#333333"/>
</svg>
