<svg xmlns="http://www.w3.org/2000/svg" width="255" height="198" viewBox="0 0 255 198" fill="none"><g filter="url(#filter0_dddd_1575_1112)"><mask id="path-1-inside-1_1575_1112" fill="white"><path fill-rule="evenodd" clip-rule="evenodd" d="M68 117.777C68 116.12 69.3431 114.777 71 114.777L107.807 114.777C109.486 114.777 110.839 113.399 110.807 111.72L109.274 31.057C109.242 29.3781 110.595 28 112.274 28L191.649 28C224.427 28 251 53.571 251 86.1244C251 118.678 216.184 144.249 183.405 144.249H143.6C141.92 144.249 140.568 145.628 140.601 147.308L141.304 182.941C141.338 184.62 139.985 186 138.305 186H113.1C111.42 186 110.068 184.62 110.101 182.941L110.804 147.308C110.838 145.628 109.485 144.249 107.805 144.249H71C69.3431 144.249 68 142.906 68 141.249V117.777ZM184.865 114.943L145 114.943C143.343 114.943 142 113.6 142 111.943V59C142 57.3431 143.343 56 145 56H191.459C208.304 56 217.838 68.7427 217.838 85.4715C217.838 102.2 201.71 114.943 184.865 114.943Z"></path></mask><path fill-rule="evenodd" clip-rule="evenodd" d="M68 117.777C68 116.12 69.3431 114.777 71 114.777L107.807 114.777C109.486 114.777 110.839 113.399 110.807 111.72L109.274 31.057C109.242 29.3781 110.595 28 112.274 28L191.649 28C224.427 28 251 53.571 251 86.1244C251 118.678 216.184 144.249 183.405 144.249H143.6C141.92 144.249 140.568 145.628 140.601 147.308L141.304 182.941C141.338 184.62 139.985 186 138.305 186H113.1C111.42 186 110.068 184.62 110.101 182.941L110.804 147.308C110.838 145.628 109.485 144.249 107.805 144.249H71C69.3431 144.249 68 142.906 68 141.249V117.777ZM184.865 114.943L145 114.943C143.343 114.943 142 113.6 142 111.943V59C142 57.3431 143.343 56 145 56H191.459C208.304 56 217.838 68.7427 217.838 85.4715C217.838 102.2 201.71 114.943 184.865 114.943Z" fill="#333333"></path><path d="M142.355 57.3342H191.649V54.3342H142.355V57.3342ZM143.689 56C143.689 56.7369 143.092 57.3342 142.355 57.3342V54.3342C141.435 54.3342 140.689 55.08 140.689 56H143.689ZM191.649 28V31V28ZM184.865 114.943V111.943V114.943ZM110.101 182.941L107.102 182.882L110.101 182.941ZM141.304 182.941L138.305 183L141.304 182.941ZM109.274 31.057L106.275 31.114L109.274 31.057ZM112.274 28V25V28ZM71 114.777L71 111.777L71 114.777ZM145 114.943V117.943V114.943ZM107.807 114.777V111.777V114.777ZM110.807 111.72L113.806 111.663L110.807 111.72ZM107.807 111.777L71 111.777L71 117.777L107.807 117.777V111.777ZM106.275 31.114L107.807 111.777L113.806 111.663L112.274 31L106.275 31.114ZM191.649 25L112.274 25V31L191.649 31V25ZM254 86.1244C254 51.8403 226.01 25 191.649 25V31C222.845 31 248 55.3017 248 86.1244H254ZM183.405 147.249C200.533 147.249 218.093 140.587 231.393 129.717C244.698 118.843 254 103.524 254 86.1244H248C248 101.278 239.894 115.021 227.596 125.071C215.294 135.125 199.057 141.249 183.405 141.249V147.249ZM143.6 147.249H183.405V141.249H143.6V147.249ZM144.304 182.882L143.6 147.249L137.602 147.367L138.305 183L144.304 182.882ZM113.1 189H138.305V183H113.1V189ZM107.805 147.249L107.102 182.882L113.1 183L113.804 147.367L107.805 147.249ZM71 147.249H107.805V141.249H71V147.249ZM65 117.777V141.249H71V117.777H65ZM145 117.943L184.865 117.943V111.943L145 111.943V117.943ZM139 59V111.943H145V59H139ZM191.459 53H145V59H191.459V53ZM220.838 85.4715C220.838 76.5611 218.298 68.4524 213.25 62.5186C208.154 56.5281 200.703 53 191.459 53V59C199.061 59 204.798 61.8432 208.68 66.4063C212.61 71.0261 214.838 77.6531 214.838 85.4715H220.838ZM184.865 117.943C202.925 117.943 220.838 104.267 220.838 85.4715H214.838C214.838 100.134 200.494 111.943 184.865 111.943V117.943ZM71 141.249H71H65C65 144.562 67.6863 147.249 71 147.249V141.249ZM113.804 147.367C113.87 144.008 111.165 141.249 107.805 141.249V147.249L113.804 147.367ZM113.1 183L107.102 182.882C107.035 186.241 109.74 189 113.1 189V183ZM138.305 183V189C141.665 189 144.37 186.241 144.304 182.882L138.305 183ZM145 59V53C141.686 53 139 55.6863 139 59H145ZM112.274 31L112.274 31V25C108.915 25 106.211 27.7563 106.275 31.114L112.274 31ZM143.6 141.249C140.24 141.249 137.535 144.008 137.602 147.367L143.6 147.249V141.249ZM71 111.777C67.6863 111.777 65 114.464 65 117.777H71H71L71 111.777ZM145 111.943H139C139 115.257 141.686 117.943 145 117.943V111.943ZM107.807 117.777C111.166 117.777 113.87 115.021 113.806 111.663L107.807 111.777V117.777Z" fill="url(#paint0_linear_1575_1112)" mask="url(#path-1-inside-1_1575_1112)"></path></g><defs><filter id="filter0_dddd_1575_1112" x="0" y="0" width="255" height="198" filterUnits="userSpaceOnUse" color-interpolation-filters="sRGB"><feGaussianBlur stdDeviation="3.5"></feGaussianBlur><feGaussianBlur stdDeviation="6"></feGaussianBlur><feGaussianBlur stdDeviation="8"></feGaussianBlur><feGaussianBlur stdDeviation="10"></feGaussianBlur></filter><linearGradient id="paint0_linear_1575_1112" x1="159.5" y1="28" x2="159.5" y2="186" gradientUnits="userSpaceOnUse"><stop stop-color="#4766EA"></stop><stop offset="0.265625" stop-color="#00AAE1"></stop><stop offset="0.536458" stop-color="#64C397"></stop><stop offset="0.75" stop-color="#DBE373"></stop><stop offset="1" stop-color="#EF8E41"></stop></linearGradient></defs></svg>