<svg width="21" height="20" viewBox="0 0 21 20" fill="none" xmlns="http://www.w3.org/2000/svg">
<path d="M20.2012 10.0018C20.149 11.7034 20.13 13.4063 20.0351 15.1059C19.9518 16.5944 19.3819 17.866 17.9956 18.6587C17.3037 19.0544 16.536 19.2668 15.7378 19.2826C13.0416 19.3361 10.3454 19.3796 7.64927 19.3862C6.64846 19.3888 5.63951 19.3394 4.64818 19.2114C2.57743 18.9443 1.24391 17.6925 1.01014 15.6671C0.833283 14.1344 0.825152 12.5785 0.810922 11.0326C0.793305 9.13251 0.826508 7.23176 0.877328 5.33232C0.90782 4.20057 1.12262 3.10641 1.88289 2.18241C2.71227 1.174 3.84725 0.718261 5.11098 0.67869C7.94132 0.590973 10.7744 0.574485 13.6061 0.564592C14.5161 0.561294 15.4349 0.616694 16.3354 0.742664C18.4116 1.03352 19.7262 2.27936 19.9518 4.31005C20.1259 5.87709 20.1009 7.46523 20.1598 9.04414C20.1713 9.36269 20.1618 9.68124 20.1618 10.0005C20.1754 10.0005 20.189 10.0011 20.2025 10.0018H20.2012ZM4.40831 9.95231C4.37578 13.1345 6.93576 15.7073 10.1056 15.8762C13.9943 16.0826 16.5238 12.998 16.5408 10.0394C16.5597 6.81098 13.9401 4.13857 10.5718 4.06866C7.20748 3.99875 4.48691 6.59663 4.40831 9.95297V9.95231ZM15.336 3.83255C15.3414 4.62794 15.958 5.23669 16.7623 5.23998C17.5463 5.24328 18.1927 4.62398 18.1914 3.87014C18.19 3.06882 17.5544 2.45875 16.7284 2.46469C15.9641 2.47063 15.3312 3.09256 15.336 3.83189V3.83255Z" fill="white"/>
</svg>
