<svg width="386" height="37" viewBox="0 0 386 37" fill="none" xmlns="http://www.w3.org/2000/svg">
<path d="M25.1642 8.64923C23.1074 6.63525 20.3987 5.23056 17.3209 4.82086C9.77008 3.8157 2.82608 9.12815 1.82093 16.679C0.815778 24.2298 6.12822 31.1738 13.6791 32.179C21.2299 33.1841 28.1739 27.8717 29.1791 20.3209C29.4395 18.3647 29.2786 16.4361 28.7502 14.6534" stroke="#DFFC7C" stroke-width="3" stroke-linecap="round" stroke-linejoin="round"/>
<path d="M8.51477 19.0053L14.3039 24.7945L30.3091 8.78925" stroke="#333333" stroke-width="3" stroke-linecap="round" stroke-linejoin="round"/>
<path d="M55.5 29V9.92H48.12V8H65.1V9.92H57.72V29H55.5ZM76.2366 13.1C77.5166 13.1 78.6366 13.35 79.5966 13.85C80.5766 14.33 81.3366 15.07 81.8766 16.07C82.4366 17.07 82.7166 18.33 82.7166 19.85V29H80.5866V20.06C80.5866 18.4 80.1666 17.15 79.3266 16.31C78.5066 15.45 77.3466 15.02 75.8466 15.02C74.7266 15.02 73.7466 15.25 72.9066 15.71C72.0866 16.15 71.4466 16.8 70.9866 17.66C70.5466 18.5 70.3266 19.52 70.3266 20.72V29H68.1966V6.74H70.3266V17.57L69.9066 16.76C70.4066 15.62 71.2066 14.73 72.3066 14.09C73.4066 13.43 74.7166 13.1 76.2366 13.1ZM88.47 29V13.25H90.6V29H88.47ZM89.55 9.77C89.11 9.77 88.74 9.62 88.44 9.32C88.14 9.02 87.99 8.66 87.99 8.24C87.99 7.82 88.14 7.47 88.44 7.19C88.74 6.89 89.11 6.74 89.55 6.74C89.99 6.74 90.36 6.88 90.66 7.16C90.96 7.44 91.11 7.79 91.11 8.21C91.11 8.65 90.96 9.02 90.66 9.32C90.38 9.62 90.01 9.77 89.55 9.77ZM96.5266 29V13.25H98.5666V17.54L98.3566 16.79C98.7966 15.59 99.5366 14.68 100.577 14.06C101.617 13.42 102.907 13.1 104.447 13.1V15.17C104.367 15.17 104.287 15.17 104.207 15.17C104.127 15.15 104.047 15.14 103.967 15.14C102.307 15.14 101.007 15.65 100.067 16.67C99.1266 17.67 98.6566 19.1 98.6566 20.96V29H96.5266ZM114.457 29.15C112.957 29.15 111.607 28.81 110.407 28.13C109.227 27.45 108.297 26.51 107.617 25.31C106.937 24.09 106.597 22.69 106.597 21.11C106.597 19.51 106.937 18.11 107.617 16.91C108.297 15.71 109.227 14.78 110.407 14.12C111.607 13.44 112.957 13.1 114.457 13.1C115.837 13.1 117.067 13.41 118.147 14.03C119.247 14.65 120.117 15.56 120.757 16.76C121.417 17.94 121.747 19.39 121.747 21.11C121.747 22.81 121.427 24.26 120.787 25.46C120.147 26.66 119.277 27.58 118.177 28.22C117.097 28.84 115.857 29.15 114.457 29.15ZM114.607 27.26C115.727 27.26 116.727 27.01 117.607 26.51C118.507 25.99 119.207 25.27 119.707 24.35C120.227 23.41 120.487 22.33 120.487 21.11C120.487 19.87 120.227 18.79 119.707 17.87C119.207 16.95 118.507 16.24 117.607 15.74C116.727 15.22 115.727 14.96 114.607 14.96C113.507 14.96 112.517 15.22 111.637 15.74C110.757 16.24 110.057 16.95 109.537 17.87C109.017 18.79 108.757 19.87 108.757 21.11C108.757 22.33 109.017 23.41 109.537 24.35C110.057 25.27 110.757 25.99 111.637 26.51C112.517 27.01 113.507 27.26 114.607 27.26ZM120.547 29V24.26L120.757 21.08L120.457 17.9V6.74H122.587V29H120.547ZM138.8 18.17H149.9V20.09H138.8V18.17ZM139.04 29H136.82V8H151.22V9.92H139.04V29ZM161.517 29.15C159.877 29.15 158.437 28.81 157.197 28.13C155.957 27.43 154.987 26.48 154.287 25.28C153.587 24.06 153.237 22.67 153.237 21.11C153.237 19.55 153.567 18.17 154.227 16.97C154.907 15.77 155.827 14.83 156.987 14.15C158.167 13.45 159.487 13.1 160.947 13.1C162.427 13.1 163.737 13.44 164.877 14.12C166.037 14.78 166.947 15.72 167.607 16.94C168.267 18.14 168.597 19.53 168.597 21.11C168.597 21.21 168.587 21.32 168.567 21.44C168.567 21.54 168.567 21.65 168.567 21.77H154.857V20.18H167.427L166.587 20.81C166.587 19.67 166.337 18.66 165.837 17.78C165.357 16.88 164.697 16.18 163.857 15.68C163.017 15.18 162.047 14.93 160.947 14.93C159.867 14.93 158.897 15.18 158.037 15.68C157.177 16.18 156.507 16.88 156.027 17.78C155.547 18.68 155.307 19.71 155.307 20.87V21.2C155.307 22.4 155.567 23.46 156.087 24.38C156.627 25.28 157.367 25.99 158.307 26.51C159.267 27.01 160.357 27.26 161.577 27.26C162.537 27.26 163.427 27.09 164.247 26.75C165.087 26.41 165.807 25.89 166.407 25.19L167.607 26.57C166.907 27.41 166.027 28.05 164.967 28.49C163.927 28.93 162.777 29.15 161.517 29.15ZM179.623 29.15C177.983 29.15 176.543 28.81 175.303 28.13C174.063 27.43 173.093 26.48 172.393 25.28C171.693 24.06 171.343 22.67 171.343 21.11C171.343 19.55 171.673 18.17 172.333 16.97C173.013 15.77 173.933 14.83 175.093 14.15C176.273 13.45 177.593 13.1 179.053 13.1C180.533 13.1 181.843 13.44 182.983 14.12C184.143 14.78 185.053 15.72 185.713 16.94C186.373 18.14 186.703 19.53 186.703 21.11C186.703 21.21 186.693 21.32 186.673 21.44C186.673 21.54 186.673 21.65 186.673 21.77H172.963V20.18H185.533L184.693 20.81C184.693 19.67 184.443 18.66 183.943 17.78C183.463 16.88 182.803 16.18 181.963 15.68C181.123 15.18 180.153 14.93 179.053 14.93C177.973 14.93 177.003 15.18 176.143 15.68C175.283 16.18 174.613 16.88 174.133 17.78C173.653 18.68 173.413 19.71 173.413 20.87V21.2C173.413 22.4 173.673 23.46 174.193 24.38C174.733 25.28 175.473 25.99 176.413 26.51C177.373 27.01 178.463 27.26 179.683 27.26C180.643 27.26 181.533 27.09 182.353 26.75C183.193 26.41 183.913 25.89 184.513 25.19L185.713 26.57C185.013 27.41 184.133 28.05 183.073 28.49C182.033 28.93 180.883 29.15 179.623 29.15ZM197.308 29.15C195.808 29.15 194.458 28.81 193.258 28.13C192.078 27.45 191.148 26.51 190.468 25.31C189.788 24.09 189.448 22.69 189.448 21.11C189.448 19.51 189.788 18.11 190.468 16.91C191.148 15.71 192.078 14.78 193.258 14.12C194.458 13.44 195.808 13.1 197.308 13.1C198.688 13.1 199.918 13.41 200.998 14.03C202.098 14.65 202.968 15.56 203.608 16.76C204.268 17.94 204.598 19.39 204.598 21.11C204.598 22.81 204.278 24.26 203.638 25.46C202.998 26.66 202.128 27.58 201.028 28.22C199.948 28.84 198.708 29.15 197.308 29.15ZM197.458 27.26C198.578 27.26 199.578 27.01 200.458 26.51C201.358 25.99 202.058 25.27 202.558 24.35C203.078 23.41 203.338 22.33 203.338 21.11C203.338 19.87 203.078 18.79 202.558 17.87C202.058 16.95 201.358 16.24 200.458 15.74C199.578 15.22 198.578 14.96 197.458 14.96C196.358 14.96 195.368 15.22 194.488 15.74C193.608 16.24 192.908 16.95 192.388 17.87C191.868 18.79 191.608 19.87 191.608 21.11C191.608 22.33 191.868 23.41 192.388 24.35C192.908 25.27 193.608 25.99 194.488 26.51C195.368 27.01 196.358 27.26 197.458 27.26ZM203.398 29V24.26L203.608 21.08L203.308 17.9V6.74H205.438V29H203.398ZM225.642 29L216.342 8H218.742L227.442 27.77H226.122L234.882 8H237.132L227.832 29H225.642ZM245.219 29.15C243.579 29.15 242.139 28.81 240.899 28.13C239.659 27.43 238.689 26.48 237.989 25.28C237.289 24.06 236.939 22.67 236.939 21.11C236.939 19.55 237.269 18.17 237.929 16.97C238.609 15.77 239.529 14.83 240.689 14.15C241.869 13.45 243.189 13.1 244.649 13.1C246.129 13.1 247.439 13.44 248.579 14.12C249.739 14.78 250.649 15.72 251.309 16.94C251.969 18.14 252.299 19.53 252.299 21.11C252.299 21.21 252.289 21.32 252.269 21.44C252.269 21.54 252.269 21.65 252.269 21.77H238.559V20.18H251.129L250.289 20.81C250.289 19.67 250.039 18.66 249.539 17.78C249.059 16.88 248.399 16.18 247.559 15.68C246.719 15.18 245.749 14.93 244.649 14.93C243.569 14.93 242.599 15.18 241.739 15.68C240.879 16.18 240.209 16.88 239.729 17.78C239.249 18.68 239.009 19.71 239.009 20.87V21.2C239.009 22.4 239.269 23.46 239.789 24.38C240.329 25.28 241.069 25.99 242.009 26.51C242.969 27.01 244.059 27.26 245.279 27.26C246.239 27.26 247.129 27.09 247.949 26.75C248.789 26.41 249.509 25.89 250.109 25.19L251.309 26.57C250.609 27.41 249.729 28.05 248.669 28.49C247.629 28.93 246.479 29.15 245.219 29.15ZM256.634 29V13.25H258.674V17.54L258.464 16.79C258.904 15.59 259.644 14.68 260.684 14.06C261.724 13.42 263.014 13.1 264.554 13.1V15.17C264.474 15.17 264.394 15.17 264.314 15.17C264.234 15.15 264.154 15.14 264.074 15.14C262.414 15.14 261.114 15.65 260.174 16.67C259.234 17.67 258.764 19.1 258.764 20.96V29H256.634ZM268.441 29V13.25H270.571V29H268.441ZM269.521 9.77C269.081 9.77 268.711 9.62 268.411 9.32C268.111 9.02 267.961 8.66 267.961 8.24C267.961 7.82 268.111 7.47 268.411 7.19C268.711 6.89 269.081 6.74 269.521 6.74C269.961 6.74 270.331 6.88 270.631 7.16C270.931 7.44 271.081 7.79 271.081 8.21C271.081 8.65 270.931 9.02 270.631 9.32C270.351 9.62 269.981 9.77 269.521 9.77ZM276.857 29V11.27C276.857 9.87 277.267 8.74 278.087 7.88C278.907 7.02 280.087 6.59 281.627 6.59C282.227 6.59 282.807 6.67 283.367 6.83C283.927 6.99 284.397 7.24 284.777 7.58L284.057 9.17C283.757 8.91 283.407 8.72 283.007 8.6C282.607 8.46 282.177 8.39 281.717 8.39C280.817 8.39 280.127 8.64 279.647 9.14C279.167 9.64 278.927 10.38 278.927 11.36V13.76L278.987 14.75V29H276.857ZM274.037 15.02V13.25H283.787V15.02H274.037ZM286.667 29V13.25H288.797V29H286.667ZM287.747 9.77C287.307 9.77 286.937 9.62 286.637 9.32C286.337 9.02 286.187 8.66 286.187 8.24C286.187 7.82 286.337 7.47 286.637 7.19C286.937 6.89 287.307 6.74 287.747 6.74C288.187 6.74 288.557 6.88 288.857 7.16C289.157 7.44 289.307 7.79 289.307 8.21C289.307 8.65 289.157 9.02 288.857 9.32C288.577 9.62 288.207 9.77 287.747 9.77ZM301.319 29.15C299.759 29.15 298.359 28.81 297.119 28.13C295.899 27.43 294.939 26.48 294.239 25.28C293.539 24.06 293.189 22.67 293.189 21.11C293.189 19.53 293.539 18.14 294.239 16.94C294.939 15.74 295.899 14.8 297.119 14.12C298.359 13.44 299.759 13.1 301.319 13.1C302.659 13.1 303.869 13.36 304.949 13.88C306.029 14.4 306.879 15.18 307.499 16.22L305.909 17.3C305.369 16.5 304.699 15.91 303.899 15.53C303.099 15.15 302.229 14.96 301.289 14.96C300.169 14.96 299.159 15.22 298.259 15.74C297.359 16.24 296.649 16.95 296.129 17.87C295.609 18.79 295.349 19.87 295.349 21.11C295.349 22.35 295.609 23.43 296.129 24.35C296.649 25.27 297.359 25.99 298.259 26.51C299.159 27.01 300.169 27.26 301.289 27.26C302.229 27.26 303.099 27.07 303.899 26.69C304.699 26.31 305.369 25.73 305.909 24.95L307.499 26.03C306.879 27.05 306.029 27.83 304.949 28.37C303.869 28.89 302.659 29.15 301.319 29.15ZM321.553 29V25.52L321.463 24.95V19.13C321.463 17.79 321.083 16.76 320.323 16.04C319.583 15.32 318.473 14.96 316.993 14.96C315.973 14.96 315.003 15.13 314.083 15.47C313.163 15.81 312.383 16.26 311.743 16.82L310.783 15.23C311.583 14.55 312.543 14.03 313.663 13.67C314.783 13.29 315.963 13.1 317.203 13.1C319.243 13.1 320.813 13.61 321.913 14.63C323.033 15.63 323.593 17.16 323.593 19.22V29H321.553ZM316.123 29.15C314.943 29.15 313.913 28.96 313.033 28.58C312.173 28.18 311.513 27.64 311.053 26.96C310.593 26.26 310.363 25.46 310.363 24.56C310.363 23.74 310.553 23 310.933 22.34C311.333 21.66 311.973 21.12 312.853 20.72C313.753 20.3 314.953 20.09 316.453 20.09H321.883V21.68H316.513C314.993 21.68 313.933 21.95 313.333 22.49C312.753 23.03 312.463 23.7 312.463 24.5C312.463 25.4 312.813 26.12 313.513 26.66C314.213 27.2 315.193 27.47 316.453 27.47C317.653 27.47 318.683 27.2 319.543 26.66C320.423 26.1 321.063 25.3 321.463 24.26L321.943 25.73C321.543 26.77 320.843 27.6 319.843 28.22C318.863 28.84 317.623 29.15 316.123 29.15ZM334.358 29.15C332.878 29.15 331.738 28.75 330.938 27.95C330.138 27.15 329.738 26.02 329.738 24.56V9.77H331.868V24.44C331.868 25.36 332.098 26.07 332.558 26.57C333.038 27.07 333.718 27.32 334.598 27.32C335.538 27.32 336.318 27.05 336.938 26.51L337.688 28.04C337.268 28.42 336.758 28.7 336.158 28.88C335.578 29.06 334.978 29.15 334.358 29.15ZM326.918 15.02V13.25H336.668V15.02H326.918ZM341.566 29V13.25H343.696V29H341.566ZM342.646 9.77C342.206 9.77 341.836 9.62 341.536 9.32C341.236 9.02 341.086 8.66 341.086 8.24C341.086 7.82 341.236 7.47 341.536 7.19C341.836 6.89 342.206 6.74 342.646 6.74C343.086 6.74 343.456 6.88 343.756 7.16C344.056 7.44 344.206 7.79 344.206 8.21C344.206 8.65 344.056 9.02 343.756 9.32C343.476 9.62 343.106 9.77 342.646 9.77ZM356.042 29.15C354.522 29.15 353.152 28.81 351.932 28.13C350.732 27.43 349.782 26.48 349.082 25.28C348.382 24.06 348.032 22.67 348.032 21.11C348.032 19.53 348.382 18.14 349.082 16.94C349.782 15.74 350.732 14.8 351.932 14.12C353.132 13.44 354.502 13.1 356.042 13.1C357.602 13.1 358.982 13.44 360.182 14.12C361.402 14.8 362.352 15.74 363.032 16.94C363.732 18.14 364.082 19.53 364.082 21.11C364.082 22.67 363.732 24.06 363.032 25.28C362.352 26.48 361.402 27.43 360.182 28.13C358.962 28.81 357.582 29.15 356.042 29.15ZM356.042 27.26C357.182 27.26 358.192 27.01 359.072 26.51C359.952 25.99 360.642 25.27 361.142 24.35C361.662 23.41 361.922 22.33 361.922 21.11C361.922 19.87 361.662 18.79 361.142 17.87C360.642 16.95 359.952 16.24 359.072 15.74C358.192 15.22 357.192 14.96 356.072 14.96C354.952 14.96 353.952 15.22 353.072 15.74C352.192 16.24 351.492 16.95 350.972 17.87C350.452 18.79 350.192 19.87 350.192 21.11C350.192 22.33 350.452 23.41 350.972 24.35C351.492 25.27 352.192 25.99 353.072 26.51C353.952 27.01 354.942 27.26 356.042 27.26ZM376.471 13.1C377.751 13.1 378.871 13.35 379.831 13.85C380.811 14.33 381.571 15.07 382.111 16.07C382.671 17.07 382.951 18.33 382.951 19.85V29H380.821V20.06C380.821 18.4 380.401 17.15 379.561 16.31C378.741 15.45 377.581 15.02 376.081 15.02C374.961 15.02 373.981 15.25 373.141 15.71C372.321 16.15 371.681 16.8 371.221 17.66C370.781 18.5 370.561 19.52 370.561 20.72V29H368.431V13.25H370.471V17.57L370.141 16.76C370.641 15.62 371.441 14.73 372.541 14.09C373.641 13.43 374.951 13.1 376.471 13.1Z" fill="#333333"/>
</svg>
