<svg width="35" height="47" viewBox="0 0 35 47" fill="none" xmlns="http://www.w3.org/2000/svg">
<rect x="18.2603" y="5.1507" width="5.15068" height="5.15068" rx="1" transform="rotate(180 18.2603 5.1507)" fill="#EF8E41"/>
<rect x="18.2603" y="30.2603" width="5.15068" height="5.15068" rx="1" transform="rotate(180 18.2603 30.2603)" fill="#EF8E41"/>
<rect x="18.2603" y="13.5206" width="5.15068" height="5.15068" rx="1" transform="rotate(180 18.2603 13.5206)" fill="#EF8E41"/>
<rect x="18.2603" y="38.6301" width="5.15068" height="5.15068" rx="1" transform="rotate(180 18.2603 38.6301)" fill="#EF8E41"/>
<rect x="18.2603" y="21.8904" width="5.15068" height="5.15068" rx="1" transform="rotate(180 18.2603 21.8904)" fill="#EF8E41"/>
<rect x="18.2603" y="47" width="5.15068" height="5.15068" rx="1" transform="rotate(180 18.2603 47)" fill="#EF8E41"/>
<rect x="1.52051" y="5.1507" width="5.15068" height="5.15068" rx="1" transform="rotate(180 1.52051 5.1507)" fill="#EF8E41"/>
<rect x="1.52051" y="30.2603" width="5.15068" height="5.15068" rx="1" transform="rotate(180 1.52051 30.2603)" fill="#EF8E41"/>
<rect x="26.6304" y="5.1507" width="5.15068" height="5.15068" rx="1" transform="rotate(180 26.6304 5.1507)" fill="#EF8E41"/>
<rect x="26.6304" y="30.2603" width="5.15068" height="5.15068" rx="1" transform="rotate(180 26.6304 30.2603)" fill="#EF8E41"/>
<rect x="1.52051" y="13.5206" width="5.15068" height="5.15068" rx="1" transform="rotate(180 1.52051 13.5206)" fill="#EF8E41"/>
<rect x="1.52051" y="38.6301" width="5.15068" height="5.15068" rx="1" transform="rotate(180 1.52051 38.6301)" fill="#EF8E41"/>
<rect x="26.6304" y="13.5206" width="5.15068" height="5.15068" rx="1" transform="rotate(180 26.6304 13.5206)" fill="#EF8E41"/>
<rect x="26.6304" y="38.6301" width="5.15068" height="5.15068" rx="1" transform="rotate(180 26.6304 38.6301)" fill="#EF8E41"/>
<rect x="1.52051" y="21.8904" width="5.15068" height="5.15068" rx="1" transform="rotate(180 1.52051 21.8904)" fill="#EF8E41"/>
<rect x="1.52051" y="47" width="5.15068" height="5.15068" rx="1" transform="rotate(180 1.52051 47)" fill="#EF8E41"/>
<rect x="26.6304" y="21.8904" width="5.15068" height="5.15068" rx="1" transform="rotate(180 26.6304 21.8904)" fill="#EF8E41"/>
<rect x="26.6304" y="47" width="5.15068" height="5.15068" rx="1" transform="rotate(180 26.6304 47)" fill="#EF8E41"/>
<rect x="9.89062" y="5.1507" width="5.15068" height="5.15068" rx="1" transform="rotate(180 9.89062 5.1507)" fill="#EF8E41"/>
<rect x="9.89062" y="30.2603" width="5.15068" height="5.15068" rx="1" transform="rotate(180 9.89062 30.2603)" fill="#EF8E41"/>
<rect x="35" y="5.1507" width="5.15068" height="5.15068" rx="1" transform="rotate(180 35 5.1507)" fill="#EF8E41"/>
<rect x="35" y="30.2603" width="5.15068" height="5.15068" rx="1" transform="rotate(180 35 30.2603)" fill="#EF8E41"/>
<rect x="9.89062" y="13.5206" width="5.15068" height="5.15068" rx="1" transform="rotate(180 9.89062 13.5206)" fill="#EF8E41"/>
<rect x="9.89062" y="38.6301" width="5.15068" height="5.15068" rx="1" transform="rotate(180 9.89062 38.6301)" fill="#EF8E41"/>
<rect x="35" y="13.5206" width="5.15068" height="5.15068" rx="1" transform="rotate(180 35 13.5206)" fill="#EF8E41"/>
<rect x="35" y="38.6301" width="5.15068" height="5.15068" rx="1" transform="rotate(180 35 38.6301)" fill="#EF8E41"/>
<rect x="9.89062" y="21.8904" width="5.15068" height="5.15068" rx="1" transform="rotate(180 9.89062 21.8904)" fill="#EF8E41"/>
<rect x="9.89062" y="47" width="5.15068" height="5.15068" rx="1" transform="rotate(180 9.89062 47)" fill="#EF8E41"/>
<rect x="35" y="21.8904" width="5.15068" height="5.15068" rx="1" transform="rotate(180 35 21.8904)" fill="#EF8E41"/>
<rect x="35" y="47" width="5.15068" height="5.15068" rx="1" transform="rotate(180 35 47)" fill="#EF8E41"/>
</svg>
