<svg width="65" height="65" viewBox="0 0 65 65" fill="none" xmlns="http://www.w3.org/2000/svg">
<rect x="7.04004" y="7.03998" width="7.04" height="7.04" rx="1" transform="rotate(180 7.04004 7.03998)" fill="#DFFC7C"/>
<rect x="7.04004" y="41.36" width="7.04" height="7.04" rx="1" transform="rotate(180 7.04004 41.36)" fill="#DFFC7C"/>
<rect x="41.3601" y="7.03998" width="7.04" height="7.04" rx="1" transform="rotate(180 41.3601 7.03998)" fill="#DFFC7C"/>
<rect x="41.3601" y="41.36" width="7.04" height="7.04" rx="1" transform="rotate(180 41.3601 41.36)" fill="#DFFC7C"/>
<rect x="7.04004" y="18.48" width="7.04" height="7.04" rx="1" transform="rotate(180 7.04004 18.48)" fill="#DFFC7C"/>
<rect x="7.04004" y="52.8" width="7.04" height="7.04" rx="1" transform="rotate(180 7.04004 52.8)" fill="#DFFC7C"/>
<rect x="41.3601" y="18.48" width="7.04" height="7.04" rx="1" transform="rotate(180 41.3601 18.48)" fill="#DFFC7C"/>
<rect x="41.3601" y="52.8" width="7.04" height="7.04" rx="1" transform="rotate(180 41.3601 52.8)" fill="#DFFC7C"/>
<rect x="7.04004" y="29.92" width="7.04" height="7.04" rx="1" transform="rotate(180 7.04004 29.92)" fill="#DFFC7C"/>
<rect x="7.04004" y="64.24" width="7.04" height="7.04" rx="1" transform="rotate(180 7.04004 64.24)" fill="#DFFC7C"/>
<rect x="41.3601" y="29.92" width="7.04" height="7.04" rx="1" transform="rotate(180 41.3601 29.92)" fill="#DFFC7C"/>
<rect x="41.3601" y="64.24" width="7.04" height="7.04" rx="1" transform="rotate(180 41.3601 64.24)" fill="#DFFC7C"/>
<rect x="18.48" y="7.03998" width="7.04" height="7.04" rx="1" transform="rotate(180 18.48 7.03998)" fill="#DFFC7C"/>
<rect x="18.48" y="41.36" width="7.04" height="7.04" rx="1" transform="rotate(180 18.48 41.36)" fill="#DFFC7C"/>
<rect x="52.8" y="7.03998" width="7.04" height="7.04" rx="1" transform="rotate(180 52.8 7.03998)" fill="#DFFC7C"/>
<rect x="52.8" y="41.36" width="7.04" height="7.04" rx="1" transform="rotate(180 52.8 41.36)" fill="#DFFC7C"/>
<rect x="18.48" y="18.48" width="7.04" height="7.04" rx="1" transform="rotate(180 18.48 18.48)" fill="#DFFC7C"/>
<rect x="18.48" y="52.8" width="7.04" height="7.04" rx="1" transform="rotate(180 18.48 52.8)" fill="#DFFC7C"/>
<rect x="52.8" y="18.48" width="7.04" height="7.04" rx="1" transform="rotate(180 52.8 18.48)" fill="#DFFC7C"/>
<rect x="52.8" y="52.8" width="7.04" height="7.04" rx="1" transform="rotate(180 52.8 52.8)" fill="#DFFC7C"/>
<rect x="18.48" y="29.92" width="7.04" height="7.04" rx="1" transform="rotate(180 18.48 29.92)" fill="#DFFC7C"/>
<rect x="18.48" y="64.24" width="7.04" height="7.04" rx="1" transform="rotate(180 18.48 64.24)" fill="#DFFC7C"/>
<rect x="52.8" y="29.92" width="7.04" height="7.04" rx="1" transform="rotate(180 52.8 29.92)" fill="#DFFC7C"/>
<rect x="52.8" y="64.24" width="7.04" height="7.04" rx="1" transform="rotate(180 52.8 64.24)" fill="#DFFC7C"/>
<rect x="29.9199" y="7.03998" width="7.04" height="7.04" rx="1" transform="rotate(180 29.9199 7.03998)" fill="#DFFC7C"/>
<rect x="29.9199" y="41.36" width="7.04" height="7.04" rx="1" transform="rotate(180 29.9199 41.36)" fill="#DFFC7C"/>
<rect x="64.24" y="7.03998" width="7.04" height="7.04" rx="1" transform="rotate(180 64.24 7.03998)" fill="#DFFC7C"/>
<rect x="64.24" y="41.36" width="7.04" height="7.04" rx="1" transform="rotate(180 64.24 41.36)" fill="#DFFC7C"/>
<rect x="29.9199" y="18.48" width="7.04" height="7.04" rx="1" transform="rotate(180 29.9199 18.48)" fill="#DFFC7C"/>
<rect x="29.9199" y="52.8" width="7.04" height="7.04" rx="1" transform="rotate(180 29.9199 52.8)" fill="#DFFC7C"/>
<rect x="64.24" y="18.48" width="7.04" height="7.04" rx="1" transform="rotate(180 64.24 18.48)" fill="#DFFC7C"/>
<rect x="64.24" y="52.8" width="7.04" height="7.04" rx="1" transform="rotate(180 64.24 52.8)" fill="#DFFC7C"/>
<rect x="29.9199" y="29.92" width="7.04" height="7.04" rx="1" transform="rotate(180 29.9199 29.92)" fill="#DFFC7C"/>
<rect x="29.9199" y="64.24" width="7.04" height="7.04" rx="1" transform="rotate(180 29.9199 64.24)" fill="#DFFC7C"/>
<rect x="64.24" y="29.92" width="7.04" height="7.04" rx="1" transform="rotate(180 64.24 29.92)" fill="#DFFC7C"/>
<rect x="64.24" y="64.24" width="7.04" height="7.04" rx="1" transform="rotate(180 64.24 64.24)" fill="#DFFC7C"/>
</svg>
