<svg width="725" height="110" viewBox="0 0 725 110" fill="none" xmlns="http://www.w3.org/2000/svg">
<g filter="url(#filter0_d_491_60)">
<rect x="20" y="5" width="695" height="80" rx="10" fill="white"/>
</g>
<rect x="498" y="10" width="211" height="70" rx="10" fill="#DFFC7C"/>
<path d="M547.262 52.22C546.059 52.22 544.952 52.0293 543.94 51.648C542.943 51.252 542.07 50.702 541.322 49.998C540.574 49.2793 539.995 48.436 539.584 47.468C539.173 46.5 538.968 45.444 538.968 44.3C538.968 43.156 539.173 42.1 539.584 41.132C539.995 40.164 540.574 39.328 541.322 38.624C542.085 37.9053 542.972 37.3553 543.984 36.974C544.996 36.578 546.103 36.38 547.306 36.38C548.611 36.38 549.785 36.5927 550.826 37.018C551.882 37.4433 552.769 38.0667 553.488 38.888L551.684 40.648C551.083 40.0467 550.43 39.6067 549.726 39.328C549.037 39.0347 548.274 38.888 547.438 38.888C546.631 38.888 545.883 39.02 545.194 39.284C544.505 39.548 543.911 39.922 543.412 40.406C542.913 40.89 542.525 41.462 542.246 42.122C541.982 42.782 541.85 43.508 541.85 44.3C541.85 45.0773 541.982 45.796 542.246 46.456C542.525 47.116 542.913 47.6953 543.412 48.194C543.911 48.678 544.497 49.052 545.172 49.316C545.847 49.58 546.595 49.712 547.416 49.712C548.179 49.712 548.912 49.5947 549.616 49.36C550.335 49.1107 551.017 48.7 551.662 48.128L553.29 50.262C552.483 50.9073 551.545 51.3987 550.474 51.736C549.418 52.0587 548.347 52.22 547.262 52.22ZM550.584 49.888V44.124H553.29V50.262L550.584 49.888ZM562.32 52.154C561.015 52.154 559.871 51.8973 558.888 51.384C557.92 50.856 557.165 50.1373 556.622 49.228C556.094 48.3187 555.83 47.2847 555.83 46.126C555.83 44.9527 556.087 43.9187 556.6 43.024C557.128 42.1147 557.847 41.4033 558.756 40.89C559.68 40.3767 560.729 40.12 561.902 40.12C563.046 40.12 564.065 40.3693 564.96 40.868C565.855 41.3667 566.559 42.0707 567.072 42.98C567.585 43.8893 567.842 44.96 567.842 46.192C567.842 46.3093 567.835 46.4413 567.82 46.588C567.82 46.7347 567.813 46.874 567.798 47.006H558.008V45.18H566.346L565.268 45.752C565.283 45.0773 565.143 44.4833 564.85 43.97C564.557 43.4567 564.153 43.0533 563.64 42.76C563.141 42.4667 562.562 42.32 561.902 42.32C561.227 42.32 560.633 42.4667 560.12 42.76C559.621 43.0533 559.225 43.464 558.932 43.992C558.653 44.5053 558.514 45.114 558.514 45.818V46.258C558.514 46.962 558.675 47.5853 558.998 48.128C559.321 48.6707 559.775 49.0887 560.362 49.382C560.949 49.6753 561.623 49.822 562.386 49.822C563.046 49.822 563.64 49.7193 564.168 49.514C564.696 49.3087 565.165 48.986 565.576 48.546L567.05 50.24C566.522 50.856 565.855 51.3327 565.048 51.67C564.256 51.9927 563.347 52.154 562.32 52.154ZM574.906 52.154C573.615 52.154 572.618 51.824 571.914 51.164C571.21 50.4893 570.858 49.4993 570.858 48.194V37.656H573.608V48.128C573.608 48.6853 573.747 49.118 574.026 49.426C574.319 49.734 574.722 49.888 575.236 49.888C575.852 49.888 576.365 49.7267 576.776 49.404L577.546 51.362C577.223 51.626 576.827 51.824 576.358 51.956C575.888 52.088 575.404 52.154 574.906 52.154ZM568.922 42.54V40.34H576.754V42.54H568.922ZM590.926 52.22C589.723 52.22 588.572 52.0513 587.472 51.714C586.372 51.362 585.499 50.9147 584.854 50.372L585.844 48.15C586.46 48.634 587.223 49.0373 588.132 49.36C589.041 49.6827 589.973 49.844 590.926 49.844C591.733 49.844 592.385 49.756 592.884 49.58C593.383 49.404 593.749 49.1693 593.984 48.876C594.219 48.568 594.336 48.2233 594.336 47.842C594.336 47.3727 594.167 46.9987 593.83 46.72C593.493 46.4267 593.053 46.1993 592.51 46.038C591.982 45.862 591.388 45.7007 590.728 45.554C590.083 45.4073 589.43 45.2387 588.77 45.048C588.125 44.8427 587.531 44.586 586.988 44.278C586.46 43.9553 586.027 43.53 585.69 43.002C585.353 42.474 585.184 41.7993 585.184 40.978C585.184 40.142 585.404 39.3793 585.844 38.69C586.299 37.986 586.981 37.4287 587.89 37.018C588.814 36.5927 589.98 36.38 591.388 36.38C592.312 36.38 593.229 36.4973 594.138 36.732C595.047 36.9667 595.839 37.304 596.514 37.744L595.612 39.966C594.923 39.5553 594.211 39.2547 593.478 39.064C592.745 38.8587 592.041 38.756 591.366 38.756C590.574 38.756 589.929 38.8513 589.43 39.042C588.946 39.2327 588.587 39.482 588.352 39.79C588.132 40.098 588.022 40.45 588.022 40.846C588.022 41.3153 588.183 41.6967 588.506 41.99C588.843 42.2687 589.276 42.4887 589.804 42.65C590.347 42.8113 590.948 42.9727 591.608 43.134C592.268 43.2807 592.921 43.4493 593.566 43.64C594.226 43.8307 594.82 44.08 595.348 44.388C595.891 44.696 596.323 45.114 596.646 45.642C596.983 46.17 597.152 46.8373 597.152 47.644C597.152 48.4653 596.925 49.228 596.47 49.932C596.03 50.6213 595.348 51.1787 594.424 51.604C593.5 52.0147 592.334 52.22 590.926 52.22ZM604.146 52.154C602.855 52.154 601.858 51.824 601.154 51.164C600.45 50.4893 600.098 49.4993 600.098 48.194V37.656H602.848V48.128C602.848 48.6853 602.987 49.118 603.266 49.426C603.559 49.734 603.963 49.888 604.476 49.888C605.092 49.888 605.605 49.7267 606.016 49.404L606.786 51.362C606.463 51.626 606.067 51.824 605.598 51.956C605.129 52.088 604.645 52.154 604.146 52.154ZM598.162 42.54V40.34H605.994V42.54H598.162ZM616.286 52V49.624L616.132 49.118V44.96C616.132 44.1533 615.89 43.53 615.406 43.09C614.922 42.6353 614.189 42.408 613.206 42.408C612.546 42.408 611.893 42.5107 611.248 42.716C610.617 42.9213 610.082 43.2073 609.642 43.574L608.564 41.572C609.195 41.088 609.943 40.7287 610.808 40.494C611.688 40.2447 612.597 40.12 613.536 40.12C615.237 40.12 616.55 40.5307 617.474 41.352C618.413 42.1587 618.882 43.4127 618.882 45.114V52H616.286ZM612.59 52.154C611.71 52.154 610.94 52.0073 610.28 51.714C609.62 51.406 609.107 50.988 608.74 50.46C608.388 49.9173 608.212 49.3087 608.212 48.634C608.212 47.974 608.366 47.38 608.674 46.852C608.997 46.324 609.517 45.906 610.236 45.598C610.955 45.29 611.908 45.136 613.096 45.136H616.506V46.962H613.294C612.355 46.962 611.725 47.116 611.402 47.424C611.079 47.7173 610.918 48.084 610.918 48.524C610.918 49.0227 611.116 49.4187 611.512 49.712C611.908 50.0053 612.458 50.152 613.162 50.152C613.837 50.152 614.438 49.998 614.966 49.69C615.509 49.382 615.897 48.9273 616.132 48.326L616.594 49.976C616.33 50.6653 615.853 51.2007 615.164 51.582C614.489 51.9633 613.631 52.154 612.59 52.154ZM622.411 52V40.252H625.029V43.486L624.721 42.54C625.073 41.748 625.623 41.1467 626.371 40.736C627.134 40.3253 628.08 40.12 629.209 40.12V42.738C629.092 42.7087 628.982 42.694 628.879 42.694C628.777 42.6793 628.674 42.672 628.571 42.672C627.53 42.672 626.701 42.98 626.085 43.596C625.469 44.1973 625.161 45.0993 625.161 46.302V52H622.411ZM636.394 52.154C635.103 52.154 634.106 51.824 633.402 51.164C632.698 50.4893 632.346 49.4993 632.346 48.194V37.656H635.096V48.128C635.096 48.6853 635.235 49.118 635.514 49.426C635.807 49.734 636.211 49.888 636.724 49.888C637.34 49.888 637.853 49.7267 638.264 49.404L639.034 51.362C638.711 51.626 638.315 51.824 637.846 51.956C637.377 52.088 636.893 52.154 636.394 52.154ZM630.41 42.54V40.34H638.242V42.54H630.41ZM646.431 52.154C645.126 52.154 643.982 51.8973 642.999 51.384C642.031 50.856 641.276 50.1373 640.733 49.228C640.205 48.3187 639.941 47.2847 639.941 46.126C639.941 44.9527 640.198 43.9187 640.711 43.024C641.239 42.1147 641.958 41.4033 642.867 40.89C643.791 40.3767 644.84 40.12 646.013 40.12C647.157 40.12 648.177 40.3693 649.071 40.868C649.966 41.3667 650.67 42.0707 651.183 42.98C651.697 43.8893 651.953 44.96 651.953 46.192C651.953 46.3093 651.946 46.4413 651.931 46.588C651.931 46.7347 651.924 46.874 651.909 47.006H642.119V45.18H650.457L649.379 45.752C649.394 45.0773 649.255 44.4833 648.961 43.97C648.668 43.4567 648.265 43.0533 647.751 42.76C647.253 42.4667 646.673 42.32 646.013 42.32C645.339 42.32 644.745 42.4667 644.231 42.76C643.733 43.0533 643.337 43.464 643.043 43.992C642.765 44.5053 642.625 45.114 642.625 45.818V46.258C642.625 46.962 642.787 47.5853 643.109 48.128C643.432 48.6707 643.887 49.0887 644.473 49.382C645.06 49.6753 645.735 49.822 646.497 49.822C647.157 49.822 647.751 49.7193 648.279 49.514C648.807 49.3087 649.277 48.986 649.687 48.546L651.161 50.24C650.633 50.856 649.966 51.3327 649.159 51.67C648.367 51.9927 647.458 52.154 646.431 52.154ZM659.567 52.154C658.438 52.154 657.418 51.9047 656.509 51.406C655.614 50.8927 654.91 50.1887 654.397 49.294C653.884 48.3993 653.627 47.3433 653.627 46.126C653.627 44.9087 653.884 43.8527 654.397 42.958C654.91 42.0633 655.614 41.3667 656.509 40.868C657.418 40.3693 658.438 40.12 659.567 40.12C660.55 40.12 661.43 40.34 662.207 40.78C662.984 41.2053 663.6 41.858 664.055 42.738C664.51 43.618 664.737 44.7473 664.737 46.126C664.737 47.49 664.517 48.6193 664.077 49.514C663.637 50.394 663.028 51.054 662.251 51.494C661.474 51.934 660.579 52.154 659.567 52.154ZM659.897 49.8C660.557 49.8 661.144 49.6533 661.657 49.36C662.185 49.0667 662.603 48.6413 662.911 48.084C663.234 47.5267 663.395 46.874 663.395 46.126C663.395 45.3633 663.234 44.7107 662.911 44.168C662.603 43.6107 662.185 43.1853 661.657 42.892C661.144 42.5987 660.557 42.452 659.897 42.452C659.237 42.452 658.643 42.5987 658.115 42.892C657.602 43.1853 657.184 43.6107 656.861 44.168C656.553 44.7107 656.399 45.3633 656.399 46.126C656.399 46.874 656.553 47.5267 656.861 48.084C657.184 48.6413 657.602 49.0667 658.115 49.36C658.643 49.6533 659.237 49.8 659.897 49.8ZM663.461 52V49.228L663.571 46.104L663.351 42.98V35.676H666.079V52H663.461Z" fill="#333333"/>
<path d="M43.312 43.244H51.232V45.114H43.312V43.244ZM43.51 50.086H52.486V52H41.31V36.6H52.178V38.514H43.51V50.086ZM61.9663 40.23C62.9196 40.23 63.7556 40.4133 64.4743 40.78C65.2076 41.1467 65.7796 41.704 66.1903 42.452C66.6009 43.2 66.8063 44.146 66.8063 45.29V52H64.6943V45.532C64.6943 44.4027 64.4156 43.552 63.8583 42.98C63.3156 42.408 62.5456 42.122 61.5483 42.122C60.8003 42.122 60.1476 42.2687 59.5903 42.562C59.0329 42.8553 58.6003 43.288 58.2923 43.86C57.9989 44.432 57.8523 45.1433 57.8523 45.994V52H55.7403V40.34H57.7643V43.486L57.4343 42.65C57.8156 41.8873 58.4023 41.2933 59.1943 40.868C59.9863 40.4427 60.9103 40.23 61.9663 40.23ZM74.7189 52.132C73.5456 52.132 72.6362 51.8167 71.9909 51.186C71.3456 50.5553 71.0229 49.6533 71.0229 48.48V37.788H73.1349V48.392C73.1349 49.0227 73.2889 49.5067 73.5969 49.844C73.9196 50.1813 74.3742 50.35 74.9609 50.35C75.6209 50.35 76.1709 50.1667 76.6109 49.8L77.2709 51.318C76.9482 51.5967 76.5596 51.802 76.1049 51.934C75.6649 52.066 75.2029 52.132 74.7189 52.132ZM69.0429 42.078V40.34H76.4789V42.078H69.0429ZM84.6295 52.132C83.3829 52.132 82.2829 51.8753 81.3295 51.362C80.3909 50.8487 79.6575 50.1447 79.1295 49.25C78.6162 48.3553 78.3595 47.3287 78.3595 46.17C78.3595 45.0113 78.6089 43.9847 79.1075 43.09C79.6209 42.1953 80.3175 41.4987 81.1975 41C82.0922 40.4867 83.0969 40.23 84.2115 40.23C85.3409 40.23 86.3382 40.4793 87.2035 40.978C88.0689 41.4767 88.7435 42.1807 89.2275 43.09C89.7262 43.9847 89.9755 45.0333 89.9755 46.236C89.9755 46.324 89.9682 46.4267 89.9535 46.544C89.9535 46.6613 89.9462 46.7713 89.9315 46.874H80.0095V45.356H88.8315L87.9735 45.884C87.9882 45.136 87.8342 44.4687 87.5115 43.882C87.1889 43.2953 86.7415 42.8407 86.1695 42.518C85.6122 42.1807 84.9595 42.012 84.2115 42.012C83.4782 42.012 82.8255 42.1807 82.2535 42.518C81.6815 42.8407 81.2342 43.3027 80.9115 43.904C80.5889 44.4907 80.4275 45.1653 80.4275 45.928V46.28C80.4275 47.0573 80.6035 47.754 80.9555 48.37C81.3222 48.9713 81.8282 49.4407 82.4735 49.778C83.1189 50.1153 83.8595 50.284 84.6955 50.284C85.3849 50.284 86.0082 50.1667 86.5655 49.932C87.1375 49.6973 87.6362 49.3453 88.0615 48.876L89.2275 50.24C88.6995 50.856 88.0395 51.3253 87.2475 51.648C86.4702 51.9707 85.5975 52.132 84.6295 52.132ZM92.9083 52V40.34H94.9323V43.508L94.7343 42.716C95.0569 41.9093 95.5996 41.2933 96.3623 40.868C97.1249 40.4427 98.0636 40.23 99.1783 40.23V42.276C99.0903 42.2613 99.0023 42.254 98.9143 42.254C98.8409 42.254 98.7676 42.254 98.6943 42.254C97.5649 42.254 96.6703 42.5913 96.0103 43.266C95.3503 43.9407 95.0203 44.916 95.0203 46.192V52H92.9083ZM108.346 56.4C107.789 56.4 107.246 56.3047 106.718 56.114C106.19 55.938 105.735 55.674 105.354 55.322L106.256 53.738C106.549 54.0167 106.872 54.2293 107.224 54.376C107.576 54.5227 107.95 54.596 108.346 54.596C108.859 54.596 109.285 54.464 109.622 54.2C109.959 53.936 110.275 53.4667 110.568 52.792L111.294 51.186L111.514 50.922L116.09 40.34H118.158L112.504 53.166C112.167 53.9873 111.785 54.6327 111.36 55.102C110.949 55.5713 110.495 55.9013 109.996 56.092C109.497 56.2973 108.947 56.4 108.346 56.4ZM111.118 52.374L105.794 40.34H107.994L112.526 50.724L111.118 52.374ZM124.801 52.132C123.627 52.132 122.586 51.8753 121.677 51.362C120.767 50.8487 120.049 50.1447 119.521 49.25C118.993 48.3407 118.729 47.314 118.729 46.17C118.729 45.0113 118.993 43.9847 119.521 43.09C120.049 42.1953 120.767 41.4987 121.677 41C122.586 40.4867 123.627 40.23 124.801 40.23C125.959 40.23 126.993 40.4867 127.903 41C128.827 41.4987 129.545 42.1953 130.059 43.09C130.587 43.97 130.851 44.9967 130.851 46.17C130.851 47.3287 130.587 48.3553 130.059 49.25C129.545 50.1447 128.827 50.8487 127.903 51.362C126.993 51.8753 125.959 52.132 124.801 52.132ZM124.801 50.284C125.549 50.284 126.216 50.1153 126.803 49.778C127.404 49.4407 127.873 48.964 128.211 48.348C128.548 47.7173 128.717 46.9913 128.717 46.17C128.717 45.334 128.548 44.6153 128.211 44.014C127.873 43.398 127.404 42.9213 126.803 42.584C126.216 42.2467 125.549 42.078 124.801 42.078C124.053 42.078 123.385 42.2467 122.799 42.584C122.212 42.9213 121.743 43.398 121.391 44.014C121.039 44.6153 120.863 45.334 120.863 46.17C120.863 46.9913 121.039 47.7173 121.391 48.348C121.743 48.964 122.212 49.4407 122.799 49.778C123.385 50.1153 124.053 50.284 124.801 50.284ZM138.678 52.132C137.68 52.132 136.8 51.9487 136.038 51.582C135.29 51.2153 134.703 50.658 134.278 49.91C133.867 49.1473 133.662 48.194 133.662 47.05V40.34H135.774V46.808C135.774 47.952 136.045 48.81 136.588 49.382C137.145 49.954 137.922 50.24 138.92 50.24C139.653 50.24 140.291 50.0933 140.834 49.8C141.376 49.492 141.794 49.052 142.088 48.48C142.381 47.8933 142.528 47.1893 142.528 46.368V40.34H144.64V52H142.638V48.854L142.968 49.69C142.586 50.4673 142.014 51.0687 141.252 51.494C140.489 51.9193 139.631 52.132 138.678 52.132ZM148.66 52V40.34H150.684V43.508L150.486 42.716C150.809 41.9093 151.352 41.2933 152.114 40.868C152.877 40.4427 153.816 40.23 154.93 40.23V42.276C154.842 42.2613 154.754 42.254 154.666 42.254C154.593 42.254 154.52 42.254 154.446 42.254C153.317 42.254 152.422 42.5913 151.762 43.266C151.102 43.9407 150.772 44.916 150.772 46.192V52H148.66ZM168.784 52.132C167.537 52.132 166.437 51.8753 165.484 51.362C164.545 50.8487 163.812 50.1447 163.284 49.25C162.771 48.3553 162.514 47.3287 162.514 46.17C162.514 45.0113 162.763 43.9847 163.262 43.09C163.775 42.1953 164.472 41.4987 165.352 41C166.247 40.4867 167.251 40.23 168.366 40.23C169.495 40.23 170.493 40.4793 171.358 40.978C172.223 41.4767 172.898 42.1807 173.382 43.09C173.881 43.9847 174.13 45.0333 174.13 46.236C174.13 46.324 174.123 46.4267 174.108 46.544C174.108 46.6613 174.101 46.7713 174.086 46.874H164.164V45.356H172.986L172.128 45.884C172.143 45.136 171.989 44.4687 171.666 43.882C171.343 43.2953 170.896 42.8407 170.324 42.518C169.767 42.1807 169.114 42.012 168.366 42.012C167.633 42.012 166.98 42.1807 166.408 42.518C165.836 42.8407 165.389 43.3027 165.066 43.904C164.743 44.4907 164.582 45.1653 164.582 45.928V46.28C164.582 47.0573 164.758 47.754 165.11 48.37C165.477 48.9713 165.983 49.4407 166.628 49.778C167.273 50.1153 168.014 50.284 168.85 50.284C169.539 50.284 170.163 50.1667 170.72 49.932C171.292 49.6973 171.791 49.3453 172.216 48.876L173.382 50.24C172.854 50.856 172.194 51.3253 171.402 51.648C170.625 51.9707 169.752 52.132 168.784 52.132ZM191.649 40.23C192.587 40.23 193.416 40.4133 194.135 40.78C194.853 41.1467 195.411 41.704 195.807 42.452C196.217 43.2 196.423 44.146 196.423 45.29V52H194.311V45.532C194.311 44.4027 194.047 43.552 193.519 42.98C192.991 42.408 192.25 42.122 191.297 42.122C190.593 42.122 189.977 42.2687 189.449 42.562C188.921 42.8553 188.51 43.288 188.217 43.86C187.938 44.432 187.799 45.1433 187.799 45.994V52H185.687V45.532C185.687 44.4027 185.423 43.552 184.895 42.98C184.381 42.408 183.641 42.122 182.673 42.122C181.983 42.122 181.375 42.2687 180.847 42.562C180.319 42.8553 179.908 43.288 179.615 43.86C179.321 44.432 179.175 45.1433 179.175 45.994V52H177.063V40.34H179.087V43.442L178.757 42.65C179.123 41.8873 179.688 41.2933 180.451 40.868C181.213 40.4427 182.101 40.23 183.113 40.23C184.227 40.23 185.188 40.5087 185.995 41.066C186.801 41.6087 187.329 42.4373 187.579 43.552L186.721 43.2C187.073 42.3053 187.689 41.5867 188.569 41.044C189.449 40.5013 190.475 40.23 191.649 40.23ZM207.547 52V49.536L207.437 49.074V44.872C207.437 43.9773 207.173 43.288 206.645 42.804C206.131 42.3053 205.354 42.056 204.313 42.056C203.623 42.056 202.949 42.1733 202.289 42.408C201.629 42.628 201.071 42.9287 200.617 43.31L199.737 41.726C200.338 41.242 201.057 40.8753 201.893 40.626C202.743 40.362 203.631 40.23 204.555 40.23C206.153 40.23 207.385 40.6187 208.251 41.396C209.116 42.1733 209.549 43.3613 209.549 44.96V52H207.547ZM203.719 52.132C202.853 52.132 202.091 51.9853 201.431 51.692C200.785 51.3987 200.287 50.9953 199.935 50.482C199.583 49.954 199.407 49.36 199.407 48.7C199.407 48.0693 199.553 47.4973 199.847 46.984C200.155 46.4707 200.646 46.06 201.321 45.752C202.01 45.444 202.934 45.29 204.093 45.29H207.789V46.808H204.181C203.125 46.808 202.413 46.984 202.047 47.336C201.68 47.688 201.497 48.1133 201.497 48.612C201.497 49.184 201.724 49.646 202.179 49.998C202.633 50.3353 203.264 50.504 204.071 50.504C204.863 50.504 205.552 50.328 206.139 49.976C206.74 49.624 207.173 49.1107 207.437 48.436L207.855 49.888C207.576 50.5773 207.085 51.1273 206.381 51.538C205.677 51.934 204.789 52.132 203.719 52.132ZM213.457 52V40.34H215.569V52H213.457ZM214.513 38.096C214.102 38.096 213.758 37.964 213.479 37.7C213.215 37.436 213.083 37.1133 213.083 36.732C213.083 36.336 213.215 36.006 213.479 35.742C213.758 35.478 214.102 35.346 214.513 35.346C214.924 35.346 215.261 35.478 215.525 35.742C215.804 35.9913 215.943 36.3067 215.943 36.688C215.943 37.084 215.811 37.4213 215.547 37.7C215.283 37.964 214.938 38.096 214.513 38.096ZM219.602 52V35.676H221.714V52H219.602ZM226.252 52.132C225.841 52.132 225.489 51.9927 225.196 51.714C224.903 51.4207 224.756 51.054 224.756 50.614C224.756 50.174 224.903 49.8147 225.196 49.536C225.489 49.2573 225.841 49.118 226.252 49.118C226.648 49.118 226.985 49.2573 227.264 49.536C227.557 49.8147 227.704 50.174 227.704 50.614C227.704 51.054 227.557 51.4207 227.264 51.714C226.985 51.9927 226.648 52.132 226.252 52.132ZM231.237 52.132C230.826 52.132 230.474 51.9927 230.181 51.714C229.887 51.4207 229.741 51.054 229.741 50.614C229.741 50.174 229.887 49.8147 230.181 49.536C230.474 49.2573 230.826 49.118 231.237 49.118C231.633 49.118 231.97 49.2573 232.249 49.536C232.542 49.8147 232.689 50.174 232.689 50.614C232.689 51.054 232.542 51.4207 232.249 51.714C231.97 51.9927 231.633 52.132 231.237 52.132ZM236.221 52.132C235.81 52.132 235.458 51.9927 235.165 51.714C234.872 51.4207 234.725 51.054 234.725 50.614C234.725 50.174 234.872 49.8147 235.165 49.536C235.458 49.2573 235.81 49.118 236.221 49.118C236.617 49.118 236.954 49.2573 237.233 49.536C237.526 49.8147 237.673 50.174 237.673 50.614C237.673 51.054 237.526 51.4207 237.233 51.714C236.954 51.9927 236.617 52.132 236.221 52.132Z" fill="#D1D2D3"/>
<defs>
<filter id="filter0_d_491_60" x="0" y="0" width="725" height="110" filterUnits="userSpaceOnUse" color-interpolation-filters="sRGB">
<feFlood flood-opacity="0" result="BackgroundImageFix"/>
<feColorMatrix in="SourceAlpha" type="matrix" values="0 0 0 0 0 0 0 0 0 0 0 0 0 0 0 0 0 0 127 0" result="hardAlpha"/>
<feOffset dx="-5" dy="10"/>
<feGaussianBlur stdDeviation="7.5"/>
<feComposite in2="hardAlpha" operator="out"/>
<feColorMatrix type="matrix" values="0 0 0 0 0.87451 0 0 0 0 0.988235 0 0 0 0 0.486275 0 0 0 0.2 0"/>
<feBlend mode="normal" in2="BackgroundImageFix" result="effect1_dropShadow_491_60"/>
<feBlend mode="normal" in="SourceGraphic" in2="effect1_dropShadow_491_60" result="shape"/>
</filter>
</defs>
</svg>
