<svg width="421" height="244" viewBox="0 0 421 244" fill="none" xmlns="http://www.w3.org/2000/svg">
<path d="M8.67031 155.2V147.8L84.6703 54H96.0703L20.2703 147.8L14.6703 146.2H127.87V155.2H8.67031ZM88.4703 194V155.2L88.6703 146.2V112H98.4703V194H88.4703Z" fill="#D9D9D9"/>
<path d="M143.44 70V56H144.46V70H143.44ZM154.118 59.48C154.972 59.48 155.712 59.6467 156.338 59.98C156.978 60.3 157.472 60.7933 157.818 61.46C158.178 62.1133 158.358 62.9267 158.358 63.9V70H157.358V63.98C157.358 62.8067 157.058 61.9133 156.458 61.3C155.872 60.6867 155.045 60.38 153.978 60.38C153.165 60.38 152.458 60.5467 151.858 60.88C151.258 61.2133 150.798 61.68 150.478 62.28C150.172 62.88 150.018 63.6 150.018 64.44V70H149.018V59.56H149.978V62.46L149.838 62.14C150.158 61.3133 150.685 60.6667 151.418 60.2C152.152 59.72 153.052 59.48 154.118 59.48ZM170.652 70.08C169.732 70.08 169.026 69.8267 168.532 69.32C168.052 68.8133 167.812 68.12 167.812 67.24V57.28H168.812V67.14C168.812 67.8067 168.979 68.32 169.312 68.68C169.646 69.04 170.126 69.22 170.752 69.22C171.406 69.22 171.946 69.0267 172.372 68.64L172.792 69.34C172.526 69.5933 172.199 69.78 171.812 69.9C171.439 70.02 171.052 70.08 170.652 70.08ZM165.892 60.42V59.56H172.132V60.42H165.892ZM179.29 70.08C178.29 70.08 177.397 69.8533 176.61 69.4C175.837 68.9467 175.217 68.32 174.75 67.52C174.297 66.72 174.07 65.8067 174.07 64.78C174.07 63.74 174.297 62.8267 174.75 62.04C175.217 61.24 175.837 60.6133 176.61 60.16C177.397 59.7067 178.29 59.48 179.29 59.48C180.29 59.48 181.183 59.7067 181.97 60.16C182.757 60.6133 183.377 61.24 183.83 62.04C184.283 62.8267 184.51 63.74 184.51 64.78C184.51 65.8067 184.283 66.72 183.83 67.52C183.377 68.32 182.757 68.9467 181.97 69.4C181.183 69.8533 180.29 70.08 179.29 70.08ZM179.29 69.18C180.09 69.18 180.81 69 181.45 68.64C182.09 68.2667 182.59 67.7467 182.95 67.08C183.31 66.4133 183.49 65.6467 183.49 64.78C183.49 63.9 183.31 63.1333 182.95 62.48C182.59 61.8133 182.09 61.3 181.45 60.94C180.81 60.5667 180.09 60.38 179.29 60.38C178.49 60.38 177.77 60.5667 177.13 60.94C176.503 61.3 176.003 61.8133 175.63 62.48C175.27 63.1333 175.09 63.9 175.09 64.78C175.09 65.6467 175.27 66.4133 175.63 67.08C176.003 67.7467 176.503 68.2667 177.13 68.64C177.77 69 178.49 69.18 179.29 69.18ZM191.632 70.08C190.659 70.08 189.779 69.86 188.992 69.42C188.219 68.9667 187.606 68.34 187.152 67.54C186.699 66.74 186.472 65.82 186.472 64.78C186.472 63.7267 186.699 62.8067 187.152 62.02C187.606 61.22 188.219 60.6 188.992 60.16C189.779 59.7067 190.659 59.48 191.632 59.48C192.552 59.48 193.379 59.6933 194.112 60.12C194.859 60.5467 195.446 61.1533 195.872 61.94C196.312 62.7267 196.532 63.6733 196.532 64.78C196.532 65.86 196.319 66.8 195.892 67.6C195.466 68.4 194.879 69.0133 194.132 69.44C193.399 69.8667 192.566 70.08 191.632 70.08ZM191.692 69.18C192.492 69.18 193.206 69 193.832 68.64C194.472 68.2667 194.972 67.7467 195.332 67.08C195.706 66.4133 195.892 65.6467 195.892 64.78C195.892 63.9 195.706 63.1333 195.332 62.48C194.972 61.8133 194.472 61.3 193.832 60.94C193.206 60.5667 192.492 60.38 191.692 60.38C190.892 60.38 190.172 60.5667 189.532 60.94C188.906 61.3 188.406 61.8133 188.032 62.48C187.672 63.1333 187.492 63.9 187.492 64.78C187.492 65.6467 187.672 66.4133 188.032 67.08C188.406 67.7467 188.906 68.2667 189.532 68.64C190.172 69 190.892 69.18 191.692 69.18ZM195.912 70V66.58L196.092 64.76L195.892 62.94V55.16H196.892V70H195.912ZM207.688 70V67.62L207.648 67.26V63.34C207.648 62.3667 207.382 61.6267 206.848 61.12C206.328 60.6133 205.562 60.36 204.548 60.36C203.828 60.36 203.155 60.4867 202.528 60.74C201.915 60.98 201.388 61.2933 200.948 61.68L200.448 60.96C200.968 60.4933 201.595 60.1333 202.328 59.88C203.062 59.6133 203.828 59.48 204.628 59.48C205.922 59.48 206.915 59.8067 207.608 60.46C208.302 61.1133 208.648 62.0867 208.648 63.38V70H207.688ZM203.928 70.08C203.155 70.08 202.482 69.96 201.908 69.72C201.348 69.4667 200.915 69.1133 200.608 68.66C200.315 68.2067 200.168 67.6867 200.168 67.1C200.168 66.5667 200.288 66.0867 200.528 65.66C200.782 65.22 201.195 64.8667 201.768 64.6C202.342 64.32 203.108 64.18 204.068 64.18H207.908V64.96H204.088C203.008 64.96 202.248 65.16 201.808 65.56C201.382 65.96 201.168 66.46 201.168 67.06C201.168 67.7267 201.422 68.26 201.928 68.66C202.435 69.06 203.148 69.26 204.068 69.26C204.948 69.26 205.688 69.06 206.288 68.66C206.902 68.26 207.355 67.68 207.648 66.92L207.928 67.6C207.648 68.36 207.168 68.9667 206.488 69.42C205.822 69.86 204.968 70.08 203.928 70.08ZM212.333 73.96C211.853 73.96 211.4 73.88 210.973 73.72C210.56 73.56 210.206 73.3267 209.913 73.02L210.413 72.26C210.68 72.54 210.966 72.7467 211.273 72.88C211.593 73.0133 211.953 73.08 212.353 73.08C212.833 73.08 213.253 72.9467 213.613 72.68C213.986 72.4133 214.333 71.9267 214.653 71.22L215.373 69.62L215.513 69.44L219.933 59.56H220.953L215.593 71.42C215.313 72.06 215.006 72.56 214.673 72.92C214.353 73.2933 214 73.56 213.613 73.72C213.226 73.88 212.8 73.96 212.333 73.96ZM215.353 70.26L210.513 59.56H211.573L215.973 69.38L215.353 70.26ZM222.551 59.56L223.331 56.18L223.431 56.76C223.177 56.76 222.964 56.68 222.791 56.52C222.631 56.36 222.551 56.16 222.551 55.92C222.551 55.68 222.631 55.48 222.791 55.32C222.964 55.16 223.164 55.08 223.391 55.08C223.644 55.08 223.844 55.1667 223.991 55.34C224.151 55.5 224.231 55.6933 224.231 55.92C224.231 56.0133 224.224 56.1067 224.211 56.2C224.197 56.2933 224.177 56.3867 224.151 56.48C224.124 56.5733 224.091 56.6933 224.051 56.84L223.271 59.56H222.551ZM229.842 70.08C228.975 70.08 228.162 69.9533 227.402 69.7C226.655 69.4467 226.075 69.1267 225.662 68.74L226.122 67.94C226.522 68.2867 227.055 68.5867 227.722 68.84C228.389 69.08 229.109 69.2 229.882 69.2C230.975 69.2 231.762 69.02 232.242 68.66C232.722 68.3 232.962 67.8267 232.962 67.24C232.962 66.8133 232.835 66.48 232.582 66.24C232.342 65.9867 232.015 65.7933 231.602 65.66C231.189 65.5267 230.735 65.42 230.242 65.34C229.749 65.2467 229.255 65.1467 228.762 65.04C228.269 64.9333 227.815 64.78 227.402 64.58C226.989 64.38 226.655 64.1067 226.402 63.76C226.162 63.4 226.042 62.9267 226.042 62.34C226.042 61.8067 226.189 61.3267 226.482 60.9C226.775 60.4733 227.215 60.1333 227.802 59.88C228.389 59.6133 229.122 59.48 230.002 59.48C230.655 59.48 231.309 59.5733 231.962 59.76C232.629 59.9467 233.169 60.1933 233.582 60.5L233.122 61.3C232.682 60.9667 232.189 60.7267 231.642 60.58C231.095 60.4333 230.542 60.36 229.982 60.36C228.969 60.36 228.222 60.5467 227.742 60.92C227.275 61.2933 227.042 61.76 227.042 62.32C227.042 62.76 227.162 63.1133 227.402 63.38C227.655 63.6333 227.989 63.8333 228.402 63.98C228.815 64.1133 229.269 64.2267 229.762 64.32C230.255 64.4 230.749 64.4933 231.242 64.6C231.735 64.7067 232.189 64.86 232.602 65.06C233.015 65.2467 233.342 65.5133 233.582 65.86C233.835 66.1933 233.962 66.6467 233.962 67.22C233.962 67.7933 233.802 68.2933 233.482 68.72C233.175 69.1467 232.715 69.48 232.102 69.72C231.489 69.96 230.735 70.08 229.842 70.08ZM243.93 70L239.97 59.56H240.93L244.61 69.44H244.19L247.97 59.56H248.83L252.59 69.44H252.15L255.89 59.56H256.81L252.85 70H251.91L248.23 60.52H248.55L244.85 70H243.93ZM262.923 70.08C261.923 70.08 261.029 69.8533 260.243 69.4C259.469 68.9467 258.849 68.32 258.383 67.52C257.929 66.72 257.703 65.8067 257.703 64.78C257.703 63.74 257.929 62.8267 258.383 62.04C258.849 61.24 259.469 60.6133 260.243 60.16C261.029 59.7067 261.923 59.48 262.923 59.48C263.923 59.48 264.816 59.7067 265.603 60.16C266.389 60.6133 267.009 61.24 267.463 62.04C267.916 62.8267 268.143 63.74 268.143 64.78C268.143 65.8067 267.916 66.72 267.463 67.52C267.009 68.32 266.389 68.9467 265.603 69.4C264.816 69.8533 263.923 70.08 262.923 70.08ZM262.923 69.18C263.723 69.18 264.443 69 265.083 68.64C265.723 68.2667 266.223 67.7467 266.583 67.08C266.943 66.4133 267.123 65.6467 267.123 64.78C267.123 63.9 266.943 63.1333 266.583 62.48C266.223 61.8133 265.723 61.3 265.083 60.94C264.443 60.5667 263.723 60.38 262.923 60.38C262.123 60.38 261.403 60.5667 260.763 60.94C260.136 61.3 259.636 61.8133 259.263 62.48C258.903 63.1333 258.723 63.9 258.723 64.78C258.723 65.6467 258.903 66.4133 259.263 67.08C259.636 67.7467 260.136 68.2667 260.763 68.64C261.403 69 262.123 69.18 262.923 69.18ZM271.245 70V59.56H272.205V62.42L272.105 62.1C272.398 61.26 272.892 60.6133 273.585 60.16C274.278 59.7067 275.145 59.48 276.185 59.48V60.46C276.145 60.46 276.105 60.46 276.065 60.46C276.025 60.4467 275.985 60.44 275.945 60.44C274.785 60.44 273.878 60.8067 273.225 61.54C272.572 62.26 272.245 63.2667 272.245 64.56V70H271.245ZM278.94 70V55.16H279.94V70H278.94ZM288.175 70.08C287.202 70.08 286.322 69.86 285.535 69.42C284.762 68.9667 284.148 68.34 283.695 67.54C283.242 66.74 283.015 65.82 283.015 64.78C283.015 63.7267 283.242 62.8067 283.695 62.02C284.148 61.22 284.762 60.6 285.535 60.16C286.322 59.7067 287.202 59.48 288.175 59.48C289.095 59.48 289.922 59.6933 290.655 60.12C291.402 60.5467 291.988 61.1533 292.415 61.94C292.855 62.7267 293.075 63.6733 293.075 64.78C293.075 65.86 292.862 66.8 292.435 67.6C292.008 68.4 291.422 69.0133 290.675 69.44C289.942 69.8667 289.108 70.08 288.175 70.08ZM288.235 69.18C289.035 69.18 289.748 69 290.375 68.64C291.015 68.2667 291.515 67.7467 291.875 67.08C292.248 66.4133 292.435 65.6467 292.435 64.78C292.435 63.9 292.248 63.1333 291.875 62.48C291.515 61.8133 291.015 61.3 290.375 60.94C289.748 60.5667 289.035 60.38 288.235 60.38C287.435 60.38 286.715 60.5667 286.075 60.94C285.448 61.3 284.948 61.8133 284.575 62.48C284.215 63.1333 284.035 63.9 284.035 64.78C284.035 65.6467 284.215 66.4133 284.575 67.08C284.948 67.7467 285.448 68.2667 286.075 68.64C286.715 69 287.435 69.18 288.235 69.18ZM292.455 70V66.58L292.635 64.76L292.435 62.94V55.16H293.435V70H292.455ZM296.691 72.86L297.471 69.48L297.571 70.06C297.318 70.06 297.105 69.98 296.931 69.82C296.771 69.66 296.691 69.46 296.691 69.22C296.691 68.98 296.771 68.78 296.931 68.62C297.105 68.46 297.305 68.38 297.531 68.38C297.785 68.38 297.985 68.4667 298.131 68.64C298.291 68.8 298.371 68.9933 298.371 69.22C298.371 69.3133 298.365 69.4067 298.351 69.5C298.338 69.5933 298.318 69.6867 298.291 69.78C298.265 69.8733 298.231 69.9933 298.191 70.14L297.411 72.86H296.691ZM310.792 70.1C309.752 70.1 308.765 69.9267 307.832 69.58C306.912 69.22 306.199 68.76 305.692 68.2L306.152 67.44C306.632 67.9333 307.285 68.3533 308.112 68.7C308.952 69.0333 309.839 69.2 310.772 69.2C311.705 69.2 312.465 69.08 313.052 68.84C313.652 68.5867 314.092 68.2533 314.372 67.84C314.665 67.4267 314.812 66.9667 314.812 66.46C314.812 65.86 314.652 65.38 314.332 65.02C314.012 64.66 313.592 64.3733 313.072 64.16C312.552 63.9467 311.985 63.7667 311.372 63.62C310.759 63.4733 310.139 63.32 309.512 63.16C308.885 62.9867 308.312 62.7667 307.792 62.5C307.272 62.2333 306.852 61.8733 306.532 61.42C306.225 60.9533 306.072 60.3533 306.072 59.62C306.072 58.9533 306.245 58.34 306.592 57.78C306.939 57.22 307.479 56.7667 308.212 56.42C308.945 56.0733 309.885 55.9 311.032 55.9C311.805 55.9 312.565 56.0133 313.312 56.24C314.072 56.4667 314.719 56.7733 315.252 57.16L314.872 57.98C314.285 57.58 313.652 57.2867 312.972 57.1C312.305 56.9 311.659 56.8 311.032 56.8C310.139 56.8 309.399 56.9267 308.812 57.18C308.225 57.4333 307.792 57.7733 307.512 58.2C307.232 58.6133 307.092 59.08 307.092 59.6C307.092 60.2 307.245 60.68 307.552 61.04C307.872 61.4 308.292 61.6867 308.812 61.9C309.332 62.1133 309.905 62.2933 310.532 62.44C311.159 62.5867 311.779 62.7467 312.392 62.92C313.005 63.08 313.572 63.2933 314.092 63.56C314.612 63.8267 315.032 64.1867 315.352 64.64C315.672 65.0933 315.832 65.68 315.832 66.4C315.832 67.0533 315.652 67.6667 315.292 68.24C314.932 68.8 314.379 69.2533 313.632 69.6C312.899 69.9333 311.952 70.1 310.792 70.1ZM331.979 59.48C332.819 59.48 333.546 59.6467 334.159 59.98C334.786 60.3 335.273 60.7933 335.619 61.46C335.966 62.1133 336.139 62.9267 336.139 63.9V70H335.139V63.98C335.139 62.8067 334.853 61.9133 334.279 61.3C333.706 60.6867 332.906 60.38 331.879 60.38C331.093 60.38 330.413 60.5467 329.839 60.88C329.266 61.2133 328.826 61.68 328.519 62.28C328.213 62.88 328.059 63.6 328.059 64.44V70H327.059V63.98C327.059 62.8067 326.773 61.9133 326.199 61.3C325.626 60.6867 324.826 60.38 323.799 60.38C323.013 60.38 322.333 60.5467 321.759 60.88C321.186 61.2133 320.746 61.68 320.439 62.28C320.133 62.88 319.979 63.6 319.979 64.44V70H318.979V59.56H319.939V62.44L319.799 62.12C320.106 61.3067 320.619 60.6667 321.339 60.2C322.059 59.72 322.926 59.48 323.939 59.48C324.979 59.48 325.853 59.7467 326.559 60.28C327.279 60.8 327.733 61.58 327.919 62.62L327.579 62.48C327.859 61.5867 328.386 60.8667 329.159 60.32C329.933 59.76 330.873 59.48 331.979 59.48ZM346.848 70V67.62L346.808 67.26V63.34C346.808 62.3667 346.542 61.6267 346.008 61.12C345.488 60.6133 344.722 60.36 343.708 60.36C342.988 60.36 342.315 60.4867 341.688 60.74C341.075 60.98 340.548 61.2933 340.108 61.68L339.608 60.96C340.128 60.4933 340.755 60.1333 341.488 59.88C342.222 59.6133 342.988 59.48 343.788 59.48C345.082 59.48 346.075 59.8067 346.768 60.46C347.462 61.1133 347.808 62.0867 347.808 63.38V70H346.848ZM343.088 70.08C342.315 70.08 341.642 69.96 341.068 69.72C340.508 69.4667 340.075 69.1133 339.768 68.66C339.475 68.2067 339.328 67.6867 339.328 67.1C339.328 66.5667 339.448 66.0867 339.688 65.66C339.942 65.22 340.355 64.8667 340.928 64.6C341.502 64.32 342.268 64.18 343.228 64.18H347.068V64.96H343.248C342.168 64.96 341.408 65.16 340.968 65.56C340.542 65.96 340.328 66.46 340.328 67.06C340.328 67.7267 340.582 68.26 341.088 68.66C341.595 69.06 342.308 69.26 343.228 69.26C344.108 69.26 344.848 69.06 345.448 68.66C346.062 68.26 346.515 67.68 346.808 66.92L347.088 67.6C346.808 68.36 346.328 68.9667 345.648 69.42C344.982 69.86 344.128 70.08 343.088 70.08ZM351.929 70V59.56H352.889V62.42L352.789 62.1C353.082 61.26 353.575 60.6133 354.269 60.16C354.962 59.7067 355.829 59.48 356.869 59.48V60.46C356.829 60.46 356.789 60.46 356.749 60.46C356.709 60.4467 356.669 60.44 356.629 60.44C355.469 60.44 354.562 60.8067 353.909 61.54C353.255 62.26 352.929 63.2667 352.929 64.56V70H351.929ZM363.133 70.08C362.213 70.08 361.506 69.8267 361.013 69.32C360.533 68.8133 360.293 68.12 360.293 67.24V57.28H361.293V67.14C361.293 67.8067 361.459 68.32 361.793 68.68C362.126 69.04 362.606 69.22 363.233 69.22C363.886 69.22 364.426 69.0267 364.853 68.64L365.273 69.34C365.006 69.5933 364.679 69.78 364.293 69.9C363.919 70.02 363.533 70.08 363.133 70.08ZM358.373 60.42V59.56H364.613V60.42H358.373ZM148.36 94.08C147.44 94.08 146.607 93.8667 145.86 93.44C145.127 93.0133 144.54 92.4 144.1 91.6C143.673 90.8 143.46 89.86 143.46 88.78C143.46 87.6733 143.673 86.7267 144.1 85.94C144.54 85.1533 145.127 84.5467 145.86 84.12C146.607 83.6933 147.44 83.48 148.36 83.48C149.347 83.48 150.227 83.7067 151 84.16C151.787 84.6 152.4 85.22 152.84 86.02C153.293 86.8067 153.52 87.7267 153.52 88.78C153.52 89.82 153.293 90.74 152.84 91.54C152.4 92.34 151.787 92.9667 151 93.42C150.227 93.86 149.347 94.08 148.36 94.08ZM143.12 94V79.16H144.12V86.94L143.92 88.76L144.08 90.58V94H143.12ZM148.3 93.18C149.1 93.18 149.82 93 150.46 92.64C151.1 92.2667 151.6 91.7467 151.96 91.08C152.333 90.4133 152.52 89.6467 152.52 88.78C152.52 87.9 152.333 87.1333 151.96 86.48C151.6 85.8133 151.1 85.3 150.46 84.94C149.82 84.5667 149.1 84.38 148.3 84.38C147.5 84.38 146.78 84.5667 146.14 84.94C145.513 85.3 145.013 85.8133 144.64 86.48C144.28 87.1333 144.1 87.9 144.1 88.78C144.1 89.6467 144.28 90.4133 144.64 91.08C145.013 91.7467 145.513 92.2667 146.14 92.64C146.78 93 147.5 93.18 148.3 93.18ZM160.856 94.08C159.963 94.08 159.189 93.92 158.536 93.6C157.883 93.2667 157.376 92.7733 157.016 92.12C156.669 91.4533 156.496 90.6333 156.496 89.66V83.56H157.496V89.58C157.496 90.7533 157.796 91.6467 158.396 92.26C158.996 92.8733 159.843 93.18 160.936 93.18C161.723 93.18 162.403 93.0133 162.976 92.68C163.549 92.3467 163.989 91.88 164.296 91.28C164.603 90.6667 164.756 89.9467 164.756 89.12V83.56H165.756V94H164.796V91.1L164.936 91.44C164.629 92.2533 164.116 92.9 163.396 93.38C162.689 93.8467 161.843 94.08 160.856 94.08ZM172.635 94.08C171.768 94.08 170.955 93.9533 170.195 93.7C169.448 93.4467 168.868 93.1267 168.455 92.74L168.915 91.94C169.315 92.2867 169.848 92.5867 170.515 92.84C171.182 93.08 171.902 93.2 172.675 93.2C173.768 93.2 174.555 93.02 175.035 92.66C175.515 92.3 175.755 91.8267 175.755 91.24C175.755 90.8133 175.628 90.48 175.375 90.24C175.135 89.9867 174.808 89.7933 174.395 89.66C173.982 89.5267 173.528 89.42 173.035 89.34C172.542 89.2467 172.048 89.1467 171.555 89.04C171.062 88.9333 170.608 88.78 170.195 88.58C169.782 88.38 169.448 88.1067 169.195 87.76C168.955 87.4 168.835 86.9267 168.835 86.34C168.835 85.8067 168.982 85.3267 169.275 84.9C169.568 84.4733 170.008 84.1333 170.595 83.88C171.182 83.6133 171.915 83.48 172.795 83.48C173.448 83.48 174.102 83.5733 174.755 83.76C175.422 83.9467 175.962 84.1933 176.375 84.5L175.915 85.3C175.475 84.9667 174.982 84.7267 174.435 84.58C173.888 84.4333 173.335 84.36 172.775 84.36C171.762 84.36 171.015 84.5467 170.535 84.92C170.068 85.2933 169.835 85.76 169.835 86.32C169.835 86.76 169.955 87.1133 170.195 87.38C170.448 87.6333 170.782 87.8333 171.195 87.98C171.608 88.1133 172.062 88.2267 172.555 88.32C173.048 88.4 173.542 88.4933 174.035 88.6C174.528 88.7067 174.982 88.86 175.395 89.06C175.808 89.2467 176.135 89.5133 176.375 89.86C176.628 90.1933 176.755 90.6467 176.755 91.22C176.755 91.7933 176.595 92.2933 176.275 92.72C175.968 93.1467 175.508 93.48 174.895 93.72C174.282 93.96 173.528 94.08 172.635 94.08ZM179.546 94V83.56H180.546V94H179.546ZM180.046 81.02C179.819 81.02 179.626 80.94 179.466 80.78C179.306 80.62 179.226 80.4333 179.226 80.22C179.226 79.9933 179.306 79.8 179.466 79.64C179.626 79.48 179.819 79.4 180.046 79.4C180.286 79.4 180.479 79.48 180.626 79.64C180.786 79.7867 180.866 79.9733 180.866 80.2C180.866 80.4267 180.786 80.62 180.626 80.78C180.479 80.94 180.286 81.02 180.046 81.02ZM189.861 83.48C190.714 83.48 191.454 83.6467 192.081 83.98C192.721 84.3 193.214 84.7933 193.561 85.46C193.921 86.1133 194.101 86.9267 194.101 87.9V94H193.101V87.98C193.101 86.8067 192.801 85.9133 192.201 85.3C191.614 84.6867 190.787 84.38 189.721 84.38C188.907 84.38 188.201 84.5467 187.601 84.88C187.001 85.2133 186.541 85.68 186.221 86.28C185.914 86.88 185.761 87.6 185.761 88.44V94H184.761V83.56H185.721V86.46L185.581 86.14C185.901 85.3133 186.427 84.6667 187.161 84.2C187.894 83.72 188.794 83.48 189.861 83.48ZM202.458 94.08C201.404 94.08 200.471 93.8533 199.658 93.4C198.858 92.9467 198.224 92.32 197.758 91.52C197.304 90.72 197.078 89.8067 197.078 88.78C197.078 87.74 197.291 86.8267 197.718 86.04C198.158 85.24 198.758 84.6133 199.518 84.16C200.278 83.7067 201.131 83.48 202.078 83.48C203.024 83.48 203.871 83.7 204.618 84.14C205.378 84.58 205.971 85.2 206.398 86C206.838 86.7867 207.058 87.7 207.058 88.74C207.058 88.78 207.051 88.8267 207.038 88.88C207.038 88.92 207.038 88.9667 207.038 89.02H197.818V88.24H206.498L206.098 88.62C206.111 87.8067 205.938 87.08 205.578 86.44C205.231 85.7867 204.758 85.28 204.158 84.92C203.558 84.5467 202.864 84.36 202.078 84.36C201.304 84.36 200.611 84.5467 199.998 84.92C199.398 85.28 198.924 85.7867 198.578 86.44C198.231 87.08 198.058 87.8133 198.058 88.64V88.82C198.058 89.6733 198.244 90.4333 198.618 91.1C199.004 91.7533 199.531 92.2667 200.198 92.64C200.864 93 201.624 93.18 202.478 93.18C203.144 93.18 203.764 93.06 204.338 92.82C204.924 92.58 205.418 92.2133 205.818 91.72L206.398 92.38C205.944 92.94 205.371 93.3667 204.678 93.66C203.998 93.94 203.258 94.08 202.458 94.08ZM212.791 94.08C211.925 94.08 211.111 93.9533 210.351 93.7C209.605 93.4467 209.025 93.1267 208.611 92.74L209.071 91.94C209.471 92.2867 210.005 92.5867 210.671 92.84C211.338 93.08 212.058 93.2 212.831 93.2C213.925 93.2 214.711 93.02 215.191 92.66C215.671 92.3 215.911 91.8267 215.911 91.24C215.911 90.8133 215.785 90.48 215.531 90.24C215.291 89.9867 214.965 89.7933 214.551 89.66C214.138 89.5267 213.685 89.42 213.191 89.34C212.698 89.2467 212.205 89.1467 211.711 89.04C211.218 88.9333 210.765 88.78 210.351 88.58C209.938 88.38 209.605 88.1067 209.351 87.76C209.111 87.4 208.991 86.9267 208.991 86.34C208.991 85.8067 209.138 85.3267 209.431 84.9C209.725 84.4733 210.165 84.1333 210.751 83.88C211.338 83.6133 212.071 83.48 212.951 83.48C213.605 83.48 214.258 83.5733 214.911 83.76C215.578 83.9467 216.118 84.1933 216.531 84.5L216.071 85.3C215.631 84.9667 215.138 84.7267 214.591 84.58C214.045 84.4333 213.491 84.36 212.931 84.36C211.918 84.36 211.171 84.5467 210.691 84.92C210.225 85.2933 209.991 85.76 209.991 86.32C209.991 86.76 210.111 87.1133 210.351 87.38C210.605 87.6333 210.938 87.8333 211.351 87.98C211.765 88.1133 212.218 88.2267 212.711 88.32C213.205 88.4 213.698 88.4933 214.191 88.6C214.685 88.7067 215.138 88.86 215.551 89.06C215.965 89.2467 216.291 89.5133 216.531 89.86C216.785 90.1933 216.911 90.6467 216.911 91.22C216.911 91.7933 216.751 92.2933 216.431 92.72C216.125 93.1467 215.665 93.48 215.051 93.72C214.438 93.96 213.685 94.08 212.791 94.08ZM222.342 94.08C221.475 94.08 220.662 93.9533 219.902 93.7C219.155 93.4467 218.575 93.1267 218.162 92.74L218.622 91.94C219.022 92.2867 219.555 92.5867 220.222 92.84C220.889 93.08 221.609 93.2 222.382 93.2C223.475 93.2 224.262 93.02 224.742 92.66C225.222 92.3 225.462 91.8267 225.462 91.24C225.462 90.8133 225.335 90.48 225.082 90.24C224.842 89.9867 224.515 89.7933 224.102 89.66C223.689 89.5267 223.235 89.42 222.742 89.34C222.249 89.2467 221.755 89.1467 221.262 89.04C220.769 88.9333 220.315 88.78 219.902 88.58C219.489 88.38 219.155 88.1067 218.902 87.76C218.662 87.4 218.542 86.9267 218.542 86.34C218.542 85.8067 218.689 85.3267 218.982 84.9C219.275 84.4733 219.715 84.1333 220.302 83.88C220.889 83.6133 221.622 83.48 222.502 83.48C223.155 83.48 223.809 83.5733 224.462 83.76C225.129 83.9467 225.669 84.1933 226.082 84.5L225.622 85.3C225.182 84.9667 224.689 84.7267 224.142 84.58C223.595 84.4333 223.042 84.36 222.482 84.36C221.469 84.36 220.722 84.5467 220.242 84.92C219.775 85.2933 219.542 85.76 219.542 86.32C219.542 86.76 219.662 87.1133 219.902 87.38C220.155 87.6333 220.489 87.8333 220.902 87.98C221.315 88.1133 221.769 88.2267 222.262 88.32C222.755 88.4 223.249 88.4933 223.742 88.6C224.235 88.7067 224.689 88.86 225.102 89.06C225.515 89.2467 225.842 89.5133 226.082 89.86C226.335 90.1933 226.462 90.6467 226.462 91.22C226.462 91.7933 226.302 92.2933 225.982 92.72C225.675 93.1467 225.215 93.48 224.602 93.72C223.989 93.96 223.235 94.08 222.342 94.08ZM233.493 94.08C232.439 94.08 231.506 93.8533 230.693 93.4C229.893 92.9467 229.259 92.32 228.793 91.52C228.339 90.72 228.113 89.8067 228.113 88.78C228.113 87.74 228.326 86.8267 228.753 86.04C229.193 85.24 229.793 84.6133 230.553 84.16C231.313 83.7067 232.166 83.48 233.113 83.48C234.059 83.48 234.906 83.7 235.653 84.14C236.413 84.58 237.006 85.2 237.433 86C237.873 86.7867 238.093 87.7 238.093 88.74C238.093 88.78 238.086 88.8267 238.073 88.88C238.073 88.92 238.073 88.9667 238.073 89.02H228.853V88.24H237.533L237.133 88.62C237.146 87.8067 236.973 87.08 236.613 86.44C236.266 85.7867 235.793 85.28 235.193 84.92C234.593 84.5467 233.899 84.36 233.113 84.36C232.339 84.36 231.646 84.5467 231.033 84.92C230.433 85.28 229.959 85.7867 229.613 86.44C229.266 87.08 229.093 87.8133 229.093 88.64V88.82C229.093 89.6733 229.279 90.4333 229.653 91.1C230.039 91.7533 230.566 92.2667 231.233 92.64C231.899 93 232.659 93.18 233.513 93.18C234.179 93.18 234.799 93.06 235.373 92.82C235.959 92.58 236.453 92.2133 236.853 91.72L237.433 92.38C236.979 92.94 236.406 93.3667 235.713 93.66C235.033 93.94 234.293 94.08 233.493 94.08ZM243.826 94.08C242.96 94.08 242.146 93.9533 241.386 93.7C240.64 93.4467 240.06 93.1267 239.646 92.74L240.106 91.94C240.506 92.2867 241.04 92.5867 241.706 92.84C242.373 93.08 243.093 93.2 243.866 93.2C244.96 93.2 245.746 93.02 246.226 92.66C246.706 92.3 246.946 91.8267 246.946 91.24C246.946 90.8133 246.82 90.48 246.566 90.24C246.326 89.9867 246 89.7933 245.586 89.66C245.173 89.5267 244.72 89.42 244.226 89.34C243.733 89.2467 243.24 89.1467 242.746 89.04C242.253 88.9333 241.8 88.78 241.386 88.58C240.973 88.38 240.64 88.1067 240.386 87.76C240.146 87.4 240.026 86.9267 240.026 86.34C240.026 85.8067 240.173 85.3267 240.466 84.9C240.76 84.4733 241.2 84.1333 241.786 83.88C242.373 83.6133 243.106 83.48 243.986 83.48C244.64 83.48 245.293 83.5733 245.946 83.76C246.613 83.9467 247.153 84.1933 247.566 84.5L247.106 85.3C246.666 84.9667 246.173 84.7267 245.626 84.58C245.08 84.4333 244.526 84.36 243.966 84.36C242.953 84.36 242.206 84.5467 241.726 84.92C241.26 85.2933 241.026 85.76 241.026 86.32C241.026 86.76 241.146 87.1133 241.386 87.38C241.64 87.6333 241.973 87.8333 242.386 87.98C242.8 88.1133 243.253 88.2267 243.746 88.32C244.24 88.4 244.733 88.4933 245.226 88.6C245.72 88.7067 246.173 88.86 246.586 89.06C247 89.2467 247.326 89.5133 247.566 89.86C247.82 90.1933 247.946 90.6467 247.946 91.22C247.946 91.7933 247.786 92.2933 247.466 92.72C247.16 93.1467 246.7 93.48 246.086 93.72C245.473 93.96 244.72 94.08 243.826 94.08ZM258.914 94.08C257.994 94.08 257.287 93.8267 256.794 93.32C256.314 92.8133 256.074 92.12 256.074 91.24V81.28H257.074V91.14C257.074 91.8067 257.241 92.32 257.574 92.68C257.907 93.04 258.387 93.22 259.014 93.22C259.667 93.22 260.207 93.0267 260.634 92.64L261.054 93.34C260.787 93.5933 260.461 93.78 260.074 93.9C259.701 94.02 259.314 94.08 258.914 94.08ZM254.154 84.42V83.56H260.394V84.42H254.154ZM267.552 94.08C266.552 94.08 265.658 93.8533 264.872 93.4C264.098 92.9467 263.478 92.32 263.012 91.52C262.558 90.72 262.332 89.8067 262.332 88.78C262.332 87.74 262.558 86.8267 263.012 86.04C263.478 85.24 264.098 84.6133 264.872 84.16C265.658 83.7067 266.552 83.48 267.552 83.48C268.552 83.48 269.445 83.7067 270.232 84.16C271.018 84.6133 271.638 85.24 272.092 86.04C272.545 86.8267 272.772 87.74 272.772 88.78C272.772 89.8067 272.545 90.72 272.092 91.52C271.638 92.32 271.018 92.9467 270.232 93.4C269.445 93.8533 268.552 94.08 267.552 94.08ZM267.552 93.18C268.352 93.18 269.072 93 269.712 92.64C270.352 92.2667 270.852 91.7467 271.212 91.08C271.572 90.4133 271.752 89.6467 271.752 88.78C271.752 87.9 271.572 87.1333 271.212 86.48C270.852 85.8133 270.352 85.3 269.712 84.94C269.072 84.5667 268.352 84.38 267.552 84.38C266.752 84.38 266.032 84.5667 265.392 84.94C264.765 85.3 264.265 85.8133 263.892 86.48C263.532 87.1333 263.352 87.9 263.352 88.78C263.352 89.6467 263.532 90.4133 263.892 91.08C264.265 91.7467 264.765 92.2667 265.392 92.64C266.032 93 266.752 93.18 267.552 93.18ZM279.894 94.08C278.921 94.08 278.041 93.86 277.254 93.42C276.481 92.9667 275.867 92.34 275.414 91.54C274.961 90.74 274.734 89.82 274.734 88.78C274.734 87.7267 274.961 86.8067 275.414 86.02C275.867 85.22 276.481 84.6 277.254 84.16C278.041 83.7067 278.921 83.48 279.894 83.48C280.814 83.48 281.641 83.6933 282.374 84.12C283.121 84.5467 283.707 85.1533 284.134 85.94C284.574 86.7267 284.794 87.6733 284.794 88.78C284.794 89.86 284.581 90.8 284.154 91.6C283.727 92.4 283.141 93.0133 282.394 93.44C281.661 93.8667 280.827 94.08 279.894 94.08ZM279.954 93.18C280.754 93.18 281.467 93 282.094 92.64C282.734 92.2667 283.234 91.7467 283.594 91.08C283.967 90.4133 284.154 89.6467 284.154 88.78C284.154 87.9 283.967 87.1333 283.594 86.48C283.234 85.8133 282.734 85.3 282.094 84.94C281.467 84.5667 280.754 84.38 279.954 84.38C279.154 84.38 278.434 84.5667 277.794 84.94C277.167 85.3 276.667 85.8133 276.294 86.48C275.934 87.1333 275.754 87.9 275.754 88.78C275.754 89.6467 275.934 90.4133 276.294 91.08C276.667 91.7467 277.167 92.2667 277.794 92.64C278.434 93 279.154 93.18 279.954 93.18ZM284.174 94V90.58L284.354 88.76L284.154 86.94V79.16H285.154V94H284.174ZM295.95 94V91.62L295.91 91.26V87.34C295.91 86.3667 295.643 85.6267 295.11 85.12C294.59 84.6133 293.823 84.36 292.81 84.36C292.09 84.36 291.417 84.4867 290.79 84.74C290.177 84.98 289.65 85.2933 289.21 85.68L288.71 84.96C289.23 84.4933 289.857 84.1333 290.59 83.88C291.323 83.6133 292.09 83.48 292.89 83.48C294.183 83.48 295.177 83.8067 295.87 84.46C296.563 85.1133 296.91 86.0867 296.91 87.38V94H295.95ZM292.19 94.08C291.417 94.08 290.743 93.96 290.17 93.72C289.61 93.4667 289.177 93.1133 288.87 92.66C288.577 92.2067 288.43 91.6867 288.43 91.1C288.43 90.5667 288.55 90.0867 288.79 89.66C289.043 89.22 289.457 88.8667 290.03 88.6C290.603 88.32 291.37 88.18 292.33 88.18H296.17V88.96H292.35C291.27 88.96 290.51 89.16 290.07 89.56C289.643 89.96 289.43 90.46 289.43 91.06C289.43 91.7267 289.683 92.26 290.19 92.66C290.697 93.06 291.41 93.26 292.33 93.26C293.21 93.26 293.95 93.06 294.55 92.66C295.163 92.26 295.617 91.68 295.91 90.92L296.19 91.6C295.91 92.36 295.43 92.9667 294.75 93.42C294.083 93.86 293.23 94.08 292.19 94.08ZM300.595 97.96C300.115 97.96 299.662 97.88 299.235 97.72C298.822 97.56 298.468 97.3267 298.175 97.02L298.675 96.26C298.942 96.54 299.228 96.7467 299.535 96.88C299.855 97.0133 300.215 97.08 300.615 97.08C301.095 97.08 301.515 96.9467 301.875 96.68C302.248 96.4133 302.595 95.9267 302.915 95.22L303.635 93.62L303.775 93.44L308.195 83.56H309.215L303.855 95.42C303.575 96.06 303.268 96.56 302.935 96.92C302.615 97.2933 302.262 97.56 301.875 97.72C301.488 97.88 301.062 97.96 300.595 97.96ZM303.615 94.26L298.775 83.56H299.835L304.235 93.38L303.615 94.26ZM320.778 94.08C319.725 94.08 318.791 93.8533 317.978 93.4C317.178 92.9467 316.545 92.32 316.078 91.52C315.625 90.72 315.398 89.8067 315.398 88.78C315.398 87.74 315.611 86.8267 316.038 86.04C316.478 85.24 317.078 84.6133 317.838 84.16C318.598 83.7067 319.451 83.48 320.398 83.48C321.345 83.48 322.191 83.7 322.938 84.14C323.698 84.58 324.291 85.2 324.718 86C325.158 86.7867 325.378 87.7 325.378 88.74C325.378 88.78 325.371 88.8267 325.358 88.88C325.358 88.92 325.358 88.9667 325.358 89.02H316.138V88.24H324.818L324.418 88.62C324.431 87.8067 324.258 87.08 323.898 86.44C323.551 85.7867 323.078 85.28 322.478 84.92C321.878 84.5467 321.185 84.36 320.398 84.36C319.625 84.36 318.931 84.5467 318.318 84.92C317.718 85.28 317.245 85.7867 316.898 86.44C316.551 87.08 316.378 87.8133 316.378 88.64V88.82C316.378 89.6733 316.565 90.4333 316.938 91.1C317.325 91.7533 317.851 92.2667 318.518 92.64C319.185 93 319.945 93.18 320.798 93.18C321.465 93.18 322.085 93.06 322.658 92.82C323.245 92.58 323.738 92.2133 324.138 91.72L324.718 92.38C324.265 92.94 323.691 93.3667 322.998 93.66C322.318 93.94 321.578 94.08 320.778 94.08ZM341.472 83.48C342.312 83.48 343.038 83.6467 343.652 83.98C344.278 84.3 344.765 84.7933 345.112 85.46C345.458 86.1133 345.632 86.9267 345.632 87.9V94H344.632V87.98C344.632 86.8067 344.345 85.9133 343.772 85.3C343.198 84.6867 342.398 84.38 341.372 84.38C340.585 84.38 339.905 84.5467 339.332 84.88C338.758 85.2133 338.318 85.68 338.012 86.28C337.705 86.88 337.552 87.6 337.552 88.44V94H336.552V87.98C336.552 86.8067 336.265 85.9133 335.692 85.3C335.118 84.6867 334.318 84.38 333.292 84.38C332.505 84.38 331.825 84.5467 331.252 84.88C330.678 85.2133 330.238 85.68 329.932 86.28C329.625 86.88 329.472 87.6 329.472 88.44V94H328.472V83.56H329.432V86.44L329.292 86.12C329.598 85.3067 330.112 84.6667 330.832 84.2C331.552 83.72 332.418 83.48 333.432 83.48C334.472 83.48 335.345 83.7467 336.052 84.28C336.772 84.8 337.225 85.58 337.412 86.62L337.072 86.48C337.352 85.5867 337.878 84.8667 338.652 84.32C339.425 83.76 340.365 83.48 341.472 83.48ZM355.001 94.08C354.081 94.08 353.247 93.8667 352.501 93.44C351.767 93.0133 351.181 92.4 350.741 91.6C350.314 90.8 350.101 89.86 350.101 88.78C350.101 87.6733 350.314 86.7267 350.741 85.94C351.181 85.1533 351.767 84.5467 352.501 84.12C353.247 83.6933 354.081 83.48 355.001 83.48C355.987 83.48 356.867 83.7067 357.641 84.16C358.427 84.6 359.041 85.22 359.481 86.02C359.934 86.8067 360.161 87.7267 360.161 88.78C360.161 89.82 359.934 90.74 359.481 91.54C359.041 92.34 358.427 92.9667 357.641 93.42C356.867 93.86 355.987 94.08 355.001 94.08ZM349.761 94V79.16H350.761V86.94L350.561 88.76L350.721 90.58V94H349.761ZM354.941 93.18C355.741 93.18 356.461 93 357.101 92.64C357.741 92.2667 358.241 91.7467 358.601 91.08C358.974 90.4133 359.161 89.6467 359.161 88.78C359.161 87.9 358.974 87.1333 358.601 86.48C358.241 85.8133 357.741 85.3 357.101 84.94C356.461 84.5667 355.741 84.38 354.941 84.38C354.141 84.38 353.421 84.5667 352.781 84.94C352.154 85.3 351.654 85.8133 351.281 86.48C350.921 87.1333 350.741 87.9 350.741 88.78C350.741 89.6467 350.921 90.4133 351.281 91.08C351.654 91.7467 352.154 92.2667 352.781 92.64C353.421 93 354.141 93.18 354.941 93.18ZM363.257 94V83.56H364.217V86.42L364.117 86.1C364.41 85.26 364.903 84.6133 365.597 84.16C366.29 83.7067 367.157 83.48 368.197 83.48V84.46C368.157 84.46 368.117 84.46 368.077 84.46C368.037 84.4467 367.997 84.44 367.957 84.44C366.797 84.44 365.89 84.8067 365.237 85.54C364.583 86.26 364.257 87.2667 364.257 88.56V94H363.257ZM376.751 94V91.62L376.711 91.26V87.34C376.711 86.3667 376.444 85.6267 375.911 85.12C375.391 84.6133 374.624 84.36 373.611 84.36C372.891 84.36 372.217 84.4867 371.591 84.74C370.977 84.98 370.451 85.2933 370.011 85.68L369.511 84.96C370.031 84.4933 370.657 84.1333 371.391 83.88C372.124 83.6133 372.891 83.48 373.691 83.48C374.984 83.48 375.977 83.8067 376.671 84.46C377.364 85.1133 377.711 86.0867 377.711 87.38V94H376.751ZM372.991 94.08C372.217 94.08 371.544 93.96 370.971 93.72C370.411 93.4667 369.977 93.1133 369.671 92.66C369.377 92.2067 369.231 91.6867 369.231 91.1C369.231 90.5667 369.351 90.0867 369.591 89.66C369.844 89.22 370.257 88.8667 370.831 88.6C371.404 88.32 372.171 88.18 373.131 88.18H376.971V88.96H373.151C372.071 88.96 371.311 89.16 370.871 89.56C370.444 89.96 370.231 90.46 370.231 91.06C370.231 91.7267 370.484 92.26 370.991 92.66C371.497 93.06 372.211 93.26 373.131 93.26C374.011 93.26 374.751 93.06 375.351 92.66C375.964 92.26 376.417 91.68 376.711 90.92L376.991 91.6C376.711 92.36 376.231 92.9667 375.551 93.42C374.884 93.86 374.031 94.08 372.991 94.08ZM385.971 94.08C384.958 94.08 384.051 93.8533 383.251 93.4C382.464 92.9467 381.838 92.32 381.371 91.52C380.918 90.72 380.691 89.8067 380.691 88.78C380.691 87.74 380.918 86.82 381.371 86.02C381.838 85.22 382.464 84.6 383.251 84.16C384.051 83.7067 384.958 83.48 385.971 83.48C386.811 83.48 387.571 83.64 388.251 83.96C388.944 84.28 389.504 84.76 389.931 85.4L389.191 85.94C388.818 85.4067 388.351 85.0133 387.791 84.76C387.231 84.5067 386.624 84.38 385.971 84.38C385.158 84.38 384.424 84.5667 383.771 84.94C383.131 85.3 382.624 85.8133 382.251 86.48C381.891 87.1333 381.711 87.9 381.711 88.78C381.711 89.66 381.891 90.4333 382.251 91.1C382.624 91.7533 383.131 92.2667 383.771 92.64C384.424 93 385.158 93.18 385.971 93.18C386.624 93.18 387.231 93.0533 387.791 92.8C388.351 92.5467 388.818 92.1533 389.191 91.62L389.931 92.16C389.504 92.8 388.944 93.28 388.251 93.6C387.571 93.92 386.811 94.08 385.971 94.08ZM396.989 94.08C395.936 94.08 395.002 93.8533 394.189 93.4C393.389 92.9467 392.756 92.32 392.289 91.52C391.836 90.72 391.609 89.8067 391.609 88.78C391.609 87.74 391.822 86.8267 392.249 86.04C392.689 85.24 393.289 84.6133 394.049 84.16C394.809 83.7067 395.662 83.48 396.609 83.48C397.556 83.48 398.402 83.7 399.149 84.14C399.909 84.58 400.502 85.2 400.929 86C401.369 86.7867 401.589 87.7 401.589 88.74C401.589 88.78 401.582 88.8267 401.569 88.88C401.569 88.92 401.569 88.9667 401.569 89.02H392.349V88.24H401.029L400.629 88.62C400.642 87.8067 400.469 87.08 400.109 86.44C399.762 85.7867 399.289 85.28 398.689 84.92C398.089 84.5467 397.396 84.36 396.609 84.36C395.836 84.36 395.142 84.5467 394.529 84.92C393.929 85.28 393.456 85.7867 393.109 86.44C392.762 87.08 392.589 87.8133 392.589 88.64V88.82C392.589 89.6733 392.776 90.4333 393.149 91.1C393.536 91.7533 394.062 92.2667 394.729 92.64C395.396 93 396.156 93.18 397.009 93.18C397.676 93.18 398.296 93.06 398.869 92.82C399.456 92.58 399.949 92.2133 400.349 91.72L400.929 92.38C400.476 92.94 399.902 93.3667 399.209 93.66C398.529 93.94 397.789 94.08 396.989 94.08ZM146.16 118.08C145.24 118.08 144.533 117.827 144.04 117.32C143.56 116.813 143.32 116.12 143.32 115.24V105.28H144.32V115.14C144.32 115.807 144.487 116.32 144.82 116.68C145.153 117.04 145.633 117.22 146.26 117.22C146.913 117.22 147.453 117.027 147.88 116.64L148.3 117.34C148.033 117.593 147.707 117.78 147.32 117.9C146.947 118.02 146.56 118.08 146.16 118.08ZM141.4 108.42V107.56H147.64V108.42H141.4ZM151.089 118V107.56H152.049V110.42L151.949 110.1C152.242 109.26 152.735 108.613 153.429 108.16C154.122 107.707 154.989 107.48 156.029 107.48V108.46C155.989 108.46 155.949 108.46 155.909 108.46C155.869 108.447 155.829 108.44 155.789 108.44C154.629 108.44 153.722 108.807 153.069 109.54C152.415 110.26 152.089 111.267 152.089 112.56V118H151.089ZM164.583 118V115.62L164.543 115.26V111.34C164.543 110.367 164.276 109.627 163.743 109.12C163.223 108.613 162.456 108.36 161.443 108.36C160.723 108.36 160.049 108.487 159.423 108.74C158.809 108.98 158.283 109.293 157.843 109.68L157.343 108.96C157.863 108.493 158.489 108.133 159.223 107.88C159.956 107.613 160.723 107.48 161.523 107.48C162.816 107.48 163.809 107.807 164.503 108.46C165.196 109.113 165.543 110.087 165.543 111.38V118H164.583ZM160.823 118.08C160.049 118.08 159.376 117.96 158.803 117.72C158.243 117.467 157.809 117.113 157.503 116.66C157.209 116.207 157.063 115.687 157.063 115.1C157.063 114.567 157.183 114.087 157.423 113.66C157.676 113.22 158.089 112.867 158.663 112.6C159.236 112.32 160.003 112.18 160.963 112.18H164.803V112.96H160.983C159.903 112.96 159.143 113.16 158.703 113.56C158.276 113.96 158.063 114.46 158.063 115.06C158.063 115.727 158.316 116.26 158.823 116.66C159.329 117.06 160.043 117.26 160.963 117.26C161.843 117.26 162.583 117.06 163.183 116.66C163.796 116.26 164.249 115.68 164.543 114.92L164.823 115.6C164.543 116.36 164.063 116.967 163.383 117.42C162.716 117.86 161.863 118.08 160.823 118.08ZM174.763 107.48C175.616 107.48 176.356 107.647 176.983 107.98C177.623 108.3 178.116 108.793 178.463 109.46C178.823 110.113 179.003 110.927 179.003 111.9V118H178.003V111.98C178.003 110.807 177.703 109.913 177.103 109.3C176.516 108.687 175.69 108.38 174.623 108.38C173.81 108.38 173.103 108.547 172.503 108.88C171.903 109.213 171.443 109.68 171.123 110.28C170.816 110.88 170.663 111.6 170.663 112.44V118H169.663V107.56H170.623V110.46L170.483 110.14C170.803 109.313 171.33 108.667 172.063 108.2C172.796 107.72 173.696 107.48 174.763 107.48ZM185.76 118.08C184.893 118.08 184.08 117.953 183.32 117.7C182.573 117.447 181.993 117.127 181.58 116.74L182.04 115.94C182.44 116.287 182.973 116.587 183.64 116.84C184.307 117.08 185.027 117.2 185.8 117.2C186.893 117.2 187.68 117.02 188.16 116.66C188.64 116.3 188.88 115.827 188.88 115.24C188.88 114.813 188.753 114.48 188.5 114.24C188.26 113.987 187.933 113.793 187.52 113.66C187.107 113.527 186.653 113.42 186.16 113.34C185.667 113.247 185.173 113.147 184.68 113.04C184.187 112.933 183.733 112.78 183.32 112.58C182.907 112.38 182.573 112.107 182.32 111.76C182.08 111.4 181.96 110.927 181.96 110.34C181.96 109.807 182.107 109.327 182.4 108.9C182.693 108.473 183.133 108.133 183.72 107.88C184.307 107.613 185.04 107.48 185.92 107.48C186.573 107.48 187.227 107.573 187.88 107.76C188.547 107.947 189.087 108.193 189.5 108.5L189.04 109.3C188.6 108.967 188.107 108.727 187.56 108.58C187.013 108.433 186.46 108.36 185.9 108.36C184.887 108.36 184.14 108.547 183.66 108.92C183.193 109.293 182.96 109.76 182.96 110.32C182.96 110.76 183.08 111.113 183.32 111.38C183.573 111.633 183.907 111.833 184.32 111.98C184.733 112.113 185.187 112.227 185.68 112.32C186.173 112.4 186.667 112.493 187.16 112.6C187.653 112.707 188.107 112.86 188.52 113.06C188.933 113.247 189.26 113.513 189.5 113.86C189.753 114.193 189.88 114.647 189.88 115.22C189.88 115.793 189.72 116.293 189.4 116.72C189.093 117.147 188.633 117.48 188.02 117.72C187.407 117.96 186.653 118.08 185.76 118.08ZM197.911 118.08C196.991 118.08 196.157 117.867 195.411 117.44C194.677 117.013 194.091 116.407 193.651 115.62C193.224 114.82 193.011 113.873 193.011 112.78C193.011 111.687 193.224 110.747 193.651 109.96C194.091 109.16 194.677 108.547 195.411 108.12C196.157 107.693 196.991 107.48 197.911 107.48C198.897 107.48 199.777 107.707 200.551 108.16C201.337 108.6 201.951 109.22 202.391 110.02C202.844 110.82 203.071 111.74 203.071 112.78C203.071 113.82 202.844 114.74 202.391 115.54C201.951 116.34 201.337 116.967 200.551 117.42C199.777 117.86 198.897 118.08 197.911 118.08ZM192.671 121.88V107.56H193.631V110.98L193.471 112.8L193.671 114.62V121.88H192.671ZM197.851 117.18C198.651 117.18 199.371 117 200.011 116.64C200.651 116.267 201.151 115.747 201.511 115.08C201.884 114.413 202.071 113.647 202.071 112.78C202.071 111.9 201.884 111.133 201.511 110.48C201.151 109.813 200.651 109.3 200.011 108.94C199.371 108.567 198.651 108.38 197.851 108.38C197.051 108.38 196.331 108.567 195.691 108.94C195.064 109.3 194.564 109.813 194.191 110.48C193.831 111.133 193.651 111.9 193.651 112.78C193.651 113.647 193.831 114.413 194.191 115.08C194.564 115.747 195.064 116.267 195.691 116.64C196.331 117 197.051 117.18 197.851 117.18ZM212.708 118V115.62L212.668 115.26V111.34C212.668 110.367 212.401 109.627 211.868 109.12C211.348 108.613 210.581 108.36 209.568 108.36C208.848 108.36 208.174 108.487 207.548 108.74C206.934 108.98 206.408 109.293 205.968 109.68L205.468 108.96C205.988 108.493 206.614 108.133 207.348 107.88C208.081 107.613 208.848 107.48 209.648 107.48C210.941 107.48 211.934 107.807 212.628 108.46C213.321 109.113 213.668 110.087 213.668 111.38V118H212.708ZM208.948 118.08C208.174 118.08 207.501 117.96 206.928 117.72C206.368 117.467 205.934 117.113 205.628 116.66C205.334 116.207 205.188 115.687 205.188 115.1C205.188 114.567 205.308 114.087 205.548 113.66C205.801 113.22 206.214 112.867 206.788 112.6C207.361 112.32 208.128 112.18 209.088 112.18H212.928V112.96H209.108C208.028 112.96 207.268 113.16 206.828 113.56C206.401 113.96 206.188 114.46 206.188 115.06C206.188 115.727 206.441 116.26 206.948 116.66C207.454 117.06 208.168 117.26 209.088 117.26C209.968 117.26 210.708 117.06 211.308 116.66C211.921 116.26 212.374 115.68 212.668 114.92L212.948 115.6C212.668 116.36 212.188 116.967 211.508 117.42C210.841 117.86 209.988 118.08 208.948 118.08ZM217.788 118V107.56H218.748V110.42L218.648 110.1C218.941 109.26 219.435 108.613 220.128 108.16C220.821 107.707 221.688 107.48 222.728 107.48V108.46C222.688 108.46 222.648 108.46 222.608 108.46C222.568 108.447 222.528 108.44 222.488 108.44C221.328 108.44 220.421 108.807 219.768 109.54C219.115 110.26 218.788 111.267 218.788 112.56V118H217.788ZM229.626 118.08C228.572 118.08 227.639 117.853 226.826 117.4C226.026 116.947 225.392 116.32 224.926 115.52C224.472 114.72 224.246 113.807 224.246 112.78C224.246 111.74 224.459 110.827 224.886 110.04C225.326 109.24 225.926 108.613 226.686 108.16C227.446 107.707 228.299 107.48 229.246 107.48C230.192 107.48 231.039 107.7 231.786 108.14C232.546 108.58 233.139 109.2 233.566 110C234.006 110.787 234.226 111.7 234.226 112.74C234.226 112.78 234.219 112.827 234.206 112.88C234.206 112.92 234.206 112.967 234.206 113.02H224.986V112.24H233.666L233.266 112.62C233.279 111.807 233.106 111.08 232.746 110.44C232.399 109.787 231.926 109.28 231.326 108.92C230.726 108.547 230.032 108.36 229.246 108.36C228.472 108.36 227.779 108.547 227.166 108.92C226.566 109.28 226.092 109.787 225.746 110.44C225.399 111.08 225.226 111.813 225.226 112.64V112.82C225.226 113.673 225.412 114.433 225.786 115.1C226.172 115.753 226.699 116.267 227.366 116.64C228.032 117 228.792 117.18 229.646 117.18C230.312 117.18 230.932 117.06 231.506 116.82C232.092 116.58 232.586 116.213 232.986 115.72L233.566 116.38C233.112 116.94 232.539 117.367 231.846 117.66C231.166 117.94 230.426 118.08 229.626 118.08ZM242.419 107.48C243.273 107.48 244.013 107.647 244.639 107.98C245.279 108.3 245.773 108.793 246.119 109.46C246.479 110.113 246.659 110.927 246.659 111.9V118H245.659V111.98C245.659 110.807 245.359 109.913 244.759 109.3C244.173 108.687 243.346 108.38 242.279 108.38C241.466 108.38 240.759 108.547 240.159 108.88C239.559 109.213 239.099 109.68 238.779 110.28C238.473 110.88 238.319 111.6 238.319 112.44V118H237.319V107.56H238.279V110.46L238.139 110.14C238.459 109.313 238.986 108.667 239.719 108.2C240.453 107.72 241.353 107.48 242.419 107.48ZM253.816 118.08C252.896 118.08 252.19 117.827 251.696 117.32C251.216 116.813 250.976 116.12 250.976 115.24V105.28H251.976V115.14C251.976 115.807 252.143 116.32 252.476 116.68C252.81 117.04 253.29 117.22 253.916 117.22C254.57 117.22 255.11 117.027 255.536 116.64L255.956 117.34C255.69 117.593 255.363 117.78 254.976 117.9C254.603 118.02 254.216 118.08 253.816 118.08ZM249.056 108.42V107.56H255.296V108.42H249.056ZM266.522 118.08C265.655 118.08 264.842 117.953 264.082 117.7C263.335 117.447 262.755 117.127 262.342 116.74L262.802 115.94C263.202 116.287 263.735 116.587 264.402 116.84C265.068 117.08 265.788 117.2 266.562 117.2C267.655 117.2 268.442 117.02 268.922 116.66C269.402 116.3 269.642 115.827 269.642 115.24C269.642 114.813 269.515 114.48 269.262 114.24C269.022 113.987 268.695 113.793 268.282 113.66C267.868 113.527 267.415 113.42 266.922 113.34C266.428 113.247 265.935 113.147 265.442 113.04C264.948 112.933 264.495 112.78 264.082 112.58C263.668 112.38 263.335 112.107 263.082 111.76C262.842 111.4 262.722 110.927 262.722 110.34C262.722 109.807 262.868 109.327 263.162 108.9C263.455 108.473 263.895 108.133 264.482 107.88C265.068 107.613 265.802 107.48 266.682 107.48C267.335 107.48 267.988 107.573 268.642 107.76C269.308 107.947 269.848 108.193 270.262 108.5L269.802 109.3C269.362 108.967 268.868 108.727 268.322 108.58C267.775 108.433 267.222 108.36 266.662 108.36C265.648 108.36 264.902 108.547 264.422 108.92C263.955 109.293 263.722 109.76 263.722 110.32C263.722 110.76 263.842 111.113 264.082 111.38C264.335 111.633 264.668 111.833 265.082 111.98C265.495 112.113 265.948 112.227 266.442 112.32C266.935 112.4 267.428 112.493 267.922 112.6C268.415 112.707 268.868 112.86 269.282 113.06C269.695 113.247 270.022 113.513 270.262 113.86C270.515 114.193 270.642 114.647 270.642 115.22C270.642 115.793 270.482 116.293 270.162 116.72C269.855 117.147 269.395 117.48 268.782 117.72C268.168 117.96 267.415 118.08 266.522 118.08ZM277.673 118.08C276.779 118.08 276.006 117.92 275.353 117.6C274.699 117.267 274.193 116.773 273.833 116.12C273.486 115.453 273.313 114.633 273.313 113.66V107.56H274.313V113.58C274.313 114.753 274.613 115.647 275.213 116.26C275.813 116.873 276.659 117.18 277.753 117.18C278.539 117.18 279.219 117.013 279.793 116.68C280.366 116.347 280.806 115.88 281.113 115.28C281.419 114.667 281.573 113.947 281.573 113.12V107.56H282.573V118H281.613V115.1L281.753 115.44C281.446 116.253 280.933 116.9 280.213 117.38C279.506 117.847 278.659 118.08 277.673 118.08ZM289.451 118.08C288.585 118.08 287.771 117.953 287.011 117.7C286.265 117.447 285.685 117.127 285.271 116.74L285.731 115.94C286.131 116.287 286.665 116.587 287.331 116.84C287.998 117.08 288.718 117.2 289.491 117.2C290.585 117.2 291.371 117.02 291.851 116.66C292.331 116.3 292.571 115.827 292.571 115.24C292.571 114.813 292.445 114.48 292.191 114.24C291.951 113.987 291.625 113.793 291.211 113.66C290.798 113.527 290.345 113.42 289.851 113.34C289.358 113.247 288.865 113.147 288.371 113.04C287.878 112.933 287.425 112.78 287.011 112.58C286.598 112.38 286.265 112.107 286.011 111.76C285.771 111.4 285.651 110.927 285.651 110.34C285.651 109.807 285.798 109.327 286.091 108.9C286.385 108.473 286.825 108.133 287.411 107.88C287.998 107.613 288.731 107.48 289.611 107.48C290.265 107.48 290.918 107.573 291.571 107.76C292.238 107.947 292.778 108.193 293.191 108.5L292.731 109.3C292.291 108.967 291.798 108.727 291.251 108.58C290.705 108.433 290.151 108.36 289.591 108.36C288.578 108.36 287.831 108.547 287.351 108.92C286.885 109.293 286.651 109.76 286.651 110.32C286.651 110.76 286.771 111.113 287.011 111.38C287.265 111.633 287.598 111.833 288.011 111.98C288.425 112.113 288.878 112.227 289.371 112.32C289.865 112.4 290.358 112.493 290.851 112.6C291.345 112.707 291.798 112.86 292.211 113.06C292.625 113.247 292.951 113.513 293.191 113.86C293.445 114.193 293.571 114.647 293.571 115.22C293.571 115.793 293.411 116.293 293.091 116.72C292.785 117.147 292.325 117.48 291.711 117.72C291.098 117.96 290.345 118.08 289.451 118.08ZM299.402 118.08C298.482 118.08 297.776 117.827 297.282 117.32C296.802 116.813 296.562 116.12 296.562 115.24V105.28H297.562V115.14C297.562 115.807 297.729 116.32 298.062 116.68C298.396 117.04 298.876 117.22 299.502 117.22C300.156 117.22 300.696 117.027 301.122 116.64L301.542 117.34C301.276 117.593 300.949 117.78 300.562 117.9C300.189 118.02 299.802 118.08 299.402 118.08ZM294.642 108.42V107.56H300.882V108.42H294.642ZM310.911 118V115.62L310.871 115.26V111.34C310.871 110.367 310.604 109.627 310.071 109.12C309.551 108.613 308.784 108.36 307.771 108.36C307.051 108.36 306.378 108.487 305.751 108.74C305.138 108.98 304.611 109.293 304.171 109.68L303.671 108.96C304.191 108.493 304.818 108.133 305.551 107.88C306.284 107.613 307.051 107.48 307.851 107.48C309.144 107.48 310.138 107.807 310.831 108.46C311.524 109.113 311.871 110.087 311.871 111.38V118H310.911ZM307.151 118.08C306.378 118.08 305.704 117.96 305.131 117.72C304.571 117.467 304.138 117.113 303.831 116.66C303.538 116.207 303.391 115.687 303.391 115.1C303.391 114.567 303.511 114.087 303.751 113.66C304.004 113.22 304.418 112.867 304.991 112.6C305.564 112.32 306.331 112.18 307.291 112.18H311.131V112.96H307.311C306.231 112.96 305.471 113.16 305.031 113.56C304.604 113.96 304.391 114.46 304.391 115.06C304.391 115.727 304.644 116.26 305.151 116.66C305.658 117.06 306.371 117.26 307.291 117.26C308.171 117.26 308.911 117.06 309.511 116.66C310.124 116.26 310.578 115.68 310.871 114.92L311.151 115.6C310.871 116.36 310.391 116.967 309.711 117.42C309.044 117.86 308.191 118.08 307.151 118.08ZM315.991 118V107.56H316.991V118H315.991ZM316.491 105.02C316.264 105.02 316.071 104.94 315.911 104.78C315.751 104.62 315.671 104.433 315.671 104.22C315.671 103.993 315.751 103.8 315.911 103.64C316.071 103.48 316.264 103.4 316.491 103.4C316.731 103.4 316.924 103.48 317.071 103.64C317.231 103.787 317.311 103.973 317.311 104.2C317.311 104.427 317.231 104.62 317.071 104.78C316.924 104.94 316.731 105.02 316.491 105.02ZM326.306 107.48C327.159 107.48 327.899 107.647 328.526 107.98C329.166 108.3 329.659 108.793 330.006 109.46C330.366 110.113 330.546 110.927 330.546 111.9V118H329.546V111.98C329.546 110.807 329.246 109.913 328.646 109.3C328.059 108.687 327.233 108.38 326.166 108.38C325.353 108.38 324.646 108.547 324.046 108.88C323.446 109.213 322.986 109.68 322.666 110.28C322.359 110.88 322.206 111.6 322.206 112.44V118H321.206V107.56H322.166V110.46L322.026 110.14C322.346 109.313 322.873 108.667 323.606 108.2C324.339 107.72 325.239 107.48 326.306 107.48ZM341.243 118V115.62L341.203 115.26V111.34C341.203 110.367 340.936 109.627 340.403 109.12C339.883 108.613 339.116 108.36 338.103 108.36C337.383 108.36 336.71 108.487 336.083 108.74C335.47 108.98 334.943 109.293 334.503 109.68L334.003 108.96C334.523 108.493 335.15 108.133 335.883 107.88C336.616 107.613 337.383 107.48 338.183 107.48C339.476 107.48 340.47 107.807 341.163 108.46C341.856 109.113 342.203 110.087 342.203 111.38V118H341.243ZM337.483 118.08C336.71 118.08 336.036 117.96 335.463 117.72C334.903 117.467 334.47 117.113 334.163 116.66C333.87 116.207 333.723 115.687 333.723 115.1C333.723 114.567 333.843 114.087 334.083 113.66C334.336 113.22 334.75 112.867 335.323 112.6C335.896 112.32 336.663 112.18 337.623 112.18H341.463V112.96H337.643C336.563 112.96 335.803 113.16 335.363 113.56C334.936 113.96 334.723 114.46 334.723 115.06C334.723 115.727 334.976 116.26 335.483 116.66C335.99 117.06 336.703 117.26 337.623 117.26C338.503 117.26 339.243 117.06 339.843 116.66C340.456 116.26 340.91 115.68 341.203 114.92L341.483 115.6C341.203 116.36 340.723 116.967 340.043 117.42C339.376 117.86 338.523 118.08 337.483 118.08ZM351.563 118.08C350.643 118.08 349.81 117.867 349.063 117.44C348.33 117.013 347.743 116.4 347.303 115.6C346.876 114.8 346.663 113.86 346.663 112.78C346.663 111.673 346.876 110.727 347.303 109.94C347.743 109.153 348.33 108.547 349.063 108.12C349.81 107.693 350.643 107.48 351.563 107.48C352.55 107.48 353.43 107.707 354.203 108.16C354.99 108.6 355.603 109.22 356.043 110.02C356.496 110.807 356.723 111.727 356.723 112.78C356.723 113.82 356.496 114.74 356.043 115.54C355.603 116.34 354.99 116.967 354.203 117.42C353.43 117.86 352.55 118.08 351.563 118.08ZM346.323 118V103.16H347.323V110.94L347.123 112.76L347.283 114.58V118H346.323ZM351.503 117.18C352.303 117.18 353.023 117 353.663 116.64C354.303 116.267 354.803 115.747 355.163 115.08C355.536 114.413 355.723 113.647 355.723 112.78C355.723 111.9 355.536 111.133 355.163 110.48C354.803 109.813 354.303 109.3 353.663 108.94C353.023 108.567 352.303 108.38 351.503 108.38C350.703 108.38 349.983 108.567 349.343 108.94C348.716 109.3 348.216 109.813 347.843 110.48C347.483 111.133 347.303 111.9 347.303 112.78C347.303 113.647 347.483 114.413 347.843 115.08C348.216 115.747 348.716 116.267 349.343 116.64C349.983 117 350.703 117.18 351.503 117.18ZM359.819 118V107.56H360.819V118H359.819ZM360.319 105.02C360.093 105.02 359.899 104.94 359.739 104.78C359.579 104.62 359.499 104.433 359.499 104.22C359.499 103.993 359.579 103.8 359.739 103.64C359.899 103.48 360.093 103.4 360.319 103.4C360.559 103.4 360.753 103.48 360.899 103.64C361.059 103.787 361.139 103.973 361.139 104.2C361.139 104.427 361.059 104.62 360.899 104.78C360.753 104.94 360.559 105.02 360.319 105.02ZM365.034 118V103.16H366.034V118H365.034ZM370.249 118V107.56H371.249V118H370.249ZM370.749 105.02C370.522 105.02 370.329 104.94 370.169 104.78C370.009 104.62 369.929 104.433 369.929 104.22C369.929 103.993 370.009 103.8 370.169 103.64C370.329 103.48 370.522 103.4 370.749 103.4C370.989 103.4 371.182 103.48 371.329 103.64C371.489 103.787 371.569 103.973 371.569 104.2C371.569 104.427 371.489 104.62 371.329 104.78C371.182 104.94 370.989 105.02 370.749 105.02ZM378.504 118.08C377.584 118.08 376.877 117.827 376.384 117.32C375.904 116.813 375.664 116.12 375.664 115.24V105.28H376.664V115.14C376.664 115.807 376.83 116.32 377.164 116.68C377.497 117.04 377.977 117.22 378.604 117.22C379.257 117.22 379.797 117.027 380.224 116.64L380.644 117.34C380.377 117.593 380.05 117.78 379.664 117.9C379.29 118.02 378.904 118.08 378.504 118.08ZM373.744 108.42V107.56H379.984V108.42H373.744ZM382.997 121.96C382.517 121.96 382.064 121.88 381.637 121.72C381.224 121.56 380.871 121.327 380.577 121.02L381.077 120.26C381.344 120.54 381.631 120.747 381.937 120.88C382.257 121.013 382.617 121.08 383.017 121.08C383.497 121.08 383.917 120.947 384.277 120.68C384.651 120.413 384.997 119.927 385.317 119.22L386.037 117.62L386.177 117.44L390.597 107.56H391.617L386.257 119.42C385.977 120.06 385.671 120.56 385.337 120.92C385.017 121.293 384.664 121.56 384.277 121.72C383.891 121.88 383.464 121.96 382.997 121.96ZM386.017 118.26L381.177 107.56H382.237L386.637 117.38L386.017 118.26ZM149.7 142V139.62L149.66 139.26V135.34C149.66 134.367 149.393 133.627 148.86 133.12C148.34 132.613 147.573 132.36 146.56 132.36C145.84 132.36 145.167 132.487 144.54 132.74C143.927 132.98 143.4 133.293 142.96 133.68L142.46 132.96C142.98 132.493 143.607 132.133 144.34 131.88C145.073 131.613 145.84 131.48 146.64 131.48C147.933 131.48 148.927 131.807 149.62 132.46C150.313 133.113 150.66 134.087 150.66 135.38V142H149.7ZM145.94 142.08C145.167 142.08 144.493 141.96 143.92 141.72C143.36 141.467 142.927 141.113 142.62 140.66C142.327 140.207 142.18 139.687 142.18 139.1C142.18 138.567 142.3 138.087 142.54 137.66C142.793 137.22 143.207 136.867 143.78 136.6C144.353 136.32 145.12 136.18 146.08 136.18H149.92V136.96H146.1C145.02 136.96 144.26 137.16 143.82 137.56C143.393 137.96 143.18 138.46 143.18 139.06C143.18 139.727 143.433 140.26 143.94 140.66C144.447 141.06 145.16 141.26 146.08 141.26C146.96 141.26 147.7 141.06 148.3 140.66C148.913 140.26 149.367 139.68 149.66 138.92L149.94 139.6C149.66 140.36 149.18 140.967 148.5 141.42C147.833 141.86 146.98 142.08 145.94 142.08ZM159.88 131.48C160.733 131.48 161.473 131.647 162.1 131.98C162.74 132.3 163.233 132.793 163.58 133.46C163.94 134.113 164.12 134.927 164.12 135.9V142H163.12V135.98C163.12 134.807 162.82 133.913 162.22 133.3C161.633 132.687 160.807 132.38 159.74 132.38C158.927 132.38 158.22 132.547 157.62 132.88C157.02 133.213 156.56 133.68 156.24 134.28C155.933 134.88 155.78 135.6 155.78 136.44V142H154.78V131.56H155.74V134.46L155.6 134.14C155.92 133.313 156.447 132.667 157.18 132.2C157.913 131.72 158.813 131.48 159.88 131.48ZM172.257 142.08C171.284 142.08 170.404 141.86 169.617 141.42C168.844 140.967 168.231 140.34 167.777 139.54C167.324 138.74 167.097 137.82 167.097 136.78C167.097 135.727 167.324 134.807 167.777 134.02C168.231 133.22 168.844 132.6 169.617 132.16C170.404 131.707 171.284 131.48 172.257 131.48C173.177 131.48 174.004 131.693 174.737 132.12C175.484 132.547 176.071 133.153 176.497 133.94C176.937 134.727 177.157 135.673 177.157 136.78C177.157 137.86 176.944 138.8 176.517 139.6C176.091 140.4 175.504 141.013 174.757 141.44C174.024 141.867 173.191 142.08 172.257 142.08ZM172.317 141.18C173.117 141.18 173.831 141 174.457 140.64C175.097 140.267 175.597 139.747 175.957 139.08C176.331 138.413 176.517 137.647 176.517 136.78C176.517 135.9 176.331 135.133 175.957 134.48C175.597 133.813 175.097 133.3 174.457 132.94C173.831 132.567 173.117 132.38 172.317 132.38C171.517 132.38 170.797 132.567 170.157 132.94C169.531 133.3 169.031 133.813 168.657 134.48C168.297 135.133 168.117 135.9 168.117 136.78C168.117 137.647 168.297 138.413 168.657 139.08C169.031 139.747 169.531 140.267 170.157 140.64C170.797 141 171.517 141.18 172.317 141.18ZM176.537 142V138.58L176.717 136.76L176.517 134.94V127.16H177.517V142H176.537ZM191.11 142.08C190.057 142.08 189.123 141.853 188.31 141.4C187.51 140.947 186.877 140.32 186.41 139.52C185.957 138.72 185.73 137.807 185.73 136.78C185.73 135.74 185.943 134.827 186.37 134.04C186.81 133.24 187.41 132.613 188.17 132.16C188.93 131.707 189.783 131.48 190.73 131.48C191.677 131.48 192.523 131.7 193.27 132.14C194.03 132.58 194.623 133.2 195.05 134C195.49 134.787 195.71 135.7 195.71 136.74C195.71 136.78 195.703 136.827 195.69 136.88C195.69 136.92 195.69 136.967 195.69 137.02H186.47V136.24H195.15L194.75 136.62C194.763 135.807 194.59 135.08 194.23 134.44C193.883 133.787 193.41 133.28 192.81 132.92C192.21 132.547 191.517 132.36 190.73 132.36C189.957 132.36 189.263 132.547 188.65 132.92C188.05 133.28 187.577 133.787 187.23 134.44C186.883 135.08 186.71 135.813 186.71 136.64V136.82C186.71 137.673 186.897 138.433 187.27 139.1C187.657 139.753 188.183 140.267 188.85 140.64C189.517 141 190.277 141.18 191.13 141.18C191.797 141.18 192.417 141.06 192.99 140.82C193.577 140.58 194.07 140.213 194.47 139.72L195.05 140.38C194.597 140.94 194.023 141.367 193.33 141.66C192.65 141.94 191.91 142.08 191.11 142.08ZM199.004 142V129.96C199.004 129.093 199.25 128.4 199.744 127.88C200.25 127.347 200.97 127.08 201.904 127.08C202.29 127.08 202.67 127.14 203.044 127.26C203.417 127.367 203.724 127.533 203.964 127.76L203.564 128.52C203.364 128.32 203.124 128.173 202.844 128.08C202.564 127.987 202.264 127.94 201.944 127.94C201.304 127.94 200.817 128.12 200.484 128.48C200.15 128.827 199.984 129.347 199.984 130.04V131.8L200.004 132.28V142H199.004ZM197.084 132.42V131.56H203.324V132.42H197.084ZM205.625 142V129.96C205.625 129.093 205.871 128.4 206.365 127.88C206.871 127.347 207.591 127.08 208.525 127.08C208.911 127.08 209.291 127.14 209.665 127.26C210.038 127.367 210.345 127.533 210.585 127.76L210.185 128.52C209.985 128.32 209.745 128.173 209.465 128.08C209.185 127.987 208.885 127.94 208.565 127.94C207.925 127.94 207.438 128.12 207.105 128.48C206.771 128.827 206.605 129.347 206.605 130.04V131.8L206.625 132.28V142H205.625ZM203.705 132.42V131.56H209.945V132.42H203.705ZM216.051 142.08C214.998 142.08 214.065 141.853 213.251 141.4C212.451 140.947 211.818 140.32 211.351 139.52C210.898 138.72 210.671 137.807 210.671 136.78C210.671 135.74 210.885 134.827 211.311 134.04C211.751 133.24 212.351 132.613 213.111 132.16C213.871 131.707 214.725 131.48 215.671 131.48C216.618 131.48 217.465 131.7 218.211 132.14C218.971 132.58 219.565 133.2 219.991 134C220.431 134.787 220.651 135.7 220.651 136.74C220.651 136.78 220.645 136.827 220.631 136.88C220.631 136.92 220.631 136.967 220.631 137.02H211.411V136.24H220.091L219.691 136.62C219.705 135.807 219.531 135.08 219.171 134.44C218.825 133.787 218.351 133.28 217.751 132.92C217.151 132.547 216.458 132.36 215.671 132.36C214.898 132.36 214.205 132.547 213.591 132.92C212.991 133.28 212.518 133.787 212.171 134.44C211.825 135.08 211.651 135.813 211.651 136.64V136.82C211.651 137.673 211.838 138.433 212.211 139.1C212.598 139.753 213.125 140.267 213.791 140.64C214.458 141 215.218 141.18 216.071 141.18C216.738 141.18 217.358 141.06 217.931 140.82C218.518 140.58 219.011 140.213 219.411 139.72L219.991 140.38C219.538 140.94 218.965 141.367 218.271 141.66C217.591 141.94 216.851 142.08 216.051 142.08ZM227.885 142.08C226.872 142.08 225.965 141.853 225.165 141.4C224.378 140.947 223.752 140.32 223.285 139.52C222.832 138.72 222.605 137.807 222.605 136.78C222.605 135.74 222.832 134.82 223.285 134.02C223.752 133.22 224.378 132.6 225.165 132.16C225.965 131.707 226.872 131.48 227.885 131.48C228.725 131.48 229.485 131.64 230.165 131.96C230.858 132.28 231.418 132.76 231.845 133.4L231.105 133.94C230.732 133.407 230.265 133.013 229.705 132.76C229.145 132.507 228.538 132.38 227.885 132.38C227.072 132.38 226.338 132.567 225.685 132.94C225.045 133.3 224.538 133.813 224.165 134.48C223.805 135.133 223.625 135.9 223.625 136.78C223.625 137.66 223.805 138.433 224.165 139.1C224.538 139.753 225.045 140.267 225.685 140.64C226.338 141 227.072 141.18 227.885 141.18C228.538 141.18 229.145 141.053 229.705 140.8C230.265 140.547 230.732 140.153 231.105 139.62L231.845 140.16C231.418 140.8 230.858 141.28 230.165 141.6C229.485 141.92 228.725 142.08 227.885 142.08ZM237.996 142.08C237.076 142.08 236.369 141.827 235.876 141.32C235.396 140.813 235.156 140.12 235.156 139.24V129.28H236.156V139.14C236.156 139.807 236.323 140.32 236.656 140.68C236.989 141.04 237.469 141.22 238.096 141.22C238.749 141.22 239.289 141.027 239.716 140.64L240.136 141.34C239.869 141.593 239.543 141.78 239.156 141.9C238.783 142.02 238.396 142.08 237.996 142.08ZM233.236 132.42V131.56H239.476V132.42H233.236ZM242.925 142V131.56H243.925V142H242.925ZM243.425 129.02C243.198 129.02 243.005 128.94 242.845 128.78C242.685 128.62 242.605 128.433 242.605 128.22C242.605 127.993 242.685 127.8 242.845 127.64C243.005 127.48 243.198 127.4 243.425 127.4C243.665 127.4 243.858 127.48 244.005 127.64C244.165 127.787 244.245 127.973 244.245 128.2C244.245 128.427 244.165 128.62 244.005 128.78C243.858 128.94 243.665 129.02 243.425 129.02ZM250.78 142L246.08 131.56H247.14L251.54 141.44H251.06L255.5 131.56H256.52L251.8 142H250.78ZM262.653 142.08C261.6 142.08 260.666 141.853 259.853 141.4C259.053 140.947 258.42 140.32 257.953 139.52C257.5 138.72 257.273 137.807 257.273 136.78C257.273 135.74 257.486 134.827 257.913 134.04C258.353 133.24 258.953 132.613 259.713 132.16C260.473 131.707 261.326 131.48 262.273 131.48C263.22 131.48 264.066 131.7 264.813 132.14C265.573 132.58 266.166 133.2 266.593 134C267.033 134.787 267.253 135.7 267.253 136.74C267.253 136.78 267.246 136.827 267.233 136.88C267.233 136.92 267.233 136.967 267.233 137.02H258.013V136.24H266.693L266.293 136.62C266.306 135.807 266.133 135.08 265.773 134.44C265.426 133.787 264.953 133.28 264.353 132.92C263.753 132.547 263.06 132.36 262.273 132.36C261.5 132.36 260.806 132.547 260.193 132.92C259.593 133.28 259.12 133.787 258.773 134.44C258.426 135.08 258.253 135.813 258.253 136.64V136.82C258.253 137.673 258.44 138.433 258.813 139.1C259.2 139.753 259.726 140.267 260.393 140.64C261.06 141 261.82 141.18 262.673 141.18C263.34 141.18 263.96 141.06 264.533 140.82C265.12 140.58 265.613 140.213 266.013 139.72L266.593 140.38C266.14 140.94 265.566 141.367 264.873 141.66C264.193 141.94 263.453 142.08 262.653 142.08ZM147.26 166.08C146.247 166.08 145.34 165.853 144.54 165.4C143.753 164.947 143.127 164.32 142.66 163.52C142.207 162.72 141.98 161.807 141.98 160.78C141.98 159.74 142.207 158.82 142.66 158.02C143.127 157.22 143.753 156.6 144.54 156.16C145.34 155.707 146.247 155.48 147.26 155.48C148.1 155.48 148.86 155.64 149.54 155.96C150.233 156.28 150.793 156.76 151.22 157.4L150.48 157.94C150.107 157.407 149.64 157.013 149.08 156.76C148.52 156.507 147.913 156.38 147.26 156.38C146.447 156.38 145.713 156.567 145.06 156.94C144.42 157.3 143.913 157.813 143.54 158.48C143.18 159.133 143 159.9 143 160.78C143 161.66 143.18 162.433 143.54 163.1C143.913 163.753 144.42 164.267 145.06 164.64C145.713 165 146.447 165.18 147.26 165.18C147.913 165.18 148.52 165.053 149.08 164.8C149.64 164.547 150.107 164.153 150.48 163.62L151.22 164.16C150.793 164.8 150.233 165.28 149.54 165.6C148.86 165.92 148.1 166.08 147.26 166.08ZM158.118 166.08C157.118 166.08 156.225 165.853 155.438 165.4C154.665 164.947 154.045 164.32 153.578 163.52C153.125 162.72 152.898 161.807 152.898 160.78C152.898 159.74 153.125 158.827 153.578 158.04C154.045 157.24 154.665 156.613 155.438 156.16C156.225 155.707 157.118 155.48 158.118 155.48C159.118 155.48 160.011 155.707 160.798 156.16C161.585 156.613 162.205 157.24 162.658 158.04C163.111 158.827 163.338 159.74 163.338 160.78C163.338 161.807 163.111 162.72 162.658 163.52C162.205 164.32 161.585 164.947 160.798 165.4C160.011 165.853 159.118 166.08 158.118 166.08ZM158.118 165.18C158.918 165.18 159.638 165 160.278 164.64C160.918 164.267 161.418 163.747 161.778 163.08C162.138 162.413 162.318 161.647 162.318 160.78C162.318 159.9 162.138 159.133 161.778 158.48C161.418 157.813 160.918 157.3 160.278 156.94C159.638 156.567 158.918 156.38 158.118 156.38C157.318 156.38 156.598 156.567 155.958 156.94C155.331 157.3 154.831 157.813 154.458 158.48C154.098 159.133 153.918 159.9 153.918 160.78C153.918 161.647 154.098 162.413 154.458 163.08C154.831 163.747 155.331 164.267 155.958 164.64C156.598 165 157.318 165.18 158.118 165.18ZM179.44 155.48C180.28 155.48 181.007 155.647 181.62 155.98C182.247 156.3 182.734 156.793 183.08 157.46C183.427 158.113 183.6 158.927 183.6 159.9V166H182.6V159.98C182.6 158.807 182.314 157.913 181.74 157.3C181.167 156.687 180.367 156.38 179.34 156.38C178.554 156.38 177.874 156.547 177.3 156.88C176.727 157.213 176.287 157.68 175.98 158.28C175.674 158.88 175.52 159.6 175.52 160.44V166H174.52V159.98C174.52 158.807 174.234 157.913 173.66 157.3C173.087 156.687 172.287 156.38 171.26 156.38C170.474 156.38 169.794 156.547 169.22 156.88C168.647 157.213 168.207 157.68 167.9 158.28C167.594 158.88 167.44 159.6 167.44 160.44V166H166.44V155.56H167.4V158.44L167.26 158.12C167.567 157.307 168.08 156.667 168.8 156.2C169.52 155.72 170.387 155.48 171.4 155.48C172.44 155.48 173.314 155.747 174.02 156.28C174.74 156.8 175.194 157.58 175.38 158.62L175.04 158.48C175.32 157.587 175.847 156.867 176.62 156.32C177.394 155.76 178.334 155.48 179.44 155.48ZM200.729 155.48C201.569 155.48 202.296 155.647 202.909 155.98C203.536 156.3 204.023 156.793 204.369 157.46C204.716 158.113 204.889 158.927 204.889 159.9V166H203.889V159.98C203.889 158.807 203.603 157.913 203.029 157.3C202.456 156.687 201.656 156.38 200.629 156.38C199.843 156.38 199.163 156.547 198.589 156.88C198.016 157.213 197.576 157.68 197.269 158.28C196.963 158.88 196.809 159.6 196.809 160.44V166H195.809V159.98C195.809 158.807 195.523 157.913 194.949 157.3C194.376 156.687 193.576 156.38 192.549 156.38C191.763 156.38 191.083 156.547 190.509 156.88C189.936 157.213 189.496 157.68 189.189 158.28C188.883 158.88 188.729 159.6 188.729 160.44V166H187.729V155.56H188.689V158.44L188.549 158.12C188.856 157.307 189.369 156.667 190.089 156.2C190.809 155.72 191.676 155.48 192.689 155.48C193.729 155.48 194.603 155.747 195.309 156.28C196.029 156.8 196.483 157.58 196.669 158.62L196.329 158.48C196.609 157.587 197.136 156.867 197.909 156.32C198.683 155.76 199.623 155.48 200.729 155.48ZM213.258 166.08C212.365 166.08 211.592 165.92 210.938 165.6C210.285 165.267 209.778 164.773 209.418 164.12C209.072 163.453 208.898 162.633 208.898 161.66V155.56H209.898V161.58C209.898 162.753 210.198 163.647 210.798 164.26C211.398 164.873 212.245 165.18 213.338 165.18C214.125 165.18 214.805 165.013 215.378 164.68C215.952 164.347 216.392 163.88 216.698 163.28C217.005 162.667 217.158 161.947 217.158 161.12V155.56H218.158V166H217.198V163.1L217.338 163.44C217.032 164.253 216.518 164.9 215.798 165.38C215.092 165.847 214.245 166.08 213.258 166.08ZM227.497 155.48C228.351 155.48 229.091 155.647 229.717 155.98C230.357 156.3 230.851 156.793 231.197 157.46C231.557 158.113 231.737 158.927 231.737 159.9V166H230.737V159.98C230.737 158.807 230.437 157.913 229.837 157.3C229.251 156.687 228.424 156.38 227.357 156.38C226.544 156.38 225.837 156.547 225.237 156.88C224.637 157.213 224.177 157.68 223.857 158.28C223.551 158.88 223.397 159.6 223.397 160.44V166H222.397V155.56H223.357V158.46L223.217 158.14C223.537 157.313 224.064 156.667 224.797 156.2C225.531 155.72 226.431 155.48 227.497 155.48ZM235.854 166V155.56H236.854V166H235.854ZM236.354 153.02C236.128 153.02 235.934 152.94 235.774 152.78C235.614 152.62 235.534 152.433 235.534 152.22C235.534 151.993 235.614 151.8 235.774 151.64C235.934 151.48 236.128 151.4 236.354 151.4C236.594 151.4 236.788 151.48 236.934 151.64C237.094 151.787 237.174 151.973 237.174 152.2C237.174 152.427 237.094 152.62 236.934 152.78C236.788 152.94 236.594 153.02 236.354 153.02ZM245.209 166.08C244.196 166.08 243.289 165.853 242.489 165.4C241.703 164.947 241.076 164.32 240.609 163.52C240.156 162.72 239.929 161.807 239.929 160.78C239.929 159.74 240.156 158.82 240.609 158.02C241.076 157.22 241.703 156.6 242.489 156.16C243.289 155.707 244.196 155.48 245.209 155.48C246.049 155.48 246.809 155.64 247.489 155.96C248.183 156.28 248.743 156.76 249.169 157.4L248.429 157.94C248.056 157.407 247.589 157.013 247.029 156.76C246.469 156.507 245.863 156.38 245.209 156.38C244.396 156.38 243.663 156.567 243.009 156.94C242.369 157.3 241.863 157.813 241.489 158.48C241.129 159.133 240.949 159.9 240.949 160.78C240.949 161.66 241.129 162.433 241.489 163.1C241.863 163.753 242.369 164.267 243.009 164.64C243.663 165 244.396 165.18 245.209 165.18C245.863 165.18 246.469 165.053 247.029 164.8C247.589 164.547 248.056 164.153 248.429 163.62L249.169 164.16C248.743 164.8 248.183 165.28 247.489 165.6C246.809 165.92 246.049 166.08 245.209 166.08ZM258.743 166V163.62L258.703 163.26V159.34C258.703 158.367 258.436 157.627 257.903 157.12C257.383 156.613 256.616 156.36 255.603 156.36C254.883 156.36 254.21 156.487 253.583 156.74C252.97 156.98 252.443 157.293 252.003 157.68L251.503 156.96C252.023 156.493 252.65 156.133 253.383 155.88C254.116 155.613 254.883 155.48 255.683 155.48C256.976 155.48 257.97 155.807 258.663 156.46C259.356 157.113 259.703 158.087 259.703 159.38V166H258.743ZM254.983 166.08C254.21 166.08 253.536 165.96 252.963 165.72C252.403 165.467 251.97 165.113 251.663 164.66C251.37 164.207 251.223 163.687 251.223 163.1C251.223 162.567 251.343 162.087 251.583 161.66C251.836 161.22 252.25 160.867 252.823 160.6C253.396 160.32 254.163 160.18 255.123 160.18H258.963V160.96H255.143C254.063 160.96 253.303 161.16 252.863 161.56C252.436 161.96 252.223 162.46 252.223 163.06C252.223 163.727 252.476 164.26 252.983 164.66C253.49 165.06 254.203 165.26 255.123 165.26C256.003 165.26 256.743 165.06 257.343 164.66C257.956 164.26 258.41 163.68 258.703 162.92L258.983 163.6C258.703 164.36 258.223 164.967 257.543 165.42C256.876 165.86 256.023 166.08 254.983 166.08ZM266.863 166.08C265.943 166.08 265.236 165.827 264.743 165.32C264.263 164.813 264.023 164.12 264.023 163.24V153.28H265.023V163.14C265.023 163.807 265.19 164.32 265.523 164.68C265.856 165.04 266.336 165.22 266.963 165.22C267.616 165.22 268.156 165.027 268.583 164.64L269.003 165.34C268.736 165.593 268.41 165.78 268.023 165.9C267.65 166.02 267.263 166.08 266.863 166.08ZM262.103 156.42V155.56H268.343V156.42H262.103ZM271.792 166V155.56H272.792V166H271.792ZM272.292 153.02C272.065 153.02 271.872 152.94 271.712 152.78C271.552 152.62 271.472 152.433 271.472 152.22C271.472 151.993 271.552 151.8 271.712 151.64C271.872 151.48 272.065 151.4 272.292 151.4C272.532 151.4 272.725 151.48 272.872 151.64C273.032 151.787 273.112 151.973 273.112 152.2C273.112 152.427 273.032 152.62 272.872 152.78C272.725 152.94 272.532 153.02 272.292 153.02ZM281.087 166.08C280.087 166.08 279.193 165.853 278.407 165.4C277.633 164.947 277.013 164.32 276.547 163.52C276.093 162.72 275.867 161.807 275.867 160.78C275.867 159.74 276.093 158.827 276.547 158.04C277.013 157.24 277.633 156.613 278.407 156.16C279.193 155.707 280.087 155.48 281.087 155.48C282.087 155.48 282.98 155.707 283.767 156.16C284.553 156.613 285.173 157.24 285.627 158.04C286.08 158.827 286.307 159.74 286.307 160.78C286.307 161.807 286.08 162.72 285.627 163.52C285.173 164.32 284.553 164.947 283.767 165.4C282.98 165.853 282.087 166.08 281.087 166.08ZM281.087 165.18C281.887 165.18 282.607 165 283.247 164.64C283.887 164.267 284.387 163.747 284.747 163.08C285.107 162.413 285.287 161.647 285.287 160.78C285.287 159.9 285.107 159.133 284.747 158.48C284.387 157.813 283.887 157.3 283.247 156.94C282.607 156.567 281.887 156.38 281.087 156.38C280.287 156.38 279.567 156.567 278.927 156.94C278.3 157.3 277.8 157.813 277.427 158.48C277.067 159.133 276.887 159.9 276.887 160.78C276.887 161.647 277.067 162.413 277.427 163.08C277.8 163.747 278.3 164.267 278.927 164.64C279.567 165 280.287 165.18 281.087 165.18ZM294.509 155.48C295.362 155.48 296.102 155.647 296.729 155.98C297.369 156.3 297.862 156.793 298.209 157.46C298.569 158.113 298.749 158.927 298.749 159.9V166H297.749V159.98C297.749 158.807 297.449 157.913 296.849 157.3C296.262 156.687 295.436 156.38 294.369 156.38C293.556 156.38 292.849 156.547 292.249 156.88C291.649 157.213 291.189 157.68 290.869 158.28C290.562 158.88 290.409 159.6 290.409 160.44V166H289.409V155.56H290.369V158.46L290.229 158.14C290.549 157.313 291.076 156.667 291.809 156.2C292.542 155.72 293.442 155.48 294.509 155.48ZM301.906 168.86L302.686 165.48L302.786 166.06C302.533 166.06 302.319 165.98 302.146 165.82C301.986 165.66 301.906 165.46 301.906 165.22C301.906 164.98 301.986 164.78 302.146 164.62C302.319 164.46 302.519 164.38 302.746 164.38C302.999 164.38 303.199 164.467 303.346 164.64C303.506 164.8 303.586 164.993 303.586 165.22C303.586 165.313 303.579 165.407 303.566 165.5C303.553 165.593 303.533 165.687 303.506 165.78C303.479 165.873 303.446 165.993 303.406 166.14L302.626 168.86H301.906ZM316.027 166.08C315.053 166.08 314.173 165.86 313.387 165.42C312.613 164.967 312 164.34 311.547 163.54C311.093 162.74 310.867 161.82 310.867 160.78C310.867 159.727 311.093 158.807 311.547 158.02C312 157.22 312.613 156.6 313.387 156.16C314.173 155.707 315.053 155.48 316.027 155.48C316.947 155.48 317.773 155.693 318.507 156.12C319.253 156.547 319.84 157.153 320.267 157.94C320.707 158.727 320.927 159.673 320.927 160.78C320.927 161.86 320.713 162.8 320.287 163.6C319.86 164.4 319.273 165.013 318.527 165.44C317.793 165.867 316.96 166.08 316.027 166.08ZM316.087 165.18C316.887 165.18 317.6 165 318.227 164.64C318.867 164.267 319.367 163.747 319.727 163.08C320.1 162.413 320.287 161.647 320.287 160.78C320.287 159.9 320.1 159.133 319.727 158.48C319.367 157.813 318.867 157.3 318.227 156.94C317.6 156.567 316.887 156.38 316.087 156.38C315.287 156.38 314.567 156.567 313.927 156.94C313.3 157.3 312.8 157.813 312.427 158.48C312.067 159.133 311.887 159.9 311.887 160.78C311.887 161.647 312.067 162.413 312.427 163.08C312.8 163.747 313.3 164.267 313.927 164.64C314.567 165 315.287 165.18 316.087 165.18ZM320.307 166V162.58L320.487 160.76L320.287 158.94V151.16H321.287V166H320.307ZM325.503 166V155.56H326.463V158.42L326.363 158.1C326.656 157.26 327.149 156.613 327.843 156.16C328.536 155.707 329.403 155.48 330.443 155.48V156.46C330.403 156.46 330.363 156.46 330.323 156.46C330.283 156.447 330.243 156.44 330.203 156.44C329.043 156.44 328.136 156.807 327.483 157.54C326.829 158.26 326.503 159.267 326.503 160.56V166H325.503ZM333.198 166V155.56H334.198V166H333.198ZM333.698 153.02C333.471 153.02 333.278 152.94 333.118 152.78C332.958 152.62 332.878 152.433 332.878 152.22C332.878 151.993 332.958 151.8 333.118 151.64C333.278 151.48 333.471 151.4 333.698 151.4C333.938 151.4 334.131 151.48 334.278 151.64C334.438 151.787 334.518 151.973 334.518 152.2C334.518 152.427 334.438 152.62 334.278 152.78C334.131 152.94 333.938 153.02 333.698 153.02ZM341.053 166L336.353 155.56H337.413L341.813 165.44H341.333L345.773 155.56H346.793L342.073 166H341.053ZM348.979 166V155.56H349.979V166H348.979ZM349.479 153.02C349.253 153.02 349.059 152.94 348.899 152.78C348.739 152.62 348.659 152.433 348.659 152.22C348.659 151.993 348.739 151.8 348.899 151.64C349.059 151.48 349.253 151.4 349.479 151.4C349.719 151.4 349.913 151.48 350.059 151.64C350.219 151.787 350.299 151.973 350.299 152.2C350.299 152.427 350.219 152.62 350.059 152.78C349.913 152.94 349.719 153.02 349.479 153.02ZM359.294 155.48C360.148 155.48 360.888 155.647 361.514 155.98C362.154 156.3 362.648 156.793 362.994 157.46C363.354 158.113 363.534 158.927 363.534 159.9V166H362.534V159.98C362.534 158.807 362.234 157.913 361.634 157.3C361.048 156.687 360.221 156.38 359.154 156.38C358.341 156.38 357.634 156.547 357.034 156.88C356.434 157.213 355.974 157.68 355.654 158.28C355.348 158.88 355.194 159.6 355.194 160.44V166H354.194V155.56H355.154V158.46L355.014 158.14C355.334 157.313 355.861 156.667 356.594 156.2C357.328 155.72 358.228 155.48 359.294 155.48ZM371.991 169.96C371.045 169.96 370.145 169.813 369.291 169.52C368.438 169.227 367.745 168.82 367.211 168.3L367.751 167.54C368.271 168.02 368.891 168.393 369.611 168.66C370.345 168.927 371.131 169.06 371.971 169.06C373.371 169.06 374.398 168.733 375.051 168.08C375.718 167.427 376.051 166.4 376.051 165V162.1L376.251 160.54L376.091 158.98V155.56H377.051V164.88C377.051 166.627 376.625 167.907 375.771 168.72C374.931 169.547 373.671 169.96 371.991 169.96ZM371.711 165.62C370.725 165.62 369.838 165.407 369.051 164.98C368.278 164.54 367.658 163.94 367.191 163.18C366.738 162.407 366.511 161.527 366.511 160.54C366.511 159.54 366.738 158.66 367.191 157.9C367.658 157.14 368.278 156.547 369.051 156.12C369.838 155.693 370.725 155.48 371.711 155.48C372.658 155.48 373.505 155.687 374.251 156.1C375.011 156.5 375.611 157.08 376.051 157.84C376.491 158.587 376.711 159.487 376.711 160.54C376.711 161.58 376.491 162.48 376.051 163.24C375.611 164 375.011 164.587 374.251 165C373.505 165.413 372.658 165.62 371.711 165.62ZM371.791 164.72C372.631 164.72 373.371 164.547 374.011 164.2C374.651 163.84 375.151 163.347 375.511 162.72C375.885 162.08 376.071 161.353 376.071 160.54C376.071 159.713 375.885 158.987 375.511 158.36C375.151 157.733 374.651 157.247 374.011 156.9C373.371 156.553 372.631 156.38 371.791 156.38C370.978 156.38 370.245 156.553 369.591 156.9C368.951 157.247 368.445 157.733 368.071 158.36C367.711 158.987 367.531 159.713 367.531 160.54C367.531 161.353 367.711 162.08 368.071 162.72C368.445 163.347 368.951 163.84 369.591 164.2C370.245 164.547 370.978 164.72 371.791 164.72ZM148.36 190.08C147.44 190.08 146.607 189.867 145.86 189.44C145.127 189.013 144.54 188.407 144.1 187.62C143.673 186.82 143.46 185.873 143.46 184.78C143.46 183.687 143.673 182.747 144.1 181.96C144.54 181.16 145.127 180.547 145.86 180.12C146.607 179.693 147.44 179.48 148.36 179.48C149.347 179.48 150.227 179.707 151 180.16C151.787 180.6 152.4 181.22 152.84 182.02C153.293 182.82 153.52 183.74 153.52 184.78C153.52 185.82 153.293 186.74 152.84 187.54C152.4 188.34 151.787 188.967 151 189.42C150.227 189.86 149.347 190.08 148.36 190.08ZM143.12 193.88V179.56H144.08V182.98L143.92 184.8L144.12 186.62V193.88H143.12ZM148.3 189.18C149.1 189.18 149.82 189 150.46 188.64C151.1 188.267 151.6 187.747 151.96 187.08C152.333 186.413 152.52 185.647 152.52 184.78C152.52 183.9 152.333 183.133 151.96 182.48C151.6 181.813 151.1 181.3 150.46 180.94C149.82 180.567 149.1 180.38 148.3 180.38C147.5 180.38 146.78 180.567 146.14 180.94C145.513 181.3 145.013 181.813 144.64 182.48C144.28 183.133 144.1 183.9 144.1 184.78C144.1 185.647 144.28 186.413 144.64 187.08C145.013 187.747 145.513 188.267 146.14 188.64C146.78 189 147.5 189.18 148.3 189.18ZM160.696 190.08C159.696 190.08 158.803 189.853 158.016 189.4C157.243 188.947 156.623 188.32 156.156 187.52C155.703 186.72 155.476 185.807 155.476 184.78C155.476 183.74 155.703 182.827 156.156 182.04C156.623 181.24 157.243 180.613 158.016 180.16C158.803 179.707 159.696 179.48 160.696 179.48C161.696 179.48 162.589 179.707 163.376 180.16C164.163 180.613 164.783 181.24 165.236 182.04C165.689 182.827 165.916 183.74 165.916 184.78C165.916 185.807 165.689 186.72 165.236 187.52C164.783 188.32 164.163 188.947 163.376 189.4C162.589 189.853 161.696 190.08 160.696 190.08ZM160.696 189.18C161.496 189.18 162.216 189 162.856 188.64C163.496 188.267 163.996 187.747 164.356 187.08C164.716 186.413 164.896 185.647 164.896 184.78C164.896 183.9 164.716 183.133 164.356 182.48C163.996 181.813 163.496 181.3 162.856 180.94C162.216 180.567 161.496 180.38 160.696 180.38C159.896 180.38 159.176 180.567 158.536 180.94C157.909 181.3 157.409 181.813 157.036 182.48C156.676 183.133 156.496 183.9 156.496 184.78C156.496 185.647 156.676 186.413 157.036 187.08C157.409 187.747 157.909 188.267 158.536 188.64C159.176 189 159.896 189.18 160.696 189.18ZM171.658 190.08C170.792 190.08 169.978 189.953 169.218 189.7C168.472 189.447 167.892 189.127 167.478 188.74L167.938 187.94C168.338 188.287 168.872 188.587 169.538 188.84C170.205 189.08 170.925 189.2 171.698 189.2C172.792 189.2 173.578 189.02 174.058 188.66C174.538 188.3 174.778 187.827 174.778 187.24C174.778 186.813 174.652 186.48 174.398 186.24C174.158 185.987 173.832 185.793 173.418 185.66C173.005 185.527 172.552 185.42 172.058 185.34C171.565 185.247 171.072 185.147 170.578 185.04C170.085 184.933 169.632 184.78 169.218 184.58C168.805 184.38 168.472 184.107 168.218 183.76C167.978 183.4 167.858 182.927 167.858 182.34C167.858 181.807 168.005 181.327 168.298 180.9C168.592 180.473 169.032 180.133 169.618 179.88C170.205 179.613 170.938 179.48 171.818 179.48C172.472 179.48 173.125 179.573 173.778 179.76C174.445 179.947 174.985 180.193 175.398 180.5L174.938 181.3C174.498 180.967 174.005 180.727 173.458 180.58C172.912 180.433 172.358 180.36 171.798 180.36C170.785 180.36 170.038 180.547 169.558 180.92C169.092 181.293 168.858 181.76 168.858 182.32C168.858 182.76 168.978 183.113 169.218 183.38C169.472 183.633 169.805 183.833 170.218 183.98C170.632 184.113 171.085 184.227 171.578 184.32C172.072 184.4 172.565 184.493 173.058 184.6C173.552 184.707 174.005 184.86 174.418 185.06C174.832 185.247 175.158 185.513 175.398 185.86C175.652 186.193 175.778 186.647 175.778 187.22C175.778 187.793 175.618 188.293 175.298 188.72C174.992 189.147 174.532 189.48 173.918 189.72C173.305 189.96 172.552 190.08 171.658 190.08ZM178.569 190V179.56H179.569V190H178.569ZM179.069 177.02C178.843 177.02 178.649 176.94 178.489 176.78C178.329 176.62 178.249 176.433 178.249 176.22C178.249 175.993 178.329 175.8 178.489 175.64C178.649 175.48 178.843 175.4 179.069 175.4C179.309 175.4 179.503 175.48 179.649 175.64C179.809 175.787 179.889 175.973 179.889 176.2C179.889 176.427 179.809 176.62 179.649 176.78C179.503 176.94 179.309 177.02 179.069 177.02ZM186.824 190.08C185.904 190.08 185.197 189.827 184.704 189.32C184.224 188.813 183.984 188.12 183.984 187.24V177.28H184.984V187.14C184.984 187.807 185.151 188.32 185.484 188.68C185.817 189.04 186.297 189.22 186.924 189.22C187.577 189.22 188.117 189.027 188.544 188.64L188.964 189.34C188.697 189.593 188.371 189.78 187.984 189.9C187.611 190.02 187.224 190.08 186.824 190.08ZM182.064 180.42V179.56H188.304V180.42H182.064ZM191.753 190V179.56H192.753V190H191.753ZM192.253 177.02C192.026 177.02 191.833 176.94 191.673 176.78C191.513 176.62 191.433 176.433 191.433 176.22C191.433 175.993 191.513 175.8 191.673 175.64C191.833 175.48 192.026 175.4 192.253 175.4C192.493 175.4 192.686 175.48 192.833 175.64C192.993 175.787 193.073 175.973 193.073 176.2C193.073 176.427 192.993 176.62 192.833 176.78C192.686 176.94 192.493 177.02 192.253 177.02ZM199.608 190L194.908 179.56H195.968L200.368 189.44H199.888L204.328 179.56H205.348L200.628 190H199.608ZM211.481 190.08C210.428 190.08 209.494 189.853 208.681 189.4C207.881 188.947 207.248 188.32 206.781 187.52C206.328 186.72 206.101 185.807 206.101 184.78C206.101 183.74 206.314 182.827 206.741 182.04C207.181 181.24 207.781 180.613 208.541 180.16C209.301 179.707 210.154 179.48 211.101 179.48C212.048 179.48 212.894 179.7 213.641 180.14C214.401 180.58 214.994 181.2 215.421 182C215.861 182.787 216.081 183.7 216.081 184.74C216.081 184.78 216.074 184.827 216.061 184.88C216.061 184.92 216.061 184.967 216.061 185.02H206.841V184.24H215.521L215.121 184.62C215.134 183.807 214.961 183.08 214.601 182.44C214.254 181.787 213.781 181.28 213.181 180.92C212.581 180.547 211.888 180.36 211.101 180.36C210.328 180.36 209.634 180.547 209.021 180.92C208.421 181.28 207.948 181.787 207.601 182.44C207.254 183.08 207.081 183.813 207.081 184.64V184.82C207.081 185.673 207.268 186.433 207.641 187.1C208.028 187.753 208.554 188.267 209.221 188.64C209.888 189 210.648 189.18 211.501 189.18C212.168 189.18 212.788 189.06 213.361 188.82C213.948 188.58 214.441 188.213 214.841 187.72L215.421 188.38C214.968 188.94 214.394 189.367 213.701 189.66C213.021 189.94 212.281 190.08 211.481 190.08ZM226.951 190.08C226.085 190.08 225.271 189.953 224.511 189.7C223.765 189.447 223.185 189.127 222.771 188.74L223.231 187.94C223.631 188.287 224.165 188.587 224.831 188.84C225.498 189.08 226.218 189.2 226.991 189.2C228.085 189.2 228.871 189.02 229.351 188.66C229.831 188.3 230.071 187.827 230.071 187.24C230.071 186.813 229.945 186.48 229.691 186.24C229.451 185.987 229.125 185.793 228.711 185.66C228.298 185.527 227.845 185.42 227.351 185.34C226.858 185.247 226.365 185.147 225.871 185.04C225.378 184.933 224.925 184.78 224.511 184.58C224.098 184.38 223.765 184.107 223.511 183.76C223.271 183.4 223.151 182.927 223.151 182.34C223.151 181.807 223.298 181.327 223.591 180.9C223.885 180.473 224.325 180.133 224.911 179.88C225.498 179.613 226.231 179.48 227.111 179.48C227.765 179.48 228.418 179.573 229.071 179.76C229.738 179.947 230.278 180.193 230.691 180.5L230.231 181.3C229.791 180.967 229.298 180.727 228.751 180.58C228.205 180.433 227.651 180.36 227.091 180.36C226.078 180.36 225.331 180.547 224.851 180.92C224.385 181.293 224.151 181.76 224.151 182.32C224.151 182.76 224.271 183.113 224.511 183.38C224.765 183.633 225.098 183.833 225.511 183.98C225.925 184.113 226.378 184.227 226.871 184.32C227.365 184.4 227.858 184.493 228.351 184.6C228.845 184.707 229.298 184.86 229.711 185.06C230.125 185.247 230.451 185.513 230.691 185.86C230.945 186.193 231.071 186.647 231.071 187.22C231.071 187.793 230.911 188.293 230.591 188.72C230.285 189.147 229.825 189.48 229.211 189.72C228.598 189.96 227.845 190.08 226.951 190.08ZM236.902 190.08C235.982 190.08 235.276 189.827 234.782 189.32C234.302 188.813 234.062 188.12 234.062 187.24V177.28H235.062V187.14C235.062 187.807 235.229 188.32 235.562 188.68C235.896 189.04 236.376 189.22 237.002 189.22C237.656 189.22 238.196 189.027 238.622 188.64L239.042 189.34C238.776 189.593 238.449 189.78 238.062 189.9C237.689 190.02 237.302 190.08 236.902 190.08ZM232.142 180.42V179.56H238.382V180.42H232.142ZM248.411 190V187.62L248.371 187.26V183.34C248.371 182.367 248.104 181.627 247.571 181.12C247.051 180.613 246.284 180.36 245.271 180.36C244.551 180.36 243.878 180.487 243.251 180.74C242.638 180.98 242.111 181.293 241.671 181.68L241.171 180.96C241.691 180.493 242.318 180.133 243.051 179.88C243.784 179.613 244.551 179.48 245.351 179.48C246.644 179.48 247.638 179.807 248.331 180.46C249.024 181.113 249.371 182.087 249.371 183.38V190H248.411ZM244.651 190.08C243.878 190.08 243.204 189.96 242.631 189.72C242.071 189.467 241.638 189.113 241.331 188.66C241.038 188.207 240.891 187.687 240.891 187.1C240.891 186.567 241.011 186.087 241.251 185.66C241.504 185.22 241.918 184.867 242.491 184.6C243.064 184.32 243.831 184.18 244.791 184.18H248.631V184.96H244.811C243.731 184.96 242.971 185.16 242.531 185.56C242.104 185.96 241.891 186.46 241.891 187.06C241.891 187.727 242.144 188.26 242.651 188.66C243.158 189.06 243.871 189.26 244.791 189.26C245.671 189.26 246.411 189.06 247.011 188.66C247.624 188.26 248.078 187.68 248.371 186.92L248.651 187.6C248.371 188.36 247.891 188.967 247.211 189.42C246.544 189.86 245.691 190.08 244.651 190.08ZM254.251 187.12L254.271 185.86L261.171 179.56H262.451L257.871 183.86L257.271 184.36L254.251 187.12ZM253.491 190V175.16H254.491V190H253.491ZM261.651 190L257.091 184.28L257.771 183.54L262.891 190H261.651ZM269.079 190.08C268.025 190.08 267.092 189.853 266.279 189.4C265.479 188.947 264.845 188.32 264.379 187.52C263.925 186.72 263.699 185.807 263.699 184.78C263.699 183.74 263.912 182.827 264.339 182.04C264.779 181.24 265.379 180.613 266.139 180.16C266.899 179.707 267.752 179.48 268.699 179.48C269.645 179.48 270.492 179.7 271.239 180.14C271.999 180.58 272.592 181.2 273.019 182C273.459 182.787 273.679 183.7 273.679 184.74C273.679 184.78 273.672 184.827 273.659 184.88C273.659 184.92 273.659 184.967 273.659 185.02H264.439V184.24H273.119L272.719 184.62C272.732 183.807 272.559 183.08 272.199 182.44C271.852 181.787 271.379 181.28 270.779 180.92C270.179 180.547 269.485 180.36 268.699 180.36C267.925 180.36 267.232 180.547 266.619 180.92C266.019 181.28 265.545 181.787 265.199 182.44C264.852 183.08 264.679 183.813 264.679 184.64V184.82C264.679 185.673 264.865 186.433 265.239 187.1C265.625 187.753 266.152 188.267 266.819 188.64C267.485 189 268.245 189.18 269.099 189.18C269.765 189.18 270.385 189.06 270.959 188.82C271.545 188.58 272.039 188.213 272.439 187.72L273.019 188.38C272.565 188.94 271.992 189.367 271.299 189.66C270.619 189.94 269.879 190.08 269.079 190.08ZM281.872 179.48C282.726 179.48 283.466 179.647 284.092 179.98C284.732 180.3 285.226 180.793 285.572 181.46C285.932 182.113 286.112 182.927 286.112 183.9V190H285.112V183.98C285.112 182.807 284.812 181.913 284.212 181.3C283.626 180.687 282.799 180.38 281.732 180.38C280.919 180.38 280.212 180.547 279.612 180.88C279.012 181.213 278.552 181.68 278.232 182.28C277.926 182.88 277.772 183.6 277.772 184.44V190H276.772V175.16H277.772V182.46L277.592 182.14C277.912 181.313 278.439 180.667 279.172 180.2C279.906 179.72 280.806 179.48 281.872 179.48ZM294.309 190.08C293.309 190.08 292.416 189.853 291.629 189.4C290.856 188.947 290.236 188.32 289.769 187.52C289.316 186.72 289.089 185.807 289.089 184.78C289.089 183.74 289.316 182.827 289.769 182.04C290.236 181.24 290.856 180.613 291.629 180.16C292.416 179.707 293.309 179.48 294.309 179.48C295.309 179.48 296.203 179.707 296.989 180.16C297.776 180.613 298.396 181.24 298.849 182.04C299.303 182.827 299.529 183.74 299.529 184.78C299.529 185.807 299.303 186.72 298.849 187.52C298.396 188.32 297.776 188.947 296.989 189.4C296.203 189.853 295.309 190.08 294.309 190.08ZM294.309 189.18C295.109 189.18 295.829 189 296.469 188.64C297.109 188.267 297.609 187.747 297.969 187.08C298.329 186.413 298.509 185.647 298.509 184.78C298.509 183.9 298.329 183.133 297.969 182.48C297.609 181.813 297.109 181.3 296.469 180.94C295.829 180.567 295.109 180.38 294.309 180.38C293.509 180.38 292.789 180.567 292.149 180.94C291.523 181.3 291.023 181.813 290.649 182.48C290.289 183.133 290.109 183.9 290.109 184.78C290.109 185.647 290.289 186.413 290.649 187.08C291.023 187.747 291.523 188.267 292.149 188.64C292.789 189 293.509 189.18 294.309 189.18ZM302.632 190V175.16H303.632V190H302.632ZM311.867 190.08C310.893 190.08 310.013 189.86 309.227 189.42C308.453 188.967 307.84 188.34 307.387 187.54C306.933 186.74 306.707 185.82 306.707 184.78C306.707 183.727 306.933 182.807 307.387 182.02C307.84 181.22 308.453 180.6 309.227 180.16C310.013 179.707 310.893 179.48 311.867 179.48C312.787 179.48 313.613 179.693 314.347 180.12C315.093 180.547 315.68 181.153 316.107 181.94C316.547 182.727 316.767 183.673 316.767 184.78C316.767 185.86 316.553 186.8 316.127 187.6C315.7 188.4 315.113 189.013 314.367 189.44C313.633 189.867 312.8 190.08 311.867 190.08ZM311.927 189.18C312.727 189.18 313.44 189 314.067 188.64C314.707 188.267 315.207 187.747 315.567 187.08C315.94 186.413 316.127 185.647 316.127 184.78C316.127 183.9 315.94 183.133 315.567 182.48C315.207 181.813 314.707 181.3 314.067 180.94C313.44 180.567 312.727 180.38 311.927 180.38C311.127 180.38 310.407 180.567 309.767 180.94C309.14 181.3 308.64 181.813 308.267 182.48C307.907 183.133 307.727 183.9 307.727 184.78C307.727 185.647 307.907 186.413 308.267 187.08C308.64 187.747 309.14 188.267 309.767 188.64C310.407 189 311.127 189.18 311.927 189.18ZM316.147 190V186.58L316.327 184.76L316.127 182.94V175.16H317.127V190H316.147ZM325.583 190.08C324.529 190.08 323.596 189.853 322.783 189.4C321.983 188.947 321.349 188.32 320.883 187.52C320.429 186.72 320.203 185.807 320.203 184.78C320.203 183.74 320.416 182.827 320.843 182.04C321.283 181.24 321.883 180.613 322.643 180.16C323.403 179.707 324.256 179.48 325.203 179.48C326.149 179.48 326.996 179.7 327.743 180.14C328.503 180.58 329.096 181.2 329.523 182C329.963 182.787 330.183 183.7 330.183 184.74C330.183 184.78 330.176 184.827 330.163 184.88C330.163 184.92 330.163 184.967 330.163 185.02H320.943V184.24H329.623L329.223 184.62C329.236 183.807 329.063 183.08 328.703 182.44C328.356 181.787 327.883 181.28 327.283 180.92C326.683 180.547 325.989 180.36 325.203 180.36C324.429 180.36 323.736 180.547 323.123 180.92C322.523 181.28 322.049 181.787 321.703 182.44C321.356 183.08 321.183 183.813 321.183 184.64V184.82C321.183 185.673 321.369 186.433 321.743 187.1C322.129 187.753 322.656 188.267 323.323 188.64C323.989 189 324.749 189.18 325.603 189.18C326.269 189.18 326.889 189.06 327.463 188.82C328.049 188.58 328.543 188.213 328.943 187.72L329.523 188.38C329.069 188.94 328.496 189.367 327.803 189.66C327.123 189.94 326.383 190.08 325.583 190.08ZM333.276 190V179.56H334.236V182.42L334.136 182.1C334.43 181.26 334.923 180.613 335.616 180.16C336.31 179.707 337.176 179.48 338.216 179.48V180.46C338.176 180.46 338.136 180.46 338.096 180.46C338.056 180.447 338.016 180.44 337.976 180.44C336.816 180.44 335.91 180.807 335.256 181.54C334.603 182.26 334.276 183.267 334.276 184.56V190H333.276ZM346.284 190V179.56H347.284V190H346.284ZM346.784 177.02C346.557 177.02 346.364 176.94 346.204 176.78C346.044 176.62 345.964 176.433 345.964 176.22C345.964 175.993 346.044 175.8 346.204 175.64C346.364 175.48 346.557 175.4 346.784 175.4C347.024 175.4 347.217 175.48 347.364 175.64C347.524 175.787 347.604 175.973 347.604 176.2C347.604 176.427 347.524 176.62 347.364 176.78C347.217 176.94 347.024 177.02 346.784 177.02ZM364.499 179.48C365.339 179.48 366.066 179.647 366.679 179.98C367.306 180.3 367.792 180.793 368.139 181.46C368.486 182.113 368.659 182.927 368.659 183.9V190H367.659V183.98C367.659 182.807 367.372 181.913 366.799 181.3C366.226 180.687 365.426 180.38 364.399 180.38C363.612 180.38 362.932 180.547 362.359 180.88C361.786 181.213 361.346 181.68 361.039 182.28C360.732 182.88 360.579 183.6 360.579 184.44V190H359.579V183.98C359.579 182.807 359.292 181.913 358.719 181.3C358.146 180.687 357.346 180.38 356.319 180.38C355.532 180.38 354.852 180.547 354.279 180.88C353.706 181.213 353.266 181.68 352.959 182.28C352.652 182.88 352.499 183.6 352.499 184.44V190H351.499V179.56H352.459V182.44L352.319 182.12C352.626 181.307 353.139 180.667 353.859 180.2C354.579 179.72 355.446 179.48 356.459 179.48C357.499 179.48 358.372 179.747 359.079 180.28C359.799 180.8 360.252 181.58 360.439 182.62L360.099 182.48C360.379 181.587 360.906 180.867 361.679 180.32C362.452 179.76 363.392 179.48 364.499 179.48ZM378.028 190.08C377.108 190.08 376.275 189.867 375.528 189.44C374.795 189.013 374.208 188.407 373.768 187.62C373.341 186.82 373.128 185.873 373.128 184.78C373.128 183.687 373.341 182.747 373.768 181.96C374.208 181.16 374.795 180.547 375.528 180.12C376.275 179.693 377.108 179.48 378.028 179.48C379.015 179.48 379.895 179.707 380.668 180.16C381.455 180.6 382.068 181.22 382.508 182.02C382.961 182.82 383.188 183.74 383.188 184.78C383.188 185.82 382.961 186.74 382.508 187.54C382.068 188.34 381.455 188.967 380.668 189.42C379.895 189.86 379.015 190.08 378.028 190.08ZM372.788 193.88V179.56H373.748V182.98L373.588 184.8L373.788 186.62V193.88H372.788ZM377.968 189.18C378.768 189.18 379.488 189 380.128 188.64C380.768 188.267 381.268 187.747 381.628 187.08C382.001 186.413 382.188 185.647 382.188 184.78C382.188 183.9 382.001 183.133 381.628 182.48C381.268 181.813 380.768 181.3 380.128 180.94C379.488 180.567 378.768 180.38 377.968 180.38C377.168 180.38 376.448 180.567 375.808 180.94C375.181 181.3 374.681 181.813 374.308 182.48C373.948 183.133 373.768 183.9 373.768 184.78C373.768 185.647 373.948 186.413 374.308 187.08C374.681 187.747 375.181 188.267 375.808 188.64C376.448 189 377.168 189.18 377.968 189.18ZM392.825 190V187.62L392.785 187.26V183.34C392.785 182.367 392.518 181.627 391.985 181.12C391.465 180.613 390.698 180.36 389.685 180.36C388.965 180.36 388.292 180.487 387.665 180.74C387.052 180.98 386.525 181.293 386.085 181.68L385.585 180.96C386.105 180.493 386.732 180.133 387.465 179.88C388.198 179.613 388.965 179.48 389.765 179.48C391.058 179.48 392.052 179.807 392.745 180.46C393.438 181.113 393.785 182.087 393.785 183.38V190H392.825ZM389.065 190.08C388.292 190.08 387.618 189.96 387.045 189.72C386.485 189.467 386.052 189.113 385.745 188.66C385.452 188.207 385.305 187.687 385.305 187.1C385.305 186.567 385.425 186.087 385.665 185.66C385.918 185.22 386.332 184.867 386.905 184.6C387.478 184.32 388.245 184.18 389.205 184.18H393.045V184.96H389.225C388.145 184.96 387.385 185.16 386.945 185.56C386.518 185.96 386.305 186.46 386.305 187.06C386.305 187.727 386.558 188.26 387.065 188.66C387.572 189.06 388.285 189.26 389.205 189.26C390.085 189.26 390.825 189.06 391.425 188.66C392.038 188.26 392.492 187.68 392.785 186.92L393.065 187.6C392.785 188.36 392.305 188.967 391.625 189.42C390.958 189.86 390.105 190.08 389.065 190.08ZM402.045 190.08C401.032 190.08 400.125 189.853 399.325 189.4C398.538 188.947 397.912 188.32 397.445 187.52C396.992 186.72 396.765 185.807 396.765 184.78C396.765 183.74 396.992 182.82 397.445 182.02C397.912 181.22 398.538 180.6 399.325 180.16C400.125 179.707 401.032 179.48 402.045 179.48C402.885 179.48 403.645 179.64 404.325 179.96C405.018 180.28 405.578 180.76 406.005 181.4L405.265 181.94C404.892 181.407 404.425 181.013 403.865 180.76C403.305 180.507 402.698 180.38 402.045 180.38C401.232 180.38 400.498 180.567 399.845 180.94C399.205 181.3 398.698 181.813 398.325 182.48C397.965 183.133 397.785 183.9 397.785 184.78C397.785 185.66 397.965 186.433 398.325 187.1C398.698 187.753 399.205 188.267 399.845 188.64C400.498 189 401.232 189.18 402.045 189.18C402.698 189.18 403.305 189.053 403.865 188.8C404.425 188.547 404.892 188.153 405.265 187.62L406.005 188.16C405.578 188.8 405.018 189.28 404.325 189.6C403.645 189.92 402.885 190.08 402.045 190.08ZM412.156 190.08C411.236 190.08 410.529 189.827 410.036 189.32C409.556 188.813 409.316 188.12 409.316 187.24V177.28H410.316V187.14C410.316 187.807 410.483 188.32 410.816 188.68C411.149 189.04 411.629 189.22 412.256 189.22C412.909 189.22 413.449 189.027 413.876 188.64L414.296 189.34C414.029 189.593 413.703 189.78 413.316 189.9C412.943 190.02 412.556 190.08 412.156 190.08ZM407.396 180.42V179.56H413.636V180.42H407.396ZM417.16 190.08C416.933 190.08 416.733 190 416.56 189.84C416.4 189.667 416.32 189.46 416.32 189.22C416.32 188.98 416.4 188.78 416.56 188.62C416.733 188.46 416.933 188.38 417.16 188.38C417.387 188.38 417.58 188.46 417.74 188.62C417.913 188.78 418 188.98 418 189.22C418 189.46 417.913 189.667 417.74 189.84C417.58 190 417.387 190.08 417.16 190.08Z" fill="#706E66"/>
</svg>
