<svg xmlns="http://www.w3.org/2000/svg" width="56" height="66" viewBox="0 0 56 66" fill="none"><g clip-path="url(#clip0_1806_559)"><path d="M22.3491 40.8246C22.4698 40.1122 22.5918 39.3766 22.7176 38.6411C22.8703 37.7496 23.0167 36.8556 23.1835 35.9667C23.2413 35.6589 23.1771 35.4347 22.9473 35.2131C21.8305 34.1362 20.7278 33.0451 19.62 31.9591C19.4069 31.7504 19.1989 31.5418 19.2978 31.1978C19.403 30.8268 19.6996 30.7353 20.0256 30.6877C21.5686 30.4622 23.1116 30.2304 24.6572 30.0191C24.9602 29.9779 25.1309 29.8452 25.2606 29.5747C25.9127 28.2195 26.5802 26.872 27.2426 25.5207C27.2914 25.4215 27.3363 25.321 27.3941 25.227C27.7188 24.6949 28.2785 24.704 28.5699 25.2553C28.8267 25.741 29.0641 26.2382 29.3055 26.7329C29.7689 27.6771 30.2362 28.6188 30.6855 29.5695C30.8138 29.84 30.982 29.9766 31.2875 30.0178C32.8087 30.2213 34.3273 30.4455 35.8472 30.6645C35.955 30.6799 36.0654 30.6967 36.1694 30.7289C36.7099 30.8912 36.8742 31.4065 36.4814 31.8058C35.6264 32.678 34.7496 33.5295 33.8793 34.3861C33.5661 34.6953 33.2516 35.0019 32.9281 35.2995C32.7522 35.4605 32.724 35.6434 32.7625 35.8637C33.0359 37.4417 33.3016 39.0211 33.5776 40.5979C33.6303 40.8967 33.6123 41.1672 33.3658 41.3643C33.1065 41.573 32.8267 41.537 32.543 41.3875C31.1425 40.6429 29.7368 39.9074 28.3414 39.1538C28.0744 39.0095 27.86 39.0159 27.5956 39.1589C26.2747 39.8713 24.9448 40.5669 23.6174 41.2664C23.4236 41.3682 23.2349 41.4829 23.0038 41.4841C22.6226 41.4854 22.3543 41.2291 22.3478 40.8233L22.3491 40.8246Z" fill="#EF8E41"></path><path d="M26.9705 66C24.3248 65.0158 21.7189 63.9543 19.2285 62.6056C9.98718 57.6022 4.1502 49.9786 1.67652 39.7515C0.874209 36.4344 0.433901 33.0657 0.231076 29.6584C0.0590609 26.7883 -0.0628903 23.9169 0.0346707 21.0467C0.10399 18.9908 -0.0153935 16.9258 0.240062 14.8814C0.652129 11.5861 3.32479 9.22614 6.65085 9.05868C13.7625 8.70056 20.0116 6.2491 25.19 1.2457C26.9037 -0.410931 29.0693 -0.416084 30.7959 1.2354C34.5327 4.81017 38.8883 7.22556 43.9461 8.32955C45.6791 8.70829 47.4301 8.99169 49.2028 9.05352C52.9307 9.18363 55.7715 11.9494 55.846 15.6968C55.9076 18.8053 56.0616 21.9124 55.9743 25.0234C55.8165 30.6671 55.3903 36.272 53.7779 41.725C51.1618 50.5711 45.8691 57.2904 37.9384 61.9409C35.1053 63.6026 32.104 64.887 29.0244 66.0013H26.9718L26.9705 66ZM3.03082 22.3568C2.98717 25.084 3.07832 27.5651 3.2529 30.0487C3.46086 33.0245 3.85752 35.9693 4.56355 38.8678C5.91657 44.4264 8.34276 49.4246 12.2978 53.6075C16.5019 58.0531 21.6855 60.9103 27.3723 62.9495C27.8421 63.1183 28.285 63.0745 28.7446 62.9083C31.3659 61.964 33.8973 60.8253 36.303 59.416C43.0231 55.4779 47.7625 49.8897 50.3492 42.4889C52.2093 37.1661 52.7895 31.6409 52.9538 26.0566C53.0565 22.5423 52.9833 19.023 52.8447 15.5074C52.7754 13.7374 51.2824 12.2251 49.5225 12.0911C48.3107 11.9984 47.0989 11.8837 45.896 11.715C39.3723 10.8003 33.6868 8.11829 28.9063 3.54515C28.1489 2.82118 27.855 2.82376 27.0835 3.55932C25.009 5.53414 22.7176 7.20624 20.1823 8.53824C15.9243 10.7759 11.3492 11.7948 6.58923 12.0911C4.71888 12.2083 3.18871 13.6833 3.15919 15.5229C3.12196 17.8816 2.93069 20.2364 3.0321 22.3581L3.03082 22.3568Z" fill="#333333"></path><circle cx="28" cy="33" r="15" stroke="#333333" stroke-width="2"></circle></g><defs><clipPath id="clip0_1806_559"><rect width="56" height="66" fill="white"></rect></clipPath></defs></svg>