<svg xmlns="http://www.w3.org/2000/svg" width="56" height="66" viewBox="0 0 56 66" fill="none"><g clip-path="url(#clip0_1806_571)"><path d="M35.8075 30.1647V30.4712C35.7806 30.5537 35.7485 30.6348 35.7266 30.7186C35.1143 33.0193 34.5033 35.3201 33.8922 37.6208C33.8679 37.7097 33.8576 37.7999 33.8576 37.8926C33.8589 38.623 33.8602 39.3547 33.8576 40.0851C33.8576 40.4549 33.6817 40.6288 33.3133 40.6288C29.769 40.6288 26.2234 40.6288 22.6792 40.6275C22.2928 40.6275 22.1156 40.4523 22.1143 40.0684C22.1143 39.338 22.1143 38.6063 22.1143 37.8759C22.1143 37.7883 22.1066 37.7032 22.0848 37.6182C21.5854 35.7426 21.0861 33.8657 20.588 31.99C20.4532 31.4812 20.3133 30.9736 20.1849 30.4635C20.0951 30.1093 20.2992 29.8581 20.6625 29.8542C20.8409 29.8529 21.018 29.8645 21.1952 29.8877C22.8512 30.1131 24.2491 31.516 24.4725 33.1791C24.5328 33.6312 24.5277 34.086 24.5277 34.5407C24.5277 34.7468 24.5456 34.7648 24.7421 34.7648C25.2157 34.7648 25.6894 34.7661 26.1631 34.7648C26.3595 34.7648 26.3736 34.7417 26.3159 34.5458C26.1875 34.1143 26.0566 33.6853 25.9308 33.2538C25.7844 32.7552 25.7048 32.249 25.7485 31.7272C25.8627 30.3283 26.5136 29.2526 27.6753 28.4797C27.891 28.3367 28.0925 28.3354 28.3133 28.4758C29.8602 29.4587 30.588 31.3537 30.0874 33.1224C29.9487 33.6145 29.7985 34.1027 29.6496 34.5909C29.6137 34.7082 29.6329 34.7623 29.7677 34.7623C30.2671 34.7584 30.7664 34.7584 31.2645 34.7623C31.4019 34.7623 31.4404 34.7017 31.4391 34.5755C31.4352 34.2946 31.4327 34.0125 31.4391 33.7317C31.4673 32.6625 31.8409 31.735 32.5996 30.9788C33.2825 30.2973 34.1118 29.9263 35.0745 29.8439C35.3903 29.8168 35.6548 29.8439 35.8088 30.1634L35.8075 30.1647Z" fill="#4766EA"></path><path d="M28.1374 24.9217C28.3774 25.0466 28.4673 25.245 28.4532 25.5142C28.439 25.7886 28.4532 26.0656 28.4493 26.3413C28.4455 26.635 28.2503 26.8346 27.9769 26.8308C27.7112 26.8269 27.5238 26.6285 27.5199 26.3413C27.5161 26.0656 27.5302 25.7899 27.5161 25.5142C27.502 25.245 27.5918 25.0466 27.8319 24.9217H28.1374Z" fill="#4766EA"></path><path d="M24.8024 27.6887C24.6291 27.6926 24.4905 27.6192 24.4032 27.4749C24.2235 27.1786 24.0463 26.8784 23.8846 26.5718C23.769 26.3516 23.855 26.0952 24.0604 25.9703C24.2658 25.8453 24.5354 25.8865 24.6728 26.0939C24.8769 26.3992 25.0681 26.7161 25.2196 27.0498C25.357 27.3512 25.1272 27.6849 24.8024 27.6874V27.6887Z" fill="#4766EA"></path><path d="M31.1631 27.6887C30.846 27.6849 30.6111 27.359 30.742 27.0652C30.8948 26.7213 31.0899 26.3967 31.3017 26.0849C31.4378 25.8852 31.6997 25.8479 31.9012 25.9664C32.1066 26.0875 32.199 26.3438 32.0848 26.5628C31.923 26.8746 31.7446 27.1773 31.561 27.4762C31.4673 27.6308 31.3287 27.6887 31.1618 27.6874L31.1631 27.6887Z" fill="#4766EA"></path><path d="M26.9705 66C24.3248 65.0158 21.7189 63.9543 19.2285 62.6056C9.98717 57.6022 4.1502 49.9786 1.67652 39.7515C0.874209 36.4344 0.4339 33.0657 0.231076 29.6584C0.0590609 26.7883 -0.0628903 23.9169 0.0346707 21.0467C0.10399 18.9908 -0.0153935 16.9258 0.240062 14.8814C0.652129 11.5861 3.32479 9.22615 6.65085 9.05868C13.7625 8.70056 20.0116 6.2491 25.19 1.2457C26.9037 -0.410931 29.0693 -0.416084 30.7959 1.2354C34.5327 4.81017 38.8883 7.22556 43.9461 8.32955C45.6791 8.70829 47.4301 8.99169 49.2028 9.05353C52.9307 9.18363 55.7715 11.9494 55.846 15.6968C55.9076 18.8053 56.0616 21.9124 55.9743 25.0234C55.8164 30.6671 55.3903 36.2721 53.7779 41.725C51.1618 50.5711 45.8691 57.2904 37.9384 61.9409C35.1053 63.6027 32.104 64.887 29.0244 66.0013H26.9718L26.9705 66ZM3.03082 22.3568C2.98717 25.084 3.07832 27.5651 3.2529 30.0487C3.46086 33.0245 3.85752 35.9693 4.56355 38.8678C5.91657 44.4264 8.34276 49.4246 12.2978 53.6075C16.5019 58.0531 21.6855 60.9103 27.3723 62.9495C27.8421 63.1183 28.285 63.0745 28.7446 62.9083C31.3659 61.9641 33.8973 60.8253 36.303 59.416C43.0231 55.4779 47.7625 49.8897 50.3492 42.4889C52.2093 37.1661 52.7895 31.6409 52.9538 26.0566C53.0565 22.5423 52.9833 19.023 52.8447 15.5074C52.7754 13.7374 51.2824 12.2251 49.5225 12.0911C48.3107 11.9984 47.0989 11.8837 45.896 11.715C39.3723 10.8003 33.6868 8.11829 28.9063 3.54515C28.1489 2.82118 27.855 2.82376 27.0835 3.55932C25.009 5.53414 22.7176 7.20624 20.1823 8.53824C15.9243 10.7759 11.3492 11.7948 6.58923 12.0911C4.71888 12.2083 3.18871 13.6833 3.15919 15.5229C3.12196 17.8816 2.93069 20.2364 3.0321 22.3581L3.03082 22.3568Z" fill="#333333"></path><circle cx="28" cy="33" r="15" stroke="#333333" stroke-width="2"></circle></g><defs><clipPath id="clip0_1806_571"><rect width="56" height="66" fill="white"></rect></clipPath></defs></svg>