<svg xmlns="http://www.w3.org/2000/svg" width="430" height="264" viewBox="0 0 430 264" fill="none"><rect width="430" height="264" rx="10" fill="white"></rect><path d="M293.791 98.4257C285.728 90.6115 276.49 84.1205 266.673 79.5735C251.722 72.6494 235.251 69.3101 218.78 69.1128C170.644 68.5354 166.977 124.553 152.177 132.343C137.376 140.133 110.549 141.048 109.627 172.203C109.044 191.801 113.663 211.948 126.647 227.215C138.542 241.198 156.014 248.286 173.228 253.521C192.56 259.401 213.063 265.17 233.396 261.2C254.263 257.13 268.922 240.76 286.058 229.698C296.847 222.736 306.532 215.403 313.196 204.225C313.993 202.892 314.741 201.526 315.45 200.145C324.368 182.779 326.117 162.748 321.201 143.959C316.786 127.099 306.823 111.037 293.801 98.4209L293.791 98.4257Z" fill="#DFFC7C"></path><path opacity="0.7" d="M293.791 98.4257C285.728 90.6115 276.49 84.1205 266.673 79.5735C251.722 72.6494 235.251 69.3101 218.78 69.1128C170.644 68.5354 166.977 124.553 152.177 132.343C137.376 140.133 110.549 141.048 109.627 172.203C109.044 191.801 113.663 211.948 126.647 227.215C138.542 241.198 156.014 248.286 173.228 253.521C192.56 259.401 213.063 265.17 233.396 261.2C254.263 257.13 268.922 240.76 286.058 229.698C296.847 222.736 306.532 215.403 313.196 204.225C313.993 202.892 314.741 201.526 315.45 200.145C324.368 182.779 326.117 162.748 321.201 143.959C316.786 127.099 306.823 111.037 293.801 98.4209L293.791 98.4257Z" fill="white"></path><path d="M281.249 212.557C282.035 213.232 284.273 213.866 284.279 213.868C284.301 213.875 284.243 212.277 284.23 212.18C284.056 211.018 283.028 208.873 281.719 208.656C280.78 208.496 280 209.241 279.94 210.146C279.881 211.069 280.581 211.985 281.247 212.562L281.249 212.557Z" fill="#C7C7C7"></path><path d="M280.05 219.169C280.95 219.596 283.109 219.635 283.283 219.639C283.258 220.833 283.33 222.064 283.471 223.309C283.552 224.022 283.652 224.734 283.764 225.444C283.662 225.127 283.575 224.84 283.555 224.803C283.074 223.726 281.515 221.926 280.198 222.059C279.25 222.151 278.697 223.071 278.885 223.965C279.074 224.872 279.99 225.576 280.787 225.952C281.594 226.337 283.436 226.408 283.925 226.423C283.972 226.698 284.013 226.97 284.06 227.245C284.288 228.555 284.516 229.864 284.702 231.148C284.769 231.602 284.818 232.051 284.867 232.5C284.779 232.219 284.703 231.979 284.689 231.943C284.208 230.866 282.648 229.065 281.331 229.199C280.384 229.291 279.831 230.211 280.018 231.105C280.208 232.012 281.123 232.716 281.921 233.091C282.695 233.46 284.391 233.537 284.974 233.555C285.012 234.019 285.052 234.478 285.064 234.927C285.07 235.233 285.091 235.53 285.078 235.836C285.071 236.144 285.065 236.446 285.054 236.746C285.02 237.324 284.988 237.915 284.94 238.477C284.906 238.869 284.874 239.237 284.833 239.615C284.772 239.162 284.638 238.278 284.617 238.204C284.31 237.068 283.042 235.054 281.718 234.987C280.765 234.935 280.078 235.764 280.129 236.672C280.181 237.599 280.977 238.427 281.706 238.924C282.513 239.47 284.555 239.826 284.811 239.868C284.751 240.488 284.686 241.087 284.611 241.653C284.469 242.805 284.314 243.835 284.171 244.727L284.999 244.982C285.128 244.055 285.27 242.965 285.396 241.746C285.459 241.115 285.515 240.444 285.571 239.755C285.737 239.745 286.682 239.664 287.551 239.48C287.982 240.374 289.394 241.701 289.579 241.87C289.182 242.349 288.793 242.818 288.417 243.247C287.707 244.069 287.044 244.8 286.456 245.431L287.347 245.705C287.857 245.125 288.42 244.475 289.019 243.748C289.426 243.26 289.845 242.733 290.275 242.19C290.499 242.315 292.327 243.305 293.298 243.382C294.178 243.448 295.319 243.298 295.934 242.601C296.538 241.92 296.518 240.848 295.738 240.292C294.663 239.521 292.412 240.308 291.461 241C291.405 241.039 290.846 241.554 290.501 241.882C290.677 241.657 290.843 241.442 291.022 241.206C291.375 240.751 291.709 240.277 292.076 239.777C292.245 239.532 292.41 239.279 292.583 239.023C292.76 238.774 292.91 238.491 293.08 238.222C293.455 237.594 293.801 236.938 294.131 236.272C294.538 236.577 295.997 237.646 296.862 237.844C297.719 238.046 298.877 238.062 299.591 237.471C300.294 236.894 300.435 235.829 299.751 235.166C298.804 234.242 296.459 234.684 295.412 235.223C295.345 235.258 294.643 235.729 294.26 235.995C294.46 235.592 294.659 235.189 294.843 234.775C295.381 233.577 295.889 232.352 296.404 231.129C296.562 230.757 296.721 230.384 296.88 230.012C297.02 230.123 298.733 231.426 299.701 231.656C300.563 231.86 301.716 231.874 302.43 231.282C303.133 230.706 303.274 229.64 302.59 228.977C301.642 228.053 299.298 228.496 298.25 229.034C298.168 229.077 297.158 229.757 296.906 229.946C297.259 229.125 297.616 228.312 298.002 227.526C298.531 226.438 299.113 225.403 299.755 224.436C299.82 224.487 301.599 225.859 302.591 226.09C303.454 226.294 304.607 226.309 305.321 225.717C306.024 225.141 306.164 224.075 305.481 223.412C304.533 222.488 302.189 222.93 301.141 223.469C301.059 223.512 299.969 224.248 299.78 224.394C299.817 224.337 299.849 224.273 299.891 224.217C300.586 223.199 301.389 222.3 302.182 221.491C302.64 221.019 303.107 220.599 303.569 220.196C303.875 220.482 305.28 221.789 306.149 222.094C306.984 222.388 308.129 222.53 308.905 222.02C309.665 221.523 309.924 220.481 309.319 219.743C308.477 218.722 306.1 218.906 305 219.329C304.942 219.355 304.362 219.653 303.941 219.883C304.152 219.706 304.366 219.518 304.573 219.353C305.349 218.724 306.093 218.198 306.759 217.74C307.14 217.48 307.491 217.253 307.818 217.044C308.265 217.176 310.076 217.672 310.97 217.551C311.846 217.43 312.924 217.037 313.373 216.228C313.817 215.436 313.558 214.389 312.685 214.015C311.471 213.492 309.447 214.74 308.669 215.621C308.601 215.699 307.69 217.011 307.713 217.018C307.713 217.018 307.736 217.025 307.742 217.027C307.42 217.219 307.078 217.436 306.71 217.676C306.034 218.124 305.271 218.632 304.48 219.25C303.691 219.862 302.849 220.544 302.025 221.35C301.202 222.155 300.373 223.04 299.645 224.061C299.642 224.072 299.631 224.088 299.622 224.097C299.741 223.731 300.041 222.696 300.054 222.613C300.253 221.46 299.947 219.104 298.771 218.494C297.925 218.054 296.951 218.516 296.61 219.359C296.263 220.219 296.637 221.3 297.098 222.056C297.613 222.902 299.401 224.122 299.541 224.215C298.853 225.192 298.23 226.258 297.658 227.365C297.33 228.001 297.018 228.648 296.718 229.299C296.815 228.982 296.891 228.696 296.898 228.654C297.097 227.501 296.79 225.146 295.615 224.536C294.769 224.095 293.795 224.557 293.453 225.4C293.107 226.26 293.481 227.341 293.942 228.097C294.408 228.86 295.905 229.928 296.308 230.201C296.194 230.451 296.078 230.707 295.969 230.958C295.426 232.172 294.896 233.385 294.335 234.556C294.138 234.972 293.929 235.367 293.722 235.774C293.809 235.491 293.871 235.25 293.876 235.214C294.075 234.061 293.769 231.705 292.593 231.095C291.747 230.655 290.773 231.117 290.432 231.959C290.085 232.819 290.459 233.901 290.92 234.656C291.366 235.382 292.74 236.382 293.213 236.714C292.989 237.116 292.764 237.523 292.528 237.903C292.361 238.161 292.218 238.421 292.036 238.668C291.859 238.917 291.682 239.166 291.513 239.411C291.164 239.874 290.806 240.346 290.451 240.788C290.205 241.097 289.973 241.384 289.733 241.676C289.934 241.267 290.308 240.459 290.336 240.387C290.584 239.646 290.687 238.358 290.419 237.34C290.452 237.232 290.487 237.119 290.497 237.004C290.623 236.108 290.009 235.218 289.052 235.177C287.73 235.123 286.298 237.012 285.896 238.114C285.875 238.182 285.693 238.913 285.588 239.376C285.607 239.091 285.628 238.819 285.649 238.528C285.689 237.952 285.705 237.374 285.732 236.757C285.73 236.459 285.736 236.157 285.737 235.847C285.743 235.546 285.712 235.22 285.702 234.907C285.664 234.177 285.585 233.44 285.494 232.699C286.003 232.732 287.807 232.824 288.638 232.522C289.464 232.219 290.434 231.607 290.702 230.717C290.963 229.849 290.487 228.878 289.554 228.697C288.256 228.445 286.547 230.093 285.98 231.121C285.948 231.185 285.62 231.964 285.454 232.402C285.392 231.955 285.335 231.51 285.261 231.06C285.041 229.765 284.786 228.46 284.532 227.155C284.455 226.754 284.383 226.359 284.306 225.958C284.49 225.971 286.63 226.129 287.56 225.79C288.386 225.486 289.356 224.875 289.624 223.984C289.885 223.117 289.409 222.146 288.477 221.964C287.178 221.713 285.469 223.361 284.903 224.388C284.859 224.468 284.401 225.591 284.291 225.885C284.131 225.006 283.974 224.133 283.855 223.26C283.694 222.058 283.598 220.87 283.596 219.717C283.681 219.725 285.917 219.899 286.869 219.548C287.695 219.245 288.665 218.633 288.933 217.743C289.194 216.875 288.718 215.905 287.785 215.723C286.487 215.471 284.778 217.12 284.211 218.147C284.168 218.226 283.669 219.442 283.593 219.666C283.595 219.599 283.586 219.528 283.588 219.46C283.599 218.225 283.767 217.031 283.977 215.925C284.1 215.281 284.251 214.671 284.413 214.083C284.829 214.155 286.724 214.479 287.617 214.258C288.471 214.044 289.501 213.544 289.865 212.689C290.221 211.857 289.859 210.841 288.945 210.56C287.677 210.169 285.802 211.624 285.126 212.58C285.092 212.631 284.772 213.202 284.548 213.623C284.63 213.357 284.703 213.081 284.779 212.832C285.072 211.882 285.402 211.035 285.696 210.283C285.87 209.86 286.032 209.476 286.192 209.123C286.634 208.986 288.417 208.414 289.09 207.816C289.749 207.239 290.428 206.314 290.35 205.391C290.279 204.484 289.486 203.75 288.546 203.919C287.242 204.149 286.255 206.298 286.102 207.465C286.089 207.567 286.06 209.163 286.088 209.153C286.088 209.153 286.109 209.147 286.116 209.143C285.955 209.483 285.793 209.849 285.62 210.248C285.308 210.994 284.96 211.841 284.644 212.785C284.328 213.728 284.009 214.764 283.77 215.886C283.53 217.008 283.338 218.2 283.301 219.459C283.297 219.47 283.303 219.49 283.3 219.502C283.196 219.129 282.869 218.099 282.835 218.026C282.354 216.949 280.795 215.149 279.478 215.282C278.53 215.374 277.977 216.294 278.165 217.188C278.354 218.095 279.27 218.799 280.067 219.175L280.05 219.169Z" fill="#C7C7C7"></path><path d="M303.582 219.971C303.582 219.971 304.439 218.63 304.48 218.538C304.976 217.476 305.311 215.132 304.338 214.231C303.635 213.587 302.571 213.773 302.023 214.497C301.458 215.233 301.531 216.377 301.777 217.222C302.06 218.213 303.584 219.965 303.584 219.965L303.582 219.971Z" fill="#C7C7C7"></path><path d="M163.604 217.406C162.654 217.821 160.329 217.768 160.323 217.768C160.299 217.768 160.825 216.258 160.866 216.169C161.375 215.109 162.988 213.362 164.303 213.54C165.248 213.664 165.774 214.606 165.565 215.488C165.349 216.388 164.411 217.057 163.604 217.412V217.406Z" fill="#C7C7C7"></path><path d="M162.803 224.08C161.817 224.222 159.743 223.624 159.576 223.576C159.247 224.725 158.816 225.88 158.314 227.028C158.027 227.685 157.723 228.337 157.406 228.982C157.597 228.71 157.764 228.461 157.794 228.432C158.571 227.543 160.592 226.282 161.811 226.797C162.69 227.164 162.947 228.207 162.504 229.006C162.056 229.817 160.974 230.22 160.102 230.344C159.217 230.474 157.436 230.001 156.964 229.87C156.838 230.119 156.718 230.368 156.593 230.616C155.989 231.801 155.386 232.985 154.83 234.157C154.632 234.572 154.453 234.986 154.274 235.401C154.441 235.158 154.585 234.951 154.608 234.921C155.386 234.033 157.406 232.772 158.625 233.287C159.504 233.654 159.761 234.696 159.319 235.495C158.87 236.306 157.788 236.709 156.916 236.833C156.067 236.958 154.423 236.531 153.861 236.378C153.688 236.81 153.515 237.236 153.371 237.662C153.276 237.953 153.168 238.231 153.09 238.527C153.007 238.823 152.923 239.113 152.845 239.403C152.708 239.966 152.564 240.54 152.445 241.091C152.361 241.476 152.283 241.837 152.212 242.21C152.403 241.795 152.791 240.99 152.833 240.925C153.461 239.93 155.266 238.379 156.551 238.705C157.478 238.935 157.89 239.93 157.573 240.783C157.25 241.653 156.246 242.21 155.403 242.47C154.471 242.755 152.415 242.494 152.158 242.458C152.032 243.068 151.919 243.66 151.823 244.223C151.62 245.366 151.465 246.396 151.339 247.29H150.472C150.622 246.366 150.807 245.283 151.046 244.081C151.172 243.459 151.315 242.802 151.465 242.127C151.309 242.068 150.43 241.712 149.653 241.28C148.978 242.008 147.239 242.861 147.012 242.968C147.251 243.542 147.484 244.105 147.717 244.626C148.153 245.62 148.572 246.514 148.942 247.29H148.01C147.693 246.585 147.346 245.798 146.988 244.928C146.743 244.341 146.497 243.714 146.246 243.068C145.995 243.122 143.957 243.53 143.007 243.317C142.146 243.122 141.1 242.642 140.718 241.795C140.341 240.966 140.676 239.948 141.584 239.646C142.839 239.226 144.758 240.641 145.463 241.582C145.505 241.635 145.888 242.293 146.121 242.707C146.019 242.441 145.924 242.186 145.822 241.908C145.619 241.369 145.44 240.818 145.236 240.232C145.153 239.948 145.063 239.658 144.973 239.362C144.878 239.072 144.818 238.758 144.74 238.45C144.567 237.739 144.429 237.011 144.31 236.277C143.832 236.449 142.122 237.041 141.238 236.976C140.359 236.916 139.247 236.591 138.739 235.815C138.237 235.057 138.416 233.997 139.265 233.565C140.443 232.961 142.553 234.074 143.395 234.897C143.449 234.951 143.981 235.608 144.268 235.975C144.196 235.531 144.125 235.087 144.071 234.637C143.909 233.334 143.784 232.014 143.652 230.693C143.611 230.291 143.569 229.888 143.527 229.485C143.359 229.551 141.339 230.291 140.347 230.226C139.462 230.166 138.357 229.841 137.849 229.065C137.346 228.307 137.526 227.247 138.375 226.815C139.552 226.211 141.662 227.324 142.505 228.147C142.57 228.212 143.336 229.16 143.521 229.414C143.425 228.526 143.324 227.644 143.186 226.78C143.001 225.583 142.75 224.423 142.421 223.31C142.343 223.339 140.239 224.127 139.223 224.056C138.339 223.997 137.233 223.671 136.725 222.895C136.223 222.137 136.402 221.078 137.251 220.645C138.428 220.041 140.538 221.155 141.381 221.978C141.447 222.043 142.272 223.067 142.409 223.262C142.391 223.197 142.379 223.126 142.355 223.061C141.991 221.883 141.489 220.787 140.969 219.781C140.67 219.195 140.347 218.656 140.024 218.135C139.648 218.318 137.92 219.153 137 219.189C136.115 219.224 134.979 219.023 134.388 218.307C133.808 217.608 133.868 216.536 134.663 216.009C135.768 215.281 137.986 216.157 138.912 216.885C138.96 216.927 139.426 217.383 139.767 217.726C139.618 217.495 139.468 217.253 139.319 217.033C138.763 216.205 138.207 215.482 137.705 214.849C137.418 214.487 137.149 214.168 136.898 213.872C136.432 213.866 134.555 213.807 133.736 213.428C132.935 213.055 132.021 212.362 131.83 211.456C131.638 210.568 132.194 209.644 133.139 209.543C134.453 209.401 136.02 211.189 136.504 212.261C136.545 212.356 137.03 213.878 137.006 213.878C137.006 213.878 136.982 213.878 136.976 213.878C137.227 214.156 137.49 214.464 137.771 214.801C138.285 215.429 138.865 216.139 139.438 216.962C140.012 217.78 140.616 218.68 141.166 219.692C141.716 220.705 142.248 221.794 142.642 222.984C142.642 222.996 142.648 223.014 142.654 223.026C142.648 222.641 142.666 221.563 142.678 221.48C142.827 220.32 143.814 218.158 145.117 217.922C146.055 217.75 146.85 218.478 146.928 219.384C147.006 220.308 146.33 221.232 145.667 221.818C144.925 222.475 142.857 223.114 142.696 223.162C143.067 224.299 143.348 225.501 143.569 226.726C143.694 227.431 143.802 228.141 143.897 228.852C143.897 228.52 143.909 228.224 143.915 228.183C144.065 227.022 145.051 224.861 146.354 224.624C147.292 224.453 148.087 225.181 148.165 226.087C148.243 227.01 147.567 227.934 146.904 228.52C146.234 229.112 144.489 229.693 144.023 229.835C144.059 230.107 144.095 230.385 144.125 230.658C144.286 231.978 144.435 233.293 144.627 234.578C144.692 235.033 144.776 235.472 144.854 235.922C144.854 235.626 144.866 235.377 144.872 235.341C145.021 234.181 146.007 232.02 147.31 231.783C148.249 231.611 149.044 232.339 149.121 233.245C149.199 234.169 148.524 235.093 147.86 235.679C147.221 236.241 145.613 236.792 145.063 236.97C145.159 237.42 145.254 237.876 145.368 238.308C145.451 238.604 145.511 238.894 145.613 239.184C145.708 239.474 145.804 239.764 145.894 240.049C146.091 240.593 146.294 241.15 146.503 241.677C146.647 242.044 146.784 242.387 146.928 242.737C146.856 242.287 146.737 241.405 146.731 241.328C146.713 240.546 146.994 239.285 147.549 238.391C147.549 238.278 147.549 238.16 147.573 238.047C147.717 237.153 148.566 236.484 149.492 236.727C150.771 237.064 151.584 239.291 151.644 240.463C151.644 240.534 151.602 241.286 151.566 241.76C151.632 241.481 151.692 241.215 151.757 240.931C151.889 240.368 152.044 239.812 152.2 239.214C152.289 238.93 152.373 238.639 152.463 238.343C152.546 238.053 152.672 237.751 152.774 237.455C153.025 236.768 153.317 236.087 153.622 235.406C153.126 235.288 151.375 234.844 150.67 234.311C149.97 233.778 149.223 232.908 149.229 231.978C149.235 231.072 149.976 230.285 150.921 230.385C152.236 230.528 153.383 232.606 153.622 233.755C153.64 233.826 153.718 234.666 153.748 235.134C153.939 234.726 154.124 234.317 154.328 233.908C154.919 232.736 155.547 231.564 156.175 230.391C156.366 230.03 156.551 229.675 156.742 229.314C156.563 229.272 154.471 228.793 153.682 228.195C152.983 227.662 152.236 226.791 152.242 225.862C152.248 224.956 152.989 224.168 153.933 224.269C155.248 224.411 156.396 226.489 156.635 227.638C156.653 227.727 156.76 228.935 156.778 229.249C157.191 228.455 157.597 227.668 157.968 226.868C158.476 225.767 158.918 224.66 159.259 223.558C159.175 223.541 156.987 223.049 156.18 222.433C155.481 221.901 154.734 221.03 154.74 220.101C154.746 219.195 155.487 218.407 156.432 218.508C157.747 218.65 158.894 220.728 159.133 221.877C159.151 221.966 159.271 223.274 159.277 223.511C159.295 223.446 159.324 223.381 159.342 223.316C159.695 222.132 159.886 220.941 160.012 219.822C160.084 219.171 160.119 218.543 160.137 217.933C159.719 217.88 157.812 217.632 157.023 217.158C156.27 216.702 155.433 215.92 155.338 214.997C155.242 214.097 155.888 213.232 156.844 213.232C158.171 213.232 159.534 215.174 159.898 216.287C159.916 216.347 160.054 216.986 160.143 217.454C160.143 217.176 160.155 216.891 160.155 216.631C160.155 215.636 160.09 214.73 160.03 213.925C159.988 213.469 159.946 213.055 159.898 212.67C159.516 212.409 157.98 211.337 157.507 210.568C157.047 209.822 156.671 208.738 157.017 207.88C157.352 207.033 158.326 206.565 159.175 207.003C160.353 207.607 160.663 209.952 160.466 211.112C160.448 211.213 160.006 212.747 159.982 212.729C159.982 212.729 159.964 212.717 159.958 212.711C160.012 213.084 160.06 213.481 160.107 213.913C160.185 214.718 160.269 215.63 160.293 216.625C160.317 217.62 160.317 218.703 160.215 219.846C160.113 220.989 159.946 222.185 159.611 223.399C159.611 223.41 159.599 223.428 159.599 223.44C159.809 223.114 160.424 222.226 160.478 222.167C161.255 221.279 163.275 220.018 164.495 220.533C165.373 220.9 165.63 221.942 165.188 222.741C164.74 223.553 163.658 223.955 162.785 224.08H162.803Z" fill="#C7C7C7"></path><path d="M140.072 217.916C140.072 217.916 139.647 216.382 139.635 216.281C139.474 215.121 139.845 212.782 141.04 212.208C141.901 211.799 142.863 212.291 143.174 213.143C143.497 214.014 143.09 215.085 142.606 215.819C142.044 216.684 140.072 217.91 140.072 217.91V217.916Z" fill="#C7C7C7"></path><path d="M238.849 127.298H198.276L191.803 156.483H245.322L238.849 127.298Z" fill="#F0F0F0" stroke="#C7C7C7" stroke-linecap="round" stroke-linejoin="round"></path><path d="M251.79 155.95H185.336L174.732 199.5H262.4L251.79 155.95Z" fill="#E3E3E3" stroke="#C7C7C7" stroke-linecap="round" stroke-linejoin="round"></path><path d="M238.802 156.027H198.324V161.315H238.802V156.027Z" fill="white" stroke="#C7C7C7" stroke-linecap="round" stroke-linejoin="round"></path><path d="M239.895 160.823H197.236V166.223H239.895V160.823Z" fill="white" stroke="#C7C7C7" stroke-linecap="round" stroke-linejoin="round"></path><path d="M240.983 165.897H196.142V171.404H240.983V165.897Z" fill="white" stroke="#C7C7C7" stroke-linecap="round" stroke-linejoin="round"></path><path d="M242.077 171.114H195.055V176.733H242.077V171.114Z" fill="white" stroke="#C7C7C7" stroke-linecap="round" stroke-linejoin="round"></path><path d="M243.165 176.467H193.961V182.192H243.165V176.467Z" fill="white" stroke="#C7C7C7" stroke-linecap="round" stroke-linejoin="round"></path><path d="M244.258 181.955H192.873V187.793H244.258V181.955Z" fill="white" stroke="#C7C7C7" stroke-linecap="round" stroke-linejoin="round"></path><path d="M245.346 187.722H191.779V193.673H245.346V187.722Z" fill="white" stroke="#C7C7C7" stroke-linecap="round" stroke-linejoin="round"></path><path d="M246.44 193.353H190.691V199.41H246.44V193.353Z" fill="white" stroke="#C7C7C7" stroke-linecap="round" stroke-linejoin="round"></path><path d="M228.025 127.369H209.107V130.863H228.025V127.369Z" fill="white" stroke="#C7C7C7" stroke-linecap="round" stroke-linejoin="round"></path><path d="M228.533 130.543H208.593V134.108H228.533V130.543Z" fill="white" stroke="#C7C7C7" stroke-linecap="round" stroke-linejoin="round"></path><path d="M229.041 133.894H208.085V137.53H229.041V133.894Z" fill="white" stroke="#C7C7C7" stroke-linecap="round" stroke-linejoin="round"></path><path d="M229.555 137.334H207.577V141.047H229.555V137.334Z" fill="white" stroke="#C7C7C7" stroke-linecap="round" stroke-linejoin="round"></path><path d="M230.063 140.869H207.063V144.653H230.063V140.869Z" fill="white" stroke="#C7C7C7" stroke-linecap="round" stroke-linejoin="round"></path><path d="M230.571 144.499H206.555V148.354H230.571V144.499Z" fill="white" stroke="#C7C7C7" stroke-linecap="round" stroke-linejoin="round"></path><path d="M231.085 148.306H206.047V152.238H231.085V148.306Z" fill="white" stroke="#C7C7C7" stroke-linecap="round" stroke-linejoin="round"></path><path d="M231.587 152.025H205.533V156.027H231.587V152.025Z" fill="white" stroke="#C7C7C7" stroke-linecap="round" stroke-linejoin="round"></path><path d="M274.212 199H162.787L145 263H292L274.212 199Z" fill="#C7C7C7" stroke="#C7C7C7" stroke-linecap="round" stroke-linejoin="round"></path><path d="M257.397 199.174H179.735V206.913H257.397V199.174Z" fill="white" stroke="#C7C7C7" stroke-linecap="round" stroke-linejoin="round"></path><path d="M259.483 206.19H177.637V214.089H259.483V206.19Z" fill="white" stroke="#C7C7C7" stroke-linecap="round" stroke-linejoin="round"></path><path d="M261.581 213.615H175.545V221.674H261.581V213.615Z" fill="white" stroke="#C7C7C7" stroke-linecap="round" stroke-linejoin="round"></path><path d="M263.673 221.248H173.453V229.466H263.673V221.248Z" fill="white" stroke="#C7C7C7" stroke-linecap="round" stroke-linejoin="round"></path><path d="M265.77 229.075H171.361V237.453H265.77V229.075Z" fill="white" stroke="#C7C7C7" stroke-linecap="round" stroke-linejoin="round"></path><path d="M267.862 237.11H169.269V245.654H267.862V237.11Z" fill="white" stroke="#C7C7C7" stroke-linecap="round" stroke-linejoin="round"></path><path d="M269.955 245.548H167.171V254.252H269.955V245.548Z" fill="white" stroke="#C7C7C7" stroke-linecap="round" stroke-linejoin="round"></path><path d="M272.047 253.79H165.079V262.654H272.047V253.79Z" fill="white" stroke="#C7C7C7" stroke-linecap="round" stroke-linejoin="round"></path><path d="M160.908 156.335L155.564 160.989" stroke="#C7C7C7" stroke-linecap="round" stroke-linejoin="round"></path><path d="M208.516 114.87L164.201 153.463" stroke="#C7C7C7" stroke-linecap="round" stroke-linejoin="round"></path><path d="M203.859 113.721L173.603 124.669" stroke="#C7C7C7" stroke-linecap="round" stroke-linejoin="round"></path><path d="M176.149 109.233L156.723 110.838" stroke="#C7C7C7" stroke-linecap="round" stroke-linejoin="round"></path><path d="M198.623 107.38L178.313 109.056" stroke="#C7C7C7" stroke-linecap="round" stroke-linejoin="round"></path><path d="M146.628 81.8604L141.595 80.2854" stroke="#C7C7C7" stroke-linecap="round" stroke-linejoin="round"></path><path d="M190.011 95.4316L148.075 82.3105" stroke="#C7C7C7" stroke-linecap="round" stroke-linejoin="round"></path><path d="M196.878 97.5806L192.825 96.3135" stroke="#C7C7C7" stroke-linecap="round" stroke-linejoin="round"></path><path d="M278.239 156.335L283.589 160.989" stroke="#C7C7C7" stroke-linecap="round" stroke-linejoin="round"></path><path d="M230.631 114.87L274.946 153.463" stroke="#C7C7C7" stroke-linecap="round" stroke-linejoin="round"></path><path d="M235.287 113.721L265.55 124.669" stroke="#C7C7C7" stroke-linecap="round" stroke-linejoin="round"></path><path d="M262.998 109.233L282.423 110.838" stroke="#C7C7C7" stroke-linecap="round" stroke-linejoin="round"></path><path d="M240.523 107.38L260.833 109.056" stroke="#C7C7C7" stroke-linecap="round" stroke-linejoin="round"></path><path d="M292.519 81.8604L297.551 80.2854" stroke="#C7C7C7" stroke-linecap="round" stroke-linejoin="round"></path><path d="M249.136 95.4316L291.072 82.3105" stroke="#C7C7C7" stroke-linecap="round" stroke-linejoin="round"></path><path d="M242.269 97.5806L246.321 96.3135" stroke="#C7C7C7" stroke-linecap="round" stroke-linejoin="round"></path><path d="M221.78 95.0635H216.333V118.039H221.78V95.0635Z" fill="#00AAE1" stroke="white" stroke-linecap="round" stroke-linejoin="round"></path><path d="M227.106 122.962H211.007L212.898 114.052H225.206L227.106 122.962Z" fill="#00AAE1" stroke="white" stroke-linecap="round" stroke-linejoin="round"></path><path d="M236.803 126.717H201.301L205.092 118.512H233.022L236.803 126.717Z" fill="#00AAE1" stroke="white" stroke-linecap="round" stroke-linejoin="round"></path><path d="M201.067 70.749C194.136 70.749 188.525 76.4174 188.525 83.4047C188.525 90.3919 194.146 96.0603 201.067 96.0603C207.989 96.0603 213.609 90.3919 213.609 83.4047C213.609 76.4174 207.989 70.749 201.067 70.749ZM201.067 92.8486C195.904 92.8486 191.717 88.6199 191.717 83.4047C191.717 78.1894 195.904 73.9608 201.067 73.9608C206.23 73.9608 210.418 78.1894 210.418 83.4047C210.418 88.6199 206.23 92.8486 201.067 92.8486Z" fill="#00AAE1" stroke="white" stroke-linecap="round" stroke-linejoin="round"></path><path d="M238.936 70.749C232.005 70.749 226.395 76.4174 226.395 83.4047C226.395 90.3919 232.015 96.0603 238.936 96.0603C245.858 96.0603 251.478 90.3919 251.478 83.4047C251.478 76.4174 245.858 70.749 238.936 70.749ZM238.936 92.8486C233.773 92.8486 229.586 88.6199 229.586 83.4047C229.586 78.1894 233.773 73.9608 238.936 73.9608C244.099 73.9608 248.287 78.1894 248.287 83.4047C248.287 88.6199 244.099 92.8486 238.936 92.8486Z" fill="#00AAE1" stroke="white" stroke-linecap="round" stroke-linejoin="round"></path><path d="M219.056 101.396C210.295 101.396 203.201 94.3685 203.201 85.6897V69.5103H234.911V85.6897C234.911 94.3685 227.817 101.396 219.056 101.396Z" fill="#00AAE1" stroke="white" stroke-linecap="round" stroke-linejoin="round"></path><path d="M207.764 75.7235L215.694 89.6135L217.785 84.9597L222.939 85.7928L212.186 72.4265L207.764 75.7235Z" fill="#DFFC7C" stroke="#DFFC7C" stroke-linecap="round" stroke-linejoin="round"></path><path d="M207.344 74.0811L204.58 89.804L209.182 87.5188L212.63 91.399L212.859 74.3072L207.344 74.0811Z" fill="#DFFC7C" stroke="#DFFC7C" stroke-linecap="round" stroke-linejoin="round"></path><path d="M219.071 69.9746C219.071 65.5707 215.466 62 211.021 62C206.575 62 202.971 65.5707 202.971 69.9746C202.971 74.3784 206.575 77.9491 211.021 77.9491C215.466 77.9491 219.071 74.3784 219.071 69.9746Z" fill="white" stroke="#DFFC7C" stroke-linecap="round" stroke-linejoin="round"></path><path d="M217.233 69.9748C217.233 66.5826 214.457 63.8213 211.021 63.8213C207.585 63.8213 204.809 66.5707 204.809 69.9748C204.809 73.3789 207.585 76.1283 211.021 76.1283C214.457 76.1283 217.233 73.3789 217.233 69.9748Z" fill="white" stroke="#333333" stroke-linecap="round" stroke-linejoin="round"></path><path d="M209.206 66.8801C210.191 66.8801 210.407 66.4159 210.6 65.8684H211.453V73.8787H210.179V67.7728H209.194V66.8801H209.206Z" fill="#333333"></path><path d="M246.787 192.696C246.309 190.008 245.616 183.329 249.716 180.055C254.922 175.898 258.616 183.383 263.147 177.562C267.678 171.742 269.022 159.1 282.459 159.266C295.89 159.432 296.9 166.916 296.9 169.415C296.9 171.914 300.929 173.737 301.771 173.737C302.614 173.737 307.312 171.576 308.992 176.396C310.671 181.221 309.53 184.01 312.202 184.111C314.867 184.212 318.185 180.606 321.819 182.412C325.453 184.212 325.453 188.043 326.965 189.369C328.477 190.701 330.994 188.368 334.353 189.7C336.385 190.506 337.001 191.796 337.174 192.696H246.799H246.787Z" fill="white" stroke="white" stroke-miterlimit="10"></path><path d="M253.051 103.952C252.896 103.07 252.669 100.873 254.014 99.7954C255.723 98.4276 256.936 100.891 258.425 98.9783C259.913 97.0658 260.355 92.9092 264.772 92.9684C269.19 93.0276 269.518 95.4848 269.518 96.3019C269.518 97.119 270.845 97.723 271.12 97.723C271.395 97.723 272.943 97.0125 273.493 98.5993C274.043 100.186 273.672 101.104 274.545 101.134C275.424 101.169 276.512 99.9848 277.707 100.577C278.902 101.169 278.902 102.424 279.399 102.862C279.895 103.301 280.726 102.537 281.825 102.969C282.495 103.235 282.698 103.656 282.752 103.952H253.051Z" fill="white" stroke="white" stroke-miterlimit="10"></path><path d="M245.915 141.426C245.622 139.786 245.203 135.712 247.702 133.717C250.876 131.183 253.129 135.748 255.897 132.195C258.664 128.643 259.483 120.934 267.678 121.034C275.872 121.135 276.488 125.7 276.488 127.222C276.488 128.743 278.945 129.862 279.459 129.862C279.973 129.862 282.842 128.542 283.864 131.485C284.886 134.428 284.192 136.127 285.818 136.192C287.444 136.251 289.47 134.055 291.682 135.156C293.899 136.257 293.899 138.59 294.82 139.401C295.74 140.212 297.276 138.791 299.327 139.603C300.57 140.094 300.94 140.882 301.048 141.426H245.915Z" fill="white" stroke="white" stroke-miterlimit="10"></path><path d="M210.392 174.14C210.984 170.83 211.833 162.606 206.782 158.574C200.375 153.452 195.826 162.671 190.243 155.5C184.661 148.33 183.005 132.77 166.466 132.971C149.927 133.178 148.684 142.391 148.684 145.464C148.684 148.537 143.723 150.787 142.689 150.787C141.655 150.787 135.869 148.123 133.801 154.062C131.733 160 133.138 163.435 129.85 163.565C126.563 163.689 122.486 159.249 118.009 161.469C113.538 163.689 113.538 168.397 111.674 170.037C109.815 171.677 106.712 168.805 102.576 170.445C100.072 171.44 99.3127 173.027 99.1035 174.134H210.386L210.392 174.14Z" fill="white" stroke="white" stroke-miterlimit="10"></path><path d="M168.744 140.591C168.929 139.543 169.198 136.938 167.602 135.665C165.57 134.043 164.129 136.962 162.366 134.694C160.597 132.426 160.077 127.494 154.835 127.559C149.593 127.624 149.204 130.543 149.204 131.514C149.204 132.485 147.632 133.202 147.304 133.202C146.975 133.202 145.146 132.361 144.488 134.238C143.831 136.121 144.279 137.204 143.239 137.246C142.199 137.287 140.908 135.878 139.492 136.583C138.075 137.287 138.075 138.779 137.483 139.294C136.891 139.816 135.911 138.904 134.602 139.425C133.807 139.739 133.568 140.242 133.502 140.591H168.738H168.744Z" fill="white" stroke="white" stroke-miterlimit="10"></path></svg>